<svg width="347" height="95" viewBox="0 0 347 95" fill="none" xmlns="http://www.w3.org/2000/svg">
<path d="M1.95881 84V81.7727L8.84943 74.6335C9.58523 73.858 10.1918 73.1785 10.669 72.5952C11.1529 72.0052 11.5142 71.4451 11.7528 70.9148C11.9915 70.3845 12.1108 69.821 12.1108 69.2244C12.1108 68.5483 11.9517 67.965 11.6335 67.4744C11.3153 66.9773 10.8812 66.5961 10.331 66.331C9.78078 66.0592 9.16099 65.9233 8.47159 65.9233C7.74242 65.9233 7.10606 66.0724 6.5625 66.3707C6.01894 66.669 5.60133 67.09 5.30966 67.6335C5.01799 68.1771 4.87216 68.8134 4.87216 69.5426H1.93892C1.93892 68.303 2.22396 67.2192 2.79403 66.2912C3.36411 65.3632 4.14631 64.6439 5.14062 64.1335C6.13494 63.6165 7.26515 63.358 8.53125 63.358C9.81061 63.358 10.9375 63.6132 11.9119 64.1236C12.893 64.6274 13.6586 65.3168 14.2088 66.1918C14.759 67.0601 15.0341 68.0412 15.0341 69.1349C15.0341 69.8906 14.8916 70.6297 14.6065 71.3523C14.3281 72.0748 13.8409 72.8802 13.1449 73.7685C12.4489 74.6501 11.4811 75.7206 10.2415 76.9801L6.1946 81.2159V81.3651H15.3622V84H1.95881ZM25.3802 84.3381C23.8091 84.3314 22.4668 83.9171 21.3532 83.0952C20.2395 82.2732 19.3877 81.0767 18.7978 79.5057C18.2078 77.9347 17.9128 76.0421 17.9128 73.8281C17.9128 71.6207 18.2078 69.7348 18.7978 68.1705C19.3944 66.6061 20.2495 65.4129 21.3631 64.5909C22.4834 63.7689 23.8224 63.358 25.3802 63.358C26.9379 63.358 28.2736 63.7723 29.3873 64.6009C30.5009 65.4228 31.3527 66.616 31.9427 68.1804C32.5393 69.7382 32.8376 71.6207 32.8376 73.8281C32.8376 76.0488 32.5426 77.9446 31.9526 79.5156C31.3627 81.08 30.5109 82.2765 29.3972 83.1051C28.2836 83.9271 26.9446 84.3381 25.3802 84.3381ZM25.3802 81.6832C26.759 81.6832 27.8361 81.0104 28.6117 79.6648C29.3939 78.3191 29.785 76.3736 29.785 73.8281C29.785 72.1378 29.606 70.7093 29.2481 69.5426C28.8967 68.3693 28.3896 67.4811 27.7268 66.8778C27.0705 66.268 26.2883 65.9631 25.3802 65.9631C24.008 65.9631 22.9308 66.6392 22.1486 67.9915C21.3664 69.3437 20.972 71.2893 20.9654 73.8281C20.9654 75.5251 21.1411 76.9602 21.4924 78.1335C21.8503 79.3002 22.3574 80.1851 23.0137 80.7884C23.6699 81.3849 24.4588 81.6832 25.3802 81.6832ZM43.2508 63.6364V84H40.1684V66.7188H40.049L35.1769 69.9006V66.9574L40.2579 63.6364H43.2508ZM55.0088 84.3381C53.4377 84.3314 52.0954 83.9171 50.9818 83.0952C49.8681 82.2732 49.0163 81.0767 48.4264 79.5057C47.8364 77.9347 47.5414 76.0421 47.5414 73.8281C47.5414 71.6207 47.8364 69.7348 48.4264 68.1705C49.023 66.6061 49.8781 65.4129 50.9917 64.5909C52.112 63.7689 53.451 63.358 55.0088 63.358C56.5665 63.358 57.9022 63.7723 59.0159 64.6009C60.1295 65.4228 60.9813 66.616 61.5713 68.1804C62.1679 69.7382 62.4661 71.6207 62.4661 73.8281C62.4661 76.0488 62.1712 77.9446 61.5812 79.5156C60.9912 81.08 60.1394 82.2765 59.0258 83.1051C57.9122 83.9271 56.5732 84.3381 55.0088 84.3381ZM55.0088 81.6832C56.3876 81.6832 57.4647 81.0104 58.2403 79.6648C59.0225 78.3191 59.4136 76.3736 59.4136 73.8281C59.4136 72.1378 59.2346 70.7093 58.8767 69.5426C58.5253 68.3693 58.0182 67.4811 57.3554 66.8778C56.6991 66.268 55.9169 65.9631 55.0088 65.9631C53.6366 65.9631 52.5594 66.6392 51.7772 67.9915C50.995 69.3437 50.6006 71.2893 50.594 73.8281C50.594 75.5251 50.7697 76.9602 51.121 78.1335C51.4789 79.3002 51.986 80.1851 52.6423 80.7884C53.2985 81.3849 54.0874 81.6832 55.0088 81.6832Z" fill="#939393"/>
<path d="M0 89.5682H64.0471V94.8882H0V89.5682Z" fill="#939393"/>
<path d="M221.805 13.9177C223.124 14.491 224.236 15.2495 225.14 16.1933C223.607 14.5153 221.648 13.0817 219.263 11.8922L203.433 4.26456C199.001 2.34705 194.41 2.53543 189.659 4.82972C182.976 8.44206 177.219 12.8483 172.389 18.0484C169.135 21.5498 168.225 26.1188 169.656 31.7554L173.247 48.2477C173.9 50.3899 174.511 52.1156 175.078 53.4251C173.972 50.4881 174.703 46.4912 177.273 41.4343C177.868 40.4441 178.484 39.4765 179.121 38.5312C181.635 34.7954 185.395 30.6737 190.403 26.1664C193.046 23.787 195.665 21.72 198.262 19.9654C201.071 18.0663 204.121 16.3465 207.413 14.8058C208.332 14.3748 209.261 14.0116 210.2 13.7163C210.987 13.4708 211.78 13.2725 212.582 13.1214C214.27 12.8055 215.909 12.7185 217.5 12.8606C219.066 12.9989 220.501 13.3513 221.805 13.9177Z" fill="url(#paint0_linear_1218_800)"/>
<path d="M223.657 58.9254C224.404 58.5843 225.077 58.1923 225.676 57.7494C222.737 59.0758 218.428 58.2129 212.749 55.1608L179.121 38.5303C178.484 39.4755 177.868 40.4432 177.273 41.4335C174.703 46.4903 173.971 50.4873 175.078 53.4242C175.251 53.8244 175.44 54.2117 175.643 54.5859C175.647 54.5925 175.652 54.601 175.657 54.611C176.547 56.233 177.785 57.6891 179.371 58.9792C181.466 60.6772 184.024 62.2002 187.045 63.5481C189.333 64.5702 192.317 65.6604 195.996 66.8193C198.139 67.5025 199.996 67.8884 201.568 67.9771C203.385 68.0778 205.183 67.8194 206.961 67.2019L223.657 58.9254Z" fill="url(#paint1_linear_1218_800)"/>
<path d="M225.14 16.193C224.235 15.2493 223.124 14.4908 221.805 13.9175C220.501 13.3511 219.066 12.9987 217.5 12.8604C215.909 12.7183 214.269 12.8052 212.581 13.1212C211.78 13.2723 210.986 13.4705 210.199 13.716C214.727 28.1121 215.577 41.9273 212.749 55.1614C218.428 58.2135 222.737 59.0763 225.676 57.7499C227.776 56.1854 229.096 53.9962 229.636 51.1823C230.458 46.9515 230.705 41.8784 230.378 35.9624C230.091 30.7335 229.455 26.078 228.468 21.9955C228.272 21.1843 227.97 20.3932 227.564 19.6223C227.248 19.0168 226.811 18.3296 226.254 17.5608C225.913 17.0875 225.541 16.6315 225.14 16.193Z" fill="url(#paint2_linear_1218_800)"/>
<path d="M205.904 24.0102C205.203 24.269 204.577 24.6315 204.026 25.0973C203.455 25.5825 202.956 26.1715 202.528 26.8638C202.1 27.5496 201.714 28.339 201.37 29.2321L201.224 24.6702L201.029 24.1364L200.494 23.9908H199.385V45.7124H201.477V31.6682L202.547 29.067C202.93 28.3099 203.377 27.6822 203.89 27.1841C204.422 26.6728 205.009 26.2911 205.651 26.0387C206.306 25.7799 207.052 25.6505 207.889 25.6505L210.117 25.9514C210.312 25.9514 210.445 25.8381 210.516 25.6116L210.691 24.1559L209.533 23.7384L208.21 23.6317C207.354 23.6317 206.585 23.7579 205.904 24.0102ZM229.5 26.1262C228.728 25.3109 227.816 24.6897 226.766 24.2626C225.708 23.855 224.566 23.6512 223.34 23.6512C221.803 23.6512 220.421 23.9198 219.195 24.4568C217.982 25.0002 216.958 25.7476 216.121 26.6987C215.277 27.6499 214.635 28.7791 214.194 30.086C213.74 31.4062 213.513 32.8491 213.513 34.415C213.513 36.2591 213.753 37.8928 214.233 39.3163C214.707 40.7528 215.378 41.9692 216.247 42.9658C217.129 43.9558 218.183 44.7064 219.409 45.2175C220.636 45.7351 221.988 45.9941 223.467 45.9941L225.929 45.7513L228.196 45.1205L230.113 44.1305C230.696 43.7616 231.16 43.3572 231.504 42.9173L230.949 42.2184L230.502 42.0049L228.488 43.1792L226.483 43.9849C225.672 44.2113 224.725 44.3247 223.642 44.3247C222.416 44.3247 221.304 44.1207 220.305 43.713C219.312 43.286 218.466 42.6519 217.765 41.8107C217.065 40.9696 216.523 39.9311 216.14 38.6952C215.77 37.4593 215.586 36.0326 215.586 34.415V33.9879H231.416L231.864 33.8132L232 33.1532C232 31.6327 231.78 30.2834 231.339 29.1059C230.878 27.9282 230.265 26.935 229.5 26.1262ZM228.235 27.1841C228.831 27.8247 229.295 28.6076 229.626 29.533C229.95 30.4582 230.113 31.5031 230.113 32.668H215.693C215.822 31.529 216.085 30.4971 216.481 29.5717C216.863 28.6658 217.382 27.886 218.037 27.2327C218.693 26.5791 219.465 26.0744 220.353 25.7185C221.235 25.3627 222.238 25.1847 223.36 25.1847C224.359 25.1847 225.27 25.3627 226.094 25.7185C226.924 26.0614 227.638 26.55 228.235 27.1841ZM237.04 27.0772L237.43 27.6985L237.683 27.9994L238.072 28.1061C238.299 28.1061 238.568 27.9573 238.879 27.6596L240.144 26.6987L242.003 25.7378C242.742 25.4532 243.641 25.3109 244.698 25.3109C246.391 25.3109 247.672 25.8511 248.542 26.9318C249.411 28.0122 249.845 29.5554 249.845 31.5614V33.8423C247.38 33.894 245.272 34.0978 243.521 34.4537C241.75 34.7967 240.31 35.2593 239.201 35.8417C238.078 36.424 237.251 37.1067 236.719 37.8896C236.194 38.6856 235.931 39.5395 235.931 40.4519C235.931 41.442 236.097 42.2928 236.428 43.0045C236.752 43.7034 237.193 44.2793 237.751 44.7323C238.289 45.1852 238.909 45.5184 239.609 45.7319C240.303 45.9455 241.023 46.0522 241.769 46.0522C242.665 46.0522 243.482 45.9682 244.221 45.7999C244.961 45.6252 245.652 45.376 246.294 45.0525L248.152 43.8781L249.933 42.3058L250.254 45.0914C250.351 45.5054 250.621 45.7124 251.062 45.7124H251.898V31.5614C251.898 30.3514 251.749 29.2547 251.451 28.2712C251.165 27.2941 250.731 26.4626 250.147 25.7767C249.576 25.0844 248.85 24.5539 247.967 24.185C247.098 23.8161 246.08 23.6317 244.912 23.6317C243.316 23.6317 241.889 23.923 240.631 24.5053C239.379 25.0877 238.182 25.945 237.04 27.0772ZM238.646 38.2972C239.113 37.6954 239.833 37.1747 240.806 36.7345C241.773 36.2946 243.005 35.9484 244.503 35.696C245.995 35.4503 247.776 35.2852 249.845 35.2011V40.8984L248.308 42.3445L246.595 43.5191C245.999 43.8424 245.343 44.0982 244.63 44.2858C243.916 44.4669 243.141 44.5576 242.305 44.5576L240.65 44.3052C240.125 44.1499 239.664 43.9008 239.269 43.5578C238.866 43.2149 238.545 42.7813 238.305 42.2573C238.065 41.7203 237.945 41.0894 237.945 40.3646C237.945 39.5945 238.179 38.9054 238.646 38.2972ZM261.123 13.9453H259.03V45.7124H261.123V13.9453Z" fill="white"/>
<path d="M280.477 23.9908H278.404V45.7124H280.477V23.9908ZM270.785 13.9453H268.693V45.7124H270.785V13.9453ZM281.226 15.7603L280.798 15.1197L280.175 14.7218L279.435 14.5665L278.706 14.7218L278.083 15.1197L277.655 15.7603L277.509 16.5077L277.655 17.2356L278.083 17.8277L278.706 18.2547L279.435 18.4003L280.175 18.2547L280.798 17.8277L281.226 17.2356L281.372 16.5077L281.226 15.7603ZM303.352 24.1364L303.07 24.5248L295.85 41.6651L295.295 43.5578L294.76 41.6651L287.58 24.5248L287.297 24.1559L286.811 23.9908H285.167L294.352 45.7124H296.191L305.386 23.9908H303.8L303.352 24.1364ZM324.496 26.1262C323.724 25.3109 322.812 24.6897 321.761 24.2626C320.704 23.855 319.562 23.6512 318.336 23.6512C316.799 23.6512 315.417 23.9198 314.191 24.4568C312.978 25.0002 311.953 25.7476 311.117 26.6987C310.273 27.6499 309.631 28.7791 309.19 30.086C308.736 31.4062 308.509 32.8491 308.509 34.415C308.509 36.2591 308.749 37.8928 309.229 39.3163C309.702 40.7528 310.374 41.9692 311.243 42.9658C312.125 43.9558 313.18 44.7064 314.405 45.2175C315.631 45.7351 316.984 45.9941 318.463 45.9941L320.925 45.7513L323.192 45.1205L325.109 44.1305C325.692 43.7616 326.156 43.3572 326.5 42.9173L325.945 42.2184L325.498 42.0049L323.484 43.1792L321.479 43.9849C320.668 44.2113 319.721 44.3247 318.638 44.3247C317.412 44.3247 316.3 44.1207 315.301 43.713C314.308 43.286 313.462 42.6519 312.761 41.8107C312.06 40.9696 311.519 39.9311 311.136 38.6952C310.766 37.4593 310.581 36.0326 310.581 34.415V33.9879H326.413L326.86 33.8132L326.996 33.1532C326.996 31.6327 326.776 30.2834 326.335 29.1059C325.874 27.9282 325.261 26.935 324.496 26.1262ZM323.231 27.1841C323.828 27.8247 324.291 28.6076 324.622 29.533C324.946 30.4582 325.109 31.5031 325.109 32.668H310.688C310.818 31.529 311.081 30.4971 311.477 29.5717C311.86 28.6658 312.378 27.886 313.034 27.2327C313.689 26.5791 314.461 26.0744 315.349 25.7185C316.231 25.3627 317.234 25.1847 318.356 25.1847C319.355 25.1847 320.266 25.3627 321.09 25.7185C321.92 26.0614 322.634 26.55 323.231 27.1841ZM334.917 26.4658C335.371 26.0776 335.925 25.7703 336.58 25.5438C337.223 25.3173 337.943 25.204 338.741 25.204C339.61 25.204 340.349 25.2979 340.959 25.4856L342.506 26.0971L343.508 26.7181L344.121 26.9705C344.335 26.9705 344.501 26.8734 344.618 26.6794L345.065 25.9514C344.209 25.1685 343.268 24.5862 342.243 24.2044C341.219 23.8355 340.044 23.6512 338.721 23.6512C337.605 23.6512 336.6 23.8064 335.705 24.117C334.822 24.4469 334.067 24.8806 333.438 25.4176C332.828 25.9611 332.351 26.5855 332.007 27.2909C331.683 28.0026 331.521 28.7434 331.521 29.5135C331.521 30.4194 331.689 31.1731 332.027 31.7749C332.383 32.3831 332.847 32.8942 333.418 33.3085C333.989 33.7356 334.631 34.0914 335.345 34.3761L339.791 35.8222L341.728 36.6764C342.298 37.0128 342.756 37.4172 343.1 37.8896C343.456 38.3749 343.635 38.9799 343.635 39.7046C343.635 40.3582 343.515 40.9825 343.275 41.5778C343.028 42.1602 342.671 42.6713 342.205 43.1114C341.744 43.5514 341.167 43.9008 340.472 44.1596C339.759 44.4119 338.945 44.5381 338.03 44.5381C337.051 44.5381 336.233 44.4184 335.578 44.179L333.885 43.4316L332.825 42.6844C332.552 42.4448 332.315 42.3251 332.114 42.3251L331.735 42.4125L331.492 42.6844L331.005 43.4121C331.887 44.2081 332.877 44.8454 333.973 45.3243C335.082 45.8095 336.409 46.0522 337.952 46.0522C339.178 46.0522 340.262 45.8807 341.202 45.5377C342.156 45.1885 342.954 44.7128 343.596 44.111C344.251 43.5158 344.747 42.8137 345.085 42.0049C345.415 41.1961 345.581 40.3129 345.581 39.3552C345.581 38.4946 345.409 37.757 345.065 37.1422C344.708 36.5339 344.251 36.0164 343.693 35.5893C343.129 35.1622 342.483 34.8064 341.757 34.5217L337.31 33.0465L335.364 32.2214C334.806 31.9043 334.349 31.5193 333.992 31.0664C333.655 30.6134 333.486 30.0441 333.486 29.3582C333.486 28.8082 333.606 28.284 333.846 27.7857C334.106 27.2746 334.462 26.8347 334.917 26.4658Z" fill="#10DCF6"/>
<path d="M249.337 54.2419C248.267 54.2419 247.417 54.601 246.788 55.3193C246.152 56.031 245.834 56.9919 245.834 58.2019C245.834 59.3277 246.136 60.2272 246.739 60.9002C247.336 61.5666 248.147 61.8998 249.172 61.8998C250.398 61.8998 251.3 61.5213 251.877 60.7642C252.461 60.0072 252.753 59.0529 252.753 57.901C252.753 56.6974 252.422 55.7851 251.76 55.164C251.098 54.5492 250.291 54.2419 249.337 54.2419ZM247.644 56.1444C247.988 55.5813 248.539 55.2999 249.298 55.2999C250.155 55.2999 250.758 55.6298 251.108 56.2898C251.329 56.7105 251.439 57.2573 251.439 57.9301C251.439 58.6677 251.287 59.3408 250.982 59.949C250.67 60.5572 250.106 60.8613 249.289 60.8613C248.536 60.8613 247.988 60.6057 247.644 60.0946C247.3 59.5835 247.129 58.946 247.129 58.1825C247.129 57.3867 247.3 56.7073 247.644 56.1444ZM243.879 54.4457L241.864 60.3081L239.86 54.4457H238.439L241.203 61.8611L240.639 63.1421L240.356 63.4236C240.246 63.4948 240.077 63.5305 239.85 63.5305L239.588 63.5111L239.111 63.4043V64.501L239.461 64.5787L239.87 64.5981C240.596 64.5981 241.109 64.3975 241.407 63.9963C241.706 63.5887 242.218 62.4661 242.945 60.6284L245.27 54.4457H243.879ZM260.177 54.4457H258.921V57.9883C258.921 58.6872 258.84 59.2405 258.678 59.6481C258.367 60.3987 257.786 60.774 256.936 60.774C256.34 60.774 255.934 60.5572 255.72 60.1237C255.603 59.8908 255.545 59.5931 255.545 59.2308V54.4457H254.261V59.3375C254.261 59.9522 254.361 60.4441 254.562 60.8128C254.945 61.4986 255.658 61.8416 256.703 61.8416C257.378 61.8416 257.948 61.6539 258.415 61.2788C258.656 61.091 258.853 60.8613 259.009 60.5895L258.999 61.6475H260.177V54.4457ZM283.509 54.6495C283.017 54.4102 282.507 54.2904 281.982 54.2904C280.931 54.2904 280.084 54.6495 279.442 55.3679C278.794 56.0924 278.469 57.0308 278.469 58.1825C278.469 59.3602 278.79 60.2758 279.432 60.9293C280.075 61.5763 280.856 61.8998 281.778 61.8998C282.16 61.8998 282.501 61.8643 282.799 61.7931C283.357 61.6701 283.824 61.4274 284.2 61.0651C284.427 60.8645 284.635 60.6025 284.823 60.279C285.005 59.949 285.112 59.6513 285.144 59.3861H283.908C283.824 59.703 283.672 59.9879 283.451 60.2401C283.062 60.6543 282.543 60.8613 281.894 60.8613C281.194 60.8613 280.678 60.638 280.347 60.1917C280.016 59.7516 279.838 59.166 279.812 58.4348H285.251C285.251 57.7101 285.212 57.1795 285.134 56.8431C285.05 56.3642 284.885 55.9438 284.638 55.5813C284.379 55.1996 284.003 54.889 283.509 54.6495ZM281.904 55.3388C282.695 55.3388 283.263 55.6298 283.607 56.2122C283.788 56.5293 283.905 56.9498 283.957 57.474H279.841C279.867 56.8529 280.072 56.3448 280.454 55.9502C280.843 55.5426 281.327 55.3388 281.904 55.3388ZM270.86 56.4744C270.86 56.6814 270.834 56.8367 270.782 56.9402C270.685 57.1408 270.491 57.2573 270.199 57.2896L268.194 57.5321C267.494 57.6164 266.926 57.8429 266.491 58.2116C266.063 58.5805 265.849 59.0948 265.849 59.7548C265.849 60.3696 266.07 60.8808 266.511 61.2884C266.946 61.6896 267.51 61.8902 268.204 61.8902C268.781 61.8902 269.31 61.7704 269.79 61.5311C270.27 61.298 270.636 61.0198 270.889 60.6964C270.935 60.9811 271.006 61.2009 271.104 61.3564C271.305 61.6539 271.619 61.8027 272.047 61.8027L272.466 61.7835L272.913 61.6766V60.7837L272.689 60.8226L272.505 60.8322C272.33 60.8322 272.216 60.7933 272.164 60.7157C272.112 60.638 272.086 60.5377 272.086 60.4148V56.2607C272.086 55.5813 271.814 55.0798 271.269 54.7564C270.718 54.4329 270.004 54.271 269.128 54.271C268.376 54.271 267.711 54.4457 267.134 54.7951C266.563 55.1446 266.264 55.7624 266.239 56.6489H267.406C267.458 56.2802 267.559 55.9987 267.708 55.8046C267.987 55.4682 268.454 55.2999 269.109 55.2999C269.667 55.2999 270.101 55.3937 270.413 55.5813C270.711 55.7624 270.86 56.0601 270.86 56.4744ZM270.238 58.2214C270.478 58.163 270.675 58.0854 270.831 57.9883V58.959C270.831 59.703 270.481 60.2369 269.78 60.5604C269.365 60.761 268.937 60.8613 268.496 60.8613C268.133 60.8613 267.818 60.761 267.552 60.5604C267.292 60.3598 267.163 60.0848 267.163 59.7355C267.163 59.276 267.357 58.9396 267.747 58.7261C267.974 58.6031 268.314 58.5125 268.768 58.4543L270.238 58.2214ZM276.085 54.8146C275.703 55.1574 275.463 55.4487 275.365 55.688V54.4457H274.169V61.6475H275.424V57.5031C275.424 56.9919 275.596 56.5422 275.94 56.154C276.277 55.7592 276.76 55.5618 277.389 55.5618L277.808 55.6008V54.3195L277.516 54.2904C277.483 54.2904 277.444 54.2904 277.399 54.2904C276.899 54.2904 276.462 54.4652 276.085 54.8146ZM291.041 52.4367V54.4457H290.029V55.4357H291.041V60.2013C291.041 60.6607 291.148 61.036 291.362 61.3271C291.569 61.6184 291.965 61.764 292.549 61.764L293.064 61.7349L293.512 61.6475V60.6866L293.064 60.7157C292.837 60.7157 292.675 60.6898 292.578 60.6381C292.403 60.554 292.315 60.3857 292.315 60.1333V55.4357H293.512V54.4457H292.315V52.4367H291.041ZM296.022 51.7378H294.767V61.6475H296.022V57.833C296.022 56.869 296.233 56.2154 296.655 55.8726C297.076 55.5295 297.547 55.358 298.066 55.358C298.695 55.358 299.123 55.5554 299.35 55.9502C299.493 56.1961 299.564 56.5843 299.564 57.1149V61.6475H300.858V57.0274C300.858 56.3223 300.751 55.7691 300.537 55.3679C300.155 54.6367 299.422 54.271 298.338 54.271C297.735 54.271 297.229 54.4006 296.82 54.6593C296.587 54.8082 296.321 55.0637 296.022 55.426V51.7378ZM307.319 54.6495C306.826 54.4102 306.317 54.2904 305.791 54.2904C304.741 54.2904 303.894 54.6495 303.252 55.3679C302.603 56.0924 302.279 57.0308 302.279 58.1825C302.279 59.3602 302.6 60.2758 303.242 60.9293C303.884 61.5763 304.666 61.8998 305.587 61.8998C305.97 61.8998 306.31 61.8643 306.609 61.7931C307.167 61.6701 307.634 61.4274 308.01 61.0651C308.237 60.8645 308.445 60.6025 308.633 60.279C308.814 59.949 308.921 59.6513 308.954 59.3861H307.718C307.634 59.703 307.481 59.9879 307.261 60.2401C306.872 60.6543 306.353 60.8613 305.704 60.8613C305.003 60.8613 304.488 60.638 304.157 60.1917C303.826 59.7516 303.648 59.166 303.622 58.4348H309.061C309.061 57.7101 309.022 57.1795 308.944 56.8431C308.86 56.3642 308.694 55.9438 308.448 55.5813C308.188 55.1996 307.812 54.889 307.319 54.6495ZM305.714 55.3388C306.505 55.3388 307.073 55.6298 307.416 56.2122C307.598 56.5293 307.715 56.9498 307.767 57.474H303.651C303.677 56.8529 303.881 56.3448 304.264 55.9502C304.653 55.5426 305.136 55.3388 305.714 55.3388ZM327.908 54.2419C326.838 54.2419 325.988 54.601 325.359 55.3193C324.723 56.031 324.405 56.9919 324.405 58.2019C324.405 59.3277 324.707 60.2272 325.31 60.9002C325.907 61.5666 326.718 61.8998 327.743 61.8998C328.969 61.8998 329.87 61.5213 330.448 60.7642C331.031 60.0072 331.323 59.0529 331.323 57.901C331.323 56.6974 330.992 55.7851 330.331 55.164C329.669 54.5492 328.862 54.2419 327.908 54.2419ZM326.215 56.1444C326.559 55.5813 327.11 55.2999 327.869 55.2999C328.725 55.2999 329.329 55.6298 329.679 56.2898C329.899 56.7105 330.01 57.2573 330.01 57.9301C330.01 58.6677 329.857 59.3408 329.552 59.949C329.241 60.5572 328.677 60.8613 327.859 60.8613C327.107 60.8613 326.559 60.6057 326.215 60.0946C325.871 59.5835 325.699 58.946 325.699 58.1825C325.699 57.3867 325.871 56.7073 326.215 56.1444ZM319.492 54.4457H318.081L316.631 60.1237L315.191 54.4457H313.819L315.969 61.6475H317.273L318.752 56.0764L320.27 61.6475H321.574L323.743 54.4457H322.488L320.961 60.0848L319.492 54.4457ZM336.529 55.6008V54.3195L336.237 54.2904C336.205 54.2904 336.166 54.2904 336.12 54.2904C335.621 54.2904 335.183 54.4652 334.807 54.8146C334.424 55.1574 334.184 55.4487 334.087 55.688V54.4457H332.89V61.6475H334.145V57.5031C334.145 56.9919 334.317 56.5422 334.661 56.154C334.998 55.7592 335.481 55.5618 336.111 55.5618L336.529 55.6008ZM338.903 51.7767H337.648V61.6475H338.903V51.7767ZM346.853 51.7378H345.646V55.3775C345.367 55.0411 345.114 54.805 344.887 54.669C344.504 54.4361 344.028 54.3195 343.457 54.3195C342.432 54.3195 341.64 54.7047 341.083 55.4746C340.531 56.2445 340.256 57.1536 340.256 58.2019C340.256 59.3213 340.561 60.2176 341.17 60.8904C341.774 61.5634 342.49 61.8998 343.321 61.8998C343.833 61.8998 344.29 61.8027 344.693 61.6088C345.088 61.4082 345.432 61.0878 345.724 60.6479V61.6475H346.853V51.7378ZM342.172 56.0764C342.562 55.6104 343.071 55.3775 343.7 55.3775C344.264 55.3775 344.738 55.5975 345.121 56.0375C345.503 56.471 345.695 57.1408 345.695 58.0467C345.695 58.9526 345.51 59.6449 345.14 60.1237C344.77 60.609 344.294 60.8517 343.71 60.8517C342.964 60.8517 342.425 60.5895 342.095 60.0655C341.751 59.5478 341.579 58.904 341.579 58.1339C341.579 57.228 341.777 56.5422 342.172 56.0764Z" fill="white"/>
<path d="M200.852 8.01928C200.852 7.87045 200.796 7.74427 200.686 7.64074C200.589 7.53723 200.466 7.48546 200.316 7.48546C200.167 7.48546 200.037 7.53723 199.927 7.64074C199.83 7.74427 199.781 7.87045 199.781 8.01928C199.781 8.1681 199.83 8.29428 199.927 8.39781C200.037 8.50134 200.167 8.5531 200.316 8.5531C200.466 8.5531 200.589 8.50134 200.686 8.39781C200.796 8.29428 200.852 8.1681 200.852 8.01928Z" fill="white"/>
<path d="M200.76 5.27868C200.271 6.85656 199.147 7.53579 197.386 7.31632L193.596 6.69865L197.617 7.56914C199.189 8.04282 199.871 9.15904 199.663 10.9178L199.04 14.7154L199.896 10.7012C200.382 9.1345 201.507 8.4553 203.27 8.66356L207.06 9.28123L203.036 8.42753C201.465 7.94265 200.79 6.8219 201.01 5.06527L201.629 1.28447L200.76 5.27868Z" fill="white" fill-opacity="0.301961"/>
<path d="M179.951 48.9404C179.951 48.7915 179.896 48.6653 179.786 48.5618C179.688 48.4583 179.565 48.4066 179.416 48.4066C179.267 48.4066 179.137 48.4583 179.027 48.5618C178.93 48.6653 178.881 48.7915 178.881 48.9404C178.881 49.0892 178.93 49.2154 179.027 49.3189C179.137 49.4224 179.267 49.4742 179.416 49.4742C179.565 49.4742 179.688 49.4224 179.786 49.3189C179.896 49.2154 179.951 49.0892 179.951 48.9404Z" fill="white"/>
<path d="M181.878 47.6255C180.323 48.189 179.102 47.7048 178.215 46.1728L176.423 42.7877L178.153 46.5086C178.723 48.0443 178.242 49.2596 176.712 50.1543L173.303 51.9499L177.025 50.2091C178.57 49.6508 179.791 50.1349 180.688 51.6619L182.48 55.0469L180.735 51.3336C180.175 49.7928 180.663 48.5801 182.199 47.6956L185.593 45.9076L181.878 47.6255Z" fill="white" fill-opacity="0.301961"/>
<defs>
<linearGradient id="paint0_linear_1218_800" x1="174.456" y1="46.5656" x2="214.463" y2="13.6421" gradientUnits="userSpaceOnUse">
<stop stop-color="#0C6D7A"/>
<stop offset="0.00784314" stop-color="#0C6F7C"/>
<stop offset="0.239216" stop-color="#14BCD4"/>
<stop offset="0.482353" stop-color="#06DEFC"/>
<stop offset="0.545098" stop-color="#04E0FF"/>
<stop offset="0.831373" stop-color="#0FBBD4"/>
<stop offset="1" stop-color="#0D7684"/>
</linearGradient>
<linearGradient id="paint1_linear_1218_800" x1="170.571" y1="8.31915" x2="192.481" y2="77.3728" gradientUnits="userSpaceOnUse">
<stop stop-color="#0C6D7A"/>
<stop offset="0.00784314" stop-color="#0C6F7C"/>
<stop offset="0.239216" stop-color="#14BCD4"/>
<stop offset="0.509804" stop-color="#04E0FF"/>
<stop offset="0.831373" stop-color="#0FBBD4"/>
<stop offset="1" stop-color="#0D7684"/>
</linearGradient>
<linearGradient id="paint2_linear_1218_800" x1="212.554" y1="-10.1405" x2="221.756" y2="59.3128" gradientUnits="userSpaceOnUse">
<stop stop-color="#0C6D7A"/>
<stop offset="0.00784314" stop-color="#0C6F7C"/>
<stop offset="0.239216" stop-color="#14BCD4"/>
<stop offset="0.509804" stop-color="#04E0FF"/>
<stop offset="0.831373" stop-color="#0FBBD4"/>
<stop offset="1" stop-color="#0D7684"/>
</linearGradient>
</defs>
</svg>
