<svg width="164" height="50" viewBox="0 0 164 50" fill="none" xmlns="http://www.w3.org/2000/svg">
<rect width="164" height="50" rx="25" fill="#0C99AD" fill-opacity="0.5"/>
<path d="M21.8084 17.364H34.1444V19.956H24.8084V24.444H33.4484V26.892H24.8084V31.908H34.3124V34.5H21.8084V17.364ZM39.8776 27.972L35.5816 22.092H38.8936L41.4856 25.908L44.1976 22.092H47.3656L43.1416 27.828L47.8936 34.5H44.6056L41.4616 29.916L38.4136 34.5H35.1976L39.8776 27.972ZM49.5042 22.092H52.0962V23.772H52.1442C52.5282 23.052 53.0642 22.54 53.7522 22.236C54.4402 21.916 55.1842 21.756 55.9842 21.756C56.9602 21.756 57.8082 21.932 58.5282 22.284C59.2642 22.62 59.8722 23.092 60.3522 23.7C60.8322 24.292 61.1922 24.988 61.4322 25.788C61.6722 26.588 61.7922 27.444 61.7922 28.356C61.7922 29.188 61.6802 29.996 61.4562 30.78C61.2482 31.564 60.9202 32.26 60.4722 32.868C60.0402 33.46 59.4882 33.94 58.8162 34.308C58.1442 34.66 57.3522 34.836 56.4402 34.836C56.0402 34.836 55.6402 34.796 55.2402 34.716C54.8402 34.652 54.4562 34.54 54.0882 34.38C53.7202 34.22 53.3762 34.02 53.0562 33.78C52.7522 33.524 52.4962 33.228 52.2882 32.892H52.2402V39.084H49.5042V22.092ZM59.0562 28.308C59.0562 27.748 58.9842 27.204 58.8402 26.676C58.6962 26.148 58.4802 25.684 58.1922 25.284C57.9042 24.868 57.5442 24.54 57.1122 24.3C56.6802 24.044 56.1842 23.916 55.6242 23.916C54.4722 23.916 53.6002 24.316 53.0082 25.116C52.4322 25.916 52.1442 26.98 52.1442 28.308C52.1442 28.932 52.2162 29.516 52.3602 30.06C52.5202 30.588 52.7522 31.044 53.0562 31.428C53.3602 31.812 53.7202 32.116 54.1362 32.34C54.5682 32.564 55.0642 32.676 55.6242 32.676C56.2482 32.676 56.7762 32.548 57.2082 32.292C57.6402 32.036 57.9922 31.708 58.2642 31.308C58.5522 30.892 58.7522 30.428 58.8642 29.916C58.9922 29.388 59.0562 28.852 59.0562 28.308ZM72.6241 27.204C72.5921 26.772 72.4961 26.356 72.3361 25.956C72.1921 25.556 71.9841 25.212 71.7121 24.924C71.4561 24.62 71.1361 24.38 70.7521 24.204C70.3841 24.012 69.9681 23.916 69.5041 23.916C69.0241 23.916 68.5841 24.004 68.1841 24.18C67.8001 24.34 67.4641 24.572 67.1761 24.876C66.9041 25.164 66.6801 25.508 66.5041 25.908C66.3441 26.308 66.2561 26.74 66.2401 27.204H72.6241ZM66.2401 29.004C66.2401 29.484 66.3041 29.948 66.4321 30.396C66.5761 30.844 66.7841 31.236 67.0561 31.572C67.3281 31.908 67.6721 32.18 68.0881 32.388C68.5041 32.58 69.0001 32.676 69.5761 32.676C70.3761 32.676 71.0161 32.508 71.4961 32.172C71.9921 31.82 72.3601 31.3 72.6001 30.612H75.1921C75.0481 31.284 74.8001 31.884 74.4481 32.412C74.0961 32.94 73.6721 33.388 73.1761 33.756C72.6801 34.108 72.1201 34.372 71.4961 34.548C70.8881 34.74 70.2481 34.836 69.5761 34.836C68.6001 34.836 67.7361 34.676 66.9841 34.356C66.2321 34.036 65.5921 33.588 65.0641 33.012C64.5521 32.436 64.1601 31.748 63.8881 30.948C63.6321 30.148 63.5041 29.268 63.5041 28.308C63.5041 27.428 63.6401 26.596 63.9121 25.812C64.2001 25.012 64.6001 24.316 65.1121 23.724C65.6401 23.116 66.2721 22.636 67.0081 22.284C67.7441 21.932 68.5761 21.756 69.5041 21.756C70.4801 21.756 71.3521 21.964 72.1201 22.38C72.9041 22.78 73.5521 23.316 74.0641 23.988C74.5761 24.66 74.9441 25.436 75.1681 26.316C75.4081 27.18 75.4721 28.076 75.3601 29.004H66.2401ZM77.44 22.092H80.008V24.492H80.056C80.136 24.156 80.288 23.828 80.512 23.508C80.752 23.188 81.032 22.9 81.352 22.644C81.688 22.372 82.056 22.156 82.456 21.996C82.856 21.836 83.264 21.756 83.68 21.756C84 21.756 84.216 21.764 84.328 21.78C84.456 21.796 84.584 21.812 84.712 21.828V24.468C84.52 24.436 84.32 24.412 84.112 24.396C83.92 24.364 83.728 24.348 83.536 24.348C83.072 24.348 82.632 24.444 82.216 24.636C81.816 24.812 81.464 25.084 81.16 25.452C80.856 25.804 80.616 26.244 80.44 26.772C80.264 27.3 80.176 27.908 80.176 28.596V34.5H77.44V22.092ZM85.9495 17.364H88.6855V19.956H85.9495V17.364ZM85.9495 22.092H88.6855V34.5H85.9495V22.092ZM100.187 27.204C100.155 26.772 100.059 26.356 99.8986 25.956C99.7546 25.556 99.5466 25.212 99.2746 24.924C99.0186 24.62 98.6986 24.38 98.3146 24.204C97.9466 24.012 97.5306 23.916 97.0666 23.916C96.5866 23.916 96.1466 24.004 95.7466 24.18C95.3626 24.34 95.0266 24.572 94.7386 24.876C94.4666 25.164 94.2426 25.508 94.0666 25.908C93.9066 26.308 93.8186 26.74 93.8026 27.204H100.187ZM93.8026 29.004C93.8026 29.484 93.8666 29.948 93.9946 30.396C94.1386 30.844 94.3466 31.236 94.6186 31.572C94.8906 31.908 95.2346 32.18 95.6506 32.388C96.0666 32.58 96.5626 32.676 97.1386 32.676C97.9386 32.676 98.5786 32.508 99.0586 32.172C99.5546 31.82 99.9226 31.3 100.163 30.612H102.755C102.611 31.284 102.363 31.884 102.011 32.412C101.659 32.94 101.235 33.388 100.739 33.756C100.243 34.108 99.6826 34.372 99.0586 34.548C98.4506 34.74 97.8106 34.836 97.1386 34.836C96.1626 34.836 95.2986 34.676 94.5466 34.356C93.7946 34.036 93.1546 33.588 92.6266 33.012C92.1146 32.436 91.7226 31.748 91.4506 30.948C91.1946 30.148 91.0666 29.268 91.0666 28.308C91.0666 27.428 91.2026 26.596 91.4746 25.812C91.7626 25.012 92.1626 24.316 92.6746 23.724C93.2026 23.116 93.8346 22.636 94.5706 22.284C95.3066 21.932 96.1386 21.756 97.0666 21.756C98.0426 21.756 98.9146 21.964 99.6826 22.38C100.467 22.78 101.115 23.316 101.627 23.988C102.139 24.66 102.507 25.436 102.731 26.316C102.971 27.18 103.035 28.076 102.923 29.004H93.8026ZM105.003 22.092H107.595V23.916L107.643 23.964C108.059 23.276 108.603 22.74 109.275 22.356C109.947 21.956 110.691 21.756 111.507 21.756C112.867 21.756 113.939 22.108 114.723 22.812C115.507 23.516 115.898 24.572 115.898 25.98V34.5H113.163V26.7C113.131 25.724 112.923 25.02 112.539 24.588C112.155 24.14 111.555 23.916 110.739 23.916C110.275 23.916 109.859 24.004 109.491 24.18C109.123 24.34 108.811 24.572 108.555 24.876C108.299 25.164 108.099 25.508 107.955 25.908C107.811 26.308 107.739 26.732 107.739 27.18V34.5H105.003V22.092ZM127.16 26.244C127.048 25.476 126.736 24.9 126.224 24.516C125.728 24.116 125.096 23.916 124.328 23.916C123.976 23.916 123.6 23.98 123.2 24.108C122.8 24.22 122.432 24.444 122.096 24.78C121.76 25.1 121.48 25.556 121.256 26.148C121.032 26.724 120.92 27.484 120.92 28.428C120.92 28.94 120.976 29.452 121.088 29.964C121.216 30.476 121.408 30.932 121.664 31.332C121.936 31.732 122.28 32.06 122.696 32.316C123.112 32.556 123.616 32.676 124.208 32.676C125.008 32.676 125.664 32.428 126.176 31.932C126.704 31.436 127.032 30.74 127.16 29.844H129.896C129.64 31.46 129.024 32.7 128.048 33.564C127.088 34.412 125.808 34.836 124.208 34.836C123.232 34.836 122.368 34.676 121.616 34.356C120.88 34.02 120.256 33.572 119.744 33.012C119.232 32.436 118.84 31.756 118.568 30.972C118.312 30.188 118.184 29.34 118.184 28.428C118.184 27.5 118.312 26.628 118.568 25.812C118.824 24.996 119.208 24.292 119.72 23.7C120.232 23.092 120.864 22.62 121.616 22.284C122.384 21.932 123.28 21.756 124.304 21.756C125.024 21.756 125.704 21.852 126.344 22.044C127 22.22 127.576 22.492 128.072 22.86C128.584 23.228 129 23.692 129.32 24.252C129.64 24.812 129.832 25.476 129.896 26.244H127.16ZM140.64 27.204C140.608 26.772 140.512 26.356 140.352 25.956C140.208 25.556 140 25.212 139.728 24.924C139.472 24.62 139.152 24.38 138.768 24.204C138.4 24.012 137.984 23.916 137.52 23.916C137.04 23.916 136.6 24.004 136.2 24.18C135.816 24.34 135.48 24.572 135.192 24.876C134.92 25.164 134.696 25.508 134.52 25.908C134.36 26.308 134.272 26.74 134.256 27.204H140.64ZM134.256 29.004C134.256 29.484 134.32 29.948 134.448 30.396C134.592 30.844 134.8 31.236 135.072 31.572C135.344 31.908 135.688 32.18 136.104 32.388C136.52 32.58 137.016 32.676 137.592 32.676C138.392 32.676 139.032 32.508 139.512 32.172C140.008 31.82 140.376 31.3 140.616 30.612H143.208C143.064 31.284 142.816 31.884 142.464 32.412C142.112 32.94 141.688 33.388 141.192 33.756C140.696 34.108 140.136 34.372 139.512 34.548C138.904 34.74 138.264 34.836 137.592 34.836C136.616 34.836 135.752 34.676 135 34.356C134.248 34.036 133.608 33.588 133.08 33.012C132.568 32.436 132.176 31.748 131.904 30.948C131.648 30.148 131.52 29.268 131.52 28.308C131.52 27.428 131.656 26.596 131.928 25.812C132.216 25.012 132.616 24.316 133.128 23.724C133.656 23.116 134.288 22.636 135.024 22.284C135.76 21.932 136.592 21.756 137.52 21.756C138.496 21.756 139.368 21.964 140.136 22.38C140.92 22.78 141.568 23.316 142.08 23.988C142.592 24.66 142.96 25.436 143.184 26.316C143.424 27.18 143.488 28.076 143.376 29.004H134.256Z" fill="#9FEDF8"/>
</svg>
