<svg width="640" height="225" viewBox="0 0 640 225" fill="none" xmlns="http://www.w3.org/2000/svg">
<g filter="url(#filter0_iiii_2058_1286)">
<rect width="640" height="225" rx="25" fill="url(#paint0_linear_2058_1286)" fill-opacity="0.5"/>
</g>
<path d="M131.598 46V31.4545H136.783C137.91 31.4545 138.845 31.6487 139.588 32.0369C140.336 32.4252 140.895 32.9626 141.264 33.6491C141.634 34.331 141.818 35.1193 141.818 36.0142C141.818 36.9044 141.631 37.688 141.257 38.3651C140.888 39.0374 140.329 39.5606 139.581 39.9347C138.838 40.3087 137.902 40.4957 136.776 40.4957H132.848V38.6065H136.577C137.287 38.6065 137.865 38.5047 138.31 38.3011C138.759 38.0975 139.089 37.8016 139.297 37.4134C139.505 37.0251 139.609 36.5587 139.609 36.0142C139.609 35.465 139.503 34.9891 139.29 34.5866C139.081 34.1842 138.752 33.8764 138.303 33.6634C137.857 33.4455 137.273 33.3366 136.548 33.3366H133.793V46H131.598ZM138.778 39.4375L142.372 46H139.872L136.349 39.4375H138.778ZM148.653 46.2202C147.578 46.2202 146.653 45.9905 145.876 45.5312C145.104 45.0672 144.508 44.4162 144.086 43.5781C143.67 42.7353 143.461 41.7481 143.461 40.6165C143.461 39.4991 143.67 38.5142 144.086 37.6619C144.508 36.8097 145.095 36.1444 145.848 35.6662C146.605 35.188 147.491 34.9489 148.504 34.9489C149.12 34.9489 149.716 35.0507 150.294 35.2543C150.871 35.4579 151.39 35.7775 151.849 36.2131C152.308 36.6487 152.671 37.2145 152.936 37.9105C153.201 38.6018 153.334 39.4422 153.334 40.4318V41.1847H144.662V39.5938H151.253C151.253 39.035 151.139 38.5402 150.912 38.1094C150.684 37.6738 150.365 37.3305 149.953 37.0795C149.546 36.8286 149.067 36.7031 148.518 36.7031C147.922 36.7031 147.401 36.8499 146.956 37.1435C146.515 37.4323 146.174 37.8111 145.933 38.2798C145.696 38.7438 145.578 39.2481 145.578 39.7926V41.0355C145.578 41.7647 145.706 42.3849 145.961 42.8963C146.222 43.4077 146.584 43.7983 147.048 44.0682C147.512 44.3333 148.054 44.4659 148.674 44.4659C149.077 44.4659 149.444 44.4091 149.775 44.2955C150.107 44.1771 150.393 44.0019 150.635 43.7699C150.876 43.5379 151.061 43.2514 151.189 42.9105L153.199 43.2727C153.038 43.8646 152.749 44.383 152.332 44.8281C151.92 45.2685 151.402 45.6117 150.777 45.858C150.156 46.0994 149.449 46.2202 148.653 46.2202ZM158.634 46.2415C157.943 46.2415 157.318 46.1136 156.759 45.858C156.201 45.5975 155.758 45.2211 155.431 44.7287C155.109 44.2363 154.948 43.6326 154.948 42.9176C154.948 42.3021 155.067 41.7955 155.303 41.3977C155.54 41 155.86 40.6851 156.262 40.4531C156.665 40.2211 157.115 40.0459 157.612 39.9276C158.109 39.8092 158.616 39.7192 159.132 39.6577C159.785 39.5819 160.315 39.5204 160.723 39.473C161.13 39.4209 161.426 39.3381 161.61 39.2244C161.795 39.1108 161.887 38.9261 161.887 38.6705V38.6207C161.887 38.0005 161.712 37.5199 161.362 37.179C161.016 36.8381 160.5 36.6676 159.813 36.6676C159.098 36.6676 158.535 36.8262 158.123 37.1435C157.716 37.456 157.434 37.804 157.278 38.1875L155.282 37.733C155.519 37.0701 155.865 36.535 156.319 36.1278C156.778 35.7159 157.306 35.4176 157.903 35.233C158.5 35.0436 159.127 34.9489 159.785 34.9489C160.221 34.9489 160.682 35.0009 161.17 35.1051C161.662 35.2045 162.122 35.3892 162.548 35.6591C162.979 35.929 163.331 36.3149 163.606 36.8168C163.881 37.3139 164.018 37.9602 164.018 38.7557V46H161.944V44.5085H161.859C161.722 44.7831 161.516 45.053 161.241 45.3182C160.966 45.5833 160.614 45.8035 160.183 45.9787C159.752 46.1539 159.236 46.2415 158.634 46.2415ZM159.096 44.5369C159.683 44.5369 160.185 44.4209 160.602 44.1889C161.023 43.9569 161.343 43.6539 161.561 43.2798C161.783 42.901 161.894 42.4962 161.894 42.0653V40.6591C161.819 40.7348 161.672 40.8059 161.454 40.8722C161.241 40.9337 160.997 40.9882 160.723 41.0355C160.448 41.0781 160.18 41.1184 159.92 41.1562C159.66 41.1894 159.442 41.2178 159.267 41.2415C158.855 41.2936 158.478 41.3812 158.137 41.5043C157.801 41.6274 157.531 41.8049 157.328 42.0369C157.129 42.2642 157.029 42.5672 157.029 42.946C157.029 43.4716 157.223 43.8693 157.612 44.1392C158 44.4044 158.495 44.5369 159.096 44.5369ZM168.74 31.4545V46H166.616V31.4545H168.74ZM171.537 46V31.4545H173.732V44.1108H180.323V46H171.537ZM182.426 46V35.0909H184.55V46H182.426ZM183.498 33.4077C183.129 33.4077 182.812 33.2846 182.547 33.0384C182.286 32.7874 182.156 32.4891 182.156 32.1435C182.156 31.7931 182.286 31.4948 182.547 31.2486C182.812 30.9976 183.129 30.8722 183.498 30.8722C183.868 30.8722 184.183 30.9976 184.443 31.2486C184.708 31.4948 184.841 31.7931 184.841 32.1435C184.841 32.4891 184.708 32.7874 184.443 33.0384C184.183 33.2846 183.868 33.4077 183.498 33.4077ZM196.509 35.0909L192.553 46H190.28L186.317 35.0909H188.597L191.36 43.4858H191.473L194.229 35.0909H196.509ZM202.605 46.2202C201.53 46.2202 200.605 45.9905 199.828 45.5312C199.056 45.0672 198.46 44.4162 198.038 43.5781C197.622 42.7353 197.413 41.7481 197.413 40.6165C197.413 39.4991 197.622 38.5142 198.038 37.6619C198.46 36.8097 199.047 36.1444 199.8 35.6662C200.557 35.188 201.443 34.9489 202.456 34.9489C203.072 34.9489 203.668 35.0507 204.246 35.2543C204.823 35.4579 205.342 35.7775 205.801 36.2131C206.261 36.6487 206.623 37.2145 206.888 37.9105C207.153 38.6018 207.286 39.4422 207.286 40.4318V41.1847H198.614V39.5938H205.205C205.205 39.035 205.091 38.5402 204.864 38.1094C204.636 37.6738 204.317 37.3305 203.905 37.0795C203.498 36.8286 203.019 36.7031 202.47 36.7031C201.874 36.7031 201.353 36.8499 200.908 37.1435C200.467 37.4323 200.127 37.8111 199.885 38.2798C199.648 38.7438 199.53 39.2481 199.53 39.7926V41.0355C199.53 41.7647 199.658 42.3849 199.913 42.8963C200.174 43.4077 200.536 43.7983 201 44.0682C201.464 44.3333 202.006 44.4659 202.627 44.4659C203.029 44.4659 203.396 44.4091 203.727 44.2955C204.059 44.1771 204.345 44.0019 204.587 43.7699C204.828 43.5379 205.013 43.2514 205.141 42.9105L207.151 43.2727C206.99 43.8646 206.701 44.383 206.284 44.8281C205.872 45.2685 205.354 45.6117 204.729 45.858C204.109 46.0994 203.401 46.2202 202.605 46.2202ZM217.586 37.7543L215.662 38.0952C215.581 37.849 215.453 37.6146 215.278 37.392C215.108 37.1695 214.876 36.9872 214.582 36.8452C214.289 36.7031 213.922 36.6321 213.481 36.6321C212.88 36.6321 212.378 36.767 211.976 37.0369C211.573 37.3021 211.372 37.6454 211.372 38.0668C211.372 38.4313 211.507 38.7249 211.777 38.9474C212.047 39.17 212.482 39.3523 213.084 39.4943L214.817 39.892C215.82 40.1241 216.569 40.4815 217.061 40.9645C217.553 41.4474 217.8 42.0748 217.8 42.8466C217.8 43.5 217.61 44.0824 217.231 44.5938C216.857 45.1004 216.334 45.4981 215.662 45.7869C214.994 46.0758 214.22 46.2202 213.339 46.2202C212.118 46.2202 211.121 45.9598 210.349 45.4389C209.577 44.9134 209.104 44.1676 208.929 43.2017L210.981 42.8892C211.109 43.4242 211.372 43.8291 211.77 44.1037C212.167 44.3736 212.686 44.5085 213.325 44.5085C214.021 44.5085 214.577 44.3641 214.994 44.0753C215.411 43.7817 215.619 43.4242 215.619 43.0028C215.619 42.6619 215.491 42.3755 215.236 42.1435C214.985 41.9115 214.599 41.7363 214.078 41.6179L212.231 41.2131C211.213 40.9811 210.461 40.6117 209.973 40.1051C209.49 39.5985 209.248 38.9569 209.248 38.1804C209.248 37.5365 209.428 36.973 209.788 36.4901C210.148 36.0071 210.645 35.6307 211.28 35.3608C211.914 35.0862 212.641 34.9489 213.46 34.9489C214.639 34.9489 215.567 35.2045 216.244 35.7159C216.921 36.2225 217.369 36.902 217.586 37.7543ZM228.142 46.2415C227.451 46.2415 226.826 46.1136 226.267 45.858C225.708 45.5975 225.266 45.2211 224.939 44.7287C224.617 44.2363 224.456 43.6326 224.456 42.9176C224.456 42.3021 224.574 41.7955 224.811 41.3977C225.048 41 225.367 40.6851 225.77 40.4531C226.172 40.2211 226.622 40.0459 227.119 39.9276C227.617 39.8092 228.123 39.7192 228.639 39.6577C229.293 39.5819 229.823 39.5204 230.23 39.473C230.637 39.4209 230.933 39.3381 231.118 39.2244C231.303 39.1108 231.395 38.9261 231.395 38.6705V38.6207C231.395 38.0005 231.22 37.5199 230.869 37.179C230.524 36.8381 230.008 36.6676 229.321 36.6676C228.606 36.6676 228.043 36.8262 227.631 37.1435C227.224 37.456 226.942 37.804 226.786 38.1875L224.79 37.733C225.027 37.0701 225.372 36.535 225.827 36.1278C226.286 35.7159 226.814 35.4176 227.411 35.233C228.007 35.0436 228.635 34.9489 229.293 34.9489C229.728 34.9489 230.19 35.0009 230.678 35.1051C231.17 35.2045 231.629 35.3892 232.055 35.6591C232.486 35.929 232.839 36.3149 233.114 36.8168C233.388 37.3139 233.526 37.9602 233.526 38.7557V46H231.452V44.5085H231.367C231.229 44.7831 231.023 45.053 230.749 45.3182C230.474 45.5833 230.121 45.8035 229.69 45.9787C229.26 46.1539 228.743 46.2415 228.142 46.2415ZM228.604 44.5369C229.191 44.5369 229.693 44.4209 230.109 44.1889C230.531 43.9569 230.85 43.6539 231.068 43.2798C231.291 42.901 231.402 42.4962 231.402 42.0653V40.6591C231.326 40.7348 231.18 40.8059 230.962 40.8722C230.749 40.9337 230.505 40.9882 230.23 41.0355C229.956 41.0781 229.688 41.1184 229.428 41.1562C229.167 41.1894 228.949 41.2178 228.774 41.2415C228.362 41.2936 227.986 41.3812 227.645 41.5043C227.309 41.6274 227.039 41.8049 226.835 42.0369C226.636 42.2642 226.537 42.5672 226.537 42.946C226.537 43.4716 226.731 43.8693 227.119 44.1392C227.508 44.4044 228.002 44.5369 228.604 44.5369ZM245.066 35.0909L241.11 46H238.837L234.874 35.0909H237.154L239.917 43.4858H240.03L242.786 35.0909H245.066ZM249.694 46.2415C249.003 46.2415 248.378 46.1136 247.819 45.858C247.26 45.5975 246.817 45.2211 246.491 44.7287C246.169 44.2363 246.008 43.6326 246.008 42.9176C246.008 42.3021 246.126 41.7955 246.363 41.3977C246.6 41 246.919 40.6851 247.322 40.4531C247.724 40.2211 248.174 40.0459 248.671 39.9276C249.168 39.8092 249.675 39.7192 250.191 39.6577C250.844 39.5819 251.375 39.5204 251.782 39.473C252.189 39.4209 252.485 39.3381 252.67 39.2244C252.854 39.1108 252.947 38.9261 252.947 38.6705V38.6207C252.947 38.0005 252.771 37.5199 252.421 37.179C252.075 36.8381 251.559 36.6676 250.873 36.6676C250.158 36.6676 249.594 36.8262 249.182 37.1435C248.775 37.456 248.494 37.804 248.337 38.1875L246.342 37.733C246.578 37.0701 246.924 36.535 247.378 36.1278C247.838 35.7159 248.366 35.4176 248.962 35.233C249.559 35.0436 250.186 34.9489 250.844 34.9489C251.28 34.9489 251.742 35.0009 252.229 35.1051C252.722 35.2045 253.181 35.3892 253.607 35.6591C254.038 35.929 254.391 36.3149 254.665 36.8168C254.94 37.3139 255.077 37.9602 255.077 38.7557V46H253.003V44.5085H252.918C252.781 44.7831 252.575 45.053 252.3 45.3182C252.026 45.5833 251.673 45.8035 251.242 45.9787C250.811 46.1539 250.295 46.2415 249.694 46.2415ZM250.155 44.5369C250.743 44.5369 251.244 44.4209 251.661 44.1889C252.083 43.9569 252.402 43.6539 252.62 43.2798C252.843 42.901 252.954 42.4962 252.954 42.0653V40.6591C252.878 40.7348 252.731 40.8059 252.513 40.8722C252.3 40.9337 252.057 40.9882 251.782 41.0355C251.507 41.0781 251.24 41.1184 250.979 41.1562C250.719 41.1894 250.501 41.2178 250.326 41.2415C249.914 41.2936 249.538 41.3812 249.197 41.5043C248.86 41.6274 248.591 41.8049 248.387 42.0369C248.188 42.2642 248.089 42.5672 248.089 42.946C248.089 43.4716 248.283 43.8693 248.671 44.1392C249.059 44.4044 249.554 44.5369 250.155 44.5369ZM257.676 46V35.0909H259.799V46H257.676ZM258.748 33.4077C258.379 33.4077 258.062 33.2846 257.797 33.0384C257.536 32.7874 257.406 32.4891 257.406 32.1435C257.406 31.7931 257.536 31.4948 257.797 31.2486C258.062 30.9976 258.379 30.8722 258.748 30.8722C259.118 30.8722 259.432 30.9976 259.693 31.2486C259.958 31.4948 260.091 31.7931 260.091 32.1435C260.091 32.4891 259.958 32.7874 259.693 33.0384C259.432 33.2846 259.118 33.4077 258.748 33.4077ZM264.55 31.4545V46H262.426V31.4545H264.55ZM270.351 46.2415C269.66 46.2415 269.035 46.1136 268.476 45.858C267.918 45.5975 267.475 45.2211 267.148 44.7287C266.826 44.2363 266.665 43.6326 266.665 42.9176C266.665 42.3021 266.784 41.7955 267.021 41.3977C267.257 41 267.577 40.6851 267.979 40.4531C268.382 40.2211 268.832 40.0459 269.329 39.9276C269.826 39.8092 270.333 39.7192 270.849 39.6577C271.502 39.5819 272.032 39.5204 272.44 39.473C272.847 39.4209 273.143 39.3381 273.327 39.2244C273.512 39.1108 273.604 38.9261 273.604 38.6705V38.6207C273.604 38.0005 273.429 37.5199 273.079 37.179C272.733 36.8381 272.217 36.6676 271.53 36.6676C270.816 36.6676 270.252 36.8262 269.84 37.1435C269.433 37.456 269.151 37.804 268.995 38.1875L266.999 37.733C267.236 37.0701 267.582 36.535 268.036 36.1278C268.495 35.7159 269.023 35.4176 269.62 35.233C270.217 35.0436 270.844 34.9489 271.502 34.9489C271.938 34.9489 272.399 35.0009 272.887 35.1051C273.379 35.2045 273.839 35.3892 274.265 35.6591C274.696 35.929 275.048 36.3149 275.323 36.8168C275.598 37.3139 275.735 37.9602 275.735 38.7557V46H273.661V44.5085H273.576C273.439 44.7831 273.233 45.053 272.958 45.3182C272.683 45.5833 272.331 45.8035 271.9 45.9787C271.469 46.1539 270.953 46.2415 270.351 46.2415ZM270.813 44.5369C271.4 44.5369 271.902 44.4209 272.319 44.1889C272.74 43.9569 273.06 43.6539 273.278 43.2798C273.5 42.901 273.611 42.4962 273.611 42.0653V40.6591C273.536 40.7348 273.389 40.8059 273.171 40.8722C272.958 40.9337 272.714 40.9882 272.44 41.0355C272.165 41.0781 271.897 41.1184 271.637 41.1562C271.377 41.1894 271.159 41.2178 270.984 41.2415C270.572 41.2936 270.195 41.3812 269.854 41.5043C269.518 41.6274 269.248 41.8049 269.045 42.0369C268.846 42.2642 268.746 42.5672 268.746 42.946C268.746 43.4716 268.941 43.8693 269.329 44.1392C269.717 44.4044 270.212 44.5369 270.813 44.5369ZM278.504 46V31.4545H280.628V36.8594H280.755C280.878 36.6321 281.056 36.3693 281.288 36.071C281.52 35.7727 281.842 35.5123 282.254 35.2898C282.666 35.0625 283.21 34.9489 283.887 34.9489C284.768 34.9489 285.554 35.1714 286.245 35.6165C286.937 36.0616 287.479 36.7031 287.872 37.5412C288.27 38.3793 288.468 39.3878 288.468 40.5668C288.468 41.7457 288.272 42.7566 287.879 43.5994C287.486 44.4375 286.946 45.0838 286.26 45.5384C285.573 45.9882 284.789 46.2131 283.909 46.2131C283.246 46.2131 282.704 46.1018 282.282 45.8793C281.866 45.6567 281.539 45.3963 281.302 45.098C281.066 44.7997 280.883 44.5346 280.755 44.3026H280.578V46H278.504ZM280.585 40.5455C280.585 41.3125 280.696 41.9848 280.919 42.5625C281.141 43.1402 281.463 43.5923 281.885 43.919C282.306 44.241 282.822 44.402 283.433 44.402C284.067 44.402 284.598 44.2339 285.024 43.8977C285.45 43.5568 285.772 43.0952 285.99 42.5128C286.212 41.9304 286.324 41.2746 286.324 40.5455C286.324 39.8258 286.215 39.1795 285.997 38.6065C285.784 38.0336 285.462 37.5814 285.031 37.25C284.605 36.9186 284.072 36.7528 283.433 36.7528C282.817 36.7528 282.297 36.9115 281.87 37.2287C281.449 37.5459 281.129 37.9886 280.912 38.5568C280.694 39.125 280.585 39.7879 280.585 40.5455ZM292.747 31.4545V46H290.623V31.4545H292.747ZM300.075 46.2202C299 46.2202 298.075 45.9905 297.298 45.5312C296.526 45.0672 295.93 44.4162 295.508 43.5781C295.092 42.7353 294.883 41.7481 294.883 40.6165C294.883 39.4991 295.092 38.5142 295.508 37.6619C295.93 36.8097 296.517 36.1444 297.27 35.6662C298.027 35.188 298.913 34.9489 299.926 34.9489C300.542 34.9489 301.138 35.0507 301.716 35.2543C302.293 35.4579 302.812 35.7775 303.271 36.2131C303.731 36.6487 304.093 37.2145 304.358 37.9105C304.623 38.6018 304.756 39.4422 304.756 40.4318V41.1847H296.084V39.5938H302.675C302.675 39.035 302.561 38.5402 302.334 38.1094C302.106 37.6738 301.787 37.3305 301.375 37.0795C300.968 36.8286 300.489 36.7031 299.94 36.7031C299.344 36.7031 298.823 36.8499 298.378 37.1435C297.937 37.4323 297.597 37.8111 297.355 38.2798C297.118 38.7438 297 39.2481 297 39.7926V41.0355C297 41.7647 297.128 42.3849 297.383 42.8963C297.644 43.4077 298.006 43.7983 298.47 44.0682C298.934 44.3333 299.476 44.4659 300.097 44.4659C300.499 44.4659 300.866 44.4091 301.197 44.2955C301.529 44.1771 301.815 44.0019 302.057 43.7699C302.298 43.5379 302.483 43.2514 302.611 42.9105L304.621 43.2727C304.46 43.8646 304.171 44.383 303.754 44.8281C303.342 45.2685 302.824 45.6117 302.199 45.858C301.579 46.0994 300.871 46.2202 300.075 46.2202ZM311.945 46V35.0909H314.068V46H311.945ZM313.017 33.4077C312.648 33.4077 312.331 33.2846 312.065 33.0384C311.805 32.7874 311.675 32.4891 311.675 32.1435C311.675 31.7931 311.805 31.4948 312.065 31.2486C312.331 30.9976 312.648 30.8722 313.017 30.8722C313.386 30.8722 313.701 30.9976 313.962 31.2486C314.227 31.4948 314.36 31.7931 314.36 32.1435C314.36 32.4891 314.227 32.7874 313.962 33.0384C313.701 33.2846 313.386 33.4077 313.017 33.4077ZM318.819 39.5227V46H316.695V35.0909H318.734V36.8665H318.869C319.119 36.2888 319.512 35.8248 320.047 35.4744C320.587 35.1241 321.267 34.9489 322.086 34.9489C322.829 34.9489 323.48 35.1051 324.039 35.4176C324.598 35.7254 325.031 36.1847 325.339 36.7955C325.646 37.4062 325.8 38.1615 325.8 39.0611V46H323.677V39.3168C323.677 38.526 323.471 37.9081 323.059 37.4631C322.647 37.0133 322.081 36.7884 321.361 36.7884C320.869 36.7884 320.431 36.8949 320.047 37.108C319.669 37.321 319.368 37.6335 319.145 38.0455C318.928 38.4527 318.819 38.9451 318.819 39.5227ZM338.254 46.1989C337.364 46.1989 336.564 46.0284 335.853 45.6875C335.148 45.3419 334.585 44.8684 334.163 44.267C333.742 43.6657 333.517 42.9792 333.488 42.2074H335.619C335.671 42.8324 335.948 43.3461 336.45 43.7486C336.952 44.151 337.553 44.3523 338.254 44.3523C338.813 44.3523 339.308 44.2244 339.738 43.9688C340.174 43.7083 340.515 43.3509 340.761 42.8963C341.012 42.4418 341.138 41.9233 341.138 41.3409C341.138 40.7491 341.01 40.2211 340.754 39.7571C340.498 39.2931 340.146 38.9285 339.696 38.6634C339.251 38.3982 338.739 38.2633 338.162 38.2585C337.721 38.2585 337.279 38.3343 336.834 38.4858C336.389 38.6373 336.029 38.8362 335.754 39.0824L333.744 38.7841L334.561 31.4545H342.558V33.3366H336.386L335.924 37.4062H336.01C336.294 37.1316 336.67 36.902 337.139 36.7173C337.612 36.5327 338.119 36.4403 338.659 36.4403C339.544 36.4403 340.333 36.651 341.024 37.0724C341.72 37.4938 342.267 38.0691 342.665 38.7983C343.067 39.5227 343.266 40.3561 343.261 41.2983C343.266 42.2405 343.053 43.081 342.622 43.8196C342.196 44.5582 341.604 45.1406 340.846 45.5668C340.094 45.9882 339.229 46.1989 338.254 46.1989ZM355.29 50.3182C354.424 50.3182 353.678 50.2045 353.053 49.9773C352.433 49.75 351.926 49.4493 351.533 49.0753C351.14 48.7012 350.847 48.2917 350.653 47.8466L352.478 47.0938C352.606 47.3021 352.776 47.5223 352.989 47.7543C353.207 47.991 353.501 48.1922 353.87 48.358C354.244 48.5237 354.725 48.6065 355.312 48.6065C356.117 48.6065 356.782 48.41 357.308 48.017C357.833 47.6288 358.096 47.0085 358.096 46.1562V44.0114H357.961C357.833 44.2434 357.648 44.5014 357.407 44.7855C357.17 45.0696 356.844 45.3158 356.427 45.5241C356.01 45.7325 355.468 45.8366 354.8 45.8366C353.939 45.8366 353.162 45.6354 352.471 45.233C351.784 44.8258 351.24 44.2268 350.837 43.4361C350.44 42.6406 350.241 41.6629 350.241 40.5028C350.241 39.3428 350.437 38.3485 350.83 37.5199C351.228 36.6913 351.772 36.0568 352.464 35.6165C353.155 35.1714 353.939 34.9489 354.815 34.9489C355.492 34.9489 356.039 35.0625 356.455 35.2898C356.872 35.5123 357.196 35.7727 357.428 36.071C357.665 36.3693 357.847 36.6321 357.975 36.8594H358.131V35.0909H360.212V46.2415C360.212 47.179 359.995 47.9484 359.559 48.5497C359.123 49.151 358.534 49.5961 357.79 49.8849C357.052 50.1738 356.219 50.3182 355.29 50.3182ZM355.269 44.0753C355.88 44.0753 356.396 43.9332 356.817 43.6491C357.244 43.3603 357.566 42.9484 357.783 42.4134C358.006 41.8736 358.117 41.2273 358.117 40.4744C358.117 39.7405 358.008 39.0942 357.79 38.5355C357.573 37.9768 357.253 37.5412 356.832 37.2287C356.41 36.9115 355.889 36.7528 355.269 36.7528C354.63 36.7528 354.097 36.9186 353.671 37.25C353.245 37.5767 352.923 38.0218 352.705 38.5852C352.492 39.1487 352.386 39.7784 352.386 40.4744C352.386 41.1894 352.495 41.8168 352.712 42.3565C352.93 42.8963 353.252 43.3177 353.678 43.6207C354.109 43.9238 354.639 44.0753 355.269 44.0753ZM364.954 31.4545V46H362.83V31.4545H364.954ZM372.176 46.2202C371.153 46.2202 370.261 45.9858 369.498 45.517C368.736 45.0483 368.144 44.3925 367.723 43.5497C367.301 42.7069 367.091 41.7221 367.091 40.5952C367.091 39.4635 367.301 38.474 367.723 37.6264C368.144 36.7789 368.736 36.1207 369.498 35.652C370.261 35.1832 371.153 34.9489 372.176 34.9489C373.199 34.9489 374.091 35.1832 374.854 35.652C375.616 36.1207 376.208 36.7789 376.629 37.6264C377.051 38.474 377.261 39.4635 377.261 40.5952C377.261 41.7221 377.051 42.7069 376.629 43.5497C376.208 44.3925 375.616 45.0483 374.854 45.517C374.091 45.9858 373.199 46.2202 372.176 46.2202ZM372.183 44.4375C372.846 44.4375 373.395 44.2623 373.831 43.9119C374.266 43.5616 374.588 43.0952 374.797 42.5128C375.01 41.9304 375.116 41.2888 375.116 40.5881C375.116 39.892 375.01 39.2528 374.797 38.6705C374.588 38.0833 374.266 37.6122 373.831 37.2571C373.395 36.902 372.846 36.7244 372.183 36.7244C371.515 36.7244 370.962 36.902 370.521 37.2571C370.086 37.6122 369.761 38.0833 369.548 38.6705C369.34 39.2528 369.236 39.892 369.236 40.5881C369.236 41.2888 369.34 41.9304 369.548 42.5128C369.761 43.0952 370.086 43.5616 370.521 43.9119C370.962 44.2623 371.515 44.4375 372.183 44.4375ZM379.572 46V31.4545H381.696V36.8594H381.823C381.947 36.6321 382.124 36.3693 382.356 36.071C382.588 35.7727 382.91 35.5123 383.322 35.2898C383.734 35.0625 384.279 34.9489 384.956 34.9489C385.836 34.9489 386.622 35.1714 387.314 35.6165C388.005 36.0616 388.547 36.7031 388.94 37.5412C389.338 38.3793 389.537 39.3878 389.537 40.5668C389.537 41.7457 389.34 42.7566 388.947 43.5994C388.554 44.4375 388.014 45.0838 387.328 45.5384C386.641 45.9882 385.858 46.2131 384.977 46.2131C384.314 46.2131 383.772 46.1018 383.35 45.8793C382.934 45.6567 382.607 45.3963 382.37 45.098C382.134 44.7997 381.951 44.5346 381.823 44.3026H381.646V46H379.572ZM381.653 40.5455C381.653 41.3125 381.764 41.9848 381.987 42.5625C382.209 43.1402 382.531 43.5923 382.953 43.919C383.374 44.241 383.89 44.402 384.501 44.402C385.136 44.402 385.666 44.2339 386.092 43.8977C386.518 43.5568 386.84 43.0952 387.058 42.5128C387.28 41.9304 387.392 41.2746 387.392 40.5455C387.392 39.8258 387.283 39.1795 387.065 38.6065C386.852 38.0336 386.53 37.5814 386.099 37.25C385.673 36.9186 385.14 36.7528 384.501 36.7528C383.886 36.7528 383.365 36.9115 382.939 37.2287C382.517 37.5459 382.198 37.9886 381.98 38.5568C381.762 39.125 381.653 39.7879 381.653 40.5455ZM394.866 46.2415C394.175 46.2415 393.55 46.1136 392.991 45.858C392.432 45.5975 391.989 45.2211 391.663 44.7287C391.341 44.2363 391.18 43.6326 391.18 42.9176C391.18 42.3021 391.298 41.7955 391.535 41.3977C391.772 41 392.091 40.6851 392.494 40.4531C392.896 40.2211 393.346 40.0459 393.843 39.9276C394.34 39.8092 394.847 39.7192 395.363 39.6577C396.016 39.5819 396.547 39.5204 396.954 39.473C397.361 39.4209 397.657 39.3381 397.842 39.2244C398.026 39.1108 398.119 38.9261 398.119 38.6705V38.6207C398.119 38.0005 397.944 37.5199 397.593 37.179C397.247 36.8381 396.731 36.6676 396.045 36.6676C395.33 36.6676 394.766 36.8262 394.354 37.1435C393.947 37.456 393.666 37.804 393.509 38.1875L391.514 37.733C391.75 37.0701 392.096 36.535 392.551 36.1278C393.01 35.7159 393.538 35.4176 394.134 35.233C394.731 35.0436 395.358 34.9489 396.016 34.9489C396.452 34.9489 396.914 35.0009 397.401 35.1051C397.894 35.2045 398.353 35.3892 398.779 35.6591C399.21 35.929 399.563 36.3149 399.837 36.8168C400.112 37.3139 400.249 37.9602 400.249 38.7557V46H398.176V44.5085H398.09C397.953 44.7831 397.747 45.053 397.472 45.3182C397.198 45.5833 396.845 45.8035 396.414 45.9787C395.983 46.1539 395.467 46.2415 394.866 46.2415ZM395.328 44.5369C395.915 44.5369 396.417 44.4209 396.833 44.1889C397.255 43.9569 397.574 43.6539 397.792 43.2798C398.015 42.901 398.126 42.4962 398.126 42.0653V40.6591C398.05 40.7348 397.903 40.8059 397.685 40.8722C397.472 40.9337 397.229 40.9882 396.954 41.0355C396.679 41.0781 396.412 41.1184 396.151 41.1562C395.891 41.1894 395.673 41.2178 395.498 41.2415C395.086 41.2936 394.71 41.3812 394.369 41.5043C394.033 41.6274 393.763 41.8049 393.559 42.0369C393.36 42.2642 393.261 42.5672 393.261 42.946C393.261 43.4716 393.455 43.8693 393.843 44.1392C394.231 44.4044 394.726 44.5369 395.328 44.5369ZM404.971 31.4545V46H402.848V31.4545H404.971ZM414.785 31.4545V46H412.661V31.4545H414.785ZM420.586 46.2415C419.895 46.2415 419.27 46.1136 418.711 45.858C418.153 45.5975 417.71 45.2211 417.383 44.7287C417.061 44.2363 416.9 43.6326 416.9 42.9176C416.9 42.3021 417.019 41.7955 417.256 41.3977C417.492 41 417.812 40.6851 418.214 40.4531C418.617 40.2211 419.067 40.0459 419.564 39.9276C420.061 39.8092 420.568 39.7192 421.084 39.6577C421.737 39.5819 422.267 39.5204 422.675 39.473C423.082 39.4209 423.378 39.3381 423.562 39.2244C423.747 39.1108 423.839 38.9261 423.839 38.6705V38.6207C423.839 38.0005 423.664 37.5199 423.314 37.179C422.968 36.8381 422.452 36.6676 421.765 36.6676C421.051 36.6676 420.487 36.8262 420.075 37.1435C419.668 37.456 419.386 37.804 419.23 38.1875L417.234 37.733C417.471 37.0701 417.817 36.535 418.271 36.1278C418.73 35.7159 419.258 35.4176 419.855 35.233C420.452 35.0436 421.079 34.9489 421.737 34.9489C422.173 34.9489 422.634 35.0009 423.122 35.1051C423.614 35.2045 424.074 35.3892 424.5 35.6591C424.931 35.929 425.283 36.3149 425.558 36.8168C425.833 37.3139 425.97 37.9602 425.97 38.7557V46H423.896V44.5085H423.811C423.674 44.7831 423.468 45.053 423.193 45.3182C422.918 45.5833 422.566 45.8035 422.135 45.9787C421.704 46.1539 421.188 46.2415 420.586 46.2415ZM421.048 44.5369C421.635 44.5369 422.137 44.4209 422.554 44.1889C422.975 43.9569 423.295 43.6539 423.513 43.2798C423.735 42.901 423.846 42.4962 423.846 42.0653V40.6591C423.771 40.7348 423.624 40.8059 423.406 40.8722C423.193 40.9337 422.949 40.9882 422.675 41.0355C422.4 41.0781 422.132 41.1184 421.872 41.1562C421.612 41.1894 421.394 41.2178 421.219 41.2415C420.807 41.2936 420.43 41.3812 420.089 41.5043C419.753 41.6274 419.483 41.8049 419.28 42.0369C419.081 42.2642 418.981 42.5672 418.981 42.946C418.981 43.4716 419.176 43.8693 419.564 44.1392C419.952 44.4044 420.447 44.5369 421.048 44.5369ZM430.692 39.5227V46H428.568V35.0909H430.607V36.8665H430.742C430.993 36.2888 431.386 35.8248 431.921 35.4744C432.461 35.1241 433.14 34.9489 433.959 34.9489C434.702 34.9489 435.354 35.1051 435.912 35.4176C436.471 35.7254 436.904 36.1847 437.212 36.7955C437.52 37.4062 437.674 38.1615 437.674 39.0611V46H435.55V39.3168C435.55 38.526 435.344 37.9081 434.932 37.4631C434.52 37.0133 433.954 36.7884 433.235 36.7884C432.742 36.7884 432.304 36.8949 431.921 37.108C431.542 37.321 431.241 37.6335 431.019 38.0455C430.801 38.4527 430.692 38.9451 430.692 39.5227ZM444.865 50.3182C443.999 50.3182 443.253 50.2045 442.628 49.9773C442.008 49.75 441.501 49.4493 441.108 49.0753C440.715 48.7012 440.422 48.2917 440.228 47.8466L442.053 47.0938C442.181 47.3021 442.351 47.5223 442.564 47.7543C442.782 47.991 443.076 48.1922 443.445 48.358C443.819 48.5237 444.3 48.6065 444.887 48.6065C445.692 48.6065 446.357 48.41 446.883 48.017C447.408 47.6288 447.671 47.0085 447.671 46.1562V44.0114H447.536C447.408 44.2434 447.223 44.5014 446.982 44.7855C446.745 45.0696 446.419 45.3158 446.002 45.5241C445.585 45.7325 445.043 45.8366 444.375 45.8366C443.514 45.8366 442.737 45.6354 442.046 45.233C441.359 44.8258 440.815 44.2268 440.412 43.4361C440.015 42.6406 439.816 41.6629 439.816 40.5028C439.816 39.3428 440.012 38.3485 440.405 37.5199C440.803 36.6913 441.348 36.0568 442.039 35.6165C442.73 35.1714 443.514 34.9489 444.39 34.9489C445.067 34.9489 445.614 35.0625 446.03 35.2898C446.447 35.5123 446.771 35.7727 447.003 36.071C447.24 36.3693 447.422 36.6321 447.55 36.8594H447.706V35.0909H449.787V46.2415C449.787 47.179 449.57 47.9484 449.134 48.5497C448.698 49.151 448.109 49.5961 447.365 49.8849C446.627 50.1738 445.794 50.3182 444.865 50.3182ZM444.844 44.0753C445.455 44.0753 445.971 43.9332 446.392 43.6491C446.819 43.3603 447.141 42.9484 447.358 42.4134C447.581 41.8736 447.692 41.2273 447.692 40.4744C447.692 39.7405 447.583 39.0942 447.365 38.5355C447.148 37.9768 446.828 37.5412 446.407 37.2287C445.985 36.9115 445.464 36.7528 444.844 36.7528C444.205 36.7528 443.672 36.9186 443.246 37.25C442.82 37.5767 442.498 38.0218 442.28 38.5852C442.067 39.1487 441.961 39.7784 441.961 40.4744C441.961 41.1894 442.07 41.8168 442.287 42.3565C442.505 42.8963 442.827 43.3177 443.253 43.6207C443.684 43.9238 444.214 44.0753 444.844 44.0753ZM459.316 41.4759V35.0909H461.447V46H459.358V44.1108H459.245C458.994 44.6932 458.591 45.1785 458.037 45.5668C457.488 45.9503 456.804 46.142 455.985 46.142C455.284 46.142 454.664 45.9882 454.124 45.6804C453.589 45.3679 453.168 44.9062 452.86 44.2955C452.557 43.6847 452.405 42.9295 452.405 42.0298V35.0909H454.529V41.7741C454.529 42.5175 454.735 43.1094 455.147 43.5497C455.559 43.9901 456.094 44.2102 456.752 44.2102C457.15 44.2102 457.545 44.1108 457.938 43.9119C458.336 43.7131 458.665 43.4124 458.925 43.0099C459.19 42.6075 459.321 42.0961 459.316 41.4759ZM467.245 46.2415C466.553 46.2415 465.928 46.1136 465.37 45.858C464.811 45.5975 464.368 45.2211 464.041 44.7287C463.72 44.2363 463.559 43.6326 463.559 42.9176C463.559 42.3021 463.677 41.7955 463.914 41.3977C464.15 41 464.47 40.6851 464.872 40.4531C465.275 40.2211 465.725 40.0459 466.222 39.9276C466.719 39.8092 467.226 39.7192 467.742 39.6577C468.395 39.5819 468.925 39.5204 469.333 39.473C469.74 39.4209 470.036 39.3381 470.22 39.2244C470.405 39.1108 470.497 38.9261 470.497 38.6705V38.6207C470.497 38.0005 470.322 37.5199 469.972 37.179C469.626 36.8381 469.11 36.6676 468.424 36.6676C467.709 36.6676 467.145 36.8262 466.733 37.1435C466.326 37.456 466.044 37.804 465.888 38.1875L463.892 37.733C464.129 37.0701 464.475 36.535 464.929 36.1278C465.389 35.7159 465.916 35.4176 466.513 35.233C467.11 35.0436 467.737 34.9489 468.395 34.9489C468.831 34.9489 469.292 35.0009 469.78 35.1051C470.273 35.2045 470.732 35.3892 471.158 35.6591C471.589 35.929 471.942 36.3149 472.216 36.8168C472.491 37.3139 472.628 37.9602 472.628 38.7557V46H470.554V44.5085H470.469C470.332 44.7831 470.126 45.053 469.851 45.3182C469.577 45.5833 469.224 45.8035 468.793 45.9787C468.362 46.1539 467.846 46.2415 467.245 46.2415ZM467.706 44.5369C468.293 44.5369 468.795 44.4209 469.212 44.1889C469.633 43.9569 469.953 43.6539 470.171 43.2798C470.393 42.901 470.505 42.4962 470.505 42.0653V40.6591C470.429 40.7348 470.282 40.8059 470.064 40.8722C469.851 40.9337 469.607 40.9882 469.333 41.0355C469.058 41.0781 468.791 41.1184 468.53 41.1562C468.27 41.1894 468.052 41.2178 467.877 41.2415C467.465 41.2936 467.088 41.3812 466.747 41.5043C466.411 41.6274 466.141 41.8049 465.938 42.0369C465.739 42.2642 465.639 42.5672 465.639 42.946C465.639 43.4716 465.834 43.8693 466.222 44.1392C466.61 44.4044 467.105 44.5369 467.706 44.5369ZM479.8 50.3182C478.934 50.3182 478.188 50.2045 477.563 49.9773C476.943 49.75 476.436 49.4493 476.043 49.0753C475.65 48.7012 475.357 48.2917 475.163 47.8466L476.988 47.0938C477.116 47.3021 477.286 47.5223 477.499 47.7543C477.717 47.991 478.011 48.1922 478.38 48.358C478.754 48.5237 479.235 48.6065 479.822 48.6065C480.627 48.6065 481.292 48.41 481.818 48.017C482.343 47.6288 482.606 47.0085 482.606 46.1562V44.0114H482.471C482.343 44.2434 482.158 44.5014 481.917 44.7855C481.68 45.0696 481.354 45.3158 480.937 45.5241C480.52 45.7325 479.978 45.8366 479.31 45.8366C478.449 45.8366 477.672 45.6354 476.981 45.233C476.294 44.8258 475.75 44.2268 475.347 43.4361C474.95 42.6406 474.751 41.6629 474.751 40.5028C474.751 39.3428 474.947 38.3485 475.34 37.5199C475.738 36.6913 476.283 36.0568 476.974 35.6165C477.665 35.1714 478.449 34.9489 479.325 34.9489C480.002 34.9489 480.549 35.0625 480.965 35.2898C481.382 35.5123 481.706 35.7727 481.938 36.071C482.175 36.3693 482.357 36.6321 482.485 36.8594H482.641V35.0909H484.722V46.2415C484.722 47.179 484.505 47.9484 484.069 48.5497C483.633 49.151 483.044 49.5961 482.3 49.8849C481.562 50.1738 480.729 50.3182 479.8 50.3182ZM479.779 44.0753C480.39 44.0753 480.906 43.9332 481.327 43.6491C481.754 43.3603 482.076 42.9484 482.293 42.4134C482.516 41.8736 482.627 41.2273 482.627 40.4744C482.627 39.7405 482.518 39.0942 482.3 38.5355C482.083 37.9768 481.763 37.5412 481.342 37.2287C480.92 36.9115 480.399 36.7528 479.779 36.7528C479.14 36.7528 478.607 36.9186 478.181 37.25C477.755 37.5767 477.433 38.0218 477.215 38.5852C477.002 39.1487 476.896 39.7784 476.896 40.4744C476.896 41.1894 477.005 41.8168 477.222 42.3565C477.44 42.8963 477.762 43.3177 478.188 43.6207C478.619 43.9238 479.149 44.0753 479.779 44.0753ZM492.042 46.2202C490.967 46.2202 490.042 45.9905 489.265 45.5312C488.493 45.0672 487.897 44.4162 487.475 43.5781C487.059 42.7353 486.85 41.7481 486.85 40.6165C486.85 39.4991 487.059 38.5142 487.475 37.6619C487.897 36.8097 488.484 36.1444 489.237 35.6662C489.994 35.188 490.88 34.9489 491.893 34.9489C492.508 34.9489 493.105 35.0507 493.683 35.2543C494.26 35.4579 494.779 35.7775 495.238 36.2131C495.697 36.6487 496.06 37.2145 496.325 37.9105C496.59 38.6018 496.722 39.4422 496.722 40.4318V41.1847H488.051V39.5938H494.642C494.642 39.035 494.528 38.5402 494.301 38.1094C494.073 37.6738 493.754 37.3305 493.342 37.0795C492.935 36.8286 492.456 36.7031 491.907 36.7031C491.311 36.7031 490.79 36.8499 490.345 37.1435C489.904 37.4323 489.563 37.8111 489.322 38.2798C489.085 38.7438 488.967 39.2481 488.967 39.7926V41.0355C488.967 41.7647 489.095 42.3849 489.35 42.8963C489.611 43.4077 489.973 43.7983 490.437 44.0682C490.901 44.3333 491.443 44.4659 492.063 44.4659C492.466 44.4659 492.833 44.4091 493.164 44.2955C493.496 44.1771 493.782 44.0019 494.024 43.7699C494.265 43.5379 494.45 43.2514 494.578 42.9105L496.588 43.2727C496.427 43.8646 496.138 44.383 495.721 44.8281C495.309 45.2685 494.791 45.6117 494.166 45.858C493.545 46.0994 492.838 46.2202 492.042 46.2202ZM507.023 37.7543L505.099 38.0952C505.018 37.849 504.89 37.6146 504.715 37.392C504.545 37.1695 504.313 36.9872 504.019 36.8452C503.726 36.7031 503.359 36.6321 502.918 36.6321C502.317 36.6321 501.815 36.767 501.413 37.0369C501.01 37.3021 500.809 37.6454 500.809 38.0668C500.809 38.4313 500.944 38.7249 501.214 38.9474C501.484 39.17 501.919 39.3523 502.521 39.4943L504.253 39.892C505.257 40.1241 506.005 40.4815 506.498 40.9645C506.99 41.4474 507.236 42.0748 507.236 42.8466C507.236 43.5 507.047 44.0824 506.668 44.5938C506.294 45.1004 505.771 45.4981 505.099 45.7869C504.431 46.0758 503.657 46.2202 502.776 46.2202C501.555 46.2202 500.558 45.9598 499.786 45.4389C499.014 44.9134 498.541 44.1676 498.366 43.2017L500.418 42.8892C500.546 43.4242 500.809 43.8291 501.207 44.1037C501.604 44.3736 502.123 44.5085 502.762 44.5085C503.458 44.5085 504.014 44.3641 504.431 44.0753C504.848 43.7817 505.056 43.4242 505.056 43.0028C505.056 42.6619 504.928 42.3755 504.673 42.1435C504.422 41.9115 504.036 41.7363 503.515 41.6179L501.668 41.2131C500.65 40.9811 499.897 40.6117 499.41 40.1051C498.927 39.5985 498.685 38.9569 498.685 38.1804C498.685 37.5365 498.865 36.973 499.225 36.4901C499.585 36.0071 500.082 35.6307 500.717 35.3608C501.351 35.0862 502.078 34.9489 502.897 34.9489C504.076 34.9489 505.004 35.2045 505.681 35.7159C506.358 36.2225 506.806 36.902 507.023 37.7543Z" fill="#F2F2F2"/>
<rect x="52" y="70" width="536" height="125" rx="12" fill="#001823"/>
<path d="M135.32 82.65H85.68C81.2271 82.65 77.65 86.0079 77.65 90.169V127.91C77.65 132.071 81.2271 135.429 85.68 135.429H90.9359V146.598C90.9359 147.255 91.3739 147.912 92.0309 148.204C92.323 148.35 92.5418 148.35 92.8338 148.35C93.2718 148.35 93.7097 148.204 94.0747 147.985L110.646 135.429H135.32C139.773 135.429 143.35 132.071 143.35 127.91V90.1688C143.35 86.0077 139.773 82.6498 135.32 82.6498L135.32 82.65ZM139.627 127.837C139.627 130.027 137.729 131.779 135.393 131.779H109.916C109.478 131.779 109.04 131.925 108.675 132.144L94.7321 142.729V133.531C94.7321 132.582 93.8562 131.779 92.8341 131.779H85.6801C83.3443 131.779 81.446 130.027 81.446 127.837V90.3149C81.446 88.1249 83.344 86.3729 85.6801 86.3729H135.466C137.802 86.3729 139.7 88.1249 139.7 90.3149V127.837L139.627 127.837Z" fill="#D4D4D4"/>
<path d="M96.63 110.171H106.996V106.521H96.63V101.995H107.872V98.1992H92.25V119.515H108.383V115.646H96.63V110.171Z" fill="#D4D4D4"/>
<path d="M124.954 113.091L116.486 98.199H111.814V119.515H115.975V104.404L124.662 119.515H129.115V98.199H124.954L124.954 113.091Z" fill="#D4D4D4"/>
<path d="M81.5852 179V165.909H89.4858V167.315H83.1705V171.739H89.0767V173.145H83.1705V177.594H89.5881V179H81.5852ZM93.647 173.094V179H92.1385V169.182H93.5959V170.716H93.7237C93.9538 170.217 94.3033 169.817 94.772 169.514C95.2408 169.207 95.8459 169.054 96.5874 169.054C97.2521 169.054 97.8338 169.19 98.3324 169.463C98.831 169.732 99.2188 170.141 99.4957 170.69C99.7727 171.236 99.9112 171.926 99.9112 172.761V179H98.4027V172.864C98.4027 172.092 98.2024 171.491 97.8018 171.061C97.4013 170.626 96.8516 170.409 96.1527 170.409C95.6712 170.409 95.2408 170.513 94.8615 170.722C94.4865 170.931 94.1903 171.236 93.973 171.636C93.7557 172.037 93.647 172.523 93.647 173.094ZM106.631 182.886C105.902 182.886 105.276 182.793 104.752 182.605C104.227 182.422 103.791 182.179 103.441 181.876C103.096 181.578 102.821 181.259 102.617 180.918L103.818 180.074C103.955 180.253 104.127 180.457 104.336 180.688C104.545 180.922 104.83 181.124 105.193 181.295C105.559 181.469 106.039 181.557 106.631 181.557C107.423 181.557 108.078 181.365 108.593 180.982C109.109 180.598 109.367 179.997 109.367 179.179V177.185H109.239C109.128 177.364 108.97 177.585 108.766 177.849C108.566 178.109 108.276 178.342 107.896 178.546C107.521 178.746 107.014 178.847 106.375 178.847C105.583 178.847 104.871 178.659 104.24 178.284C103.614 177.909 103.117 177.364 102.751 176.648C102.389 175.932 102.208 175.062 102.208 174.04C102.208 173.034 102.384 172.158 102.738 171.413C103.092 170.663 103.584 170.083 104.215 169.674C104.845 169.261 105.574 169.054 106.401 169.054C107.04 169.054 107.547 169.161 107.922 169.374C108.301 169.582 108.591 169.821 108.791 170.089C108.996 170.354 109.154 170.571 109.264 170.741H109.418V169.182H110.875V179.281C110.875 180.125 110.683 180.811 110.3 181.339C109.921 181.872 109.409 182.262 108.766 182.509C108.127 182.761 107.415 182.886 106.631 182.886ZM106.58 177.491C107.185 177.491 107.696 177.353 108.114 177.076C108.531 176.799 108.849 176.401 109.066 175.881C109.284 175.361 109.392 174.739 109.392 174.014C109.392 173.307 109.286 172.683 109.073 172.141C108.86 171.6 108.544 171.176 108.127 170.869C107.709 170.562 107.193 170.409 106.58 170.409C105.941 170.409 105.408 170.571 104.982 170.895C104.56 171.219 104.242 171.653 104.029 172.199C103.82 172.744 103.716 173.349 103.716 174.014C103.716 174.696 103.823 175.299 104.036 175.823C104.253 176.343 104.573 176.752 104.994 177.05C105.421 177.344 105.949 177.491 106.58 177.491ZM115.145 165.909V179H113.637V165.909H115.145ZM117.908 179V169.182H119.417V179H117.908ZM118.675 167.545C118.381 167.545 118.127 167.445 117.914 167.245C117.706 167.045 117.601 166.804 117.601 166.523C117.601 166.241 117.706 166.001 117.914 165.8C118.127 165.6 118.381 165.5 118.675 165.5C118.969 165.5 119.221 165.6 119.429 165.8C119.642 166.001 119.749 166.241 119.749 166.523C119.749 166.804 119.642 167.045 119.429 167.245C119.221 167.445 118.969 167.545 118.675 167.545ZM129.134 171.381L127.779 171.764C127.694 171.538 127.568 171.319 127.402 171.106C127.24 170.888 127.018 170.71 126.737 170.569C126.456 170.428 126.096 170.358 125.657 170.358C125.056 170.358 124.555 170.496 124.155 170.773C123.758 171.046 123.56 171.393 123.56 171.815C123.56 172.19 123.697 172.487 123.969 172.704C124.242 172.921 124.668 173.102 125.248 173.247L126.705 173.605C127.583 173.818 128.237 174.144 128.667 174.583C129.098 175.018 129.313 175.578 129.313 176.264C129.313 176.827 129.151 177.33 128.827 177.773C128.508 178.216 128.06 178.565 127.485 178.821C126.91 179.077 126.241 179.205 125.478 179.205C124.476 179.205 123.648 178.987 122.991 178.553C122.335 178.118 121.92 177.483 121.745 176.648L123.177 176.29C123.313 176.818 123.571 177.214 123.95 177.479C124.334 177.743 124.834 177.875 125.452 177.875C126.155 177.875 126.714 177.726 127.127 177.428C127.545 177.125 127.753 176.763 127.753 176.341C127.753 176 127.634 175.714 127.395 175.484C127.157 175.25 126.79 175.075 126.296 174.96L124.66 174.577C123.76 174.364 123.1 174.033 122.678 173.586C122.26 173.134 122.052 172.57 122.052 171.892C122.052 171.338 122.207 170.848 122.518 170.422C122.834 169.996 123.262 169.661 123.803 169.418C124.349 169.175 124.966 169.054 125.657 169.054C126.628 169.054 127.391 169.267 127.945 169.693C128.503 170.119 128.9 170.682 129.134 171.381ZM133.092 173.094V179H131.584V165.909H133.092V170.716H133.22C133.45 170.209 133.795 169.806 134.256 169.508C134.72 169.205 135.338 169.054 136.109 169.054C136.778 169.054 137.364 169.188 137.867 169.457C138.37 169.721 138.76 170.128 139.037 170.678C139.318 171.223 139.459 171.918 139.459 172.761V179H137.95V172.864C137.95 172.084 137.748 171.481 137.343 171.055C136.942 170.624 136.386 170.409 135.675 170.409C135.18 170.409 134.737 170.513 134.345 170.722C133.957 170.931 133.651 171.236 133.425 171.636C133.203 172.037 133.092 172.523 133.092 173.094Z" fill="#F2F2F2"/>
<path d="M189.585 179V165.909H191.17V172.403H191.324L197.205 165.909H199.276L193.778 171.815L199.276 179H197.358L192.807 172.915L191.17 174.756V179H189.585ZM204.391 179.205C203.504 179.205 202.727 178.994 202.058 178.572C201.393 178.15 200.873 177.56 200.498 176.801C200.127 176.043 199.942 175.156 199.942 174.142C199.942 173.119 200.127 172.227 200.498 171.464C200.873 170.701 201.393 170.109 202.058 169.687C202.727 169.265 203.504 169.054 204.391 169.054C205.277 169.054 206.053 169.265 206.718 169.687C207.387 170.109 207.906 170.701 208.277 171.464C208.652 172.227 208.84 173.119 208.84 174.142C208.84 175.156 208.652 176.043 208.277 176.801C207.906 177.56 207.387 178.15 206.718 178.572C206.053 178.994 205.277 179.205 204.391 179.205ZM204.391 177.849C205.064 177.849 205.618 177.677 206.053 177.332C206.487 176.987 206.809 176.533 207.018 175.97C207.227 175.408 207.331 174.798 207.331 174.142C207.331 173.486 207.227 172.874 207.018 172.308C206.809 171.741 206.487 171.283 206.053 170.933C205.618 170.584 205.064 170.409 204.391 170.409C203.718 170.409 203.164 170.584 202.729 170.933C202.294 171.283 201.972 171.741 201.764 172.308C201.555 172.874 201.45 173.486 201.45 174.142C201.45 174.798 201.555 175.408 201.764 175.97C201.972 176.533 202.294 176.987 202.729 177.332C203.164 177.677 203.718 177.849 204.391 177.849ZM211.142 179V169.182H212.6V170.665H212.702C212.881 170.179 213.205 169.785 213.674 169.482C214.142 169.18 214.671 169.028 215.259 169.028C215.37 169.028 215.508 169.031 215.674 169.035C215.841 169.039 215.966 169.045 216.051 169.054V170.588C216 170.575 215.883 170.556 215.7 170.531C215.521 170.501 215.331 170.486 215.131 170.486C214.654 170.486 214.228 170.586 213.853 170.786C213.482 170.982 213.188 171.255 212.971 171.604C212.757 171.95 212.651 172.344 212.651 172.787V179H211.142ZM221.657 179.205C220.711 179.205 219.895 178.996 219.209 178.578C218.527 178.156 218.001 177.568 217.63 176.814C217.264 176.055 217.081 175.173 217.081 174.168C217.081 173.162 217.264 172.276 217.63 171.509C218.001 170.737 218.517 170.136 219.177 169.706C219.842 169.271 220.618 169.054 221.504 169.054C222.015 169.054 222.52 169.139 223.019 169.31C223.517 169.48 223.971 169.757 224.38 170.141C224.789 170.52 225.115 171.023 225.358 171.649C225.601 172.276 225.723 173.047 225.723 173.963V174.602H218.154V173.298H224.189C224.189 172.744 224.078 172.25 223.856 171.815C223.639 171.381 223.328 171.038 222.923 170.786C222.522 170.535 222.049 170.409 221.504 170.409C220.903 170.409 220.383 170.558 219.944 170.857C219.51 171.151 219.175 171.534 218.941 172.007C218.706 172.48 218.589 172.987 218.589 173.528V174.398C218.589 175.139 218.717 175.768 218.973 176.283C219.233 176.795 219.593 177.185 220.053 177.453C220.513 177.717 221.048 177.849 221.657 177.849C222.054 177.849 222.412 177.794 222.731 177.683C223.055 177.568 223.334 177.398 223.569 177.172C223.803 176.942 223.984 176.656 224.112 176.315L225.569 176.724C225.416 177.219 225.158 177.653 224.796 178.028C224.434 178.399 223.986 178.689 223.453 178.898C222.921 179.102 222.322 179.205 221.657 179.205ZM230.907 179.23C230.284 179.23 229.72 179.113 229.213 178.879C228.706 178.64 228.303 178.297 228.005 177.849C227.706 177.398 227.557 176.852 227.557 176.213C227.557 175.651 227.668 175.195 227.89 174.845C228.111 174.491 228.407 174.214 228.778 174.014C229.149 173.814 229.558 173.665 230.005 173.567C230.457 173.464 230.911 173.384 231.367 173.324C231.963 173.247 232.447 173.19 232.818 173.151C233.193 173.109 233.466 173.038 233.636 172.94C233.811 172.842 233.898 172.672 233.898 172.429V172.378C233.898 171.747 233.725 171.257 233.38 170.908C233.039 170.558 232.522 170.384 231.827 170.384C231.107 170.384 230.542 170.541 230.133 170.857C229.724 171.172 229.436 171.509 229.27 171.866L227.838 171.355C228.094 170.759 228.435 170.294 228.861 169.962C229.292 169.625 229.76 169.391 230.267 169.259C230.779 169.122 231.282 169.054 231.776 169.054C232.091 169.054 232.453 169.092 232.863 169.169C233.276 169.241 233.674 169.393 234.058 169.623C234.446 169.853 234.767 170.2 235.023 170.665C235.279 171.129 235.407 171.751 235.407 172.531V179H233.898V177.67H233.821C233.719 177.884 233.549 178.112 233.31 178.354C233.071 178.597 232.754 178.804 232.358 178.974C231.961 179.145 231.478 179.23 230.907 179.23ZM231.137 177.875C231.733 177.875 232.236 177.758 232.645 177.523C233.059 177.289 233.37 176.987 233.578 176.616C233.792 176.245 233.898 175.855 233.898 175.446V174.065C233.834 174.142 233.694 174.212 233.476 174.276C233.263 174.336 233.016 174.389 232.735 174.436C232.458 174.479 232.187 174.517 231.923 174.551C231.663 174.581 231.452 174.607 231.29 174.628C230.898 174.679 230.532 174.762 230.191 174.877C229.854 174.988 229.581 175.156 229.373 175.382C229.168 175.604 229.066 175.906 229.066 176.29C229.066 176.814 229.26 177.21 229.647 177.479C230.039 177.743 230.536 177.875 231.137 177.875ZM239.669 173.094V179H238.16V169.182H239.617V170.716H239.745C239.975 170.217 240.325 169.817 240.794 169.514C241.262 169.207 241.867 169.054 242.609 169.054C243.274 169.054 243.855 169.19 244.354 169.463C244.852 169.732 245.24 170.141 245.517 170.69C245.794 171.236 245.933 171.926 245.933 172.761V179H244.424V172.864C244.424 172.092 244.224 171.491 243.823 171.061C243.423 170.626 242.873 170.409 242.174 170.409C241.693 170.409 241.262 170.513 240.883 170.722C240.508 170.931 240.212 171.236 239.994 171.636C239.777 172.037 239.669 172.523 239.669 173.094Z" fill="#D4D4D4"/>
<path d="M305.534 170C305.393 169.57 305.208 169.184 304.978 168.843C304.752 168.498 304.482 168.204 304.166 167.961C303.855 167.718 303.501 167.533 303.105 167.405C302.709 167.277 302.274 167.213 301.801 167.213C301.026 167.213 300.32 167.413 299.685 167.814C299.05 168.214 298.545 168.805 298.17 169.585C297.795 170.364 297.608 171.321 297.608 172.455C297.608 173.588 297.798 174.545 298.177 175.325C298.556 176.104 299.07 176.695 299.717 177.095C300.365 177.496 301.094 177.696 301.903 177.696C302.653 177.696 303.314 177.536 303.885 177.217C304.46 176.893 304.908 176.437 305.227 175.849C305.551 175.256 305.713 174.56 305.713 173.759L306.199 173.861H302.261V172.455H307.247V173.861C307.247 174.939 307.017 175.876 306.557 176.673C306.101 177.47 305.47 178.088 304.665 178.527C303.864 178.962 302.943 179.179 301.903 179.179C300.744 179.179 299.726 178.906 298.848 178.361C297.974 177.815 297.293 177.04 296.803 176.034C296.317 175.028 296.074 173.835 296.074 172.455C296.074 171.419 296.212 170.488 296.489 169.661C296.771 168.83 297.167 168.123 297.678 167.539C298.19 166.955 298.795 166.508 299.494 166.197C300.192 165.886 300.962 165.73 301.801 165.73C302.491 165.73 303.135 165.835 303.732 166.043C304.332 166.248 304.867 166.54 305.336 166.919C305.809 167.294 306.203 167.744 306.518 168.268C306.834 168.788 307.051 169.365 307.17 170H305.534ZM313.874 179.205C312.928 179.205 312.112 178.996 311.426 178.578C310.744 178.156 310.218 177.568 309.847 176.814C309.481 176.055 309.297 175.173 309.297 174.168C309.297 173.162 309.481 172.276 309.847 171.509C310.218 170.737 310.733 170.136 311.394 169.706C312.059 169.271 312.834 169.054 313.721 169.054C314.232 169.054 314.737 169.139 315.236 169.31C315.734 169.48 316.188 169.757 316.597 170.141C317.006 170.52 317.332 171.023 317.575 171.649C317.818 172.276 317.939 173.047 317.939 173.963V174.602H310.371V173.298H316.405C316.405 172.744 316.295 172.25 316.073 171.815C315.856 171.381 315.545 171.038 315.14 170.786C314.739 170.535 314.266 170.409 313.721 170.409C313.12 170.409 312.6 170.558 312.161 170.857C311.726 171.151 311.392 171.534 311.157 172.007C310.923 172.48 310.806 172.987 310.806 173.528V174.398C310.806 175.139 310.934 175.768 311.189 176.283C311.449 176.795 311.809 177.185 312.27 177.453C312.73 177.717 313.265 177.849 313.874 177.849C314.27 177.849 314.628 177.794 314.948 177.683C315.272 177.568 315.551 177.398 315.785 177.172C316.02 176.942 316.201 176.656 316.329 176.315L317.786 176.724C317.633 177.219 317.375 177.653 317.013 178.028C316.65 178.399 316.203 178.689 315.67 178.898C315.138 179.102 314.539 179.205 313.874 179.205ZM320.234 179V169.182H321.692V170.665H321.794C321.973 170.179 322.297 169.785 322.765 169.482C323.234 169.18 323.763 169.028 324.351 169.028C324.461 169.028 324.6 169.031 324.766 169.035C324.932 169.039 325.058 169.045 325.143 169.054V170.588C325.092 170.575 324.975 170.556 324.792 170.531C324.613 170.501 324.423 170.486 324.223 170.486C323.746 170.486 323.319 170.586 322.944 170.786C322.574 170.982 322.28 171.255 322.062 171.604C321.849 171.95 321.743 172.344 321.743 172.787V179H320.234ZM326.931 179V169.182H328.389V170.716H328.517C328.721 170.192 329.051 169.785 329.507 169.495C329.963 169.201 330.511 169.054 331.15 169.054C331.798 169.054 332.337 169.201 332.767 169.495C333.202 169.785 333.541 170.192 333.784 170.716H333.886C334.137 170.209 334.515 169.806 335.017 169.508C335.52 169.205 336.123 169.054 336.826 169.054C337.704 169.054 338.422 169.329 338.98 169.879C339.539 170.424 339.818 171.274 339.818 172.429V179H338.309V172.429C338.309 171.705 338.111 171.187 337.715 170.876C337.319 170.565 336.852 170.409 336.315 170.409C335.625 170.409 335.09 170.618 334.711 171.036C334.331 171.449 334.142 171.973 334.142 172.608V179H332.608V172.276C332.608 171.717 332.426 171.268 332.064 170.927C331.702 170.582 331.235 170.409 330.664 170.409C330.272 170.409 329.906 170.513 329.565 170.722C329.228 170.931 328.956 171.221 328.747 171.592C328.542 171.958 328.44 172.382 328.44 172.864V179H326.931ZM345.465 179.23C344.843 179.23 344.278 179.113 343.771 178.879C343.264 178.64 342.862 178.297 342.563 177.849C342.265 177.398 342.116 176.852 342.116 176.213C342.116 175.651 342.227 175.195 342.448 174.845C342.67 174.491 342.966 174.214 343.337 174.014C343.707 173.814 344.116 173.665 344.564 173.567C345.016 173.464 345.469 173.384 345.925 173.324C346.522 173.247 347.006 173.19 347.376 173.151C347.751 173.109 348.024 173.038 348.195 172.94C348.369 172.842 348.457 172.672 348.457 172.429V172.378C348.457 171.747 348.284 171.257 347.939 170.908C347.598 170.558 347.08 170.384 346.386 170.384C345.665 170.384 345.101 170.541 344.692 170.857C344.283 171.172 343.995 171.509 343.829 171.866L342.397 171.355C342.653 170.759 342.994 170.294 343.42 169.962C343.85 169.625 344.319 169.391 344.826 169.259C345.337 169.122 345.84 169.054 346.335 169.054C346.65 169.054 347.012 169.092 347.421 169.169C347.835 169.241 348.233 169.393 348.616 169.623C349.004 169.853 349.326 170.2 349.582 170.665C349.837 171.129 349.965 171.751 349.965 172.531V179H348.457V177.67H348.38C348.278 177.884 348.107 178.112 347.869 178.354C347.63 178.597 347.313 178.804 346.916 178.974C346.52 179.145 346.036 179.23 345.465 179.23ZM345.695 177.875C346.292 177.875 346.795 177.758 347.204 177.523C347.617 177.289 347.928 176.987 348.137 176.616C348.35 176.245 348.457 175.855 348.457 175.446V174.065C348.393 174.142 348.252 174.212 348.035 174.276C347.822 174.336 347.575 174.389 347.293 174.436C347.016 174.479 346.746 174.517 346.482 174.551C346.222 174.581 346.011 174.607 345.849 174.628C345.457 174.679 345.09 174.762 344.749 174.877C344.413 174.988 344.14 175.156 343.931 175.382C343.727 175.604 343.624 175.906 343.624 176.29C343.624 176.814 343.818 177.21 344.206 177.479C344.598 177.743 345.094 177.875 345.695 177.875ZM354.227 173.094V179H352.719V169.182H354.176V170.716H354.304C354.534 170.217 354.883 169.817 355.352 169.514C355.821 169.207 356.426 169.054 357.167 169.054C357.832 169.054 358.414 169.19 358.912 169.463C359.411 169.732 359.799 170.141 360.076 170.69C360.353 171.236 360.491 171.926 360.491 172.761V179H358.983V172.864C358.983 172.092 358.782 171.491 358.382 171.061C357.981 170.626 357.432 170.409 356.733 170.409C356.251 170.409 355.821 170.513 355.442 170.722C355.067 170.931 354.77 171.236 354.553 171.636C354.336 172.037 354.227 172.523 354.227 173.094Z" fill="#D4D4D4"/>
<path d="M396.597 165.909H398.182V175.267C398.182 176.102 398.028 176.812 397.722 177.396C397.415 177.979 396.982 178.423 396.424 178.725C395.866 179.028 395.207 179.179 394.449 179.179C393.733 179.179 393.096 179.049 392.538 178.789C391.979 178.525 391.54 178.15 391.221 177.664C390.901 177.178 390.741 176.601 390.741 175.932H392.301C392.301 176.303 392.393 176.626 392.576 176.903C392.763 177.176 393.019 177.389 393.343 177.543C393.667 177.696 394.036 177.773 394.449 177.773C394.905 177.773 395.293 177.677 395.612 177.485C395.932 177.293 396.175 177.012 396.341 176.641C396.511 176.266 396.597 175.808 396.597 175.267V165.909ZM404.043 179.23C403.421 179.23 402.857 179.113 402.349 178.879C401.842 178.64 401.44 178.297 401.141 177.849C400.843 177.398 400.694 176.852 400.694 176.213C400.694 175.651 400.805 175.195 401.026 174.845C401.248 174.491 401.544 174.214 401.915 174.014C402.286 173.814 402.695 173.665 403.142 173.567C403.594 173.464 404.048 173.384 404.504 173.324C405.1 173.247 405.584 173.19 405.955 173.151C406.33 173.109 406.602 173.038 406.773 172.94C406.947 172.842 407.035 172.672 407.035 172.429V172.378C407.035 171.747 406.862 171.257 406.517 170.908C406.176 170.558 405.658 170.384 404.964 170.384C404.244 170.384 403.679 170.541 403.27 170.857C402.861 171.172 402.573 171.509 402.407 171.866L400.975 171.355C401.231 170.759 401.572 170.294 401.998 169.962C402.428 169.625 402.897 169.391 403.404 169.259C403.915 169.122 404.418 169.054 404.913 169.054C405.228 169.054 405.59 169.092 405.999 169.169C406.413 169.241 406.811 169.393 407.195 169.623C407.582 169.853 407.904 170.2 408.16 170.665C408.415 171.129 408.543 171.751 408.543 172.531V179H407.035V177.67H406.958C406.856 177.884 406.685 178.112 406.447 178.354C406.208 178.597 405.891 178.804 405.494 178.974C405.098 179.145 404.614 179.23 404.043 179.23ZM404.273 177.875C404.87 177.875 405.373 177.758 405.782 177.523C406.195 177.289 406.506 176.987 406.715 176.616C406.928 176.245 407.035 175.855 407.035 175.446V174.065C406.971 174.142 406.83 174.212 406.613 174.276C406.4 174.336 406.153 174.389 405.871 174.436C405.594 174.479 405.324 174.517 405.06 174.551C404.8 174.581 404.589 174.607 404.427 174.628C404.035 174.679 403.668 174.762 403.327 174.877C402.991 174.988 402.718 175.156 402.509 175.382C402.305 175.604 402.202 175.906 402.202 176.29C402.202 176.814 402.396 177.21 402.784 177.479C403.176 177.743 403.673 177.875 404.273 177.875ZM411.297 182.682V169.182H412.754V170.741H412.933C413.044 170.571 413.197 170.354 413.393 170.089C413.594 169.821 413.879 169.582 414.25 169.374C414.625 169.161 415.132 169.054 415.771 169.054C416.598 169.054 417.327 169.261 417.957 169.674C418.588 170.087 419.08 170.673 419.434 171.432C419.787 172.19 419.964 173.085 419.964 174.116C419.964 175.156 419.787 176.058 419.434 176.82C419.08 177.579 418.59 178.167 417.964 178.585C417.337 178.998 416.615 179.205 415.797 179.205C415.166 179.205 414.661 179.1 414.282 178.891C413.903 178.678 413.611 178.437 413.406 178.169C413.202 177.896 413.044 177.67 412.933 177.491H412.805V182.682H411.297ZM412.78 174.091C412.78 174.832 412.888 175.487 413.106 176.053C413.323 176.616 413.64 177.057 414.058 177.376C414.476 177.692 414.987 177.849 415.592 177.849C416.223 177.849 416.749 177.683 417.171 177.351C417.597 177.014 417.917 176.562 418.13 175.996C418.347 175.425 418.456 174.79 418.456 174.091C418.456 173.401 418.349 172.778 418.136 172.224C417.927 171.666 417.61 171.225 417.184 170.901C416.762 170.573 416.231 170.409 415.592 170.409C414.979 170.409 414.463 170.565 414.045 170.876C413.628 171.183 413.312 171.613 413.099 172.167C412.886 172.717 412.78 173.358 412.78 174.091ZM425.155 179.23C424.532 179.23 423.968 179.113 423.461 178.879C422.954 178.64 422.551 178.297 422.253 177.849C421.954 177.398 421.805 176.852 421.805 176.213C421.805 175.651 421.916 175.195 422.138 174.845C422.359 174.491 422.655 174.214 423.026 174.014C423.397 173.814 423.806 173.665 424.253 173.567C424.705 173.464 425.159 173.384 425.615 173.324C426.211 173.247 426.695 173.19 427.066 173.151C427.441 173.109 427.714 173.038 427.884 172.94C428.059 172.842 428.146 172.672 428.146 172.429V172.378C428.146 171.747 427.974 171.257 427.628 170.908C427.287 170.558 426.77 170.384 426.075 170.384C425.355 170.384 424.79 170.541 424.381 170.857C423.972 171.172 423.684 171.509 423.518 171.866L422.086 171.355C422.342 170.759 422.683 170.294 423.109 169.962C423.54 169.625 424.008 169.391 424.515 169.259C425.027 169.122 425.53 169.054 426.024 169.054C426.339 169.054 426.702 169.092 427.111 169.169C427.524 169.241 427.922 169.393 428.306 169.623C428.694 169.853 429.015 170.2 429.271 170.665C429.527 171.129 429.655 171.751 429.655 172.531V179H428.146V177.67H428.069C427.967 177.884 427.797 178.112 427.558 178.354C427.319 178.597 427.002 178.804 426.606 178.974C426.209 179.145 425.726 179.23 425.155 179.23ZM425.385 177.875C425.981 177.875 426.484 177.758 426.893 177.523C427.307 177.289 427.618 176.987 427.827 176.616C428.04 176.245 428.146 175.855 428.146 175.446V174.065C428.082 174.142 427.942 174.212 427.724 174.276C427.511 174.336 427.264 174.389 426.983 174.436C426.706 174.479 426.435 174.517 426.171 174.551C425.911 174.581 425.7 174.607 425.538 174.628C425.146 174.679 424.78 174.762 424.439 174.877C424.102 174.988 423.829 175.156 423.621 175.382C423.416 175.604 423.314 175.906 423.314 176.29C423.314 176.814 423.508 177.21 423.895 177.479C424.287 177.743 424.784 177.875 425.385 177.875ZM433.917 173.094V179H432.408V169.182H433.865V170.716H433.993C434.223 170.217 434.573 169.817 435.042 169.514C435.51 169.207 436.115 169.054 436.857 169.054C437.522 169.054 438.103 169.19 438.602 169.463C439.1 169.732 439.488 170.141 439.765 170.69C440.042 171.236 440.181 171.926 440.181 172.761V179H438.672V172.864C438.672 172.092 438.472 171.491 438.071 171.061C437.671 170.626 437.121 170.409 436.422 170.409C435.941 170.409 435.51 170.513 435.131 170.722C434.756 170.931 434.46 171.236 434.243 171.636C434.025 172.037 433.917 172.523 433.917 173.094ZM447.054 179.205C446.108 179.205 445.292 178.996 444.606 178.578C443.924 178.156 443.398 177.568 443.027 176.814C442.66 176.055 442.477 175.173 442.477 174.168C442.477 173.162 442.66 172.276 443.027 171.509C443.398 170.737 443.913 170.136 444.574 169.706C445.238 169.271 446.014 169.054 446.9 169.054C447.412 169.054 447.917 169.139 448.415 169.31C448.914 169.48 449.368 169.757 449.777 170.141C450.186 170.52 450.512 171.023 450.755 171.649C450.998 172.276 451.119 173.047 451.119 173.963V174.602H443.551V173.298H449.585C449.585 172.744 449.474 172.25 449.253 171.815C449.035 171.381 448.724 171.038 448.319 170.786C447.919 170.535 447.446 170.409 446.9 170.409C446.3 170.409 445.78 170.558 445.341 170.857C444.906 171.151 444.572 171.534 444.337 172.007C444.103 172.48 443.986 172.987 443.986 173.528V174.398C443.986 175.139 444.113 175.768 444.369 176.283C444.629 176.795 444.989 177.185 445.449 177.453C445.91 177.717 446.444 177.849 447.054 177.849C447.45 177.849 447.808 177.794 448.128 177.683C448.452 177.568 448.731 177.398 448.965 177.172C449.199 176.942 449.381 176.656 449.508 176.315L450.966 176.724C450.812 177.219 450.555 177.653 450.192 178.028C449.83 178.399 449.383 178.689 448.85 178.898C448.317 179.102 447.719 179.205 447.054 179.205ZM460.368 171.381L459.013 171.764C458.928 171.538 458.802 171.319 458.636 171.106C458.474 170.888 458.253 170.71 457.971 170.569C457.69 170.428 457.33 170.358 456.891 170.358C456.29 170.358 455.79 170.496 455.389 170.773C454.993 171.046 454.795 171.393 454.795 171.815C454.795 172.19 454.931 172.487 455.204 172.704C455.476 172.921 455.903 173.102 456.482 173.247L457.939 173.605C458.817 173.818 459.471 174.144 459.902 174.583C460.332 175.018 460.547 175.578 460.547 176.264C460.547 176.827 460.385 177.33 460.062 177.773C459.742 178.216 459.295 178.565 458.719 178.821C458.144 179.077 457.475 179.205 456.712 179.205C455.711 179.205 454.882 178.987 454.226 178.553C453.569 178.118 453.154 177.483 452.979 176.648L454.411 176.29C454.547 176.818 454.805 177.214 455.184 177.479C455.568 177.743 456.069 177.875 456.687 177.875C457.39 177.875 457.948 177.726 458.361 177.428C458.779 177.125 458.988 176.763 458.988 176.341C458.988 176 458.868 175.714 458.63 175.484C458.391 175.25 458.025 175.075 457.53 174.96L455.894 174.577C454.995 174.364 454.334 174.033 453.912 173.586C453.495 173.134 453.286 172.57 453.286 171.892C453.286 171.338 453.442 170.848 453.753 170.422C454.068 169.996 454.496 169.661 455.037 169.418C455.583 169.175 456.201 169.054 456.891 169.054C457.863 169.054 458.626 169.267 459.18 169.693C459.738 170.119 460.134 170.682 460.368 171.381ZM466.935 179.205C465.989 179.205 465.173 178.996 464.487 178.578C463.805 178.156 463.278 177.568 462.908 176.814C462.541 176.055 462.358 175.173 462.358 174.168C462.358 173.162 462.541 172.276 462.908 171.509C463.278 170.737 463.794 170.136 464.455 169.706C465.119 169.271 465.895 169.054 466.781 169.054C467.293 169.054 467.798 169.139 468.296 169.31C468.795 169.48 469.249 169.757 469.658 170.141C470.067 170.52 470.393 171.023 470.636 171.649C470.879 172.276 471 173.047 471 173.963V174.602H463.432V173.298H469.466C469.466 172.744 469.355 172.25 469.134 171.815C468.916 171.381 468.605 171.038 468.2 170.786C467.8 170.535 467.327 170.409 466.781 170.409C466.18 170.409 465.661 170.558 465.222 170.857C464.787 171.151 464.452 171.534 464.218 172.007C463.984 172.48 463.866 172.987 463.866 173.528V174.398C463.866 175.139 463.994 175.768 464.25 176.283C464.51 176.795 464.87 177.185 465.33 177.453C465.79 177.717 466.325 177.849 466.935 177.849C467.331 177.849 467.689 177.794 468.009 177.683C468.332 177.568 468.612 177.398 468.846 177.172C469.08 176.942 469.261 176.656 469.389 176.315L470.847 176.724C470.693 177.219 470.435 177.653 470.073 178.028C469.711 178.399 469.263 178.689 468.731 178.898C468.198 179.102 467.599 179.205 466.935 179.205Z" fill="#D4D4D4"/>
<path d="M507.744 169.182C507.668 168.534 507.357 168.031 506.811 167.673C506.266 167.315 505.597 167.136 504.804 167.136C504.224 167.136 503.717 167.23 503.283 167.418C502.852 167.605 502.516 167.863 502.273 168.191C502.034 168.519 501.915 168.892 501.915 169.31C501.915 169.659 501.998 169.96 502.164 170.211C502.335 170.458 502.552 170.665 502.816 170.831C503.08 170.993 503.357 171.127 503.647 171.234C503.937 171.336 504.203 171.419 504.446 171.483L505.776 171.841C506.116 171.93 506.496 172.054 506.913 172.212C507.335 172.369 507.738 172.585 508.121 172.857C508.509 173.126 508.829 173.471 509.08 173.893C509.332 174.315 509.457 174.832 509.457 175.446C509.457 176.153 509.272 176.793 508.901 177.364C508.535 177.935 507.998 178.388 507.29 178.725C506.587 179.062 505.733 179.23 504.727 179.23C503.79 179.23 502.978 179.079 502.292 178.776C501.61 178.474 501.073 178.052 500.681 177.511C500.293 176.969 500.074 176.341 500.023 175.625H501.659C501.702 176.119 501.868 176.528 502.158 176.852C502.452 177.172 502.822 177.411 503.27 177.568C503.722 177.722 504.207 177.798 504.727 177.798C505.332 177.798 505.876 177.7 506.357 177.504C506.839 177.304 507.22 177.027 507.501 176.673C507.783 176.315 507.923 175.898 507.923 175.42C507.923 174.986 507.802 174.632 507.559 174.359C507.316 174.087 506.996 173.865 506.6 173.695C506.204 173.524 505.776 173.375 505.315 173.247L503.705 172.787C502.682 172.493 501.872 172.073 501.276 171.528C500.679 170.982 500.381 170.268 500.381 169.386C500.381 168.653 500.579 168.014 500.975 167.469C501.376 166.919 501.913 166.493 502.586 166.19C503.263 165.884 504.02 165.73 504.855 165.73C505.699 165.73 506.449 165.881 507.105 166.184C507.761 166.482 508.281 166.891 508.665 167.411C509.053 167.931 509.257 168.521 509.278 169.182H507.744ZM514.084 179L511.092 169.182H512.677L514.8 176.699H514.902L516.998 169.182H518.609L520.68 176.673H520.782L522.905 169.182H524.49L521.498 179H520.015L517.868 171.457H517.714L515.567 179H514.084ZM530.267 179.205C529.321 179.205 528.505 178.996 527.819 178.578C527.137 178.156 526.61 177.568 526.24 176.814C525.873 176.055 525.69 175.173 525.69 174.168C525.69 173.162 525.873 172.276 526.24 171.509C526.61 170.737 527.126 170.136 527.787 169.706C528.451 169.271 529.227 169.054 530.113 169.054C530.625 169.054 531.13 169.139 531.628 169.31C532.127 169.48 532.581 169.757 532.99 170.141C533.399 170.52 533.725 171.023 533.968 171.649C534.211 172.276 534.332 173.047 534.332 173.963V174.602H526.764V173.298H532.798C532.798 172.744 532.687 172.25 532.466 171.815C532.248 171.381 531.937 171.038 531.532 170.786C531.132 170.535 530.659 170.409 530.113 170.409C529.512 170.409 528.993 170.558 528.554 170.857C528.119 171.151 527.784 171.534 527.55 172.007C527.316 172.48 527.199 172.987 527.199 173.528V174.398C527.199 175.139 527.326 175.768 527.582 176.283C527.842 176.795 528.202 177.185 528.662 177.453C529.123 177.717 529.657 177.849 530.267 177.849C530.663 177.849 531.021 177.794 531.341 177.683C531.664 177.568 531.944 177.398 532.178 177.172C532.412 176.942 532.593 176.656 532.721 176.315L534.179 176.724C534.025 177.219 533.767 177.653 533.405 178.028C533.043 178.399 532.596 178.689 532.063 178.898C531.53 179.102 530.931 179.205 530.267 179.205ZM540.334 179.205C539.516 179.205 538.794 178.998 538.167 178.585C537.541 178.167 537.051 177.579 536.697 176.82C536.343 176.058 536.167 175.156 536.167 174.116C536.167 173.085 536.343 172.19 536.697 171.432C537.051 170.673 537.543 170.087 538.174 169.674C538.804 169.261 539.533 169.054 540.36 169.054C540.999 169.054 541.504 169.161 541.875 169.374C542.25 169.582 542.535 169.821 542.731 170.089C542.931 170.354 543.087 170.571 543.198 170.741H543.326V165.909H544.834V179H543.377V177.491H543.198C543.087 177.67 542.929 177.896 542.725 178.169C542.52 178.437 542.228 178.678 541.849 178.891C541.47 179.1 540.965 179.205 540.334 179.205ZM540.539 177.849C541.144 177.849 541.655 177.692 542.073 177.376C542.49 177.057 542.808 176.616 543.025 176.053C543.243 175.487 543.351 174.832 543.351 174.091C543.351 173.358 543.245 172.717 543.032 172.167C542.819 171.613 542.503 171.183 542.086 170.876C541.668 170.565 541.152 170.409 540.539 170.409C539.9 170.409 539.367 170.573 538.941 170.901C538.519 171.225 538.201 171.666 537.988 172.224C537.779 172.778 537.675 173.401 537.675 174.091C537.675 174.79 537.782 175.425 537.995 175.996C538.212 176.562 538.532 177.014 538.953 177.351C539.38 177.683 539.908 177.849 540.539 177.849ZM547.806 179V169.182H549.315V179H547.806ZM548.574 167.545C548.279 167.545 548.026 167.445 547.813 167.245C547.604 167.045 547.5 166.804 547.5 166.523C547.5 166.241 547.604 166.001 547.813 165.8C548.026 165.6 548.279 165.5 548.574 165.5C548.868 165.5 549.119 165.6 549.328 165.8C549.541 166.001 549.647 166.241 549.647 166.523C549.647 166.804 549.541 167.045 549.328 167.245C549.119 167.445 548.868 167.545 548.574 167.545ZM559.032 171.381L557.677 171.764C557.592 171.538 557.466 171.319 557.3 171.106C557.138 170.888 556.917 170.71 556.635 170.569C556.354 170.428 555.994 170.358 555.555 170.358C554.954 170.358 554.454 170.496 554.053 170.773C553.657 171.046 553.459 171.393 553.459 171.815C553.459 172.19 553.595 172.487 553.868 172.704C554.14 172.921 554.567 173.102 555.146 173.247L556.604 173.605C557.481 173.818 558.135 174.144 558.566 174.583C558.996 175.018 559.211 175.578 559.211 176.264C559.211 176.827 559.05 177.33 558.726 177.773C558.406 178.216 557.959 178.565 557.383 178.821C556.808 179.077 556.139 179.205 555.376 179.205C554.375 179.205 553.546 178.987 552.89 178.553C552.233 178.118 551.818 177.483 551.643 176.648L553.075 176.29C553.211 176.818 553.469 177.214 553.849 177.479C554.232 177.743 554.733 177.875 555.351 177.875C556.054 177.875 556.612 177.726 557.025 177.428C557.443 177.125 557.652 176.763 557.652 176.341C557.652 176 557.532 175.714 557.294 175.484C557.055 175.25 556.689 175.075 556.194 174.96L554.558 174.577C553.659 174.364 552.998 174.033 552.577 173.586C552.159 173.134 551.95 172.57 551.95 171.892C551.95 171.338 552.106 170.848 552.417 170.422C552.732 169.996 553.16 169.661 553.702 169.418C554.247 169.175 554.865 169.054 555.555 169.054C556.527 169.054 557.29 169.267 557.844 169.693C558.402 170.119 558.798 170.682 559.032 171.381ZM562.991 173.094V179H561.482V165.909H562.991V170.716H563.119C563.349 170.209 563.694 169.806 564.154 169.508C564.619 169.205 565.237 169.054 566.008 169.054C566.677 169.054 567.263 169.188 567.766 169.457C568.268 169.721 568.658 170.128 568.935 170.678C569.217 171.223 569.357 171.918 569.357 172.761V179H567.849V172.864C567.849 172.084 567.646 171.481 567.241 171.055C566.841 170.624 566.285 170.409 565.573 170.409C565.079 170.409 564.636 170.513 564.244 170.722C563.856 170.931 563.549 171.236 563.323 171.636C563.102 172.037 562.991 172.523 562.991 173.094Z" fill="#D4D4D4"/>
<path d="M242.32 82.65H192.68C188.227 82.65 184.65 86.0079 184.65 90.169V127.91C184.65 132.071 188.227 135.429 192.68 135.429H197.936V146.598C197.936 147.255 198.374 147.912 199.031 148.204C199.323 148.35 199.542 148.35 199.834 148.35C200.272 148.35 200.71 148.204 201.075 147.985L217.646 135.429H242.32C246.773 135.429 250.35 132.071 250.35 127.91V90.1688C250.35 86.0077 246.773 82.6498 242.32 82.6498L242.32 82.65ZM246.627 127.837C246.627 130.027 244.729 131.779 242.393 131.779H216.916C216.478 131.779 216.04 131.925 215.675 132.144L201.732 142.729V133.531C201.732 132.582 200.856 131.779 199.834 131.779H192.68C190.344 131.779 188.446 130.027 188.446 127.837V90.3149C188.446 88.1249 190.344 86.3729 192.68 86.3729H242.466C244.802 86.3729 246.7 88.1249 246.7 90.3149V127.837L246.627 127.837Z" fill="#D4D4D4"/>
<path d="M215.967 98.199H210.2L201.951 106.959V98.199H197.571V119.515H201.951V112.361L204.068 110.171L210.638 119.515H216.405L207.207 106.959L215.967 98.199Z" fill="#D4D4D4"/>
<path d="M228.304 97.542C225.238 97.542 222.902 98.3449 221.296 100.024C219.106 101.995 218.084 104.915 218.084 108.784C218.084 112.58 219.179 115.573 221.296 117.544C222.902 119.223 225.238 120.026 228.304 120.026C231.37 120.026 233.706 119.223 235.312 117.544C237.429 115.5 238.524 112.58 238.524 108.784C238.524 104.915 237.429 101.922 235.312 100.024C233.706 98.3449 231.37 97.542 228.304 97.542ZM232.465 114.405C231.443 115.719 230.056 116.376 228.231 116.376C226.406 116.376 225.092 115.719 223.997 114.405C222.975 113.091 222.391 111.266 222.391 108.857C222.391 106.448 222.902 104.623 223.997 103.309C225.019 101.995 226.479 101.338 228.231 101.338C229.983 101.338 231.37 101.995 232.465 103.309C233.487 104.623 233.998 106.448 233.998 108.857C234.071 111.193 233.56 113.091 232.465 114.405Z" fill="#D4D4D4"/>
<path d="M454.32 82.6491H404.681C400.227 82.6491 396.649 86.0086 396.649 90.1704V127.911C396.649 132.073 400.227 135.43 404.678 135.43H409.934V146.601C409.934 147.258 410.372 147.915 411.03 148.207C411.322 148.354 411.54 148.354 411.832 148.354C412.271 148.354 412.707 148.207 413.073 147.988L429.643 135.432L454.32 135.43C458.774 135.43 462.349 132.073 462.349 127.911L462.351 90.1702C462.351 86.0087 458.773 82.6491 454.32 82.6491ZM458.626 127.837C458.626 130.027 456.728 131.778 454.391 131.778H428.917C428.478 131.778 428.041 131.925 427.676 132.144L413.732 142.728V133.532C413.732 132.583 412.857 131.781 411.834 131.781H404.681C402.344 131.781 400.446 130.03 400.446 127.84V90.3149C400.446 88.125 402.344 86.3739 404.681 86.3739H454.467C456.804 86.3739 458.702 88.1249 458.702 90.3149L458.7 127.837L458.626 127.837Z" fill="#D4D4D4"/>
<path d="M420.593 113.092C420.593 114.114 420.52 114.843 420.302 115.281C420.01 116.012 419.353 116.378 418.33 116.378C417.307 116.378 416.65 116.012 416.358 115.355C416.067 114.698 415.92 113.53 415.848 111.851V111.34H411.613V111.851C411.613 114.332 412.052 116.304 413.001 117.763C413.95 119.222 415.775 119.953 418.477 119.953C421.177 119.953 423.075 119.077 424.098 117.253C424.681 116.157 425.047 114.771 425.047 112.947V98.1989H420.594L420.593 113.092Z" fill="#D4D4D4"/>
<path d="M435.852 98.199L428.26 119.514H432.931L434.39 115.135H442.274L443.662 119.514H448.481L440.889 98.199H435.852ZM435.56 111.486L438.333 103.089L441.033 111.483L435.56 111.486Z" fill="#D4D4D4"/>
<g clip-path="url(#clip0_2058_1286)">
<path d="M-201.704 -535.125C-204.356 -559.936 -215.53 -579.254 -235.227 -593.08C-254.735 -606.905 -280.113 -613.818 -311.363 -613.818C-333.333 -613.818 -352.178 -610.504 -367.898 -603.875C-383.617 -597.246 -395.644 -588.25 -403.977 -576.886C-412.31 -565.523 -416.572 -552.549 -416.761 -537.966C-416.761 -525.845 -414.015 -515.333 -408.523 -506.432C-402.841 -497.53 -395.17 -489.955 -385.511 -483.705C-375.852 -477.644 -365.151 -472.53 -353.409 -468.364C-341.667 -464.197 -329.829 -460.693 -317.898 -457.852L-263.352 -444.216C-241.382 -439.102 -220.265 -432.189 -200 -423.477C-179.545 -414.765 -161.269 -403.78 -145.17 -390.523C-128.882 -377.265 -116.004 -361.261 -106.534 -342.511C-97.0642 -323.761 -92.3294 -301.792 -92.3294 -276.602C-92.3294 -242.511 -101.042 -212.492 -118.466 -186.545C-135.89 -160.788 -161.079 -140.617 -194.034 -126.034C-226.799 -111.64 -266.477 -104.443 -313.068 -104.443C-358.333 -104.443 -397.632 -111.451 -430.966 -125.466C-464.11 -139.481 -490.057 -159.936 -508.807 -186.83C-527.367 -213.723 -537.405 -246.489 -538.92 -285.125H-435.227C-433.712 -264.86 -427.462 -248.004 -416.477 -234.557C-405.492 -221.11 -391.193 -211.072 -373.579 -204.443C-355.776 -197.814 -335.89 -194.5 -313.92 -194.5C-291.004 -194.5 -270.928 -197.909 -253.693 -204.727C-236.269 -211.735 -222.632 -221.394 -212.784 -233.705C-202.935 -246.205 -197.916 -260.788 -197.727 -277.455C-197.916 -292.606 -202.367 -305.106 -211.079 -314.955C-219.792 -324.992 -232.007 -333.326 -247.727 -339.955C-263.257 -346.773 -281.439 -352.833 -302.273 -358.136L-368.466 -375.182C-416.382 -387.492 -454.261 -406.148 -482.102 -431.148C-509.754 -456.337 -523.579 -489.765 -523.579 -531.432C-523.579 -565.712 -514.299 -595.731 -495.738 -621.489C-476.988 -647.246 -451.515 -667.227 -419.318 -681.432C-387.121 -695.826 -350.663 -703.023 -309.943 -703.023C-268.655 -703.023 -232.481 -695.826 -201.42 -681.432C-170.17 -667.227 -145.644 -647.436 -127.841 -622.057C-110.038 -596.867 -100.852 -567.89 -100.284 -535.125H-201.704ZM187.429 -104.727C143.869 -104.727 106.463 -114.292 75.2132 -133.42C44.1526 -152.549 20.1943 -178.97 3.33823 -212.682C-13.3284 -246.583 -21.6618 -285.598 -21.6618 -329.727C-21.6618 -374.045 -13.139 -413.155 3.90641 -447.057C20.9519 -481.148 45.0049 -507.663 76.0655 -526.602C107.316 -545.731 144.247 -555.295 186.861 -555.295C222.278 -555.295 253.622 -548.761 280.895 -535.693C308.357 -522.814 330.232 -504.538 346.52 -480.864C362.808 -457.379 372.088 -429.917 374.361 -398.477H276.066C272.088 -419.5 262.619 -437.019 247.656 -451.034C232.884 -465.239 213.092 -472.341 188.281 -472.341C167.259 -472.341 148.793 -466.659 132.884 -455.295C116.975 -444.121 104.569 -428.023 95.6678 -407C86.9557 -385.977 82.5996 -360.788 82.5996 -331.432C82.5996 -301.697 86.9557 -276.129 95.6678 -254.727C104.38 -233.515 116.596 -217.133 132.316 -205.58C148.225 -194.216 166.88 -188.534 188.281 -188.534C203.433 -188.534 216.975 -191.375 228.906 -197.057C241.028 -202.928 251.16 -211.356 259.304 -222.341C267.448 -233.326 273.035 -246.678 276.066 -262.398H374.361C371.899 -231.527 362.808 -204.159 347.088 -180.295C331.369 -156.621 309.967 -138.061 282.884 -124.614C255.8 -111.356 223.982 -104.727 187.429 -104.727ZM561.648 -368.932V-113.25H458.807V-695.068H559.375V-475.466H564.489C574.716 -500.087 590.53 -519.5 611.932 -533.705C633.523 -548.098 660.985 -555.295 694.318 -555.295C724.621 -555.295 751.042 -548.951 773.58 -536.261C796.118 -523.572 813.542 -505.011 825.852 -480.58C838.352 -456.148 844.602 -426.318 844.602 -391.091V-113.25H741.762V-375.182C741.762 -404.538 734.186 -427.36 719.034 -443.648C704.072 -460.125 683.049 -468.364 655.966 -468.364C637.784 -468.364 621.496 -464.386 607.102 -456.432C592.898 -448.667 581.724 -437.398 573.58 -422.625C565.625 -407.852 561.648 -389.955 561.648 -368.932ZM-332.102 863.273C-374.716 863.273 -411.648 853.898 -442.898 835.148C-474.148 816.398 -498.39 790.167 -515.625 756.455C-532.67 722.742 -541.193 683.348 -541.193 638.273C-541.193 593.197 -532.67 553.708 -515.625 519.807C-498.39 485.905 -474.148 459.58 -442.898 440.83C-411.648 422.08 -374.716 412.705 -332.102 412.705C-289.488 412.705 -252.557 422.08 -221.307 440.83C-190.057 459.58 -165.909 485.905 -148.863 519.807C-131.629 553.708 -123.011 593.197 -123.011 638.273C-123.011 683.348 -131.629 722.742 -148.863 756.455C-165.909 790.167 -190.057 816.398 -221.307 835.148C-252.557 853.898 -289.488 863.273 -332.102 863.273ZM-331.534 780.886C-308.428 780.886 -289.11 774.542 -273.579 761.852C-258.049 748.973 -246.496 731.739 -238.92 710.148C-231.155 688.557 -227.273 664.504 -227.273 637.989C-227.273 611.284 -231.155 587.136 -238.92 565.545C-246.496 543.765 -258.049 526.436 -273.579 513.557C-289.11 500.678 -308.428 494.239 -331.534 494.239C-355.208 494.239 -374.905 500.678 -390.625 513.557C-406.155 526.436 -417.803 543.765 -425.568 565.545C-433.144 587.136 -436.932 611.284 -436.932 637.989C-436.932 664.504 -433.144 688.557 -425.568 710.148C-417.803 731.739 -406.155 748.973 -390.625 761.852C-374.905 774.542 -355.208 780.886 -331.534 780.886ZM154.617 863.273C112.003 863.273 75.0712 853.898 43.8212 835.148C12.5712 816.398 -11.6712 790.167 -28.9061 756.455C-45.9515 722.742 -54.4743 683.348 -54.4743 638.273C-54.4743 593.197 -45.9515 553.708 -28.9061 519.807C-11.6712 485.905 12.5712 459.58 43.8212 440.83C75.0712 422.08 112.003 412.705 154.617 412.705C197.23 412.705 234.162 422.08 265.412 440.83C296.662 459.58 320.81 485.905 337.855 519.807C355.09 553.708 363.708 593.197 363.708 638.273C363.708 683.348 355.09 722.742 337.855 756.455C320.81 790.167 296.662 816.398 265.412 835.148C234.162 853.898 197.23 863.273 154.617 863.273ZM155.185 780.886C178.291 780.886 197.609 774.542 213.139 761.852C228.67 748.973 240.223 731.739 247.798 710.148C255.564 688.557 259.446 664.504 259.446 637.989C259.446 611.284 255.564 587.136 247.798 565.545C240.223 543.765 228.67 526.436 213.139 513.557C197.609 500.678 178.291 494.239 155.185 494.239C131.511 494.239 111.814 500.678 96.0939 513.557C80.5636 526.436 68.9159 543.765 61.1507 565.545C53.575 587.136 49.7871 611.284 49.7871 637.989C49.7871 664.504 53.575 688.557 61.1507 710.148C68.9159 731.739 80.5636 748.973 96.0939 761.852C111.814 774.542 131.511 780.886 155.185 780.886ZM553.835 272.932V854.75H450.994V272.932H553.835Z" fill="#D4D4D4"/>
<path d="M350.32 82.65H300.68C296.227 82.65 292.65 86.0079 292.65 90.169V127.91C292.65 132.071 296.227 135.429 300.68 135.429H305.936V146.598C305.936 147.255 306.374 147.912 307.031 148.204C307.323 148.35 307.542 148.35 307.834 148.35C308.272 148.35 308.71 148.204 309.075 147.985L325.646 135.429H350.32C354.773 135.429 358.35 132.071 358.35 127.91V90.1688C358.35 86.0077 354.773 82.6498 350.32 82.6498L350.32 82.65ZM354.627 127.837C354.627 130.027 352.729 131.779 350.393 131.779H324.916C324.478 131.779 324.04 131.925 323.675 132.144L309.732 142.729V133.531C309.732 132.582 308.856 131.779 307.834 131.779H300.68C298.344 131.779 296.446 130.027 296.446 127.837V90.3149C296.446 88.1249 298.344 86.3729 300.68 86.3729H350.466C352.802 86.3729 354.7 88.1249 354.7 90.3149V127.837L354.627 127.837Z" fill="#D4D4D4"/>
<path d="M323.237 101.338C322.288 100.024 321.12 99.148 319.587 98.6371C318.711 98.3451 317.616 98.1992 316.302 98.1992H307.104V119.515H316.302C319.514 119.515 321.923 118.201 323.456 115.573C324.624 113.602 325.135 111.193 325.135 108.346C325.135 107.251 324.989 106.083 324.697 104.842C324.478 103.601 323.967 102.433 323.237 101.338L323.237 101.338ZM319.952 112.726C319.149 114.77 317.689 115.865 315.572 115.865H311.484V101.922H315.572C317.616 101.922 318.93 102.506 319.66 103.674C320.317 104.842 320.682 106.521 320.682 108.638C320.682 110.244 320.39 111.558 319.952 112.726Z" fill="#D4D4D4"/>
<path d="M333.019 110.171H343.385V106.521H333.019V101.995H344.261V98.1992H328.639V119.515H344.772V115.646H333.019V110.171Z" fill="#D4D4D4"/>
</g>
<path d="M558.12 83.4H511.88C507.732 83.4 504.4 86.5279 504.4 90.404V125.56C504.4 129.436 507.732 132.564 511.88 132.564H516.776V142.968C516.776 143.58 517.184 144.192 517.796 144.464C518.068 144.6 518.272 144.6 518.544 144.6C518.952 144.6 519.36 144.464 519.7 144.26L535.136 132.564H558.12C562.268 132.564 565.6 129.436 565.6 125.56V90.4038C565.6 86.5277 562.268 83.3998 558.12 83.3998L558.12 83.4ZM562.132 125.492C562.132 127.532 560.364 129.164 558.188 129.164H534.456C534.048 129.164 533.64 129.3 533.3 129.504L520.312 139.364V130.796C520.312 129.912 519.496 129.164 518.544 129.164H511.88C509.704 129.164 507.936 127.532 507.936 125.492V90.5399C507.936 88.4999 509.704 86.8679 511.88 86.8679H558.256C560.432 86.8679 562.2 88.4999 562.2 90.5399V125.492L562.132 125.492Z" fill="#D4D4D4"/>
<path d="M532.348 107.88C531.6 107.268 530.444 106.792 528.948 106.452L525.48 105.636C524.12 105.296 523.236 105.024 522.828 104.82C522.216 104.48 521.876 103.936 521.876 103.256C521.876 102.508 522.216 101.896 522.828 101.42C523.508 101.012 524.324 100.74 525.48 100.74C526.432 100.74 527.316 100.876 527.928 101.216C528.948 101.692 529.424 102.576 529.56 103.732H533.572C533.504 101.624 532.688 99.9919 531.192 98.9039C529.696 97.816 527.86 97.2719 525.752 97.2719C523.236 97.2719 521.264 97.8839 519.972 99.0398C518.68 100.264 518 101.692 518 103.528C518 105.5 518.68 106.928 520.04 107.812C520.856 108.356 522.284 108.9 524.392 109.308L526.568 109.784C527.792 110.056 528.744 110.396 529.356 110.736C529.968 111.076 530.24 111.62 530.24 112.232C530.24 113.388 529.628 114.136 528.472 114.544C527.86 114.748 527.044 114.884 526.024 114.884C524.324 114.884 523.168 114.476 522.488 113.66C522.08 113.184 521.876 112.504 521.74 111.62H517.796C517.796 113.66 518.544 115.292 520.04 116.516C521.536 117.74 523.576 118.284 526.228 118.284C528.812 118.284 530.784 117.672 532.144 116.516C533.504 115.36 534.252 113.796 534.252 112.028C534.116 110.192 533.572 108.832 532.348 107.88L532.348 107.88Z" fill="#D4D4D4"/>
<path d="M544.316 112.98L540.032 97.884H535.544L542.276 117.74H546.22L552.952 97.884H548.668L544.316 112.98Z" fill="#D4D4D4"/>
<defs>
<filter id="filter0_iiii_2058_1286" x="0" y="0" width="640" height="225" filterUnits="userSpaceOnUse" color-interpolation-filters="sRGB">
<feFlood flood-opacity="0" result="BackgroundImageFix"/>
<feBlend mode="normal" in="SourceGraphic" in2="BackgroundImageFix" result="shape"/>
<feColorMatrix in="SourceAlpha" type="matrix" values="0 0 0 0 0 0 0 0 0 0 0 0 0 0 0 0 0 0 127 0" result="hardAlpha"/>
<feOffset/>
<feGaussianBlur stdDeviation="6"/>
<feComposite in2="hardAlpha" operator="arithmetic" k2="-1" k3="1"/>
<feColorMatrix type="matrix" values="0 0 0 0 0 0 0 0 0 0 0 0 0 0 0 0 0 0 0.25 0"/>
<feBlend mode="normal" in2="shape" result="effect1_innerShadow_2058_1286"/>
<feColorMatrix in="SourceAlpha" type="matrix" values="0 0 0 0 0 0 0 0 0 0 0 0 0 0 0 0 0 0 127 0" result="hardAlpha"/>
<feOffset/>
<feGaussianBlur stdDeviation="6"/>
<feComposite in2="hardAlpha" operator="arithmetic" k2="-1" k3="1"/>
<feColorMatrix type="matrix" values="0 0 0 0 0 0 0 0 0 0 0 0 0 0 0 0 0 0 0.25 0"/>
<feBlend mode="normal" in2="effect1_innerShadow_2058_1286" result="effect2_innerShadow_2058_1286"/>
<feColorMatrix in="SourceAlpha" type="matrix" values="0 0 0 0 0 0 0 0 0 0 0 0 0 0 0 0 0 0 127 0" result="hardAlpha"/>
<feOffset/>
<feGaussianBlur stdDeviation="6"/>
<feComposite in2="hardAlpha" operator="arithmetic" k2="-1" k3="1"/>
<feColorMatrix type="matrix" values="0 0 0 0 0 0 0 0 0 0 0 0 0 0 0 0 0 0 0.25 0"/>
<feBlend mode="normal" in2="effect2_innerShadow_2058_1286" result="effect3_innerShadow_2058_1286"/>
<feColorMatrix in="SourceAlpha" type="matrix" values="0 0 0 0 0 0 0 0 0 0 0 0 0 0 0 0 0 0 127 0" result="hardAlpha"/>
<feOffset/>
<feGaussianBlur stdDeviation="6"/>
<feComposite in2="hardAlpha" operator="arithmetic" k2="-1" k3="1"/>
<feColorMatrix type="matrix" values="0 0 0 0 0 0 0 0 0 0 0 0 0 0 0 0 0 0 0.25 0"/>
<feBlend mode="normal" in2="effect3_innerShadow_2058_1286" result="effect4_innerShadow_2058_1286"/>
</filter>
<linearGradient id="paint0_linear_2058_1286" x1="320" y1="0" x2="320" y2="225" gradientUnits="userSpaceOnUse">
<stop stop-color="#022B3E"/>
<stop offset="0.781656" stop-color="#0572A4"/>
</linearGradient>
<clipPath id="clip0_2058_1286">
<rect width="73" height="73" fill="white" transform="translate(289 79)"/>
</clipPath>
</defs>
</svg>
