<svg width="111" height="46" viewBox="0 0 111 46" fill="none" xmlns="http://www.w3.org/2000/svg">
<rect width="111" height="46" rx="23" fill="url(#paint0_linear_288_685)" fill-opacity="0.11"/>
<path d="M28.1138 16.72H30.6138V28.84H37.8738V31H28.1138V16.72ZM44.0181 31.28C43.1915 31.28 42.4515 31.1467 41.7981 30.88C41.1581 30.6 40.6115 30.22 40.1581 29.74C39.7181 29.26 39.3781 28.6867 39.1381 28.02C38.9115 27.3533 38.7981 26.62 38.7981 25.82C38.7981 25.0333 38.9115 24.3067 39.1381 23.64C39.3781 22.9733 39.7181 22.4 40.1581 21.92C40.6115 21.44 41.1581 21.0667 41.7981 20.8C42.4515 20.52 43.1915 20.38 44.0181 20.38C44.8448 20.38 45.5781 20.52 46.2181 20.8C46.8715 21.0667 47.4181 21.44 47.8581 21.92C48.3115 22.4 48.6515 22.9733 48.8781 23.64C49.1181 24.3067 49.2381 25.0333 49.2381 25.82C49.2381 26.62 49.1181 27.3533 48.8781 28.02C48.6515 28.6867 48.3115 29.26 47.8581 29.74C47.4181 30.22 46.8715 30.6 46.2181 30.88C45.5781 31.1467 44.8448 31.28 44.0181 31.28ZM44.0181 29.48C44.5248 29.48 44.9648 29.3733 45.3381 29.16C45.7115 28.9467 46.0181 28.6667 46.2581 28.32C46.4981 27.9733 46.6715 27.5867 46.7781 27.16C46.8981 26.72 46.9581 26.2733 46.9581 25.82C46.9581 25.38 46.8981 24.94 46.7781 24.5C46.6715 24.06 46.4981 23.6733 46.2581 23.34C46.0181 22.9933 45.7115 22.7133 45.3381 22.5C44.9648 22.2867 44.5248 22.18 44.0181 22.18C43.5115 22.18 43.0715 22.2867 42.6981 22.5C42.3248 22.7133 42.0181 22.9933 41.7781 23.34C41.5381 23.6733 41.3581 24.06 41.2381 24.5C41.1315 24.94 41.0781 25.38 41.0781 25.82C41.0781 26.2733 41.1315 26.72 41.2381 27.16C41.3581 27.5867 41.5381 27.9733 41.7781 28.32C42.0181 28.6667 42.3248 28.9467 42.6981 29.16C43.0715 29.3733 43.5115 29.48 44.0181 29.48ZM60.6936 30.46C60.6936 32.02 60.2536 33.18 59.3736 33.94C58.5069 34.7133 57.2536 35.1 55.6136 35.1C55.0936 35.1 54.5669 35.0467 54.0336 34.94C53.5136 34.8333 53.0336 34.6533 52.5936 34.4C52.1669 34.1467 51.8069 33.8133 51.5136 33.4C51.2203 32.9867 51.0469 32.48 50.9936 31.88H53.2736C53.3403 32.2 53.4536 32.46 53.6136 32.66C53.7736 32.86 53.9603 33.0133 54.1736 33.12C54.4003 33.24 54.6469 33.3133 54.9136 33.34C55.1803 33.38 55.4603 33.4 55.7536 33.4C56.6736 33.4 57.3469 33.1733 57.7736 32.72C58.2003 32.2667 58.4136 31.6133 58.4136 30.76V29.18H58.3736C58.0536 29.7533 57.6136 30.2 57.0536 30.52C56.5069 30.84 55.9136 31 55.2736 31C54.4469 31 53.7403 30.86 53.1536 30.58C52.5803 30.2867 52.1003 29.8933 51.7136 29.4C51.3403 28.8933 51.0669 28.3133 50.8936 27.66C50.7203 27.0067 50.6336 26.3067 50.6336 25.56C50.6336 24.8667 50.7403 24.2067 50.9536 23.58C51.1669 22.9533 51.4736 22.4067 51.8736 21.94C52.2736 21.46 52.7603 21.08 53.3336 20.8C53.9203 20.52 54.5803 20.38 55.3136 20.38C55.9669 20.38 56.5669 20.52 57.1136 20.8C57.6603 21.0667 58.0803 21.4933 58.3736 22.08H58.4136V20.66H60.6936V30.46ZM55.6336 29.2C56.1403 29.2 56.5669 29.1 56.9136 28.9C57.2736 28.6867 57.5603 28.4133 57.7736 28.08C58.0003 27.7333 58.1603 27.3467 58.2536 26.92C58.3603 26.48 58.4136 26.04 58.4136 25.6C58.4136 25.16 58.3603 24.7333 58.2536 24.32C58.1469 23.9067 57.9803 23.54 57.7536 23.22C57.5403 22.9 57.2536 22.6467 56.8936 22.46C56.5469 22.2733 56.1269 22.18 55.6336 22.18C55.1269 22.18 54.7003 22.2867 54.3536 22.5C54.0069 22.7133 53.7269 22.9933 53.5136 23.34C53.3003 23.6733 53.1469 24.06 53.0536 24.5C52.9603 24.9267 52.9136 25.3533 52.9136 25.78C52.9136 26.2067 52.9669 26.6267 53.0736 27.04C53.1803 27.44 53.3403 27.8 53.5536 28.12C53.7803 28.44 54.0603 28.7 54.3936 28.9C54.7403 29.1 55.1536 29.2 55.6336 29.2ZM68.8755 16.72H71.3755V31H68.8755V16.72ZM74.1219 20.66H76.2819V22.18L76.3219 22.22C76.6685 21.6467 77.1219 21.2 77.6819 20.88C78.2419 20.5467 78.8619 20.38 79.5419 20.38C80.6752 20.38 81.5685 20.6733 82.2219 21.26C82.8752 21.8467 83.2019 22.7267 83.2019 23.9V31H80.9219V24.5C80.8952 23.6867 80.7219 23.1 80.4019 22.74C80.0819 22.3667 79.5819 22.18 78.9019 22.18C78.5152 22.18 78.1685 22.2533 77.8619 22.4C77.5552 22.5333 77.2952 22.7267 77.0819 22.98C76.8685 23.22 76.7019 23.5067 76.5819 23.84C76.4619 24.1733 76.4019 24.5267 76.4019 24.9V31H74.1219V20.66Z" fill="#EEEEEE"/>
<defs>
<linearGradient id="paint0_linear_288_685" x1="0" y1="0" x2="114.845" y2="13.6511" gradientUnits="userSpaceOnUse">
<stop stop-color="white"/>
<stop offset="1" stop-color="#94F2FF"/>
</linearGradient>
</defs>
</svg>
