<svg width="60" height="59" viewBox="0 0 60 59" fill="none" xmlns="http://www.w3.org/2000/svg">
<g clip-path="url(#clip0_307_267)">
<path d="M7.78833 33.7549L43.846 50.7742L46.1537 41.4136V26.0962L41.8268 9.92799L38.6537 8.22607L20.4806 18.7212L7.78833 31.4857V33.7549Z" fill="#00242F" stroke="black"/>
<path d="M51.4637 9.9441C52.7491 10.4641 53.8324 11.1521 54.7139 12.0082C53.2198 10.4862 51.3105 9.18571 48.986 8.10678L33.5581 1.18782C29.2392 -0.551534 24.7645 -0.380653 20.1342 1.70046C13.621 4.97719 8.01042 8.97402 3.30257 13.691C0.131888 16.867 -0.755748 21.0115 0.63966 26.1245L4.1387 41.0845C4.77557 43.0275 5.37067 44.593 5.924 45.7809C4.84524 43.1167 5.55824 39.4912 8.06298 34.9041C8.64306 34.0058 9.24348 33.1281 9.86424 32.2708C12.3136 28.8819 15.9786 25.1433 20.8591 21.0547C23.4346 18.8964 25.9879 17.0214 28.5188 15.4299C31.2562 13.7073 34.2288 12.1472 37.4366 10.7496C38.3322 10.3587 39.2377 10.0293 40.153 9.76137C40.9198 9.53871 41.6936 9.35882 42.4744 9.22182C44.1197 8.9352 45.7177 8.85631 47.2681 8.98517C48.7945 9.11066 50.1931 9.43032 51.4637 9.9441Z" fill="url(#paint0_linear_307_267)"/>
<path d="M53.2695 50.7703C53.9977 50.461 54.6535 50.1054 55.2368 49.7036C52.3727 50.9067 48.1733 50.1241 42.6385 47.3556L9.86484 32.2703C9.24408 33.1276 8.64366 34.0053 8.06358 34.9036C5.55886 39.4907 4.84586 43.1162 5.92461 45.7804C6.09366 46.1434 6.2772 46.4946 6.4752 46.834C6.47898 46.8401 6.48366 46.8477 6.48936 46.8568C7.35642 48.3281 8.56284 49.6489 10.1086 50.8192C12.1506 52.3594 14.6436 53.7409 17.5876 54.9636C19.8176 55.8906 22.7254 56.8797 26.3108 57.9307C28.3999 58.5505 30.2101 58.9007 31.7412 58.9811C33.5126 59.0726 35.2646 58.8381 36.9973 58.2779L53.2695 50.7703Z" fill="url(#paint1_linear_307_267)"/>
<path d="M54.7139 12.0079C53.8325 11.1518 52.7491 10.4638 51.4637 9.94375C50.1931 9.42998 48.7946 9.11038 47.2681 8.98489C45.7177 8.85603 44.1198 8.93485 42.4744 9.22148C41.6936 9.35853 40.9198 9.53836 40.1531 9.76103C44.5659 22.8196 45.3942 35.3512 42.638 47.3558C48.1727 50.1242 52.3722 50.9069 55.2363 49.7037C57.2833 48.2845 58.5699 46.2986 59.0963 43.7462C59.8967 39.9087 60.1379 35.3067 59.8195 29.9404C59.5398 25.1974 58.9192 20.9743 57.9578 17.2712C57.7663 16.5354 57.4727 15.8179 57.0771 15.1186C56.7682 14.5693 56.3424 13.946 55.7996 13.2486C55.4672 12.8192 55.1053 12.4056 54.7139 12.0079Z" fill="url(#paint2_linear_307_267)"/>
<path d="M35.9664 19.0972C35.2836 19.3319 34.6735 19.6606 34.1361 20.0832C33.5798 20.5234 33.093 21.0576 32.6758 21.6856C32.2586 22.3077 31.8824 23.0238 31.5473 23.8337L31.4051 19.6958L31.2154 19.2116L30.6938 19.0796H29.6128V38.783H31.6516V26.0436L32.6948 23.6841C33.0677 22.9974 33.504 22.428 34.0034 21.9761C34.5218 21.5124 35.0939 21.1661 35.7198 20.9372C36.3583 20.7024 37.0853 20.585 37.9008 20.585L40.0725 20.858C40.2621 20.858 40.3917 20.7552 40.4613 20.5498L40.6319 19.2292L39.5035 18.8507L38.2138 18.7538C37.3793 18.7538 36.6302 18.8682 35.9664 19.0972Z" fill="white" stroke="white" stroke-width="2"/>
</g>
<defs>
<linearGradient id="paint0_linear_307_267" x1="5.31757" y1="39.5586" x2="42.0203" y2="7.10659" gradientUnits="userSpaceOnUse">
<stop stop-color="#0C6D7A"/>
<stop offset="0.00784314" stop-color="#0C6F7C"/>
<stop offset="0.239216" stop-color="#14BCD4"/>
<stop offset="0.482353" stop-color="#06DEFC"/>
<stop offset="0.545098" stop-color="#04E0FF"/>
<stop offset="0.831373" stop-color="#0FBBD4"/>
<stop offset="1" stop-color="#0D7684"/>
</linearGradient>
<linearGradient id="paint1_linear_307_267" x1="1.53206" y1="4.86601" x2="20.2592" y2="68.2795" gradientUnits="userSpaceOnUse">
<stop stop-color="#0C6D7A"/>
<stop offset="0.00784314" stop-color="#0C6F7C"/>
<stop offset="0.239216" stop-color="#14BCD4"/>
<stop offset="0.509804" stop-color="#04E0FF"/>
<stop offset="0.831373" stop-color="#0FBBD4"/>
<stop offset="1" stop-color="#0D7684"/>
</linearGradient>
<linearGradient id="paint2_linear_307_267" x1="42.4484" y1="-11.879" x2="50.2345" y2="51.267" gradientUnits="userSpaceOnUse">
<stop stop-color="#0C6D7A"/>
<stop offset="0.00784314" stop-color="#0C6F7C"/>
<stop offset="0.239216" stop-color="#14BCD4"/>
<stop offset="0.509804" stop-color="#04E0FF"/>
<stop offset="0.831373" stop-color="#0FBBD4"/>
<stop offset="1" stop-color="#0D7684"/>
</linearGradient>
<clipPath id="clip0_307_267">
<rect width="60" height="59" fill="white"/>
</clipPath>
</defs>
</svg>
