<svg width="320" height="280" viewBox="0 0 320 280" fill="none" xmlns="http://www.w3.org/2000/svg">
<path fill-rule="evenodd" clip-rule="evenodd" d="M0 0H320V280H0V0ZM0.5 0.5H39.5V39.5H0.5V0.5ZM40.5 0.5H79.5V39.5H40.5V0.5ZM119.5 0.5H80.5V39.5H119.5V0.5ZM120.5 0.5H159.5V39.5H120.5V0.5ZM199.5 0.5H160.5V39.5H199.5V0.5ZM200.5 0.5H239.5V39.5H200.5V0.5ZM279.5 0.5H240.5V39.5H279.5V0.5ZM280.5 0.5H319.5V39.5H280.5V0.5ZM39.5 40.5H0.5V79.5H39.5V40.5ZM40.5 40.5H79.5V79.5H40.5V40.5ZM119.5 40.5H80.5V79.5H119.5V40.5ZM120.5 40.5H159.5V79.5H120.5V40.5ZM199.5 40.5H160.5V79.5H199.5V40.5ZM200.5 40.5H239.5V79.5H200.5V40.5ZM279.5 40.5H240.5V79.5H279.5V40.5ZM280.5 40.5H319.5V79.5H280.5V40.5ZM39.5 80.5H0.5V119.5H39.5V80.5ZM40.5 80.5H79.5V119.5H40.5V80.5ZM119.5 80.5H80.5V119.5H119.5V80.5ZM120.5 80.5H159.5V119.5H120.5V80.5ZM199.5 80.5H160.5V119.5H199.5V80.5ZM200.5 80.5H239.5V119.5H200.5V80.5ZM279.5 80.5H240.5V119.5H279.5V80.5ZM280.5 80.5H319.5V119.5H280.5V80.5ZM39.5 120.5H0.5V159.5H39.5V120.5ZM40.5 120.5H79.5V159.5H40.5V120.5ZM119.5 120.5H80.5V159.5H119.5V120.5ZM120.5 120.5H159.5V159.5H120.5V120.5ZM199.5 120.5H160.5V159.5H199.5V120.5ZM200.5 120.5H239.5V159.5H200.5V120.5ZM279.5 120.5H240.5V159.5H279.5V120.5ZM280.5 120.5H319.5V159.5H280.5V120.5ZM39.5 160.5H0.5V199.5H39.5V160.5ZM40.5 160.5H79.5V199.5H40.5V160.5ZM119.5 160.5H80.5V199.5H119.5V160.5ZM120.5 160.5H159.5V199.5H120.5V160.5ZM199.5 160.5H160.5V199.5H199.5V160.5ZM200.5 160.5H239.5V199.5H200.5V160.5ZM279.5 160.5H240.5V199.5H279.5V160.5ZM280.5 160.5H319.5V199.5H280.5V160.5ZM39.5 200.5H0.5V239.5H39.5V200.5ZM40.5 200.5H79.5V239.5H40.5V200.5ZM119.5 200.5H80.5V239.5H119.5V200.5ZM120.5 200.5H159.5V239.5H120.5V200.5ZM199.5 200.5H160.5V239.5H199.5V200.5ZM200.5 200.5H239.5V239.5H200.5V200.5ZM279.5 200.5H240.5V239.5H279.5V200.5ZM280.5 200.5H319.5V239.5H280.5V200.5ZM39.5 240.5H0.5V279.5H39.5V240.5ZM40.5 240.5H79.5V279.5H40.5V240.5ZM119.5 240.5H80.5V279.5H119.5V240.5ZM120.5 240.5H159.5V279.5H120.5V240.5ZM199.5 240.5H160.5V279.5H199.5V240.5ZM200.5 240.5H239.5V279.5H200.5V240.5ZM279.5 240.5H240.5V279.5H279.5V240.5ZM280.5 240.5H319.5V279.5H280.5V240.5Z" fill="#DEF7FA"/>
</svg>
