<svg width="948" height="122" viewBox="0 0 948 122" fill="none" xmlns="http://www.w3.org/2000/svg">
<mask id="path-1-outside-1_1181_270" maskUnits="userSpaceOnUse" x="0" y="0" width="948" height="122" fill="black">
<rect fill="white" width="948" height="122"/>
<path d="M64.36 118.92C55.5067 118.92 47.3467 117.533 39.88 114.76C32.52 111.88 26.0667 107.827 20.52 102.6C15.08 97.3733 10.8133 91.24 7.72 84.2C4.73333 77.16 3.24 69.4267 3.24 61C3.24 52.5733 4.73333 44.84 7.72 37.8C10.8133 30.76 15.1333 24.6267 20.68 19.4C26.2267 14.1733 32.7333 10.1733 40.2 7.39999C47.6667 4.52 55.88 3.08 64.84 3.08C74.76 3.08 83.6667 4.73333 91.56 8.03999C99.56 11.3467 106.28 16.1467 111.72 22.44L95.08 37.8C91.0267 33.5333 86.6 30.3867 81.8 28.36C77 26.2267 71.7733 25.16 66.12 25.16C60.68 25.16 55.72 26.0133 51.24 27.72C46.76 29.4267 42.8667 31.88 39.56 35.08C36.36 38.28 33.8533 42.0667 32.04 46.44C30.3333 50.8133 29.48 55.6667 29.48 61C29.48 66.2267 30.3333 71.0267 32.04 75.4C33.8533 79.7733 36.36 83.6133 39.56 86.92C42.8667 90.12 46.7067 92.5733 51.08 94.28C55.56 95.9867 60.4667 96.84 65.8 96.84C70.92 96.84 75.88 96.04 80.68 94.44C85.5867 92.7333 90.3333 89.9067 94.92 85.96L109.64 104.68C103.56 109.267 96.4667 112.787 88.36 115.24C80.36 117.693 72.36 118.92 64.36 118.92ZM85.96 101.32V59.24H109.64V104.68L85.96 101.32ZM118.997 117L168.918 4.99999H194.518L244.598 117H217.398L176.438 18.12H186.678L145.558 117H118.997ZM143.957 93L150.838 73.32H208.438L215.478 93H143.957ZM256.218 117V4.99999H277.658L325.338 84.04H313.978L360.858 4.99999H382.138L382.458 117H358.138L357.978 42.28H362.458L325.018 105.16H313.338L275.098 42.28H280.538V117H256.218ZM432.87 50.12H486.79V70.28H432.87V50.12ZM434.79 96.2H495.75V117H409.03V4.99999H493.67V25.8H434.79V96.2ZM516.374 117V4.99999H564.854C574.88 4.99999 583.52 6.65333 590.774 9.96C598.027 13.16 603.627 17.8 607.574 23.88C611.52 29.96 613.494 37.2133 613.494 45.64C613.494 53.96 611.52 61.16 607.574 67.24C603.627 73.32 598.027 78.0133 590.774 81.32C583.52 84.52 574.88 86.12 564.854 86.12H530.774L542.294 74.44V117H516.374ZM542.294 77.32L530.774 65H563.414C571.414 65 577.387 63.2933 581.334 59.88C585.28 56.4667 587.254 51.72 587.254 45.64C587.254 39.4533 585.28 34.6533 581.334 31.24C577.387 27.8267 571.414 26.12 563.414 26.12H530.774L542.294 13.8V77.32ZM631.999 117V4.99999H657.919V95.88H714.079V117H631.999ZM714.466 117L764.386 4.99999H789.986L840.066 117H812.866L771.906 18.12H782.146L741.026 117H714.466ZM739.426 93L746.306 73.32H803.906L810.946 93H739.426ZM872.651 117V71.24L878.571 86.92L829.291 4.99999H856.811L894.571 67.88H878.731L916.651 4.99999H942.091L892.811 86.92L898.571 71.24V117H872.651Z"/>
</mask>
<path d="M39.88 114.76L38.7868 117.554L38.811 117.563L38.8354 117.572L39.88 114.76ZM20.52 102.6L18.4415 104.763L18.452 104.773L18.4626 104.783L20.52 102.6ZM7.72 84.2L4.95825 85.3717L4.96574 85.3893L4.97344 85.4068L7.72 84.2ZM7.72 37.8L4.97344 36.5932L4.96574 36.6107L4.95825 36.6283L7.72 37.8ZM20.68 19.4L22.7374 21.5834V21.5834L20.68 19.4ZM40.2 7.39999L41.2446 10.2123L41.2621 10.2057L41.2796 10.199L40.2 7.39999ZM91.56 8.03999L90.4008 10.807L90.4074 10.8098L90.414 10.8125L91.56 8.03999ZM111.72 22.44L113.755 24.6444L115.888 22.6749L113.99 20.4781L111.72 22.44ZM95.08 37.8L92.905 39.8662L94.9418 42.0103L97.1148 40.0044L95.08 37.8ZM81.8 28.36L80.5816 31.1014L80.6072 31.1128L80.6331 31.1237L81.8 28.36ZM39.56 35.08L37.4737 32.9242L37.4561 32.9413L37.4387 32.9587L39.56 35.08ZM32.04 46.44L29.2688 45.291L29.2567 45.32L29.2453 45.3494L32.04 46.44ZM32.04 75.4L29.2453 76.4906L29.2567 76.52L29.2688 76.549L32.04 75.4ZM39.56 86.92L37.4042 89.0063L37.4384 89.0416L37.4737 89.0758L39.56 86.92ZM51.08 94.28L49.9894 97.0747L50.0007 97.0791L50.012 97.0835L51.08 94.28ZM80.68 94.44L81.6287 97.2861L81.6472 97.2799L81.6656 97.2735L80.68 94.44ZM94.92 85.96L97.2783 84.1056L95.3401 81.6408L92.9633 83.686L94.92 85.96ZM109.64 104.68L111.447 107.075L113.89 105.232L111.998 102.826L109.64 104.68ZM88.36 115.24L87.491 112.369L87.4804 112.372L88.36 115.24ZM85.96 101.32H82.96V103.924L85.5386 104.29L85.96 101.32ZM85.96 59.24V56.24H82.96V59.24H85.96ZM109.64 59.24H112.64V56.24H109.64V59.24ZM109.64 104.68L109.219 107.65L112.64 108.136V104.68H109.64ZM64.36 118.92V115.92C55.8237 115.92 48.0218 114.584 40.9246 111.948L39.88 114.76L38.8354 117.572C46.6716 120.483 55.1897 121.92 64.36 121.92V118.92ZM39.88 114.76L40.9732 111.966C33.9572 109.221 27.8343 105.37 22.5774 100.417L20.52 102.6L18.4626 104.783C24.299 110.283 31.0828 114.539 38.7868 117.554L39.88 114.76ZM20.52 102.6L22.5985 100.437C17.4472 95.4874 13.4051 89.6808 10.4666 82.9932L7.72 84.2L4.97344 85.4068C8.2216 92.7992 12.7128 99.2593 18.4415 104.763L20.52 102.6ZM7.72 84.2L10.4817 83.0284C7.66764 76.3951 6.24 69.0653 6.24 61H3.24H0.24C0.24 69.788 1.79903 77.9249 4.95825 85.3717L7.72 84.2ZM3.24 61H6.24C6.24 52.9347 7.66764 45.6049 10.4817 38.9716L7.72 37.8L4.95825 36.6283C1.79903 44.0751 0.24 52.212 0.24 61H3.24ZM7.72 37.8L10.4666 39.0068C13.3995 32.3319 17.4863 26.5315 22.7374 21.5834L20.68 19.4L18.6226 17.2166C12.7803 22.7218 8.22717 29.1881 4.97344 36.5932L7.72 37.8ZM20.68 19.4L22.7374 21.5834C27.9788 16.6444 34.1369 12.8523 41.2446 10.2123L40.2 7.39999L39.1554 4.58772C31.3298 7.49439 24.4745 11.7023 18.6226 17.2166L20.68 19.4ZM40.2 7.39999L41.2796 10.199C48.3631 7.4668 56.2052 6.08 64.84 6.08V3.08V0.079998C55.5548 0.079998 46.9702 1.57319 39.1204 4.60098L40.2 7.39999ZM64.84 3.08V6.08C74.4247 6.08 82.9283 7.67662 90.4008 10.807L91.56 8.03999L92.7192 5.27298C84.405 1.79004 75.0953 0.079998 64.84 0.079998V3.08ZM91.56 8.03999L90.414 10.8125C97.9995 13.9478 104.329 18.4773 109.45 24.4019L111.72 22.44L113.99 20.4781C108.231 13.8161 101.121 8.74551 92.706 5.26749L91.56 8.03999ZM111.72 22.44L109.685 20.2356L93.0452 35.5956L95.08 37.8L97.1148 40.0044L113.755 24.6444L111.72 22.44ZM95.08 37.8L97.255 35.7337C92.954 31.2064 88.1937 27.8031 82.9669 25.5962L81.8 28.36L80.6331 31.1237C85.0063 32.9702 89.0993 35.8602 92.905 39.8662L95.08 37.8ZM81.8 28.36L83.0184 25.6186C77.8063 23.302 72.1606 22.16 66.12 22.16V25.16V28.16C71.386 28.16 76.1938 29.1513 80.5816 31.1014L81.8 28.36ZM66.12 25.16V22.16C60.3637 22.16 55.0358 23.0636 50.172 24.9165L51.24 27.72L52.308 30.5235C56.4042 28.963 60.9963 28.16 66.12 28.16V25.16ZM51.24 27.72L50.172 24.9165C45.3284 26.7617 41.0847 29.4297 37.4737 32.9242L39.56 35.08L41.6463 37.2358C44.6487 34.3303 48.1916 32.0916 52.308 30.5235L51.24 27.72ZM39.56 35.08L37.4387 32.9587C33.9476 36.4498 31.2258 40.5711 29.2688 45.291L32.04 46.44L34.8112 47.589C36.4809 43.5622 38.7724 40.1102 41.6813 37.2013L39.56 35.08ZM32.04 46.44L29.2453 45.3494C27.3858 50.1143 26.48 55.3439 26.48 61H29.48H32.48C32.48 55.9895 33.2809 51.5123 34.8347 47.5306L32.04 46.44ZM29.48 61H26.48C26.48 66.5576 27.3884 71.7324 29.2453 76.4906L32.04 75.4L34.8347 74.3094C33.2783 70.3209 32.48 65.8957 32.48 61H29.48ZM32.04 75.4L29.2688 76.549C31.2223 81.2604 33.9344 85.4208 37.4042 89.0063L39.56 86.92L41.7158 84.8337C38.7856 81.8059 36.4844 78.2862 34.8112 74.251L32.04 75.4ZM39.56 86.92L37.4737 89.0758C41.0725 92.5584 45.2527 95.2263 49.9894 97.0747L51.08 94.28L52.1706 91.4853C48.1606 89.9204 44.6609 87.6816 41.6463 84.7642L39.56 86.92ZM51.08 94.28L50.012 97.0835C54.8693 98.9339 60.1426 99.84 65.8 99.84V96.84V93.84C60.7907 93.84 56.2507 93.0395 52.148 91.4765L51.08 94.28ZM65.8 96.84V99.84C71.2385 99.84 76.5191 98.9892 81.6287 97.2861L80.68 94.44L79.7313 91.5939C75.2409 93.0908 70.6015 93.84 65.8 93.84V96.84ZM80.68 94.44L81.6656 97.2735C86.9818 95.4244 92.0507 92.3866 96.8767 88.234L94.92 85.96L92.9633 83.686C88.616 87.4267 84.1916 90.0423 79.6944 91.6065L80.68 94.44ZM94.92 85.96L92.5618 87.8144L107.282 106.534L109.64 104.68L111.998 102.826L97.2783 84.1056L94.92 85.96ZM109.64 104.68L107.833 102.285C102.065 106.636 95.2972 110.006 87.491 112.369L88.36 115.24L89.229 118.111C97.6361 115.567 105.055 111.897 111.447 107.075L109.64 104.68ZM88.36 115.24L87.4804 112.372C79.7523 114.742 72.0484 115.92 64.36 115.92V118.92V121.92C72.6716 121.92 80.9677 120.645 89.2396 118.108L88.36 115.24ZM85.96 101.32H88.96V59.24H85.96H82.96V101.32H85.96ZM85.96 59.24V62.24H109.64V59.24V56.24H85.96V59.24ZM109.64 59.24H106.64V104.68H109.64H112.64V59.24H109.64ZM109.64 104.68L110.061 101.71L86.3815 98.3497L85.96 101.32L85.5386 104.29L109.219 107.65L109.64 104.68ZM118.997 117L116.257 115.779L114.376 120H118.997V117ZM168.917 4.99999V1.99999H166.97L166.177 3.77867L168.917 4.99999ZM194.518 4.99999L197.256 3.77541L196.462 1.99999H194.518V4.99999ZM244.598 117V120H249.225L247.336 115.775L244.598 117ZM217.398 117L214.626 118.148L215.393 120H217.398V117ZM176.438 18.12V15.12H171.948L173.666 19.2681L176.438 18.12ZM186.678 18.12L189.448 19.2719L191.174 15.12H186.678V18.12ZM145.557 117V120H147.559L148.328 118.152L145.557 117ZM143.958 93L141.126 92.01L139.731 96H143.958V93ZM150.838 73.32V70.32H148.708L148.006 72.33L150.838 73.32ZM208.438 73.32L211.262 72.3095L210.551 70.32H208.438V73.32ZM215.478 93V96H219.737L218.302 91.9895L215.478 93ZM118.997 117L121.738 118.221L171.658 6.22131L168.917 4.99999L166.177 3.77867L116.257 115.779L118.997 117ZM168.917 4.99999V7.99999H194.518V4.99999V1.99999H168.917V4.99999ZM194.518 4.99999L191.779 6.22458L241.859 118.225L244.598 117L247.336 115.775L197.256 3.77541L194.518 4.99999ZM244.598 117V114H217.398V117V120H244.598V117ZM217.398 117L220.169 115.852L179.209 16.9719L176.438 18.12L173.666 19.2681L214.626 118.148L217.398 117ZM176.438 18.12V21.12H186.678V18.12V15.12H176.438V18.12ZM186.678 18.12L183.907 16.9681L142.787 115.848L145.557 117L148.328 118.152L189.448 19.2719L186.678 18.12ZM145.557 117V114H118.997V117V120H145.557V117ZM143.958 93L146.789 93.99L153.669 74.31L150.838 73.32L148.006 72.33L141.126 92.01L143.958 93ZM150.838 73.32V76.32H208.438V73.32V70.32H150.838V73.32ZM208.438 73.32L205.613 74.3305L212.653 94.0105L215.478 93L218.302 91.9895L211.262 72.3095L208.438 73.32ZM215.478 93V90H143.958V93V96H215.478V93ZM256.217 117H253.217V120H256.217V117ZM256.217 4.99999V1.99999H253.217V4.99999H256.217ZM277.658 4.99999L280.226 3.45039L279.351 1.99999H277.658V4.99999ZM325.337 84.04V87.04H330.651L327.906 82.4904L325.337 84.04ZM313.978 84.04L311.397 82.5096L308.71 87.04H313.978V84.04ZM360.858 4.99999V1.99999H359.149L358.277 3.46958L360.858 4.99999ZM382.138 4.99999L385.138 4.99142L385.129 1.99999H382.138V4.99999ZM382.458 117V120H385.466L385.457 116.991L382.458 117ZM358.138 117L355.138 117.006L355.144 120H358.138V117ZM357.978 42.28V39.28H354.971L354.978 42.2864L357.978 42.28ZM362.458 42.28L365.035 43.8148L367.735 39.28H362.458V42.28ZM325.018 105.16V108.16H326.723L327.595 106.695L325.018 105.16ZM313.337 105.16L310.774 106.719L311.651 108.16H313.337V105.16ZM275.098 42.28V39.28H269.762L272.534 43.8388L275.098 42.28ZM280.538 42.28H283.538V39.28H280.538V42.28ZM280.538 117V120H283.538V117H280.538ZM256.217 117H259.217V4.99999H256.217H253.217V117H256.217ZM256.217 4.99999V7.99999H277.658V4.99999V1.99999H256.217V4.99999ZM277.658 4.99999L275.089 6.54959L322.769 85.5896L325.337 84.04L327.906 82.4904L280.226 3.45039L277.658 4.99999ZM325.337 84.04V81.04H313.978V84.04V87.04H325.337V84.04ZM313.978 84.04L316.558 85.5704L363.438 6.5304L360.858 4.99999L358.277 3.46958L311.397 82.5096L313.978 84.04ZM360.858 4.99999V7.99999H382.138V4.99999V1.99999H360.858V4.99999ZM382.138 4.99999L379.138 5.00856L379.458 117.009L382.458 117L385.457 116.991L385.138 4.99142L382.138 4.99999ZM382.458 117V114H358.138V117V120H382.458V117ZM358.138 117L361.138 116.994L360.978 42.2736L357.978 42.28L354.978 42.2864L355.138 117.006L358.138 117ZM357.978 42.28V45.28H362.458V42.28V39.28H357.978V42.28ZM362.458 42.28L359.88 40.7452L322.44 103.625L325.018 105.16L327.595 106.695L365.035 43.8148L362.458 42.28ZM325.018 105.16V102.16H313.337V105.16V108.16H325.018V105.16ZM313.337 105.16L315.901 103.601L277.661 40.7212L275.098 42.28L272.534 43.8388L310.774 106.719L313.337 105.16ZM275.098 42.28V45.28H280.538V42.28V39.28H275.098V42.28ZM280.538 42.28H277.538V117H280.538H283.538V42.28H280.538ZM280.538 117V114H256.217V117V120H280.538V117ZM432.87 50.12V47.12H429.87V50.12H432.87ZM486.79 50.12H489.79V47.12H486.79V50.12ZM486.79 70.28V73.28H489.79V70.28H486.79ZM432.87 70.28H429.87V73.28H432.87V70.28ZM434.79 96.2H431.79V99.2H434.79V96.2ZM495.75 96.2H498.75V93.2H495.75V96.2ZM495.75 117V120H498.75V117H495.75ZM409.03 117H406.03V120H409.03V117ZM409.03 4.99999V1.99999H406.03V4.99999H409.03ZM493.67 4.99999H496.67V1.99999H493.67V4.99999ZM493.67 25.8V28.8H496.67V25.8H493.67ZM434.79 25.8V22.8H431.79V25.8H434.79ZM432.87 50.12V53.12H486.79V50.12V47.12H432.87V50.12ZM486.79 50.12H483.79V70.28H486.79H489.79V50.12H486.79ZM486.79 70.28V67.28H432.87V70.28V73.28H486.79V70.28ZM432.87 70.28H435.87V50.12H432.87H429.87V70.28H432.87ZM434.79 96.2V99.2H495.75V96.2V93.2H434.79V96.2ZM495.75 96.2H492.75V117H495.75H498.75V96.2H495.75ZM495.75 117V114H409.03V117V120H495.75V117ZM409.03 117H412.03V4.99999H409.03H406.03V117H409.03ZM409.03 4.99999V7.99999H493.67V4.99999V1.99999H409.03V4.99999ZM493.67 4.99999H490.67V25.8H493.67H496.67V4.99999H493.67ZM493.67 25.8V22.8H434.79V25.8V28.8H493.67V25.8ZM434.79 25.8H431.79V96.2H434.79H437.79V25.8H434.79ZM516.374 117H513.374V120H516.374V117ZM516.374 4.99999V1.99999H513.374V4.99999H516.374ZM590.774 9.96L589.529 12.6897L589.546 12.6973L589.563 12.7048L590.774 9.96ZM607.574 23.88L605.057 25.5134V25.5134L607.574 23.88ZM590.774 81.32L591.985 84.0648L592.001 84.0573L592.018 84.0497L590.774 81.32ZM530.774 86.12L528.638 84.0134L523.601 89.12H530.774V86.12ZM542.294 74.44H545.294V67.1261L540.158 72.3334L542.294 74.44ZM542.294 117V120H545.294V117H542.294ZM542.294 77.32L540.102 79.369L545.294 84.9208V77.32H542.294ZM530.774 65V62H523.861L528.582 67.049L530.774 65ZM530.774 26.12L528.582 24.071L523.861 29.12H530.774V26.12ZM542.294 13.8H545.294V6.19923L540.102 11.751L542.294 13.8ZM516.374 117H519.374V4.99999H516.374H513.374V117H516.374ZM516.374 4.99999V7.99999H564.854V4.99999V1.99999H516.374V4.99999ZM564.854 4.99999V7.99999C574.558 7.99999 582.754 9.60085 589.529 12.6897L590.774 9.96L592.018 7.23027C584.287 3.7058 575.203 1.99999 564.854 1.99999V4.99999ZM590.774 9.96L589.563 12.7048C596.334 15.6922 601.458 19.9686 605.057 25.5134L607.574 23.88L610.09 22.2466C605.796 15.6314 599.72 10.6278 591.985 7.21524L590.774 9.96ZM607.574 23.88L605.057 25.5134C608.64 31.0322 610.494 37.6968 610.494 45.64H613.494H616.494C616.494 36.7299 614.401 28.8878 610.09 22.2466L607.574 23.88ZM613.494 45.64H610.494C610.494 53.4681 608.644 60.0817 605.057 65.6066L607.574 67.24L610.09 68.8734C614.397 62.2383 616.494 54.4519 616.494 45.64H613.494ZM607.574 67.24L605.057 65.6066C601.452 71.1603 596.317 75.496 589.529 78.5903L590.774 81.32L592.018 84.0497C599.737 80.5306 605.802 75.4797 610.09 68.8734L607.574 67.24ZM590.774 81.32L589.563 78.5752C582.778 81.5687 574.57 83.12 564.854 83.12V86.12V89.12C575.191 89.12 584.263 87.4713 591.985 84.0648L590.774 81.32ZM564.854 86.12V83.12H530.774V86.12V89.12H564.854V86.12ZM530.774 86.12L532.91 88.2266L544.43 76.5466L542.294 74.44L540.158 72.3334L528.638 84.0134L530.774 86.12ZM542.294 74.44H539.294V117H542.294H545.294V74.44H542.294ZM542.294 117V114H516.374V117V120H542.294V117ZM542.294 77.32L544.485 75.271L532.965 62.951L530.774 65L528.582 67.049L540.102 79.369L542.294 77.32ZM530.774 65V68H563.414V65V62H530.774V65ZM563.414 65V68C571.766 68 578.579 66.2292 583.296 62.1491L581.334 59.88L579.371 57.6109C576.196 60.3575 571.062 62 563.414 62V65ZM581.334 59.88L583.296 62.1491C588.013 58.0694 590.254 52.4319 590.254 45.64H587.254H584.254C584.254 51.0081 582.547 54.8639 579.371 57.6109L581.334 59.88ZM587.254 45.64H590.254C590.254 38.7601 588.025 33.061 583.296 28.9709L581.334 31.24L579.371 33.5091C582.535 36.2457 584.254 40.1465 584.254 45.64H587.254ZM581.334 31.24L583.296 28.9709C578.579 24.8908 571.766 23.12 563.414 23.12V26.12V29.12C571.062 29.12 576.196 30.7625 579.371 33.5091L581.334 31.24ZM563.414 26.12V23.12H530.774V26.12V29.12H563.414V26.12ZM530.774 26.12L532.965 28.169L544.485 15.849L542.294 13.8L540.102 11.751L528.582 24.071L530.774 26.12ZM542.294 13.8H539.294V77.32H542.294H545.294V13.8H542.294ZM631.999 117H628.999V120H631.999V117ZM631.999 4.99999V1.99999H628.999V4.99999H631.999ZM657.919 4.99999H660.919V1.99999H657.919V4.99999ZM657.919 95.88H654.919V98.88H657.919V95.88ZM714.079 95.88H717.079V92.88H714.079V95.88ZM714.079 117V120H717.079V117H714.079ZM631.999 117H634.999V4.99999H631.999H628.999V117H631.999ZM631.999 4.99999V7.99999H657.919V4.99999V1.99999H631.999V4.99999ZM657.919 4.99999H654.919V95.88H657.919H660.919V4.99999H657.919ZM657.919 95.88V98.88H714.079V95.88V92.88H657.919V95.88ZM714.079 95.88H711.079V117H714.079H717.079V95.88H714.079ZM714.079 117V114H631.999V117V120H714.079V117ZM714.466 117L711.726 115.779L709.845 120H714.466V117ZM764.386 4.99999V1.99999H762.439L761.646 3.77867L764.386 4.99999ZM789.986 4.99999L792.725 3.77541L791.931 1.99999H789.986V4.99999ZM840.066 117V120H844.694L842.805 115.775L840.066 117ZM812.866 117L810.095 118.148L810.862 120H812.866V117ZM771.906 18.12V15.12H767.416L769.135 19.2681L771.906 18.12ZM782.146 18.12L784.916 19.2719L786.643 15.12H782.146V18.12ZM741.026 117V120H743.028L743.796 118.152L741.026 117ZM739.426 93L736.594 92.01L735.199 96H739.426V93ZM746.306 73.32V70.32H744.177L743.474 72.33L746.306 73.32ZM803.906 73.32L806.731 72.3095L806.019 70.32H803.906V73.32ZM810.946 93V96H815.206L813.771 91.9895L810.946 93ZM714.466 117L717.206 118.221L767.126 6.22131L764.386 4.99999L761.646 3.77867L711.726 115.779L714.466 117ZM764.386 4.99999V7.99999H789.986V4.99999V1.99999H764.386V4.99999ZM789.986 4.99999L787.248 6.22458L837.328 118.225L840.066 117L842.805 115.775L792.725 3.77541L789.986 4.99999ZM840.066 117V114H812.866V117V120H840.066V117ZM812.866 117L815.638 115.852L774.678 16.9719L771.906 18.12L769.135 19.2681L810.095 118.148L812.866 117ZM771.906 18.12V21.12H782.146V18.12V15.12H771.906V18.12ZM782.146 18.12L779.376 16.9681L738.256 115.848L741.026 117L743.796 118.152L784.916 19.2719L782.146 18.12ZM741.026 117V114H714.466V117V120H741.026V117ZM739.426 93L742.258 93.99L749.138 74.31L746.306 73.32L743.474 72.33L736.594 92.01L739.426 93ZM746.306 73.32V76.32H803.906V73.32V70.32H746.306V73.32ZM803.906 73.32L801.082 74.3305L808.122 94.0105L810.946 93L813.771 91.9895L806.731 72.3095L803.906 73.32ZM810.946 93V90H739.426V93V96H810.946V93ZM872.651 117H869.651V120H872.651V117ZM872.651 71.24L875.458 70.1804L869.651 71.24H872.651ZM878.571 86.92L876.001 88.4664L881.378 85.8604L878.571 86.92ZM829.291 4.99999V1.99999H823.986L826.721 6.54643L829.291 4.99999ZM856.811 4.99999L859.383 3.45554L858.509 1.99999H856.811V4.99999ZM894.571 67.88V70.88H899.872L897.143 66.3355L894.571 67.88ZM878.731 67.88L876.162 66.3307L873.419 70.88H878.731V67.88ZM916.651 4.99999V1.99999H914.957L914.082 3.45074L916.651 4.99999ZM942.091 4.99999L944.662 6.54643L947.397 1.99999H942.091V4.99999ZM892.811 86.92L889.995 85.8855L895.382 88.4664L892.811 86.92ZM898.571 71.24H901.571L895.755 70.2055L898.571 71.24ZM898.571 117V120H901.571V117H898.571ZM872.651 117H875.651V71.24H872.651H869.651V117H872.651ZM872.651 71.24L869.845 72.2996L875.765 87.9796L878.571 86.92L881.378 85.8604L875.458 70.1804L872.651 71.24ZM878.571 86.92L881.142 85.3736L831.862 3.45355L829.291 4.99999L826.721 6.54643L876.001 88.4664L878.571 86.92ZM829.291 4.99999V7.99999H856.811V4.99999V1.99999H829.291V4.99999ZM856.811 4.99999L854.239 6.54444L891.999 69.4244L894.571 67.88L897.143 66.3355L859.383 3.45554L856.811 4.99999ZM894.571 67.88V64.88H878.731V67.88V70.88H894.571V67.88ZM878.731 67.88L881.3 69.4293L919.22 6.54924L916.651 4.99999L914.082 3.45074L876.162 66.3307L878.731 67.88ZM916.651 4.99999V7.99999H942.091V4.99999V1.99999H916.651V4.99999ZM942.091 4.99999L939.521 3.45355L890.241 85.3736L892.811 86.92L895.382 88.4664L944.662 6.54643L942.091 4.99999ZM892.811 86.92L895.627 87.9545L901.387 72.2745L898.571 71.24L895.755 70.2055L889.995 85.8855L892.811 86.92ZM898.571 71.24H895.571V117H898.571H901.571V71.24H898.571ZM898.571 117V114H872.651V117V120H898.571V117Z" fill="url(#paint0_linear_1181_270)" mask="url(#path-1-outside-1_1181_270)"/>
<defs>
<linearGradient id="paint0_linear_1181_270" x1="468.5" y1="5.55532" x2="468.5" y2="117.041" gradientUnits="userSpaceOnUse">
<stop stop-color="white"/>
<stop offset="1" stop-color="#07163A" stop-opacity="0.5"/>
</linearGradient>
</defs>
</svg>
