<svg width="365" height="331" viewBox="0 0 365 331" fill="none" xmlns="http://www.w3.org/2000/svg">
<path opacity="0.9" d="M97.9917 293.687C97.9917 294.859 140.806 295.809 193.622 295.809C246.437 295.809 289.252 294.859 289.252 293.687C289.252 292.515 246.437 291.564 193.622 291.564C140.806 291.564 97.9917 292.515 97.9917 293.687Z" fill="#606060"/>
<g opacity="0.9">
<path d="M127.326 102.674C82.5619 155.513 73.2301 216.791 128.289 269.01C171.689 310.17 246.594 296.835 291.358 243.995C336.122 191.156 335.69 116.684 290.394 77.659C245.098 38.6344 172.09 49.8332 127.326 102.674Z" fill="#991740"/>
<path d="M122.199 259.615C76.9043 220.587 76.0216 146.652 120.228 94.4746C164.434 42.2975 236.99 31.6376 282.285 70.6649C327.58 109.692 328.463 183.628 284.256 235.805C240.05 287.982 167.495 298.642 122.199 259.615Z" fill="#FF1C4F"/>
<path d="M134.007 245.675C95.3938 212.405 94.6415 149.377 132.327 104.897C170.012 60.4169 231.863 51.3294 270.476 84.5993C309.09 117.869 309.842 180.898 272.157 225.378C234.472 269.858 172.62 278.945 134.007 245.675Z" fill="white"/>
<path d="M144.874 232.851C112.41 204.88 111.777 151.889 143.461 114.493C175.145 77.0963 227.146 69.456 259.61 97.4274C292.074 125.399 292.706 178.39 261.022 215.786C229.339 253.183 177.337 260.823 144.874 232.851Z" fill="#FF1C4F"/>
<path d="M156.166 219.52C130.093 197.055 129.585 154.495 155.032 124.46C180.478 94.4256 222.243 88.2893 248.317 110.755C274.39 133.22 274.898 175.78 249.451 205.814C224.005 235.849 182.24 241.985 156.166 219.52Z" fill="white"/>
<path d="M167.567 206.067C147.946 189.161 147.564 157.132 166.714 134.529C185.864 111.926 217.295 107.308 236.916 124.214C256.538 141.121 256.92 173.15 237.77 195.753C218.62 218.356 187.189 222.974 167.567 206.067Z" fill="#FF1C4F"/>
<path d="M179.116 192.435C166.03 181.16 165.775 159.798 178.547 144.723C191.319 129.647 212.282 126.567 225.369 137.843C238.456 149.119 238.71 170.481 225.938 185.556C213.166 200.631 192.203 203.711 179.116 192.435Z" fill="white"/>
<path d="M191.988 156.311C186.456 162.842 186.567 172.095 192.236 176.979C197.906 181.863 206.985 180.529 212.518 173.998C218.05 167.467 217.939 158.214 212.27 153.33C206.601 148.446 197.521 149.78 191.988 156.311Z" fill="#FF1C4F"/>
</g>
<g opacity="0.9">
<path d="M87.6914 52.0812C87.6914 52.0812 75.5384 10.001 69.2672 10.001C62.996 10.001 60.4134 24.1374 60.4134 24.1374L87.6914 52.0812Z" fill="#FFA523"/>
<path d="M86.6074 53.1736C86.6074 53.1736 44.8799 40.9179 44.8799 34.5937C44.8799 28.2694 58.8989 25.665 58.8989 25.665L86.6074 53.1736Z" fill="#FFA523"/>
<path d="M59.3016 24.8232L202.253 165.154" stroke="#004A67" stroke-width="2.0972" stroke-miterlimit="10"/>
</g>
<g opacity="0.9">
<path d="M50.9893 111.641C50.9893 111.641 22.3097 78.7095 16.6285 81.3873C10.9472 84.0652 14.544 97.9748 14.544 97.9748L50.9893 111.641Z" fill="#0070C0"/>
<path d="M50.4668 113.095C50.4668 113.095 7.51926 119.812 4.86281 114.082C2.20741 108.353 13.8126 100.008 13.8126 100.008L50.4668 113.095Z" fill="#0070C0"/>
<path d="M13.8254 99.0732L202.253 165.155" stroke="#004A67" stroke-width="2.0972" stroke-miterlimit="10"/>
</g>
<g opacity="0.9">
<path d="M45.7051 199.932C45.7051 199.932 4.13272 187.15 0.699486 192.443C-2.73374 197.736 7.5839 207.655 7.5839 207.655L45.7051 199.932Z" fill="#61CECB"/>
<path d="M46.0195 201.444C46.0195 201.444 13.0054 229.949 7.75692 226.487C2.5084 223.025 8.02184 209.768 8.02184 209.768L46.0195 201.444Z" fill="#61CECB"/>
<path d="M7.54466 208.967L202.253 165.154" stroke="#004A67" stroke-width="2.0972" stroke-miterlimit="10"/>
</g>
<g opacity="0.9">
<path d="M75.0371 263.511C75.0371 263.511 32.0094 269.685 31.1218 275.946C30.2342 282.207 43.7455 286.786 43.7455 286.786L75.0371 263.511Z" fill="#A353EA"/>
<path d="M75.957 264.748C75.957 264.748 58.0183 304.669 51.8104 303.774C45.6026 302.879 45.0305 288.516 45.0305 288.516L75.957 264.748Z" fill="#A353EA"/>
<path d="M44.2611 287.992L202.253 165.154" stroke="#004A67" stroke-width="2.0972" stroke-miterlimit="10"/>
</g>
</svg>
