<svg width="60" height="56" viewBox="0 0 60 56" fill="none" xmlns="http://www.w3.org/2000/svg">
<path d="M26.0361 0.989976L37.9222 7.52581L49.8083 14.0616C50.2611 14.2759 50.4875 14.7045 50.4875 15.1331V41.2764C50.4875 41.8121 50.2611 42.2407 49.8083 42.455L37.9222 48.8837L37.809 48.9908L25.9229 55.4195C25.4701 55.741 24.9041 55.6338 24.4513 55.4195L12.5653 48.8837L0.679204 42.3479C0.226401 42.1336 0 41.705 0 41.2764V15.1331C0 14.5974 0.226401 14.1688 0.679204 13.9545L12.5653 7.52581L12.6785 7.41866L24.5645 0.989976C25.0173 0.668542 25.5833 0.775687 26.0361 0.989976ZM36.5638 9.6687L25.2437 3.56145L14.0369 9.6687H13.9237L2.71681 15.8831V40.5264L13.9237 46.6337V46.7408L25.2437 52.8481L36.4506 46.7408H36.5638L47.7706 40.5264V15.8831L36.5638 9.77585V9.6687Z" fill="#FFBA24"/>
<path d="M29.6988 11.2144C29.0208 10.8933 28.2299 11.1074 27.8909 11.7497C27.4389 12.2849 27.6649 13.1413 28.3429 13.4625L32.6365 15.8176H32.7495L40.207 19.8855V33.2668C40.207 33.9091 40.7719 34.5514 41.5629 34.5514C42.2408 34.5514 42.9188 33.9091 42.9188 33.2668V19.2432C42.9188 18.708 42.6928 18.2798 42.2408 18.0657L34.1054 13.6766C34.1054 13.5696 34.1054 13.5696 33.9924 13.5696L29.6988 11.2144ZM38.7381 40.1181C39.303 39.7969 39.529 38.9405 39.19 38.4053C38.8511 37.763 37.9471 37.5489 37.3822 37.87L32.6365 40.4392L32.5235 40.5463L28.0039 43.0084C27.3259 43.3296 27.1 44.0789 27.5519 44.7212C27.8909 45.3635 28.6818 45.5776 29.3598 45.2565L33.8794 42.6873H33.9924L38.7381 40.1181ZM20.9984 45.2565C21.6764 45.5776 22.4673 45.3635 22.8063 44.7212C23.2582 44.186 23.0323 43.3296 22.3543 43.0084L17.7217 40.4392H17.6087L10.1512 36.3713V19.8855L17.7217 15.8176L22.0153 13.4625C22.6933 13.1413 22.9193 12.2849 22.4673 11.7497C22.1283 11.1074 21.3374 10.8933 20.6594 11.2144L16.3658 13.5696L8.23039 17.9586C7.77843 18.1727 7.43945 18.708 7.43945 19.1362V37.0136C7.43945 37.5489 7.66544 37.9771 8.1174 38.1912L16.2528 42.5802C16.2528 42.5802 16.2528 42.6873 16.3658 42.6873L20.9984 45.2565Z" fill="#FFBA24"/>
<path d="M26.055 17.5472L30.3751 19.8972H30.4888L34.8089 22.2472C35.2637 22.5677 35.4911 22.9949 35.4911 23.4222V33.0358C35.4911 33.5699 35.2637 33.9972 34.8089 34.2108L30.3751 36.5608C30.3751 36.5608 30.3751 36.6676 30.2614 36.6676L25.9413 39.0176C25.4866 39.2313 24.9181 39.2313 24.4634 38.9108L20.1433 36.5608H20.0296L15.7095 34.2108C15.2547 33.8904 15.0273 33.4631 15.0273 33.0358V23.4222C15.0273 22.8881 15.2547 22.4608 15.7095 22.2472L20.1433 19.8972C20.1433 19.8972 20.1433 19.7904 20.257 19.7904L24.5771 17.4404C25.0318 17.2268 25.6003 17.2268 26.055 17.5472ZM29.0109 22.1404L25.2592 20.004L21.6212 22.0336C21.5075 22.0336 21.5075 22.0336 21.5075 22.1404L17.7558 24.1699V32.2881L21.3938 34.3176H21.5075L25.2592 36.454L28.8972 34.4245C29.0109 34.4245 29.0109 34.4245 29.0109 34.3176L32.7626 32.2881V24.1699L29.1246 22.1404H29.0109Z" fill="#FFBA24"/>
<path d="M34.7416 31.9115C34.1765 31.5899 33.2722 31.8043 32.9332 32.3403C32.5941 32.9835 32.8201 33.7339 33.3853 34.1627L37.4542 36.3067C38.0193 36.6283 38.9235 36.4139 39.2626 35.8779C39.6017 35.2347 39.3756 34.4843 38.8105 34.0555L34.7416 31.9115ZM45.8181 37.9147C45.1399 37.5931 44.3487 37.8075 44.0097 38.4507C43.5576 38.9867 43.7836 39.8443 44.4618 40.1659L48.4177 42.3099C49.0958 42.7387 49.887 42.5243 50.3391 41.8811C50.6782 41.2379 50.4521 40.4875 49.774 40.1659L45.8181 37.9147ZM26.6037 37.8075C26.6037 37.1643 26.0386 36.5211 25.2474 36.5211C24.4563 36.5211 23.8911 37.1643 23.8911 37.8075V42.2027C23.8911 42.9531 24.4563 43.4891 25.2474 43.4891C26.0386 43.4891 26.6037 42.9531 26.6037 42.2027V37.8075ZM26.6037 49.9211C26.6037 49.2779 26.0386 48.6347 25.2474 48.6347C24.4563 48.6347 23.8911 49.2779 23.8911 49.9211V54.3163C23.8911 55.0667 24.4563 55.6027 25.2474 55.6027C26.0386 55.6027 26.6037 55.0667 26.6037 54.3163V49.9211ZM17.1096 34.1627C17.6747 33.7339 17.9008 32.9835 17.5617 32.3403C17.2226 31.8043 16.3184 31.5899 15.7533 31.9115L0.72091 40.1659C0.0427568 40.4875 -0.183294 41.2379 0.155782 41.8811C0.607884 42.5243 1.39906 42.7387 2.07722 42.3099L17.1096 34.1627ZM15.7533 24.4075C16.3184 24.7291 17.2226 24.5147 17.5617 23.9787C17.9008 23.3355 17.6747 22.5851 17.1096 22.1563L2.07722 14.0091C1.39906 13.5803 0.607884 13.7947 0.155782 14.4379C-0.183294 15.0811 0.0427568 15.8315 0.72091 16.1531L15.7533 24.4075ZM23.8911 18.5115C23.8911 19.1547 24.4563 19.7979 25.2474 19.7979C26.0386 19.7979 26.6037 19.1547 26.6037 18.5115V14.9739C26.6037 14.2235 26.0386 13.6875 25.2474 13.6875C24.4563 13.6875 23.8911 14.2235 23.8911 14.9739V18.5115ZM23.8911 7.25551C23.8911 8.00591 24.4563 8.54191 25.2474 8.54191C26.0386 8.54191 26.6037 8.00591 26.6037 7.25551V2.00271C26.6037 1.25231 26.0386 0.716309 25.2474 0.716309C24.4563 0.716309 23.8911 1.25231 23.8911 2.00271V7.25551ZM33.3853 22.1563C32.8201 22.5851 32.5941 23.3355 32.9332 23.9787C33.2722 24.5147 34.1765 24.7291 34.7416 24.4075L49.774 16.1531C50.4521 15.8315 50.6782 15.0811 50.3391 14.4379C49.887 13.7947 49.0958 13.5803 48.4177 14.0091L33.3853 22.1563Z" fill="#FFBA24"/>
<path d="M34.7416 31.9115C34.1765 31.5899 33.2722 31.8043 32.9332 32.3403C32.5941 32.9835 32.8201 33.7339 33.3853 34.1627L37.4542 36.3067C38.0193 36.6283 38.9235 36.4139 39.2626 35.8779C39.6017 35.2347 39.3756 34.4843 38.8105 34.0555L34.7416 31.9115ZM45.8181 37.9147C45.1399 37.5931 44.3487 37.8075 44.0097 38.4507C43.5576 38.9867 43.7836 39.8443 44.4618 40.1659L48.4177 42.3099C49.0958 42.7387 49.887 42.5243 50.3391 41.8811C50.6782 41.2379 50.4521 40.4875 49.774 40.1659L45.8181 37.9147ZM26.6037 37.8075C26.6037 37.1643 26.0386 36.5211 25.2474 36.5211C24.4563 36.5211 23.8911 37.1643 23.8911 37.8075V42.2027C23.8911 42.9531 24.4563 43.4891 25.2474 43.4891C26.0386 43.4891 26.6037 42.9531 26.6037 42.2027V37.8075ZM26.6037 49.9211C26.6037 49.2779 26.0386 48.6347 25.2474 48.6347C24.4563 48.6347 23.8911 49.2779 23.8911 49.9211V54.3163C23.8911 55.0667 24.4563 55.6027 25.2474 55.6027C26.0386 55.6027 26.6037 55.0667 26.6037 54.3163V49.9211ZM17.1096 34.1627C17.6747 33.7339 17.9008 32.9835 17.5617 32.3403C17.2226 31.8043 16.3184 31.5899 15.7533 31.9115L0.72091 40.1659C0.0427568 40.4875 -0.183294 41.2379 0.155782 41.8811C0.607884 42.5243 1.39906 42.7387 2.07722 42.3099L17.1096 34.1627ZM15.7533 24.4075C16.3184 24.7291 17.2226 24.5147 17.5617 23.9787C17.9008 23.3355 17.6747 22.5851 17.1096 22.1563L2.07722 14.0091C1.39906 13.5803 0.607884 13.7947 0.155782 14.4379C-0.183294 15.0811 0.0427568 15.8315 0.72091 16.1531L15.7533 24.4075ZM23.8911 18.5115C23.8911 19.1547 24.4563 19.7979 25.2474 19.7979C26.0386 19.7979 26.6037 19.1547 26.6037 18.5115V14.9739C26.6037 14.2235 26.0386 13.6875 25.2474 13.6875C24.4563 13.6875 23.8911 14.2235 23.8911 14.9739V18.5115ZM23.8911 7.25551C23.8911 8.00591 24.4563 8.54191 25.2474 8.54191C26.0386 8.54191 26.6037 8.00591 26.6037 7.25551V2.00271C26.6037 1.25231 26.0386 0.716309 25.2474 0.716309C24.4563 0.716309 23.8911 1.25231 23.8911 2.00271V7.25551ZM33.3853 22.1563C32.8201 22.5851 32.5941 23.3355 32.9332 23.9787C33.2722 24.5147 34.1765 24.7291 34.7416 24.4075L49.774 16.1531C50.4521 15.8315 50.6782 15.0811 50.3391 14.4379C49.887 13.7947 49.0958 13.5803 48.4177 14.0091L33.3853 22.1563Z" fill="#FFBA24"/>
<path d="M25.2465 15.5713C27.8151 15.5713 29.8974 13.6125 29.8974 11.1963C29.8974 8.78005 27.8151 6.82129 25.2465 6.82129C22.678 6.82129 20.5957 8.78005 20.5957 11.1963C20.5957 13.6125 22.678 15.5713 25.2465 15.5713Z" fill="#EE3860"/>
<path d="M25.2465 50.5564C27.8151 50.5564 29.8974 48.568 29.8974 46.1151C29.8974 43.6623 27.8151 41.6738 25.2465 41.6738C22.678 41.6738 20.5957 43.6623 20.5957 46.1151C20.5957 48.568 22.678 50.5564 25.2465 50.5564Z" fill="#FFC10E"/>
<path d="M41.5903 41.6653C44.1589 41.6653 46.2411 39.6769 46.2411 37.224C46.2411 34.7712 44.1589 32.7827 41.5903 32.7827C39.0217 32.7827 36.9395 34.7712 36.9395 37.224C36.9395 39.6769 39.0217 41.6653 41.5903 41.6653Z" fill="#24C4F8"/>
<path d="M59.5443 6.51169C59.4596 6.37699 59.3495 6.26117 59.2204 6.1707C59.0912 6.08023 58.9457 6.0168 58.792 5.98442L49.4238 4.02535C49.2504 3.98657 49.069 4.00258 48.9033 4.07114C48.4456 4.27901 48.1938 4.88875 48.5121 5.38311L49.8409 7.47996L50.8269 9.03276L50.895 9.1437L41.1475 15.6971C41.0499 15.7621 40.9656 15.8462 40.8995 15.9444C40.8333 16.0426 40.7867 16.1529 40.7623 16.2691C40.7379 16.3854 40.7361 16.5054 40.7571 16.6218C40.7782 16.7382 40.8216 16.849 40.8848 16.9477L42.7886 19.9427C42.9152 20.1417 43.1143 20.2803 43.3422 20.328C43.5702 20.3757 43.8083 20.3285 44.0044 20.1969L53.7543 13.6444L54.7888 15.2737L56.1519 17.4246C56.5612 18.0621 57.5595 17.854 57.7183 17.0978L59.7138 7.43318C59.7837 7.10006 59.7131 6.77066 59.5454 6.50652L59.5443 6.51169ZM38.5513 18.2507C38.5045 18.1766 38.4436 18.113 38.3724 18.0634C38.3012 18.0137 38.2209 17.9791 38.1362 17.9614C38.0515 17.9437 37.964 17.9432 37.8788 17.9601C37.7936 17.9771 37.7123 18.011 37.6395 18.06L36.5316 18.8027C36.4588 18.8515 36.3959 18.9145 36.3465 18.988C36.2972 19.0615 36.2624 19.1441 36.2441 19.2311C36.2259 19.318 36.2245 19.4076 36.2401 19.4947C36.2557 19.5818 36.2879 19.6647 36.335 19.7386L38.4765 23.1121C38.5234 23.1862 38.5843 23.2498 38.6555 23.2995C38.7267 23.3492 38.807 23.3837 38.8917 23.4014C38.9764 23.4191 39.0639 23.4197 39.1491 23.4027C39.2343 23.3857 39.3156 23.3519 39.3884 23.3028L40.4963 22.5602C40.6426 22.4614 40.7455 22.3077 40.7822 22.1328C40.819 21.9579 40.7867 21.7759 40.6924 21.6268L38.5513 18.2507ZM34.1212 21.227C34.0265 21.0783 33.8776 20.9746 33.7071 20.9389C33.5367 20.9033 33.3586 20.9386 33.212 21.0369L32.1035 21.7821C31.9572 21.8808 31.8543 22.0345 31.8176 22.2095C31.7808 22.3844 31.8131 22.5664 31.9074 22.7154L34.0491 26.0887C34.096 26.1627 34.1568 26.2263 34.228 26.276C34.2992 26.3257 34.3795 26.3606 34.4642 26.3783C34.5489 26.396 34.6364 26.3962 34.7216 26.3792C34.8068 26.3623 34.8881 26.3284 34.9609 26.2793L36.0688 25.5367C36.2151 25.438 36.318 25.2842 36.3547 25.1093C36.3915 24.9344 36.3592 24.7524 36.2649 24.6034L34.1212 21.227Z" fill="#F89B1A"/>
</svg>
