<svg width="50" height="50" viewBox="0 0 50 50" fill="none" xmlns="http://www.w3.org/2000/svg">
<circle cx="25" cy="25" r="25" fill="url(#paint0_linear_288_697)"/>
<path d="M33.1874 21.2361C33.3805 21.3719 33.6013 21.4646 33.8333 21.5075C34.0652 21.5505 34.3027 21.543 34.5319 21.4854C34.7611 21.4278 34.9749 21.3214 35.1583 21.1736C35.3416 21.0259 35.4916 20.84 35.5972 20.629C36.3124 19.196 36.7638 17.6466 36.9305 16.0541C36.9735 15.6491 36.9305 15.2394 36.8013 14.853C36.6722 14.4664 36.4624 14.112 36.1847 13.8141C35.9222 13.5322 35.6055 13.3073 35.2527 13.1534C34.8999 12.9995 34.5194 12.9199 34.1347 12.9194H32.4958C32.2652 12.9185 32.0388 12.9656 31.8277 13.0579C31.618 13.1502 31.4291 13.2857 31.2749 13.4555C31.1208 13.6254 31.0027 13.8258 30.9305 14.0438C30.8583 14.2618 30.8333 14.4925 30.8555 14.7212C30.9069 15.1359 31.1097 15.5168 31.4263 15.7902C31.7416 16.0637 32.1472 16.2103 32.5652 16.202H33.6055C33.4499 17.2093 33.143 18.1872 32.6944 19.1023C32.5097 19.4582 32.4583 19.8684 32.5485 20.2593C32.6388 20.6504 32.8652 20.9974 33.1874 21.2361Z" fill="white"/>
<path d="M25.5708 21.236C25.7639 21.3721 25.9833 21.4649 26.2153 21.508C26.4486 21.5512 26.6861 21.5435 26.9153 21.486C27.1444 21.4284 27.3583 21.322 27.5417 21.1741C27.7264 21.0261 27.8764 20.8403 27.9819 20.629C28.6958 19.196 29.1472 17.6465 29.3139 16.0541C29.3569 15.6491 29.3125 15.2394 29.1833 14.853C29.0555 14.4664 28.8444 14.1122 28.5667 13.8141C28.3055 13.5325 27.9875 13.3078 27.6347 13.154C27.2833 13.0001 26.9028 12.9203 26.5181 12.9194H24.8778C24.6486 12.9186 24.4208 12.9657 24.2111 13.0583C24.0014 13.1506 23.8125 13.286 23.6583 13.4559C23.5042 13.6256 23.3861 13.8259 23.3139 14.0439C23.2417 14.2618 23.2153 14.4927 23.2389 14.7212C23.2903 15.1359 23.493 15.5168 23.8083 15.7902C24.125 16.0636 24.5305 16.2103 24.9472 16.202H25.9875C25.8333 17.2093 25.5264 18.1872 25.0778 19.1023C24.893 19.4582 24.8403 19.8684 24.9305 20.2593C25.0208 20.6502 25.2472 20.9963 25.5694 21.2349L25.5708 21.236Z" fill="white"/>
<path d="M15.2264 18.0847V17.762C15.2264 17.3339 15.3972 16.9234 15.6986 16.6209C16.0014 16.3183 16.4111 16.1482 16.8389 16.1477H19.2583C19.6861 16.1477 20.0958 15.9777 20.3986 15.675C20.7014 15.3723 20.8708 14.9617 20.8708 14.5337C20.8708 14.1055 20.7014 13.695 20.3986 13.3922C20.0958 13.0896 19.6861 12.9194 19.2583 12.9194H16.8389C15.5556 12.9194 14.325 13.4299 13.4181 14.3381C12.5097 15.2465 12 16.4783 12 17.7629V29.4672C12 30.7516 12.5097 31.9837 13.4181 32.8919C14.325 33.8003 15.5556 34.3105 16.8389 34.3105H19.1736L21.275 36.5183C21.725 37.0024 22.275 37.3826 22.8875 37.6326C23.6917 37.9527 24.5736 38.0301 25.4208 37.8549C26.2694 37.6799 27.0486 37.2602 27.6611 36.6476L30.0083 34.3105H32.1611C33.4445 34.3105 34.675 33.8003 35.5819 32.8919C36.4903 31.9837 37 30.7516 37 29.4672V25.8317C37 25.6197 36.9583 25.4098 36.8778 25.214C36.7958 25.018 36.6778 24.8401 36.5278 24.6902C36.3778 24.5404 36.2 24.4214 36.0042 24.3403C35.8083 24.2593 35.5986 24.2176 35.3875 24.2176C35.175 24.2176 34.9653 24.2593 34.7708 24.3403C34.575 24.4214 34.3972 24.5404 34.2472 24.6902C34.0972 24.8401 33.9778 25.018 33.8972 25.214C33.8167 25.4098 33.775 25.6197 33.775 25.8317V29.4641C33.775 29.8921 33.6042 30.3026 33.3028 30.6054C33 30.908 32.5903 31.0782 32.1625 31.0782H30.0097C29.5861 31.0779 29.1667 31.1612 28.775 31.3233C28.3833 31.4853 28.0278 31.7229 27.7278 32.0228L25.3653 34.3877C25.2569 34.4979 25.1278 34.5855 24.9847 34.6453C24.8431 34.705 24.6903 34.7358 24.5361 34.7358C24.3819 34.7358 24.2292 34.705 24.0861 34.6453C23.9444 34.5855 23.8153 34.4979 23.7069 34.3877L21.5056 32.0873C21.2056 31.7699 20.8444 31.5169 20.4431 31.3434C20.0431 31.1701 19.6111 31.0798 19.175 31.0782H16.8389C16.4111 31.0782 16.0014 30.908 15.6986 30.6054C15.3958 30.3026 15.2264 29.8921 15.2264 29.4641V18.0847Z" fill="white"/>
<defs>
<linearGradient id="paint0_linear_288_697" x1="25" y1="0" x2="25" y2="50" gradientUnits="userSpaceOnUse">
<stop stop-color="#0177B6"/>
<stop offset="1" stop-color="#0794DF"/>
</linearGradient>
</defs>
</svg>
