<svg width="178" height="68" viewBox="0 0 178 68" fill="none" xmlns="http://www.w3.org/2000/svg">
<path d="M52.8052 13.9177C54.1241 14.491 55.2359 15.2495 56.1403 16.1933C54.6072 14.5153 52.648 13.0817 50.263 11.8922L34.433 4.26456C30.0013 2.34705 25.4101 2.53543 20.659 4.82972C13.9761 8.44206 8.21926 12.8483 3.38867 18.0484C0.135326 21.5498 -0.775451 26.1188 0.656338 31.7554L4.24659 48.2477C4.90006 50.3899 5.51067 52.1156 6.07844 53.4251C4.97154 50.4881 5.70314 46.4912 8.27318 41.4343C8.86836 40.4441 9.48443 39.4765 10.1214 38.5312C12.6346 34.7954 16.3951 30.6737 21.403 26.1664C24.0455 23.787 26.6653 21.72 29.2623 19.9654C32.0711 18.0663 35.1211 16.3465 38.4126 14.8058C39.3316 14.3748 40.2606 14.0116 41.1998 13.7163C41.9866 13.4708 42.7804 13.2725 43.5816 13.1214C45.2699 12.8055 46.9094 12.7185 48.5003 12.8606C50.0665 12.9989 51.5015 13.3513 52.8052 13.9177Z" fill="url(#paint0_linear_1326_1410)"/>
<path d="M54.6576 58.9254C55.4048 58.5842 56.0776 58.1923 56.6764 57.7493C53.7375 59.0757 49.4286 58.2129 43.7496 55.1608L10.1215 38.5303C9.48454 39.4755 8.86847 40.4432 8.2733 41.4335C5.70325 46.4902 4.97167 50.4873 6.07855 53.4242C6.252 53.8244 6.44032 54.2116 6.64347 54.5858C6.64735 54.5924 6.6522 54.6009 6.65801 54.611C7.54765 56.2329 8.78553 57.6891 10.3716 58.9792C12.4669 60.6771 15.0248 62.2001 18.0456 63.548C20.3337 64.5701 23.3173 65.6604 26.9962 66.8192C29.1398 67.5024 30.9971 67.8883 32.5682 67.9771C34.3857 68.0778 36.1835 67.8194 37.9612 67.2019L54.6576 58.9254Z" fill="url(#paint1_linear_1326_1410)"/>
<path d="M56.1404 16.1932C55.236 15.2494 54.1245 14.4909 52.8056 13.9176C51.5018 13.3512 50.0668 12.9989 48.5006 12.8605C46.9098 12.7185 45.2701 12.8054 43.5819 13.1214C42.7807 13.2724 41.9867 13.4707 41.2 13.7162C45.7278 28.1123 46.5778 41.9275 43.7497 55.1616C49.4287 58.2136 53.7376 59.0765 56.6765 57.7501C58.7767 56.1855 60.0969 53.9963 60.637 51.1824C61.4584 46.9517 61.7057 41.8785 61.3791 35.9625C61.092 30.7337 60.4554 26.0782 59.4688 21.9957C59.2724 21.1844 58.9712 20.3934 58.5652 19.6225C58.2484 19.0169 57.8113 18.3297 57.2544 17.561C56.9134 17.0876 56.542 16.6317 56.1404 16.1932Z" fill="url(#paint2_linear_1326_1410)"/>
<path d="M36.9045 24.0102C36.2038 24.269 35.5778 24.6315 35.0266 25.0973C34.4556 25.5825 33.9561 26.1715 33.528 26.8638C33.1 27.5496 32.7139 28.339 32.3702 29.2321L32.2242 24.6702L32.0295 24.1364L31.4944 23.9908H30.3851V45.7124H32.4772V31.6682L33.5475 29.067C33.9302 28.3099 34.3778 27.6822 34.8902 27.1841C35.4222 26.6728 36.0092 26.2911 36.6515 26.0387C37.3065 25.7799 38.0526 25.6505 38.8894 25.6505L41.1176 25.9514C41.3121 25.9514 41.4452 25.8381 41.5166 25.6116L41.6915 24.1559L40.5338 23.7384L39.2105 23.6317C38.3542 23.6317 37.5854 23.7579 36.9045 24.0102ZM60.4999 26.1262C59.7281 25.3109 58.8167 24.6897 57.7659 24.2626C56.7085 23.855 55.5668 23.6512 54.3407 23.6512C52.8035 23.6512 51.4217 23.9198 50.1958 24.4568C48.9827 25.0002 47.9579 25.7476 47.1211 26.6987C46.2777 27.6499 45.6356 28.7791 45.1945 30.086C44.7405 31.4062 44.5134 32.8491 44.5134 34.415C44.5134 36.2591 44.7533 37.8928 45.2334 39.3163C45.707 40.7528 46.3782 41.9692 47.2476 42.9658C48.1296 43.9558 49.1838 44.7064 50.4097 45.2175C51.6359 45.7351 52.9883 45.9941 54.4672 45.9941L56.9291 45.7513L59.1961 45.1205L61.113 44.1305C61.6968 43.7616 62.1606 43.3572 62.5043 42.9173L61.9498 42.2184L61.5022 42.0049L59.4879 43.1792L57.4835 43.9849C56.6727 44.2113 55.7257 44.3247 54.6424 44.3247C53.4164 44.3247 52.3039 44.1207 51.3051 43.713C50.3126 43.286 49.466 42.6519 48.7653 41.8107C48.0649 40.9696 47.5231 39.9311 47.1404 38.6952C46.7708 37.4593 46.586 36.0326 46.586 34.415V33.9879H62.4168L62.8645 33.8132L63.0006 33.1532C63.0006 31.6327 62.78 30.2834 62.339 29.1059C61.8784 27.9282 61.2655 26.935 60.4999 26.1262ZM59.2351 27.1841C59.8318 27.8247 60.2956 28.6076 60.6264 29.533C60.9508 30.4582 61.113 31.5031 61.113 32.668H46.693C46.8227 31.529 47.0853 30.4971 47.4811 29.5717C47.8638 28.6658 48.3826 27.886 49.0378 27.2327C49.693 26.5791 50.465 26.0744 51.3537 25.7185C52.2358 25.3627 53.2381 25.1847 54.3602 25.1847C55.3593 25.1847 56.2707 25.3627 57.0944 25.7185C57.9248 26.0614 58.6383 26.55 59.2351 27.1841ZM68.0408 27.0772L68.43 27.6985L68.683 27.9994L69.0723 28.1061C69.2993 28.1061 69.5684 27.9573 69.8797 27.6596L71.1447 26.6987L73.0033 25.7378C73.7427 25.4532 74.641 25.3109 75.6984 25.3109C77.3915 25.3109 78.6726 25.8511 79.5419 26.9318C80.4111 28.0122 80.8457 29.5554 80.8457 31.5614V33.8423C78.3808 33.894 76.2726 34.0978 74.5212 34.4537C72.7503 34.7967 71.3102 35.2593 70.2009 35.8417C69.0787 36.424 68.2516 37.1067 67.7197 37.8896C67.1942 38.6856 66.9316 39.5395 66.9316 40.4519C66.9316 41.442 67.0971 42.2928 67.4279 43.0045C67.7521 43.7034 68.1933 44.2793 68.7511 44.7323C69.2895 45.1852 69.9091 45.5184 70.6095 45.7319C71.3037 45.9455 72.0237 46.0522 72.7696 46.0522C73.6649 46.0522 74.4822 45.9682 75.2216 45.7999C75.9611 45.6252 76.6521 45.376 77.2942 45.0525L79.1526 43.8781L80.9332 42.3058L81.2543 45.0914C81.3516 45.5054 81.6209 45.7124 82.0619 45.7124H82.8987V31.5614C82.8987 30.3514 82.7495 29.2547 82.4511 28.2712C82.1657 27.2941 81.7311 26.4626 81.1473 25.7767C80.5764 25.0844 79.85 24.5539 78.9678 24.185C78.0986 23.8161 77.08 23.6317 75.9124 23.6317C74.3167 23.6317 72.8896 23.923 71.6313 24.5053C70.3793 25.0877 69.1825 25.945 68.0408 27.0772ZM69.6462 38.2972C70.1134 37.6954 70.8334 37.1747 71.8063 36.7345C72.773 36.2946 74.0054 35.9484 75.5038 35.696C76.9958 35.4503 78.7763 35.2852 80.8457 35.2011V40.8984L79.3082 42.3445L77.5958 43.5191C76.999 43.8424 76.3438 44.0982 75.6303 44.2858C74.9168 44.4669 74.1417 44.5576 73.3049 44.5576L71.6506 44.3052C71.1254 44.1499 70.6646 43.9008 70.2691 43.5578C69.8669 43.2149 69.5457 42.7813 69.3058 42.2573C69.0657 41.7203 68.9458 41.0894 68.9458 40.3646C68.9458 39.5945 69.1793 38.9054 69.6462 38.2972ZM92.1229 13.9453H90.0308V45.7124H92.1229V13.9453Z" fill="black"/>
<path d="M111.476 23.9908H109.404V45.7124H111.476V23.9908ZM101.785 13.9453H99.6932V45.7124H101.785V13.9453ZM112.226 15.7603L111.797 15.1197L111.175 14.7218L110.435 14.5665L109.706 14.7218L109.083 15.1197L108.655 15.7603L108.509 16.5077L108.655 17.2356L109.083 17.8277L109.706 18.2547L110.435 18.4003L111.175 18.2547L111.797 17.8277L112.226 17.2356L112.372 16.5077L112.226 15.7603ZM134.352 24.1364L134.07 24.5248L126.85 41.6651L126.295 43.5578L125.76 41.6651L118.579 24.5248L118.297 24.1559L117.811 23.9908H116.166L125.352 45.7124H127.19L136.385 23.9908H134.8L134.352 24.1364ZM155.495 26.1262C154.724 25.3109 153.812 24.6897 152.761 24.2626C151.704 23.855 150.562 23.6512 149.336 23.6512C147.799 23.6512 146.417 23.9198 145.191 24.4568C143.978 25.0002 142.953 25.7476 142.117 26.6987C141.273 27.6499 140.631 28.7791 140.19 30.086C139.736 31.4062 139.509 32.8491 139.509 34.415C139.509 36.2591 139.749 37.8928 140.229 39.3163C140.702 40.7528 141.374 41.9692 142.243 42.9658C143.125 43.9558 144.179 44.7064 145.405 45.2175C146.631 45.7351 147.984 45.9941 149.463 45.9941L151.924 45.7513L154.192 45.1205L156.108 44.1305C156.692 43.7616 157.156 43.3572 157.5 42.9173L156.945 42.2184L156.498 42.0049L154.484 43.1792L152.479 43.9849C151.668 44.2113 150.721 44.3247 149.638 44.3247C148.412 44.3247 147.3 44.1207 146.3 43.713C145.308 43.286 144.462 42.6519 143.761 41.8107C143.06 40.9696 142.519 39.9311 142.136 38.6952C141.766 37.4593 141.581 36.0326 141.581 34.415V33.9879H157.412L157.86 33.8132L157.996 33.1532C157.996 31.6327 157.776 30.2834 157.335 29.1059C156.874 27.9282 156.261 26.935 155.495 26.1262ZM154.231 27.1841C154.827 27.8247 155.291 28.6076 155.622 29.533C155.946 30.4582 156.108 31.5031 156.108 32.668H141.688C141.818 31.529 142.081 30.4971 142.476 29.5717C142.859 28.6658 143.378 27.886 144.033 27.2327C144.689 26.5791 145.46 26.0744 146.349 25.7185C147.231 25.3627 148.234 25.1847 149.356 25.1847C150.355 25.1847 151.266 25.3627 152.09 25.7185C152.92 26.0614 153.634 26.55 154.231 27.1841ZM165.916 26.4658C166.371 26.0776 166.925 25.7703 167.58 25.5438C168.222 25.3173 168.943 25.204 169.74 25.204C170.61 25.204 171.349 25.2979 171.959 25.4856L173.506 26.0971L174.508 26.7181L175.121 26.9705C175.335 26.9705 175.501 26.8734 175.617 26.6794L176.065 25.9514C175.209 25.1685 174.268 24.5862 173.243 24.2044C172.218 23.8355 171.044 23.6512 169.721 23.6512C168.605 23.6512 167.6 23.8064 166.705 24.117C165.822 24.4469 165.067 24.8806 164.438 25.4176C163.828 25.9611 163.351 26.5855 163.007 27.2909C162.683 28.0026 162.521 28.7434 162.521 29.5135C162.521 30.4194 162.689 31.1731 163.027 31.7749C163.383 32.3831 163.847 32.8942 164.418 33.3085C164.989 33.7356 165.631 34.0914 166.345 34.3761L170.791 35.8222L172.728 36.6764C173.298 37.0128 173.756 37.4172 174.1 37.8896C174.456 38.3749 174.635 38.9799 174.635 39.7046C174.635 40.3582 174.515 40.9825 174.275 41.5778C174.028 42.1602 173.671 42.6713 173.204 43.1114C172.744 43.5514 172.167 43.9008 171.472 44.1596C170.759 44.4119 169.945 44.5381 169.03 44.5381C168.051 44.5381 167.233 44.4184 166.578 44.179L164.885 43.4316L163.825 42.6844C163.552 42.4448 163.315 42.3251 163.114 42.3251L162.735 42.4125L162.491 42.6844L162.005 43.4121C162.887 44.2081 163.876 44.8454 164.973 45.3243C166.082 45.8095 167.408 46.0522 168.952 46.0522C170.178 46.0522 171.262 45.8807 172.202 45.5377C173.156 45.1885 173.954 44.7128 174.596 44.111C175.251 43.5158 175.747 42.8137 176.084 42.0049C176.415 41.1961 176.581 40.3129 176.581 39.3552C176.581 38.4946 176.409 37.757 176.065 37.1422C175.708 36.5339 175.251 36.0164 174.693 35.5893C174.129 35.1622 173.483 34.8064 172.757 34.5217L168.31 33.0465L166.364 32.2214C165.806 31.9043 165.349 31.5193 164.992 31.0664C164.655 30.6134 164.486 30.0441 164.486 29.3582C164.486 28.8082 164.606 28.284 164.846 27.7857C165.106 27.2746 165.462 26.8347 165.916 26.4658Z" fill="#10DCF6"/>
<path d="M80.3365 54.2419C79.2662 54.2419 78.4164 54.601 77.7873 55.3193C77.1514 56.031 76.8337 56.9919 76.8337 58.2019C76.8337 59.3277 77.1353 60.2272 77.7386 60.9002C78.3353 61.5666 79.1462 61.8998 80.1712 61.8998C81.3971 61.8998 82.2988 61.5213 82.876 60.7642C83.4598 60.0072 83.7518 59.0529 83.7518 57.901C83.7518 56.6974 83.421 55.7851 82.7594 55.164C82.0977 54.5492 81.2901 54.2419 80.3365 54.2419ZM78.6434 56.1444C78.9873 55.5813 79.5387 55.2999 80.2977 55.2999C81.1538 55.2999 81.7571 55.6298 82.1074 56.2898C82.328 56.7105 82.4382 57.2573 82.4382 57.9301C82.4382 58.6677 82.2858 59.3408 81.9809 59.949C81.6696 60.5572 81.1051 60.8613 80.2878 60.8613C79.5355 60.8613 78.9873 60.6057 78.6434 60.0946C78.2997 59.5835 78.1278 58.946 78.1278 58.1825C78.1278 57.3867 78.2997 56.7073 78.6434 56.1444ZM74.878 54.4457L72.8637 60.3081L70.8593 54.4457H69.4387L72.2021 61.8611L71.6378 63.1421L71.3556 63.4236C71.2452 63.4948 71.0767 63.5305 70.8497 63.5305L70.587 63.5111L70.1102 63.4043V64.501L70.4605 64.5787L70.8692 64.5981C71.5956 64.5981 72.1082 64.3975 72.4064 63.9963C72.7048 63.5887 73.2172 62.4661 73.9438 60.6284L76.2694 54.4457H74.878ZM91.1759 54.4457H89.9207V57.9883C89.9207 58.6872 89.8396 59.2405 89.6775 59.6481C89.366 60.3987 88.7854 60.774 87.9358 60.774C87.3389 60.774 86.9335 60.5572 86.7195 60.1237C86.6027 59.8908 86.5443 59.5931 86.5443 59.2308V54.4457H85.2599V59.3375C85.2599 59.9522 85.3604 60.4441 85.5615 60.8128C85.9442 61.4986 86.6578 61.8416 87.7023 61.8416C88.3768 61.8416 88.9477 61.6539 89.4147 61.2788C89.6548 61.091 89.8527 60.8613 90.0083 60.5895L89.9985 61.6475H91.1759V54.4457ZM114.509 54.6495C114.016 54.4102 113.507 54.2904 112.981 54.2904C111.93 54.2904 111.084 54.6495 110.442 55.3679C109.793 56.0924 109.468 57.0308 109.468 58.1825C109.468 59.3602 109.79 60.2758 110.432 60.9293C111.074 61.5763 111.856 61.8998 112.777 61.8998C113.16 61.8998 113.5 61.8643 113.798 61.7931C114.356 61.6701 114.823 61.4274 115.199 61.0651C115.427 60.8645 115.634 60.6025 115.822 60.279C116.004 59.949 116.111 59.6513 116.143 59.3861H114.908C114.823 59.703 114.671 59.9879 114.45 60.2401C114.061 60.6543 113.542 60.8613 112.893 60.8613C112.193 60.8613 111.677 60.638 111.346 60.1917C111.016 59.7516 110.837 59.166 110.811 58.4348H116.25C116.25 57.7101 116.211 57.1795 116.134 56.8431C116.049 56.3642 115.884 55.9438 115.637 55.5813C115.378 55.1996 115.002 54.889 114.509 54.6495ZM112.903 55.3388C113.695 55.3388 114.262 55.6298 114.606 56.2122C114.788 56.5293 114.904 56.9498 114.956 57.474H110.84C110.866 56.8529 111.071 56.3448 111.454 55.9502C111.843 55.5426 112.326 55.3388 112.903 55.3388ZM101.86 56.4744C101.86 56.6814 101.834 56.8367 101.782 56.9402C101.684 57.1408 101.49 57.2573 101.198 57.2896L99.1935 57.5321C98.4929 57.6164 97.9253 57.8429 97.4908 58.2116C97.0626 58.5805 96.8484 59.0948 96.8484 59.7548C96.8484 60.3696 97.0691 60.8808 97.5103 61.2884C97.9449 61.6896 98.5091 61.8902 99.2032 61.8902C99.7805 61.8902 100.309 61.7704 100.789 61.5311C101.269 61.298 101.636 61.0198 101.889 60.6964C101.934 60.9811 102.006 61.2009 102.103 61.3564C102.304 61.6539 102.618 61.8027 103.047 61.8027L103.465 61.7835L103.913 61.6766V60.7837L103.689 60.8226L103.504 60.8322C103.329 60.8322 103.215 60.7933 103.163 60.7157C103.112 60.638 103.086 60.5377 103.086 60.4148V56.2607C103.086 55.5813 102.813 55.0798 102.268 54.7564C101.717 54.4329 101.003 54.271 100.128 54.271C99.3751 54.271 98.7103 54.4457 98.1329 54.7951C97.5622 55.1446 97.2637 55.7624 97.2378 56.6489H98.4054C98.4573 56.2802 98.5578 55.9987 98.707 55.8046C98.986 55.4682 99.4529 55.2999 100.108 55.2999C100.666 55.2999 101.101 55.3937 101.412 55.5813C101.71 55.7624 101.86 56.0601 101.86 56.4744ZM101.237 58.2214C101.477 58.163 101.675 58.0854 101.83 57.9883V58.959C101.83 59.703 101.48 60.2369 100.78 60.5604C100.364 60.761 99.9362 60.8613 99.4952 60.8613C99.132 60.8613 98.8172 60.761 98.5514 60.5604C98.2918 60.3598 98.1621 60.0848 98.1621 59.7355C98.1621 59.276 98.3567 58.9396 98.7459 58.7261C98.9729 58.6031 99.3136 58.5125 99.7676 58.4543L101.237 58.2214ZM107.085 54.8146C106.702 55.1574 106.462 55.4487 106.365 55.688V54.4457H105.168V61.6475H106.423V57.5031C106.423 56.9919 106.595 56.5422 106.939 56.154C107.276 55.7592 107.759 55.5618 108.389 55.5618L108.807 55.6008V54.3195L108.515 54.2904C108.482 54.2904 108.444 54.2904 108.398 54.2904C107.899 54.2904 107.461 54.4652 107.085 54.8146ZM122.04 52.4367V54.4457H121.028V55.4357H122.04V60.2013C122.04 60.6607 122.147 61.036 122.361 61.3271C122.569 61.6184 122.964 61.764 123.548 61.764L124.064 61.7349L124.511 61.6475V60.6866L124.064 60.7157C123.837 60.7157 123.675 60.6898 123.577 60.6381C123.402 60.554 123.315 60.3857 123.315 60.1333V55.4357H124.511V54.4457H123.315V52.4367H122.04ZM127.022 51.7378H125.766V61.6475H127.022V57.833C127.022 56.869 127.232 56.2154 127.654 55.8726C128.076 55.5295 128.546 55.358 129.065 55.358C129.694 55.358 130.122 55.5554 130.349 55.9502C130.492 56.1961 130.563 56.5843 130.563 57.1149V61.6475H131.858V57.0274C131.858 56.3223 131.75 55.7691 131.536 55.3679C131.154 54.6367 130.421 54.271 129.337 54.271C128.734 54.271 128.228 54.4006 127.819 54.6593C127.586 54.8082 127.32 55.0637 127.022 55.426V51.7378ZM138.318 54.6495C137.825 54.4102 137.316 54.2904 136.791 54.2904C135.74 54.2904 134.893 54.6495 134.251 55.3679C133.602 56.0924 133.278 57.0308 133.278 58.1825C133.278 59.3602 133.599 60.2758 134.242 60.9293C134.884 61.5763 135.665 61.8998 136.586 61.8998C136.969 61.8998 137.31 61.8643 137.608 61.7931C138.166 61.6701 138.633 61.4274 139.009 61.0651C139.236 60.8645 139.444 60.6025 139.632 60.279C139.813 59.949 139.921 59.6513 139.953 59.3861H138.717C138.633 59.703 138.481 59.9879 138.26 60.2401C137.871 60.6543 137.352 60.8613 136.703 60.8613C136.003 60.8613 135.487 60.638 135.156 60.1917C134.825 59.7516 134.647 59.166 134.621 58.4348H140.06C140.06 57.7101 140.021 57.1795 139.943 56.8431C139.859 56.3642 139.694 55.9438 139.447 55.5813C139.188 55.1996 138.811 54.889 138.318 54.6495ZM136.713 55.3388C137.504 55.3388 138.072 55.6298 138.416 56.2122C138.597 56.5293 138.714 56.9498 138.766 57.474H134.65C134.676 56.8529 134.88 56.3448 135.263 55.9502C135.652 55.5426 136.136 55.3388 136.713 55.3388ZM158.907 54.2419C157.837 54.2419 156.987 54.601 156.358 55.3193C155.722 56.031 155.404 56.9919 155.404 58.2019C155.404 59.3277 155.706 60.2272 156.309 60.9002C156.906 61.5666 157.717 61.8998 158.742 61.8998C159.968 61.8998 160.87 61.5213 161.447 60.7642C162.031 60.0072 162.323 59.0529 162.323 57.901C162.323 56.6974 161.992 55.7851 161.33 55.164C160.668 54.5492 159.861 54.2419 158.907 54.2419ZM157.214 56.1444C157.558 55.5813 158.109 55.2999 158.868 55.2999C159.725 55.2999 160.328 55.6298 160.678 56.2898C160.899 56.7105 161.009 57.2573 161.009 57.9301C161.009 58.6677 160.856 59.3408 160.552 59.949C160.24 60.5572 159.676 60.8613 158.859 60.8613C158.106 60.8613 157.558 60.6057 157.214 60.0946C156.87 59.5835 156.698 58.946 156.698 58.1825C156.698 57.3867 156.87 56.7073 157.214 56.1444ZM150.491 54.4457H149.08L147.63 60.1237L146.19 54.4457H144.818L146.969 61.6475H148.272L149.751 56.0764L151.269 61.6475H152.573L154.743 54.4457H153.488L151.96 60.0848L150.491 54.4457ZM167.528 55.6008V54.3195L167.236 54.2904C167.204 54.2904 167.165 54.2904 167.12 54.2904C166.62 54.2904 166.182 54.4652 165.806 54.8146C165.423 55.1574 165.183 55.4487 165.086 55.688V54.4457H163.889V61.6475H165.144V57.5031C165.144 56.9919 165.316 56.5422 165.66 56.154C165.997 55.7592 166.481 55.5618 167.11 55.5618L167.528 55.6008ZM169.902 51.7767H168.647V61.6475H169.902V51.7767ZM177.852 51.7378H176.645V55.3775C176.366 55.0411 176.113 54.805 175.886 54.669C175.504 54.4361 175.027 54.3195 174.456 54.3195C173.431 54.3195 172.64 54.7047 172.082 55.4746C171.531 56.2445 171.255 57.1536 171.255 58.2019C171.255 59.3213 171.56 60.2176 172.17 60.8904C172.773 61.5634 173.49 61.8998 174.32 61.8998C174.832 61.8998 175.29 61.8027 175.692 61.6088C176.087 61.4082 176.431 61.0878 176.723 60.6479V61.6475H177.852V51.7378ZM173.172 56.0764C173.561 55.6104 174.07 55.3775 174.699 55.3775C175.264 55.3775 175.737 55.5975 176.12 56.0375C176.503 56.471 176.694 57.1408 176.694 58.0467C176.694 58.9526 176.509 59.6449 176.139 60.1237C175.77 60.609 175.293 60.8517 174.709 60.8517C173.963 60.8517 173.425 60.5895 173.094 60.0655C172.75 59.5478 172.578 58.904 172.578 58.1339C172.578 57.228 172.776 56.5422 173.172 56.0764Z" fill="white"/>
<path d="M31.8508 8.01917C31.8508 7.87035 31.7957 7.74417 31.6855 7.64064C31.5881 7.53713 31.4649 7.48535 31.3157 7.48535C31.1664 7.48535 31.0367 7.53713 30.9265 7.64064C30.8292 7.74417 30.7805 7.87035 30.7805 8.01917C30.7805 8.168 30.8292 8.29417 30.9265 8.3977C31.0367 8.50123 31.1664 8.55299 31.3157 8.55299C31.4649 8.55299 31.5881 8.50123 31.6855 8.3977C31.7957 8.29417 31.8508 8.168 31.8508 8.01917Z" fill="white"/>
<path d="M31.759 5.27887C31.2706 6.85676 30.146 7.53598 28.3851 7.31651L24.5948 6.69885L28.6158 7.56934C30.1886 8.04302 30.8705 9.15924 30.6618 10.918L30.0394 14.7156L30.8951 10.7014C31.3812 9.1347 32.5058 8.45549 34.269 8.66376L38.0592 9.28143L34.0351 8.42773C32.4645 7.94285 31.7891 6.8221 32.0091 5.06547L32.6283 1.28467L31.759 5.27887Z" fill="white" fill-opacity="0.301961"/>
<path d="M10.9513 48.9405C10.9513 48.7917 10.8961 48.6655 10.7859 48.562C10.6886 48.4585 10.5653 48.4067 10.4161 48.4067C10.2669 48.4067 10.1372 48.4585 10.0269 48.562C9.92963 48.6655 9.88098 48.7917 9.88098 48.9405C9.88098 49.0894 9.92963 49.2156 10.0269 49.3191C10.1372 49.4226 10.2669 49.4743 10.4161 49.4743C10.5653 49.4743 10.6886 49.4226 10.7859 49.3191C10.8961 49.2156 10.9513 49.0894 10.9513 48.9405Z" fill="white"/>
<path d="M12.8787 47.6254C11.3239 48.1889 10.1031 47.7048 9.21629 46.1727L7.4238 42.7876L9.15352 46.5085C9.72365 48.0442 9.24332 49.2595 7.7125 50.1543L4.30359 51.9498L8.02629 50.209C9.57093 49.6507 10.7917 50.1348 11.6887 51.6618L13.4812 55.0469L11.7361 51.3335C11.1762 49.7927 11.6642 48.5801 13.2001 47.6955L16.5937 45.9075L12.8787 47.6254Z" fill="white" fill-opacity="0.301961"/>
<defs>
<linearGradient id="paint0_linear_1326_1410" x1="5.45619" y1="46.5656" x2="45.4632" y2="13.6421" gradientUnits="userSpaceOnUse">
<stop stop-color="#0C6D7A"/>
<stop offset="0.00784314" stop-color="#0C6F7C"/>
<stop offset="0.239216" stop-color="#14BCD4"/>
<stop offset="0.482353" stop-color="#06DEFC"/>
<stop offset="0.545098" stop-color="#04E0FF"/>
<stop offset="0.831373" stop-color="#0FBBD4"/>
<stop offset="1" stop-color="#0D7684"/>
</linearGradient>
<linearGradient id="paint1_linear_1326_1410" x1="1.57148" y1="8.31912" x2="23.4819" y2="77.3727" gradientUnits="userSpaceOnUse">
<stop stop-color="#0C6D7A"/>
<stop offset="0.00784314" stop-color="#0C6F7C"/>
<stop offset="0.239216" stop-color="#14BCD4"/>
<stop offset="0.509804" stop-color="#04E0FF"/>
<stop offset="0.831373" stop-color="#0FBBD4"/>
<stop offset="1" stop-color="#0D7684"/>
</linearGradient>
<linearGradient id="paint2_linear_1326_1410" x1="43.5552" y1="-10.1404" x2="52.7564" y2="59.3129" gradientUnits="userSpaceOnUse">
<stop stop-color="#0C6D7A"/>
<stop offset="0.00784314" stop-color="#0C6F7C"/>
<stop offset="0.239216" stop-color="#14BCD4"/>
<stop offset="0.509804" stop-color="#04E0FF"/>
<stop offset="0.831373" stop-color="#0FBBD4"/>
<stop offset="1" stop-color="#0D7684"/>
</linearGradient>
</defs>
</svg>
