<svg width="91" height="66" viewBox="0 0 91 66" fill="none" xmlns="http://www.w3.org/2000/svg">
<path d="M64.0573 25H54.6823C54.2679 25 53.8705 24.8354 53.5775 24.5424C53.2844 24.2493 53.1198 23.8519 53.1198 23.4375C53.1198 23.0231 53.2844 22.6257 53.5775 22.3326C53.8705 22.0396 54.2679 21.875 54.6823 21.875H64.0573C64.4717 21.875 64.8691 22.0396 65.1622 22.3326C65.4552 22.6257 65.6198 23.0231 65.6198 23.4375C65.6198 23.8519 65.4552 24.2493 65.1622 24.5424C64.8691 24.8354 64.4717 25 64.0573 25ZM35.9323 21.875H31.2448V17.1875C31.2448 16.7731 31.0802 16.3757 30.7872 16.0826C30.4941 15.7896 30.0967 15.625 29.6823 15.625C29.2679 15.625 28.8705 15.7896 28.5775 16.0826C28.2844 16.3757 28.1198 16.7731 28.1198 17.1875V21.875H23.4323C23.0179 21.875 22.6205 22.0396 22.3275 22.3326C22.0344 22.6257 21.8698 23.0231 21.8698 23.4375C21.8698 23.8519 22.0344 24.2493 22.3275 24.5424C22.6205 24.8354 23.0179 25 23.4323 25H28.1198V29.6875C28.1198 30.1019 28.2844 30.4993 28.5775 30.7924C28.8705 31.0854 29.2679 31.25 29.6823 31.25C30.0967 31.25 30.4941 31.0854 30.7872 30.7924C31.0802 30.4993 31.2448 30.1019 31.2448 29.6875V25H35.9323C36.3467 25 36.7441 24.8354 37.0372 24.5424C37.3302 24.2493 37.4948 23.8519 37.4948 23.4375C37.4948 23.0231 37.3302 22.6257 37.0372 22.3326C36.7441 22.0396 36.3467 21.875 35.9323 21.875ZM88.3581 60.2969C87.3111 61.792 85.9493 63.0396 84.3685 63.9522C82.7877 64.8647 81.0262 65.4199 79.2079 65.5789C77.3896 65.7379 75.5585 65.4967 73.8433 64.8724C72.1282 64.248 70.5706 63.2556 69.28 61.9648L69.2136 61.8945L53.2331 43.75H37.3854L21.405 61.8906L21.3347 61.9648C18.9881 64.306 15.8095 65.6221 12.4948 65.625C10.6698 65.6242 8.86718 65.2239 7.21345 64.4521C5.55973 63.6802 4.09507 62.5557 2.92236 61.1574C1.74966 59.7591 0.897358 58.1209 0.425341 56.3581C-0.0466759 54.5952 -0.12696 52.7503 0.190128 50.9531L6.58466 18.0508C7.4722 12.9949 10.1135 8.41364 14.0442 5.11229C17.975 1.81094 22.9436 0.000785551 28.0768 0H62.4948C67.623 0.00699588 72.5863 1.81326 76.5194 5.104C80.4526 8.39474 83.1064 12.9613 84.0182 18.0078C84.0205 18.0207 84.0205 18.034 84.0182 18.0469L90.4128 50.9219C90.7079 52.5428 90.6782 54.2061 90.3255 55.8154C89.9728 57.4247 89.3041 58.948 88.3581 60.2969ZM62.4948 40.625C64.9571 40.625 67.3953 40.14 69.6701 39.1977C71.945 38.2555 74.012 36.8744 75.7531 35.1333C77.4942 33.3922 78.8753 31.3252 79.8176 29.0503C80.7598 26.7755 81.2448 24.3373 81.2448 21.875C81.2448 19.4127 80.7598 16.9745 79.8176 14.6997C78.8753 12.4248 77.4942 10.3578 75.7531 8.61675C74.012 6.87565 71.945 5.49453 69.6701 4.55226C67.3953 3.60998 64.9571 3.125 62.4948 3.125H28.0807C23.6776 3.12754 19.4165 4.68282 16.0469 7.5172C12.6774 10.3516 10.4154 14.2835 9.65888 18.6211L3.26044 51.5234C2.83709 53.9684 3.40031 56.4815 4.82666 58.5119C6.25302 60.5424 8.42616 61.9245 10.8698 62.3555C12.343 62.6124 13.8563 62.5131 15.2833 62.0659C16.7104 61.6188 18.0097 60.8368 19.0729 59.7852L35.4792 41.1562C35.6256 40.9896 35.8058 40.856 36.0079 40.7644C36.21 40.6728 36.4292 40.6253 36.6511 40.625H62.4948ZM87.3503 51.4961L83.0534 29.3633C81.5124 33.5781 78.7144 37.2181 75.0376 39.7911C71.3607 42.3641 66.9825 43.746 62.4948 43.75H57.4167L71.5417 59.7891C72.9558 61.1892 74.7789 62.1031 76.7469 62.3983C78.715 62.6936 80.7259 62.3549 82.4887 61.4313C84.2514 60.5077 85.6746 59.0471 86.5521 57.261C87.4296 55.4749 87.716 53.4558 87.3698 51.4961H87.3503Z" fill="#F2F2F2"/>
</svg>
