<svg width="66" height="85" viewBox="0 0 66 85" fill="none" xmlns="http://www.w3.org/2000/svg">
<path d="M46.875 12.5664V7.8125C46.875 6.78655 46.6729 5.77064 46.2803 4.82279C45.8877 3.87493 45.3122 3.01369 44.5868 2.28823C43.8613 1.56277 43.0001 0.987306 42.0522 0.594691C41.1044 0.202076 40.0885 0 39.0625 0H26.5625C24.4905 0 22.5034 0.8231 21.0382 2.28823C19.5731 3.75336 18.75 5.7405 18.75 7.8125V12.5664C13.6512 12.9643 8.88958 15.2693 5.4145 19.0216C1.93942 22.774 0.00611155 27.6982 0 32.8125V79.6875C0 80.9307 0.49386 82.123 1.37294 83.0021C2.25201 83.8811 3.4443 84.375 4.6875 84.375H60.9375C62.1807 84.375 63.373 83.8811 64.2521 83.0021C65.1311 82.123 65.625 80.9307 65.625 79.6875V32.8125C65.6189 27.6982 63.6856 22.774 60.2105 19.0216C56.7354 15.2693 51.9738 12.9643 46.875 12.5664ZM26.5625 3.125H39.0625C40.3057 3.125 41.498 3.61886 42.3771 4.49794C43.2561 5.37701 43.75 6.5693 43.75 7.8125V12.5H21.875V7.8125C21.875 6.5693 22.3689 5.37701 23.2479 4.49794C24.127 3.61886 25.3193 3.125 26.5625 3.125ZM50 59.375H15.625V54.6875C15.625 53.4443 16.1189 52.252 16.9979 51.3729C17.877 50.4939 19.0693 50 20.3125 50H45.3125C46.5557 50 47.748 50.4939 48.6271 51.3729C49.5061 52.252 50 53.4443 50 54.6875V59.375ZM15.625 62.5H37.5V67.1875C37.5 67.6019 37.6646 67.9993 37.9576 68.2924C38.2507 68.5854 38.6481 68.75 39.0625 68.75C39.4769 68.75 39.8743 68.5854 40.1674 68.2924C40.4604 67.9993 40.625 67.6019 40.625 67.1875V62.5H50V81.25H15.625V62.5ZM62.5 79.6875C62.5 80.1019 62.3354 80.4993 62.0424 80.7924C61.7493 81.0854 61.3519 81.25 60.9375 81.25H53.125V54.6875C53.125 52.6155 52.3019 50.6284 50.8368 49.1632C49.3716 47.6981 47.3845 46.875 45.3125 46.875H20.3125C18.2405 46.875 16.2534 47.6981 14.7882 49.1632C13.3231 50.6284 12.5 52.6155 12.5 54.6875V81.25H4.6875C4.2731 81.25 3.87567 81.0854 3.58265 80.7924C3.28962 80.4993 3.125 80.1019 3.125 79.6875V32.8125C3.13017 28.2557 4.94265 23.887 8.16481 20.6648C11.387 17.4426 15.7557 15.6302 20.3125 15.625H45.3125C49.8693 15.6302 54.238 17.4426 57.4602 20.6648C60.6824 23.887 62.4948 28.2557 62.5 32.8125V79.6875ZM40.625 29.6875C40.625 30.1019 40.4604 30.4993 40.1674 30.7924C39.8743 31.0854 39.4769 31.25 39.0625 31.25H26.5625C26.1481 31.25 25.7507 31.0854 25.4576 30.7924C25.1646 30.4993 25 30.1019 25 29.6875C25 29.2731 25.1646 28.8757 25.4576 28.5826C25.7507 28.2896 26.1481 28.125 26.5625 28.125H39.0625C39.4769 28.125 39.8743 28.2896 40.1674 28.5826C40.4604 28.8757 40.625 29.2731 40.625 29.6875Z" fill="#F2F2F2"/>
</svg>
