<svg width="97" height="85" viewBox="0 0 97 85" fill="none" xmlns="http://www.w3.org/2000/svg">
<path d="M96.0464 25.1833L49.1714 0.183333C48.9453 0.0629582 48.6931 0 48.437 0C48.1809 0 47.9287 0.0629582 47.7026 0.183333L0.827637 25.1833C0.577645 25.3166 0.368575 25.5152 0.222793 25.7581C0.0770103 26.001 0 26.279 0 26.5622C0 26.8455 0.0770103 27.1235 0.222793 27.3663C0.368575 27.6092 0.577645 27.8079 0.827637 27.9411L12.4995 34.1677V54.0193C12.4906 55.1699 12.908 56.2832 13.6714 57.1443C18.6128 62.6482 29.687 71.8825 48.437 71.8825C56.6401 71.8825 63.3589 70.1169 68.7495 67.6677V82.8122C68.7495 83.2266 68.9141 83.6241 69.2072 83.9171C69.5002 84.2101 69.8976 84.3747 70.312 84.3747C70.7264 84.3747 71.1238 84.2101 71.4169 83.9171C71.7099 83.6241 71.8745 83.2266 71.8745 82.8122V66.0857C76.1215 63.7527 79.95 60.7282 83.2026 57.1365C83.9653 56.275 84.3827 55.162 84.3745 54.0115V34.1677L96.0464 27.9411C96.2964 27.8079 96.5054 27.6092 96.6512 27.3663C96.797 27.1235 96.874 26.8455 96.874 26.5622C96.874 26.279 96.797 26.001 96.6512 25.7581C96.5054 25.5152 96.2964 25.3166 96.0464 25.1833ZM48.437 68.7497C30.9253 68.7497 20.605 60.156 16.0151 55.0466C15.7623 54.7643 15.6231 54.3983 15.6245 54.0193V35.8318L47.7026 52.9411C47.9287 53.0615 48.1809 53.1245 48.437 53.1245C48.6931 53.1245 48.9453 53.0615 49.1714 52.9411L68.7495 42.4997V64.1911C63.5073 66.7966 56.7925 68.7497 48.437 68.7497ZM81.2495 54.0193C81.249 54.3991 81.1101 54.7657 80.8589 55.0505C78.2389 57.9461 75.2126 60.4461 71.8745 62.4724V40.8318L81.2495 35.8318V54.0193ZM71.644 37.4138C71.4985 37.1764 71.2922 36.9822 71.0464 36.8513L49.1714 25.1833C48.8065 24.9969 48.3829 24.9614 47.992 25.0843C47.6011 25.2071 47.2742 25.4787 47.0815 25.8403C46.8889 26.202 46.8461 26.6249 46.9623 27.0178C47.0784 27.4108 47.3443 27.7424 47.7026 27.9411L68.5542 39.0622L48.437 49.7927L4.88232 26.5622L48.437 3.33177L91.9917 26.5622L71.644 37.4138Z" fill="#F2F2F2"/>
</svg>
