<svg width="89" height="66" viewBox="0 0 89 66" fill="none" xmlns="http://www.w3.org/2000/svg">
<path d="M87.8906 37.2832C87.5342 37.4945 87.1085 37.5555 86.7071 37.453C86.3057 37.3504 85.9614 37.0926 85.75 36.7363C82.4961 31.2676 77.5742 28.1426 72.25 28.1426C72.0907 28.1406 71.9326 28.1142 71.7812 28.0644C71.2881 28.1161 70.7927 28.1422 70.2969 28.1426C69.8825 28.1426 69.4851 27.9779 69.192 27.6849C68.899 27.3919 68.7344 26.9945 68.7344 26.5801C68.7344 26.1657 68.899 25.7682 69.192 25.4752C69.4851 25.1822 69.8825 25.0176 70.2969 25.0176C72.3424 25.0169 74.3468 24.4426 76.0823 23.36C77.8178 22.2773 79.215 20.7297 80.115 18.8928C81.0151 17.056 81.3821 15.0035 81.1742 12.9686C80.9663 10.9336 80.192 8.99775 78.9391 7.38082C77.6862 5.76389 76.005 4.53071 74.0864 3.82133C72.1678 3.11195 70.0887 2.9548 68.0853 3.36774C66.0819 3.78068 64.2344 4.74715 62.7527 6.15738C61.271 7.56762 60.2145 9.3651 59.7031 11.3457C59.5995 11.7471 59.3407 12.091 58.9836 12.3016C58.6264 12.5122 58.2003 12.5723 57.7988 12.4687C57.3974 12.3651 57.0535 12.1063 56.8429 11.7492C56.6323 11.392 56.5722 10.9659 56.6758 10.5644C57.2492 8.34099 58.3583 6.29179 59.9063 4.59585C61.4543 2.89991 63.394 1.60883 65.5561 0.835402C67.7181 0.0619736 70.0366 -0.170272 72.309 0.158956C74.5815 0.488184 76.7388 1.36887 78.5924 2.72407C80.446 4.07927 81.9396 5.86776 82.9426 7.93328C83.9456 9.99881 84.4276 12.2785 84.3465 14.5733C84.2653 16.868 83.6234 19.108 82.477 21.0975C81.3305 23.087 79.7143 24.7655 77.7695 25.9863C81.9922 27.4902 85.7812 30.6738 88.4375 35.1582C88.6439 35.5132 88.7022 35.9352 88.5998 36.3328C88.4975 36.7305 88.2427 37.0719 87.8906 37.2832ZM68.5391 63.2832C68.7459 63.6417 68.802 64.0677 68.6951 64.4676C68.5882 64.8674 68.3269 65.2085 67.9688 65.416C67.7319 65.5549 67.4621 65.6277 67.1875 65.6269C66.9135 65.6266 66.6444 65.5543 66.4072 65.4172C66.1699 65.2801 65.9729 65.083 65.8359 64.8457C63.73 61.2756 60.7292 58.3166 57.1299 56.261C53.5307 54.2053 49.4574 53.1241 45.3125 53.1241C41.1676 53.1241 37.0943 54.2053 33.4951 56.261C29.8958 58.3166 26.895 61.2756 24.7891 64.8457C24.5729 65.1858 24.2336 65.4292 23.8422 65.5251C23.4508 65.6209 23.0374 65.5619 22.6885 65.3602C22.3396 65.1585 22.0821 64.8298 21.9698 64.4428C21.8575 64.0557 21.8991 63.6403 22.0859 63.2832C25.4776 57.4593 30.9462 53.1335 37.3945 51.1738C33.9778 49.4004 31.2553 46.5313 29.6634 43.0263C28.0715 39.5213 27.7024 35.5834 28.6151 31.8436C29.5278 28.1038 31.6696 24.7787 34.6972 22.4011C37.7248 20.0236 41.463 18.7313 45.3125 18.7313C49.1621 18.7313 52.9002 20.0236 55.9278 22.4011C58.9554 24.7787 61.0972 28.1038 62.0099 31.8436C62.9226 35.5834 62.5535 39.5213 60.9616 43.0263C59.3697 46.5313 56.6472 49.4004 53.2305 51.1738C59.6788 53.1335 65.1474 57.4593 68.5391 63.2832ZM45.3125 50.0019C48.0938 50.0019 50.8126 49.1772 53.1252 47.632C55.4378 46.0868 57.2402 43.8905 58.3046 41.3209C59.3689 38.7513 59.6474 35.9238 59.1048 33.196C58.5622 30.4681 57.2229 27.9624 55.2562 25.9957C53.2895 24.0291 50.7838 22.6897 48.056 22.1471C45.3281 21.6045 42.5006 21.883 39.931 22.9474C37.3614 24.0117 35.1652 25.8142 33.62 28.1267C32.0748 30.4393 31.25 33.1581 31.25 35.9394C31.25 39.669 32.7316 43.2459 35.3688 45.8831C38.0061 48.5203 41.5829 50.0019 45.3125 50.0019ZM20.3125 25.0019C18.267 25.0013 16.2626 24.427 14.5271 23.3443C12.7916 22.2617 11.3944 20.714 10.4943 18.8772C9.59426 17.0403 9.22732 14.9879 9.43519 12.9529C9.64306 10.918 10.4174 8.98213 11.6703 7.3652C12.9232 5.74827 14.6044 4.51508 16.523 3.8057C18.4416 3.09632 20.5206 2.93918 22.5241 3.35211C24.5275 3.76505 26.3749 4.73152 27.8566 6.14176C29.3383 7.552 30.3949 9.34948 30.9063 11.3301C31.0099 11.7315 31.2687 12.0754 31.6258 12.286C31.9829 12.4966 32.4091 12.5567 32.8106 12.4531C33.212 12.3495 33.5559 12.0907 33.7665 11.7335C33.9771 11.3764 34.0372 10.9503 33.9336 10.5488C33.3578 8.31747 32.2425 6.26183 30.6858 4.56272C29.129 2.86361 27.1786 1.57311 25.006 0.804741C22.8335 0.0363716 20.5054 -0.186317 18.2266 0.156267C15.9478 0.49885 13.788 1.39621 11.9374 2.76939C10.0868 4.14258 8.60204 5.94951 7.6137 8.03123C6.62535 10.1129 6.16373 12.4057 6.26945 14.7077C6.37517 17.0097 7.045 19.2504 8.21999 21.2328C9.39498 23.2151 11.0391 24.8784 13.0078 26.0761C7.93089 27.6182 3.48163 30.7464 0.312506 35.0019C0.063866 35.3335 -0.0428948 35.7502 0.0157103 36.1604C0.0743154 36.5706 0.293486 36.9408 0.625006 37.1894C0.956527 37.4381 1.37324 37.5448 1.78348 37.4862C2.19371 37.4276 2.56387 37.2084 2.81251 36.8769C4.84052 34.1499 7.4807 31.9374 10.5203 30.4176C13.56 28.8978 16.9141 28.1131 20.3125 28.1269C20.7269 28.1269 21.1243 27.9623 21.4174 27.6693C21.7104 27.3763 21.875 26.9788 21.875 26.5644C21.875 26.15 21.7104 25.7526 21.4174 25.4596C21.1243 25.1665 20.7269 25.0019 20.3125 25.0019Z" fill="#F2F2F2"/>
</svg>
