<svg width="526" height="39" viewBox="0 0 526 39" fill="none" xmlns="http://www.w3.org/2000/svg">
<mask id="path-1-outside-1_1196_934" maskUnits="userSpaceOnUse" x="4.80825e-07" y="-2.29485e-05" width="526" height="39" fill="black">
<rect fill="white" x="4.80825e-07" y="-2.29485e-05" width="526" height="39"/>
<path d="M13.55 37L2.1 2L10.5 2L20.45 33L16.25 33L26.65 2L34.15 2L44.15 33L40.1 33L50.3 2L58.05 2L46.6 37L37.9 37L29.05 9.8L31.35 9.8L22.25 37L13.55 37ZM86.5719 1.99999L94.6719 1.99999L94.6719 37L86.5719 37L86.5719 1.99999ZM70.6719 37L62.5719 37L62.5719 1.99999L70.6719 1.99999L70.6719 37ZM87.1719 22.65L70.0719 22.65L70.0719 15.8L87.1719 15.8L87.1719 22.65ZM98.3527 37L113.953 1.99999L121.953 1.99999L137.603 37L129.103 37L116.303 6.09999L119.503 6.09999L106.653 37L98.3527 37ZM106.153 29.5L108.303 23.35L126.303 23.35L128.503 29.5L106.153 29.5ZM146.726 37L146.726 8.59999L135.526 8.59999L135.526 1.99999L166.026 1.99999L166.026 8.59999L154.826 8.59999L154.826 37L146.726 37ZM201.445 37.6C198.678 37.6 196.128 37.1667 193.795 36.3C191.495 35.4 189.478 34.1333 187.745 32.5C186.045 30.8667 184.711 28.95 183.745 26.75C182.811 24.55 182.345 22.1333 182.345 19.5C182.345 16.8667 182.811 14.45 183.745 12.25C184.711 10.05 186.061 8.13332 187.795 6.49999C189.528 4.86666 191.561 3.61666 193.895 2.74999C196.228 1.84999 198.795 1.39999 201.595 1.39999C204.695 1.39999 207.478 1.91666 209.945 2.94999C212.445 3.98332 214.545 5.48332 216.245 7.44999L211.045 12.25C209.778 10.9167 208.395 9.93332 206.895 9.29999C205.395 8.63332 203.761 8.29999 201.995 8.29999C200.295 8.29999 198.745 8.56666 197.345 9.09999C195.945 9.63332 194.728 10.4 193.695 11.4C192.695 12.4 191.911 13.5833 191.345 14.95C190.811 16.3167 190.545 17.8333 190.545 19.5C190.545 21.1333 190.811 22.6333 191.345 24C191.911 25.3667 192.695 26.5667 193.695 27.6C194.728 28.6 195.928 29.3667 197.295 29.9C198.695 30.4333 200.228 30.7 201.895 30.7C203.495 30.7 205.045 30.45 206.545 29.95C208.078 29.4167 209.561 28.5333 210.995 27.3L215.595 33.15C213.695 34.5833 211.478 35.6833 208.945 36.45C206.445 37.2167 203.945 37.6 201.445 37.6ZM208.195 32.1L208.195 18.95L215.595 18.95L215.595 33.15L208.195 32.1ZM218.519 37L234.119 1.99999L242.119 1.99999L257.769 37L249.269 37L236.469 6.09999L239.669 6.09999L226.819 37L218.519 37ZM226.319 29.5L228.469 23.35L246.469 23.35L248.669 29.5L226.319 29.5ZM261.4 37L261.4 1.99999L268.1 1.99999L283 26.7L279.45 26.7L294.1 1.99998L300.75 1.99998L300.85 37L293.25 37L293.2 13.65L294.6 13.65L282.9 33.3L279.25 33.3L267.3 13.65L269 13.65L269 37L261.4 37ZM316.604 16.1L333.454 16.1L333.454 22.4L316.604 22.4L316.604 16.1ZM317.204 30.5L336.254 30.5L336.254 37L309.154 37L309.154 1.99998L335.604 1.99998L335.604 8.49998L317.204 8.49998L317.204 30.5ZM342.699 37L342.699 1.99998L357.849 1.99998C360.982 1.99998 363.682 2.51665 365.949 3.54998C368.215 4.54998 369.965 5.99998 371.199 7.89998C372.432 9.79998 373.049 12.0666 373.049 14.7C373.049 17.3 372.432 19.55 371.199 21.45C369.965 23.3166 368.215 24.75 365.949 25.75C363.682 26.75 360.982 27.25 357.849 27.25L347.199 27.25L350.799 23.7L350.799 37L342.699 37ZM364.949 37L356.199 24.3L364.849 24.3L373.699 37L364.949 37ZM350.799 24.6L347.199 20.8L357.399 20.8C359.899 20.8 361.765 20.2667 362.999 19.2C364.232 18.1 364.849 16.6 364.849 14.7C364.849 12.7667 364.232 11.2667 362.999 10.2C361.765 9.13332 359.899 8.59998 357.399 8.59998L347.199 8.59998L350.799 4.74998L350.799 24.6ZM390.966 37.6C388.166 37.6 385.483 37.2333 382.916 36.5C380.35 35.7333 378.283 34.75 376.716 33.55L379.466 27.45C380.966 28.5166 382.733 29.4 384.766 30.1C386.833 30.7666 388.916 31.1 391.016 31.1C392.616 31.1 393.9 30.95 394.866 30.65C395.866 30.3166 396.6 29.8666 397.066 29.3C397.533 28.7333 397.766 28.0833 397.766 27.35C397.766 26.4166 397.4 25.6833 396.666 25.15C395.933 24.5833 394.966 24.1333 393.766 23.8C392.566 23.4333 391.233 23.1 389.766 22.8C388.333 22.4666 386.883 22.0666 385.416 21.6C383.983 21.1333 382.666 20.5333 381.466 19.8C380.266 19.0666 379.283 18.1 378.516 16.9C377.783 15.7 377.416 14.1666 377.416 12.3C377.416 10.3 377.95 8.48332 379.016 6.84998C380.116 5.18331 381.75 3.86665 383.916 2.89998C386.116 1.89998 388.866 1.39998 392.166 1.39998C394.366 1.39998 396.533 1.66665 398.666 2.19998C400.8 2.69998 402.683 3.46665 404.316 4.49998L401.816 10.65C400.183 9.71665 398.55 9.03332 396.916 8.59998C395.283 8.13332 393.683 7.89998 392.116 7.89998C390.55 7.89998 389.266 8.08332 388.266 8.44998C387.266 8.81665 386.55 9.29998 386.116 9.89998C385.683 10.4666 385.466 11.1333 385.466 11.9C385.466 12.8 385.833 13.5333 386.566 14.1C387.3 14.6333 388.266 15.0666 389.466 15.4C390.666 15.7333 391.983 16.0666 393.416 16.4C394.883 16.7333 396.333 17.1166 397.766 17.55C399.233 17.9833 400.566 18.5666 401.766 19.3C402.966 20.0333 403.933 21 404.666 22.2C405.433 23.4 405.816 24.9166 405.816 26.75C405.816 28.7166 405.266 30.5166 404.166 32.15C403.066 33.7833 401.416 35.1 399.216 36.1C397.05 37.1 394.3 37.6 390.966 37.6ZM437.011 37.6C434.211 37.6 431.528 37.2333 428.961 36.5C426.395 35.7333 424.328 34.75 422.761 33.55L425.511 27.45C427.011 28.5166 428.778 29.4 430.811 30.1C432.878 30.7666 434.961 31.1 437.061 31.1C438.661 31.1 439.945 30.95 440.911 30.65C441.911 30.3166 442.645 29.8666 443.111 29.3C443.578 28.7333 443.811 28.0833 443.811 27.35C443.811 26.4166 443.445 25.6833 442.711 25.15C441.978 24.5833 441.011 24.1333 439.811 23.8C438.611 23.4333 437.278 23.1 435.811 22.8C434.378 22.4666 432.928 22.0666 431.461 21.6C430.028 21.1333 428.711 20.5333 427.511 19.8C426.311 19.0666 425.328 18.1 424.561 16.9C423.828 15.7 423.461 14.1666 423.461 12.3C423.461 10.3 423.995 8.48331 425.061 6.84998C426.161 5.18331 427.795 3.86665 429.961 2.89998C432.161 1.89998 434.911 1.39998 438.211 1.39998C440.411 1.39998 442.578 1.66665 444.711 2.19998C446.845 2.69998 448.728 3.46664 450.361 4.49998L447.861 10.65C446.228 9.71665 444.595 9.03331 442.961 8.59998C441.328 8.13331 439.728 7.89998 438.161 7.89998C436.595 7.89998 435.311 8.08331 434.311 8.44998C433.311 8.81665 432.595 9.29998 432.161 9.89998C431.728 10.4666 431.511 11.1333 431.511 11.9C431.511 12.8 431.878 13.5333 432.611 14.1C433.345 14.6333 434.311 15.0666 435.511 15.4C436.711 15.7333 438.028 16.0666 439.461 16.4C440.928 16.7333 442.378 17.1166 443.811 17.55C445.278 17.9833 446.611 18.5666 447.811 19.3C449.011 20.0333 449.978 21 450.711 22.2C451.478 23.4 451.861 24.9166 451.861 26.75C451.861 28.7166 451.311 30.5166 450.211 32.15C449.111 33.7833 447.461 35.1 445.261 36.1C443.095 37.1 440.345 37.6 437.011 37.6ZM452.796 37L468.396 1.99998L476.396 1.99998L492.046 37L483.546 37L470.746 6.09998L473.946 6.09998L461.096 37L452.796 37ZM460.596 29.5L462.746 23.35L480.746 23.35L482.946 29.5L460.596 29.5ZM502.229 37L502.229 22.7L504.079 27.6L488.679 1.99998L497.279 1.99998L509.079 21.65L504.129 21.65L515.979 1.99998L523.929 1.99997L508.529 27.6L510.329 22.7L510.329 37L502.229 37Z"/>
</mask>
<path d="M13.55 37L12.5996 37.3109L12.825 38L13.55 38L13.55 37ZM2.1 2L2.1 0.999998L0.720706 0.999998L1.14957 2.31093L2.1 2ZM10.5 2L11.4522 1.69439L11.2293 0.999998L10.5 0.999998L10.5 2ZM20.45 33L20.45 34L21.8212 34L21.4022 32.6944L20.45 33ZM16.25 33L15.3019 32.6819L14.8597 34L16.25 34L16.25 33ZM26.65 2L26.65 0.999997L25.9307 0.999997L25.7019 1.68193L26.65 2ZM34.15 2L35.1017 1.69299L34.8782 0.999997L34.15 0.999997L34.15 2ZM44.15 33L44.15 34L45.5233 34L45.1017 32.693L44.15 33ZM40.1 33L39.1501 32.6874L38.7182 34L40.1 34L40.1 33ZM50.3 2L50.3 0.999996L49.5763 0.999996L49.3501 1.68745L50.3 2ZM58.05 2L59.0004 2.31092L59.4293 0.999996L58.05 0.999996L58.05 2ZM46.6 37L46.6 38L47.325 38L47.5504 37.3109L46.6 37ZM37.9 37L36.9491 37.3094L37.1738 38L37.9 38L37.9 37ZM29.05 9.8L29.05 8.8L27.673 8.8L28.0991 10.1094L29.05 9.8ZM31.35 9.8L32.2983 10.1173L32.739 8.8L31.35 8.8L31.35 9.8ZM22.25 37L22.25 38L22.9699 38L23.1983 37.3173L22.25 37ZM13.55 37L14.5004 36.6891L3.05043 1.68907L2.1 2L1.14957 2.31093L12.5996 37.3109L13.55 37ZM2.1 2L2.1 3L10.5 3L10.5 2L10.5 0.999998L2.1 0.999998L2.1 2ZM10.5 2L9.54784 2.30561L19.4978 33.3056L20.45 33L21.4022 32.6944L11.4522 1.69439L10.5 2ZM20.45 33L20.45 32L16.25 32L16.25 33L16.25 34L20.45 34L20.45 33ZM16.25 33L17.1981 33.3181L27.5981 2.31806L26.65 2L25.7019 1.68193L15.3019 32.6819L16.25 33ZM26.65 2L26.65 3L34.15 3L34.15 2L34.15 0.999997L26.65 0.999997L26.65 2ZM34.15 2L33.1983 2.307L43.1983 33.307L44.15 33L45.1017 32.693L35.1017 1.69299L34.15 2ZM44.15 33L44.15 32L40.1 32L40.1 33L40.1 34L44.15 34L44.15 33ZM40.1 33L41.0499 33.3125L51.2499 2.31254L50.3 2L49.3501 1.68745L39.1501 32.6874L40.1 33ZM50.3 2L50.3 3L58.05 3L58.05 2L58.05 0.999996L50.3 0.999996L50.3 2ZM58.05 2L57.0996 1.68907L45.6496 36.6891L46.6 37L47.5504 37.3109L59.0004 2.31092L58.05 2ZM46.6 37L46.6 36L37.9 36L37.9 37L37.9 38L46.6 38L46.6 37ZM37.9 37L38.8509 36.6906L30.0009 9.4906L29.05 9.8L28.0991 10.1094L36.9491 37.3094L37.9 37ZM29.05 9.8L29.05 10.8L31.35 10.8L31.35 9.8L31.35 8.8L29.05 8.8L29.05 9.8ZM31.35 9.8L30.4017 9.48272L21.3017 36.6827L22.25 37L23.1983 37.3173L32.2983 10.1173L31.35 9.8ZM22.25 37L22.25 36L13.55 36L13.55 37L13.55 38L22.25 38L22.25 37ZM86.5719 1.99999L86.5719 0.999994L85.5719 0.999994L85.5719 1.99999L86.5719 1.99999ZM94.6719 1.99999L95.6719 1.99999L95.6719 0.999994L94.6719 0.999994L94.6719 1.99999ZM94.6719 37L94.6719 38L95.6719 38L95.6719 37L94.6719 37ZM86.5719 37L85.5719 37L85.5719 38L86.5719 38L86.5719 37ZM70.6719 37L70.6719 38L71.6719 38L71.6719 37L70.6719 37ZM62.5719 37L61.5719 37L61.5719 38L62.5719 38L62.5719 37ZM62.5719 2L62.5719 0.999995L61.5719 0.999995L61.5719 2L62.5719 2ZM70.6719 2L71.6719 2L71.6719 0.999995L70.6719 0.999995L70.6719 2ZM87.1719 22.65L87.1719 23.65L88.1719 23.65L88.1719 22.65L87.1719 22.65ZM70.0719 22.65L69.0719 22.65L69.0719 23.65L70.0719 23.65L70.0719 22.65ZM70.0719 15.8L70.0719 14.8L69.0719 14.8L69.0719 15.8L70.0719 15.8ZM87.1719 15.8L88.1719 15.8L88.1719 14.8L87.1719 14.8L87.1719 15.8ZM86.5719 1.99999L86.5719 2.99999L94.6719 2.99999L94.6719 1.99999L94.6719 0.999994L86.5719 0.999994L86.5719 1.99999ZM94.6719 1.99999L93.6719 1.99999L93.6719 37L94.6719 37L95.6719 37L95.6719 1.99999L94.6719 1.99999ZM94.6719 37L94.6719 36L86.5719 36L86.5719 37L86.5719 38L94.6719 38L94.6719 37ZM86.5719 37L87.5719 37L87.5719 1.99999L86.5719 1.99999L85.5719 1.99999L85.5719 37L86.5719 37ZM70.6719 37L70.6719 36L62.5719 36L62.5719 37L62.5719 38L70.6719 38L70.6719 37ZM62.5719 37L63.5719 37L63.5719 2L62.5719 2L61.5719 2L61.5719 37L62.5719 37ZM62.5719 2L62.5719 3L70.6719 3L70.6719 2L70.6719 0.999995L62.5719 0.999995L62.5719 2ZM70.6719 2L69.6719 2L69.6719 37L70.6719 37L71.6719 37L71.6719 2L70.6719 2ZM87.1719 22.65L87.1719 21.65L70.0719 21.65L70.0719 22.65L70.0719 23.65L87.1719 23.65L87.1719 22.65ZM70.0719 22.65L71.0719 22.65L71.0719 15.8L70.0719 15.8L69.0719 15.8L69.0719 22.65L70.0719 22.65ZM70.0719 15.8L70.0719 16.8L87.1719 16.8L87.1719 15.8L87.1719 14.8L70.0719 14.8L70.0719 15.8ZM87.1719 15.8L86.1719 15.8L86.1719 22.65L87.1719 22.65L88.1719 22.65L88.1719 15.8L87.1719 15.8ZM98.3527 37L97.4394 36.5929L96.8122 38L98.3527 38L98.3527 37ZM113.953 1.99999L113.953 0.999993L113.304 0.999993L113.039 1.59289L113.953 1.99999ZM121.953 1.99999L122.866 1.5918L122.601 0.999993L121.953 0.999993L121.953 1.99999ZM137.603 37L137.603 38L139.145 38L138.516 36.5918L137.603 37ZM129.103 37L128.179 37.3827L128.435 38L129.103 38L129.103 37ZM116.303 6.09999L116.303 5.09999L114.806 5.09999L115.379 6.4827L116.303 6.09999ZM119.503 6.09999L120.426 6.48397L121.002 5.09999L119.503 5.09999L119.503 6.09999ZM106.653 37L106.653 38L107.32 38L107.576 37.384L106.653 37ZM106.153 29.5L105.209 29.17L104.744 30.5L106.153 30.5L106.153 29.5ZM108.303 23.35L108.303 22.35L107.593 22.35L107.359 23.02L108.303 23.35ZM126.303 23.35L127.244 23.0132L127.007 22.35L126.303 22.35L126.303 23.35ZM128.503 29.5L128.503 30.5L129.923 30.5L129.444 29.1632L128.503 29.5ZM98.3527 37L99.2661 37.4071L114.866 2.4071L113.953 1.99999L113.039 1.59289L97.4394 36.5929L98.3527 37ZM113.953 1.99999L113.953 2.99999L121.953 2.99999L121.953 1.99999L121.953 0.999993L113.953 0.999993L113.953 1.99999ZM121.953 1.99999L121.04 2.40819L136.69 37.4082L137.603 37L138.516 36.5918L122.866 1.5918L121.953 1.99999ZM137.603 37L137.603 36L129.103 36L129.103 37L129.103 38L137.603 38L137.603 37ZM129.103 37L130.027 36.6173L117.227 5.71729L116.303 6.09999L115.379 6.4827L128.179 37.3827L129.103 37ZM116.303 6.09999L116.303 7.09999L119.503 7.09999L119.503 6.09999L119.503 5.09999L116.303 5.09999L116.303 6.09999ZM119.503 6.09999L118.579 5.71602L105.729 36.616L106.653 37L107.576 37.384L120.426 6.48397L119.503 6.09999ZM106.653 37L106.653 36L98.3527 36L98.3527 37L98.3527 38L106.653 38L106.653 37ZM106.153 29.5L107.097 29.83L109.247 23.68L108.303 23.35L107.359 23.02L105.209 29.17L106.153 29.5ZM108.303 23.35L108.303 24.35L126.303 24.35L126.303 23.35L126.303 22.35L108.303 22.35L108.303 23.35ZM126.303 23.35L125.361 23.6868L127.561 29.8368L128.503 29.5L129.444 29.1632L127.244 23.0132L126.303 23.35ZM128.503 29.5L128.503 28.5L106.153 28.5L106.153 29.5L106.153 30.5L128.503 30.5L128.503 29.5ZM146.726 37L145.726 37L145.726 38L146.726 38L146.726 37ZM146.726 8.59999L147.726 8.59999L147.726 7.59999L146.726 7.59999L146.726 8.59999ZM135.526 8.59999L134.526 8.59999L134.526 9.59999L135.526 9.59999L135.526 8.59999ZM135.526 1.99999L135.526 0.999992L134.526 0.999992L134.526 1.99999L135.526 1.99999ZM166.026 1.99999L167.026 1.99999L167.026 0.999991L166.026 0.999991L166.026 1.99999ZM166.026 8.59999L166.026 9.59999L167.026 9.59999L167.026 8.59999L166.026 8.59999ZM154.826 8.59999L154.826 7.59999L153.826 7.59999L153.826 8.59999L154.826 8.59999ZM154.826 37L154.826 38L155.826 38L155.826 37L154.826 37ZM146.726 37L147.726 37L147.726 8.59999L146.726 8.59999L145.726 8.59999L145.726 37L146.726 37ZM146.726 8.59999L146.726 7.59999L135.526 7.59999L135.526 8.59999L135.526 9.59999L146.726 9.59999L146.726 8.59999ZM135.526 8.59999L136.526 8.59999L136.526 1.99999L135.526 1.99999L134.526 1.99999L134.526 8.59999L135.526 8.59999ZM135.526 1.99999L135.526 2.99999L166.026 2.99999L166.026 1.99999L166.026 0.999991L135.526 0.999992L135.526 1.99999ZM166.026 1.99999L165.026 1.99999L165.026 8.59999L166.026 8.59999L167.026 8.59999L167.026 1.99999L166.026 1.99999ZM166.026 8.59999L166.026 7.59999L154.826 7.59999L154.826 8.59999L154.826 9.59999L166.026 9.59999L166.026 8.59999ZM154.826 8.59999L153.826 8.59999L153.826 37L154.826 37L155.826 37L155.826 8.59999L154.826 8.59999ZM154.826 37L154.826 36L146.726 36L146.726 37L146.726 38L154.826 38L154.826 37ZM193.795 36.3L193.43 37.2312L193.438 37.2344L193.446 37.2374L193.795 36.3ZM187.745 32.5L187.052 33.2211L187.059 33.2278L187.745 32.5ZM183.745 26.75L182.824 27.1406L182.829 27.1523L183.745 26.75ZM183.745 12.25L182.829 11.8477L182.824 11.8594L183.745 12.25ZM187.795 6.49999L188.48 7.22778L187.795 6.49999ZM193.895 2.74999L194.243 3.68749L194.254 3.68299L193.895 2.74999ZM209.945 2.94999L209.558 3.87234L209.563 3.87415L209.945 2.94999ZM216.245 7.44999L216.923 8.18479L217.634 7.52829L217.001 6.79604L216.245 7.44999ZM211.045 12.25L210.32 12.9387L210.998 13.6534L211.723 12.9848L211.045 12.25ZM206.895 9.29999L206.488 10.2138L206.497 10.2176L206.506 10.2212L206.895 9.29999ZM193.695 11.4L192.999 10.6814L192.993 10.6871L192.987 10.6929L193.695 11.4ZM191.345 14.95L190.421 14.567L190.417 14.5767L190.413 14.5864L191.345 14.95ZM191.345 24L190.413 24.3635L190.417 24.3733L190.421 24.383L191.345 24ZM193.695 27.6L192.976 28.2954L192.987 28.3072L192.999 28.3186L193.695 27.6ZM197.295 29.9L196.931 30.8316L196.939 30.8345L197.295 29.9ZM206.545 29.95L206.861 30.8988L206.873 30.8945L206.545 29.95ZM210.995 27.3L211.781 26.6819L211.135 25.8603L210.342 26.542L210.995 27.3ZM215.595 33.15L216.197 33.9483L217.011 33.3339L216.381 32.5319L215.595 33.15ZM208.945 36.45L208.655 35.4929L208.651 35.4939L208.945 36.45ZM208.195 32.1L207.195 32.1L207.195 32.9681L208.054 33.0901L208.195 32.1ZM208.195 18.95L208.195 17.95L207.195 17.95L207.195 18.95L208.195 18.95ZM215.595 18.95L216.595 18.95L216.595 17.95L215.595 17.95L215.595 18.95ZM215.595 33.15L215.454 34.1401L216.595 34.3019L216.595 33.15L215.595 33.15ZM201.445 37.6L201.445 36.6C198.784 36.6 196.353 36.1835 194.143 35.3626L193.795 36.3L193.446 37.2374C195.903 38.1498 198.572 38.6 201.445 38.6L201.445 37.6ZM193.795 36.3L194.159 35.3687C191.974 34.5136 190.067 33.3145 188.43 31.7722L187.745 32.5L187.059 33.2278C188.889 34.9521 191.015 36.2864 193.43 37.2312L193.795 36.3ZM187.745 32.5L188.437 31.7789C186.834 30.238 185.575 28.4303 184.66 26.3477L183.745 26.75L182.829 27.1523C183.847 29.4697 185.255 31.4953 187.052 33.2211L187.745 32.5ZM183.745 26.75L184.665 26.3594C183.789 24.295 183.345 22.0129 183.345 19.5L182.345 19.5L181.345 19.5C181.345 22.2538 181.833 24.805 182.824 27.1405L183.745 26.75ZM182.345 19.5L183.345 19.5C183.345 16.9871 183.789 14.705 184.665 12.6405L183.745 12.25L182.824 11.8594C181.833 14.195 181.345 16.7462 181.345 19.5L182.345 19.5ZM183.745 12.25L184.66 12.6523C185.573 10.5739 186.846 8.76827 188.48 7.22778L187.795 6.49999L187.109 5.7722C185.277 7.49838 183.849 9.52603 182.829 11.8477L183.745 12.25ZM187.795 6.49999L188.48 7.22778C190.112 5.69033 192.029 4.50964 194.243 3.68741L193.895 2.74999L193.546 1.81256C191.093 2.72368 188.944 4.04298 187.109 5.7722L187.795 6.49999ZM193.895 2.74999L194.254 3.68299C196.46 2.83226 198.903 2.39999 201.595 2.39999L201.595 1.39999L201.595 0.399991C198.686 0.399991 195.996 0.867721 193.535 1.81699L193.895 2.74999ZM201.595 1.39999L201.595 2.39999C204.583 2.39999 207.232 2.89775 209.558 3.87233L209.945 2.94999L210.331 2.02765C207.724 0.935559 204.806 0.399991 201.595 0.399991L201.595 1.39999ZM209.945 2.94999L209.563 3.87415C211.924 4.85037 213.894 6.26019 215.488 8.10394L216.245 7.44999L217.001 6.79604C215.195 4.70646 212.965 3.11627 210.327 2.02582L209.945 2.94999ZM216.245 7.44999L215.566 6.71519L210.366 11.5152L211.045 12.25L211.723 12.9848L216.923 8.18479L216.245 7.44999ZM211.045 12.25L211.77 11.5612C210.42 10.141 208.926 9.07214 207.284 8.37874L206.895 9.29999L206.506 10.2212C207.863 10.7945 209.135 11.6923 210.32 12.9387L211.045 12.25ZM206.895 9.29999L207.301 8.38618C205.663 7.65845 203.89 7.29999 201.995 7.29999L201.995 8.29999L201.995 9.29999C203.632 9.29999 205.126 9.6082 206.488 10.2138L206.895 9.29999ZM201.995 8.29999L201.995 7.29999C200.189 7.29999 198.516 7.58343 196.989 8.1655L197.345 9.09999L197.701 10.0345C198.973 9.54989 200.4 9.29999 201.995 9.29999L201.995 8.29999ZM197.345 9.09999L196.989 8.1655C195.467 8.745 194.134 9.58323 192.999 10.6814L193.695 11.4L194.39 12.1186C195.322 11.2167 196.422 10.5216 197.701 10.0345L197.345 9.09999ZM193.695 11.4L192.987 10.6929C191.89 11.7899 191.035 13.0848 190.421 14.567L191.345 14.95L192.268 15.333C192.787 14.0818 193.499 13.0101 194.402 12.1071L193.695 11.4ZM191.345 14.95L190.413 14.5864C189.829 16.0837 189.545 17.7257 189.545 19.5L190.545 19.5L191.545 19.5C191.545 17.9409 191.794 16.5497 192.276 15.3135L191.345 14.95ZM190.545 19.5L189.545 19.5C189.545 21.2436 189.83 22.8686 190.413 24.3635L191.345 24L192.276 23.6364C191.793 22.3981 191.545 21.023 191.545 19.5L190.545 19.5ZM191.345 24L190.421 24.383C191.034 25.8624 191.886 27.1691 192.976 28.2954L193.695 27.6L194.413 26.9046C193.503 25.9642 192.788 24.871 192.268 23.617L191.345 24ZM193.695 27.6L192.999 28.3186C194.13 29.4128 195.443 30.251 196.931 30.8316L197.295 29.9L197.658 28.9684C196.413 28.4823 195.326 27.7872 194.39 26.8814L193.695 27.6ZM197.295 29.9L196.939 30.8345C198.464 31.4157 200.12 31.7 201.895 31.7L201.895 30.7L201.895 29.7C200.336 29.7 198.925 29.4509 197.651 28.9655L197.295 29.9ZM201.895 30.7L201.895 31.7C203.601 31.7 205.258 31.4331 206.861 30.8987L206.545 29.95L206.228 29.0013C204.831 29.4669 203.388 29.7 201.895 29.7L201.895 30.7ZM206.545 29.95L206.873 30.8945C208.543 30.3137 210.134 29.36 211.647 28.058L210.995 27.3L210.342 26.542C208.989 27.7067 207.613 28.5196 206.216 29.0055L206.545 29.95ZM210.995 27.3L210.208 27.9181L214.808 33.7681L215.595 33.15L216.381 32.5319L211.781 26.6819L210.995 27.3ZM215.595 33.15L214.992 32.3517C213.196 33.7066 211.088 34.7565 208.655 35.4929L208.945 36.45L209.234 37.4071C211.868 36.6101 214.193 35.4601 216.197 33.9483L215.595 33.15ZM208.945 36.45L208.651 35.4939C206.242 36.2328 203.841 36.6 201.445 36.6L201.445 37.6L201.445 38.6C204.048 38.6 206.647 38.2005 209.238 37.406L208.945 36.45ZM208.195 32.1L209.195 32.1L209.195 18.95L208.195 18.95L207.195 18.95L207.195 32.1L208.195 32.1ZM208.195 18.95L208.195 19.95L215.595 19.95L215.595 18.95L215.595 17.95L208.195 17.95L208.195 18.95ZM215.595 18.95L214.595 18.95L214.595 33.15L215.595 33.15L216.595 33.15L216.595 18.95L215.595 18.95ZM215.595 33.15L215.735 32.1599L208.335 31.1099L208.195 32.1L208.054 33.0901L215.454 34.1401L215.595 33.15ZM218.519 37L217.605 36.5929L216.978 38L218.519 38L218.519 37ZM234.119 1.99999L234.119 0.999988L233.47 0.999988L233.205 1.59288L234.119 1.99999ZM242.119 1.99999L243.032 1.59179L242.767 0.999988L242.119 0.999988L242.119 1.99999ZM257.769 37L257.769 38L259.311 38L258.682 36.5918L257.769 37ZM249.269 37L248.345 37.3827L248.601 38L249.269 38L249.269 37ZM236.469 6.09999L236.469 5.09999L234.972 5.09999L235.545 6.48269L236.469 6.09999ZM239.669 6.09999L240.592 6.48397L241.168 5.09999L239.669 5.09999L239.669 6.09999ZM226.819 37L226.819 38L227.486 38L227.742 37.384L226.819 37ZM226.319 29.5L225.375 29.17L224.91 30.5L226.319 30.5L226.319 29.5ZM228.469 23.35L228.469 22.35L227.759 22.35L227.525 23.02L228.469 23.35ZM246.469 23.35L247.41 23.0132L247.173 22.35L246.469 22.35L246.469 23.35ZM248.669 29.5L248.669 30.5L250.089 30.5L249.61 29.1632L248.669 29.5ZM218.519 37L219.432 37.4071L235.032 2.40709L234.119 1.99999L233.205 1.59288L217.605 36.5929L218.519 37ZM234.119 1.99999L234.119 2.99999L242.119 2.99999L242.119 1.99999L242.119 0.999988L234.119 0.999988L234.119 1.99999ZM242.119 1.99999L241.206 2.40818L256.856 37.4082L257.769 37L258.682 36.5918L243.032 1.59179L242.119 1.99999ZM257.769 37L257.769 36L249.269 36L249.269 37L249.269 38L257.769 38L257.769 37ZM249.269 37L250.193 36.6173L237.393 5.71728L236.469 6.09999L235.545 6.48269L248.345 37.3827L249.269 37ZM236.469 6.09999L236.469 7.09999L239.669 7.09999L239.669 6.09999L239.669 5.09999L236.469 5.09999L236.469 6.09999ZM239.669 6.09999L238.745 5.71601L225.895 36.616L226.819 37L227.742 37.384L240.592 6.48397L239.669 6.09999ZM226.819 37L226.819 36L218.519 36L218.519 37L218.519 38L226.819 38L226.819 37ZM226.319 29.5L227.263 29.83L229.413 23.68L228.469 23.35L227.525 23.02L225.375 29.17L226.319 29.5ZM228.469 23.35L228.469 24.35L246.469 24.35L246.469 23.35L246.469 22.35L228.469 22.35L228.469 23.35ZM246.469 23.35L245.527 23.6868L247.727 29.8368L248.669 29.5L249.61 29.1632L247.41 23.0132L246.469 23.35ZM248.669 29.5L248.669 28.5L226.319 28.5L226.319 29.5L226.319 30.5L248.669 30.5L248.669 29.5ZM261.4 37L260.4 37L260.4 38L261.4 38L261.4 37ZM261.4 1.99999L261.4 0.999987L260.4 0.999987L260.4 1.99999L261.4 1.99999ZM268.1 1.99999L268.956 1.48345L268.665 0.999986L268.1 0.999986L268.1 1.99999ZM283 26.7L283 27.7L284.771 27.7L283.856 26.1835L283 26.7ZM279.45 26.7L278.59 26.1898L277.694 27.7L279.45 27.7L279.45 26.7ZM294.1 1.99999L294.1 0.999985L293.53 0.999985L293.24 1.48985L294.1 1.99999ZM300.75 1.99998L301.75 1.99713L301.747 0.999985L300.75 0.999985L300.75 1.99998ZM300.85 37L300.85 38L301.853 38L301.85 36.9971L300.85 37ZM293.25 37L292.25 37.0021L292.252 38L293.25 38L293.25 37ZM293.2 13.65L293.2 12.65L292.198 12.65L292.2 13.6521L293.2 13.65ZM294.6 13.65L295.459 14.1616L296.359 12.65L294.6 12.65L294.6 13.65ZM282.9 33.3L282.9 34.3L283.468 34.3L283.759 33.8116L282.9 33.3ZM279.25 33.3L278.396 33.8196L278.688 34.3L279.25 34.3L279.25 33.3ZM267.3 13.65L267.3 12.65L265.521 12.65L266.446 14.1696L267.3 13.65ZM269 13.65L270 13.65L270 12.65L269 12.65L269 13.65ZM269 37L269 38L270 38L270 37L269 37ZM261.4 37L262.4 37L262.4 1.99999L261.4 1.99999L260.4 1.99999L260.4 37L261.4 37ZM261.4 1.99999L261.4 2.99999L268.1 2.99999L268.1 1.99999L268.1 0.999986L261.4 0.999987L261.4 1.99999ZM268.1 1.99999L267.244 2.51652L282.144 27.2165L283 26.7L283.856 26.1835L268.956 1.48345L268.1 1.99999ZM283 26.7L283 25.7L279.45 25.7L279.45 26.7L279.45 27.7L283 27.7L283 26.7ZM279.45 26.7L280.31 27.2101L294.96 2.51012L294.1 1.99999L293.24 1.48985L278.59 26.1898L279.45 26.7ZM294.1 1.99999L294.1 2.99999L300.75 2.99998L300.75 1.99998L300.75 0.999985L294.1 0.999985L294.1 1.99999ZM300.75 1.99998L299.75 2.00284L299.85 37.0028L300.85 37L301.85 36.9971L301.75 1.99713L300.75 1.99998ZM300.85 37L300.85 36L293.25 36L293.25 37L293.25 38L300.85 38L300.85 37ZM293.25 37L294.25 36.9978L294.2 13.6478L293.2 13.65L292.2 13.6521L292.25 37.0021L293.25 37ZM293.2 13.65L293.2 14.65L294.6 14.65L294.6 13.65L294.6 12.65L293.2 12.65L293.2 13.65ZM294.6 13.65L293.741 13.1384L282.041 32.7884L282.9 33.3L283.759 33.8116L295.459 14.1616L294.6 13.65ZM282.9 33.3L282.9 32.3L279.25 32.3L279.25 33.3L279.25 34.3L282.9 34.3L282.9 33.3ZM279.25 33.3L280.104 32.7804L268.154 13.1304L267.3 13.65L266.446 14.1696L278.396 33.8196L279.25 33.3ZM267.3 13.65L267.3 14.65L269 14.65L269 13.65L269 12.65L267.3 12.65L267.3 13.65ZM269 13.65L268 13.65L268 37L269 37L270 37L270 13.65L269 13.65ZM269 37L269 36L261.4 36L261.4 37L261.4 38L269 38L269 37ZM316.604 16.1L316.604 15.1L315.604 15.1L315.604 16.1L316.604 16.1ZM333.454 16.1L334.454 16.1L334.454 15.1L333.454 15.1L333.454 16.1ZM333.454 22.4L333.454 23.4L334.454 23.4L334.454 22.4L333.454 22.4ZM316.604 22.4L315.604 22.4L315.604 23.4L316.604 23.4L316.604 22.4ZM317.204 30.5L316.204 30.5L316.204 31.5L317.204 31.5L317.204 30.5ZM336.254 30.5L337.254 30.5L337.254 29.5L336.254 29.5L336.254 30.5ZM336.254 37L336.254 38L337.254 38L337.254 37L336.254 37ZM309.154 37L308.154 37L308.154 38L309.154 38L309.154 37ZM309.154 1.99998L309.154 0.999985L308.154 0.999985L308.154 1.99998L309.154 1.99998ZM335.604 1.99998L336.604 1.99998L336.604 0.999983L335.604 0.999983L335.604 1.99998ZM335.604 8.49998L335.604 9.49998L336.604 9.49998L336.604 8.49998L335.604 8.49998ZM317.204 8.49998L317.204 7.49998L316.204 7.49998L316.204 8.49998L317.204 8.49998ZM316.604 16.1L316.604 17.1L333.454 17.1L333.454 16.1L333.454 15.1L316.604 15.1L316.604 16.1ZM333.454 16.1L332.454 16.1L332.454 22.4L333.454 22.4L334.454 22.4L334.454 16.1L333.454 16.1ZM333.454 22.4L333.454 21.4L316.604 21.4L316.604 22.4L316.604 23.4L333.454 23.4L333.454 22.4ZM316.604 22.4L317.604 22.4L317.604 16.1L316.604 16.1L315.604 16.1L315.604 22.4L316.604 22.4ZM317.204 30.5L317.204 31.5L336.254 31.5L336.254 30.5L336.254 29.5L317.204 29.5L317.204 30.5ZM336.254 30.5L335.254 30.5L335.254 37L336.254 37L337.254 37L337.254 30.5L336.254 30.5ZM336.254 37L336.254 36L309.154 36L309.154 37L309.154 38L336.254 38L336.254 37ZM309.154 37L310.154 37L310.154 1.99998L309.154 1.99998L308.154 1.99998L308.154 37L309.154 37ZM309.154 1.99998L309.154 2.99998L335.604 2.99998L335.604 1.99998L335.604 0.999983L309.154 0.999985L309.154 1.99998ZM335.604 1.99998L334.604 1.99998L334.604 8.49998L335.604 8.49998L336.604 8.49998L336.604 1.99998L335.604 1.99998ZM335.604 8.49998L335.604 7.49998L317.204 7.49998L317.204 8.49998L317.204 9.49998L335.604 9.49998L335.604 8.49998ZM317.204 8.49998L316.204 8.49998L316.204 30.5L317.204 30.5L318.204 30.5L318.204 8.49998L317.204 8.49998ZM342.699 37L341.699 37L341.699 38L342.699 38L342.699 37ZM342.699 1.99998L342.699 0.999983L341.699 0.999983L341.699 1.99998L342.699 1.99998ZM365.949 3.54998L365.534 4.45996L365.545 4.4649L365.949 3.54998ZM371.199 7.89998L370.36 8.44445L371.199 7.89998ZM371.199 21.45L372.033 22.0013L372.038 21.9945L371.199 21.45ZM365.949 25.75L366.352 26.6649L365.949 25.75ZM347.199 27.25L346.497 26.5379L344.761 28.25L347.199 28.25L347.199 27.25ZM350.799 23.7L351.799 23.7L351.799 21.3094L350.097 22.9879L350.799 23.7ZM350.799 37L350.799 38L351.799 38L351.799 37L350.799 37ZM364.949 37L364.125 37.5673L364.423 38L364.949 38L364.949 37ZM356.199 24.3L356.199 23.3L354.295 23.3L355.375 24.8673L356.199 24.3ZM364.849 24.3L365.669 23.7283L365.371 23.3L364.849 23.3L364.849 24.3ZM373.699 37L373.699 38L375.615 38L374.519 36.4283L373.699 37ZM350.799 24.6L350.073 25.2877L351.799 27.1096L351.799 24.6L350.799 24.6ZM347.199 20.8L347.199 19.8L344.874 19.8L346.473 21.4877L347.199 20.8ZM362.999 19.2L363.653 19.9563L363.659 19.9514L363.664 19.9463L362.999 19.2ZM347.199 8.59998L346.468 7.91699L344.895 9.59998L347.199 9.59998L347.199 8.59998ZM350.799 4.74998L351.799 4.74998L351.799 2.2164L350.068 4.06699L350.799 4.74998ZM342.699 37L343.699 37L343.699 1.99998L342.699 1.99998L341.699 1.99998L341.699 37L342.699 37ZM342.699 1.99998L342.699 2.99998L357.849 2.99998L357.849 1.99998L357.849 0.999982L342.699 0.999983L342.699 1.99998ZM357.849 1.99998L357.849 2.99998C360.875 2.99998 363.427 3.49916 365.534 4.45989L365.949 3.54998L366.364 2.64007C363.938 1.53414 361.09 0.999982 357.849 0.999982L357.849 1.99998ZM365.949 3.54998L365.545 4.4649C367.651 5.39403 369.243 6.72286 370.36 8.44445L371.199 7.89998L372.038 7.35551C370.688 5.27711 368.78 3.70593 366.352 2.63506L365.949 3.54998ZM371.199 7.89998L370.36 8.44445C371.472 10.1574 372.049 12.2278 372.049 14.7L373.049 14.7L374.049 14.7C374.049 11.9055 373.392 9.44258 372.038 7.35551L371.199 7.89998ZM373.049 14.7L372.049 14.7C372.049 17.136 371.473 19.1906 370.36 20.9055L371.199 21.45L372.038 21.9945C373.391 19.9094 374.049 17.4639 374.049 14.7L373.049 14.7ZM371.199 21.45L370.365 20.8987C369.248 22.5885 367.656 23.9039 365.545 24.8351L365.949 25.75L366.352 26.6649C368.775 25.5961 370.683 24.0448 372.033 22.0012L371.199 21.45ZM365.949 25.75L365.545 24.8351C363.435 25.7662 360.879 26.25 357.849 26.25L357.849 27.25L357.849 28.25C361.086 28.25 363.93 27.7338 366.352 26.6649L365.949 25.75ZM357.849 27.25L357.849 26.25L347.199 26.25L347.199 27.25L347.199 28.25L357.849 28.25L357.849 27.25ZM347.199 27.25L347.901 27.962L351.501 24.412L350.799 23.7L350.097 22.9879L346.497 26.5379L347.199 27.25ZM350.799 23.7L349.799 23.7L349.799 37L350.799 37L351.799 37L351.799 23.7L350.799 23.7ZM350.799 37L350.799 36L342.699 36L342.699 37L342.699 38L350.799 38L350.799 37ZM364.949 37L365.772 36.4326L357.022 23.7326L356.199 24.3L355.375 24.8673L364.125 37.5673L364.949 37ZM356.199 24.3L356.199 25.3L364.849 25.3L364.849 24.3L364.849 23.3L356.199 23.3L356.199 24.3ZM364.849 24.3L364.028 24.8717L372.878 37.5717L373.699 37L374.519 36.4283L365.669 23.7283L364.849 24.3ZM373.699 37L373.699 36L364.949 36L364.949 37L364.949 38L373.699 38L373.699 37ZM350.799 24.6L351.525 23.9122L347.925 20.1122L347.199 20.8L346.473 21.4877L350.073 25.2877L350.799 24.6ZM347.199 20.8L347.199 21.8L357.399 21.8L357.399 20.8L357.399 19.8L347.199 19.8L347.199 20.8ZM357.399 20.8L357.399 21.8C360.016 21.8 362.163 21.2453 363.653 19.9563L362.999 19.2L362.345 18.4436C361.368 19.288 359.781 19.8 357.399 19.8L357.399 20.8ZM362.999 19.2L363.664 19.9463C365.143 18.6273 365.849 16.8379 365.849 14.7L364.849 14.7L363.849 14.7C363.849 16.3621 363.321 17.5727 362.333 18.4537L362.999 19.2ZM364.849 14.7L365.849 14.7C365.849 12.5356 365.147 10.7359 363.653 9.44362L362.999 10.2L362.345 10.9563C363.317 11.7974 363.849 12.9977 363.849 14.7L364.849 14.7ZM362.999 10.2L363.653 9.44362C362.163 8.15471 360.016 7.59998 357.399 7.59998L357.399 8.59998L357.399 9.59998C359.781 9.59998 361.368 10.1119 362.345 10.9563L362.999 10.2ZM357.399 8.59998L357.399 7.59998L347.199 7.59998L347.199 8.59998L347.199 9.59998L357.399 9.59998L357.399 8.59998ZM347.199 8.59998L347.929 9.28298L351.529 5.43298L350.799 4.74998L350.068 4.06699L346.468 7.91699L347.199 8.59998ZM350.799 4.74998L349.799 4.74998L349.799 24.6L350.799 24.6L351.799 24.6L351.799 4.74998L350.799 4.74998ZM382.916 36.5L382.63 37.4582L382.642 37.4615L382.916 36.5ZM376.716 33.55L375.805 33.139L375.479 33.8618L376.108 34.3439L376.716 33.55ZM379.466 27.45L380.046 26.635L379.055 25.9301L378.555 27.039L379.466 27.45ZM384.766 30.1L384.441 31.0455L384.45 31.0487L384.459 31.0517L384.766 30.1ZM394.866 30.65L395.163 31.605L395.173 31.602L395.183 31.5987L394.866 30.65ZM397.066 29.3L396.294 28.6643L397.066 29.3ZM396.666 25.15L396.055 25.9413L396.066 25.9502L396.078 25.9587L396.666 25.15ZM393.766 23.8L393.474 24.7563L393.486 24.7601L393.499 24.7635L393.766 23.8ZM389.766 22.8L389.54 23.774L389.553 23.777L389.566 23.7797L389.766 22.8ZM385.416 21.6L385.107 22.5509L385.113 22.5529L385.416 21.6ZM381.466 19.8L380.945 20.6533L380.945 20.6533L381.466 19.8ZM378.516 16.9L377.663 17.4214L377.668 17.43L377.674 17.4384L378.516 16.9ZM379.016 6.84998L378.182 6.29913L378.179 6.30319L379.016 6.84998ZM383.916 2.89998L384.324 3.81323L384.33 3.81035L383.916 2.89998ZM398.666 2.19998L398.424 3.17012L398.431 3.17191L398.438 3.1736L398.666 2.19998ZM404.316 4.49998L405.243 4.87656L405.558 4.10195L404.851 3.6549L404.316 4.49998ZM401.816 10.65L401.32 11.5182L402.312 12.0852L402.743 11.0266L401.816 10.65ZM396.916 8.59998L396.642 9.56151L396.651 9.56411L396.66 9.56654L396.916 8.59998ZM388.266 8.44998L387.922 7.5111L388.266 8.44998ZM386.116 9.89998L386.911 10.5074L386.919 10.4966L386.927 10.4855L386.116 9.89998ZM386.566 14.1L385.955 14.8913L385.966 14.9002L385.978 14.9087L386.566 14.1ZM389.466 15.4L389.199 16.3635L389.466 15.4ZM393.416 16.4L393.19 17.374L393.195 17.3751L393.416 16.4ZM397.766 17.55L397.477 18.5072L397.483 18.509L397.766 17.55ZM401.766 19.3L402.288 18.4467L401.766 19.3ZM404.666 22.2L403.813 22.7214L403.818 22.73L403.824 22.7384L404.666 22.2ZM404.166 32.15L404.996 32.7086L404.166 32.15ZM399.216 36.1L398.803 35.1896L398.797 35.192L399.216 36.1ZM390.966 37.6L390.966 36.6C388.255 36.6 385.664 36.245 383.191 35.5385L382.916 36.5L382.642 37.4615C385.302 38.2216 388.078 38.6 390.966 38.6L390.966 37.6ZM382.916 36.5L383.203 35.5418C380.713 34.7983 378.767 33.861 377.324 32.7561L376.716 33.55L376.108 34.3439C377.799 35.6389 379.986 36.6683 382.63 37.4582L382.916 36.5ZM376.716 33.55L377.628 33.961L380.378 27.861L379.466 27.45L378.555 27.039L375.805 33.139L376.716 33.55ZM379.466 27.45L378.887 28.2649C380.477 29.3955 382.332 30.3195 384.441 31.0455L384.766 30.1L385.092 29.1544C383.134 28.4805 381.456 27.6378 380.046 26.635L379.466 27.45ZM384.766 30.1L384.459 31.0517C386.622 31.7493 388.809 32.1 391.016 32.1L391.016 31.1L391.016 30.1C389.024 30.1 387.044 29.784 385.073 29.1483L384.766 30.1ZM391.016 31.1L391.016 32.1C392.666 32.1 394.061 31.9469 395.163 31.605L394.866 30.65L394.57 29.6949C393.738 29.953 392.567 30.1 391.016 30.1L391.016 31.1ZM394.866 30.65L395.183 31.5987C396.287 31.2305 397.211 30.6976 397.838 29.9357L397.066 29.3L396.294 28.6643C395.989 29.0357 395.446 29.4028 394.55 29.7013L394.866 30.65ZM397.066 29.3L397.838 29.9357C398.452 29.1902 398.766 28.3155 398.766 27.35L397.766 27.35L396.766 27.35C396.766 27.8511 396.614 28.2764 396.294 28.6643L397.066 29.3ZM397.766 27.35L398.766 27.35C398.766 26.1078 398.255 25.0692 397.255 24.3412L396.666 25.15L396.078 25.9587C396.544 26.2974 396.766 26.7255 396.766 27.35L397.766 27.35ZM396.666 25.15L397.278 24.3587C396.414 23.6908 395.318 23.1932 394.034 22.8365L393.766 23.8L393.499 24.7635C394.614 25.0734 395.453 25.4758 396.055 25.9413L396.666 25.15ZM393.766 23.8L394.059 22.8436C392.823 22.4662 391.459 22.1254 389.967 21.8203L389.766 22.8L389.566 23.7797C391.007 24.0745 392.31 24.4005 393.474 24.7563L393.766 23.8ZM389.766 22.8L389.993 21.826C388.587 21.4989 387.162 21.106 385.72 20.6471L385.416 21.6L385.113 22.5529C386.604 23.0273 388.08 23.4344 389.54 23.774L389.766 22.8ZM385.416 21.6L385.726 20.6491C384.362 20.2049 383.117 19.6365 381.988 18.9467L381.466 19.8L380.945 20.6533C382.216 21.4301 383.605 22.0618 385.107 22.5509L385.416 21.6ZM381.466 19.8L381.988 18.9467C380.919 18.2936 380.045 17.4353 379.359 16.3616L378.516 16.9L377.674 17.4384C378.521 18.7647 379.614 19.8397 380.945 20.6533L381.466 19.8ZM378.516 16.9L379.37 16.3785C378.759 15.379 378.416 14.0413 378.416 12.3L377.416 12.3L376.416 12.3C376.416 14.292 376.807 16.021 377.663 17.4214L378.516 16.9ZM377.416 12.3L378.416 12.3C378.416 10.489 378.896 8.86322 379.854 7.39677L379.016 6.84998L378.179 6.30319C377.003 8.10341 376.416 10.111 376.416 12.3L377.416 12.3ZM379.016 6.84998L379.851 7.40082C380.828 5.921 382.298 4.71704 384.324 3.81321L383.916 2.89998L383.509 1.98675C381.201 3.01625 379.405 4.44563 378.182 6.29914L379.016 6.84998ZM383.916 2.89998L384.33 3.81035C386.362 2.88685 388.96 2.39998 392.166 2.39998L392.166 1.39998L392.166 0.399983C388.773 0.399983 385.871 0.913118 383.503 1.98961L383.916 2.89998ZM392.166 1.39998L392.166 2.39998C394.285 2.39998 396.37 2.65663 398.424 3.17012L398.666 2.19998L398.909 1.22984C396.696 0.676666 394.448 0.399982 392.166 0.399983L392.166 1.39998ZM398.666 2.19998L398.438 3.1736C400.477 3.6515 402.254 4.37876 403.782 5.34506L404.316 4.49998L404.851 3.6549C403.112 2.55454 401.122 1.74846 398.895 1.22636L398.666 2.19998ZM404.316 4.49998L403.39 4.1234L400.89 10.2734L401.816 10.65L402.743 11.0266L405.243 4.87656L404.316 4.49998ZM401.816 10.65L402.313 9.78174C400.612 8.81017 398.899 8.09134 397.173 7.63342L396.916 8.59998L396.66 9.56654C398.201 9.97529 399.754 10.6231 401.32 11.5182L401.816 10.65ZM396.916 8.59998L397.191 7.63846C395.476 7.1484 393.783 6.89998 392.116 6.89998L392.116 7.89998L392.116 8.89998C393.583 8.89998 395.09 9.11823 396.642 9.56151L396.916 8.59998ZM392.116 7.89998L392.116 6.89998C390.482 6.89998 389.071 7.08974 387.922 7.5111L388.266 8.44998L388.611 9.38886C389.461 9.07689 390.617 8.89998 392.116 8.89998L392.116 7.89998ZM388.266 8.44998L387.922 7.5111C386.813 7.91765 385.897 8.49624 385.306 9.31449L386.116 9.89998L386.927 10.4855C387.203 10.1037 387.719 9.71565 388.611 9.38886L388.266 8.44998ZM386.116 9.89998L385.322 9.29253C384.745 10.047 384.466 10.9312 384.466 11.9L385.466 11.9L386.466 11.9C386.466 11.3354 386.621 10.8863 386.911 10.5074L386.116 9.89998ZM385.466 11.9L384.466 11.9C384.466 13.1203 384.985 14.1418 385.955 14.8913L386.566 14.1L387.178 13.3087C386.681 12.9248 386.466 12.4797 386.466 11.9L385.466 11.9ZM386.566 14.1L385.978 14.9087C386.837 15.5333 387.924 16.0093 389.199 16.3635L389.466 15.4L389.734 14.4365C388.609 14.124 387.762 13.7333 387.155 13.2912L386.566 14.1ZM389.466 15.4L389.199 16.3635C390.415 16.7012 391.745 17.038 393.19 17.374L393.416 16.4L393.643 15.426C392.221 15.0953 390.918 14.7654 389.734 14.4365L389.466 15.4ZM393.416 16.4L393.195 17.3751C394.639 17.7033 396.066 18.0807 397.477 18.5072L397.766 17.55L398.056 16.5928C396.6 16.1526 395.127 15.7633 393.638 15.4248L393.416 16.4ZM397.766 17.55L397.483 18.509C398.873 18.9198 400.126 19.4692 401.245 20.1533L401.766 19.3L402.288 18.4467C401.007 17.6641 399.593 17.0469 398.05 16.591L397.766 17.55ZM401.766 19.3L401.245 20.1533C402.31 20.8039 403.163 21.6568 403.813 22.7214L404.666 22.2L405.52 21.6785C404.704 20.3432 403.623 19.2628 402.288 18.4467L401.766 19.3ZM404.666 22.2L403.824 22.7384C404.462 23.7373 404.816 25.0533 404.816 26.75L405.816 26.75L406.816 26.75C406.816 24.78 406.404 23.0626 405.509 21.6616L404.666 22.2ZM405.816 26.75L404.816 26.75C404.816 28.5174 404.326 30.1229 403.337 31.5914L404.166 32.15L404.996 32.7086C406.207 30.9104 406.816 28.9159 406.816 26.75L405.816 26.75ZM404.166 32.15L403.337 31.5914C402.362 33.0398 400.872 34.2488 398.803 35.1896L399.216 36.1L399.63 37.0104C401.96 35.9512 403.771 34.5268 404.996 32.7086L404.166 32.15ZM399.216 36.1L398.797 35.192C396.803 36.1123 394.209 36.6 390.966 36.6L390.966 37.6L390.966 38.6C394.391 38.6 397.296 38.0876 399.635 37.0079L399.216 36.1ZM428.961 36.5L428.675 37.4582L428.687 37.4615L428.961 36.5ZM422.761 33.55L421.85 33.139L421.524 33.8618L422.153 34.3439L422.761 33.55ZM425.511 27.45L426.091 26.635L425.1 25.9301L424.6 27.039L425.511 27.45ZM430.811 30.1L430.486 31.0455L430.495 31.0487L430.504 31.0517L430.811 30.1ZM440.911 30.65L441.208 31.605L441.218 31.602L441.228 31.5987L440.911 30.65ZM443.111 29.3L442.339 28.6643L443.111 29.3ZM442.711 25.15L442.1 25.9413L442.111 25.9502L442.123 25.9587L442.711 25.15ZM439.811 23.8L439.519 24.7563L439.531 24.7601L439.544 24.7635L439.811 23.8ZM435.811 22.8L435.585 23.774L435.598 23.777L435.611 23.7797L435.811 22.8ZM431.461 21.6L431.152 22.5509L431.158 22.5529L431.461 21.6ZM427.511 19.8L426.99 20.6533L426.99 20.6533L427.511 19.8ZM424.561 16.9L423.708 17.4214L423.713 17.43L423.719 17.4384L424.561 16.9ZM425.061 6.84998L424.227 6.29913L424.224 6.30319L425.061 6.84998ZM429.961 2.89998L430.369 3.81323L430.375 3.81035L429.961 2.89998ZM444.711 2.19998L444.469 3.17012L444.476 3.17191L444.483 3.1736L444.711 2.19998ZM450.361 4.49998L451.288 4.87656L451.603 4.10195L450.896 3.6549L450.361 4.49998ZM447.861 10.65L447.365 11.5182L448.357 12.0852L448.788 11.0266L447.861 10.65ZM442.961 8.59998L442.687 9.5615L442.696 9.56411L442.705 9.56654L442.961 8.59998ZM434.311 8.44998L433.967 7.5111L434.311 8.44998ZM432.161 9.89998L432.956 10.5074L432.964 10.4966L432.972 10.4855L432.161 9.89998ZM432.611 14.1L432 14.8913L432.011 14.9002L432.023 14.9087L432.611 14.1ZM435.511 15.4L435.244 16.3635L435.511 15.4ZM439.461 16.4L439.235 17.374L439.24 17.3751L439.461 16.4ZM443.811 17.55L443.522 18.5072L443.528 18.509L443.811 17.55ZM447.811 19.3L448.333 18.4467L447.811 19.3ZM450.711 22.2L449.858 22.7214L449.863 22.73L449.869 22.7384L450.711 22.2ZM450.211 32.15L451.041 32.7086L450.211 32.15ZM445.261 36.1L444.848 35.1896L444.842 35.192L445.261 36.1ZM437.011 37.6L437.011 36.6C434.3 36.6 431.709 36.245 429.236 35.5385L428.961 36.5L428.687 37.4615C431.347 38.2216 434.123 38.6 437.011 38.6L437.011 37.6ZM428.961 36.5L429.248 35.5418C426.758 34.7983 424.812 33.861 423.369 32.7561L422.761 33.55L422.153 34.3439C423.844 35.6389 426.031 36.6683 428.675 37.4581L428.961 36.5ZM422.761 33.55L423.673 33.961L426.423 27.861L425.511 27.45L424.6 27.039L421.85 33.139L422.761 33.55ZM425.511 27.45L424.932 28.2649C426.522 29.3955 428.377 30.3195 430.486 31.0455L430.811 30.1L431.137 29.1544C429.179 28.4805 427.501 27.6378 426.091 26.635L425.511 27.45ZM430.811 30.1L430.504 31.0517C432.667 31.7493 434.854 32.1 437.061 32.1L437.061 31.1L437.061 30.1C435.069 30.1 433.089 29.784 431.118 29.1483L430.811 30.1ZM437.061 31.1L437.061 32.1C438.711 32.1 440.106 31.9469 441.208 31.605L440.911 30.65L440.615 29.6949C439.783 29.953 438.612 30.1 437.061 30.1L437.061 31.1ZM440.911 30.65L441.228 31.5987C442.332 31.2305 443.256 30.6976 443.883 29.9357L443.111 29.3L442.339 28.6643C442.033 29.0357 441.491 29.4028 440.595 29.7013L440.911 30.65ZM443.111 29.3L443.883 29.9357C444.497 29.1902 444.811 28.3155 444.811 27.35L443.811 27.35L442.811 27.35C442.811 27.8511 442.659 28.2764 442.339 28.6643L443.111 29.3ZM443.811 27.35L444.811 27.35C444.811 26.1078 444.3 25.0692 443.3 24.3412L442.711 25.15L442.123 25.9587C442.589 26.2974 442.811 26.7255 442.811 27.35L443.811 27.35ZM442.711 25.15L443.323 24.3587C442.458 23.6908 441.363 23.1932 440.079 22.8365L439.811 23.8L439.544 24.7635C440.659 25.0734 441.498 25.4758 442.1 25.9413L442.711 25.15ZM439.811 23.8L440.104 22.8436C438.868 22.4662 437.504 22.1254 436.012 21.8203L435.811 22.8L435.611 23.7797C437.052 24.0745 438.354 24.4005 439.519 24.7563L439.811 23.8ZM435.811 22.8L436.038 21.826C434.632 21.4989 433.207 21.106 431.765 20.6471L431.461 21.6L431.158 22.5529C432.649 23.0272 434.125 23.4344 435.585 23.774L435.811 22.8ZM431.461 21.6L431.771 20.6491C430.406 20.2049 429.162 19.6365 428.033 18.9467L427.511 19.8L426.99 20.6533C428.261 21.4301 429.65 22.0618 431.152 22.5509L431.461 21.6ZM427.511 19.8L428.033 18.9467C426.964 18.2936 426.09 17.4353 425.404 16.3616L424.561 16.9L423.719 17.4384C424.566 18.7647 425.659 19.8397 426.99 20.6533L427.511 19.8ZM424.561 16.9L425.415 16.3785C424.804 15.379 424.461 14.0413 424.461 12.3L423.461 12.3L422.461 12.3C422.461 14.292 422.852 16.021 423.708 17.4214L424.561 16.9ZM423.461 12.3L424.461 12.3C424.461 10.489 424.941 8.86322 425.899 7.39677L425.061 6.84998L424.224 6.30319C423.048 8.10341 422.461 10.111 422.461 12.3L423.461 12.3ZM425.061 6.84998L425.896 7.40082C426.873 5.92099 428.343 4.71704 430.369 3.81321L429.961 2.89998L429.554 1.98675C427.246 3.01625 425.45 4.44563 424.227 6.29914L425.061 6.84998ZM429.961 2.89998L430.375 3.81035C432.407 2.88684 435.005 2.39998 438.211 2.39998L438.211 1.39998L438.211 0.399981C434.818 0.399981 431.916 0.913116 429.548 1.98961L429.961 2.89998ZM438.211 1.39998L438.211 2.39998C440.33 2.39998 442.415 2.65663 444.469 3.17012L444.711 2.19998L444.954 1.22984C442.741 0.676664 440.493 0.39998 438.211 0.399981L438.211 1.39998ZM444.711 2.19998L444.483 3.1736C446.522 3.6515 448.299 4.37875 449.827 5.34506L450.361 4.49998L450.896 3.6549C449.157 2.55454 447.167 1.74846 444.94 1.22636L444.711 2.19998ZM450.361 4.49998L449.435 4.1234L446.935 10.2734L447.861 10.65L448.788 11.0266L451.288 4.87656L450.361 4.49998ZM447.861 10.65L448.357 9.78174C446.657 8.81017 444.944 8.09134 443.218 7.63342L442.961 8.59998L442.705 9.56654C444.246 9.97529 445.799 10.6231 447.365 11.5182L447.861 10.65ZM442.961 8.59998L443.236 7.63846C441.521 7.1484 439.828 6.89998 438.161 6.89998L438.161 7.89998L438.161 8.89998C439.628 8.89998 441.135 9.11823 442.687 9.5615L442.961 8.59998ZM438.161 7.89998L438.161 6.89998C436.527 6.89998 435.116 7.08974 433.967 7.5111L434.311 8.44998L434.656 9.38886C435.506 9.07689 436.662 8.89998 438.161 8.89998L438.161 7.89998ZM434.311 8.44998L433.967 7.5111C432.858 7.91765 431.942 8.49624 431.351 9.31449L432.161 9.89998L432.972 10.4855C433.248 10.1037 433.764 9.71565 434.656 9.38886L434.311 8.44998ZM432.161 9.89998L431.367 9.29253C430.79 10.047 430.511 10.9312 430.511 11.9L431.511 11.9L432.511 11.9C432.511 11.3354 432.666 10.8863 432.956 10.5074L432.161 9.89998ZM431.511 11.9L430.511 11.9C430.511 13.1203 431.03 14.1418 432 14.8913L432.611 14.1L433.223 13.3087C432.726 12.9248 432.511 12.4797 432.511 11.9L431.511 11.9ZM432.611 14.1L432.023 14.9087C432.882 15.5333 433.969 16.0093 435.244 16.3635L435.511 15.4L435.779 14.4365C434.654 14.124 433.807 13.7333 433.199 13.2912L432.611 14.1ZM435.511 15.4L435.244 16.3635C436.46 16.7012 437.79 17.038 439.235 17.374L439.461 16.4L439.688 15.426C438.266 15.0953 436.963 14.7654 435.779 14.4365L435.511 15.4ZM439.461 16.4L439.24 17.3751C440.684 17.7033 442.111 18.0807 443.522 18.5072L443.811 17.55L444.101 16.5928C442.645 16.1526 441.172 15.7633 439.683 15.4248L439.461 16.4ZM443.811 17.55L443.528 18.509C444.918 18.9198 446.17 19.4692 447.29 20.1533L447.811 19.3L448.333 18.4467C447.052 17.6641 445.638 17.0469 444.095 16.591L443.811 17.55ZM447.811 19.3L447.29 20.1533C448.355 20.8039 449.207 21.6568 449.858 22.7214L450.711 22.2L451.565 21.6785C450.749 20.3432 449.668 19.2628 448.333 18.4467L447.811 19.3ZM450.711 22.2L449.869 22.7384C450.507 23.7373 450.861 25.0533 450.861 26.75L451.861 26.75L452.861 26.75C452.861 24.78 452.449 23.0626 451.554 21.6616L450.711 22.2ZM451.861 26.75L450.861 26.75C450.861 28.5173 450.371 30.1229 449.382 31.5914L450.211 32.15L451.041 32.7086C452.252 30.9104 452.861 28.9159 452.861 26.75L451.861 26.75ZM450.211 32.15L449.382 31.5914C448.406 33.0398 446.917 34.2488 444.848 35.1896L445.261 36.1L445.675 37.0103C448.005 35.9512 449.816 34.5268 451.041 32.7086L450.211 32.15ZM445.261 36.1L444.842 35.192C442.848 36.1123 440.254 36.6 437.011 36.6L437.011 37.6L437.011 38.6C440.436 38.6 443.341 38.0876 445.68 37.0079L445.261 36.1ZM452.796 37L451.883 36.5929L451.256 38L452.796 38L452.796 37ZM468.396 1.99998L468.396 0.999978L467.747 0.999978L467.483 1.59287L468.396 1.99998ZM476.396 1.99998L477.309 1.59178L477.044 0.999977L476.396 0.999977L476.396 1.99998ZM492.046 37L492.046 38L493.589 38L492.959 36.5918L492.046 37ZM483.546 37L482.622 37.3827L482.878 38L483.546 38L483.546 37ZM470.746 6.09998L470.746 5.09998L469.249 5.09998L469.822 6.48268L470.746 6.09998ZM473.946 6.09998L474.869 6.48396L475.445 5.09998L473.946 5.09998L473.946 6.09998ZM461.096 37L461.096 38L461.763 38L462.019 37.384L461.096 37ZM460.596 29.5L459.652 29.17L459.187 30.5L460.596 30.5L460.596 29.5ZM462.746 23.35L462.746 22.35L462.036 22.35L461.802 23.02L462.746 23.35ZM480.746 23.35L481.688 23.0132L481.45 22.35L480.746 22.35L480.746 23.35ZM482.946 29.5L482.946 30.5L484.366 30.5L483.888 29.1632L482.946 29.5ZM452.796 37L453.709 37.4071L469.309 2.40708L468.396 1.99998L467.483 1.59287L451.883 36.5929L452.796 37ZM468.396 1.99998L468.396 2.99998L476.396 2.99998L476.396 1.99998L476.396 0.999977L468.396 0.999978L468.396 1.99998ZM476.396 1.99998L475.483 2.40817L491.133 37.4082L492.046 37L492.959 36.5918L477.309 1.59178L476.396 1.99998ZM492.046 37L492.046 36L483.546 36L483.546 37L483.546 38L492.046 38L492.046 37ZM483.546 37L484.47 36.6173L471.67 5.71727L470.746 6.09998L469.822 6.48268L482.622 37.3827L483.546 37ZM470.746 6.09998L470.746 7.09998L473.946 7.09998L473.946 6.09998L473.946 5.09998L470.746 5.09998L470.746 6.09998ZM473.946 6.09998L473.023 5.716L460.173 36.616L461.096 37L462.019 37.384L474.869 6.48396L473.946 6.09998ZM461.096 37L461.096 36L452.796 36L452.796 37L452.796 38L461.096 38L461.096 37ZM460.596 29.5L461.54 29.83L463.69 23.68L462.746 23.35L461.802 23.02L459.652 29.17L460.596 29.5ZM462.746 23.35L462.746 24.35L480.746 24.35L480.746 23.35L480.746 22.35L462.746 22.35L462.746 23.35ZM480.746 23.35L479.805 23.6868L482.005 29.8368L482.946 29.5L483.888 29.1632L481.688 23.0132L480.746 23.35ZM482.946 29.5L482.946 28.5L460.596 28.5L460.596 29.5L460.596 30.5L482.946 30.5L482.946 29.5ZM502.229 37L501.229 37L501.229 38L502.229 38L502.229 37ZM502.229 22.7L503.164 22.3468L501.229 22.7L502.229 22.7ZM504.079 27.6L503.222 28.1155L505.014 27.2468L504.079 27.6ZM488.679 1.99998L488.679 0.999977L486.91 0.999977L487.822 2.51546L488.679 1.99998ZM497.279 1.99998L498.136 1.48516L497.845 0.999976L497.279 0.999976L497.279 1.99998ZM509.079 21.65L509.079 22.65L510.846 22.65L509.936 21.1352L509.079 21.65ZM504.129 21.65L503.273 21.1336L502.358 22.65L504.129 22.65L504.129 21.65ZM515.979 1.99998L515.979 0.999976L515.414 0.999976L515.123 1.48356L515.979 1.99998ZM523.929 1.99998L524.786 2.51545L525.697 0.999975L523.929 0.999975L523.929 1.99998ZM508.529 27.6L507.59 27.2552L509.386 28.1155L508.529 27.6ZM510.329 22.7L511.329 22.7L509.39 22.3552L510.329 22.7ZM510.329 37L510.329 38L511.329 38L511.329 37L510.329 37ZM502.229 37L503.229 37L503.229 22.7L502.229 22.7L501.229 22.7L501.229 37L502.229 37ZM502.229 22.7L501.293 23.0532L503.143 27.9532L504.079 27.6L505.014 27.2468L503.164 22.3468L502.229 22.7ZM504.079 27.6L504.936 27.0845L489.536 1.4845L488.679 1.99998L487.822 2.51546L503.222 28.1155L504.079 27.6ZM488.679 1.99998L488.679 2.99998L497.279 2.99998L497.279 1.99998L497.279 0.999976L488.679 0.999977L488.679 1.99998ZM497.279 1.99998L496.422 2.51479L508.222 22.1648L509.079 21.65L509.936 21.1352L498.136 1.48516L497.279 1.99998ZM509.079 21.65L509.079 20.65L504.129 20.65L504.129 21.65L504.129 22.65L509.079 22.65L509.079 21.65ZM504.129 21.65L504.985 22.1664L516.835 2.51639L515.979 1.99998L515.123 1.48356L503.273 21.1336L504.129 21.65ZM515.979 1.99998L515.979 2.99998L523.929 2.99998L523.929 1.99998L523.929 0.999975L515.979 0.999976L515.979 1.99998ZM523.929 1.99998L523.072 1.4845L507.672 27.0845L508.529 27.6L509.386 28.1155L524.786 2.51545L523.929 1.99998ZM508.529 27.6L509.468 27.9448L511.268 23.0448L510.329 22.7L509.39 22.3552L507.59 27.2552L508.529 27.6ZM510.329 22.7L509.329 22.7L509.329 37L510.329 37L511.329 37L511.329 22.7L510.329 22.7ZM510.329 37L510.329 36L502.229 36L502.229 37L502.229 38L510.329 38L510.329 37Z" fill="white" mask="url(#path-1-outside-1_1196_934)"/>
</svg>
