<svg width="150" height="138" viewBox="0 0 150 138" fill="none" xmlns="http://www.w3.org/2000/svg">
<path d="M65.0893 0.618714L94.804 16.9496L124.519 33.2805C125.651 33.8159 126.217 34.8868 126.217 35.9576V101.281C126.217 102.62 125.651 103.691 124.519 104.226L94.804 120.289L94.521 120.557L64.8063 136.62C63.6743 137.423 62.2593 137.156 61.1273 136.62L31.4127 120.289L1.69798 103.958C0.565994 103.423 0 102.352 0 101.281V35.9576C0 34.6191 0.565994 33.5482 1.69798 33.0127L31.4127 16.9496L31.6957 16.6819L61.4103 0.618714C62.5423 -0.184444 63.9573 0.0832751 65.0893 0.618714ZM91.408 22.304L63.1083 7.04397L35.0916 22.304H34.8086L6.79193 37.8317V99.4071L34.8086 114.667V114.935L63.1083 130.195L91.125 114.935H91.408L119.425 99.4071V37.8317L91.408 22.5717V22.304Z" fill="#FFF5DF"/>
<path d="M74.2479 26.1929C72.5531 25.3904 70.5758 25.9254 69.7284 27.5303C68.5985 28.8677 69.1634 31.0076 70.8583 31.81L81.5923 37.6947H81.8747L100.518 47.8591V81.2945C100.518 82.8994 101.93 84.5043 103.908 84.5043C105.603 84.5043 107.297 82.8994 107.297 81.2945V46.2542C107.297 44.9167 106.732 43.8468 105.603 43.3118L85.2644 32.345C85.2644 32.0775 85.2644 32.0775 84.9819 32.0775L74.2479 26.1929ZM96.8458 98.4134C98.2582 97.611 98.8232 95.4711 97.9757 94.1337C97.1283 92.5288 94.8685 91.9938 93.4562 92.7963L81.5923 99.2159L81.3098 99.4834L70.0108 105.635C68.316 106.438 67.751 108.31 68.8809 109.915C69.7284 111.52 71.7057 112.055 73.4005 111.253L84.6995 104.833H84.9819L96.8458 98.4134ZM52.4974 111.253C54.1923 112.055 56.1696 111.52 57.017 109.915C58.1469 108.578 57.582 106.438 55.8871 105.635L44.3057 99.2159H44.0232L25.38 89.0515V47.8591L44.3057 37.6947L55.0397 31.81C56.7346 31.0076 57.2995 28.8677 56.1696 27.5303C55.3222 25.9254 53.3449 25.3904 51.65 26.1929L40.916 32.0775L20.5779 43.0443C19.448 43.5793 18.6006 44.9167 18.6006 45.9867V90.6564C18.6006 91.9938 19.1655 93.0638 20.2954 93.5987L40.6335 104.566C40.6335 104.566 40.6335 104.833 40.916 104.833L52.4974 111.253Z" fill="#FFF5DF"/>
<path d="M65.139 42.0589L75.9391 47.9307H76.2234L87.0235 53.8026C88.1603 54.6033 88.7288 55.6709 88.7288 56.7385V80.7597C88.7288 82.0943 88.1603 83.1619 87.0235 83.6957L75.9391 89.5675C75.9391 89.5675 75.9391 89.8344 75.6549 89.8344L64.8548 95.7063C63.718 96.2401 62.2969 96.2401 61.16 95.4394L50.3599 89.5675H50.0757L39.2756 83.6957C38.1387 82.895 37.5703 81.8274 37.5703 80.7597V56.7385C37.5703 55.404 38.1387 54.3364 39.2756 53.8026L50.3599 47.9307C50.3599 47.9307 50.3599 47.6638 50.6441 47.6638L61.4443 41.792C62.5811 41.2581 64.0022 41.2581 65.139 42.0589ZM72.5286 53.5357L63.1495 48.1976L54.0547 53.2688C53.7705 53.2688 53.7705 53.2688 53.7705 53.5357L44.3914 58.6068V78.8914L53.4863 83.9626H53.7705L63.1495 89.3006L72.2444 84.2295C72.5286 84.2295 72.5286 84.2295 72.5286 83.9626L81.9076 78.8914V58.6068L72.8128 53.5357H72.5286Z" fill="#FFF5DF"/>
<path d="M86.8526 77.9464C85.4398 77.1429 83.1793 77.6786 82.3316 79.0179C81.4839 80.625 82.049 82.5 83.4618 83.5714L93.634 88.9286C95.0468 89.7321 97.3072 89.1964 98.1549 87.8571C99.0026 86.25 98.4375 84.375 97.0247 83.3036L86.8526 77.9464ZM114.543 92.9464C112.848 92.1429 110.87 92.6786 110.022 94.2857C108.892 95.625 109.457 97.7679 111.153 98.5714L121.042 103.929C122.738 105 124.715 104.464 125.846 102.857C126.693 101.25 126.128 99.375 124.433 98.5714L114.543 92.9464ZM66.5083 92.6786C66.5083 91.0714 65.0955 89.4643 63.1176 89.4643C61.1397 89.4643 59.7269 91.0714 59.7269 92.6786V103.661C59.7269 105.536 61.1397 106.875 63.1176 106.875C65.0955 106.875 66.5083 105.536 66.5083 103.661V92.6786ZM66.5083 122.946C66.5083 121.339 65.0955 119.732 63.1176 119.732C61.1397 119.732 59.7269 121.339 59.7269 122.946V133.929C59.7269 135.804 61.1397 137.143 63.1176 137.143C65.0955 137.143 66.5083 135.804 66.5083 133.929V122.946ZM42.7733 83.5714C44.1861 82.5 44.7512 80.625 43.9036 79.0179C43.0559 77.6786 40.7954 77.1429 39.3826 77.9464L1.80225 98.5714C0.10689 99.375 -0.458228 101.25 0.389449 102.857C1.51969 104.464 3.4976 105 5.19296 103.929L42.7733 83.5714ZM39.3826 59.1964C40.7954 60 43.0559 59.4643 43.9036 58.125C44.7512 56.5179 44.1861 54.6429 42.7733 53.5714L5.19296 33.2143C3.4976 32.1429 1.51969 32.6786 0.389449 34.2857C-0.458228 35.8929 0.10689 37.7679 1.80225 38.5714L39.3826 59.1964ZM59.7269 44.4643C59.7269 46.0714 61.1397 47.6786 63.1176 47.6786C65.0955 47.6786 66.5083 46.0714 66.5083 44.4643V35.625C66.5083 33.75 65.0955 32.4107 63.1176 32.4107C61.1397 32.4107 59.7269 33.75 59.7269 35.625V44.4643ZM59.7269 16.3393C59.7269 18.2143 61.1397 19.5536 63.1176 19.5536C65.0955 19.5536 66.5083 18.2143 66.5083 16.3393V3.21429C66.5083 1.33929 65.0955 0 63.1176 0C61.1397 0 59.7269 1.33929 59.7269 3.21429V16.3393ZM83.4618 53.5714C82.049 54.6429 81.4839 56.5179 82.3316 58.125C83.1793 59.4643 85.4398 60 86.8526 59.1964L124.433 38.5714C126.128 37.7679 126.693 35.8929 125.846 34.2857C124.715 32.6786 122.738 32.1429 121.042 33.2143L83.4618 53.5714Z" fill="#FFF5DF"/>
<path d="M63.1162 37.1046C69.5376 37.1046 74.7431 32.2103 74.7431 26.1729C74.7431 20.1355 69.5376 15.2412 63.1162 15.2412C56.6948 15.2412 51.4893 20.1355 51.4893 26.1729C51.4893 32.2103 56.6948 37.1046 63.1162 37.1046Z" fill="#EE3860"/>
<path d="M63.1162 124.552C69.5376 124.552 74.7431 119.584 74.7431 113.455C74.7431 107.326 69.5376 102.357 63.1162 102.357C56.6948 102.357 51.4893 107.326 51.4893 113.455C51.4893 119.584 56.6948 124.552 63.1162 124.552Z" fill="#FFC10E"/>
<path d="M103.978 102.359C110.4 102.359 115.605 97.3907 115.605 91.2619C115.605 85.133 110.4 80.1646 103.978 80.1646C97.5571 80.1646 92.3516 85.133 92.3516 91.2619C92.3516 97.3907 97.5571 102.359 103.978 102.359Z" fill="#24C4F8"/>
<path d="M148.861 14.441C148.649 14.1045 148.374 13.8151 148.051 13.589C147.728 13.363 147.365 13.2045 146.98 13.1236L123.56 8.22852C123.127 8.13161 122.673 8.17162 122.259 8.34294C121.115 8.86232 120.485 10.3859 121.281 11.6211L124.603 16.8604L127.068 20.7404L127.238 21.0176L102.87 37.3924C102.626 37.5548 102.415 37.7649 102.25 38.0103C102.084 38.2556 101.968 38.5312 101.907 38.8217C101.846 39.1122 101.841 39.412 101.894 39.7029C101.947 39.9938 102.055 40.2706 102.213 40.5171L106.972 48.0006C107.289 48.498 107.787 48.8443 108.357 48.9634C108.926 49.0825 109.522 48.9647 110.012 48.6359L134.386 32.2633L136.972 36.3344L140.38 41.7087C141.403 43.3017 143.899 42.7816 144.296 40.8923L149.285 16.7435C149.46 15.9112 149.283 15.0881 148.864 14.4281L148.861 14.441ZM96.3795 43.7729C96.2623 43.5879 96.1103 43.429 95.9322 43.3048C95.7541 43.1807 95.5534 43.0943 95.3416 43.0501C95.1299 43.0058 94.9113 43.0045 94.6982 43.0469C94.4851 43.0893 94.2819 43.1739 94.1 43.2965L91.3303 45.1521C91.1481 45.2742 90.9909 45.4315 90.8675 45.6152C90.7442 45.7989 90.6572 46.0053 90.6116 46.2225C90.5659 46.4398 90.5625 46.6636 90.6014 46.8813C90.6404 47.0989 90.7211 47.3059 90.8387 47.4907L96.1925 55.92C96.3097 56.1051 96.4618 56.264 96.6399 56.3881C96.8179 56.5123 97.0187 56.5986 97.2304 56.6429C97.4422 56.6871 97.6608 56.6884 97.8739 56.6461C98.0869 56.6037 98.2902 56.519 98.4721 56.3965L101.242 54.5408C101.608 54.2942 101.865 53.9101 101.957 53.473C102.048 53.0359 101.968 52.5812 101.732 52.2088L96.3795 43.7729ZM85.3044 51.2097C85.0675 50.8381 84.6953 50.579 84.2692 50.49C83.8431 50.4009 83.3979 50.4891 83.0313 50.7346L80.2602 52.5967C79.8943 52.8434 79.6373 53.2275 79.5454 53.6646C79.4535 54.1017 79.5343 54.5564 79.77 54.9288L85.124 63.3573C85.2412 63.5424 85.3933 63.7013 85.5713 63.8255C85.7494 63.9496 85.95 64.0368 86.1617 64.081C86.3735 64.1253 86.5923 64.1258 86.8053 64.0834C87.0184 64.041 87.2217 63.9563 87.4035 63.8338L90.1732 61.9782C90.5391 61.7315 90.7962 61.3474 90.8881 60.9103C90.9799 60.4732 90.8992 60.0185 90.6634 59.6461L85.3044 51.2097Z" fill="#F89B1A"/>
</svg>
