<svg width="660" height="661" viewBox="0 0 660 661" fill="none" xmlns="http://www.w3.org/2000/svg">
<path d="M362 0.999899C362 1.6599 362 2.3199 362 2.9999C362.848 2.9767 363.696 2.95349 364.57 2.92959C373.241 2.7962 381.47 3.28894 390 4.9999C390.33 5.3299 390.66 5.6599 391 5.9999C392.34 6.27137 393.69 6.48984 395.043 6.68349C395.87 6.8066 396.697 6.9297 397.549 7.05654C399.288 7.30761 401.028 7.55763 402.768 7.80654C407.385 8.49574 411.592 9.40677 416 10.9999C417.619 11.4009 419.244 11.7788 420.875 12.1249C421.656 12.2925 422.437 12.4601 423.242 12.6327C423.822 12.7539 424.402 12.8751 425 12.9999C425 13.6599 425 14.3199 425 14.9999C426.048 15.0908 426.048 15.0908 427.117 15.1835C428.027 15.2673 428.937 15.3511 429.875 15.4374C430.78 15.5186 431.685 15.5998 432.617 15.6835C435 15.9999 435 15.9999 437 16.9999C437 17.6599 437 18.3199 437 18.9999C437.866 18.9586 438.733 18.9174 439.625 18.8749C443.124 19.0045 445.746 19.7601 449 20.9999C449 21.6599 449 22.3199 449 22.9999C450.609 23.2165 450.609 23.2165 452.25 23.4374C454.917 23.8374 457.414 24.2758 460 24.9999C460 25.6599 460 26.3199 460 26.9999C460.763 27.1443 461.526 27.2886 462.313 27.4374C465 27.9999 465 27.9999 468 28.9999C468 29.6599 468 30.3199 468 30.9999C469.454 31.0927 469.454 31.0927 470.938 31.1874C475.882 31.8562 479.811 34.4258 484 36.9999C484 37.6599 484 38.3199 484 38.9999C484.949 39.1443 485.898 39.2887 486.875 39.4374C490 39.9999 490 39.9999 492 40.9999C492 41.6599 492 42.3199 492 42.9999C492.598 43.1443 493.196 43.2887 493.813 43.4374C495.562 43.8871 497.287 44.4288 499 44.9999C499 45.6599 499 46.3199 499 46.9999C499.517 47.0747 500.034 47.1494 500.566 47.2265C504.061 48.3371 506.911 50.3591 509.938 52.3749C511.155 53.1751 512.372 53.9745 513.59 54.7733C514.168 55.1559 514.747 55.5384 515.343 55.9325C516.827 56.8884 518.351 57.7808 519.879 58.664C522 59.9999 522 59.9999 523 61.9999C525.017 63.1334 525.017 63.1334 527 63.9999C527 64.6599 527 65.3199 527 65.9999C527.701 66.2474 528.402 66.4949 529.125 66.7499C533.723 68.749 537.548 71.3757 541 74.9999C541.66 75.3299 542.32 75.6599 543 75.9999C543 76.6599 543 77.3199 543 77.9999C544.32 78.6599 545.64 79.3199 547 79.9999C547 80.6599 547 81.3199 547 81.9999C547.704 82.2167 548.407 82.4335 549.132 82.6569C552.706 84.3307 555.15 86.7192 557.887 89.4882C558.43 90.0284 558.973 90.5686 559.532 91.1252C560.675 92.2655 561.813 93.4096 562.948 94.5573C564.682 96.3067 566.431 98.0396 568.182 99.7714C569.293 100.884 570.403 101.998 571.512 103.113C572.033 103.628 572.553 104.143 573.09 104.673C575.981 107.621 577.62 110.132 579 114C581.017 115.344 581.017 115.344 583 116C583 116.99 583 117.98 583 119C583.99 119.33 584.98 119.66 586 120C587.875 122.125 587.875 122.125 590 125C590.677 125.899 590.677 125.899 591.367 126.816C595 131.732 595 131.732 595 134C595.99 134.33 596.98 134.66 598 135C598.33 135.99 598.66 136.98 599 138C599.979 139.02 600.981 140.019 602 141C602.834 142.135 603.636 143.292 604.41 144.469C605.059 145.449 605.059 145.449 605.721 146.449C606.163 147.126 606.606 147.803 607.062 148.5C607.509 149.177 607.956 149.853 608.416 150.551C609.246 151.809 610.075 153.069 610.903 154.33C611.928 155.891 612.964 157.446 614 159C614 159.99 614 160.98 614 162C614.66 162 615.32 162 616 162C617.461 164.647 618 165.894 618 169C618.66 169 619.32 169 620 169C621.257 171.906 622 173.796 622 177C622.66 177 623.32 177 624 177C625.765 180.088 626 181.233 626 185C626.66 185 627.32 185 628 185C629.257 187.906 630 189.796 630 193C630.66 193 631.32 193 632 193C633.498 196.371 634 198.204 634 202C634.66 202 635.32 202 636 202C636.66 205.3 637.32 208.6 638 212C638.66 212 639.32 212 640 212C641.591 216.177 642.213 219.532 642 224C642.66 224 643.32 224 644 224C645.591 228.177 646.213 231.532 646 236C646.66 236 647.32 236 648 236C648.29 237.411 648.29 237.411 648.586 238.851C648.846 240.097 649.107 241.342 649.375 242.625C649.758 244.47 649.758 244.47 650.148 246.351C650.919 249.929 650.919 249.929 652.039 253.027C653.11 256.339 653.573 259.486 654 262.937C654.648 267.808 655.638 272.28 657 277C658.217 284.628 658.109 292.297 658 300C658.66 300 659.32 300 660 300C660 319.8 660 339.6 660 360C659.34 360 658.68 360 658 360C658.023 360.753 658.046 361.506 658.07 362.281C658.182 368.853 657.879 375.237 657.062 381.75C656.976 382.453 656.889 383.156 656.799 383.881C656.134 388.866 656.134 388.866 655 390C654.706 391.336 654.463 392.684 654.246 394.035C654.114 394.844 653.982 395.653 653.846 396.486C653.711 397.336 653.576 398.187 653.438 399.062C653.23 400.343 653.23 400.343 653.018 401.65C652.675 403.766 652.337 405.883 652 408C651.34 408 650.68 408 650 408C650.062 409.454 650.062 409.454 650.125 410.937C650.143 415.449 649.105 419.648 648 424C647.34 424 646.68 424 646 424C645.856 425.237 645.711 426.475 645.562 427.75C645.213 430.565 644.796 433.27 644 436C643.34 436 642.68 436 642 436C641.856 437.258 641.711 438.516 641.562 439.812C641.263 442.427 640.842 444.474 640 447C639.34 447 638.68 447 638 447C637.856 448.258 637.711 449.516 637.562 450.812C637.263 453.427 636.842 455.474 636 458C635.34 458 634.68 458 634 458C633.34 460.97 632.68 463.94 632 467C631.34 467 630.68 467 630 467C629.856 467.949 629.711 468.897 629.562 469.875C629 473 629 473 628 475C627.34 475 626.68 475 626 475C625.856 475.949 625.711 476.897 625.562 477.875C625 481 625 481 624 483C623.34 483 622.68 483 622 483C621.959 483.804 621.918 484.609 621.875 485.437C620.842 489.641 619.002 492.278 616.539 495.785C614.913 498.125 613.517 500.557 612.133 503.047C610.099 506.554 607.876 509.943 605.684 513.351C604.551 515.133 603.46 516.942 602.41 518.773C601 521 601 521 599 522C597.866 524.017 597.866 524.017 597 526C596.34 526 595.68 526 595 526C594.917 526.557 594.835 527.114 594.75 527.687C593.761 530.736 592.075 532.569 590 535C587.228 538.324 587.228 538.324 585 542C584.34 542 583.68 542 583 542C582.34 543.32 581.68 544.64 581 546C580.34 546 579.68 546 579 546C578.34 547.32 577.68 548.64 577 550C576.34 550 575.68 550 575 550C574.758 550.729 574.515 551.458 574.265 552.21C572.835 555.364 571.192 557.195 568.754 559.644C567.917 560.486 567.079 561.327 566.217 562.193C565.341 563.058 564.465 563.922 563.562 564.812C562.69 565.696 561.818 566.58 560.92 567.49C560.081 568.325 559.243 569.159 558.379 570.019C557.611 570.784 556.844 571.548 556.053 572.335C554 574 554 574 551 574C550.34 575.32 549.68 576.64 549 578C548.34 578 547.68 578 547 578C546.34 579.32 545.68 580.64 545 582C544.34 582 543.68 582 543 582C542.67 582.99 542.34 583.98 542 585C541.01 585.33 540.02 585.66 539 586C537.976 586.975 536.982 587.982 536 589C530.582 594 530.582 594 527 594C526.67 594.99 526.34 595.98 526 597C525.01 597.33 524.02 597.66 523 598C522.67 598.66 522.34 599.32 522 600C515.929 603.78 515.929 603.78 512.625 604.562C512.089 604.707 511.553 604.851 511 605C510.67 605.99 510.34 606.98 510 608C507.813 609.394 507.813 609.394 505 610.812C501.204 612.782 497.676 614.84 494.188 617.312C490.817 619.634 488.179 620.786 484 621C484 621.66 484 622.32 484 623C481.094 624.257 479.204 625 476 625C476 625.66 476 626.32 476 627C473.094 628.257 471.204 629 468 629C468 629.66 468 630.32 468 631C453.262 637 453.262 637 448 637C448 637.66 448 638.32 448 639C444.123 640.193 441.084 641 437 641C437 641.66 437 642.32 437 643C428.571 645.286 428.571 645.286 424 645C424 645.66 424 646.32 424 647C418.925 648.263 414.272 649.27 409 649C409 649.66 409 650.32 409 651C402.258 652.258 395.865 653.264 389 653C389 653.66 389 654.32 389 655C387.69 655.128 387.69 655.128 386.354 655.259C383.124 655.578 379.894 655.901 376.665 656.227C375.265 656.367 373.866 656.506 372.466 656.643C370.457 656.84 368.449 657.043 366.441 657.246C365.232 657.366 364.022 657.487 362.776 657.611C360.097 657.702 360.097 657.702 359 659C355.974 659.245 352.969 659.428 349.938 659.562C348.575 659.625 348.575 659.625 347.186 659.689C335.452 660.193 323.793 660.101 312.063 659.562C311.179 659.523 310.295 659.484 309.385 659.444C303.121 659.121 303.121 659.121 302 658C300.293 657.784 298.579 657.629 296.863 657.5C295.811 657.417 294.758 657.335 293.674 657.25C292.565 657.167 291.455 657.085 290.313 657C288.142 656.836 285.971 656.669 283.801 656.5C282.833 656.428 281.865 656.356 280.868 656.281C277.881 655.988 274.955 655.525 272 655C272 654.34 272 653.68 272 653C271.047 652.939 270.095 652.879 269.113 652.816C267.859 652.732 266.605 652.649 265.313 652.562C264.071 652.481 262.83 652.4 261.551 652.316C258.618 652.055 255.866 651.652 253 651C253 650.34 253 649.68 253 649C252.252 648.939 251.505 648.879 250.734 648.816C249.75 648.732 248.765 648.649 247.75 648.562C246.775 648.481 245.801 648.4 244.797 648.316C242.435 648.049 240.281 647.646 238 647C238 646.34 238 645.68 238 645C237.397 644.939 236.793 644.879 236.172 644.816C235.373 644.732 234.573 644.649 233.75 644.562C232.961 644.481 232.172 644.4 231.359 644.316C229.176 644.024 227.123 643.579 225 643C225 642.34 225 641.68 225 641C223.742 640.856 222.484 640.711 221.188 640.562C218.573 640.262 216.526 639.842 214 639C214 638.34 214 637.68 214 637C212.866 636.917 211.731 636.835 210.563 636.75C206.294 636.233 202.834 634.793 198.98 632.937C196.87 631.89 196.87 631.89 194 631C194 630.34 194 629.68 194 629C193.051 628.856 192.103 628.711 191.125 628.562C188 628 188 628 186 627C186 626.34 186 625.68 186 625C185.051 624.856 184.103 624.711 183.125 624.562C180 624 180 624 178 623C178 622.34 178 621.68 178 621C176.02 620.67 174.04 620.34 172 620C171.67 619.01 171.34 618.02 171 617C170.34 616.938 169.68 616.876 169 616.812C164.878 615.696 161.343 613.662 158 611C158 610.34 158 609.68 158 609C157.281 608.907 156.561 608.814 155.82 608.719C152.531 607.88 150.587 606.523 147.875 604.5C145.161 602.487 143.218 601.073 140 600C139.01 598.515 139.01 598.515 138 597C137.01 596.67 136.02 596.34 135 596C135 595.34 135 594.68 135 594C134.237 593.732 133.474 593.464 132.688 593.187C130.077 592.034 128.926 591.014 127 589C126.01 588.67 125.02 588.34 124 588C121.813 586.062 121.813 586.062 120 584C120 583.34 120 582.68 120 582C118.35 581.34 116.7 580.68 115 580C115 579.34 115 578.68 115 578C113.68 577.34 112.36 576.68 111 576C111 575.34 111 574.68 111 574C109.68 573.67 108.36 573.34 107 573C107 572.01 107 571.02 107 570C106.402 569.889 105.804 569.778 105.189 569.663C101.584 568.57 99.3226 565.753 96.75 563.125C96.1957 562.582 95.6414 562.039 95.0703 561.48C91 557.38 91 557.38 91 554C89.68 553.34 88.36 552.68 87 552C87 551.34 87 550.68 87 550C85.68 549.34 84.36 548.68 83 548C83 547.34 83 546.68 83 546C82.01 545.67 81.02 545.34 80 545C79.505 543.515 79.505 543.515 79 542C77.5045 540.764 76.007 539.531 74.4883 538.324C72.4357 536.498 71.2948 534.405 70 532C69.4432 531.278 68.8863 530.556 68.3125 529.812C67 528 67 528 67 526C66.01 525.67 65.02 525.34 64 525C63.505 523.515 63.505 523.515 63 522C62.34 521.67 61.68 521.34 61 521C57.2201 514.929 57.2201 514.929 56.4375 511.625C56.2932 511.089 56.1488 510.552 56 510C55.01 509.67 54.02 509.34 53 509C51.5 506.672 51.5 506.672 50 503.75C48.5083 500.875 47.0425 498.067 45.3125 495.328C44 493 44 493 44 490C43.34 490 42.68 490 42 490C40.5394 487.353 40 486.105 40 483C39.34 483 38.68 483 38 483C36.7434 480.094 36 478.204 36 475C35.34 475 34.68 475 34 475C32.7434 472.094 32 470.204 32 467C31.34 467 30.68 467 30 467C24 452.262 24 452.262 24 447C23.34 447 22.68 447 22 447C20.8072 443.123 20 440.084 20 436C19.34 436 18.68 436 18 436C16.8624 431.734 16 428.435 16 424C15.34 424 14.68 424 14 424C12.6147 418.545 11.7603 413.633 12 408C11.34 408 10.68 408 10 408C9.80667 406.782 9.61331 405.564 9.41409 404.309C9.15129 402.685 8.88826 401.061 8.62503 399.437C8.43554 398.238 8.43554 398.238 8.24222 397.014C7.4581 392.211 6.39463 387.66 5.00003 383C3.71742 375.689 3.90642 368.405 4.00003 361C3.34003 361 2.68003 361 2.00003 361C1.24897 350.792 0.838572 340.643 0.869657 330.408C0.875054 328.302 0.869646 326.197 0.86331 324.092C0.859639 315.69 1.20979 307.369 2.00003 299C2.66003 299 3.32003 299 4.00003 299C3.97683 298.175 3.95362 297.35 3.92972 296.5C3.78367 287.153 4.65685 278.234 6.00003 269C6.66003 269 7.32003 269 8.00003 269C7.95878 267.886 7.91753 266.772 7.87503 265.625C7.87503 258.435 9.69805 251.762 12 245C12.7213 242.011 13.3714 239.009 14 236C14.66 236 15.32 236 16 236C16.0606 235.301 16.1212 234.603 16.1836 233.883C16.2674 232.973 16.3512 232.063 16.4375 231.125C16.5187 230.22 16.6 229.315 16.6836 228.383C17 226 17 226 18 224C18.66 224 19.32 224 20 224C19.9588 223.134 19.9175 222.267 19.875 221.375C20.0046 217.876 20.7602 215.254 22 212C22.66 212 23.32 212 24 212C24.1444 210.907 24.2888 209.814 24.4375 208.687C25 205 25 205 26 202C26.66 202 27.32 202 28 202C28.2166 200.608 28.2166 200.608 28.4375 199.187C29 196 29 196 30 193C30.66 193 31.32 193 32 193C32.1444 192.051 32.2888 191.102 32.4375 190.125C33 187 33 187 34 185C34.66 185 35.32 185 36 185C36.1444 184.051 36.2888 183.102 36.4375 182.125C37 179 37 179 38 177C38.66 177 39.32 177 40 177C40.1444 176.051 40.2888 175.102 40.4375 174.125C41 171 41 171 42 169C42.66 169 43.32 169 44 169C44.1444 168.402 44.2888 167.804 44.4375 167.187C44.8873 165.438 45.429 163.713 46 162C46.66 162 47.32 162 48 162C48.098 161.274 48.196 160.548 48.2969 159.801C49.0941 156.625 50.3038 154.806 52.25 152.187C55.0213 148.386 57.5686 144.547 59.9571 140.496C61 139 61 139 63 138C64.1335 135.983 64.1335 135.983 65 134C65.66 134 66.32 134 67 134C67.2475 133.299 67.495 132.597 67.75 131.875C69.7491 127.277 72.3759 123.451 76 120C76.33 119.34 76.66 118.68 77 118C77.66 118 78.32 118 79 118C79.99 116.02 79.99 116.02 81 114C81.66 114 82.32 114 83 114C83.2205 113.287 83.4409 112.574 83.668 111.84C85.3283 108.3 87.4881 106.257 90.3125 103.562C94.7076 99.3489 94.7076 99.3489 98.6875 94.7499C102.779 89.8845 107.76 85.6059 113 81.9999C113.66 81.9999 114.32 81.9999 115 81.9999C115.99 80.0199 115.99 80.0199 117 77.9999C117.66 77.9999 118.32 77.9999 119 77.9999C119.495 76.5149 119.495 76.5149 120 74.9999C120.99 74.6699 121.98 74.3399 123 73.9999C124.024 73.0246 125.018 72.0179 126 70.9999C131.418 65.9999 131.418 65.9999 135 65.9999C135.33 65.0099 135.66 64.0199 136 62.9999C136.99 62.6699 137.98 62.3399 139 61.9999C139.33 61.3399 139.66 60.6799 140 59.9999C141.649 58.9714 143.321 57.979 145 56.9999C146.227 56.182 147.448 55.3544 148.664 54.5194C149.311 54.0779 149.958 53.6364 150.625 53.1815C151.969 52.2614 153.31 51.3368 154.648 50.4081C159.668 46.9999 159.668 46.9999 163 46.9999C163 46.3399 163 45.6799 163 44.9999C165.647 43.5393 166.895 42.9999 170 42.9999C170 42.3399 170 41.6799 170 40.9999C172.906 39.7433 174.796 38.9999 178 38.9999C178 38.3399 178 37.6799 178 36.9999C180.906 35.7433 182.796 34.9999 186 34.9999C186 34.3399 186 33.6799 186 32.9999C188.906 31.7433 190.796 30.9999 194 30.9999C194 30.3399 194 29.6799 194 28.9999C197.371 27.5017 199.204 26.9999 203 26.9999C203 26.3399 203 25.6799 203 24.9999C207.95 24.0099 207.95 24.0099 213 22.9999C213 22.3399 213 21.6799 213 20.9999C214.238 20.6699 215.475 20.3399 216.75 19.9999C217.446 19.8143 218.142 19.6286 218.859 19.4374C221 18.9999 221 18.9999 225 18.9999C225 18.3399 225 17.6799 225 16.9999C226.238 16.6699 227.475 16.3399 228.75 15.9999C229.446 15.8143 230.142 15.6286 230.859 15.4374C233 14.9999 233 14.9999 237 14.9999C237 14.3399 237 13.6799 237 12.9999C242.455 11.6146 247.367 10.7602 253 10.9999C253 10.3399 253 9.6799 253 8.9999C254.23 8.80654 255.46 8.61318 256.727 8.41396C258.359 8.1512 259.992 7.88817 261.625 7.6249C262.433 7.49857 263.242 7.37224 264.074 7.24209C268.568 6.51146 272.693 5.51568 277 3.9999C284.535 2.48713 292.358 2.90207 300 2.9999C300 2.3399 300 1.6799 300 0.999899C320.778 -0.150504 341.216 0.0130665 362 0.999899Z" fill="#CB6CE6"/>
<path d="M309.71 147.244C317.008 152.893 323.63 159.334 330 166C333.137 164.623 335.066 163.074 337.375 160.562C353.274 144.368 372.058 134.218 395.017 133.58C404.005 133.521 412.401 134.19 421 137C422.085 137.351 423.17 137.703 424.289 138.066C436.462 142.385 445.741 149.127 455 158C455.897 158.81 456.794 159.621 457.718 160.457C469.115 171.133 476.807 183.949 481 199C481.243 199.874 481.487 200.747 481.738 201.648C485.446 218.046 483.243 234.823 476.75 250.125C476.486 250.745 476.223 251.366 475.952 252.006C470.502 264.129 462.476 273.121 453.199 282.381C451.908 283.684 450.618 284.988 449.328 286.293C445.85 289.805 442.36 293.306 438.866 296.802C436.681 298.989 434.5 301.179 432.32 303.37C424.71 311.017 417.09 318.654 409.459 326.281C402.35 333.388 395.264 340.517 388.187 347.656C382.101 353.795 375.999 359.918 369.886 366.029C366.238 369.675 362.597 373.328 358.972 376.996C355.568 380.438 352.146 383.86 348.708 387.269C347.45 388.523 346.198 389.785 344.953 391.053C343.255 392.782 341.534 394.485 339.805 396.183C339.317 396.692 338.829 397.201 338.325 397.725C335.639 400.306 334.256 400.991 330.494 401.111C326.481 399.835 324.149 397.988 321.283 395.038C320.487 394.255 320.487 394.255 319.675 393.457C317.907 391.71 316.161 389.943 314.414 388.175C313.148 386.915 311.881 385.657 310.612 384.4C307.173 380.983 303.752 377.548 300.335 374.108C296.748 370.502 293.146 366.911 289.546 363.318C283.494 357.273 277.456 351.216 271.424 345.151C264.474 338.164 257.506 331.197 250.526 324.241C243.794 317.53 237.076 310.804 230.364 304.073C227.518 301.219 224.668 298.37 221.813 295.525C218.437 292.16 215.075 288.783 211.722 285.397C210.498 284.165 209.27 282.937 208.037 281.714C191.425 265.216 179.829 245.835 179.48 221.8C179.487 220.628 179.493 219.457 179.5 218.25C179.505 217.022 179.51 215.794 179.515 214.529C179.701 204.822 180.991 196.868 185 188C185.651 186.542 185.651 186.542 186.316 185.054C196.874 163.938 216.66 145.175 238.94 137.315C262.016 129.94 289.832 132.785 309.71 147.244Z" fill="#CB6CE6"/>
<path d="M309.71 147.244C317.008 152.893 323.63 159.334 330 166C333.137 164.623 335.066 163.074 337.375 160.562C353.274 144.368 372.058 134.218 395.017 133.58C404.005 133.521 412.401 134.19 421 137C422.085 137.351 423.17 137.703 424.289 138.066C436.462 142.385 445.741 149.127 455 158C455.897 158.81 456.794 159.621 457.718 160.457C469.115 171.133 476.807 183.949 481 199C481.243 199.874 481.487 200.747 481.738 201.648C485.446 218.046 483.243 234.823 476.75 250.125C476.486 250.745 476.223 251.366 475.952 252.006C470.502 264.129 462.476 273.121 453.199 282.381C451.908 283.684 450.618 284.988 449.328 286.293C445.85 289.805 442.36 293.306 438.866 296.802C436.681 298.989 434.5 301.179 432.32 303.37C424.71 311.017 417.09 318.654 409.459 326.281C402.35 333.388 395.264 340.517 388.187 347.656C382.101 353.795 375.999 359.918 369.886 366.029C366.238 369.675 362.597 373.328 358.972 376.996C355.568 380.438 352.146 383.86 348.708 387.269C347.45 388.523 346.198 389.785 344.953 391.053C343.255 392.782 341.534 394.485 339.805 396.183C339.317 396.692 338.829 397.201 338.325 397.725C335.639 400.306 334.256 400.991 330.494 401.111C326.481 399.835 324.149 397.988 321.283 395.038C320.487 394.255 320.487 394.255 319.675 393.457C317.907 391.71 316.161 389.943 314.414 388.175C313.148 386.915 311.881 385.657 310.612 384.4C307.173 380.983 303.752 377.548 300.335 374.108C296.748 370.502 293.146 366.911 289.546 363.318C283.494 357.273 277.456 351.216 271.424 345.151C264.474 338.164 257.506 331.197 250.526 324.241C243.794 317.53 237.076 310.804 230.364 304.073C227.518 301.219 224.668 298.37 221.813 295.525C218.437 292.16 215.075 288.783 211.722 285.397C210.498 284.165 209.27 282.937 208.037 281.714C191.425 265.216 179.829 245.835 179.48 221.8C179.487 220.628 179.493 219.457 179.5 218.25C179.505 217.022 179.51 215.794 179.515 214.529C179.701 204.822 180.991 196.868 185 188C185.651 186.542 185.651 186.542 186.316 185.054C196.874 163.938 216.66 145.175 238.94 137.315C262.016 129.94 289.832 132.785 309.71 147.244ZM217 169C216.154 169.76 215.308 170.521 214.437 171.304C203.373 181.593 194.664 196.63 194 212C193.936 212.992 193.873 213.985 193.808 215.007C193.124 234.376 199.501 249.425 212 264C215.822 268.082 219.772 272.026 223.74 275.967C224.904 277.13 226.068 278.294 227.231 279.459C230.362 282.591 233.5 285.716 236.638 288.841C239.928 292.118 243.211 295.401 246.496 298.682C252.703 304.884 258.916 311.08 265.131 317.275C272.211 324.333 279.285 331.396 286.359 338.46C300.9 352.98 315.447 367.492 330 382C333.685 380.45 336.043 378.212 338.862 375.405C339.337 374.934 339.811 374.464 340.301 373.98C341.889 372.404 343.47 370.821 345.051 369.239C346.189 368.106 347.328 366.974 348.467 365.843C351.561 362.766 354.649 359.684 357.734 356.599C359.666 354.669 361.6 352.739 363.534 350.811C370.293 344.071 377.046 337.325 383.795 330.575C390.065 324.304 396.345 318.044 402.632 311.789C408.041 306.406 413.443 301.015 418.839 295.618C422.055 292.401 425.275 289.187 428.502 285.981C431.546 282.957 434.579 279.923 437.606 276.882C438.71 275.776 439.817 274.674 440.928 273.575C450.117 264.48 458.584 254.694 463.5 242.562C464.196 240.893 464.196 240.893 464.906 239.191C469.494 225.804 469.146 206.72 463 194C462.672 193.184 462.345 192.368 462.007 191.527C454.157 173.449 436.501 159.207 418.769 151.617C405.616 147.123 387.902 146.504 375 152C373.346 152.678 373.346 152.678 371.66 153.371C362.664 157.444 355.917 162.998 349 170C347.811 171.188 346.622 172.375 345.433 173.562C343.676 175.317 341.924 177.074 340.187 178.848C337.097 181.99 335.318 183.71 330.988 184.66C326.948 184.594 325.107 182.615 322.292 179.871C320.573 178.076 318.871 176.264 317.187 174.437C304.195 160.566 289.058 149.478 269.351 148.566C267.442 148.542 265.533 148.542 263.625 148.562C262.116 148.574 262.116 148.574 260.576 148.587C242.832 148.989 229.576 156.786 217 169Z" fill="#FEFCFE"/>
<path d="M321.625 219.27C325.136 221.828 328.111 224.767 331 228C332.485 226.701 332.485 226.701 334 225.375C343.573 217.228 350.614 212.222 363.629 212.598C374.045 213.841 382.152 219.234 389 227C394.579 235.405 394.688 244.241 394 254C391.288 266.629 380.276 276.022 371.48 284.75C370.49 285.74 369.5 286.73 368.51 287.72C366.455 289.773 364.396 291.823 362.335 293.871C359.696 296.493 357.064 299.121 354.434 301.752C352.398 303.787 350.36 305.82 348.321 307.852C347.349 308.821 346.377 309.79 345.406 310.761C344.055 312.11 342.7 313.456 341.344 314.801C340.576 315.566 339.807 316.331 339.015 317.119C336.444 319.52 334.68 320.898 331.16 321.425C326.902 320.853 325.465 319.22 322.441 316.202C321.922 315.691 321.402 315.181 320.867 314.655C319.155 312.964 317.466 311.253 315.777 309.539C314.588 308.352 313.398 307.165 312.207 305.979C309.712 303.488 307.228 300.987 304.751 298.478C301.593 295.281 298.412 292.109 295.222 288.944C292.758 286.494 290.307 284.032 287.859 281.567C286.691 280.394 285.52 279.224 284.346 278.058C274.595 268.355 267.644 259.488 267.477 245.188C267.707 236.549 271.349 229.254 276.965 222.711C289.898 210.674 306.917 209.962 321.625 219.27Z" fill="#FEFCFE"/>
<path d="M505.999 172.001C508.695 173.705 510.795 175.886 512.999 178.176C513.639 178.816 514.278 179.456 514.937 180.115C516.286 181.473 517.627 182.84 518.96 184.214C520.974 186.287 523.015 188.33 525.062 190.37C532.069 197.431 538.19 204.235 542.999 213.001C543.813 214.401 543.813 214.401 544.643 215.83C553.123 230.763 554.469 246.513 554.499 263.313C554.504 264.076 554.508 264.838 554.513 265.624C554.565 287.246 548.044 305.059 538.874 324.376C537.939 326.356 537.005 328.336 536.072 330.317C535.232 332.099 534.389 333.879 533.546 335.658C532.78 337.313 532.78 337.313 531.999 339.001C531.153 340.716 531.153 340.716 530.29 342.466C528.827 346.474 528.802 349.107 529.163 353.34C529.22 354.029 529.276 354.717 529.334 355.425C529.976 362.742 530.978 370.017 532.041 377.283C532.383 379.622 532.717 381.963 533.049 384.304C533.492 387.425 533.936 390.546 534.383 393.667C535.222 399.545 536.029 405.427 536.812 411.313C536.997 412.661 536.997 412.661 537.186 414.036C539.019 427.901 539.019 427.901 534.999 434.001C531.055 437.288 528.017 437.279 522.999 437.001C519.774 436.083 519.774 436.083 516.515 434.813C515.333 434.362 514.151 433.911 512.933 433.446C511.717 432.969 510.502 432.492 509.249 432.001C506.82 431.057 504.387 430.121 501.953 429.188C500.346 428.56 500.346 428.56 498.707 427.919C496.002 426.84 496.002 426.84 492.999 427.001C492.234 428.385 492.234 428.385 491.453 429.798C487.035 437.742 482.513 445.621 477.874 453.438C477.396 454.253 476.919 455.068 476.426 455.908C468.319 469.479 458.689 480.848 443.029 485.598C436.789 487.168 430.662 487.386 424.249 487.376C423.19 487.374 422.131 487.372 421.04 487.371C409.705 487.193 400.992 484.28 390.999 479.001C390.339 479.001 389.679 479.001 388.999 479.001C388.608 479.714 388.216 480.427 387.813 481.162C381.083 493.4 374.341 505.628 367.187 517.626C366.69 518.465 366.194 519.305 365.682 520.17C365.223 520.931 364.765 521.693 364.292 522.477C363.896 523.138 363.499 523.799 363.09 524.48C361.999 526.001 361.999 526.001 359.999 527.001C353.864 527.447 353.864 527.447 351.062 526.001C349.303 522.691 349.363 519.599 349.999 516.001C351.75 512.011 354.012 508.382 356.312 504.688C357.592 502.565 358.872 500.441 360.152 498.317C360.796 497.261 361.44 496.206 362.104 495.118C364.919 490.488 367.653 485.811 370.374 481.126C370.844 480.33 371.314 479.534 371.797 478.714C374.149 475.099 374.149 475.099 374.999 471.001C374.023 470.524 374.023 470.524 373.027 470.039C370.077 468.595 367.132 467.142 364.187 465.688C363.163 465.189 362.139 464.689 361.083 464.174C360.1 463.688 359.118 463.201 358.105 462.7C357.199 462.255 356.293 461.81 355.359 461.351C353.118 460.068 351.582 459.033 349.999 457.001C349.609 453.427 349.629 450.903 350.999 447.563C353.542 445.577 355.528 445.601 358.689 445.67C363.093 446.3 366.792 448.433 370.687 450.489C371.589 450.948 372.491 451.407 373.42 451.88C376.288 453.343 379.144 454.827 381.999 456.313C384.857 457.785 387.717 459.251 390.579 460.714C392.354 461.623 394.126 462.538 395.895 463.459C405.234 468.277 412.723 470.508 423.312 470.438C424.376 470.458 425.44 470.478 426.536 470.499C436.872 470.492 446.949 467.932 454.525 460.506C459.59 455.002 463.201 448.857 466.796 442.341C468.519 439.22 470.272 436.117 472.023 433.012C472.365 432.404 472.707 431.796 473.059 431.17C475.897 426.14 478.857 421.199 481.937 416.313C482.343 415.667 482.75 415.022 483.169 414.356C485.833 410.167 485.833 410.167 486.999 409.001C495.104 408.038 502.023 411.187 509.499 414.001C510.811 414.484 512.124 414.965 513.437 415.446C516.629 416.619 519.816 417.805 522.999 419.001C522.708 417.831 522.417 416.662 522.117 415.458C520.752 409.304 520.08 403.07 519.367 396.815C517.88 383.776 516.185 370.786 514.219 357.81C514.059 356.735 513.899 355.659 513.734 354.551C513.592 353.62 513.45 352.688 513.303 351.728C512.622 345.611 513.098 342.1 516.046 336.614C516.695 335.376 517.342 334.138 517.986 332.898C518.32 332.258 518.654 331.619 518.999 330.96C520.643 327.741 522.145 324.459 523.64 321.169C523.938 320.513 524.235 319.858 524.542 319.183C525.144 317.854 525.745 316.525 526.344 315.194C527.258 313.17 528.179 311.149 529.101 309.128C534.395 297.455 538.132 287.236 538.203 274.305C538.208 273.477 538.214 272.648 538.22 271.794C538.229 270.044 538.236 268.294 538.24 266.545C538.249 263.905 538.28 261.265 538.312 258.626C538.392 246.23 537.221 235.208 531.499 224.001C531.153 223.322 530.807 222.643 530.45 221.944C526.701 214.951 521.639 209.527 515.999 204.001C514.55 202.554 513.102 201.106 511.656 199.657C509.391 197.388 507.123 195.123 504.838 192.874C495.226 183.386 495.226 183.386 494.499 178.938C494.999 176.001 494.999 176.001 496.562 173.626C499.999 171.334 501.914 171.474 505.999 172.001Z" fill="#FEFCFE"/>
<path d="M163.001 171C165.938 173.062 165.938 173.062 168.001 176C168.004 180.331 167.325 183.034 164.428 186.19C163.308 187.282 162.172 188.359 161.024 189.421C160.421 190.007 159.817 190.592 159.195 191.196C157.269 193.062 155.325 194.907 153.376 196.75C137.096 212.214 124.554 228.593 123.615 252.042C123.55 254.905 123.538 257.764 123.555 260.628C123.563 262.8 123.534 264.97 123.503 267.142C123.398 285.35 129.315 299.894 137.063 316.062C137.888 317.808 138.712 319.555 139.534 321.302C140.691 323.761 141.849 326.218 143.019 328.671C144.022 330.776 145.015 332.886 146.001 335C146.301 335.638 146.601 336.277 146.911 336.935C151.243 346.498 148.539 357.158 147.251 367.25C147.071 368.694 146.892 370.138 146.713 371.582C145.292 382.979 143.78 394.364 142.22 405.743C142.06 406.918 141.9 408.093 141.735 409.304C141.522 410.851 141.522 410.851 141.304 412.429C140.942 415.065 140.942 415.065 141.001 418C141.812 417.691 142.624 417.383 143.46 417.066C146.495 415.922 149.535 414.792 152.579 413.672C153.891 413.186 155.202 412.694 156.51 412.197C158.399 411.479 160.294 410.783 162.192 410.089C163.329 409.665 164.465 409.241 165.636 408.804C169.485 407.884 172.162 408.112 176.001 409C177.899 410.722 177.899 410.722 179.376 413.062C179.957 413.973 180.539 414.885 181.137 415.824C183.984 420.676 186.744 425.573 189.473 430.492C192.287 435.537 195.186 440.527 198.126 445.5C198.604 446.324 199.083 447.148 199.576 447.997C204.166 455.714 208.857 462.638 217.251 466.437C218.774 467.147 218.774 467.147 220.329 467.871C226.17 470.338 231.294 470.256 237.563 470.312C239.134 470.356 239.134 470.356 240.737 470.4C248.07 470.459 253.444 469.221 260.001 466C260.909 465.568 261.818 465.136 262.753 464.691C265.707 463.263 268.636 461.794 271.563 460.312C272.607 459.79 273.652 459.267 274.727 458.729C279.551 456.304 284.342 453.841 289.059 451.214C289.817 450.796 290.575 450.377 291.356 449.946C292.736 449.176 294.109 448.392 295.472 447.591C300.304 444.897 303.619 444.557 309.001 445C311.001 446.062 311.001 446.062 312.001 448C312.438 451.437 312.438 451.437 312.001 455C309.431 458.062 306.805 459.838 303.235 461.578C301.901 462.235 301.901 462.235 300.54 462.906C299.619 463.349 298.699 463.793 297.751 464.25C296.815 464.708 295.879 465.167 294.915 465.64C292.614 466.767 290.309 467.887 288.001 469C288.001 473.431 288.794 474.908 290.93 478.699C291.557 479.818 292.183 480.937 292.829 482.091C293.163 482.678 293.498 483.266 293.843 483.872C294.88 485.695 295.906 487.525 296.93 489.356C299.953 494.741 303.022 500.091 306.259 505.351C306.728 506.119 307.197 506.886 307.681 507.677C308.536 509.06 309.406 510.434 310.293 511.797C312.2 514.873 313.015 516.672 312.856 520.332C312.001 523 312.001 523 310.313 524.875C307.265 526.358 305.353 526.488 302.001 526C298.604 523.137 296.595 519.892 294.427 516.046C293.938 515.186 293.938 515.186 293.44 514.309C292.391 512.459 291.352 510.605 290.313 508.75C289.596 507.481 288.879 506.212 288.161 504.944C286.1 501.3 284.05 497.65 282.001 494C280.984 492.197 279.967 490.395 278.95 488.593C276.96 485.066 274.977 481.535 273.001 478C269.337 479.186 265.788 480.48 262.251 482C247.672 487.762 228.797 488.511 214.001 483C203.592 478.16 196.248 471.949 190.329 462.144C189.625 460.984 188.921 459.824 188.217 458.664C187.854 458.063 187.491 457.461 187.117 456.842C185.633 454.393 184.132 451.954 182.632 449.515C181.128 447.068 179.631 444.617 178.134 442.166C177.366 440.909 176.596 439.654 175.825 438.399C174.692 436.556 173.564 434.71 172.438 432.863C171.777 431.783 171.116 430.703 170.434 429.591C169.001 427 169.001 427 169.001 425C164.771 426.456 160.542 427.915 156.313 429.375C155.115 429.787 153.917 430.2 152.682 430.625C151.525 431.024 150.369 431.424 149.177 431.836C148.113 432.202 147.05 432.569 145.955 432.946C144.053 433.624 142.164 434.341 140.294 435.104C137.186 436.318 135.321 436.531 132.001 436C128.234 433.548 125.439 431.314 124.001 427C123.555 420.972 124.285 415.194 125.337 409.273C126.503 402.314 127.511 395.357 128.352 388.351C128.511 387.027 128.511 387.027 128.674 385.677C128.994 382.993 129.31 380.309 129.626 377.625C129.95 374.879 130.276 372.134 130.604 369.388C130.806 367.702 131.005 366.016 131.202 364.33C131.559 361.331 131.912 358.4 132.569 355.45C133.777 348.596 132.961 343.734 129.93 337.527C129.452 336.499 129.452 336.499 128.965 335.449C127.949 333.272 126.914 331.104 125.876 328.937C116.054 308.141 108.443 290.151 108.5 266.766C108.501 263.966 108.459 261.169 108.415 258.369C108.248 233.332 115.743 213.177 133.001 195C134.359 193.561 134.359 193.561 135.745 192.094C138.37 189.329 141.019 186.588 143.682 183.861C144.765 182.749 145.844 181.633 146.918 180.513C148.448 178.924 149.996 177.356 151.552 175.793C152.456 174.87 153.36 173.947 154.291 172.996C157.527 170.612 159.068 170.407 163.001 171Z" fill="#FEFCFE"/>
<path d="M307.863 228.694C313.955 231.449 317.785 235.549 322.154 240.486C324.863 243.387 326.686 244.881 330.465 246.312C335.681 245.851 337.658 243.12 341 239.312C350.461 228.847 350.461 228.847 357.844 227.468C365.058 227.553 369.567 228.574 374.722 233.718C378.288 237.697 380.129 240.727 380.312 246.187C380.368 247.26 380.368 247.26 380.426 248.355C378.981 257.326 372.499 263.1 366.344 269.222C365.394 270.177 364.446 271.132 363.497 272.087C361.52 274.075 359.536 276.055 357.546 278.029C354.995 280.563 352.465 283.117 349.941 285.677C347.992 287.647 346.031 289.606 344.067 291.562C342.673 292.955 341.29 294.358 339.906 295.762C339.059 296.597 338.211 297.432 337.338 298.293C336.595 299.035 335.852 299.777 335.086 300.541C333 301.999 333 301.999 331.008 301.986C328.353 300.682 326.635 299.016 324.538 296.926C323.664 296.061 322.79 295.197 321.889 294.306C320.944 293.355 319.999 292.404 319.055 291.453C318.079 290.479 317.103 289.506 316.127 288.533C314.082 286.494 312.044 284.449 310.009 282.4C307.405 279.779 304.789 277.172 302.167 274.569C300.149 272.562 298.139 270.547 296.13 268.531C295.168 267.567 294.204 266.605 293.238 265.646C291.885 264.301 290.544 262.946 289.202 261.59C288.437 260.823 287.672 260.055 286.884 259.264C282.921 254.5 282.491 249.793 282.629 243.785C283.344 238.419 285.819 234.982 289.762 231.398C295.256 227.408 301.413 226.288 307.863 228.694Z" fill="#CB6DE6"/>
<path d="M256 649C262.799 649.332 269.344 649.981 276 651.438C293.179 655.035 310.583 655.302 328.075 655.206C331.496 655.188 334.918 655.185 338.34 655.186C351.92 655.163 365.443 654.785 379 654C379 654.33 379 654.66 379 655C377.02 655 375.04 655 373 655C373 655.66 373 656.32 373 657C372.073 657.061 371.146 657.121 370.191 657.184C368.994 657.267 367.796 657.351 366.562 657.438C365.368 657.519 364.173 657.6 362.941 657.684C360.114 657.677 360.114 657.677 359 659C355.974 659.245 352.969 659.428 349.938 659.562C348.575 659.625 348.575 659.625 347.186 659.689C335.452 660.193 323.793 660.102 312.062 659.562C311.179 659.523 310.295 659.484 309.385 659.444C303.121 659.121 303.121 659.121 302 658C300.293 657.784 298.579 657.629 296.863 657.5C295.811 657.417 294.758 657.335 293.674 657.25C292.565 657.167 291.455 657.085 290.312 657C288.142 656.836 285.971 656.669 283.801 656.5C282.833 656.428 281.865 656.356 280.868 656.281C277.881 655.988 274.955 655.525 272 655C272 654.34 272 653.68 272 653C271.013 652.963 270.025 652.925 269.008 652.887C267.726 652.821 266.445 652.755 265.125 652.688C263.849 652.629 262.573 652.571 261.258 652.512C259.645 652.258 259.645 652.258 258 652C257.34 651.01 256.68 650.02 256 649Z" fill="#C756E7"/>
<path d="M362 0.999899C362 1.6599 362 2.3199 362 2.9999C363.087 3.09078 363.087 3.09078 364.195 3.18349C369.171 3.61473 374.087 4.07038 379 4.9999C379 5.3299 379 5.6599 379 5.9999C373.691 6.17397 368.65 5.98854 363.381 5.28359C340.298 2.29804 316.105 3.13262 293.044 5.8124C290.017 6.09011 287.038 6.06471 284 5.9999C284 5.6699 284 5.3399 284 4.9999C289.395 2.72848 294.262 2.79577 300 2.9999C300 2.3399 300 1.6799 300 0.999899C320.778 -0.150504 341.216 0.0130665 362 0.999899Z" fill="#C75BE6"/>
<path d="M6.00003 281C6.33003 281 6.66003 281 7.00003 281C7.0801 286.104 6.95991 290.953 6.28836 296.023C4.86961 306.98 4.80271 317.909 4.81253 328.938C4.8118 329.732 4.81108 330.527 4.81033 331.346C4.81122 340.01 4.98212 348.589 5.78177 357.224C6.11662 361.483 6.08676 365.731 6.00003 370C5.67003 370 5.34003 370 5.00003 370C4.67003 367.03 4.34003 364.06 4.00003 361C3.34003 361 2.68003 361 2.00003 361C1.24897 350.792 0.838572 340.644 0.869657 330.408C0.875054 328.302 0.869646 326.197 0.86331 324.092C0.859639 315.69 1.20979 307.37 2.00003 299C2.66003 299 3.32003 299 4.00003 299C4.06061 298.287 4.1212 297.574 4.18362 296.84C4.64811 291.53 5.18078 286.267 6.00003 281Z" fill="#C85CE7"/>
<path d="M656 290C656.33 290 656.66 290 657 290C657.33 293.3 657.66 296.6 658 300C658.66 300 659.32 300 660 300C660 319.8 660 339.6 660 360C659.34 360 658.68 360 658 360C658 364.29 658 368.58 658 373C657.34 373 656.68 373 656 373C656 375.31 656 377.62 656 380C655.67 380 655.34 380 655 380C654.878 373.462 655.213 367.148 655.988 360.66C657.031 351.092 657.276 341.636 657.206 332.018C657.187 329.434 657.185 326.851 657.186 324.268C657.161 312.819 656.705 301.426 656 290ZM654 380C654.33 380 654.66 380 655 380C655 381.65 655 383.3 655 385C654.67 385 654.34 385 654 385C654 383.35 654 381.7 654 380Z" fill="#C659E5"/>
<path d="M500 49C506.437 50.0728 510.5 52.4332 515.703 56.3438C517.912 58.035 517.912 58.035 520.234 59.0938C522 60 522 60 523 62C525.017 63.1335 525.017 63.1335 527 64C527 64.66 527 65.32 527 66C527.701 66.2475 528.402 66.495 529.125 66.75C535.22 69.3999 538.502 72.378 542 78C542.66 78.33 543.32 78.66 544 79C543.67 79.66 543.34 80.32 543 81C542.537 80.6428 542.075 80.2857 541.598 79.9177C531.943 72.4728 522.289 65.1329 512.098 58.4297C511.411 57.9768 510.725 57.524 510.018 57.0574C508.652 56.1582 507.284 55.2637 505.912 54.3743C501.111 51.221 501.111 51.221 500 49Z" fill="#CA5FE8"/>
<path d="M110 572C114.01 573.656 116.936 576.459 120.125 579.312C129.335 587.39 139.267 594.63 149.531 601.312C150.346 601.869 151.161 602.426 152 603C152 603.33 152 603.66 152 604C146.896 604.619 144.146 602.738 140 600C139.34 599.01 138.68 598.02 138 597C137.01 596.67 136.02 596.34 135 596C135 595.34 135 594.68 135 594C134.237 593.732 133.474 593.464 132.688 593.188C130.077 592.034 128.926 591.014 127 589C126.01 588.67 125.02 588.34 124 588C121.812 586.062 121.812 586.062 120 584C120 583.34 120 582.68 120 582C117.525 581.01 117.525 581.01 115 580C115 579.34 115 578.68 115 578C114.361 577.752 113.721 577.505 113.062 577.25C111 576 111 576 110.25 573.875C110.167 573.256 110.085 572.637 110 572Z" fill="#CB60E9"/>
<path d="M243 13.9996C242 15.9996 242 15.9996 240.336 16.6664C239.618 16.8627 238.9 17.059 238.16 17.2613C237.353 17.4897 236.546 17.718 235.714 17.9532C234.402 18.3165 234.402 18.3165 233.062 18.6871C221.221 22.0961 209.73 26.2761 198.562 31.4996C195 32.9996 195 32.9996 192 31.9996C192.66 31.9996 193.32 31.9996 194 31.9996C194 31.0096 194 30.0196 194 28.9996C197.371 27.5014 199.204 26.9996 203 26.9996C203 26.3396 203 25.6796 203 24.9996C206.3 24.3396 209.6 23.6796 213 22.9996C213 22.3396 213 21.6796 213 20.9996C214.237 20.6696 215.475 20.3396 216.75 19.9996C217.794 19.7212 217.794 19.7212 218.859 19.4371C221 18.9996 221 18.9996 225 18.9996C225 18.3396 225 17.6796 225 16.9996C226.873 16.4906 228.748 15.9928 230.625 15.4996C231.669 15.2212 232.713 14.9427 233.789 14.6559C236.957 14.0084 239.777 13.8835 243 13.9996Z" fill="#C75BE5"/>
<path d="M17 233C18.3614 236.751 17.6288 239.398 16.6367 243.199C16.3267 244.409 16.0167 245.619 15.6973 246.865C15.364 248.127 15.0308 249.388 14.6875 250.688C14.0446 253.17 13.4026 255.653 12.7617 258.137C12.3042 259.899 12.3042 259.899 11.8374 261.697C10.8019 265.781 9.87953 269.879 9 274C8.67 274 8.34 274 8 274C7.707 263.615 8.65657 254.821 12 245C12.7213 242.011 13.3714 239.009 14 236C14.66 236 15.32 236 16 236C16.33 235.01 16.66 234.02 17 233ZM7 274C8 278 8 278 8 278L7 274Z" fill="#C95CE6"/>
<path d="M463 630.999C462.34 630.999 461.68 630.999 461 630.999C461 631.659 461 632.319 461 632.999C456.845 636.245 453.094 636.568 448 636.999C448 637.659 448 638.319 448 638.999C446.273 639.507 444.543 640.005 442.812 640.499C441.85 640.778 440.887 641.056 439.895 641.343C437.147 641.966 434.804 642.122 432 641.999C432 641.339 432 640.679 432 639.999C433.059 639.652 433.059 639.652 434.14 639.297C437.344 638.242 440.547 637.183 443.75 636.124C444.861 635.76 445.972 635.395 447.117 635.019C448.187 634.664 449.257 634.31 450.359 633.945C451.344 633.62 452.328 633.295 453.343 632.961C455.974 632.085 455.974 632.085 458.165 630.815C460 629.999 460 629.999 463 630.999Z" fill="#C553E4"/>
<path d="M153 605C156.821 606.421 160.226 608.192 163.738 610.258C164.805 610.883 165.872 611.508 166.971 612.152C168.073 612.803 169.176 613.454 170.312 614.125C171.435 614.784 172.557 615.442 173.713 616.121C176.477 617.744 179.239 619.371 182 621C177.291 622.34 175.359 621.096 171 619C171 618.34 171 617.68 171 617C170.34 616.938 169.68 616.876 169 616.812C164.878 615.696 161.342 613.662 158 611C158 610.34 158 609.68 158 609C157.361 608.897 156.721 608.794 156.062 608.688C155.382 608.461 154.701 608.234 154 608C153.67 607.01 153.34 606.02 153 605Z" fill="#CC64EA"/>
<path d="M280 5.99975C277.53 8.46996 276.055 8.58464 272.652 9.25366C271.571 9.46829 270.491 9.68291 269.377 9.90405C268.242 10.1213 267.107 10.3385 265.938 10.5623C264.83 10.7833 263.722 11.0044 262.58 11.2322C256.395 12.4429 250.275 13.4088 244 13.9998C246.36 11.9023 247.546 11.0307 250.75 10.8123C251.864 10.9051 251.864 10.9051 253 10.9998C253 10.3398 253 9.67975 253 8.99975C261.984 7.03098 270.792 5.79958 280 5.99975Z" fill="#C658E4"/>
<path d="M414 647.001C414 647.661 414 648.321 414 649.001C412.35 649.001 410.7 649.001 409 649.001C409 649.661 409 650.321 409 651.001C405.835 651.511 402.668 652.007 399.5 652.501C398.17 652.716 398.17 652.716 396.812 652.935C391.469 653.76 386.406 654.152 381 654.001C381.33 653.341 381.66 652.681 382 652.001C383.762 651.53 383.762 651.53 386.043 651.22C386.87 651.1 387.697 650.98 388.549 650.856C389.855 650.68 389.855 650.68 391.188 650.501C398.914 649.436 406.229 646.69 414 647.001Z" fill="#C552E5"/>
<path d="M209 634C219.795 636.169 229.76 639.996 240 644C240 644.33 240 644.66 240 645C234.581 645.226 230.225 644.467 225 643C225 642.34 225 641.68 225 641C223.742 640.856 222.484 640.711 221.188 640.562C216.779 640.057 214.054 639.319 211 636C210.34 635.34 209.68 634.68 209 634Z" fill="#C450E4"/>
<path d="M40.0001 481C40.6601 481 41.3201 481 42.0001 481C42.3984 481.808 42.7967 482.616 43.2071 483.449C43.7369 484.518 44.2667 485.586 44.8126 486.688C45.3346 487.743 45.8567 488.799 46.3946 489.887C47.943 492.984 47.943 492.984 49.6993 495.77C51.0001 498 51.0001 498 51.0001 500C51.6601 500 52.3201 500 53.0001 500C53.6601 501.98 54.3201 503.96 55.0001 506C53.2344 505.867 53.2344 505.867 51.0001 505C49.0782 502.383 49.0782 502.383 47.2501 499.125C46.6365 498.055 46.0229 496.985 45.3907 495.883C44.0001 493 44.0001 493 44.0001 490C43.3401 490 42.6801 490 42.0001 490C40.1423 486.865 39.7987 484.625 40.0001 481Z" fill="#C959E7"/>
<path d="M256 649C264.274 649.405 272.153 650.515 280.254 652.234C285.804 653.369 291.393 654.196 297 655C297 655.33 297 655.66 297 656C287.493 655.6 278.071 654.769 268.625 653.625C267.608 653.511 266.592 653.397 265.545 653.28C264.594 653.159 263.643 653.038 262.664 652.914C261.813 652.81 260.962 652.707 260.084 652.6C258 652 258 652 256 649Z" fill="#BE49E0"/>
<path d="M553 89C558.127 89.3506 560.779 92.1777 564.188 95.6875C564.721 96.2051 565.254 96.7226 565.803 97.2559C569.109 100.595 570.857 103.323 572 108C568.685 106.895 568.03 106.124 565.875 103.5C562.375 99.3553 558.609 95.5673 554.723 91.7852C553 90 553 90 553 89Z" fill="#CB5EE9"/>
<path d="M509 605C509 605.99 509 606.98 509 608C507.094 609.43 507.094 609.43 504.5 610.875C501.141 612.775 497.888 614.721 494.688 616.875C491.687 618.78 489.634 619.568 486 619C489.479 615.265 493.728 612.939 498.062 610.312C499.305 609.546 499.305 609.546 500.572 608.764C501.364 608.281 502.157 607.798 502.973 607.301C504.059 606.638 504.059 606.638 505.168 605.962C507 605 507 605 509 605Z" fill="#C855E7"/>
<path d="M55 507C55.66 507 56.32 507 57 507C58.5156 509.125 58.5156 509.125 60.25 512C63.2613 516.88 66.4686 521.485 70 526C69.67 526.66 69.34 527.32 69 528C64.125 525.375 64.125 525.375 63 522C62.34 521.67 61.68 521.34 61 521C59.6011 518.683 58.2769 516.381 57 514C56.5875 513.257 56.175 512.515 55.75 511.75C55 510 55 510 55 507Z" fill="#C95BE8"/>
<path d="M28.0006 203C29.2443 206.506 28.7738 208.315 27.3131 211.688C26.9432 212.555 26.5732 213.423 26.192 214.316C25.7989 215.202 25.4057 216.088 25.0006 217C24.6178 217.875 24.2349 218.751 23.8405 219.652C22.9054 221.774 21.9592 223.889 21.0006 226C20.6706 226 20.3406 226 20.0006 226C19.8206 220.78 20.0297 216.927 22.0006 212C22.6606 212 23.3206 212 24.0006 212C24.1553 210.608 24.1553 210.608 24.3131 209.188C25.0076 205.967 25.478 204.974 28.0006 203Z" fill="#C75AE5"/>
<path d="M429 17C431.209 17.2845 433.417 17.5779 435.625 17.875C437.47 18.1186 437.47 18.1186 439.352 18.3672C442.74 18.9548 445.777 19.8199 449 21C449 21.66 449 22.32 449 23C451.475 23.495 451.475 23.495 454 24C454 24.66 454 25.32 454 26C447.709 24.9042 441.889 23.4769 436 21C435.323 20.7164 434.646 20.4328 433.949 20.1406C432.295 19.4378 430.647 18.7204 429 18C429 17.67 429 17.34 429 17Z" fill="#C657E4"/>
<path d="M402 10C409.867 10.4252 417.362 11.0246 425 13C425 13.66 425 14.32 425 15C425.99 15 426.98 15 428 15C428 15.66 428 16.32 428 17C422.682 16.551 418.061 15.7557 413 14C410.364 13.48 407.724 13.0062 405.074 12.5625C404.39 12.3769 403.705 12.1912 403 12C402.67 11.34 402.34 10.68 402 10Z" fill="#C758E6"/>
<path d="M190 35.0003C184.25 38.0003 184.25 38.0003 182 38.0003C182 38.6603 182 39.3203 182 40.0003C180.21 40.8382 178.418 41.6705 176.625 42.5003C175.627 42.9644 174.63 43.4284 173.602 43.9066C171 45.0003 171 45.0003 169 45.0003C169.188 43.1253 169.188 43.1253 170 41.0003C172.891 39.4787 174.718 39.0003 178 39.0003C178 38.3403 178 37.6803 178 37.0003C179.244 36.4658 180.496 35.9482 181.75 35.4378C182.446 35.1478 183.142 34.8577 183.859 34.5589C186.3 33.922 187.64 34.1978 190 35.0003Z" fill="#C759E5"/>
<path d="M9 391C10.9218 393.883 11.3713 395.154 11.9375 398.438C12.8572 403.488 14.1354 408.392 15.5117 413.336C16.0003 416.002 15.8914 417.475 15 420C15 419.34 15 418.68 15 418C14.34 418 13.68 418 13 418C11.208 409.017 9.56291 400.162 9 391Z" fill="#C252E3"/>
<path d="M110 572C112.843 573.312 115.094 574.767 117.453 576.82C118.072 577.355 118.691 577.89 119.328 578.441C119.962 578.997 120.597 579.553 121.25 580.125C121.9 580.688 122.549 581.252 123.219 581.832C124.816 583.218 126.408 584.608 128 586C123.013 586 119.052 582.701 115 580C115 579.34 115 578.68 115 578C114.361 577.752 113.721 577.505 113.062 577.25C111 576 111 576 110.25 573.875C110.167 573.256 110.085 572.637 110 572Z" fill="#C553E5"/>
<path d="M621 481C621.33 481 621.66 481 622 481C621.739 488.184 619.298 492.322 615 498C614.34 497.67 613.68 497.34 613 497C613.68 493.108 615.509 490.128 617.5 486.75C618.129 485.672 618.758 484.595 619.406 483.484C619.932 482.665 620.458 481.845 621 481Z" fill="#CA5FE9"/>
<path d="M641 431C641.66 431 642.32 431 643 431C641.81 444.813 641.81 444.813 638.5 448.812C638.005 449.204 637.51 449.596 637 450C636.34 450.66 635.68 451.32 635 452C636.168 446.061 637.803 440.637 640 435C640.351 433.671 640.69 432.339 641 431Z" fill="#C556E4"/>
<path d="M15.9999 421C17.9999 422 17.9999 422 19.0702 424.547C19.4183 425.604 19.7663 426.661 20.1249 427.75C20.4781 428.797 20.8313 429.843 21.1952 430.922C21.943 433.782 22.163 436.065 21.9999 439C18.5904 437.182 17.9998 436 16.7499 432.25C15.9447 428.436 15.838 424.886 15.9999 421Z" fill="#C85AE5"/>
<path d="M78 538C82.4891 540.964 85.5956 543.065 88 548C88.3919 548.763 88.7837 549.526 89.1875 550.312C89.4556 550.869 89.7237 551.426 90 552C87.0625 550.688 87.0625 550.688 84 549C83.67 548.01 83.34 547.02 83 546C82.01 545.67 81.02 545.34 80 545C78.3518 542.398 78 541.138 78 538Z" fill="#CA58E8"/>
<path d="M36 183C36.66 183 37.32 183 38 183C37.3395 186.97 36.1504 190.466 34.625 194.188C34.2048 195.233 33.7845 196.278 33.3516 197.355C32 200 32 200 29 202C29.4538 200.103 29.9132 198.208 30.375 196.312C30.6302 195.257 30.8855 194.201 31.1484 193.113C31.9191 190.296 32.855 187.683 34 185C34.66 185 35.32 185 36 185C36 184.34 36 183.68 36 183Z" fill="#C65AE5"/>
<path d="M620 176C621.898 176.281 621.898 176.281 624 177C626.54 182.47 627.839 188.101 629 194C626.446 190.825 624.626 187.519 622.812 183.875C622.283 182.821 621.753 181.766 621.207 180.68C620 178 620 178 620 176Z" fill="#C859E6"/>
<path d="M379 653.999C379 654.329 379 654.659 379 654.999C377.02 654.999 375.04 654.999 373 654.999C373 655.659 373 656.319 373 656.999C367.06 656.999 361.12 656.999 355 656.999C358.421 654.719 360.14 654.631 364.188 654.374C365.34 654.301 366.492 654.228 367.68 654.152C371.465 653.978 375.212 653.925 379 653.999Z" fill="#BF48E1"/>
<path d="M647 244C649.525 246.525 649.557 248.138 650.125 251.625C650.293 252.628 650.46 253.631 650.633 254.664C650.754 255.435 650.875 256.206 651 257C651.66 257 652.32 257 653 257C653 260.63 653 264.26 653 268C651.246 265.369 650.618 264.069 649.93 261.129C649.756 260.39 649.582 259.65 649.402 258.889C649.228 258.121 649.054 257.353 648.875 256.562C648.693 255.799 648.511 255.035 648.324 254.248C647.492 250.655 647 247.736 647 244Z" fill="#C354E2"/>
<path d="M596 137C599.047 137.906 600.688 138.607 602.688 141.125C604.325 144.712 605.152 148.15 606 152C601.813 148.172 598.622 144.054 596 139C596 138.34 596 137.68 596 137Z" fill="#CD65EA"/>
<path d="M133 69.9996C128.71 73.6296 124.42 77.2596 120 80.9996C119.34 80.6696 118.68 80.3396 118 79.9996C120.623 75.0292 123.634 72.155 128.688 69.6871C131 68.9996 131 68.9996 133 69.9996Z" fill="#C556E4"/>
<path d="M55 152C55 155.901 53.5994 157.781 51.625 161.125C50.9985 162.2 50.372 163.275 49.7266 164.383C48 167 48 167 46 168C46.2887 167.319 46.5775 166.639 46.875 165.938C48.1012 162.942 48.1012 162.942 48.8125 159.438C50.1674 155.515 51.5869 154.245 55 152Z" fill="#C658E5"/>
<path d="M529 69C537.222 71.0028 537.222 71.0028 540.438 75.125C540.953 76.0738 541.469 77.0225 542 78C542.66 78.33 543.32 78.66 544 79C543.67 79.66 543.34 80.32 543 81C540.664 79.1912 538.331 77.3782 536 75.5625C535.332 75.0462 534.665 74.53 533.977 73.998C532.299 72.6887 530.647 71.3469 529 70C529 69.67 529 69.34 529 69Z" fill="#C556E5"/>
<path d="M526 592C526.66 592.33 527.32 592.66 528 593C527.188 594.938 527.188 594.938 526 597C525.01 597.33 524.02 597.66 523 598C522.67 598.66 522.34 599.32 522 600C520.021 600.727 518.02 601.398 516 602C516 601.01 516 600.02 516 599C518.188 597.176 518.188 597.176 521 595.312C522.392 594.379 522.392 594.379 523.812 593.426C524.895 592.72 524.895 592.72 526 592Z" fill="#C85DE7"/>
<path d="M611 499C611 503.077 609.917 506.405 608 510C605.312 512 605.312 512 603 513C604.326 509.377 605.943 506.365 608.125 503.188C608.664 502.397 609.203 501.607 609.758 500.793C610.168 500.201 610.578 499.61 611 499Z" fill="#C758E5"/>
<path d="M24 448C26.1385 450.139 26.4266 451.133 27 454C27.66 453.67 28.32 453.34 29 453C31.1116 462.41 31.1116 462.41 32 467C31.34 467 30.68 467 30 467C27.2993 460.72 25.2998 454.715 24 448Z" fill="#D36FED"/>
<path d="M90 104C90 108.264 87.6668 109.8 85 113C85 113.99 85 114.98 85 116C83.02 116.66 81.04 117.32 79 118C79.66 116.68 80.32 115.36 81 114C81.66 114 82.32 114 83 114C83.2269 113.278 83.4537 112.556 83.6875 111.812C85.2483 108.468 87.3031 106.484 90 104Z" fill="#D371ED"/>
<path d="M153 605C157.972 606.764 162.434 609.394 167 612C167 612.66 167 613.32 167 614C164.03 613.01 161.06 612.02 158 611C158 610.34 158 609.68 158 609C157.361 608.897 156.721 608.794 156.062 608.688C155.382 608.461 154.701 608.234 154 608C153.67 607.01 153.34 606.02 153 605Z" fill="#C34CE3"/>
<path d="M87 551C89.8125 551.625 89.8125 551.625 93 553C94.6875 555.938 94.6875 555.938 96 559C97.561 560.816 97.561 560.816 99 562C98.67 562.66 98.34 563.32 98 564C96.8244 562.905 95.6598 561.799 94.5 560.688C93.8503 560.073 93.2006 559.458 92.5312 558.824C91 557 91 557 91 554C89.68 553.34 88.36 552.68 87 552C87 551.67 87 551.34 87 551Z" fill="#D163EC"/>
<path d="M195 628C196.32 628 197.64 628 199 628C199 628.66 199 629.32 199 630C203.455 630.99 203.455 630.99 208 632C208 632.66 208 633.32 208 634C206.205 633.772 204.414 633.517 202.625 633.25C201.627 633.111 200.63 632.972 199.602 632.828C197 632 197 632 195.648 629.922C195.434 629.288 195.22 628.653 195 628Z" fill="#C553E4"/>
<path d="M22 440C24.5938 442.273 25.6831 444.234 26.75 447.5C27.013 448.273 27.2759 449.047 27.5469 449.844C28 452 28 452 27 455C26.5462 453.866 26.0925 452.731 25.625 451.562C24.429 447.953 24.429 447.953 22 447C22 444.69 22 442.38 22 440Z" fill="#C34DE2"/>
<path d="M61 139C61.66 139 62.32 139 63 139C61.6122 142.89 59.7848 145.966 57.375 149.312C56.7434 150.196 56.1117 151.079 55.4609 151.988C54.9788 152.652 54.4967 153.316 54 154C53.34 153.67 52.68 153.34 52 153C53.4499 150.661 54.9093 148.329 56.375 146C56.7875 145.332 57.2 144.665 57.625 143.977C58.6966 142.283 59.8433 140.637 61 139Z" fill="#D26FEE"/>
<path d="M256 649C260.29 649.33 264.58 649.66 269 650C269 650.99 269 651.98 269 653C267.207 652.913 265.416 652.805 263.625 652.688C262.627 652.629 261.63 652.571 260.602 652.512C259.743 652.343 258.885 652.174 258 652C257.34 651.01 256.68 650.02 256 649Z" fill="#C553E5"/>
<path d="M241 645C245.969 645.514 250.29 646.234 255 648C255 648.33 255 648.66 255 649C250.484 649.077 246.409 649.102 242 648C241.67 647.01 241.34 646.02 241 645Z" fill="#C450E3"/>
<path d="M396 651C390.976 654.35 386.9 654.099 381 654C381.33 653.34 381.66 652.68 382 652C386.684 650.858 391.214 650.918 396 651Z" fill="#C04BE0"/>
<path d="M552 571C552.33 571.99 552.66 572.98 553 574C552.34 574 551.68 574 551 574C550.794 574.619 550.588 575.238 550.375 575.875C548.452 578.847 546.334 579.13 543 580C543.933 578.871 544.871 577.747 545.812 576.625C546.335 575.999 546.857 575.372 547.395 574.727C549 573 549 573 552 571Z" fill="#C656E4"/>
<path d="M55 507C55.66 507 56.32 507 57 507C58.3242 508.68 58.3242 508.68 59.6875 510.875C60.1451 511.594 60.6027 512.314 61.0742 513.055C61.3797 513.697 61.6852 514.339 62 515C61.67 515.66 61.34 516.32 61 517C57.6489 514.766 56.1845 513.738 55.1875 509.75C55.1256 508.842 55.0637 507.935 55 507Z" fill="#C651E4"/>
<path d="M29 457C33.1378 461.276 34.0594 465.32 35 471C34.01 470.67 33.02 470.34 32 470C31.0508 467.82 31.0508 467.82 30.3125 465.125C30.0611 464.241 29.8098 463.356 29.5508 462.445C29 460 29 460 29 457Z" fill="#C14EE2"/>
<path d="M657 364C657.33 364 657.66 364 658 364C658 366.97 658 369.94 658 373C657.34 373 656.68 373 656 373C656 375.31 656 377.62 656 380C655.67 380 655.34 380 655 380C655 376.7 655 373.4 655 370C655.66 370 656.32 370 657 370C657 368.02 657 366.04 657 364ZM654 380C654.33 380 654.66 380 655 380C655 381.65 655 383.3 655 385C654.67 385 654.34 385 654 385C654 383.35 654 381.7 654 380Z" fill="#C65CE4"/>
<path d="M184 623C187.558 623.61 190.683 624.578 194 626C194 626.66 194 627.32 194 628C188.602 628.491 188.602 628.491 185.625 626.062C184 624 184 624 184 623Z" fill="#C552E5"/>
<path d="M43.9991 170C44.9991 173 44.9991 173 44.003 175.043C43.5273 175.751 43.0517 176.458 42.5616 177.188C42.0885 177.903 41.6154 178.618 41.128 179.355C40.7554 179.898 40.3829 180.441 39.9991 181C38.7518 178.505 39.1097 177.606 39.7491 174.938C39.9089 174.225 40.0688 173.512 40.2334 172.777C40.4861 172.191 40.7388 171.604 40.9991 171C41.9891 170.67 42.9791 170.34 43.9991 170Z" fill="#C55AE4"/>
<path d="M454 24C456.97 24.495 456.97 24.495 460 25C460 25.66 460 26.32 460 27C460.763 27.1238 461.526 27.2475 462.312 27.375C465 28 465 28 468 30C465.69 30 463.38 30 461 30C461 29.34 461 28.68 461 28C458.69 27.34 456.38 26.68 454 26C454 25.34 454 24.68 454 24Z" fill="#D26EEF"/>
<path d="M481 620C481.66 620.33 482.32 620.66 483 621C482.67 621.99 482.34 622.98 482 624C479.934 624.73 479.934 624.73 477.438 625.188C476.611 625.346 475.785 625.505 474.934 625.668C473.976 625.832 473.976 625.832 473 626C473 625.34 473 624.68 473 624C474.287 623.303 475.579 622.618 476.875 621.938C477.594 621.555 478.314 621.172 479.055 620.777C479.697 620.521 480.339 620.264 481 620Z" fill="#C355E3"/>
<path d="M48 159C48.9805 161.647 49.0557 162.824 48.1875 165.562C47 168 47 168 45 171C44.01 171 43.02 171 42 171C42 170.34 42 169.68 42 169C42.66 169 43.32 169 44 169C44.1444 168.402 44.2887 167.804 44.4375 167.188C44.8872 165.438 45.4289 163.713 46 162C46.66 162 47.32 162 48 162C48 161.01 48 160.02 48 159Z" fill="#D776EE"/>
<path d="M415 13C416.605 13.1415 418.209 13.2884 419.812 13.4375C420.706 13.5187 421.599 13.5999 422.52 13.6836C425 14 425 14 428 15C428 15.66 428 16.32 428 17C426.582 16.9121 425.166 16.804 423.75 16.6875C422.961 16.6295 422.172 16.5715 421.359 16.5117C418.608 15.915 417.12 14.8134 415 13Z" fill="#C150E2"/>
<path d="M604 145C612 154.714 612 154.714 612 158C611.34 158 610.68 158 610 158C608.492 155.918 608.492 155.918 606.875 153.188C606.336 152.294 605.797 151.401 605.242 150.48C604 148 604 148 604 145Z" fill="#D56FEF"/>
<path d="M431 643C430.34 643 429.68 643 429 643C429 643.66 429 644.32 429 645C425.37 645.33 421.74 645.66 418 646C422.166 643.223 426.064 641.102 431 643Z" fill="#C14BE3"/>
<path d="M627 185C629.565 187.565 629.54 189.477 630 193C630.66 193 631.32 193 632 193C632.33 194.32 632.66 195.64 633 197C631.68 197 630.36 197 629 197C627.862 192.734 627 189.435 627 185Z" fill="#D378EE"/>
<path d="M378 653C381.63 653.33 385.26 653.66 389 654C389 654.33 389 654.66 389 655C383.615 655.917 378.458 656.111 373 656C373 655.67 373 655.34 373 655C374.65 654.67 376.3 654.34 378 654C378 653.67 378 653.34 378 653Z" fill="#CB5CE8"/>
<path d="M645 418C645.66 418 646.32 418 647 418C646.67 421.3 646.34 424.6 646 428C645.34 428 644.68 428 644 428C643.67 428.66 643.34 429.32 643 430C644 421.429 644 421.429 645 418Z" fill="#C151E1"/>
<path d="M585 123C587.375 123.562 587.375 123.562 590 125C591.312 128.625 591.312 128.625 592 132C589.036 129.192 586.555 126.817 585 123Z" fill="#C456E4"/>
<path d="M113 82C113.66 82.33 114.32 82.66 115 83C115 83.66 115 84.32 115 85C114.34 85 113.68 85 113 85C112.67 85.99 112.34 86.98 112 88C109.938 89.1875 109.938 89.1875 108 90C109.625 84.25 109.625 84.25 113 82Z" fill="#C95DE6"/>
<path d="M173 617C176.775 618.091 179.47 618.908 182 622C175.25 621.125 175.25 621.125 173 620C173 619.01 173 618.02 173 617Z" fill="#C048E4"/>
<path d="M563 98C570.667 102.818 570.667 102.818 572 108C568.752 106.917 567.957 106.11 565.812 103.562C565.018 102.636 565.018 102.636 564.207 101.691C563 100 563 100 563 98Z" fill="#C04EE1"/>
<path d="M109 85C109 88 109 88 108 91C103.667 94 103.667 94 101 94C101 93.34 101 92.68 101 92C102.75 90.2734 102.75 90.2734 105 88.375C105.743 87.7434 106.485 87.1117 107.25 86.4609C107.827 85.9788 108.405 85.4967 109 85Z" fill="#D578F0"/>
<path d="M424 646C420.735 647.884 417.719 648.493 414 649C414 648.01 414 647.02 414 646C417.283 644.358 420.425 645.481 424 646Z" fill="#CF61EA"/>
<path d="M472 626C471.67 626.99 471.34 627.98 471 629C468.69 629.33 466.38 629.66 464 630C464 629.34 464 628.68 464 628C466.906 626.743 468.796 626 472 626Z" fill="#C24DE3"/>
<path d="M650 405C651.159 408.479 650.774 409.342 649.562 412.688C649.275 413.496 648.987 414.304 648.691 415.137C648.349 416.059 648.349 416.059 648 417C646.693 412.831 647.602 410.115 649 406C649.33 405.67 649.66 405.34 650 405Z" fill="#C253E2"/>
<path d="M136 63C136.66 63.33 137.32 63.66 138 64C137 67 137 67 134.062 68.75C132.547 69.3687 132.547 69.3687 131 70C130.34 69.67 129.68 69.34 129 69C130.312 67.5 130.312 67.5 132 66C132.99 66 133.98 66 135 66C135.33 65.01 135.66 64.02 136 63Z" fill="#D469ED"/>
<path d="M567 556C567.33 557.32 567.66 558.64 568 560C565.625 561.562 565.625 561.562 563 563C562.34 562.67 561.68 562.34 561 562C562.98 560.02 564.96 558.04 567 556Z" fill="#C758E5"/>
<path d="M144 599C147.375 600.186 149.647 601.276 152 604C149.688 604.312 149.688 604.312 147 604C145.188 601.5 145.188 601.5 144 599Z" fill="#C44DE4"/>
<path d="M576 546C576.99 546 577.98 546 579 546C578.25 547.938 578.25 547.938 577 550C574.875 550.75 574.875 550.75 573 551C574.875 547.125 574.875 547.125 576 546Z" fill="#C85DE4"/>
<path d="M78 538C82.875 541.625 82.875 541.625 84 545C82.125 544.688 82.125 544.688 80 544C78 541 78 541 78 538Z" fill="#C04AE1"/>
<path d="M16 421C16.99 421.495 16.99 421.495 18 422C18.5936 424.649 18.7421 427.292 19 430C18.67 429.34 18.34 428.68 18 428C17.34 428 16.68 428 16 428C16 425.69 16 423.38 16 421Z" fill="#BF4AE1"/>
<path d="M636 210C636.33 210.66 636.66 211.32 637 212C637.66 212 638.32 212 639 212C639.33 214.64 639.66 217.28 640 220C637.166 216.797 636.479 214.219 636 210Z" fill="#C253E2"/>
<path d="M600 143C601.875 143.562 601.875 143.562 604 145C605.25 148.625 605.25 148.625 606 152C600.429 146.857 600.429 146.857 600 143Z" fill="#C14FE1"/>
</svg>
