<svg width="60" height="59" viewBox="0 0 60 59" fill="none" xmlns="http://www.w3.org/2000/svg">
<g clip-path="url(#clip0_723_2340)">
<path d="M7.78833 33.7548L43.846 50.7741L46.1537 41.4135V26.0962L41.8268 9.92793L38.6537 8.22601L20.4806 18.7212L7.78833 31.4856V33.7548Z" fill="#00242F" stroke="black"/>
<path d="M51.4637 9.9441C52.7491 10.4641 53.8324 11.1521 54.7139 12.0082C53.2198 10.4862 51.3105 9.18571 48.986 8.10678L33.5581 1.18782C29.2392 -0.551534 24.7645 -0.380653 20.1342 1.70046C13.621 4.97719 8.01042 8.97402 3.30257 13.691C0.131888 16.867 -0.755748 21.0115 0.63966 26.1245L4.1387 41.0845C4.77557 43.0275 5.37067 44.593 5.924 45.7809C4.84524 43.1167 5.55824 39.4912 8.06298 34.9041C8.64306 34.0058 9.24348 33.1281 9.86424 32.2708C12.3136 28.8819 15.9786 25.1433 20.8591 21.0547C23.4346 18.8964 25.9879 17.0214 28.5188 15.4299C31.2562 13.7073 34.2288 12.1472 37.4366 10.7496C38.3322 10.3587 39.2377 10.0293 40.153 9.76137C40.9198 9.53871 41.6936 9.35882 42.4744 9.22182C44.1197 8.9352 45.7177 8.85631 47.2681 8.98517C48.7945 9.11066 50.1931 9.43032 51.4637 9.9441Z" fill="url(#paint0_linear_723_2340)"/>
<path d="M53.2695 50.7703C53.9977 50.4609 54.6535 50.1053 55.2368 49.7036C52.3727 50.9067 48.1733 50.124 42.6385 47.3555L9.86484 32.2702C9.24408 33.1276 8.64366 34.0053 8.06358 34.9036C5.55886 39.4907 4.84586 43.1162 5.92461 45.7803C6.09366 46.1434 6.2772 46.4946 6.4752 46.834C6.47898 46.84 6.48366 46.8477 6.48936 46.8568C7.35642 48.3281 8.56284 49.6489 10.1086 50.8192C12.1506 52.3594 14.6436 53.7409 17.5876 54.9636C19.8176 55.8906 22.7254 56.8797 26.3108 57.9307C28.3999 58.5505 30.2101 58.9007 31.7412 58.9811C33.5126 59.0726 35.2646 58.8381 36.9973 58.2778L53.2695 50.7703Z" fill="url(#paint1_linear_723_2340)"/>
<path d="M54.7141 12.0079C53.8326 11.1518 52.7492 10.4638 51.4639 9.94374C50.1932 9.42997 48.7947 9.11036 47.2682 8.98487C45.7178 8.85601 44.1199 8.93484 42.4745 9.22146C41.6938 9.35852 40.9199 9.53835 40.1532 9.76102C44.566 22.8196 45.3943 35.3511 42.6381 47.3558C48.1729 50.1242 52.3723 50.9069 55.2364 49.7037C57.2834 48.2845 58.57 46.2986 59.0964 43.7461C59.8969 39.9087 60.1381 35.3067 59.8196 29.9404C59.5399 25.1974 58.9193 20.9743 57.9579 17.2712C57.7664 16.5354 57.4729 15.8178 57.0772 15.1186C56.7683 14.5693 56.3425 13.9459 55.7998 13.2486C55.4673 12.8192 55.1054 12.4056 54.7141 12.0079Z" fill="url(#paint2_linear_723_2340)"/>
<path d="M35.9663 19.0972C35.2835 19.3319 34.6734 19.6606 34.136 20.0832C33.5797 20.5234 33.0929 21.0576 32.6757 21.6856C32.2584 22.3077 31.8822 23.0238 31.5472 23.8338L31.4049 19.6959L31.2153 19.2116L30.6937 19.0796H29.6127V38.7831H31.6515V26.0436L32.6946 23.6841C33.0676 22.9974 33.5039 22.428 34.0032 21.9761C34.5216 21.5124 35.0938 21.1661 35.7196 20.9372C36.3582 20.7025 37.0852 20.585 37.9007 20.585L40.0724 20.858C40.262 20.858 40.3916 20.7553 40.4612 20.5498L40.6318 19.2292L39.5034 18.8507L38.2137 18.7538C37.3792 18.7538 36.63 18.8683 35.9663 19.0972Z" fill="white" stroke="white" stroke-width="2"/>
</g>
<defs>
<linearGradient id="paint0_linear_723_2340" x1="5.31757" y1="39.5586" x2="42.0203" y2="7.10659" gradientUnits="userSpaceOnUse">
<stop stop-color="#0C6D7A"/>
<stop offset="0.00784314" stop-color="#0C6F7C"/>
<stop offset="0.239216" stop-color="#14BCD4"/>
<stop offset="0.482353" stop-color="#06DEFC"/>
<stop offset="0.545098" stop-color="#04E0FF"/>
<stop offset="0.831373" stop-color="#0FBBD4"/>
<stop offset="1" stop-color="#0D7684"/>
</linearGradient>
<linearGradient id="paint1_linear_723_2340" x1="1.53206" y1="4.86598" x2="20.2592" y2="68.2795" gradientUnits="userSpaceOnUse">
<stop stop-color="#0C6D7A"/>
<stop offset="0.00784314" stop-color="#0C6F7C"/>
<stop offset="0.239216" stop-color="#14BCD4"/>
<stop offset="0.509804" stop-color="#04E0FF"/>
<stop offset="0.831373" stop-color="#0FBBD4"/>
<stop offset="1" stop-color="#0D7684"/>
</linearGradient>
<linearGradient id="paint2_linear_723_2340" x1="42.4485" y1="-11.879" x2="50.2347" y2="51.267" gradientUnits="userSpaceOnUse">
<stop stop-color="#0C6D7A"/>
<stop offset="0.00784314" stop-color="#0C6F7C"/>
<stop offset="0.239216" stop-color="#14BCD4"/>
<stop offset="0.509804" stop-color="#04E0FF"/>
<stop offset="0.831373" stop-color="#0FBBD4"/>
<stop offset="1" stop-color="#0D7684"/>
</linearGradient>
<clipPath id="clip0_723_2340">
<rect width="60" height="59" fill="white"/>
</clipPath>
</defs>
</svg>
