<svg width="25" height="25" viewBox="0 0 25 25" fill="none" xmlns="http://www.w3.org/2000/svg">
<path d="M18.5429 16.3101C18.2382 16.4001 17.791 16.4102 17.3115 16.3406C16.7969 16.266 16.2719 16.1087 15.756 15.8769C16.6761 15.743 17.3898 15.7843 18.0003 16.0006C18.1449 16.0518 18.3825 16.1888 18.5429 16.3101ZM13.4095 15.4662C13.3721 15.4764 13.3352 15.486 13.2985 15.4962C13.0509 15.5636 12.8101 15.6293 12.5779 15.6878L12.2649 15.7672C11.6353 15.9265 10.9916 16.0893 10.3557 16.2831C10.5974 15.7004 10.8219 15.1112 11.0417 14.5352C11.2044 14.1089 11.3706 13.6733 11.5425 13.2434C11.6297 13.3874 11.7207 13.5314 11.8154 13.6759C12.2467 14.3329 12.789 14.9403 13.4095 15.4662ZM11.8079 8.89538C11.8488 9.61438 11.6936 10.3061 11.4661 10.9696C11.1858 10.1491 11.0551 9.24306 11.4056 8.51156C11.4954 8.32406 11.5691 8.22381 11.6168 8.1715C11.6906 8.28537 11.7876 8.54012 11.8079 8.89538ZM8.52092 18.0034C8.36342 18.2851 8.20266 18.5489 8.03789 18.7979C7.64026 19.3972 6.98996 20.0388 6.65588 20.0388C6.62301 20.0388 6.58322 20.0335 6.52509 19.9721C6.48767 19.9329 6.48168 19.9047 6.48349 19.8664C6.49476 19.6461 6.78667 19.2537 7.20954 18.8899C7.59337 18.5598 8.0272 18.2664 8.52092 18.0034ZM19.6066 16.3413C19.5556 15.6074 18.3202 15.1366 18.308 15.1322C17.8304 14.9629 17.3116 14.8807 16.722 14.8807C16.0908 14.8807 15.4103 14.972 14.5364 15.1762C13.7587 14.6249 13.087 13.9348 12.5851 13.1708C12.3635 12.8333 12.1643 12.4963 11.9906 12.1672C12.4146 11.1534 12.7964 10.0633 12.727 8.84244C12.6711 7.8635 12.2296 7.20594 11.6293 7.20594C11.2175 7.20594 10.8629 7.51094 10.5746 8.11331C10.0603 9.18669 10.1955 10.5601 10.9762 12.199C10.6951 12.8594 10.4338 13.5441 10.1809 14.2069C9.86631 15.0311 9.54213 15.8814 9.17675 16.6903C8.15209 17.0958 7.3103 17.5874 6.60876 18.1911C6.14919 18.5858 5.59514 19.1892 5.56352 19.8192C5.54808 20.1159 5.64981 20.3879 5.85652 20.6059C6.07614 20.8374 6.35206 20.9592 6.65544 20.9596C7.65743 20.9596 8.62181 19.5829 8.80475 19.3068C9.17294 18.7518 9.51756 18.1327 9.85525 17.4187C10.7058 17.1113 11.6121 16.8819 12.4906 16.6601L12.8053 16.5802C13.0417 16.5201 13.2876 16.4536 13.5397 16.3846C13.8065 16.3124 14.081 16.2376 14.36 16.1666C15.2621 16.7402 16.2321 17.1144 17.1782 17.2518C17.9751 17.3677 18.6827 17.3004 19.1618 17.0507C19.5929 16.8262 19.6166 16.4797 19.6066 16.3413ZM21.5472 22.6518C21.5472 23.9958 20.3626 24.0786 20.1236 24.0813H4.84054C3.5014 24.0813 3.42076 22.8886 3.41821 22.6518L3.41803 2.34776C3.41803 1.00244 4.60477 0.920875 4.84036 0.918175H15.1644L15.1699 0.923625V4.95248C15.1699 5.76102 15.6587 7.29181 17.5099 7.29181H21.5127L21.5471 7.32613L21.5472 22.6518ZM20.5982 6.3735H17.5106C16.1718 6.3735 16.0908 5.18731 16.089 4.95261V1.84567L20.5982 6.3735ZM22.4654 22.6518V6.94731L16.089 0.544389V0.514598H16.0585L15.5464 0H4.84057C4.03096 0 2.5 0.490835 2.5 2.34819V22.6522C2.5 23.4642 2.98935 25 4.84057 25H20.1251C20.9345 24.9998 22.4654 24.5089 22.4654 22.6518Z" fill="#EB5757"/>
</svg>
