<svg width="41" height="49" viewBox="0 0 41 49" fill="none" xmlns="http://www.w3.org/2000/svg">
<path d="M32.3454 31.9678C31.7483 32.1441 30.8717 32.164 29.9319 32.0276C28.9232 31.8814 27.8944 31.573 26.8831 31.1187C28.6864 30.8563 30.0854 30.9371 31.282 31.3611C31.5654 31.4616 32.0311 31.7301 32.3454 31.9678ZM22.284 30.3137C22.2106 30.3337 22.1383 30.3526 22.0664 30.3725C21.5812 30.5046 21.1091 30.6335 20.6541 30.7481L20.0406 30.9037C18.8066 31.2159 17.5448 31.5349 16.2986 31.9148C16.7722 30.7727 17.2122 29.618 17.6431 28.4891C17.9621 27.6534 18.2878 26.7997 18.6247 25.957C18.7956 26.2393 18.9739 26.5216 19.1595 26.8047C20.005 28.0924 21.0678 29.283 22.284 30.3137ZM19.1449 17.4349C19.2249 18.8442 18.9209 20.1999 18.4748 21.5005C17.9254 19.8923 17.6694 18.1164 18.3563 16.6827C18.5324 16.3152 18.6767 16.1187 18.7703 16.0161C18.9149 16.2393 19.105 16.7386 19.1449 17.4349ZM12.7024 35.2866C12.3937 35.8388 12.0786 36.3558 11.7556 36.844C10.9763 38.0185 9.70168 39.2761 9.04689 39.2761C8.98246 39.2761 8.90449 39.2657 8.79055 39.1454C8.71721 39.0684 8.70546 39.0133 8.70901 38.9381C8.73109 38.5063 9.30324 37.7372 10.1321 37.0242C10.8844 36.3772 11.7347 35.8021 12.7024 35.2866ZM34.4303 32.029C34.3303 30.5906 31.9089 29.6678 31.885 29.6592C30.949 29.3274 29.9321 29.1661 28.7765 29.1661C27.5394 29.1661 26.2056 29.3451 24.4927 29.7453C22.9685 28.6649 21.6519 27.3122 20.6682 25.8148C20.2338 25.1532 19.8433 24.4928 19.5029 23.8477C20.3339 21.8606 21.0823 19.7241 20.9463 17.3312C20.8366 15.4125 19.9714 14.1236 18.7948 14.1236C17.9877 14.1236 17.2927 14.7214 16.7276 15.9021C15.7196 18.0059 15.9845 20.6978 17.5148 23.91C16.9637 25.2045 16.4516 26.5465 15.956 27.8456C15.3393 29.461 14.7039 31.1276 13.9878 32.713C11.9795 33.5077 10.3296 34.4714 8.95454 35.6545C8.05377 36.4282 6.96785 37.6109 6.90586 38.8456C6.87561 39.4271 7.07499 39.9604 7.48016 40.3876C7.91061 40.8413 8.4514 41.0801 9.04602 41.0809C11.0099 41.0809 12.9001 38.3826 13.2587 37.8414C13.9803 36.7536 14.6558 35.5402 15.3177 34.1406C16.9846 33.5382 18.7611 33.0885 20.483 32.6538L21.0997 32.4972C21.5632 32.3793 22.045 32.249 22.5392 32.1137C23.0621 31.9724 23.6001 31.8257 24.147 31.6865C25.915 32.8109 27.8163 33.5443 29.6706 33.8134C31.2325 34.0407 32.6196 33.9089 33.5585 33.4193C34.4034 32.9793 34.45 32.3003 34.4303 32.029ZM38.2339 44.3974C38.2339 47.0317 35.9121 47.1941 35.4437 47.1994H5.48882C2.86411 47.1994 2.70606 44.8617 2.70105 44.3974L2.7007 4.60161C2.7007 1.96478 5.02671 1.80491 5.48847 1.79962H25.7235L25.7343 1.8103V9.70685C25.7343 11.2916 26.6924 14.292 30.3207 14.292H38.1662L38.2336 14.3592L38.2339 44.3974ZM36.3739 12.4921H30.3221C27.6981 12.4921 27.5394 10.1671 27.5358 9.70711V3.61751L36.3739 12.4921ZM40.0336 44.3974V13.6167L27.5358 1.067V1.00861H27.476L26.4723 0H5.48888C3.90205 0 0.901367 0.962037 0.901367 4.60246V44.3983C0.901367 45.9898 1.86049 49 5.48888 49H35.4465C37.033 48.9996 40.0336 48.0375 40.0336 44.3974Z" fill="#EB5757"/>
</svg>
