<svg width="45" height="46" viewBox="0 0 45 46" fill="none" xmlns="http://www.w3.org/2000/svg">
<path d="M38.6281 7.59031C39.5929 7.98724 40.406 8.51239 41.0676 9.16584C39.9462 8.00408 38.5131 7.01143 36.7684 6.18788L25.1883 0.906659C21.9466 -0.420985 18.588 -0.290552 15.1125 1.29796C10.2237 3.79908 6.01253 6.84985 2.47888 10.4503C0.0989937 12.8746 -0.567256 16.038 0.480122 19.9408L3.10646 31.3597C3.58449 32.8428 4.03116 34.0377 4.44649 34.9444C3.63678 32.9109 4.17195 30.1435 6.05198 26.6422C6.48739 25.9566 6.93805 25.2866 7.40399 24.6322C9.24247 22.0455 11.9934 19.1918 15.6566 16.071C17.5898 14.4236 19.5062 12.9924 21.4059 11.7776C23.4605 10.4627 25.6918 9.27194 28.0995 8.20516C28.7717 7.90676 29.4514 7.65534 30.1384 7.45083C30.714 7.28087 31.2947 7.14356 31.8808 7.03899C33.1158 6.82021 34.3152 6.76 35.4789 6.85836C36.6246 6.95415 37.6744 7.19814 38.6281 7.59031Z" fill="url(#paint0_linear_209_1265)"/>
<path d="M39.9891 38.7524C40.5357 38.5163 41.0279 38.2448 41.4658 37.9382C39.316 38.8565 36.1639 38.2591 32.0096 36.1459L7.41003 24.6313C6.94409 25.2857 6.49342 25.9557 6.05802 26.6414C4.178 30.1427 3.64283 32.9101 4.45253 34.9436C4.57942 35.2207 4.71718 35.4888 4.8658 35.7478C4.86864 35.7525 4.87215 35.7583 4.87643 35.7652C5.52724 36.8883 6.43276 37.8965 7.59301 38.7897C9.12569 39.9653 10.9969 41.0198 13.2067 41.9531C14.8805 42.6607 17.063 43.4157 19.7542 44.2179C21.3222 44.691 22.6809 44.9583 23.8302 45.0197C25.1598 45.0895 26.4748 44.9105 27.7754 44.4829L39.9891 38.7524Z" fill="url(#paint1_linear_209_1265)"/>
<path d="M41.0659 9.1657C40.4043 8.5123 39.5912 7.9871 38.6264 7.59017C37.6727 7.19801 36.6229 6.95405 35.4772 6.85827C34.3135 6.75991 33.1141 6.82008 31.8791 7.03885C31.293 7.14347 30.7122 7.28074 30.1367 7.4507C33.4489 17.4183 34.0706 26.9836 32.0019 36.1467C36.1562 38.2598 39.3083 38.8573 41.458 37.9389C42.9944 36.8556 43.9602 35.3397 44.3553 33.3915C44.9561 30.4623 45.1371 26.9497 44.8981 22.8536C44.6882 19.2333 44.2224 16.0098 43.5007 13.1832C43.357 12.6216 43.1367 12.0739 42.8397 11.5401C42.6079 11.1208 42.2882 10.645 41.8809 10.1127C41.6313 9.78502 41.3597 9.46933 41.0659 9.1657Z" fill="url(#paint2_linear_209_1265)"/>
<defs>
<linearGradient id="paint0_linear_209_1265" x1="3.99131" y1="30.195" x2="31.945" y2="5.89027" gradientUnits="userSpaceOnUse">
<stop stop-color="#0C6D7A"/>
<stop offset="0.00784314" stop-color="#0C6F7C"/>
<stop offset="0.239216" stop-color="#14BCD4"/>
<stop offset="0.482353" stop-color="#06DEFC"/>
<stop offset="0.545098" stop-color="#04E0FF"/>
<stop offset="0.831373" stop-color="#0FBBD4"/>
<stop offset="1" stop-color="#0D7684"/>
</linearGradient>
<linearGradient id="paint1_linear_209_1265" x1="1.15553" y1="3.71374" x2="15.6522" y2="51.9849" gradientUnits="userSpaceOnUse">
<stop stop-color="#0C6D7A"/>
<stop offset="0.00784314" stop-color="#0C6F7C"/>
<stop offset="0.239216" stop-color="#14BCD4"/>
<stop offset="0.509804" stop-color="#04E0FF"/>
<stop offset="0.831373" stop-color="#0FBBD4"/>
<stop offset="1" stop-color="#0D7684"/>
</linearGradient>
<linearGradient id="paint2_linear_209_1265" x1="31.8595" y1="-9.06708" x2="37.9002" y2="39.1075" gradientUnits="userSpaceOnUse">
<stop stop-color="#0C6D7A"/>
<stop offset="0.00784314" stop-color="#0C6F7C"/>
<stop offset="0.239216" stop-color="#14BCD4"/>
<stop offset="0.509804" stop-color="#04E0FF"/>
<stop offset="0.831373" stop-color="#0FBBD4"/>
<stop offset="1" stop-color="#0D7684"/>
</linearGradient>
</defs>
</svg>
