<svg width="130" height="47" viewBox="0 0 130 47" fill="none" xmlns="http://www.w3.org/2000/svg">
<g clip-path="url(#clip0_1168_208)">
<path d="M37.6756 9.61959C38.6167 10.0158 39.4099 10.5401 40.0551 11.1924C38.9613 10.0327 37.5635 9.04174 35.8618 8.21963L24.5673 2.94756C21.4054 1.62223 18.1297 1.75243 14.7398 3.33819C9.97169 5.83496 5.86431 8.88044 2.41776 12.4746C0.0965529 14.8947 -0.553271 18.0527 0.468286 21.9486L3.02987 33.3477C3.49611 34.8283 3.93177 36.0211 4.33686 36.9262C3.54711 34.8962 4.06909 32.1336 5.90277 28.6384C6.32742 27.954 6.76698 27.2852 7.22145 26.6319C9.01458 24.0498 11.6976 21.2009 15.2707 18.0856C17.1561 16.441 19.0253 15.0123 20.8781 13.7996C22.8822 12.487 25.0583 11.2983 27.4067 10.2334C28.0624 9.93552 28.7252 9.6845 29.3954 9.48037C29.9567 9.3107 30.5231 9.17364 31.0947 9.06922C32.2993 8.85084 33.4691 8.79075 34.6041 8.88895C35.7216 8.98456 36.7454 9.22811 37.6756 9.61959Z" fill="url(#paint0_linear_1168_208)"/>
<path d="M38.9974 40.7278C39.5305 40.4921 40.0106 40.2212 40.4378 39.915C38.3409 40.8318 35.2666 40.2354 31.2147 38.1259L7.22166 26.6312C6.76719 27.2845 6.32764 27.9534 5.903 28.6379C4.06931 32.133 3.54734 34.8957 4.33708 36.9255C4.46083 37.2022 4.5952 37.4698 4.74014 37.7285C4.74291 37.733 4.74637 37.7389 4.75051 37.7458C5.38526 38.8669 6.26846 39.8734 7.40011 40.7651C8.89502 41.9386 10.7201 42.9913 12.8754 43.9229C14.5079 44.6294 16.6366 45.3829 19.2615 46.1839C20.7909 46.6561 22.116 46.9228 23.237 46.9842C24.5337 47.0538 25.8164 46.8752 27.0848 46.4484L38.9974 40.7278Z" fill="url(#paint1_linear_1168_208)"/>
<path d="M40.0543 11.1922C39.409 10.5399 38.6159 10.0157 37.6749 9.61942C36.7447 9.22795 35.7209 8.9844 34.6034 8.88878C33.4684 8.79059 32.2985 8.85068 31.094 9.06906C30.5224 9.17348 29.9559 9.31052 29.3945 9.48021C32.6251 19.4304 33.2316 28.9792 31.2137 38.1263C35.2656 40.2358 38.3399 40.8322 40.4368 39.9154C41.9352 38.834 42.8772 37.3209 43.2625 35.376C43.8486 32.4518 44.0251 28.9453 43.792 24.8563C43.5872 21.2423 43.133 18.0245 42.4291 15.2028C42.2889 14.6421 42.074 14.0953 41.7843 13.5625C41.5583 13.1439 41.2465 12.669 40.8491 12.1376C40.6058 11.8105 40.3409 11.4953 40.0543 11.1922Z" fill="url(#paint2_linear_1168_208)"/>
<path d="M22.3438 31V15.6191H23.4424L23.6328 18.168C25.1758 16.4688 26.8945 15.6191 28.7891 15.6191V16.8496C26.9531 16.8496 25.3174 17.7432 23.8818 19.5303V31H22.3438ZM37.8564 15.6191C42.0654 15.6191 44.1699 17.9482 44.1699 22.6064C44.1699 22.9385 44.1602 23.2852 44.1406 23.6465H32.4658C32.4658 27.6699 34.5947 29.6816 38.8525 29.6816C40.6006 29.6816 42.1533 29.4375 43.5107 28.9492V30.2676C42.1533 30.7559 40.6006 31 38.8525 31C33.5693 31 30.9277 28.3779 30.9277 23.1338C30.9277 18.124 33.2373 15.6191 37.8564 15.6191ZM32.4658 22.2695H42.6904C42.6318 18.6953 41.0205 16.9082 37.8564 16.9082C34.4385 16.9082 32.6416 18.6953 32.4658 22.2695ZM47.2461 26.6494C47.2461 23.5928 49.2773 22.0645 53.3398 22.0645C54.7754 22.0645 56.3086 22.1621 57.9395 22.3574V20.4678C57.9395 18.1143 56.46 16.9375 53.501 16.9375C51.9189 16.9375 50.2979 17.1816 48.6377 17.6699V16.3516C50.2979 15.8633 51.9189 15.6191 53.501 15.6191C57.4854 15.6191 59.4775 17.2109 59.4775 20.3945V31H58.54L58.1885 29.4766C56.2646 30.4922 54.3994 31 52.5928 31C49.0283 31 47.2461 29.5498 47.2461 26.6494ZM53.3398 23.3828C50.3027 23.3828 48.7842 24.457 48.7842 26.6055C48.7842 28.6562 50.0537 29.6816 52.5928 29.6816C54.4678 29.6816 56.25 29.1836 57.9395 28.1875V23.6758C56.3086 23.4805 54.7754 23.3828 53.3398 23.3828ZM66.0107 10.0527V31H64.4727V10.0527H66.0107Z" fill="white"/>
<path d="M72.8369 10.0527V31H71.2988V10.0527H72.8369ZM79.8096 10.0527V11.8105H77.9785V10.0527H79.8096ZM79.6631 15.6191V31H78.125V15.6191H79.6631ZM82.4609 15.6191H84.2188L89.8438 29.667L95.498 15.6191H97.2559L90.708 31H88.9209L82.4609 15.6191ZM105.942 15.6191C110.151 15.6191 112.256 17.9482 112.256 22.6064C112.256 22.9385 112.246 23.2852 112.227 23.6465H100.552C100.552 27.6699 102.681 29.6816 106.938 29.6816C108.687 29.6816 110.239 29.4375 111.597 28.9492V30.2676C110.239 30.7559 108.687 31 106.938 31C101.655 31 99.0137 28.3779 99.0137 23.1338C99.0137 18.124 101.323 15.6191 105.942 15.6191ZM100.552 22.2695H110.776C110.718 18.6953 109.106 16.9082 105.942 16.9082C102.524 16.9082 100.728 18.6953 100.552 22.2695ZM115.918 30.2676V28.8027C117.627 29.3887 119.307 29.6816 120.957 29.6816C124.189 29.6816 125.806 28.6562 125.806 26.6055C125.806 24.9453 124.609 24.1152 122.217 24.1152H120.254C117.031 24.1152 115.42 22.748 115.42 20.0137C115.42 17.084 117.554 15.6191 121.821 15.6191C123.462 15.6191 125.137 15.8633 126.846 16.3516V17.8164C125.137 17.2305 123.462 16.9375 121.821 16.9375C118.579 16.9375 116.958 17.9629 116.958 20.0137C116.958 21.7715 118.057 22.6504 120.254 22.6504H122.217C125.635 22.6504 127.344 23.9688 127.344 26.6055C127.344 29.5352 125.215 31 120.957 31C119.307 31 117.627 30.7559 115.918 30.2676Z" fill="#10DCF6"/>
<path d="M48.1221 38.873H49.1035L50.5537 42.877L52.0527 38.873H53.0098L50.8809 44.1514C50.5033 45.0824 49.9368 45.6634 49.1816 45.8945L48.835 45.2549C49.4079 45.0042 49.8245 44.5957 50.085 44.0293L48.1221 38.873ZM54.5186 41.417C54.5186 42.6507 55.0312 43.2676 56.0566 43.2676C57.082 43.2676 57.5947 42.6507 57.5947 41.417C57.5947 40.2093 57.082 39.6055 56.0566 39.6055C55.0312 39.6055 54.5186 40.2093 54.5186 41.417ZM53.6152 41.4365C53.6152 39.7275 54.429 38.873 56.0566 38.873C57.6842 38.873 58.498 39.7275 58.498 41.4365C58.498 43.1423 57.6842 43.9951 56.0566 43.9951C54.4355 43.9951 53.6217 43.1423 53.6152 41.4365ZM64.1377 38.873V44H63.5176L63.3613 43.3457C62.7396 43.7819 62.1146 44 61.4863 44C60.3079 44 59.7188 43.3636 59.7188 42.0908V38.873H60.6221V42.1055C60.6221 42.8672 60.9997 43.248 61.7549 43.248C62.2725 43.248 62.7656 43.0316 63.2344 42.5986V38.873H64.1377ZM67.8047 42.4521C67.8047 41.4007 68.498 40.875 69.8848 40.875C70.3307 40.875 70.7767 40.9076 71.2227 40.9727V40.4893C71.2227 39.9001 70.762 39.6055 69.8408 39.6055C69.3135 39.6055 68.7731 39.6868 68.2197 39.8496V39.1172C68.7731 38.9544 69.3135 38.873 69.8408 38.873C71.3643 38.873 72.126 39.4036 72.126 40.4648V44H71.6182L71.3057 43.4922C70.7946 43.8307 70.238 44 69.6357 44C68.415 44 67.8047 43.484 67.8047 42.4521ZM69.8848 41.6074C69.1003 41.6074 68.708 41.8841 68.708 42.4375C68.708 42.9909 69.0173 43.2676 69.6357 43.2676C70.2607 43.2676 70.7897 43.1016 71.2227 42.7695V41.7051C70.7767 41.64 70.3307 41.6074 69.8848 41.6074ZM73.5957 44V38.873H74.2061L74.3672 39.5273C74.8164 39.0911 75.3568 38.873 75.9883 38.873V39.625C75.3763 39.625 74.8799 39.8415 74.499 40.2744V44H73.5957ZM79.0107 38.873C80.4691 38.873 81.1982 39.5941 81.1982 41.0361C81.1982 41.2412 81.1836 41.4609 81.1543 41.6953H77.5557C77.5557 42.7435 78.1676 43.2676 79.3916 43.2676C79.9743 43.2676 80.4919 43.2025 80.9443 43.0723V43.8047C80.4919 43.9349 79.9417 44 79.2939 44C77.5329 44 76.6523 43.126 76.6523 41.3779C76.6523 39.708 77.4385 38.873 79.0107 38.873ZM77.5557 40.9434H80.3291C80.3096 40.0449 79.8701 39.5957 79.0107 39.5957C78.0993 39.5957 77.6143 40.0449 77.5557 40.9434ZM84.8555 38.043H85.4219L85.6172 38.873H87.0039V39.6055H85.7588V42.5498C85.7588 43.0283 85.9655 43.2676 86.3789 43.2676H87.0039V44H86.1445C85.2852 44 84.8555 43.5394 84.8555 42.6182V38.043ZM88.1562 44V37.0176H89.0596V39.4297C89.4958 39.0586 90.028 38.873 90.6562 38.873C91.9355 38.873 92.5752 39.5094 92.5752 40.7822V44H91.6719V40.7676C91.6719 40.0059 91.2926 39.625 90.5342 39.625C90.0166 39.625 89.5251 39.8415 89.0596 40.2744V44H88.1562ZM96.1592 38.873C97.6175 38.873 98.3467 39.5941 98.3467 41.0361C98.3467 41.2412 98.332 41.4609 98.3027 41.6953H94.7041C94.7041 42.7435 95.3161 43.2676 96.54 43.2676C97.1227 43.2676 97.6403 43.2025 98.0928 43.0723V43.8047C97.6403 43.9349 97.0902 44 96.4424 44C94.6813 44 93.8008 43.126 93.8008 41.3779C93.8008 39.708 94.5869 38.873 96.1592 38.873ZM94.7041 40.9434H97.4775C97.458 40.0449 97.0186 39.5957 96.1592 39.5957C95.2477 39.5957 94.7627 40.0449 94.7041 40.9434ZM101.442 38.873H102.355L103.264 42.8916L104.597 38.873H105.412L106.838 42.8916L107.658 38.873H108.615L107.277 44H106.452L104.982 40.167L103.586 44H102.741L101.442 38.873ZM110.183 41.417C110.183 42.6507 110.695 43.2676 111.721 43.2676C112.746 43.2676 113.259 42.6507 113.259 41.417C113.259 40.2093 112.746 39.6055 111.721 39.6055C110.695 39.6055 110.183 40.2093 110.183 41.417ZM109.279 41.4365C109.279 39.7275 110.093 38.873 111.721 38.873C113.348 38.873 114.162 39.7275 114.162 41.4365C114.162 43.1423 113.348 43.9951 111.721 43.9951C110.1 43.9951 109.286 43.1423 109.279 41.4365ZM115.383 44V38.873H115.993L116.154 39.5273C116.604 39.0911 117.144 38.873 117.775 38.873V39.625C117.163 39.625 116.667 39.8415 116.286 40.2744V44H115.383ZM119.636 37.0176V44H118.732V37.0176H119.636ZM124.597 39.918C124.232 39.7422 123.815 39.6543 123.347 39.6543C122.315 39.6543 121.799 40.2028 121.799 41.2998C121.799 42.5986 122.315 43.248 123.347 43.248C123.815 43.248 124.232 43.1846 124.597 43.0576V39.918ZM125.5 43.6924C124.878 43.8975 124.112 44 123.2 44C121.674 44 120.91 43.1113 120.91 41.334C120.91 39.6934 121.721 38.873 123.342 38.873C123.785 38.873 124.203 38.9544 124.597 39.1172V37.0176H125.5V43.6924Z" fill="white"/>
</g>
<defs>
<linearGradient id="paint0_linear_1168_208" x1="3.8929" y1="32.1851" x2="31.7008" y2="8.56218" gradientUnits="userSpaceOnUse">
<stop stop-color="#0C6D7A"/>
<stop offset="0.00784314" stop-color="#0C6F7C"/>
<stop offset="0.239216" stop-color="#14BCD4"/>
<stop offset="0.482353" stop-color="#06DEFC"/>
<stop offset="0.545098" stop-color="#04E0FF"/>
<stop offset="0.831373" stop-color="#0FBBD4"/>
<stop offset="1" stop-color="#0D7684"/>
</linearGradient>
<linearGradient id="paint1_linear_1168_208" x1="1.12136" y1="5.75" x2="15.8749" y2="53.7485" gradientUnits="userSpaceOnUse">
<stop stop-color="#0C6D7A"/>
<stop offset="0.00784314" stop-color="#0C6F7C"/>
<stop offset="0.239216" stop-color="#14BCD4"/>
<stop offset="0.509804" stop-color="#04E0FF"/>
<stop offset="0.831373" stop-color="#0FBBD4"/>
<stop offset="1" stop-color="#0D7684"/>
</linearGradient>
<linearGradient id="paint2_linear_1168_208" x1="31.075" y1="-7.00889" x2="37.2424" y2="41.0466" gradientUnits="userSpaceOnUse">
<stop stop-color="#0C6D7A"/>
<stop offset="0.00784314" stop-color="#0C6F7C"/>
<stop offset="0.239216" stop-color="#14BCD4"/>
<stop offset="0.509804" stop-color="#04E0FF"/>
<stop offset="0.831373" stop-color="#0FBBD4"/>
<stop offset="1" stop-color="#0D7684"/>
</linearGradient>
<clipPath id="clip0_1168_208">
<rect width="130" height="47" fill="white"/>
</clipPath>
</defs>
</svg>
