<svg width="52" height="54" viewBox="0 0 52 54" fill="none" xmlns="http://www.w3.org/2000/svg">
<g clip-path="url(#clip0_2295_2998)">
<mask id="mask0_2295_2998" style="mask-type:luminance" maskUnits="userSpaceOnUse" x="0" y="0" width="52" height="54">
<path d="M52 0H0V54H52V0Z" fill="white"/>
</mask>
<g mask="url(#mask0_2295_2998)">
<path d="M26 54.1064C40.3594 54.1064 52 42.2181 52 27.5532C52 12.8883 40.3594 1 26 1C11.6406 1 0 12.8883 0 27.5532C0 42.2181 11.6406 54.1064 26 54.1064Z" fill="url(#paint0_linear_2295_2998)"/>
<path d="M33.6967 19.3655C33.8677 19.4858 34.0627 19.5678 34.2683 19.6059C34.4739 19.644 34.6853 19.6373 34.888 19.5863C35.0908 19.5352 35.2801 19.4411 35.4432 19.3102C35.6062 19.1793 35.7391 19.0147 35.8328 18.8278C36.4657 17.5587 36.8659 16.1865 37.0142 14.7761C37.0526 14.4174 37.0135 14.0546 36.8994 13.7123C36.7853 13.37 36.5989 13.0562 36.353 12.7923C36.1207 12.5426 35.8395 12.3434 35.5269 12.2071C35.2143 12.0708 34.877 12.0003 34.536 12H33.0825C32.879 11.9991 32.6777 12.0408 32.4914 12.1226C32.3051 12.2043 32.138 12.3243 32.001 12.4747C31.864 12.6251 31.7601 12.8026 31.696 12.9957C31.6319 13.1887 31.6091 13.3931 31.629 13.5956C31.6747 13.9629 31.8549 14.3002 32.1348 14.5424C32.4146 14.7846 32.7743 14.9145 33.1443 14.9071H34.0666C33.9291 15.7992 33.657 16.6653 33.2596 17.4757C33.0957 17.7909 33.0495 18.1543 33.1295 18.5005C33.2095 18.8468 33.4103 19.1531 33.6958 19.3645L33.6967 19.3655Z" fill="white"/>
<path d="M26.9428 19.3655C27.1139 19.486 27.3089 19.5681 27.5146 19.6063C27.7203 19.6445 27.9318 19.6378 28.1347 19.5868C28.3375 19.5358 28.527 19.4415 28.6901 19.3105C28.8532 19.1795 28.9862 19.0149 29.0798 18.8278C29.7126 17.5587 30.1124 16.1864 30.2603 14.7761C30.2987 14.4174 30.2595 14.0546 30.1454 13.7123C30.0313 13.37 29.845 13.0563 29.599 12.7923C29.3666 12.5429 29.0854 12.3439 28.7728 12.2076C28.4603 12.0713 28.1231 12.0007 27.7821 12H26.3286C26.1252 11.9992 25.9239 12.041 25.7377 12.1229C25.5514 12.2047 25.3844 12.3246 25.2475 12.475C25.1105 12.6254 25.0066 12.8028 24.9424 12.9958C24.8783 13.1888 24.8553 13.3932 24.8751 13.5956C24.9208 13.9629 25.101 14.3002 25.3809 14.5424C25.6607 14.7846 26.0204 14.9145 26.3904 14.9071H27.3127C27.1752 15.7992 26.9031 16.6653 26.5057 17.4757C26.3418 17.7909 26.2957 18.1543 26.3756 18.5005C26.4556 18.8467 26.6564 19.1531 26.9419 19.3645L26.9428 19.3655Z" fill="white"/>
<path d="M17.7794 16.5746V16.2887C17.7796 15.9096 17.9303 15.5461 18.1984 15.2781C18.4664 15.0101 18.8299 14.8594 19.209 14.8591H21.3533C21.7324 14.8591 22.096 14.7085 22.3641 14.4404C22.6322 14.1723 22.7828 13.8087 22.7828 13.4296C22.7828 13.0504 22.6322 12.6868 22.3641 12.4187C22.096 12.1506 21.7324 12 21.3533 12H19.209C18.0713 12 16.9802 12.452 16.1758 13.2564C15.3713 14.0609 14.9194 15.1519 14.9194 16.2896V26.6553C14.9194 27.7929 15.3713 28.884 16.1758 29.6884C16.9802 30.4929 18.0713 30.9448 19.209 30.9448H21.2786L23.1407 32.9001C23.5401 33.3287 24.0278 33.6655 24.5702 33.887C25.2837 34.1704 26.0646 34.2389 26.8165 34.0838C27.5684 33.9288 28.2586 33.5571 28.8017 33.0145L30.8824 30.9448H32.7906C33.9283 30.9448 35.0194 30.4929 35.8238 29.6884C36.6283 28.884 37.0802 27.7929 37.0802 26.6553V23.4355C37.0802 23.2478 37.0432 23.0619 36.9714 22.8885C36.8995 22.715 36.7943 22.5574 36.6615 22.4247C36.5288 22.2919 36.3712 22.1866 36.1977 22.1148C36.0243 22.043 35.8384 22.006 35.6507 22.006C35.4629 22.006 35.277 22.043 35.1036 22.1148C34.9302 22.1866 34.7726 22.2919 34.6398 22.4247C34.5071 22.5574 34.4018 22.715 34.3299 22.8885C34.2581 23.0619 34.2211 23.2478 34.2211 23.4355V26.6525C34.2211 27.0316 34.0705 27.3952 33.8024 27.6633C33.5343 27.9314 33.1707 28.082 32.7915 28.082H30.8833C30.5078 28.0818 30.1359 28.1556 29.7888 28.2991C29.4418 28.4426 29.1264 28.6531 28.8607 28.9186L26.7662 31.0131C26.6704 31.1107 26.5561 31.1883 26.43 31.2412C26.3038 31.2941 26.1684 31.3214 26.0316 31.3214C25.8948 31.3214 25.7594 31.2941 25.6333 31.2412C25.5071 31.1883 25.3928 31.1107 25.297 31.0131L23.3454 28.9757C23.0795 28.6947 22.7592 28.4706 22.4041 28.317C22.049 28.1634 21.6664 28.0835 21.2795 28.082H19.209C18.8298 28.082 18.4662 27.9314 18.1981 27.6633C17.93 27.3952 17.7794 27.0316 17.7794 26.6525V16.5746Z" fill="white"/>
<path d="M8.89024 42.165V37.8014H10.5266C10.8618 37.8014 11.1431 37.8596 11.3704 37.9761C11.599 38.0926 11.7716 38.2559 11.8881 38.4662C12.006 38.675 12.065 38.9186 12.065 39.197C12.065 39.4768 12.0053 39.7197 11.886 39.9257C11.7681 40.1302 11.5941 40.2886 11.364 40.4008C11.1338 40.5116 10.8512 40.567 10.516 40.567H9.35047V39.9108H10.4094C10.6054 39.9108 10.766 39.8838 10.891 39.8298C11.016 39.7744 11.1083 39.6942 11.1679 39.589C11.229 39.4825 11.2596 39.3518 11.2596 39.197C11.2596 39.0422 11.229 38.9101 11.1679 38.8007C11.1069 38.6899 11.0138 38.6061 10.8888 38.5493C10.7638 38.491 10.6026 38.4619 10.4052 38.4619H9.68072V42.165H8.89024ZM11.1445 40.1878L12.2248 42.165H11.3427L10.2816 40.1878H11.1445ZM14.8805 42.229C14.5524 42.229 14.269 42.1608 14.0303 42.0244C13.7931 41.8866 13.6106 41.692 13.4828 41.4406C13.3549 41.1878 13.291 40.8902 13.291 40.5479C13.291 40.2112 13.3549 39.9157 13.4828 39.6615C13.612 39.4058 13.7924 39.2069 14.0239 39.0649C14.2555 38.9214 14.5275 38.8497 14.84 38.8497C15.0417 38.8497 15.232 38.8824 15.411 38.9477C15.5914 39.0116 15.7505 39.1111 15.8883 39.246C16.0275 39.3809 16.1369 39.5528 16.2164 39.7616C16.296 39.969 16.3357 40.2162 16.3357 40.5031V40.7396H13.6532V40.2197H15.5964C15.595 40.072 15.563 39.9406 15.5005 39.8256C15.438 39.7091 15.3507 39.6175 15.2384 39.5507C15.1276 39.4839 14.9984 39.4506 14.8507 39.4506C14.693 39.4506 14.5545 39.4889 14.4352 39.5656C14.3159 39.6409 14.2228 39.7403 14.1561 39.8639C14.0907 39.9861 14.0573 40.1203 14.0559 40.2666V40.7204C14.0559 40.9108 14.0907 41.0741 14.1603 41.2105C14.2299 41.3454 14.3272 41.4491 14.4522 41.5216C14.5772 41.5926 14.7235 41.6281 14.8911 41.6281C15.0034 41.6281 15.1049 41.6125 15.1958 41.5812C15.2867 41.5486 15.3656 41.501 15.4323 41.4385C15.4991 41.376 15.5495 41.2986 15.5836 41.2062L16.3038 41.2872C16.2583 41.4775 16.1717 41.6437 16.0438 41.7858C15.9174 41.9264 15.7555 42.0358 15.558 42.1139C15.3606 42.1906 15.1347 42.229 14.8805 42.229ZM18.65 42.2311C18.4426 42.2311 18.2558 42.1942 18.0897 42.1203C17.9249 42.045 17.7942 41.9342 17.6976 41.7879C17.6024 41.6416 17.5549 41.4612 17.5549 41.2467C17.5549 41.0621 17.5889 40.9094 17.6571 40.7886C17.7253 40.6679 17.8183 40.5713 17.9362 40.4988C18.0541 40.4264 18.187 40.3717 18.3347 40.3348C18.4838 40.2964 18.6379 40.2687 18.797 40.2517C18.9888 40.2318 19.1443 40.214 19.2637 40.1984C19.383 40.1814 19.4696 40.1558 19.5236 40.1217C19.579 40.0862 19.6067 40.0315 19.6067 39.9577V39.9449C19.6067 39.7844 19.5591 39.6601 19.4639 39.572C19.3688 39.4839 19.2317 39.4399 19.0527 39.4399C18.8638 39.4399 18.7139 39.4811 18.6031 39.5635C18.4938 39.6459 18.4199 39.7432 18.3816 39.8554L17.6614 39.7531C17.7182 39.5542 17.812 39.3881 17.9426 39.2545C18.0733 39.1196 18.2331 39.0187 18.422 38.952C18.611 38.8838 18.8198 38.8497 19.0485 38.8497C19.2061 38.8497 19.3631 38.8682 19.5193 38.9051C19.6756 38.942 19.8183 39.0031 19.9476 39.0883C20.0769 39.1721 20.1806 39.2865 20.2587 39.4314C20.3382 39.5763 20.378 39.7574 20.378 39.9747V42.165H19.6365V41.7155H19.611C19.5641 41.8064 19.498 41.8916 19.4128 41.9711C19.329 42.0493 19.2232 42.1125 19.0953 42.1608C18.9689 42.2077 18.8205 42.2311 18.65 42.2311ZM18.8503 41.6643C19.0051 41.6643 19.1394 41.6338 19.253 41.5727C19.3666 41.5102 19.454 41.4278 19.5151 41.3256C19.5776 41.2233 19.6088 41.1118 19.6088 40.991V40.6054C19.5847 40.6253 19.5435 40.6437 19.4852 40.6608C19.4284 40.6778 19.3645 40.6927 19.2935 40.7055C19.2225 40.7183 19.1522 40.7297 19.0825 40.7396C19.0129 40.7496 18.9526 40.7581 18.9014 40.7652C18.7864 40.7808 18.6834 40.8064 18.5925 40.8419C18.5016 40.8774 18.4299 40.9271 18.3773 40.991C18.3247 41.0535 18.2985 41.1345 18.2985 41.2339C18.2985 41.376 18.3503 41.4832 18.454 41.5557C18.5577 41.6281 18.6898 41.6643 18.8503 41.6643ZM22.6449 37.8014V42.165H21.8736V37.8014H22.6449ZM24.1921 42.165V37.8014H24.9634V39.4335H24.9954C25.0352 39.354 25.0913 39.2694 25.1637 39.18C25.2361 39.089 25.3342 39.0116 25.4577 38.9477C25.5813 38.8824 25.739 38.8497 25.9308 38.8497C26.1836 38.8497 26.4116 38.9143 26.6147 39.0436C26.8192 39.1714 26.9812 39.3611 27.1005 39.6125C27.2212 39.8625 27.2816 40.1693 27.2816 40.5329C27.2816 40.8923 27.2227 41.1977 27.1048 41.4491C26.9869 41.7006 26.8263 41.8923 26.6232 42.0244C26.4201 42.1565 26.19 42.2226 25.9329 42.2226C25.7454 42.2226 25.5898 42.1913 25.4663 42.1288C25.3427 42.0663 25.2433 41.991 25.168 41.903C25.0941 41.8135 25.0366 41.729 24.9954 41.6494H24.9506V42.165H24.1921ZM24.9485 40.5287C24.9485 40.7403 24.9783 40.9257 25.038 41.0848C25.0991 41.2439 25.1864 41.3682 25.3001 41.4577C25.4151 41.5457 25.5543 41.5898 25.7177 41.5898C25.8881 41.5898 26.0309 41.5443 26.146 41.4534C26.261 41.3611 26.3477 41.2354 26.4059 41.0763C26.4656 40.9157 26.4954 40.7332 26.4954 40.5287C26.4954 40.3256 26.4663 40.1452 26.408 39.9875C26.3498 39.8298 26.2631 39.7062 26.1481 39.6167C26.033 39.5273 25.8896 39.4825 25.7177 39.4825C25.5529 39.4825 25.413 39.5258 25.2979 39.6125C25.1829 39.6991 25.0955 39.8206 25.0359 39.9768C24.9776 40.1331 24.9485 40.317 24.9485 40.5287ZM30.0849 42.229C29.7653 42.229 29.4883 42.1586 29.2539 42.018C29.0195 41.8774 28.8377 41.6807 28.7085 41.4278C28.5806 41.175 28.5167 40.8795 28.5167 40.5415C28.5167 40.2034 28.5806 39.9072 28.7085 39.653C28.8377 39.3987 29.0195 39.2013 29.2539 39.0606C29.4883 38.92 29.7653 38.8497 30.0849 38.8497C30.4045 38.8497 30.6815 38.92 30.9158 39.0606C31.1502 39.2013 31.3313 39.3987 31.4592 39.653C31.5884 39.9072 31.6531 40.2034 31.6531 40.5415C31.6531 40.8795 31.5884 41.175 31.4592 41.4278C31.3313 41.6807 31.1502 41.8774 30.9158 42.018C30.6815 42.1586 30.4045 42.229 30.0849 42.229ZM30.0891 41.6111C30.2624 41.6111 30.4073 41.5635 30.5238 41.4683C30.6403 41.3717 30.7269 41.2425 30.7837 41.0805C30.842 40.9186 30.8711 40.7382 30.8711 40.5393C30.8711 40.339 30.842 40.1579 30.7837 39.996C30.7269 39.8327 30.6403 39.7027 30.5238 39.6061C30.4073 39.5095 30.2624 39.4612 30.0891 39.4612C29.9116 39.4612 29.7639 39.5095 29.646 39.6061C29.5295 39.7027 29.4421 39.8327 29.3839 39.996C29.3271 40.1579 29.2987 40.339 29.2987 40.5393C29.2987 40.7382 29.3271 40.9186 29.3839 41.0805C29.4421 41.2425 29.5295 41.3717 29.646 41.4683C29.7639 41.5635 29.9116 41.6111 30.0891 41.6111ZM33.9695 42.2311C33.7621 42.2311 33.5753 42.1942 33.4091 42.1203C33.2443 42.045 33.1136 41.9342 33.0171 41.7879C32.9219 41.6416 32.8743 41.4612 32.8743 41.2467C32.8743 41.0621 32.9084 40.9094 32.9766 40.7886C33.0448 40.6679 33.1378 40.5713 33.2557 40.4988C33.3736 40.4264 33.5064 40.3717 33.6541 40.3348C33.8033 40.2964 33.9574 40.2687 34.1165 40.2517C34.3083 40.2318 34.4638 40.214 34.5831 40.1984C34.7024 40.1814 34.7891 40.1558 34.8431 40.1217C34.8985 40.0862 34.9261 40.0315 34.9261 39.9577V39.9449C34.9261 39.7844 34.8786 39.6601 34.7834 39.572C34.6882 39.4839 34.5511 39.4399 34.3722 39.4399C34.1833 39.4399 34.0334 39.4811 33.9226 39.5635C33.8132 39.6459 33.7394 39.7432 33.701 39.8554L32.9808 39.7531C33.0377 39.5542 33.1314 39.3881 33.2621 39.2545C33.3928 39.1196 33.5526 39.0187 33.7415 38.952C33.9304 38.8838 34.1392 38.8497 34.3679 38.8497C34.5256 38.8497 34.6825 38.8682 34.8388 38.9051C34.995 38.942 35.1378 39.0031 35.2671 39.0883C35.3963 39.1721 35.5 39.2865 35.5781 39.4314C35.6577 39.5763 35.6975 39.7574 35.6975 39.9747V42.165H34.956V41.7155H34.9304C34.8835 41.8064 34.8175 41.8916 34.7323 41.9711C34.6485 42.0493 34.5426 42.1125 34.4148 42.1608C34.2884 42.2077 34.1399 42.2311 33.9695 42.2311ZM34.1698 41.6643C34.3246 41.6643 34.4588 41.6338 34.5725 41.5727C34.6861 41.5102 34.7735 41.4278 34.8345 41.3256C34.897 41.2233 34.9283 41.1118 34.9283 40.991V40.6054C34.9041 40.6253 34.8629 40.6437 34.8047 40.6608C34.7479 40.6778 34.684 40.6927 34.6129 40.7055C34.5419 40.7183 34.4716 40.7297 34.402 40.7396C34.3324 40.7496 34.272 40.7581 34.2209 40.7652C34.1058 40.7808 34.0029 40.8064 33.9119 40.8419C33.821 40.8774 33.7493 40.9271 33.6967 40.991C33.6442 41.0535 33.6179 41.1345 33.6179 41.2339C33.6179 41.376 33.6698 41.4832 33.7735 41.5557C33.8771 41.6281 34.0092 41.6643 34.1698 41.6643ZM37.193 42.165V38.8923H37.9409V39.4378H37.975C38.0346 39.2488 38.1369 39.1032 38.2818 39.001C38.4281 38.8973 38.595 38.8454 38.7825 38.8454C38.8251 38.8454 38.8727 38.8476 38.9253 38.8518C38.9792 38.8547 39.024 38.8596 39.0595 38.8667V39.5763C39.0268 39.5649 38.975 39.555 38.904 39.5464C38.8344 39.5365 38.7669 39.5315 38.7015 39.5315C38.5609 39.5315 38.4345 39.5621 38.3223 39.6231C38.2115 39.6828 38.1241 39.7659 38.0602 39.8724C37.9963 39.979 37.9643 40.1018 37.9643 40.241V42.165H37.193ZM41.3717 42.2226C41.1146 42.2226 40.8844 42.1565 40.6813 42.0244C40.4782 41.8923 40.3177 41.7006 40.1998 41.4491C40.0819 41.1977 40.0229 40.8923 40.0229 40.5329C40.0229 40.1693 40.0826 39.8625 40.2019 39.6125C40.3226 39.3611 40.4853 39.1714 40.6898 39.0436C40.8944 38.9143 41.1224 38.8497 41.3738 38.8497C41.5655 38.8497 41.7232 38.8824 41.8468 38.9477C41.9704 39.0116 42.0684 39.089 42.1408 39.18C42.2133 39.2694 42.2694 39.354 42.3092 39.4335H42.3411V37.8014H43.1146V42.165H42.356V41.6494H42.3092C42.2694 41.729 42.2119 41.8135 42.1366 41.903C42.0613 41.991 41.9619 42.0663 41.8383 42.1288C41.7147 42.1913 41.5592 42.2226 41.3717 42.2226ZM41.5869 41.5898C41.7502 41.5898 41.8894 41.5457 42.0045 41.4577C42.1195 41.3682 42.2069 41.2439 42.2665 41.0848C42.3262 40.9257 42.356 40.7403 42.356 40.5287C42.356 40.317 42.3262 40.1331 42.2665 39.9768C42.2083 39.8206 42.1217 39.6991 42.0066 39.6125C41.893 39.5258 41.753 39.4825 41.5869 39.4825C41.415 39.4825 41.2715 39.5273 41.1565 39.6167C41.0414 39.7062 40.9548 39.8298 40.8965 39.9875C40.8383 40.1452 40.8092 40.3256 40.8092 40.5287C40.8092 40.7332 40.8383 40.9157 40.8965 41.0763C40.9562 41.2354 41.0435 41.3611 41.1586 41.4534C41.2751 41.5443 41.4178 41.5898 41.5869 41.5898Z" fill="white"/>
</g>
</g>
<defs>
<linearGradient id="paint0_linear_2295_2998" x1="26" y1="1" x2="31.3133" y2="58.7066" gradientUnits="userSpaceOnUse">
<stop stop-color="#0897E3"/>
<stop offset="1" stop-color="#044C72"/>
</linearGradient>
<clipPath id="clip0_2295_2998">
<rect width="52" height="54" fill="white"/>
</clipPath>
</defs>
</svg>
