<svg width="100" height="100" viewBox="0 0 100 100" fill="none" xmlns="http://www.w3.org/2000/svg">
<path d="M12.9805 57.2116L73.0766 86.0578L76.9228 70.1924V44.2308L69.7112 16.827L64.4228 13.9424L34.1343 31.7308L12.9805 53.3655V57.2116Z" fill="#00242F" stroke="black"/>
<path d="M85.7728 16.8544C87.9151 17.7358 89.7207 18.9019 91.1898 20.3529C88.6996 17.7732 85.5175 15.569 81.6434 13.7403L55.9301 2.01325C48.732 -0.934804 41.2742 -0.645175 33.557 2.88214C22.7016 8.43591 13.3507 15.2102 5.50429 23.2051C0.219813 28.5882 -1.25958 35.6127 1.0661 44.2788L6.89783 69.6347C7.95928 72.928 8.95111 75.5813 9.87333 77.5947C8.0754 73.0792 9.26373 66.9342 13.4383 59.1595C14.4051 57.637 15.4058 56.1493 16.4404 54.6962C20.5227 48.9524 26.631 42.6157 34.7652 35.6859C39.0577 32.0278 43.3131 28.8499 47.5313 26.1523C52.0936 23.2327 57.048 20.5885 62.3944 18.2197C63.887 17.5571 65.3961 16.9988 66.9217 16.5447C68.1997 16.1673 69.4893 15.8624 70.7906 15.6302C73.5329 15.1444 76.1961 15.0107 78.7801 15.2291C81.3242 15.4418 83.6551 15.9836 85.7728 16.8544Z" fill="url(#paint0_linear_2918_1668)"/>
<path d="M88.7825 86.0513C89.9962 85.527 91.0891 84.9243 92.0614 84.2433C87.2879 86.2825 80.2888 84.956 71.0642 80.2636L16.4414 54.6953C15.4068 56.1484 14.4061 57.6361 13.4393 59.1586C9.26476 66.9333 8.07643 73.0783 9.87435 77.5938C10.1561 78.2091 10.462 78.8044 10.792 79.3796C10.7983 79.3899 10.8061 79.4028 10.8156 79.4183C12.2607 81.912 14.2714 84.1507 16.8477 86.1342C20.251 88.7447 24.406 91.0862 29.3127 93.1586C33.0294 94.7298 37.8756 96.4062 43.8513 98.1876C47.3331 99.2381 50.3501 99.8316 52.902 99.9679C55.8544 100.123 58.7744 99.7255 61.6622 98.776L88.7825 86.0513Z" fill="url(#paint1_linear_2918_1668)"/>
<path d="M91.19 20.3523C89.7209 18.9014 87.9153 17.7352 85.773 16.8538C83.6553 15.983 81.3244 15.4413 78.7803 15.2286C76.1963 15.0102 73.5331 15.1438 70.7908 15.6296C69.4895 15.8619 68.1998 16.1667 66.9219 16.5441C74.2766 38.6773 75.6571 59.9172 71.0634 80.264C80.288 84.9563 87.2871 86.2829 92.0606 84.2436C95.4722 81.8381 97.6166 78.4722 98.4939 74.146C99.828 67.6418 100.23 59.8419 99.6992 50.7465C99.2331 42.7075 98.1988 35.5497 96.5964 29.2732C96.2772 28.0261 95.788 26.8099 95.1286 25.6247C94.6138 24.6937 93.9041 23.6372 92.9995 22.4552C92.4454 21.7275 91.8422 21.0265 91.19 20.3523Z" fill="url(#paint2_linear_2918_1668)"/>
<path d="M59.9438 32.3681C58.8058 32.766 57.789 33.3231 56.8934 34.0394C55.9662 34.7855 55.1549 35.6908 54.4595 36.7552C53.7641 37.8097 53.1371 39.0234 52.5787 40.3962L52.3416 33.3828L52.0255 32.5621L51.1562 32.3383H49.3545V65.734H52.7525V44.1417L54.4911 40.1425C55.1127 38.9786 55.8398 38.0136 56.6721 37.2476C57.5361 36.4617 58.4897 35.8748 59.5328 35.4868C60.597 35.0889 61.8087 34.8899 63.1679 34.8899L66.7873 35.3525C67.1034 35.3525 67.3194 35.1784 67.4353 34.8302L67.7197 32.5919L65.839 31.9503L63.6895 31.7861C62.2987 31.7861 61.0501 31.9801 59.9438 32.3681Z" fill="white" stroke="white" stroke-width="6"/>
<defs>
<linearGradient id="paint0_linear_2918_1668" x1="8.86261" y1="67.0485" x2="70.9341" y2="13.0805" gradientUnits="userSpaceOnUse">
<stop stop-color="#0C6D7A"/>
<stop offset="0.00784314" stop-color="#0C6F7C"/>
<stop offset="0.239216" stop-color="#14BCD4"/>
<stop offset="0.482353" stop-color="#06DEFC"/>
<stop offset="0.545098" stop-color="#04E0FF"/>
<stop offset="0.831373" stop-color="#0FBBD4"/>
<stop offset="1" stop-color="#0D7684"/>
</linearGradient>
<linearGradient id="paint1_linear_2918_1668" x1="2.55343" y1="8.24741" x2="34.744" y2="115.434" gradientUnits="userSpaceOnUse">
<stop stop-color="#0C6D7A"/>
<stop offset="0.00784314" stop-color="#0C6F7C"/>
<stop offset="0.239216" stop-color="#14BCD4"/>
<stop offset="0.509804" stop-color="#04E0FF"/>
<stop offset="0.831373" stop-color="#0FBBD4"/>
<stop offset="1" stop-color="#0D7684"/>
</linearGradient>
<linearGradient id="paint2_linear_2918_1668" x1="70.7474" y1="-20.1339" x2="84.1611" y2="86.8384" gradientUnits="userSpaceOnUse">
<stop stop-color="#0C6D7A"/>
<stop offset="0.00784314" stop-color="#0C6F7C"/>
<stop offset="0.239216" stop-color="#14BCD4"/>
<stop offset="0.509804" stop-color="#04E0FF"/>
<stop offset="0.831373" stop-color="#0FBBD4"/>
<stop offset="1" stop-color="#0D7684"/>
</linearGradient>
</defs>
</svg>
