<svg width="94" height="36" viewBox="0 0 94 36" fill="none" xmlns="http://www.w3.org/2000/svg">
<g clip-path="url(#clip0_393_122)">
<path d="M27.8859 7.3682C28.5824 7.6717 29.1695 8.07327 29.6471 8.5729C28.8375 7.68459 27.8029 6.92559 26.5434 6.29589L18.1837 2.25771C15.8434 1.24256 13.4188 1.34229 10.9098 2.55691C7.38062 4.46933 4.34051 6.80204 1.78952 9.55504C0.0714644 11.4087 -0.409508 13.8276 0.346605 16.8117L2.24258 25.5429C2.58767 26.677 2.91013 27.5906 3.20996 28.2839C2.62542 26.729 3.01177 24.613 4.36898 21.9358C4.68329 21.4116 5.00863 20.8993 5.34501 20.3989C6.67221 18.4211 8.6581 16.239 11.3027 13.8528C12.6982 12.5931 14.0817 11.4988 15.4531 10.5699C16.9364 9.56454 18.5471 8.65403 20.2853 7.83836C20.7706 7.61019 21.2612 7.41792 21.7572 7.26156C22.1727 7.1316 22.5919 7.02662 23.015 6.94664C23.9066 6.77937 24.7724 6.73334 25.6125 6.80856C26.4396 6.88179 27.1974 7.06834 27.8859 7.3682Z" fill="url(#paint0_linear_393_122)"/>
<path d="M28.8643 31.1958C29.2589 31.0152 29.6142 30.8077 29.9304 30.5732C28.3784 31.2754 26.1029 30.8186 23.1039 29.2028L5.34528 20.3984C5.0089 20.8988 4.68356 21.4111 4.36926 21.9354C3.01204 24.6125 2.6257 26.7286 3.21023 28.2834C3.30183 28.4953 3.40128 28.7003 3.50856 28.8984C3.51061 28.9019 3.51317 28.9064 3.51624 28.9117C3.98605 29.7704 4.63976 30.5413 5.47736 31.2243C6.58383 32.1232 7.93468 32.9295 9.52991 33.6431C10.7382 34.1842 12.3138 34.7614 14.2566 35.3749C15.3886 35.7366 16.3694 35.9409 17.1991 35.9879C18.1589 36.0412 19.1083 35.9044 20.0471 35.5775L28.8643 31.1958Z" fill="url(#paint1_linear_393_122)"/>
<path d="M29.6472 8.57278C29.1696 8.07315 28.5826 7.67158 27.8861 7.36807C27.1976 7.06822 26.4398 6.88167 25.6127 6.80843C24.7726 6.73322 23.9067 6.77925 23.0152 6.94652C22.5921 7.0265 22.1728 7.13147 21.7573 7.26144C24.1484 14.8829 24.5973 22.1968 23.1038 29.2031C26.1028 30.8189 28.3783 31.2757 29.9303 30.5735C31.0394 29.7452 31.7366 28.5862 32.0218 27.0965C32.4556 24.8567 32.5862 22.1709 32.4137 19.0389C32.2621 16.2707 31.9259 13.806 31.4049 11.6447C31.3012 11.2152 31.1421 10.7964 30.9277 10.3883C30.7604 10.0677 30.5296 9.7039 30.2355 9.2969C30.0554 9.04631 29.8593 8.80494 29.6472 8.57278Z" fill="url(#paint2_linear_393_122)"/>
<path d="M19.4887 12.7113C19.1187 12.8483 18.7881 13.0402 18.497 13.2868C18.1955 13.5437 17.9317 13.8555 17.7056 14.222C17.4796 14.5851 17.2757 15.003 17.0942 15.4758L17.0171 13.0607L16.9143 12.7781L16.6317 12.701H16.0459V24.2007H17.1507V16.7655L17.7159 15.3884C17.918 14.9876 18.1544 14.6553 18.425 14.3916C18.7059 14.1209 19.0159 13.9188 19.3551 13.7852C19.701 13.6482 20.095 13.5797 20.5369 13.5797L21.7136 13.739C21.8163 13.739 21.8866 13.679 21.9243 13.5591L22.0167 12.7884L21.4053 12.5674L20.7065 12.5109C20.2543 12.5109 19.8483 12.5777 19.4887 12.7113ZM31.9492 13.8315C31.5416 13.3999 31.0603 13.071 30.5054 12.8449C29.947 12.6291 29.3441 12.5212 28.6966 12.5212C27.8848 12.5212 27.1551 12.6634 26.5077 12.9477C25.8671 13.2354 25.3259 13.6311 24.884 14.1346C24.4386 14.6382 24.0995 15.236 23.8666 15.9279C23.6268 16.6268 23.5069 17.3907 23.5069 18.2197C23.5069 19.196 23.6336 20.0609 23.8871 20.8145C24.1372 21.575 24.4917 22.219 24.9508 22.7466C25.4166 23.2707 25.9733 23.6681 26.6207 23.9387C27.2682 24.2127 27.9824 24.3498 28.7634 24.3498L30.0635 24.2213L31.2607 23.8873L32.273 23.3632C32.5813 23.1679 32.8262 22.9538 33.0077 22.7209L32.7149 22.3509L32.4785 22.2379L31.4148 22.8596L30.3563 23.2861C29.9281 23.406 29.428 23.466 28.8559 23.466C28.2085 23.466 27.621 23.358 27.0935 23.1422C26.5694 22.9161 26.1223 22.5804 25.7523 22.1351C25.3824 21.6898 25.0963 21.14 24.8942 20.4857C24.699 19.8314 24.6014 19.0761 24.6014 18.2197V17.9936H32.9615L33.1979 17.9011L33.2698 17.5517C33.2698 16.7467 33.1533 16.0324 32.9204 15.409C32.6772 14.7855 32.3535 14.2597 31.9492 13.8315ZM31.2813 14.3916C31.5964 14.7307 31.8413 15.1452 32.016 15.6351C32.1873 16.1249 32.273 16.6781 32.273 17.2948H24.6579C24.7264 16.6918 24.8651 16.1455 25.0741 15.6556C25.2762 15.176 25.5502 14.7632 25.8962 14.4173C26.2422 14.0713 26.6499 13.8041 27.1192 13.6157C27.585 13.4273 28.1143 13.3331 28.7069 13.3331C29.2345 13.3331 29.7158 13.4273 30.1508 13.6157C30.5893 13.7972 30.9661 14.0559 31.2813 14.3916ZM35.9315 14.335L36.137 14.6639L36.2706 14.8232L36.4762 14.8797C36.5961 14.8797 36.7382 14.8009 36.9026 14.6433L37.5706 14.1346L38.5521 13.6259C38.9426 13.4752 39.417 13.3999 39.9754 13.3999C40.8695 13.3999 41.546 13.6859 42.0051 14.258C42.4641 14.83 42.6936 15.647 42.6936 16.709V17.9165C41.3919 17.9439 40.2786 18.0518 39.3537 18.2402C38.4185 18.4218 37.658 18.6667 37.0722 18.975C36.4796 19.2833 36.0428 19.6447 35.7619 20.0592C35.4844 20.4806 35.3457 20.9327 35.3457 21.4157C35.3457 21.9399 35.4331 22.3903 35.6078 22.7671C35.779 23.1371 36.012 23.442 36.3066 23.6818C36.5909 23.9216 36.9181 24.098 37.288 24.211C37.6546 24.3241 38.0348 24.3806 38.4287 24.3806C38.9015 24.3806 39.3331 24.3361 39.7236 24.247C40.1141 24.1545 40.479 24.0226 40.8181 23.8513L41.7995 23.2296L42.7398 22.3972L42.9094 23.8719C42.9608 24.0911 43.103 24.2007 43.3359 24.2007H43.7778V16.709C43.7778 16.0684 43.699 15.4878 43.5414 14.9671C43.3907 14.4498 43.1612 14.0096 42.8529 13.6465C42.5514 13.28 42.1678 12.9991 41.7019 12.8038C41.2429 12.6085 40.705 12.5109 40.0884 12.5109C39.2457 12.5109 38.4921 12.6651 37.8276 12.9734C37.1664 13.2817 36.5344 13.7356 35.9315 14.335ZM36.7793 20.275C37.026 19.9564 37.4062 19.6807 37.92 19.4477C38.4305 19.2148 39.0813 19.0315 39.8726 18.8979C40.6605 18.7678 41.6008 18.6804 42.6936 18.6359V21.6521L41.8817 22.4177L40.9774 23.0395C40.6622 23.2107 40.3162 23.3461 39.9394 23.4454C39.5626 23.5413 39.1533 23.5893 38.7114 23.5893L37.8378 23.4557C37.5604 23.3735 37.3171 23.2416 37.1082 23.06C36.8958 22.8785 36.7262 22.6489 36.5995 22.3715C36.4727 22.0872 36.4094 21.7532 36.4094 21.3695C36.4094 20.9618 36.5327 20.597 36.7793 20.275ZM48.649 7.38281H47.5442V24.2007H48.649V7.38281Z" fill="black"/>
<path d="M58.8696 12.701H57.7751V24.2007H58.8696V12.701ZM53.7517 7.38281H52.647V24.2007H53.7517V7.38281ZM59.2652 8.34369L59.0391 8.00456L58.7103 7.79388L58.3197 7.71167L57.9344 7.79388L57.6055 8.00456L57.3794 8.34369L57.3024 8.73935L57.3794 9.12472L57.6055 9.43817L57.9344 9.66425L58.3197 9.74133L58.7103 9.66425L59.0391 9.43817L59.2652 9.12472L59.3423 8.73935L59.2652 8.34369ZM70.9499 12.7781L70.8009 12.9837L66.9882 22.058L66.6953 23.06L66.4127 22.058L62.6206 12.9837L62.4716 12.7884L62.2146 12.701H61.3463L66.1969 24.2007H67.168L72.0238 12.701H71.1863L70.9499 12.7781ZM82.1156 13.8315C81.708 13.3999 81.2267 13.071 80.6717 12.8449C80.1133 12.6291 79.5104 12.5212 78.863 12.5212C78.0511 12.5212 77.3215 12.6634 76.6741 12.9477C76.0335 13.2354 75.4922 13.6311 75.0503 14.1346C74.605 14.6382 74.2659 15.236 74.0329 15.9279C73.7931 16.6268 73.6732 17.3907 73.6732 18.2197C73.6732 19.196 73.8 20.0609 74.0535 20.8145C74.3035 21.575 74.6581 22.219 75.1171 22.7466C75.583 23.2707 76.1397 23.6681 76.7871 23.9387C77.4345 24.2127 78.1488 24.3498 78.9298 24.3498L80.2298 24.2213L81.4271 23.8873L82.4393 23.3632C82.7476 23.1679 82.9926 22.9538 83.1741 22.7209L82.8812 22.3509L82.6449 22.2379L81.5812 22.8596L80.5227 23.2861C80.0945 23.406 79.5944 23.466 79.0223 23.466C78.3749 23.466 77.7874 23.358 77.2598 23.1422C76.7357 22.9161 76.2887 22.5804 75.9187 22.1351C75.5487 21.6898 75.2627 21.14 75.0606 20.4857C74.8653 19.8314 74.7677 19.0761 74.7677 18.2197V17.9936H83.1279L83.3642 17.9011L83.4362 17.5517C83.4362 16.7467 83.3197 16.0324 83.0868 15.409C82.8435 14.7855 82.5198 14.2597 82.1156 13.8315ZM81.4476 14.3916C81.7628 14.7307 82.0077 15.1452 82.1824 15.6351C82.3537 16.1249 82.4393 16.6781 82.4393 17.2948H74.8242C74.8927 16.6918 75.0315 16.1455 75.2404 15.6556C75.4426 15.176 75.7166 14.7632 76.0626 14.4173C76.4086 14.0713 76.8162 13.8041 77.2855 13.6157C77.7514 13.4273 78.2807 13.3331 78.8733 13.3331C79.4008 13.3331 79.8821 13.4273 80.3172 13.6157C80.7556 13.7972 81.1325 14.0559 81.4476 14.3916ZM87.6188 14.0113C87.8586 13.8058 88.1515 13.6431 88.4975 13.5232C88.8366 13.4033 89.2169 13.3433 89.6382 13.3433C90.0972 13.3433 90.4877 13.393 90.8098 13.4924L91.6268 13.8161L92.156 14.1449L92.4797 14.2785C92.5928 14.2785 92.6801 14.2271 92.7418 14.1244L92.9781 13.739C92.526 13.3245 92.0293 13.0162 91.488 12.8141C90.9468 12.6188 90.3267 12.5212 89.6279 12.5212C89.0387 12.5212 88.5078 12.6034 88.035 12.7678C87.5691 12.9425 87.1701 13.1721 86.8378 13.4564C86.5158 13.7441 86.264 14.0747 86.0824 14.4481C85.9112 14.8249 85.8255 15.2171 85.8255 15.6248C85.8255 16.1044 85.9146 16.5034 86.0927 16.822C86.2811 17.144 86.5261 17.4146 86.8275 17.6339C87.129 17.86 87.4681 18.0484 87.8449 18.1991L90.1931 18.9647L91.2157 19.4169C91.5171 19.595 91.7586 19.8091 91.9402 20.0592C92.1286 20.3161 92.2228 20.6364 92.2228 21.0201C92.2228 21.3661 92.1594 21.6966 92.0327 22.0118C91.9025 22.3201 91.7141 22.5907 91.4675 22.8237C91.2242 23.0566 90.9194 23.2416 90.5528 23.3786C90.176 23.5122 89.7461 23.579 89.2631 23.579C88.7458 23.579 88.3142 23.5156 87.9682 23.3889L87.0741 22.9932L86.5141 22.5976C86.3702 22.4708 86.2452 22.4074 86.139 22.4074L85.9386 22.4537L85.8101 22.5976L85.5532 22.9829C86.0191 23.4043 86.5415 23.7417 87.1204 23.9952C87.7062 24.2521 88.4067 24.3806 89.222 24.3806C89.8694 24.3806 90.4415 24.2898 90.9382 24.1082C91.4418 23.9233 91.8631 23.6715 92.2023 23.3529C92.5482 23.0378 92.8103 22.6661 92.9884 22.2379C93.1631 21.8097 93.2505 21.3421 93.2505 20.8351C93.2505 20.3795 93.1597 19.989 92.9781 19.6635C92.7897 19.3415 92.5482 19.0675 92.2536 18.8414C91.9556 18.6153 91.6148 18.4269 91.2311 18.2762L88.8829 17.4952L87.8552 17.0584C87.5606 16.8905 87.3191 16.6867 87.1307 16.4469C86.9525 16.2071 86.8635 15.9057 86.8635 15.5426C86.8635 15.2514 86.9268 14.9739 87.0536 14.7101C87.1906 14.4395 87.379 14.2066 87.6188 14.0113Z" fill="#10DCF6"/>
<path d="M42.4249 28.7163C41.8597 28.7163 41.4109 28.9064 41.0787 29.2867C40.7429 29.6635 40.5751 30.1722 40.5751 30.8128C40.5751 31.4088 40.7344 31.885 41.053 32.2413C41.3681 32.5941 41.7963 32.7705 42.3376 32.7705C42.985 32.7705 43.4612 32.5701 43.766 32.1693C44.0743 31.7685 44.2285 31.2633 44.2285 30.6535C44.2285 30.0163 44.0538 29.5333 43.7044 29.2045C43.355 28.879 42.9285 28.7163 42.4249 28.7163ZM41.5308 29.7235C41.7124 29.4254 42.0036 29.2764 42.4044 29.2764C42.8565 29.2764 43.1751 29.4511 43.3601 29.8005C43.4766 30.0232 43.5348 30.3127 43.5348 30.6689C43.5348 31.0594 43.4543 31.4157 43.2933 31.7377C43.1289 32.0597 42.8308 32.2207 42.3992 32.2207C42.0019 32.2207 41.7124 32.0854 41.5308 31.8148C41.3493 31.5442 41.2585 31.2067 41.2585 30.8025C41.2585 30.3812 41.3493 30.0215 41.5308 29.7235ZM39.5423 28.8242L38.4786 31.9278L37.4201 28.8242H36.6699L38.1292 32.75L37.8312 33.4282L37.6822 33.5772C37.6239 33.6149 37.5349 33.6338 37.415 33.6338L37.2763 33.6235L37.0245 33.567V34.1476L37.2095 34.1887L37.4253 34.199C37.8089 34.199 38.0796 34.0928 38.2371 33.8804C38.3947 33.6646 38.6653 33.0703 39.049 32.0974L40.2771 28.8242H39.5423ZM48.1491 28.8242H47.4862V30.6997C47.4862 31.0697 47.4434 31.3626 47.3578 31.5784C47.1933 31.9758 46.8867 32.1745 46.438 32.1745C46.1228 32.1745 45.9087 32.0597 45.7957 31.8302C45.734 31.7069 45.7032 31.5493 45.7032 31.3575V28.8242H45.0249V31.414C45.0249 31.7394 45.078 31.9998 45.1842 32.195C45.3863 32.5581 45.7631 32.7397 46.3147 32.7397C46.6709 32.7397 46.9724 32.6403 47.219 32.4417C47.3458 32.3423 47.4503 32.2207 47.5325 32.0768L47.5273 32.6369H48.1491V28.8242ZM60.4709 28.9321C60.2106 28.8054 59.9417 28.742 59.6642 28.742C59.1092 28.742 58.6622 28.9321 58.3231 29.3124C57.9805 29.696 57.8092 30.1928 57.8092 30.8025C57.8092 31.426 57.9788 31.9107 58.3179 32.2567C58.6571 32.5992 59.0698 32.7705 59.5563 32.7705C59.7584 32.7705 59.9382 32.7517 60.0958 32.714C60.3904 32.6489 60.6371 32.5204 60.8357 32.3286C60.9556 32.2224 61.0653 32.0837 61.1646 31.9124C61.2605 31.7377 61.317 31.5801 61.3342 31.4397H60.6816C60.6371 31.6075 60.5566 31.7583 60.4401 31.8918C60.2345 32.1111 59.9605 32.2207 59.6179 32.2207C59.248 32.2207 58.9756 32.1025 58.8009 31.8662C58.6262 31.6332 58.532 31.3232 58.5183 30.9361H61.3907C61.3907 30.5524 61.3701 30.2715 61.329 30.0934C61.2845 29.8399 61.1971 29.6173 61.067 29.4254C60.9299 29.2233 60.7313 29.0589 60.4709 28.9321ZM59.6231 29.297C60.041 29.297 60.3407 29.4511 60.5223 29.7594C60.6182 29.9273 60.6799 30.1499 60.7073 30.4274H58.5337C58.5474 30.0986 58.6554 29.8296 58.8575 29.6207C59.063 29.4049 59.3182 29.297 59.6231 29.297ZM53.791 29.8982C53.791 30.0078 53.7773 30.09 53.7499 30.1448C53.6985 30.251 53.5958 30.3127 53.4416 30.3298L52.3831 30.4582C52.0131 30.5028 51.7134 30.6227 51.4839 30.8179C51.2578 31.0132 51.1447 31.2855 51.1447 31.6349C51.1447 31.9604 51.2612 32.231 51.4942 32.4468C51.7237 32.6592 52.0217 32.7654 52.3882 32.7654C52.6931 32.7654 52.9723 32.702 53.2258 32.5753C53.4793 32.4519 53.6728 32.3046 53.8064 32.1334C53.8304 32.2841 53.8681 32.4005 53.9195 32.4828C54.0257 32.6403 54.1918 32.7191 54.4179 32.7191L54.6388 32.7089L54.8752 32.6523V32.1796L54.757 32.2002L54.6594 32.2053C54.5669 32.2053 54.507 32.1847 54.4796 32.1436C54.4522 32.1025 54.4385 32.0494 54.4385 31.9843V29.7851C54.4385 29.4254 54.2946 29.1599 54.0068 28.9887C53.7157 28.8174 53.3388 28.7317 52.8764 28.7317C52.479 28.7317 52.1279 28.8242 51.823 29.0092C51.5216 29.1942 51.364 29.5213 51.3503 29.9906H51.9669C51.9943 29.7954 52.0474 29.6464 52.1262 29.5436C52.2735 29.3655 52.5201 29.2764 52.8661 29.2764C53.1607 29.2764 53.3902 29.3261 53.5546 29.4254C53.7122 29.5213 53.791 29.6789 53.791 29.8982ZM53.4622 30.8231C53.5889 30.7922 53.6934 30.7511 53.7756 30.6997V31.2136C53.7756 31.6075 53.5906 31.8901 53.2207 32.0614C53.0014 32.1676 52.7753 32.2207 52.5424 32.2207C52.3506 32.2207 52.1844 32.1676 52.044 32.0614C51.9069 31.9552 51.8384 31.8096 51.8384 31.6247C51.8384 31.3814 51.9412 31.2033 52.1467 31.0903C52.2666 31.0252 52.4465 30.9772 52.6863 30.9464L53.4622 30.8231ZM56.5503 29.0195C56.3482 29.201 56.2215 29.3552 56.1701 29.4819V28.8242H55.5381V32.6369H56.2009V30.4428C56.2009 30.1722 56.2917 29.9341 56.4733 29.7286C56.6514 29.5196 56.9066 29.4151 57.2389 29.4151L57.4598 29.4357V28.7574L57.3057 28.742C57.2885 28.742 57.268 28.742 57.244 28.742C56.9802 28.742 56.749 28.8345 56.5503 29.0195ZM64.448 27.7606V28.8242H63.9136V29.3483H64.448V31.8713C64.448 32.1145 64.5045 32.3132 64.6176 32.4673C64.7272 32.6215 64.9362 32.6986 65.2445 32.6986L65.5168 32.6832L65.7532 32.6369V32.1282L65.5168 32.1436C65.3969 32.1436 65.3113 32.1299 65.2599 32.1025C65.1674 32.058 65.1212 31.9689 65.1212 31.8353V29.3483H65.7532V28.8242H65.1212V27.7606H64.448ZM67.0789 27.3906H66.416V32.6369H67.0789V30.6175C67.0789 30.1071 67.1902 29.7611 67.4129 29.5796C67.6355 29.398 67.8839 29.3072 68.1579 29.3072C68.4902 29.3072 68.7163 29.4117 68.8362 29.6207C68.9116 29.7509 68.9492 29.9564 68.9492 30.2373V32.6369H69.6327V30.191C69.6327 29.8177 69.5761 29.5248 69.4631 29.3124C69.261 28.9253 68.8739 28.7317 68.3018 28.7317C67.9832 28.7317 67.716 28.8003 67.5002 28.9373C67.3769 29.0161 67.2365 29.1514 67.0789 29.3432V27.3906ZM73.0445 28.9321C72.7842 28.8054 72.5153 28.742 72.2378 28.742C71.6829 28.742 71.2358 28.9321 70.8967 29.3124C70.5541 29.696 70.3829 30.1928 70.3829 30.8025C70.3829 31.426 70.5524 31.9107 70.8916 32.2567C71.2307 32.5992 71.6435 32.7705 72.1299 32.7705C72.332 32.7705 72.5119 32.7517 72.6694 32.714C72.964 32.6489 73.2107 32.5204 73.4094 32.3286C73.5293 32.2224 73.6389 32.0837 73.7382 31.9124C73.8341 31.7377 73.8907 31.5801 73.9078 31.4397H73.2552C73.2107 31.6075 73.1302 31.7583 73.0137 31.8918C72.8082 32.1111 72.5341 32.2207 72.1916 32.2207C71.8216 32.2207 71.5493 32.1025 71.3746 31.8662C71.1999 31.6332 71.1057 31.3232 71.092 30.9361H73.9643C73.9643 30.5524 73.9438 30.2715 73.9026 30.0934C73.8581 29.8399 73.7708 29.6173 73.6406 29.4254C73.5036 29.2233 73.3049 29.0589 73.0445 28.9321ZM72.1967 29.297C72.6146 29.297 72.9144 29.4511 73.0959 29.7594C73.1918 29.9273 73.2535 30.1499 73.2809 30.4274H71.1074C71.1211 30.0986 71.229 29.8296 71.4311 29.6207C71.6366 29.4049 71.8918 29.297 72.1967 29.297ZM83.9174 28.7163C83.3521 28.7163 82.9034 28.9064 82.5711 29.2867C82.2354 29.6635 82.0675 30.1722 82.0675 30.8128C82.0675 31.4088 82.2268 31.885 82.5454 32.2413C82.8606 32.5941 83.2888 32.7705 83.83 32.7705C84.4774 32.7705 84.9536 32.5701 85.2585 32.1693C85.5668 31.7685 85.7209 31.2633 85.7209 30.6535C85.7209 30.0163 85.5462 29.5333 85.1968 29.2045C84.8474 28.879 84.4209 28.7163 83.9174 28.7163ZM83.0233 29.7235C83.2048 29.4254 83.496 29.2764 83.8968 29.2764C84.349 29.2764 84.6676 29.4511 84.8525 29.8005C84.969 30.0232 85.0273 30.3127 85.0273 30.6689C85.0273 31.0594 84.9467 31.4157 84.7857 31.7377C84.6213 32.0597 84.3233 32.2207 83.8917 32.2207C83.4943 32.2207 83.2048 32.0854 83.0233 31.8148C82.8417 31.5442 82.7509 31.2067 82.7509 30.8025C82.7509 30.3812 82.8417 30.0215 83.0233 29.7235ZM79.4727 28.8242H78.7276L77.962 31.8302L77.2015 28.8242H76.477L77.6126 32.6369H78.3011L79.0821 29.6875L79.8837 32.6369H80.5723L81.7181 28.8242H81.0553L80.2486 31.8096L79.4727 28.8242ZM88.47 29.4357V28.7574L88.3158 28.742C88.2987 28.742 88.2781 28.742 88.2542 28.742C87.9904 28.742 87.7592 28.8345 87.5605 29.0195C87.3584 29.201 87.2316 29.3552 87.1802 29.4819V28.8242H86.5482V32.6369H87.2111V30.4428C87.2111 30.1722 87.3018 29.9341 87.4834 29.7286C87.6615 29.5196 87.9167 29.4151 88.249 29.4151L88.47 29.4357ZM89.7237 27.4112H89.0609V32.6369H89.7237V27.4112ZM93.9218 27.3906H93.2846V29.3175C93.1373 29.1394 93.0037 29.0144 92.8838 28.9424C92.6817 28.8191 92.43 28.7574 92.1285 28.7574C91.5873 28.7574 91.1693 28.9613 90.8747 29.3689C90.5836 29.7765 90.438 30.2578 90.438 30.8128C90.438 31.4054 90.599 31.8799 90.921 32.2361C91.2396 32.5924 91.6181 32.7705 92.0566 32.7705C92.3272 32.7705 92.5687 32.7191 92.7811 32.6164C92.99 32.5102 93.1716 32.3406 93.3257 32.1077V32.6369H93.9218V27.3906ZM91.4502 29.6875C91.6558 29.4408 91.9247 29.3175 92.257 29.3175C92.555 29.3175 92.8051 29.434 93.0072 29.6669C93.2093 29.8964 93.3103 30.251 93.3103 30.7306C93.3103 31.2102 93.2127 31.5767 93.0174 31.8302C92.8222 32.0871 92.5704 32.2156 92.2621 32.2156C91.8682 32.2156 91.5838 32.0768 91.4091 31.7994C91.2276 31.5253 91.1368 31.1845 91.1368 30.7768C91.1368 30.2972 91.2413 29.9341 91.4502 29.6875Z" fill="black"/>
<path d="M16.8201 4.2455C16.8201 4.16671 16.791 4.09991 16.7328 4.0451C16.6814 3.9903 16.6163 3.96289 16.5375 3.96289C16.4587 3.96289 16.3902 3.9903 16.332 4.0451C16.2806 4.09991 16.2549 4.16671 16.2549 4.2455C16.2549 4.32429 16.2806 4.39109 16.332 4.4459C16.3902 4.50071 16.4587 4.52811 16.5375 4.52811C16.6163 4.52811 16.6814 4.50071 16.7328 4.4459C16.791 4.39109 16.8201 4.32429 16.8201 4.2455Z" fill="white"/>
<path d="M16.7716 2.79457C16.5137 3.62992 15.9198 3.98951 14.9899 3.87332L12.9883 3.54632L15.1117 4.00717C15.9423 4.25794 16.3024 4.84888 16.1922 5.78L15.8635 7.79049L16.3154 5.66532C16.5721 4.83589 17.166 4.47631 18.0971 4.58657L20.0987 4.91357L17.9736 4.46161C17.1442 4.20491 16.7875 3.61157 16.9037 2.68159L17.2307 0.679993L16.7716 2.79457Z" fill="white" fill-opacity="0.301961"/>
<path d="M5.78348 25.9096C5.78348 25.8308 5.75436 25.764 5.69613 25.7092C5.64474 25.6544 5.57966 25.627 5.50087 25.627C5.42208 25.627 5.35357 25.6544 5.29533 25.7092C5.24395 25.764 5.21826 25.8308 5.21826 25.9096C5.21826 25.9884 5.24395 26.0552 5.29533 26.11C5.35357 26.1648 5.42208 26.1922 5.50087 26.1922C5.57966 26.1922 5.64474 26.1648 5.69613 26.11C5.75436 26.0552 5.78348 25.9884 5.78348 25.9096Z" fill="white"/>
<path d="M6.80091 25.2135C5.9798 25.5118 5.3351 25.2555 4.86681 24.4444L3.92021 22.6523L4.83366 24.6222C5.13474 25.4352 4.88108 26.0786 4.07267 26.5523L2.27246 27.5029L4.23838 26.5813C5.05409 26.2857 5.69879 26.542 6.17248 27.3504L7.11908 29.1425L6.19752 27.1766C5.90184 26.3609 6.15955 25.7189 6.97063 25.2506L8.76273 24.304L6.80091 25.2135Z" fill="white" fill-opacity="0.301961"/>
</g>
<defs>
<linearGradient id="paint0_linear_393_122" x1="2.88136" y1="24.6524" x2="24.0513" y2="7.27423" gradientUnits="userSpaceOnUse">
<stop stop-color="#0C6D7A"/>
<stop offset="0.00784314" stop-color="#0C6F7C"/>
<stop offset="0.239216" stop-color="#14BCD4"/>
<stop offset="0.482353" stop-color="#06DEFC"/>
<stop offset="0.545098" stop-color="#04E0FF"/>
<stop offset="0.831373" stop-color="#0FBBD4"/>
<stop offset="1" stop-color="#0D7684"/>
</linearGradient>
<linearGradient id="paint1_linear_393_122" x1="0.830098" y1="4.40424" x2="12.4534" y2="40.9453" gradientUnits="userSpaceOnUse">
<stop stop-color="#0C6D7A"/>
<stop offset="0.00784314" stop-color="#0C6F7C"/>
<stop offset="0.239216" stop-color="#14BCD4"/>
<stop offset="0.509804" stop-color="#04E0FF"/>
<stop offset="0.831373" stop-color="#0FBBD4"/>
<stop offset="1" stop-color="#0D7684"/>
</linearGradient>
<linearGradient id="paint2_linear_393_122" x1="23.0011" y1="-5.36851" x2="27.8841" y2="31.3977" gradientUnits="userSpaceOnUse">
<stop stop-color="#0C6D7A"/>
<stop offset="0.00784314" stop-color="#0C6F7C"/>
<stop offset="0.239216" stop-color="#14BCD4"/>
<stop offset="0.509804" stop-color="#04E0FF"/>
<stop offset="0.831373" stop-color="#0FBBD4"/>
<stop offset="1" stop-color="#0D7684"/>
</linearGradient>
<clipPath id="clip0_393_122">
<rect width="94" height="36" fill="white"/>
</clipPath>
</defs>
</svg>
