<svg width="130" height="49" viewBox="0 0 130 49" fill="none" xmlns="http://www.w3.org/2000/svg">
<path d="M38.5657 10.0284C39.5288 10.4415 40.3408 10.9882 41.0013 11.6682C39.8817 10.4591 38.4508 9.42599 36.7089 8.56889L25.1477 3.0725C21.911 1.69078 18.558 1.82651 15.088 3.47974C10.2072 6.08277 6.00284 9.25786 2.47487 13.005C0.0988339 15.528 -0.56634 18.8204 0.479347 22.8822L3.10145 34.7662C3.5787 36.31 4.02465 37.5534 4.43931 38.4971C3.6309 36.3807 4.16522 33.5005 6.04221 29.8566C6.47689 29.1431 6.92685 28.4457 7.39202 27.7646C9.2275 25.0727 11.9739 22.1027 15.6314 18.8547C17.5613 17.1401 19.4746 15.6506 21.3713 14.3863C23.4226 13.0179 25.6503 11.7786 28.0541 10.6684C28.7252 10.3578 29.4037 10.0961 30.0898 9.88328C30.6644 9.70641 31.2441 9.56352 31.8292 9.45465C33.0623 9.22701 34.2597 9.16436 35.4216 9.26673C36.5655 9.3664 37.6134 9.62033 38.5657 10.0284Z" fill="url(#paint0_linear_4058_550)"/>
<path d="M39.9183 42.4602C40.4641 42.2145 40.9554 41.9319 41.3926 41.6128C39.2464 42.5685 36.0994 41.9467 31.9517 39.7475L7.39198 27.7637C6.92674 28.4448 6.47683 29.1422 6.04217 29.8558C4.16515 33.4997 3.63086 36.3799 4.43925 38.4961C4.56592 38.7845 4.70346 39.0637 4.85183 39.3333C4.85466 39.338 4.85821 39.3441 4.86246 39.3514C5.51218 40.5201 6.41626 41.5694 7.57466 42.4991C9.10489 43.7225 10.973 44.82 13.1792 45.7913C14.8503 46.5278 17.0294 47.3134 19.7161 48.1486C21.2816 48.6407 22.6381 48.9188 23.7856 48.9828C25.113 49.0553 26.4261 48.8691 27.7242 48.4241L39.9183 42.4602Z" fill="url(#paint1_linear_4058_550)"/>
<path d="M41.0014 11.6678C40.3409 10.9878 39.5291 10.4413 38.5658 10.0281C37.6137 9.61997 36.5656 9.36604 35.4217 9.26637C34.26 9.16402 33.0624 9.22665 31.8295 9.45436C31.2442 9.56323 30.6645 9.70605 30.0898 9.88298C33.3967 20.2566 34.0174 30.2117 31.952 39.7479C36.0994 41.9473 39.2465 42.569 41.3929 41.6132C42.9267 40.4858 43.891 38.9082 44.2854 36.8808C44.8854 33.8321 45.066 30.1765 44.8273 25.9135C44.6177 22.1455 44.1526 18.7909 43.4322 15.8491C43.2888 15.2645 43.0687 14.6945 42.7723 14.139C42.5408 13.7026 42.2216 13.2074 41.815 12.6535C41.5659 12.3124 41.2947 11.9838 41.0014 11.6678Z" fill="url(#paint2_linear_4058_550)"/>
<path d="M26.9527 17.3015C26.4411 17.488 25.9838 17.7492 25.5812 18.0848C25.1643 18.4345 24.7995 18.8588 24.4867 19.3577C24.1741 19.8519 23.8923 20.4207 23.6413 21.0644L23.5346 17.7771L23.3925 17.3924L23.0016 17.2875H22.1914V32.9399H23.7194V22.8197L24.5009 20.9452C24.7806 20.3999 25.1075 19.9475 25.4817 19.5886C25.8702 19.2201 26.2988 18.9451 26.7679 18.7632C27.2463 18.5766 27.7912 18.4835 28.4024 18.4835L30.0297 18.7003C30.1718 18.7003 30.2691 18.6185 30.3211 18.4555L30.4489 17.4065L29.6034 17.1056L28.637 17.0288C28.0116 17.0288 27.4501 17.1197 26.9527 17.3015ZM44.1853 18.8261C43.6215 18.2387 42.9559 17.7911 42.1886 17.4833C41.4163 17.1896 40.5826 17.0427 39.687 17.0427C38.5644 17.0427 37.5551 17.2363 36.6598 17.6232C35.7739 18.0148 35.0254 18.5535 34.4143 19.2387C33.7984 19.9242 33.3293 20.7378 33.0073 21.6797C32.6756 22.6309 32.5098 23.6708 32.5098 24.7991C32.5098 26.1278 32.685 27.3051 33.0356 28.3309C33.3815 29.366 33.8717 30.2426 34.5067 30.9606C35.1508 31.6741 35.9208 32.2149 36.8161 32.5832C37.7116 32.9562 38.6994 33.1428 39.7795 33.1428L41.5774 32.9678L43.2332 32.5132L44.6332 31.7999C45.0596 31.5341 45.3981 31.2426 45.6491 30.9257L45.2442 30.4221L44.9173 30.2683L43.4463 31.1145L41.9825 31.695C41.3902 31.8581 40.6985 31.9399 39.9074 31.9399C39.012 31.9399 38.1996 31.7929 37.47 31.499C36.7452 31.1913 36.1268 30.7344 35.6152 30.1283C35.1035 29.5222 34.708 28.7738 34.4285 27.8833C34.1584 26.9927 34.0234 25.9648 34.0234 24.7991V24.4913H45.5853L45.9123 24.3653L46.0117 23.8898C46.0117 22.7942 45.8507 21.8218 45.5285 20.9734C45.1922 20.1247 44.7445 19.4091 44.1853 18.8261ZM43.2617 19.5886C43.6975 20.0502 44.0362 20.6143 44.2778 21.2812C44.5146 21.9478 44.6332 22.7007 44.6332 23.5401H34.1016C34.1963 22.7194 34.3882 21.9759 34.6773 21.309C34.9568 20.6563 35.3357 20.0943 35.8142 19.6235C36.2926 19.1525 36.8566 18.7889 37.5055 18.5325C38.1498 18.2761 38.8818 18.1479 39.7013 18.1479C40.4309 18.1479 41.0966 18.2761 41.6982 18.5325C42.3046 18.7795 42.8257 19.1317 43.2617 19.5886ZM49.6927 19.5116L49.977 19.9593L50.1618 20.1761L50.4461 20.2529C50.6119 20.2529 50.8085 20.1457 51.0358 19.9311L51.9596 19.2387L53.3169 18.5464C53.857 18.3412 54.5132 18.2387 55.2855 18.2387C56.5219 18.2387 57.4574 18.628 58.0924 19.4067C58.7273 20.1853 59.0447 21.2973 59.0447 22.7429V24.3864C57.2443 24.4237 55.7047 24.5705 54.4257 24.8269C53.1321 25.0741 52.0806 25.4075 51.2704 25.8272C50.4509 26.2466 49.8467 26.7386 49.4581 27.3028C49.0744 27.8763 48.8826 28.4918 48.8826 29.1492C48.8826 29.8627 49.0034 30.4756 49.245 30.9886C49.4818 31.4922 49.804 31.9071 50.2115 32.2335C50.6048 32.56 51.0573 32.8 51.5688 32.9539C52.0758 33.1077 52.6017 33.1847 53.1463 33.1847C53.8002 33.1847 54.3972 33.1242 54.9372 33.0029C55.4773 32.877 55.9818 32.6975 56.4509 32.4642L57.8081 31.618L59.1085 30.485L59.3431 32.4922C59.4141 32.7906 59.6108 32.9399 59.933 32.9399H60.544V22.7429C60.544 21.8708 60.4351 21.0807 60.217 20.3719C60.0087 19.6678 59.6913 19.0686 59.2649 18.5744C58.8479 18.0756 58.3174 17.6932 57.6731 17.4274C57.0384 17.1616 56.2944 17.0288 55.4416 17.0288C54.2762 17.0288 53.234 17.2386 52.315 17.6583C51.4006 18.0779 50.5266 18.6958 49.6927 19.5116ZM50.8651 27.5966C51.2064 27.1628 51.7323 26.7876 52.4428 26.4705C53.1489 26.1535 54.0489 25.904 55.1432 25.7221C56.2328 25.5451 57.5332 25.4261 59.0447 25.3655V29.4709L57.9217 30.5129L56.6712 31.3593C56.2352 31.5923 55.7568 31.7766 55.2357 31.9118C54.7146 32.0424 54.1484 32.1077 53.5372 32.1077L52.3292 31.9258C51.9456 31.8138 51.6089 31.6345 51.32 31.3873C51.0264 31.1401 50.7918 30.8277 50.6165 30.4502C50.4413 30.0632 50.3538 29.6085 50.3538 29.0863C50.3538 28.5314 50.5242 28.0349 50.8651 27.5966ZM67.2808 10.0488H65.7528V32.9399H67.2808V10.0488Z" fill="white"/>
<path d="M81.4149 17.2875H79.9007V32.9399H81.4149V17.2875ZM74.337 10.0488H72.8086V32.9399H74.337V10.0488ZM81.9619 11.3567L81.6493 10.8951L81.1941 10.6084L80.6538 10.4965L80.121 10.6084L79.6662 10.8951L79.3538 11.3567L79.2474 11.8952L79.3538 12.4198L79.6662 12.8464L80.121 13.1541L80.6538 13.2591L81.1941 13.1541L81.6493 12.8464L81.9619 12.4198L82.0682 11.8952L81.9619 11.3567ZM98.1216 17.3924L97.9155 17.6722L92.6427 30.0234L92.2372 31.3873L91.8465 30.0234L86.602 17.6722L86.3961 17.4065L86.0403 17.2875H84.8399L91.5481 32.9399H92.8913L99.6068 17.2875H98.4482L98.1216 17.3924ZM113.563 18.8261C113 18.2387 112.334 17.7911 111.566 17.4833C110.794 17.1896 109.96 17.0427 109.065 17.0427C107.942 17.0427 106.933 17.2363 106.038 17.6232C105.152 18.0148 104.403 18.5535 103.792 19.2387C103.176 19.9242 102.707 20.7378 102.385 21.6797C102.053 22.6309 101.888 23.6708 101.888 24.7991C101.888 26.1278 102.063 27.3051 102.414 28.3309C102.759 29.366 103.25 30.2426 103.885 30.9606C104.529 31.6741 105.298 32.2149 106.194 32.5832C107.09 32.9562 108.077 33.1428 109.157 33.1428L110.955 32.9678L112.611 32.5132L114.011 31.7999C114.438 31.5341 114.776 31.2426 115.027 30.9257L114.622 30.4221L114.296 30.2683L112.824 31.1145L111.361 31.695C110.768 31.8581 110.077 31.9399 109.285 31.9399C108.39 31.9399 107.577 31.7929 106.848 31.499C106.123 31.1913 105.505 30.7344 104.993 30.1283C104.482 29.5222 104.086 28.7738 103.807 27.8833C103.536 26.9927 103.401 25.9648 103.401 24.7991V24.4913H114.963L115.29 24.3653L115.389 23.8898C115.389 22.7942 115.228 21.8218 114.906 20.9734C114.57 20.1247 114.122 19.4091 113.563 18.8261ZM112.64 19.5886C113.076 20.0502 113.414 20.6143 113.656 21.2812C113.893 21.9478 114.011 22.7007 114.011 23.5401H103.479C103.574 22.7194 103.766 21.9759 104.055 21.309C104.335 20.6563 104.714 20.0943 105.192 19.6235C105.67 19.1525 106.234 18.7889 106.883 18.5325C107.528 18.2761 108.26 18.1479 109.079 18.1479C109.809 18.1479 110.474 18.2761 111.076 18.5325C111.683 18.7795 112.204 19.1317 112.64 19.5886ZM121.174 19.0709C121.506 18.7912 121.911 18.5697 122.389 18.4066C122.859 18.2434 123.384 18.1616 123.967 18.1616C124.602 18.1616 125.142 18.2294 125.587 18.3647L126.717 18.8053L127.449 19.2528L127.897 19.4347C128.053 19.4347 128.174 19.3646 128.259 19.2248L128.586 18.7003C127.961 18.1361 127.274 17.7165 126.525 17.4414C125.777 17.1756 124.919 17.0427 123.952 17.0427C123.138 17.0427 122.403 17.1546 121.75 17.3784C121.105 17.6162 120.554 17.9287 120.094 18.3157C119.648 18.7073 119.3 19.1572 119.05 19.6654C118.812 20.1784 118.694 20.7122 118.694 21.2671C118.694 21.9198 118.817 22.463 119.064 22.8966C119.324 23.3348 119.663 23.7032 120.08 24.0017C120.497 24.3094 120.966 24.5658 121.487 24.771L124.734 25.813L126.148 26.4285C126.565 26.671 126.899 26.9623 127.151 27.3028C127.411 27.6524 127.541 28.0884 127.541 28.6108C127.541 29.0816 127.454 29.5314 127.279 29.9605C127.098 30.3802 126.838 30.7485 126.497 31.0656C126.16 31.3826 125.739 31.6345 125.232 31.8209C124.711 32.0026 124.116 32.0935 123.448 32.0935C122.733 32.0935 122.136 32.0073 121.658 31.835L120.421 31.2963L119.646 30.7579C119.448 30.5852 119.274 30.499 119.128 30.499L118.85 30.5619L118.673 30.7579L118.317 31.2822C118.962 31.8558 119.684 32.315 120.485 32.6602C121.295 33.0097 122.264 33.1847 123.391 33.1847C124.287 33.1847 125.078 33.0611 125.765 32.8139C126.462 32.5622 127.044 32.2196 127.513 31.786C127.991 31.3571 128.354 30.851 128.6 30.2683C128.842 29.6855 128.963 29.049 128.963 28.3589C128.963 27.7387 128.837 27.2073 128.586 26.7641C128.325 26.3258 127.991 25.953 127.584 25.6453C127.172 25.3375 126.701 25.0811 126.17 24.8759L122.923 23.8129L121.501 23.2184C121.094 22.9899 120.76 22.7125 120.499 22.3861C120.253 22.0596 120.129 21.6495 120.129 21.1552C120.129 20.7588 120.217 20.3811 120.393 20.022C120.582 19.6537 120.843 19.3367 121.174 19.0709Z" fill="#10DCF6"/>
<path d="M58.6719 39.0858C57.8903 39.0858 57.2697 39.3445 56.8102 39.8622C56.3459 40.3749 56.1137 41.0673 56.1137 41.9393C56.1137 42.7504 56.334 43.3987 56.7747 43.8836C57.2105 44.3638 57.8026 44.6039 58.5513 44.6039C59.4466 44.6039 60.1053 44.3313 60.5267 43.7856C60.9531 43.2401 61.1664 42.5525 61.1664 41.7225C61.1664 40.8552 60.9248 40.1977 60.4416 39.7502C59.9583 39.3072 59.3685 39.0858 58.6719 39.0858ZM57.4356 40.4567C57.6866 40.0509 58.0892 39.8481 58.6436 39.8481C59.2688 39.8481 59.7096 40.0858 59.9653 40.5615C60.1264 40.8646 60.2069 41.2586 60.2069 41.7435C60.2069 42.2749 60.0957 42.7598 59.873 43.1981C59.6456 43.6364 59.2333 43.8556 58.6365 43.8556C58.087 43.8556 57.6866 43.6715 57.4356 43.3032C57.1844 42.9349 57.0588 42.4754 57.0588 41.9254C57.0588 41.3519 57.1844 40.8622 57.4356 40.4567ZM54.6853 39.2326L53.2143 43.4571L51.7505 39.2326H50.7129L52.7311 44.5761L52.319 45.4991L52.1129 45.702C52.0324 45.7534 51.9092 45.779 51.7435 45.779L51.5515 45.7649L51.2033 45.6881V46.4784L51.4592 46.5343L51.7577 46.5482C52.2882 46.5482 52.6625 46.4038 52.8804 46.1146C53.0983 45.821 53.4725 45.012 54.0032 43.6878L55.7016 39.2326H54.6853ZM66.5883 39.2326H65.6715V41.7853C65.6715 42.289 65.6125 42.6877 65.4941 42.9813C65.2666 43.5223 64.8426 43.7928 64.222 43.7928C63.7861 43.7928 63.49 43.6364 63.3337 43.3242C63.2484 43.1564 63.2058 42.9417 63.2058 42.6807V39.2326H62.2676V42.7577C62.2676 43.2005 62.3412 43.5549 62.4881 43.8207C62.7676 44.3148 63.2887 44.562 64.0514 44.562C64.5442 44.562 64.961 44.4268 65.3021 44.1564C65.4775 44.0212 65.6219 43.8556 65.7357 43.6597L65.7285 44.4221H66.5883V39.2326ZM83.629 39.3794C83.2693 39.2071 82.8976 39.1206 82.5136 39.1206C81.7458 39.1206 81.1279 39.3794 80.6585 39.8971C80.185 40.4192 79.948 41.0955 79.948 41.9254C79.948 42.774 80.183 43.4337 80.6519 43.9046C81.1206 44.3709 81.6919 44.6039 82.3639 44.6039C82.6436 44.6039 82.8928 44.5783 83.1103 44.5271C83.5179 44.4385 83.8594 44.2635 84.1336 44.0024C84.3 43.8579 84.4515 43.6692 84.5888 43.4359C84.7216 43.1981 84.7997 42.9837 84.8233 42.7926H83.9206C83.8594 43.0209 83.7476 43.2263 83.5865 43.4079C83.3023 43.7064 82.9231 43.8556 82.4496 43.8556C81.9377 43.8556 81.5611 43.6948 81.3194 43.3732C81.0781 43.056 80.9476 42.634 80.9286 42.1071H84.9014C84.9014 41.5849 84.8731 41.2025 84.8159 40.9602C84.7545 40.6151 84.6333 40.312 84.4535 40.0509C84.2641 39.7757 83.9894 39.5521 83.629 39.3794ZM82.457 39.8761C83.0349 39.8761 83.4492 40.0858 83.7004 40.5055C83.8331 40.734 83.9179 41.0371 83.9563 41.4148H80.9501C80.9691 40.9671 81.1186 40.6011 81.398 40.3167C81.6823 40.0231 82.0354 39.8761 82.457 39.8761ZM74.3909 40.6944C74.3909 40.8436 74.372 40.9555 74.3343 41.03C74.2629 41.1747 74.1208 41.2586 73.9079 41.2819L72.4442 41.4566C71.9323 41.5173 71.5175 41.6806 71.2001 41.9462C70.8877 42.2122 70.7314 42.5827 70.7314 43.0584C70.7314 43.5014 70.8923 43.8697 71.2143 44.1633C71.5322 44.4524 71.9439 44.5971 72.451 44.5971C72.8727 44.5971 73.2586 44.5106 73.6096 44.3382C73.9599 44.1704 74.228 43.9698 74.4124 43.7368C74.4455 43.942 74.4979 44.1004 74.5687 44.2123C74.7156 44.4268 74.9453 44.534 75.2579 44.534L75.5637 44.5201L75.8902 44.443V43.7997L75.7273 43.8277L75.592 43.8346C75.464 43.8346 75.3811 43.8066 75.3434 43.7507C75.3057 43.6948 75.2868 43.6225 75.2868 43.5339V40.5406C75.2868 40.0509 75.0874 39.6895 74.6893 39.4566C74.2872 39.2233 73.7659 39.1067 73.126 39.1067C72.5762 39.1067 72.0914 39.2326 71.6697 39.4844C71.2527 39.7361 71.0345 40.1815 71.0157 40.8201H71.8683C71.906 40.5545 71.9796 40.3516 72.0886 40.2118C72.292 39.9694 72.6336 39.8481 73.1119 39.8481C73.5193 39.8481 73.8365 39.9157 74.0642 40.0509C74.2819 40.1815 74.3909 40.3959 74.3909 40.6944ZM73.9362 41.9532C74.1114 41.9113 74.2561 41.8552 74.37 41.7853V42.4848C74.37 43.0209 74.114 43.4057 73.6021 43.6388C73.2991 43.7834 72.9865 43.8556 72.6645 43.8556C72.3992 43.8556 72.1695 43.7834 71.9748 43.6388C71.7856 43.4943 71.6905 43.2961 71.6905 43.0444C71.6905 42.7132 71.8327 42.4707 72.1169 42.317C72.2826 42.2284 72.5319 42.1632 72.8633 42.121L73.9362 41.9532ZM78.2074 39.4984C77.9279 39.7455 77.752 39.9553 77.6814 40.1278V39.2326H76.807V44.4221H77.7238V41.4358C77.7238 41.0673 77.8498 40.7433 78.1002 40.4635C78.3468 40.1791 78.6999 40.0368 79.1592 40.0368L79.465 40.0648V39.1416L79.252 39.1206C79.2279 39.1206 79.1996 39.1206 79.1665 39.1206C78.8015 39.1206 78.4821 39.2467 78.2074 39.4984ZM89.1295 37.785V39.2326H88.3905V39.9461H89.1295V43.38C89.1295 43.7111 89.2076 43.9816 89.3639 44.1912C89.5154 44.4011 89.8043 44.5061 90.2307 44.5061L90.608 44.4852L90.9346 44.4221V43.7297L90.608 43.7507C90.4416 43.7507 90.3237 43.7321 90.2522 43.6948C90.1242 43.6343 90.0602 43.5129 90.0602 43.331V39.9461H90.9346V39.2326H90.0602V37.785H89.1295ZM92.768 37.2812H91.8514V44.4221H92.768V41.6735C92.768 40.9787 92.9217 40.5078 93.2301 40.2608C93.5381 40.0137 93.8815 39.89 94.26 39.89C94.7195 39.89 95.0326 40.0323 95.1983 40.3167C95.3027 40.4939 95.3546 40.7736 95.3546 41.156V44.4221H96.2997V41.0929C96.2997 40.5849 96.2215 40.1862 96.0652 39.8971C95.7858 39.3702 95.2501 39.1067 94.4595 39.1067C94.0189 39.1067 93.6491 39.2 93.3507 39.3864C93.1802 39.4938 92.9857 39.6779 92.768 39.939V37.2812ZM101.018 39.3794C100.658 39.2071 100.286 39.1206 99.9025 39.1206C99.1354 39.1206 98.517 39.3794 98.0476 39.8971C97.5739 40.4192 97.3377 41.0955 97.3377 41.9254C97.3377 42.774 97.5719 43.4337 98.0408 43.9046C98.5097 44.3709 99.0808 44.6039 99.7531 44.6039C100.033 44.6039 100.282 44.5783 100.499 44.5271C100.907 44.4385 101.248 44.2635 101.523 44.0024C101.689 43.8579 101.84 43.6692 101.978 43.4359C102.111 43.1981 102.189 42.9837 102.212 42.7926H101.31C101.248 43.0209 101.137 43.2263 100.976 43.4079C100.691 43.7064 100.312 43.8556 99.8386 43.8556C99.3266 43.8556 98.9501 43.6948 98.709 43.3732C98.4672 43.056 98.3372 42.634 98.3177 42.1071H102.29C102.29 41.5849 102.262 41.2025 102.205 40.9602C102.144 40.6151 102.023 40.312 101.842 40.0509C101.653 39.7757 101.378 39.5521 101.018 39.3794ZM99.8459 39.8761C100.424 39.8761 100.838 40.0858 101.089 40.5055C101.222 40.734 101.307 41.0371 101.345 41.4148H98.3392C98.358 40.9671 98.5077 40.6011 98.7872 40.3167C99.0714 40.0231 99.4243 39.8761 99.8459 39.8761ZM116.055 39.0858C115.274 39.0858 114.653 39.3445 114.193 39.8622C113.729 40.3749 113.497 41.0673 113.497 41.9393C113.497 42.7504 113.717 43.3987 114.158 43.8836C114.594 44.3638 115.186 44.6039 115.934 44.6039C116.83 44.6039 117.488 44.3313 117.91 43.7856C118.336 43.2401 118.549 42.5525 118.549 41.7225C118.549 40.8552 118.308 40.1977 117.824 39.7502C117.341 39.3072 116.751 39.0858 116.055 39.0858ZM114.819 40.4567C115.07 40.0509 115.472 39.8481 116.027 39.8481C116.652 39.8481 117.093 40.0858 117.348 40.5615C117.51 40.8646 117.59 41.2586 117.59 41.7435C117.59 42.2749 117.479 42.7598 117.256 43.1981C117.029 43.6364 116.617 43.8556 116.02 43.8556C115.47 43.8556 115.07 43.6715 114.819 43.3032C114.568 42.9349 114.442 42.4754 114.442 41.9254C114.442 41.3519 114.568 40.8622 114.819 40.4567ZM109.909 39.2326H108.878L107.819 43.3242L106.767 39.2326H105.765L107.336 44.4221H108.288L109.368 40.4077L110.477 44.4221H111.429L113.014 39.2326H112.097L110.982 43.2961L109.909 39.2326ZM122.352 40.0648V39.1416L122.138 39.1206C122.114 39.1206 122.086 39.1206 122.053 39.1206C121.688 39.1206 121.368 39.2467 121.093 39.4984C120.814 39.7455 120.639 39.9553 120.568 40.1278V39.2326H119.694V44.4221H120.61V41.4358C120.61 41.0673 120.736 40.7433 120.987 40.4635C121.233 40.1791 121.586 40.0368 122.046 40.0368L122.352 40.0648ZM124.085 37.3093H123.169V44.4221H124.085V37.3093ZM129.891 37.2812H129.01V39.9041C128.806 39.6616 128.621 39.4915 128.455 39.3935C128.176 39.2257 127.828 39.1416 127.411 39.1416C126.662 39.1416 126.084 39.4192 125.677 39.9741C125.274 40.5288 125.073 41.1839 125.073 41.9393C125.073 42.7459 125.296 43.3918 125.741 43.8765C126.181 44.3615 126.705 44.6039 127.312 44.6039C127.686 44.6039 128.02 44.534 128.313 44.3942C128.602 44.2496 128.854 44.0188 129.067 43.7019V44.4221H129.891V37.2812ZM126.473 40.4077C126.757 40.0719 127.129 39.9041 127.589 39.9041C128.001 39.9041 128.347 40.0627 128.626 40.3796C128.906 40.6919 129.046 41.1747 129.046 41.8274C129.046 42.4801 128.911 42.9792 128.641 43.3242C128.371 43.6739 128.022 43.8487 127.596 43.8487C127.051 43.8487 126.658 43.6597 126.416 43.2822C126.165 42.909 126.039 42.4452 126.039 41.8903C126.039 41.2376 126.184 40.7433 126.473 40.4077Z" fill="white"/>
<defs>
<linearGradient id="paint0_linear_4058_550" x1="3.98486" y1="33.5542" x2="32.8855" y2="9.44872" gradientUnits="userSpaceOnUse">
<stop stop-color="#0C6D7A"/>
<stop offset="0.00784314" stop-color="#0C6F7C"/>
<stop offset="0.239216" stop-color="#14BCD4"/>
<stop offset="0.482353" stop-color="#06DEFC"/>
<stop offset="0.545098" stop-color="#04E0FF"/>
<stop offset="0.831373" stop-color="#0FBBD4"/>
<stop offset="1" stop-color="#0D7684"/>
</linearGradient>
<linearGradient id="paint1_linear_4058_550" x1="1.14757" y1="5.99398" x2="16.7631" y2="55.8741" gradientUnits="userSpaceOnUse">
<stop stop-color="#0C6D7A"/>
<stop offset="0.00784314" stop-color="#0C6F7C"/>
<stop offset="0.239216" stop-color="#14BCD4"/>
<stop offset="0.509804" stop-color="#04E0FF"/>
<stop offset="0.831373" stop-color="#0FBBD4"/>
<stop offset="1" stop-color="#0D7684"/>
</linearGradient>
<linearGradient id="paint2_linear_4058_550" x1="31.81" y1="-7.30781" x2="38.3546" y2="42.7624" gradientUnits="userSpaceOnUse">
<stop stop-color="#0C6D7A"/>
<stop offset="0.00784314" stop-color="#0C6F7C"/>
<stop offset="0.239216" stop-color="#14BCD4"/>
<stop offset="0.509804" stop-color="#04E0FF"/>
<stop offset="0.831373" stop-color="#0FBBD4"/>
<stop offset="1" stop-color="#0D7684"/>
</linearGradient>
</defs>
</svg>
