<svg width="166" height="51" viewBox="0 0 166 51" fill="none" xmlns="http://www.w3.org/2000/svg">
<g clip-path="url(#clip0_471_1732)">
<path d="M81.3581 3.13527H85.6431V16.795C85.6431 19.2022 84.9197 21.0497 83.4171 22.2813C80.0226 24.8005 75.4594 24.8005 72.0648 22.2813C70.5623 21.0497 69.8389 19.2022 69.8389 16.795V3.13527H74.1238V16.795C74.1238 18.1945 74.4577 19.1462 75.1255 19.7621C76.6837 20.9937 78.9096 20.9937 80.4678 19.7621C81.1356 19.1462 81.4138 18.1386 81.4138 16.795L81.3581 3.13527ZM95.0477 11.4767C93.9904 11.4207 92.9331 11.9805 92.4322 12.9322V23.8488H88.3142V8.45361H92.154L92.2653 10.1891C93.3226 8.84548 94.9921 8.06173 96.6615 8.11771C97.9414 8.06173 99.2214 8.50959 100.167 9.40531C101.058 10.301 101.503 11.8126 101.503 13.9959V23.7928H97.385V14.0518C97.385 13.0442 97.1624 12.3724 96.7728 12.0365C96.3276 11.6446 95.7155 11.4207 95.0477 11.4767ZM104.285 4.47885C104.285 3.91903 104.508 3.3592 104.898 2.96733C105.844 2.18357 107.29 2.18357 108.236 2.96733C108.626 3.3592 108.904 3.91903 108.849 4.47885C108.849 5.03868 108.626 5.5985 108.236 5.99038C107.29 6.77413 105.844 6.77413 104.898 5.99038C104.508 5.5985 104.285 5.03868 104.285 4.47885ZM108.682 8.45361V23.8488H104.564V8.45361H108.682ZM119.311 23.7928C118.531 24.0727 117.697 24.1847 116.862 24.1847C115.693 24.2407 114.58 23.8488 113.634 23.121C112.855 22.4492 112.466 21.2736 112.466 19.5941V11.4767H110.184V8.45361H112.466V4.6468H116.584V8.45361H119.199V11.4767H116.584V19.2022C116.528 19.6501 116.639 20.1539 116.973 20.4898C117.307 20.7138 117.752 20.8257 118.142 20.8257C118.365 20.8257 118.587 20.8257 118.81 20.7697C119.032 20.7697 119.199 20.7138 119.311 20.7138V23.7928ZM134.113 21.3855C133.501 22.1693 132.778 22.8411 131.887 23.2889C130.719 23.9048 129.439 24.1847 128.159 24.1847C125.766 24.1847 123.874 23.4569 122.538 22.0014C121.203 20.5458 120.479 18.6984 120.535 16.739V16.1792C120.424 14.1078 121.147 12.0365 122.483 10.469C123.818 8.95745 125.71 8.11771 127.713 8.22968C129.939 8.22968 131.609 8.90146 132.722 10.301C133.835 11.7006 134.447 13.548 134.447 15.7873V17.5228H124.708C124.82 18.4185 125.209 19.3142 125.877 19.93C126.545 20.5458 127.491 20.8817 128.437 20.8257C129.884 20.8817 131.275 20.2659 132.11 19.0903L134.113 21.3855ZM127.658 11.4767C126.879 11.4207 126.155 11.7566 125.654 12.3724C125.154 13.0442 124.82 13.8279 124.708 14.6677H130.385V14.3318C130.385 13.604 130.162 12.8762 129.717 12.2604C129.216 11.7006 128.437 11.4207 127.658 11.4767ZM145.855 23.9048L145.632 22.2813C145.187 22.8411 144.631 23.3449 143.963 23.6808C143.295 24.0167 142.516 24.1847 141.737 24.1847C139.956 24.2407 138.287 23.4009 137.341 21.9454C136.228 20.2659 135.671 18.3065 135.783 16.3471V16.0672C135.783 13.716 136.283 11.8126 137.341 10.357C138.342 8.90146 140.012 8.11771 141.793 8.17369C143.239 8.11771 144.575 8.73352 145.465 9.85317V2.01562H149.583V23.9048H145.855ZM139.845 16.3471C139.789 17.4108 140.012 18.5304 140.513 19.4821C140.958 20.3219 141.848 20.8817 142.794 20.7697C143.907 20.8257 144.965 20.2099 145.465 19.2022V13.1001C145.02 12.0925 143.963 11.4207 142.794 11.4767C141.848 11.4207 140.958 11.9245 140.513 12.8202C140.012 13.8279 139.789 14.9476 139.845 16.0672V16.3471ZM86.7561 27.9355V48.705H82.5268L74.2351 34.9893V48.705H69.9502V27.9355H74.2351L82.5268 41.6512V27.9355H86.7561ZM98.7205 48.705C98.4979 48.2571 98.3866 47.8093 98.331 47.3054C97.8858 47.8093 97.385 48.2011 96.7728 48.481C96.0494 48.8169 95.2703 48.9849 94.4356 48.9849C93.1 49.0409 91.7645 48.537 90.7628 47.6973C89.7611 46.8576 89.2603 45.6819 89.2603 44.3943C89.2046 42.9388 89.8724 41.4832 91.041 40.6435C92.2096 39.7478 93.9904 39.2999 96.3276 39.2999H98.164V38.4042C98.2197 37.7884 97.9971 37.1726 97.6076 36.6688C97.1624 36.2209 96.5502 35.997 95.8825 36.0529C94.4356 36.0529 93.7121 36.6688 93.7121 37.9004H89.5941C89.5941 36.5568 90.2619 35.2692 91.3749 34.4295C92.7661 33.4218 94.4356 32.9179 96.105 32.9739C97.6632 32.9179 99.2214 33.3658 100.501 34.3175C101.67 35.2132 102.226 36.5568 102.226 38.4042V44.8982C102.226 45.6259 102.282 46.2977 102.393 47.0255C102.505 47.5293 102.616 47.9772 102.839 48.4251V48.705H98.7205ZM95.326 45.8499C95.9381 45.8499 96.5502 45.6819 97.1067 45.402C97.5519 45.1781 97.8858 44.7862 98.164 44.3943V41.7072H96.4946C95.6599 41.6512 94.7695 41.8751 94.1017 42.379C93.6009 42.8268 93.3226 43.4426 93.3226 44.0584C93.3226 44.5623 93.4896 45.0101 93.8235 45.346C94.2686 45.6819 94.8251 45.8499 95.326 45.8499ZM112.744 48.593C112.354 48.705 112.021 48.8169 111.631 48.8729C111.186 48.9289 110.741 48.9849 110.295 48.9849C109.127 49.0409 108.014 48.649 107.068 47.9212C106.289 47.2494 105.899 46.0738 105.899 44.3943V36.2769H103.618V33.2538H105.899V29.447H110.017V33.2538H112.633V36.2769H110.017V44.0025C109.962 44.4503 110.073 44.9542 110.407 45.2901C110.741 45.514 111.186 45.6259 111.575 45.6259C111.798 45.6259 112.021 45.6259 112.243 45.57C112.466 45.57 112.633 45.514 112.744 45.514V48.593ZM114.469 29.2791C114.469 28.7192 114.692 28.1594 115.081 27.7675C116.027 26.9838 117.474 26.9838 118.42 27.7675C119.255 28.6073 119.255 29.9509 118.42 30.8466C117.474 31.6303 116.027 31.6303 115.081 30.8466C114.636 30.3987 114.413 29.8389 114.469 29.2791ZM118.81 33.2538V48.705H114.692V33.2538H118.81ZM121.147 41.1473V40.8674C121.091 38.8521 121.759 36.8367 123.039 35.2692C124.319 33.7577 126.1 33.0299 128.381 33.0299C130.719 33.0299 132.499 33.7577 133.779 35.2692C135.059 36.8367 135.727 38.8521 135.671 40.8674V41.1473C135.727 43.1627 135.059 45.1781 133.779 46.7456C132.499 48.2571 130.719 48.9849 128.437 48.9849C126.1 48.9849 124.319 48.2571 123.039 46.7456C121.759 45.1781 121.091 43.1627 121.147 41.1473ZM125.265 40.8115V41.0914C125.209 42.211 125.488 43.3307 125.988 44.2824C126.879 45.6259 128.715 46.0178 130.051 45.1221C130.385 44.8982 130.663 44.6183 130.885 44.2824C131.386 43.2747 131.609 42.211 131.609 41.0914V40.8115C131.665 39.6918 131.386 38.6281 130.885 37.6205C130.385 36.7247 129.439 36.1649 128.437 36.2769C127.435 36.2209 126.489 36.7247 125.988 37.6205C125.488 38.6281 125.209 39.7478 125.265 40.8115ZM144.464 36.3329C143.406 36.2769 142.349 36.8367 141.848 37.8444V48.705H137.73V33.2538H141.57L141.737 35.0453C142.794 33.7017 144.408 32.9179 146.133 32.9739C147.469 32.9179 148.749 33.3658 149.695 34.2615C150.585 35.1572 151.03 36.6688 151.03 38.8521V48.705H146.912V38.8521C146.912 37.8444 146.69 37.1726 146.3 36.8367C145.744 36.4448 145.076 36.2769 144.464 36.3329ZM162.049 44.3943C162.049 43.9465 161.826 43.4986 161.437 43.2747C160.658 42.8268 159.767 42.5469 158.932 42.4349C157.541 42.155 156.206 41.6512 155.037 40.8674C154.035 40.1956 153.423 39.02 153.479 37.7884C153.479 36.5008 154.091 35.2692 155.093 34.4295C156.206 33.4778 157.652 32.9739 159.6 32.9739C161.548 32.9739 163.162 33.4218 164.33 34.3735C165.443 35.2132 166.055 36.5568 166.055 37.9564H161.937C161.937 37.3965 161.77 36.8927 161.381 36.5008C160.88 36.1089 160.268 35.885 159.6 35.941C159.044 35.885 158.487 36.0529 157.986 36.3888C157.652 36.6688 157.43 37.1166 157.43 37.5645C157.43 38.0123 157.652 38.4602 158.042 38.6841C158.71 39.076 159.489 39.2999 160.268 39.4119C161.715 39.6918 163.106 40.1956 164.386 40.9234C165.499 41.5952 166.055 42.7149 166.055 44.2264C166.055 45.57 165.388 46.8016 164.33 47.5853C163.162 48.481 161.604 48.9289 159.6 48.9289C157.486 48.9289 155.816 48.3691 154.703 47.2494C153.646 46.3537 153.034 45.0661 152.978 43.7225H156.873C156.873 44.3943 157.207 45.0661 157.764 45.458C158.32 45.7939 158.988 46.0178 159.711 45.9618C161.214 46.0738 162.049 45.514 162.049 44.3943Z" fill="black"/>
<path d="M48.08 46.5216C46.4661 47.3054 44.6854 47.5293 42.9046 47.1374C41.6804 46.8575 40.5674 46.4656 39.4544 45.9618L37.0059 44.9541C34.8912 44.2823 32.6096 44.2263 30.4393 44.7862H30.2167C28.0464 44.1704 25.7648 44.2264 23.6502 44.9541C22.8155 45.234 22.0364 45.6259 21.2016 45.9618C20.0887 46.4656 18.92 46.9135 17.7514 47.1934C16.0263 47.5853 14.1899 47.3614 12.5761 46.5776L12.3535 46.4656C12.2979 46.4656 12.2979 46.4656 12.2979 46.5216C13.3552 47.6413 14.7464 48.425 16.1933 48.8169C17.1949 49.0968 18.2523 49.1528 19.2539 49.0408C20.8121 48.8169 22.3146 48.2571 23.5945 47.3614L25.9318 45.7939C26.8222 45.234 27.8795 45.0101 28.8812 45.234C29.4376 45.29 28.9925 45.5699 28.9368 45.6259C27.5456 46.2977 26.21 47.1374 24.9858 48.0891C24.151 48.7049 22.6485 50.1605 22.6485 50.1605L23.7615 51.1122L24.9858 49.7686C26.4883 48.2011 28.2134 46.8575 30.1054 45.7939C30.2724 45.6819 30.4393 45.6819 30.6063 45.7939C32.4983 46.8575 34.2234 48.2011 35.7259 49.7686L36.9502 51.1122L38.0632 50.1605L35.7259 48.0891C34.5017 47.1374 33.1661 46.2977 31.7749 45.6259C31.6636 45.5699 31.274 45.29 31.8305 45.234C32.8322 45.0101 33.8895 45.234 34.7799 45.7939L37.1172 47.3614C38.3971 48.2571 39.8996 48.8169 41.4578 49.0408C42.4594 49.1528 43.5168 49.0968 44.5184 48.8169C45.9653 48.369 47.3565 47.5853 48.4138 46.5216C48.4138 46.5216 48.3582 46.4656 48.3025 46.4656L48.08 46.5216ZM53.5335 41.6512C52.8101 42.211 52.031 42.6029 51.1963 42.8828C50.0277 43.2187 48.7477 43.4426 47.5235 43.4426C45.9097 43.4986 44.3515 43.6105 42.7377 43.8345C42.6264 43.8345 42.5707 43.8345 42.6264 43.7785C44.0176 43.2187 45.1306 42.099 45.7427 40.7554L47.3009 37.5644C47.3009 37.5085 47.3009 37.5085 47.3009 37.4525C47.1896 37.5085 45.6314 38.852 44.908 39.5238L42.2925 42.099C41.1239 43.1067 39.7326 43.8345 38.2301 44.2263H38.1745L38.1188 44.2823L41.1239 45.0101C42.4038 45.402 43.7394 45.6259 45.0749 45.7379C48.4695 46.0738 51.7528 44.5063 53.6448 41.7071C53.6448 41.6512 53.5892 41.6512 53.5335 41.6512ZM58.4306 34.1495C57.6515 35.1012 56.7055 35.9409 55.6482 36.6127C54.7578 37.2285 53.8118 37.7324 52.8101 38.1802C51.5302 38.6841 50.3615 39.4119 49.3042 40.2516L49.0816 40.4195C49.026 40.4195 49.026 40.4195 49.026 40.3636C49.026 40.3076 50.6954 38.6281 51.1963 35.1012C51.2519 33.8136 51.4745 32.582 51.7528 31.3504C51.7528 31.2944 51.7528 31.2944 51.7528 31.2384C50.5841 32.694 49.6938 34.3175 49.0816 36.0529L48.08 38.908C47.6904 40.1956 46.967 41.3712 46.021 42.3229L45.9097 42.4349V42.4909C46.021 42.4909 46.1322 42.4349 46.2435 42.4349L49.4712 41.7631C51.2519 41.4832 52.9214 40.7554 54.3683 39.6918C55.8708 38.6281 57.0394 37.1726 57.8741 35.5491C58.0967 35.1012 58.2637 34.6534 58.4306 34.2055C58.5419 34.0935 58.4863 34.0935 58.4306 34.1495ZM60.5453 25.7521C60.0444 27.2637 59.154 28.6632 57.9854 29.7829C56.6498 31.0705 55.4256 32.526 54.3126 33.9816C54.3126 34.0375 54.2013 33.9816 54.257 33.9256C54.7021 32.4141 54.8134 30.7906 54.5908 29.1671C54.3683 27.8235 53.8118 26.368 53.6448 24.7445L53.5892 24.6885C53.5892 24.7445 53.5335 24.8004 53.5335 24.8564C53.1996 25.9201 52.977 26.9838 52.8657 28.1034C52.8101 29.447 53.0327 31.1824 52.9214 32.526C52.8101 34.0935 52.6988 35.717 51.9754 37.1166C51.9754 37.1726 51.9754 37.1726 51.9754 37.2285L55.3143 35.1572C56.7055 34.2615 57.8741 33.1418 58.8201 31.7982C60.0444 30.0628 60.6566 28.0474 60.6566 25.9201C60.6566 25.8641 60.6566 25.7521 60.6566 25.6962C60.6009 25.6962 60.5453 25.7521 60.5453 25.7521Z" fill="#009EDB"/>
<path d="M56.9841 26.6472C57.0398 26.6472 57.0398 26.6472 56.9841 26.6472C56.9841 26.1994 56.9841 25.7515 56.9285 25.3036C56.8172 23.7361 55.8712 22.4485 55.0364 21.105C54.4799 20.2652 53.9791 19.3695 53.5339 18.4178C53.5339 18.4178 53.4783 18.3618 53.4226 18.3618C53.4226 18.4738 53.4226 18.9776 53.4783 19.2575C53.7565 21.4968 54.313 23.7361 55.1477 25.8635C55.6486 27.207 55.8155 28.6066 55.7042 30.0062C55.7042 30.1181 55.7042 30.1181 55.7599 30.1741C56.2607 29.4463 57.2624 28.4387 57.8745 27.6549C58.4867 26.8711 61.8256 23.0643 60.2118 17.802C60.1561 17.5781 60.0448 17.3541 59.9335 17.1302L59.8779 17.1862C59.8779 20.993 58.0415 22.6165 57.318 25.1917C57.1511 25.8075 57.0398 26.2553 56.9841 26.6472ZM57.0398 18.8097L56.7059 17.914L56.4833 17.4101C55.9268 16.4024 55.1477 15.5067 54.2017 14.8349C53.4226 14.1631 52.7548 13.4354 52.1984 12.5956C52.1984 12.5956 52.1427 12.5956 52.0871 12.5956H52.0314C52.0871 12.7636 52.5879 14.443 52.9218 15.2268C53.4783 16.2905 54.1461 17.3541 54.9251 18.2498L55.0921 18.4738C56.0381 19.7614 56.7615 21.1609 57.2624 22.6725C57.2624 22.7284 57.318 22.7284 57.318 22.7284L58.2641 19.8174C58.5979 18.8097 58.8762 17.746 59.0988 16.6823C59.4327 14.1631 58.6536 10.9721 57.2067 9.1807C57.2067 9.1807 57.1511 9.23668 57.1511 9.29266L57.2067 9.51659L57.318 9.85249C57.5963 11.1961 57.6519 12.6516 57.3737 13.9952C57.1511 15.0589 57.0954 16.1785 57.0954 17.2981C57.0954 17.4661 57.2067 18.8657 57.2067 18.9216C57.2067 18.9776 57.1511 18.9216 57.0954 18.9216M52.5879 4.75808C53.0331 5.20594 53.4226 5.70979 53.6452 6.32559C54.0348 7.27729 54.1461 8.67686 54.4243 9.74052L54.9251 11.5879C54.9251 11.6439 54.8695 11.6999 54.8138 11.6439C53.9791 10.6362 52.9774 9.7965 51.8088 9.12471C51.0297 8.67685 50.4176 8.06105 49.8611 7.38926L49.5829 6.99738C49.5829 6.99738 49.5272 6.9414 49.4716 6.99738C49.4716 7.05336 49.4716 7.10935 49.4716 7.16533C49.7498 8.39694 50.3063 9.57257 51.1967 10.5243C51.9201 11.1961 52.6992 11.8119 53.4226 12.4277C54.3686 13.2114 55.259 14.1631 56.0938 15.1148C56.0938 15.1148 56.1494 15.1708 56.1494 15.1148V14.2191L56.2051 11.532V10.6362C56.2051 9.74052 56.0381 8.78882 55.7042 7.94908C55.1477 6.54952 54.0904 5.42987 52.8105 4.75808C52.7548 4.7021 52.6435 4.7021 52.5322 4.64612C52.5322 4.64612 52.5322 4.7021 52.5879 4.75808ZM46.8561 2.12691C47.6352 2.85468 48.3029 3.69442 48.9151 4.59014C49.4716 5.48586 50.0837 6.26961 50.8628 6.99738C51.3636 7.50122 52.8661 8.67686 53.2557 9.01275C53.2 8.56489 52.4766 5.37389 50.5289 3.80638C49.4159 2.91066 48.0803 2.23888 46.6891 1.90298C46.6891 1.95896 46.6891 1.95896 46.6891 2.01495L46.8561 2.12691ZM15.6928 45.7372C16.9727 45.6253 18.3083 45.4013 19.5326 45.0095L22.5376 44.2817H22.5933C22.5933 44.2817 22.5933 44.2257 22.5376 44.2257H22.482C20.9794 43.8338 19.5882 43.1061 18.364 42.0984L15.7485 39.5792L13.3556 37.5078V37.6198C13.5782 37.9557 14.4129 39.8031 14.9137 40.8108C15.5259 42.2103 16.6388 43.274 18.0301 43.8338C18.0857 43.8898 18.0301 43.8898 17.9188 43.8898C16.3606 43.6659 14.7468 43.5539 13.133 43.4979C11.9087 43.4979 10.6288 43.274 9.46017 42.9381C8.62543 42.6582 7.84635 42.2663 7.12292 41.7065C7.06727 41.7065 7.06727 41.7065 7.01162 41.7065C8.1246 43.274 9.68276 44.5056 11.4635 45.1774C12.8547 45.6253 14.246 45.7932 15.6928 45.7372ZM14.4129 42.4343C14.5242 42.4343 14.5798 42.4902 14.7468 42.4902V42.4343L14.6355 42.3223C13.6895 41.3706 13.0217 40.195 12.5765 38.9074L11.5748 36.0523C10.9627 34.3168 10.0723 32.6933 8.90368 31.2378C8.90368 31.2938 8.90368 31.2938 8.90368 31.3497C9.23757 32.5814 9.40452 33.813 9.51581 35.1006C10.0167 38.5715 11.6861 40.2509 11.6861 40.3069C11.6861 40.3629 11.6861 40.4189 11.6305 40.3629L11.4079 40.195C10.3505 39.3552 9.18192 38.6275 7.902 38.1236C6.90033 37.6758 5.9543 37.1719 5.06392 36.5561C4.0066 35.8843 3.06057 35.0446 2.28149 34.0929H2.22584C2.39278 34.5407 2.55973 34.9886 2.78232 35.4365C3.61705 37.0599 4.84133 38.5155 6.34384 39.5792C7.79071 40.6988 9.46017 41.4266 11.2409 41.6505C12.2982 41.9304 13.3556 42.2103 14.4129 42.4343ZM5.45346 35.1565L8.79238 37.2279C8.79238 37.2279 8.84803 37.1719 8.84803 37.1159C8.1246 35.6604 8.0133 34.0929 7.902 32.5254C7.79071 31.1258 8.0133 29.4463 7.95765 28.1028C7.84635 26.9831 7.62376 25.8635 7.28987 24.7998C7.28987 24.7438 7.23422 24.6878 7.23422 24.6318L7.17857 24.6878C7.06727 26.3113 6.45514 27.7669 6.23254 29.1104C6.00995 30.678 6.12124 32.3014 6.56643 33.8689C6.62208 33.9249 6.51079 33.9809 6.51079 33.9249C5.39781 32.4134 4.17354 31.0138 2.83797 29.7262C1.66935 28.6066 0.778972 27.263 0.278134 25.7515C0.278134 25.7515 0.222485 25.6955 0.166836 25.6955C0.111188 25.6955 0.166836 25.8075 0.166836 25.9194C0.166836 27.9908 0.778972 30.0621 2.00324 31.7976C2.89362 33.0852 4.06224 34.2608 5.45346 35.1565ZM4.84133 30.2301C4.89697 30.1741 4.89697 30.1741 4.89697 30.0621C4.78568 28.6626 4.95262 27.207 5.50911 25.9194C6.28819 23.7921 6.84468 21.6088 7.17857 19.3135C7.17857 19.0336 7.23422 18.5298 7.23422 18.4178C7.17857 18.4178 7.17857 18.4178 7.17857 18.4738C6.73338 19.4255 6.23254 20.3212 5.67606 21.1609C4.78568 22.3926 3.8953 23.7361 3.784 25.3036C3.72835 25.7515 3.72835 26.1994 3.784 26.6472C3.784 26.6472 3.784 26.7032 3.72835 26.7032C3.72835 26.7032 3.72835 26.7032 3.72835 26.6472L3.33881 25.3036C2.55973 22.7284 0.778972 21.105 0.778972 17.2981L0.723323 17.2422C0.612026 17.4661 0.556377 17.69 0.44508 17.914C-1.16873 23.1763 2.11454 26.9831 2.78232 27.7669C3.45011 28.5506 4.34049 29.5023 4.84133 30.2301ZM2.50408 19.7614L3.45011 22.6725C3.45011 22.6725 3.50576 22.6725 3.50576 22.6165C4.0066 21.105 4.78568 19.7054 5.67606 18.4178L5.843 18.1939C6.62208 17.2422 7.28987 16.2345 7.84635 15.1708C8.18025 14.3871 8.68108 12.7076 8.73673 12.5396H8.68108C8.62544 12.5396 8.62543 12.5396 8.56979 12.5396C8.0133 13.3794 7.34552 14.1072 6.56643 14.7789C5.62041 15.4507 4.78568 16.3464 4.22919 17.4101C4.17354 17.5781 4.06224 17.746 4.00659 17.914L3.6727 18.8657C3.6727 18.8657 3.61705 18.9776 3.61705 18.8657C3.61705 18.7537 3.72835 17.4661 3.72835 17.2422C3.72835 16.1225 3.61705 15.0029 3.39446 13.9392C3.11622 12.5396 3.17186 11.1401 3.45011 9.7965C3.45011 9.68454 3.50576 9.57257 3.56141 9.46061C3.56141 9.40463 3.61705 9.29266 3.61705 9.23668C3.61705 9.1807 3.61705 9.1807 3.56141 9.12471C2.11454 10.9162 1.27981 14.1631 1.6137 16.6264C1.89195 17.69 2.17019 18.7537 2.50408 19.7614ZM4.50743 11.5879L4.56308 14.2751V15.1148H4.61873C5.39781 14.1072 6.28819 13.2114 7.23422 12.3717L9.46017 10.4683C10.3505 9.51659 10.907 8.34096 11.1853 7.10935C11.1853 7.05336 11.1853 6.99738 11.1853 6.9414H11.1296L10.8514 7.33328C10.3505 8.00507 9.68276 8.62087 8.95933 9.06873C7.62376 9.90847 6.73338 10.5243 5.9543 11.5879C5.89865 11.6439 5.843 11.6439 5.89865 11.532L6.39949 9.68454C6.67773 8.62087 6.78903 7.22131 7.17857 6.26961C7.40116 5.70979 7.79071 5.14996 8.2359 4.7021C8.2359 4.64612 8.2359 4.64612 8.2359 4.59014C8.1246 4.59014 8.06895 4.64612 7.95765 4.7021C6.56643 5.42987 5.56476 6.6055 5.00827 7.94908C4.67438 8.78882 4.45179 9.68454 4.50743 10.6362V11.5879ZM7.45681 8.95677L9.90535 6.9414C10.6288 6.21363 11.2966 5.42987 11.8531 4.53416C12.4095 3.63844 13.133 2.7987 13.9121 2.07093L14.079 1.90298C14.079 1.847 14.079 1.847 14.079 1.79102C12.6878 2.12691 11.3522 2.74272 10.2392 3.69442C8.18025 5.31791 7.51246 8.50891 7.45681 8.95677ZM29.8276 26.3113C29.9945 26.0874 29.605 25.9194 29.4937 26.3113C29.3824 26.7032 29.6606 26.5912 29.8276 26.3113ZM34.0569 16.4584C33.8899 16.4024 33.2778 17.1302 33.3891 17.2422C33.6673 17.0742 33.8899 16.7943 34.0569 16.4584ZM34.1682 16.3464C34.2795 16.4024 34.669 16.1785 34.6134 16.1225C34.5577 16.0665 34.0569 15.8426 34.0569 15.9546C34.0569 16.1785 34.1125 16.2905 34.1682 16.3464ZM41.6808 23.2883C41.9033 23.2323 41.8477 22.8964 41.6808 22.8964C41.5138 22.8964 41.2912 23.1763 41.3469 23.1763C41.4025 23.1763 41.5695 23.3443 41.6808 23.2883ZM38.954 15.8426C38.787 15.8426 38.7314 16.0106 38.8983 16.1225C39.0653 16.1785 39.1766 16.1225 39.2879 16.0665C39.3992 16.0106 39.5105 15.8986 39.5105 15.7306C39.5105 15.5627 39.2879 15.3388 39.3992 15.2268C39.5105 15.1148 39.6774 15.2828 39.7887 15.2268C39.9 15.1708 39.9556 15.0589 39.9556 14.9469C39.9556 14.8349 39.9 14.499 39.6774 14.499C39.4548 14.499 39.2322 14.9469 39.2322 14.9469C39.1766 15.0589 39.1766 15.2268 39.2322 15.3388C39.2879 15.5627 39.2322 15.8426 38.954 15.8426Z" fill="#009EDB"/>
<path d="M42.6271 15.8991C42.6271 16.0111 42.9054 16.7389 42.961 16.9068C43.0167 17.0748 43.0723 17.6906 43.1836 17.6346C43.2949 17.5786 43.2949 17.2427 43.2393 17.0748C43.1836 16.6829 43.0723 16.235 42.961 15.8991C42.9054 15.6752 42.5158 14.8355 42.4045 14.8915C42.2932 14.9474 42.5715 15.4513 42.6271 15.6752C42.6828 15.8991 42.5715 15.7872 42.6271 15.8991ZM40.6794 6.38212C40.8464 6.4381 40.8464 6.10221 40.5681 5.87828C40.2899 5.65435 39.8447 5.76632 39.956 5.87828C40.1786 6.04623 40.4012 6.27016 40.6794 6.38212ZM32.3321 3.97488C31.9426 3.75095 32.2765 3.41505 31.9982 3.19112C31.6643 3.07916 31.3304 3.13514 31.1079 3.35907C30.8296 3.69497 31.4417 3.583 31.6087 3.69497C31.7756 3.80693 32.3321 4.19881 32.3878 4.14283C32.4434 4.08684 32.3878 3.97488 32.3321 3.97488ZM34.5581 2.85523C34.0572 2.6313 32.2208 2.6313 32.2765 3.13514C32.3321 3.63898 33.3338 3.13514 33.612 3.13514C33.8903 3.13514 35.0033 3.07916 34.5581 2.85523ZM29.494 24.4644C29.3827 24.4085 29.2158 24.5204 29.1601 24.4085C29.1045 24.2965 28.9932 24.3525 28.9932 24.4085C28.9932 24.4644 28.9376 24.5764 29.0489 24.6884C29.1601 24.8003 29.3827 24.8003 29.494 24.6884C29.5497 24.6324 29.5497 24.5204 29.494 24.4644ZM28.4367 20.7136C28.6037 20.7136 28.6037 20.6017 28.6593 20.6017C28.715 20.6017 28.6593 20.7136 28.8263 20.7136C28.9932 20.7136 29.1601 20.3217 28.6593 20.3217C28.2698 20.3217 28.3254 20.7136 28.4367 20.7136ZM29.1045 21.1615C28.8263 21.1055 28.8819 21.2734 28.6593 21.2734C28.3254 21.3294 28.6037 21.0495 28.4924 20.9376C28.4367 20.8816 28.2698 21.1615 28.2141 21.3294C28.2141 21.4414 28.2141 21.6653 28.3254 21.7213L29.3827 21.8333C29.6053 21.8333 29.3827 21.2175 29.1045 21.1615ZM25.6543 24.8003C25.7656 24.8003 25.8212 24.4644 25.7656 24.2965C25.7099 24.1286 25.376 24.2405 25.376 24.3525C25.376 24.4644 25.5986 24.8003 25.6543 24.8003ZM21.2024 24.8003C21.2024 24.6884 21.2024 24.2405 21.0911 24.1286C20.9798 24.0166 20.9798 24.1845 20.9241 24.1845C20.8685 24.1845 20.8685 23.9606 20.8128 23.9606C20.7572 23.9606 20.8128 24.2965 20.9241 24.5204C21.0354 24.7444 21.2024 25.0803 21.2024 24.8003ZM21.0911 23.7927C21.2024 23.4568 21.258 23.1209 21.258 22.785C21.258 22.5051 21.0911 22.2811 21.0354 22.2811C20.9798 22.2811 21.0354 22.4491 21.0911 22.729C21.0911 23.0089 20.9798 23.2888 20.9241 23.5687C20.9241 23.6247 21.0354 23.9046 21.0911 23.7927Z" fill="#009EDB"/>
<path d="M15.4141 36.3326C23.7057 44.674 37.0614 44.674 45.353 36.3326C53.6447 27.9912 53.6447 14.5554 45.353 6.21404C37.0614 -2.12734 23.7057 -2.12734 15.4141 6.21404C7.1224 14.5554 7.1224 28.0472 15.4141 36.3326ZM10.1274 21.7212H13.3551C13.4107 23.4007 13.6889 25.0241 14.1898 26.5917C14.0228 26.5357 13.8559 26.4797 13.6889 26.3677C13.4663 26.2558 13.2994 26.4237 13.2438 26.4237C13.0212 26.4237 12.7429 26.2558 12.7429 26.4237C12.7429 26.5917 12.9655 26.4797 12.9655 26.5917C12.9655 26.7036 12.409 26.7036 12.3534 26.4797C12.2977 26.2558 12.1864 26.0318 12.1308 26.3117C12.0751 26.5917 11.8525 26.5357 11.7412 26.5917C11.6856 26.6476 11.6299 26.7596 11.6299 26.8716C11.6299 26.9835 11.3517 26.9275 11.3517 27.0955C11.3517 27.2634 11.5186 27.3194 11.5743 27.4874C11.6299 27.6553 11.7969 27.7673 11.6856 27.8233C11.5743 27.8792 11.6299 27.7673 11.5186 27.8233C11.4073 27.8792 12.0195 29.5587 12.1308 29.5027C12.2421 29.4468 11.9638 28.9429 11.9638 28.719C11.9638 28.4951 12.0195 28.4391 12.1864 28.3271C12.3534 28.2151 12.7986 28.9989 12.9655 28.8869C13.1325 28.775 12.9099 28.663 13.0768 28.607C13.2438 28.551 13.7446 29.3348 13.9115 29.1109C14.0228 28.9429 14.1341 29.2228 14.1341 29.2788C14.3011 29.5587 14.5793 29.5587 14.7463 29.8946C14.9132 30.2305 15.3028 30.8463 15.581 30.8463C15.8592 30.8463 15.6923 30.5664 15.8036 30.5664C15.9149 30.5664 16.0262 30.9583 16.1931 31.1822C16.3044 31.3502 16.4714 31.4621 16.694 31.5181C17.0835 32.0219 17.5287 32.5258 17.9739 33.0296L15.6923 35.3249C12.1864 31.742 10.1831 26.8716 10.1274 21.7212ZM28.5471 17.0746L28.3245 17.1866C27.9907 17.3545 27.7124 17.5225 27.4898 17.7464L25.2082 15.4511C26.5438 14.2755 28.2132 13.5477 29.9384 13.4918V16.7387C29.5488 16.7947 29.1593 16.8507 28.7697 17.0187C28.881 16.7947 29.1036 16.5708 29.1036 16.5708C29.1036 16.5708 28.7141 16.7947 28.5471 17.0746ZM26.822 22.393C26.822 22.449 26.822 22.5049 26.822 22.5049C26.822 22.393 26.7664 22.337 26.7107 22.225C26.6551 22.169 26.5994 22.1131 26.5438 22.1131C26.4881 22.1131 26.4325 22.1131 26.3768 22.1131H26.2655L26.1542 22.169H25.3752C25.2639 22.169 25.2082 22.169 25.2082 22.1131C25.1526 21.8891 25.4865 22.0571 25.7091 21.3853C25.7647 21.3293 25.7647 21.2173 25.8204 21.1614L25.876 21.0494L25.9317 20.9934L25.9873 20.9374C26.0986 20.8255 26.2099 20.8255 26.3212 20.8255H26.4325L26.5438 20.9374L26.7107 21.2733C26.7664 21.3293 26.822 21.3293 26.822 21.3853C26.9333 21.4413 26.989 21.4972 27.0446 21.5532L27.1003 21.6092V21.6652C27.1559 21.7212 27.1559 21.7212 27.2116 21.7212H27.2672C27.3229 21.7212 27.3229 21.7212 27.3785 21.7212H27.4342C27.5455 21.6652 27.5455 21.7212 27.6011 21.7212V21.7772C27.6011 21.8331 27.6011 21.8331 27.5455 21.8891C27.5455 21.9451 27.4898 21.9451 27.4898 22.0011C27.4342 22.0571 27.3785 22.1131 27.3229 22.1131C27.2116 22.1131 27.1003 22.0571 27.0446 22.0571C26.989 22.0571 26.9333 22.0571 26.9333 22.1131V22.393M20.812 27.7673C20.645 27.4874 20.5894 27.0955 20.5894 26.7596C20.5894 26.4237 20.4781 26.0878 20.3111 25.8079C20.2555 25.584 20.1998 25.36 20.1998 25.1361C20.1998 24.7442 19.8659 24.8562 19.8659 24.7442C19.8659 24.6323 20.1442 24.7442 20.1442 24.6323C20.1442 24.5203 19.8103 24.0724 19.5321 23.9605C19.2538 23.8485 19.3651 23.6806 19.3651 23.5126C19.3651 23.3447 19.3651 23.1767 19.2538 23.0648C19.1982 22.8408 19.2538 22.4489 19.5321 22.4489C19.6434 22.4489 19.8103 22.5609 19.9772 22.4489C20.1442 22.337 20.0329 22.0011 20.0329 21.7212H21.5911C21.5911 21.9451 21.6467 22.225 21.6467 22.4489C21.5354 22.5049 21.4798 22.6169 21.5354 22.6729C21.5911 22.7289 21.6467 22.7848 21.7024 22.7289C21.9806 24.3524 22.704 25.8639 23.817 27.0955L21.5354 29.3908C21.3685 29.2228 21.2015 28.9989 21.0346 28.775C21.0346 28.719 21.0346 28.663 21.0346 28.607C21.0346 28.2151 20.7563 27.9912 20.645 27.6553M18.6417 23.8485C18.4747 23.1767 18.4191 22.449 18.3634 21.7212H19.699C19.5877 21.8891 19.3095 22.0571 19.2538 22.225C19.1982 22.393 18.8643 22.9528 19.0869 23.1767C19.5877 23.7365 18.9756 23.9605 18.6417 23.8485ZM18.9199 32.1339L18.6417 32.4138C18.5304 32.3019 18.3634 32.1339 18.2521 32.0219C18.4747 31.91 18.6973 31.966 18.9199 32.1339ZM22.3701 17.7464C22.3145 17.7464 22.3145 17.8024 22.2588 17.8024C22.0919 17.9704 21.6467 17.9144 21.7024 18.0823C21.758 18.2503 22.9266 17.6904 22.9266 17.8024C22.9266 17.9144 22.4258 18.0823 22.0919 18.2503C21.758 18.4182 21.6467 18.6981 21.0902 18.6981C20.812 18.6981 20.7007 18.9221 20.5894 19.09C20.4224 19.3139 20.3111 19.5379 20.1998 19.7618C20.1998 20.0977 20.1442 20.4336 19.9772 20.7695H18.3634C18.4747 17.9144 19.5877 15.1712 21.5354 13.0439L23.817 15.3392C23.2605 16.1229 22.7597 16.9067 22.3701 17.7464ZM24.4848 16.067L26.4881 18.0823C26.4325 18.0823 26.3768 18.0823 26.2655 18.0823C26.0429 18.0823 26.0429 17.9144 25.876 17.9144C25.5421 17.9704 25.4865 18.0823 25.4308 18.0263C25.2082 17.8024 24.93 17.6345 24.5961 17.4665C24.2065 17.3545 23.817 17.3545 23.4831 17.5225C23.4275 17.5225 23.4275 17.5785 23.3718 17.5785C23.7614 17.0746 24.1509 16.5708 24.4848 16.067ZM21.7024 20.1537C21.7024 20.3776 21.6467 20.6015 21.6467 20.8255H20.4781C20.4224 20.6575 20.4781 20.4896 20.5894 20.3216C20.7007 20.0977 20.9789 19.9857 21.2572 20.0417C21.3685 20.0417 21.5354 20.0977 21.7024 20.1537ZM22.704 22.7848L22.8153 22.9528C22.9266 23.0648 23.0379 23.1767 23.1492 23.1207C23.2605 23.0648 23.5388 23.1207 23.5944 23.1207C23.7614 23.1767 23.8727 23.2887 23.9839 23.4007C24.0952 23.5686 24.3178 23.4566 24.4848 23.5686C24.6517 23.6806 24.8187 23.7925 24.5961 23.9045C24.3735 24.0165 24.8187 24.2404 24.8743 24.2404C24.93 24.2404 24.9856 24.1284 24.9856 23.9605C24.9856 23.9045 25.0969 23.6806 25.2639 23.7365C25.4308 23.7925 25.9317 24.4083 26.0986 24.1844C26.2655 23.9605 26.1542 23.6806 26.2099 23.5686C26.2099 23.5126 26.2655 23.4566 26.3212 23.4566C26.4881 23.7365 26.5994 23.9605 26.822 24.1844L24.5404 26.4797C23.5944 25.472 22.9266 24.1844 22.704 22.7848ZM24.4848 14.7794L22.2588 12.4841C24.3735 10.5247 27.1003 9.40504 29.9384 9.29308V12.5401C27.935 12.596 26.0429 13.3798 24.4848 14.7794ZM21.5911 11.8123L19.3095 9.51701C22.2032 6.77387 25.9873 5.20636 29.9384 5.0944V8.34138C26.822 8.45334 23.817 9.68496 21.5911 11.8123ZM20.9233 12.4281C18.8086 14.7234 17.5843 17.6904 17.4731 20.8255H14.2454C14.3567 16.8507 15.9149 13.0439 18.6417 10.1328L20.9233 12.4281ZM17.4731 21.7212C17.4731 22.337 17.5287 22.8968 17.64 23.5126C17.5844 23.5126 17.5843 23.3447 17.4174 23.4007C17.2505 23.4566 16.6383 24.5203 16.3601 24.9682C16.1375 25.36 16.4714 26.1998 16.1375 26.4797C15.8036 26.5917 15.4697 26.6476 15.1358 26.6476H15.0802C14.5237 25.0801 14.2454 23.4566 14.1898 21.8331L17.4731 21.7212ZM29.8827 41.6509C24.8187 41.539 19.9772 39.5236 16.3601 35.9967L18.6417 33.7014C21.7024 36.6125 25.7091 38.292 29.8827 38.4039V41.6509ZM29.8827 37.5082C25.9317 37.3963 22.1475 35.8288 19.2538 33.0856L19.6434 32.6937C19.699 32.7497 19.8103 32.8057 19.9216 32.8617C20.1442 32.9736 20.4224 33.0296 20.7007 32.9737C20.9233 32.9177 21.3685 32.5258 21.6467 32.5258C21.9249 32.5258 22.3701 32.6378 22.6484 32.4698C22.9266 32.3019 22.4814 31.742 22.3145 31.4621C22.2588 31.4061 22.2588 31.3502 22.2032 31.2942C24.3735 33.1416 27.1559 34.2053 29.994 34.2612L29.8827 37.5082ZM29.8827 33.3095C27.0446 33.1976 24.3178 32.0779 22.2032 30.1185L24.4848 27.8233C25.5421 28.775 26.822 29.5027 28.2689 29.8386C27.7681 30.0626 27.5455 30.3985 27.6011 30.6784C27.6568 30.9583 27.2672 31.1262 27.2672 31.4621C27.2672 31.798 27.7124 32.0219 27.7681 32.3578C27.8237 32.5258 28.2132 32.8057 28.5471 33.0296C28.9923 33.1416 29.4375 33.1976 29.8271 33.1416L29.8827 33.3095ZM29.7714 28.8309C29.6045 28.719 29.4932 28.9429 29.2706 29.0549C27.7124 28.8309 26.3212 28.1592 25.1526 27.1515L27.4342 24.8562C28.1576 25.416 28.9923 25.8079 29.8827 25.8639C29.8827 25.9758 29.994 26.0878 29.994 26.3117C29.994 26.5357 29.8271 26.6476 29.8827 26.7596C29.9384 26.8716 30.4392 26.7596 30.4948 26.5917C30.5505 26.4237 30.3279 26.3117 30.2722 26.1438C30.2166 26.0318 30.2166 25.9758 30.161 25.8639H30.3279C30.4948 25.8639 30.6618 25.8639 30.8287 25.8079C30.8844 25.8079 30.94 25.7519 30.94 25.6959C30.94 25.64 30.9957 25.584 30.9957 25.528C30.9957 25.472 31.0513 25.472 31.0513 25.416L31.107 25.472C31.1626 25.584 31.2739 25.9199 31.3852 25.8639C31.4965 25.8079 31.5522 25.3041 31.4965 25.1921C31.3852 25.0241 31.3852 24.8562 31.4965 24.6882C31.4965 24.6323 31.5522 24.2964 31.6635 24.3524C31.7748 24.4083 31.6635 24.6882 31.6635 24.8002C31.6635 24.9682 31.7748 25.1921 31.9417 25.0801C32.053 25.0241 32.1643 24.8562 32.2756 24.9122C32.3869 24.9682 31.9974 25.0801 31.9417 25.1921C31.8861 25.3041 32.1087 25.36 32.053 25.416C31.9974 25.472 31.9417 25.416 31.8861 25.472C31.8304 25.528 31.9974 25.8639 31.8861 25.9199C31.7748 25.9758 31.3852 26.0878 31.2739 26.1438C31.1626 26.1998 31.0513 26.0878 31.107 26.0318C31.1626 25.9758 31.107 25.7519 30.9957 25.7519C30.8844 25.7519 30.8844 25.8079 30.8844 25.9199C30.8844 26.0318 30.9957 26.1998 30.9957 26.2558C30.9957 26.3117 30.8287 26.3677 30.7174 26.4237C30.6061 26.5917 30.4392 26.7596 30.2722 26.8716C30.1053 26.9835 29.7714 26.9835 29.7714 27.0955C29.7714 27.2075 29.9384 27.2075 29.994 27.2634C30.1053 27.4314 30.161 27.6553 29.9384 27.7673C29.7158 27.8792 29.4375 27.5993 29.3262 27.6553C29.2149 27.7113 29.1593 27.9912 29.1036 28.3271C29.048 28.663 29.7158 28.775 30.0497 28.607C30.2722 28.4951 30.2166 28.1592 30.4392 28.0472C30.6618 27.9352 30.6061 27.7113 30.8287 27.7673C31.0513 27.8233 30.9957 27.5993 31.2183 27.5993C31.4409 27.5993 31.4409 27.7673 31.7191 27.8233C32.1643 27.9352 32.1643 28.2711 32.22 28.1032C32.2756 27.9352 32.3312 27.8233 31.9974 27.7113C31.6635 27.5993 31.4965 27.2075 31.7748 27.3194C32.1087 27.4874 32.3869 27.4874 32.4425 27.6553C32.4982 27.8233 32.8321 27.7673 32.8877 27.9352C32.9434 28.2151 33.166 27.9352 32.999 27.7673C32.8321 27.5993 32.8877 27.5434 32.999 27.4314C33.1103 27.3194 33.166 27.4874 33.3329 27.2634C33.4999 27.0395 33.2773 27.0955 33.2216 26.9835C33.166 26.8716 33.2216 26.2558 33.4442 26.3677C33.6668 26.4797 33.8894 26.3117 33.7781 26.2558C33.6668 26.1998 33.8338 25.8639 33.8894 25.8639C33.9451 25.8639 33.8894 26.0878 33.9451 26.1438C34.0007 26.1998 34.5572 25.9758 34.6128 26.2558C34.6685 26.5357 34.2233 26.7036 34.112 26.7036C33.8894 26.7036 33.7225 26.9275 33.5555 27.1515C33.3886 27.3754 33.2216 27.4314 33.3329 27.6553C33.4442 27.8792 33.6668 27.8233 33.8894 27.7113C34.112 27.5993 34.279 27.4314 34.3903 27.3754C34.6128 27.2634 34.7798 27.9352 34.6685 28.0472C34.5572 28.1592 34.3346 28.2151 34.2233 28.3271C33.8894 28.4951 33.5555 28.663 33.166 28.663C32.9434 28.719 32.9434 28.775 32.8877 28.9989C32.8321 29.2228 31.8304 29.0549 31.6078 29.0549C31.3852 29.0549 31.7748 28.551 31.4409 28.607C31.107 28.663 30.7731 28.719 30.4392 28.775C30.3835 28.775 30.0497 29.0549 29.7714 28.8309ZM32.7208 34.0373C32.999 34.1493 33.2773 34.3732 33.4442 34.5971C33.6112 34.8771 33.6668 34.989 33.5555 35.2689C33.2773 35.7728 33.3886 36.1087 33.9451 36.2766C34.279 36.3886 34.3903 36.7245 34.6128 36.9484C33.3886 37.2843 32.1087 37.4522 30.8287 37.5082V34.2612C31.4409 34.2053 32.1087 34.1493 32.7208 34.0373ZM30.8287 33.3655V32.9737C31.5522 32.8617 31.3852 33.3095 31.8861 33.1416C32.053 33.0856 32.22 33.1416 32.3312 33.2536C31.8304 33.2536 31.3296 33.3095 30.8287 33.3655ZM30.8287 41.7069V38.4039C32.4982 38.348 34.1677 38.0681 35.7815 37.5082C35.8371 37.5642 35.8928 37.5642 35.9484 37.5642C36.171 37.5642 36.3936 37.4522 36.5605 37.3403C37.117 37.1163 37.6179 36.8364 38.0631 36.5005C39.5099 35.7728 40.9011 34.7651 42.0698 33.6454L44.3514 35.9407C40.7342 39.5236 35.8928 41.539 30.8287 41.7069ZM39.8438 12.4281L40.6229 11.6443C40.8455 11.8683 41.0681 12.0362 41.402 12.0922C41.6802 12.1482 41.7915 12.2601 41.8472 12.5401C41.9028 12.82 42.1811 12.9319 42.4593 12.9879C42.7376 13.0439 42.9045 13.3798 43.1271 13.3798C43.3497 13.3798 44.0731 14.3875 44.3514 14.7234C44.5183 14.8913 44.7409 15.1712 44.9078 14.9473C45.0748 14.7234 45.0748 14.7794 45.1861 14.7234C46.0208 16.6268 46.5217 18.7541 46.5773 20.8255H43.3497C43.3497 20.0977 43.2384 19.3699 43.0714 18.6421C43.1827 18.4182 43.2384 18.1943 43.2384 17.9144C43.2384 17.6904 43.0158 17.5785 42.8489 17.7464C42.7376 17.2986 42.5706 16.9067 42.4037 16.5148C42.348 16.2909 42.2924 16.011 42.2367 15.787C42.2367 15.7311 42.1254 15.6751 42.0141 15.5631C41.9028 15.3392 41.8472 15.1712 41.7359 15.0033C41.9028 14.8913 41.9585 14.6114 41.7359 14.6674C41.402 14.7234 41.6246 14.4994 41.5133 14.3875C41.402 14.2755 41.402 14.3875 41.3463 14.4435C40.9011 13.7717 40.456 13.1559 39.8995 12.5401C39.8995 12.5401 39.8995 12.5401 39.8995 12.4841C39.7882 12.4841 39.7882 12.4281 39.8438 12.4281ZM41.7915 31.4061C41.6802 31.1822 41.6246 30.9023 41.5133 30.6784C41.4576 30.4544 41.0124 30.4544 41.0124 30.5664C41.0124 30.7903 41.0124 31.0143 40.9568 31.2382V31.2942L39.7882 30.1185C41.9028 27.8233 43.1271 24.8562 43.2384 21.7212H46.466C46.3547 25.6959 44.7966 29.5027 42.0698 32.3578L41.9028 32.1899C41.9585 31.966 41.9028 31.6861 41.7915 31.4061ZM39.1204 33.6454C39.2873 33.3655 39.6212 32.8617 39.7882 32.5818C39.9551 32.3019 39.343 31.91 39.0091 31.798C38.6752 31.6861 38.6752 31.5181 38.6752 31.2382C38.8421 31.1262 39.0091 30.9583 39.176 30.7903L41.4576 33.0856C40.6786 33.8134 39.8995 34.4292 39.0091 34.989C38.9534 34.8771 39.343 34.4852 39.4543 34.3172C39.5656 34.1493 39.0091 33.9254 39.1204 33.6454ZM40.5116 20.2656C40.2334 19.8738 40.6229 19.8178 41.0124 19.6498C41.235 19.5379 41.5133 19.7058 41.5133 19.5938C41.5133 19.4819 41.6246 19.258 41.7359 19.202C41.8472 19.146 42.0141 19.034 42.0698 18.9221C42.0698 19.034 42.1254 19.146 42.1254 19.258C42.0141 19.4819 41.9585 19.6498 41.9585 19.8738C41.9585 20.0417 41.9585 20.2656 42.1254 19.8738C42.1254 19.8178 42.1811 19.8178 42.1811 19.7618C42.2924 20.1537 42.2924 20.4896 42.2924 20.8255H39.8995C39.8995 20.8255 39.8995 20.8255 39.8995 20.7695C40.0664 20.4896 40.6786 20.5455 40.5116 20.2656ZM40.9568 15.6751C40.9568 15.6751 40.9568 15.7311 40.9011 15.7311C40.8455 15.787 40.5673 15.3392 40.5673 15.6751C40.5673 16.011 40.6786 16.1229 40.9011 16.1789C41.1237 16.2349 41.0124 16.3469 41.1794 16.4028C41.235 16.4028 41.3463 16.4588 41.402 16.5148C41.6802 17.1306 41.8472 17.7464 42.0141 18.4182C41.9028 18.4742 41.8472 18.5302 41.7915 18.5862C41.6802 18.6981 41.7359 18.9221 41.6246 19.09C41.4576 19.3699 41.402 19.5379 40.9568 19.4259C40.6786 19.3139 40.9011 18.978 40.9568 18.6981C41.0124 18.4182 41.1237 18.4742 41.1237 18.3063C41.1237 18.1383 40.5673 17.5225 40.289 17.7464C40.0108 17.9704 40.0664 18.1943 39.8438 18.4182C39.7325 18.5302 39.6212 18.5302 39.4543 18.4182C39.2873 18.3063 39.2317 18.1943 39.2873 18.0823C39.343 17.9704 38.8978 17.4665 38.7308 17.2426C38.5083 16.9627 38.1744 16.7947 37.8405 16.7947C37.5622 16.2909 37.1727 15.787 36.7831 15.3392L39.0647 13.0439C39.8438 13.8836 40.456 14.7234 40.9568 15.6751ZM37.117 17.2426L37.0057 17.4105C36.9501 17.5225 36.6718 17.2986 36.6162 17.3545C36.5606 17.4105 37.0057 17.9704 36.5605 17.8024C36.1154 17.6345 36.3936 17.6345 36.3936 17.4665C36.3936 17.2986 36.0041 17.1866 36.2267 17.0746C36.4493 16.9627 36.2267 16.7947 36.4493 16.7387C36.6718 16.6828 36.6162 16.4588 36.338 16.4028C36.0597 16.3469 36.1154 17.0187 35.9484 16.9067C35.7815 16.8507 35.6145 16.8507 35.4476 16.8507L36.2267 16.067C36.338 16.1229 36.3936 16.1229 36.5049 16.1229C36.6162 16.5708 36.8944 16.9067 37.117 17.2426ZM36.2267 28.607C36.5605 28.663 36.9501 28.719 37.284 28.8309C37.5066 28.9429 37.6735 29.1668 37.8405 28.8869C38.1744 28.3831 38.397 27.8233 38.5083 27.2075C38.6195 26.3677 38.4526 26.0878 38.3413 26.0878C38.23 26.0878 38.0074 26.3117 37.7848 26.3117C37.6735 26.3117 37.6735 26.5357 37.6735 26.7036C37.6735 26.8716 37.4509 27.0395 37.3953 26.9275C37.3396 26.8156 37.2283 26.8716 37.284 26.9835C37.3396 27.0955 36.8388 27.0395 36.6162 26.9275C36.2823 26.7596 37.0057 26.7596 37.3396 26.4797C37.6179 26.2558 37.8961 25.9758 38.1744 25.6959C38.3413 25.416 38.3413 25.0801 38.6196 24.8562C38.8978 24.6323 39.343 24.6882 39.3986 24.3524C39.4543 24.0165 39.5099 24.0724 39.6769 24.1284C39.8438 24.1844 41.402 24.0724 41.402 23.5686C41.402 23.3447 41.0681 23.0648 40.7342 23.0088C40.5116 23.0088 40.456 22.5609 40.3447 22.337C40.2334 22.1131 40.1221 21.8891 39.9551 21.6652H42.2924C42.1811 24.5203 41.0681 27.2634 39.1204 29.3908L39.0647 29.3348V29.1109C39.1204 28.663 38.7865 27.9352 38.6752 28.0472C38.5639 28.1592 38.6752 28.1592 38.3413 28.663C38.23 28.8309 38.0631 29.1109 37.8405 29.1109C37.6179 29.1109 37.6179 28.9989 37.284 29.0549C37.0057 29.1109 36.6718 29.1109 36.3936 29.0549C35.8928 28.8869 35.3919 28.663 34.8911 28.3271C34.9467 28.2711 35.1137 28.3831 35.1137 28.2151C35.1137 28.0472 36.0041 28.551 36.2267 28.607ZM44.9635 35.3809L42.6819 33.0856C45.5756 30.0066 47.2451 25.9758 47.3564 21.7772H50.6397C50.5284 26.8716 48.525 31.6861 44.9635 35.3809ZM50.6397 20.8255H47.3564C47.3007 18.4182 46.7443 16.067 45.6869 13.8836L45.7426 13.8277C45.9652 13.6037 44.6853 11.9243 44.4627 11.7563C44.2401 11.5884 44.0175 11.3084 43.7392 11.0285C43.294 10.5807 42.8489 10.0768 42.515 9.57299L44.9078 7.16575C48.525 10.8606 50.5284 15.7311 50.6397 20.8255ZM30.8287 0.895713C35.8928 1.00768 40.7342 3.02305 44.407 6.54994L42.1811 8.78924C42.0698 8.73325 41.9585 8.67727 42.0141 8.56531C42.1254 8.39736 41.8472 8.39736 41.7915 7.9495C41.6802 7.50164 41.3463 7.10976 40.9568 6.88583C40.6786 6.71789 40.5116 6.49396 40.2334 6.38199C39.9551 6.27003 39.3986 5.93413 39.1204 6.0461C38.9534 6.10208 38.7309 6.15806 38.5639 6.15806C36.171 4.87047 33.5555 4.19868 30.8844 4.14269L30.8287 0.895713ZM30.8287 5.0944C33.2216 5.15038 35.5032 5.76619 37.6735 6.82985C37.7292 7.16575 37.8961 7.55762 38.1187 7.83753C38.23 8.11745 38.397 8.34138 38.5639 8.62129C38.7309 8.78924 38.6196 9.12513 38.6752 9.40504C38.6752 9.51701 38.7865 9.62897 38.8421 9.74094C38.8421 9.90889 38.8421 10.0209 38.8421 10.1888C38.8421 10.2448 39.0647 10.2448 39.2317 10.1328C39.3986 10.0209 39.5099 9.79692 39.7325 9.8529C39.9551 9.90889 40.2334 10.3567 40.4003 10.6367L39.343 11.7003C39.2317 11.4764 39.1204 11.1965 39.176 11.1965C39.2317 11.1965 39.343 11.2525 39.3986 11.2525C39.6212 11.2525 39.2317 11.0845 39.2317 11.0285C39.0647 10.8606 39.0647 10.6367 38.8421 10.4687C38.6196 10.3008 38.2857 10.4127 38.1744 10.1888C37.9518 9.79692 37.6735 9.46103 37.284 9.18111C37.2283 9.18111 37.7292 9.79692 37.5622 9.90889C37.3953 10.0209 36.7831 9.51701 36.7275 9.62897C36.6718 9.74094 37.3953 10.0208 37.6179 10.2448C37.7292 10.3567 37.9518 10.6926 38.1744 10.9726C36.0597 9.34906 33.4999 8.45334 30.8287 8.34138V5.0944ZM30.8287 9.2371C33.6668 9.34906 36.3936 10.4687 38.5083 12.4281L36.2267 14.7234C34.7241 13.3798 32.8321 12.596 30.8287 12.4841V9.2371ZM30.8287 13.4358C32.6095 13.5477 34.279 14.2195 35.5589 15.3952L35.4476 15.5071L35.3363 15.4511C35.058 15.3392 34.5015 15.899 34.6128 15.955C34.7241 16.011 34.9467 15.7311 35.058 15.787H35.1137L34.1677 16.7947C33.8894 16.9067 33.6112 17.1306 33.6112 17.2986C33.6112 17.2986 33.6112 17.2986 33.6112 17.3545L33.2773 17.6904L33.1103 17.5225C32.8321 17.2986 32.5538 17.1306 32.22 17.0187C32.3869 16.9067 32.4425 16.7387 32.4982 16.5148C32.4982 16.1789 32.3869 16.2909 32.22 16.4588C32.053 16.6268 31.8861 16.6828 31.7748 16.8507C31.4965 16.7387 31.1626 16.6828 30.8844 16.6828V13.4358H30.8287ZM30.4392 17.5785C30.4948 17.6904 30.4392 17.8024 30.3835 17.8584C30.2722 17.9704 29.9384 17.5785 29.8827 17.9144C29.7714 18.2503 30.1053 18.0823 30.1053 18.1383C30.2722 18.3622 30.4948 18.4742 30.7731 18.5302C30.9957 18.5302 31.3296 18.5302 31.3296 18.7541C31.3296 18.8661 31.6078 18.8661 31.6635 18.978C31.6635 19.146 31.8304 19.4259 31.9417 19.3699C32.053 19.3139 32.22 19.4259 32.2756 19.5379C32.3312 19.6498 32.2756 19.7058 32.22 19.8178C32.053 19.9857 32.3869 19.9297 32.4425 20.2656C32.4982 20.6015 32.1643 20.3776 32.1087 20.6015C31.9974 20.7695 31.8861 20.8814 31.7748 21.0494C31.7191 21.1054 31.8304 21.2173 31.8861 21.1614C31.9417 21.1054 32.053 20.9374 32.22 20.9374C32.3869 20.9374 32.5538 21.5532 32.7208 21.6092C32.8877 21.6652 32.8321 21.8891 32.8877 21.9451C32.9434 22.0011 32.6095 21.9451 32.6651 22.0571C32.7208 22.169 33.0547 22.225 33.0547 22.393C32.999 22.5609 32.8877 22.7289 32.6651 22.7289C32.4982 22.7289 32.22 22.337 32.22 22.4489C32.22 22.5609 32.3313 22.8968 32.4982 22.8968C32.6651 22.8968 33.0547 22.7289 32.8877 22.9528C32.7208 23.1767 32.7764 23.5126 32.6651 23.5126C32.5538 23.5126 32.4982 23.5126 32.6095 23.6806C32.6651 23.8485 32.6095 24.0165 32.4982 24.1844C32.3869 24.2964 32.1087 24.1844 32.1087 24.1284C32.1087 24.0724 32.4425 24.0724 32.4425 23.9045C32.4425 23.7365 32.2756 23.6806 31.9417 23.7925C31.7748 23.8485 31.7191 23.7365 31.6078 23.7365C31.4965 23.7365 31.1626 24.1284 31.1626 24.1844C31.1626 24.2404 31.1626 24.3524 31.1626 24.4643C31.1626 24.6882 31.107 24.8562 30.9957 25.0241C30.7731 25.0801 30.6061 25.0801 30.3835 25.0801C29.4932 25.0801 28.6028 24.6882 27.935 24.1284C28.0463 24.0724 28.2132 24.0165 28.3802 24.0165C28.5471 24.0724 28.6028 23.9605 28.7141 23.9045C28.8254 23.8485 29.1036 24.0165 29.2706 23.9045C29.4375 23.7925 29.8271 23.0648 29.7714 22.8968C29.7158 22.7289 30.1609 22.449 30.1053 22.393C30.0497 22.337 29.994 22.449 29.994 22.393C29.994 22.337 30.1053 22.337 29.994 22.1131C29.8827 21.8891 29.7158 22.0011 29.6045 22.0011C29.4375 21.8891 29.1593 21.8331 29.1036 21.8891C29.048 21.9451 28.881 21.7772 28.8254 21.8331C28.7697 21.8331 28.6584 21.8891 28.6584 22.0011C28.6028 22.1131 28.7141 22.225 28.7141 22.337C28.6584 22.5609 28.3245 22.7289 28.3245 22.8968C28.3245 23.0648 28.1576 22.9528 28.1019 23.0088C28.0463 23.0648 28.1019 23.1767 27.9907 23.1767C27.8794 23.1767 27.7124 23.4566 27.6011 23.6806C27.4342 23.4566 27.2672 23.1767 27.1003 22.9528C27.2116 22.8968 27.3229 22.8408 27.3785 22.8968C27.5455 23.0088 28.2132 21.8331 28.1019 21.4973C27.9907 21.1614 27.8237 21.3853 27.6568 21.4413C27.4898 21.4972 27.4898 21.3293 27.5455 21.2733C27.6011 21.2173 28.3245 21.2173 27.935 20.9934C27.7681 20.8814 27.3229 20.8814 27.3785 20.7135C27.4342 20.5455 27.6568 20.7135 27.7124 20.7135C27.9907 20.8255 28.1576 20.2656 28.3245 20.2656C28.6028 20.2656 28.4915 19.7058 28.2132 19.8738C27.935 20.0417 27.8237 19.9857 27.7124 20.1537C27.6011 20.3216 27.3229 20.5455 27.3229 20.3216C27.3229 20.2097 27.935 19.8738 28.0463 19.7058C28.1576 19.5938 28.2689 19.4259 28.3245 19.258C28.3802 19.09 29.1593 18.978 29.3262 18.8661C29.4375 18.7541 29.5488 18.5862 29.5488 18.4182C29.5488 18.2503 29.3262 18.3063 29.2706 18.1943C29.2149 18.0823 29.5488 18.1943 29.5488 18.0263C29.5488 17.8584 29.2706 18.0263 29.1593 17.9144C29.1593 17.8584 29.1593 17.8584 29.2149 17.8024C29.7158 17.6345 30.0497 17.5785 30.4392 17.5785H30.5505H30.4392ZM29.9384 0.895713V4.14269C25.7647 4.25466 21.758 5.93413 18.6973 8.84522L16.4157 6.54994C20.0329 3.02305 24.8743 1.00768 29.9384 0.895713ZM15.6923 7.22173L17.9739 9.51701C15.0802 12.596 13.4107 16.6268 13.2994 20.8255H10.0718C10.2387 15.7311 12.2421 10.8606 15.6923 7.22173Z" fill="#009EDB"/>
</g>
<defs>
<clipPath id="clip0_471_1732">
<rect width="166" height="51" fill="white"/>
</clipPath>
</defs>
</svg>
