<svg width="350" height="350" viewBox="0 0 350 350" fill="none" xmlns="http://www.w3.org/2000/svg">
<path opacity="0.37" d="M67.6085 317.221C58.9303 288.697 52.2499 259.604 47.6158 230.152C45.9176 219.357 44.7357 207.394 50.8523 198.338C51.6874 197.102 52.7038 195.903 54.0849 195.34C58.0553 193.719 61.864 197.996 63.6637 201.888C65.0645 204.919 66.1898 208.07 67.0258 211.303C66.1526 203.698 66.6012 195.999 68.3516 188.547C69.466 183.813 72.0479 178.4 76.887 177.907C80.6961 177.519 84.1467 180.664 85.4256 184.274C86.7045 187.883 86.3251 191.84 85.93 195.649C85.6024 189.399 85.4197 182.616 89.0331 177.506C92.6465 172.396 101.64 170.931 104.763 176.354C106.331 179.076 105.916 182.458 105.453 185.566C105.681 180.682 106.773 175.626 109.876 171.849C112.979 168.071 118.487 165.969 122.959 167.946C129.324 170.76 130.231 179.263 130.198 186.222C132.712 178.984 137.277 170.3 144.92 170.849C149.169 171.154 152.684 174.569 154.376 178.478C156.067 182.387 156.282 186.752 156.473 191.008L158.637 239.316C159.51 258.799 160.326 278.749 154.508 297.363C148.69 315.978 134.808 333.305 115.797 337.653C100.504 341.15 83.4513 335.222 73.625 322.993" fill="#999999"/>
<path d="M68.9234 314.976C62.9615 305.68 58.3166 295.614 54.81 285.151C51.2571 274.551 48.7903 263.578 47.0064 252.55C45.2217 241.518 44.1546 230.371 43.3944 219.225C43.0153 213.67 42.588 208.085 42.5064 202.516C42.4669 199.799 42.5729 197.26 43.2393 194.72C43.8546 192.374 44.8101 190.463 46.4481 189.004C46.5209 188.939 46.9973 188.546 46.7204 188.76C46.9381 188.594 47.1624 188.437 47.3928 188.29C47.8541 187.99 48.3367 187.742 48.8271 187.495C48.8866 187.466 49.2093 187.331 48.8698 187.47C48.9955 187.418 49.1221 187.37 49.2495 187.324C49.6921 187.163 50.1441 187.03 50.603 186.925C50.7325 186.895 50.8628 186.869 50.9939 186.844C51.0478 186.834 51.5795 186.758 51.2921 186.792C51.0786 186.817 51.6792 186.766 51.7846 186.761C52.0425 186.749 52.3008 186.748 52.5588 186.758C52.704 186.764 53.3995 186.847 52.9312 186.772C53.1797 186.811 53.4268 186.861 53.6704 186.924C53.914 186.988 54.1485 187.068 54.3854 187.15C54.0053 187.019 54.5016 187.205 54.6353 187.275C54.831 187.378 55.0116 187.501 55.2034 187.61C55.5362 187.798 55.3098 187.671 55.2261 187.607C55.3535 187.705 55.4746 187.814 55.5922 187.923C57.3608 189.566 57.7542 192.253 58.3292 194.672L60.5832 204.149C60.9591 205.729 61.3346 207.308 61.7095 208.888C61.9804 210.03 63.2803 210.709 64.3832 210.406C65.6355 210.062 66.0646 208.9 65.9011 207.732C65.1094 202.075 64.6632 196.365 64.5235 190.655C64.4549 187.853 64.4115 185.033 64.5914 182.235C64.7409 179.906 65.093 177.455 66.1255 175.31C66.6001 174.324 67.1426 173.486 67.7243 172.828C68.0883 172.416 68.4845 172.046 68.8912 171.678C69.1414 171.452 68.9024 171.642 69.1761 171.448C69.4263 171.269 69.6837 171.101 69.9478 170.943C70.1779 170.807 70.4137 170.68 70.6545 170.564C70.757 170.515 70.8599 170.463 70.9653 170.42C70.9159 170.441 70.7329 170.512 70.9684 170.431C71.2186 170.342 71.4721 170.263 71.7283 170.193C71.8403 170.164 72.5917 170.016 72.2648 170.061C72.7429 169.996 73.2354 169.996 73.7159 170.029C73.8228 170.036 73.9294 170.046 74.0358 170.057C73.6522 170.014 74.0075 170.057 74.0792 170.074C74.3519 170.139 74.6238 170.193 74.8926 170.275C75.0921 170.335 75.2892 170.403 75.4838 170.479C75.1254 170.342 75.7169 170.594 75.8138 170.644C76.2491 170.871 76.6673 171.131 77.0651 171.419C77.3556 171.628 76.8502 171.237 77.1263 171.468C77.2086 171.537 77.2912 171.605 77.3724 171.676C77.5625 171.842 77.7471 172.014 77.9261 172.192C78.0812 172.346 78.2323 172.504 78.3793 172.666C78.4955 172.793 78.8557 173.213 78.8483 173.204C80.0523 174.71 80.8759 176.506 81.3939 178.399C82.145 181.143 82.2062 184.03 82.3319 186.855C82.4747 190.061 82.6623 193.291 83.4708 196.41C83.7396 197.448 84.8144 198.124 85.8557 197.967C86.8416 197.819 87.8381 196.925 87.7404 195.832C87.2868 190.759 86.8434 185.664 87.0348 180.566C87.1251 178.162 87.3579 175.774 87.8384 173.416C88.0912 172.166 88.4101 170.929 88.7939 169.713C88.931 169.28 89.0815 168.851 89.2451 168.427C89.4152 167.988 89.4838 167.833 89.7701 167.265C89.9767 166.853 90.2009 166.451 90.4421 166.058C90.6414 165.735 90.8534 165.42 91.0777 165.114C90.9422 165.297 91.0927 165.093 91.1491 165.026C91.435 164.687 91.7325 164.359 92.0559 164.055C92.2145 163.905 92.3789 163.761 92.5487 163.624C92.3083 163.817 92.806 163.455 92.8928 163.4C93.5816 162.964 94.291 162.675 95.0194 162.602C94.8601 162.618 95.3701 162.592 95.4719 162.591C95.6812 162.59 95.8891 162.601 96.0977 162.617C96.3599 162.638 96.0641 162.611 96.0246 162.604C96.1594 162.627 96.2937 162.654 96.4274 162.685C96.6612 162.739 96.8891 162.81 97.1169 162.884C97.2145 162.917 97.3109 162.952 97.4064 162.99C97.3661 162.974 97.1271 162.861 97.3539 162.974C97.5404 163.066 97.7256 163.159 97.9069 163.262C98.0896 163.366 98.2656 163.48 98.442 163.595C98.5309 163.652 98.617 163.714 98.7031 163.776C98.4581 163.601 98.7556 163.817 98.8473 163.895C99.1802 164.178 99.4962 164.481 99.7937 164.801C99.9454 164.964 100.092 165.13 100.234 165.301C100.305 165.387 100.378 165.473 100.446 165.562C100.305 165.379 100.459 165.587 100.507 165.659C101.682 167.397 102.298 168.705 102.708 170.745C103.222 173.301 103.116 176.011 103.148 178.625C103.185 181.577 103.336 184.563 104.153 187.417C104.479 188.555 105.7 189.264 106.85 188.948C108.114 188.6 108.545 187.429 108.381 186.251C107.672 181.137 106.945 175.432 108.169 170.362C108.469 169.117 108.864 167.892 109.408 166.786C109.637 166.319 109.894 165.867 110.177 165.431C110.31 165.226 110.451 165.027 110.591 164.827C110.623 164.781 110.843 164.503 110.632 164.768C110.72 164.658 110.809 164.55 110.9 164.443C111.241 164.041 111.604 163.656 111.987 163.292C112.165 163.122 112.348 162.956 112.535 162.794C112.642 162.702 112.751 162.613 112.859 162.521C112.953 162.442 113.101 162.331 112.918 162.47C113.756 161.836 114.66 161.292 115.614 160.848C115.739 160.79 115.865 160.731 115.993 160.678C115.903 160.715 115.65 160.802 116.048 160.664C116.275 160.585 116.498 160.5 116.726 160.426C117.209 160.27 117.701 160.143 118.198 160.047C118.33 160.021 118.462 159.999 118.593 159.977C118.504 159.992 118.178 160.013 118.609 159.976C118.839 159.956 119.069 159.935 119.3 159.925C119.791 159.904 120.277 159.927 120.766 159.967C121.195 160.003 120.854 159.983 120.768 159.967C120.895 159.991 121.022 160.012 121.149 160.039C121.371 160.086 121.591 160.141 121.808 160.204C122.135 160.299 122.24 160.344 122.455 160.419C122.53 160.446 122.825 160.591 122.48 160.428C122.599 160.484 122.718 160.54 122.835 160.601C123.072 160.723 123.303 160.856 123.528 161C123.633 161.067 124.068 161.379 123.973 161.305C123.888 161.239 124.269 161.563 124.373 161.659C124.566 161.837 124.751 162.023 124.929 162.216C124.99 162.282 125.465 162.858 125.205 162.517C125.34 162.693 125.464 162.876 125.585 163.062C125.842 163.458 126.071 163.87 126.272 164.297C126.326 164.411 126.378 164.526 126.428 164.641C126.393 164.558 126.293 164.266 126.424 164.654C126.496 164.865 126.576 165.073 126.644 165.285C126.793 165.747 126.918 166.217 127.023 166.691C127.129 167.178 127.218 167.668 127.291 168.161C127.329 168.414 127.287 168.128 127.282 168.09C127.299 168.226 127.316 168.361 127.331 168.496C127.361 168.769 127.388 169.043 127.411 169.317C127.501 170.372 127.545 171.43 127.575 172.488C127.72 177.524 127.608 182.71 129.86 187.35C130.271 188.196 131.425 188.577 132.291 188.339C133.119 188.112 133.993 187.184 133.871 186.263C133.148 180.797 132.326 175.048 133.622 169.607C134.173 167.293 134.911 165.561 136.338 163.569C136.54 163.287 136.794 162.965 137.164 162.551C137.549 162.118 137.958 161.705 138.387 161.315C139.118 160.653 139.786 160.167 140.813 159.611C141.044 159.486 141.279 159.371 141.514 159.257C141.512 159.258 141.848 159.11 141.663 159.188C141.454 159.276 141.879 159.107 141.92 159.091C142.442 158.897 142.978 158.742 143.523 158.627C143.741 158.58 143.961 158.541 144.182 158.51C143.838 158.555 144.216 158.513 144.269 158.511C144.419 158.505 144.569 158.489 144.719 158.483C145.247 158.463 145.776 158.481 146.302 158.538C145.959 158.502 146.596 158.592 146.7 158.613C146.948 158.663 147.195 158.721 147.439 158.788C147.819 158.893 148.194 159.019 148.561 159.163C148.896 159.294 148.307 159.042 148.633 159.196C149.087 159.407 149.529 159.644 149.957 159.906C150.294 160.114 150.623 160.336 150.94 160.574C150.757 160.436 150.937 160.571 151.016 160.636C151.839 161.33 152.599 162.082 153.286 162.911C153.358 162.998 153.43 163.085 153.501 163.174C153.325 162.955 153.559 163.248 153.577 163.273C154.078 163.948 154.54 164.651 154.961 165.379C156.096 167.337 156.733 168.929 157.332 171.14C158.849 176.737 159.019 182.575 159.052 188.34C159.087 194.389 159.057 200.438 159.02 206.487C158.983 212.568 158.852 218.651 158.887 224.732C158.921 230.866 158.969 236.999 159.017 243.133C159.064 249.215 159.189 255.292 159.087 261.373C158.984 267.451 158.781 273.53 158.717 279.608C158.7 281.138 158.725 282.677 158.663 284.206C158.623 285.175 160.13 285.173 160.169 284.206C160.299 281.035 160.59 277.865 160.749 274.693C160.908 271.522 161.059 268.351 161.204 265.179C161.348 262.015 161.366 258.822 161.613 255.664C161.861 252.494 162.072 249.324 162.242 246.148C162.583 239.751 162.896 233.356 163.113 226.953C163.327 220.609 163.358 214.263 163.39 207.915C163.422 201.594 163.438 195.271 163.402 188.95C163.368 182.799 163.163 176.573 161.649 170.58C160.472 165.923 158.21 161.242 154.588 157.992C150.916 154.698 145.867 153.161 141.074 154.766C136.379 156.338 132.634 160.234 130.687 164.725C128.309 170.213 128.396 176.324 129.048 182.16C129.222 183.722 129.434 185.279 129.643 186.836L133.578 185.177C133.546 185.11 133.222 184.39 133.373 184.754C133.268 184.501 133.173 184.243 133.084 183.983C132.905 183.461 132.752 182.93 132.624 182.393C132.495 181.848 132.387 181.299 132.3 180.747C132.278 180.607 132.257 180.468 132.237 180.328C132.25 180.423 132.279 180.705 132.231 180.266C132.2 179.983 132.167 179.699 132.141 179.415C131.923 177.078 131.937 174.726 131.872 172.381C131.745 167.776 131.292 162.911 128.116 159.304C124.859 155.604 119.603 154.771 115.087 156.402C110.107 158.202 106.414 162.046 104.616 166.993C102.24 173.528 103.227 180.71 104.155 187.418L108.383 186.253C106.883 181.001 107.939 175.389 107.026 170.014C106.309 165.788 103.685 161.253 99.7626 159.267C97.6598 158.202 95.2385 157.871 92.9596 158.564C90.616 159.276 88.7876 160.872 87.3519 162.807C84.35 166.852 83.3766 172.293 82.8908 177.188C82.2748 183.396 82.8324 189.645 83.3948 195.834L87.6648 195.256C86.1658 189.508 87.1353 183.44 85.7251 177.671C84.6324 173.2 81.8037 168.526 77.4676 166.583C75.1292 165.536 72.4689 165.289 70.0147 166.114C67.4149 166.986 65.3089 168.723 63.6786 170.897C60.1849 175.554 60.0834 181.793 60.1069 187.364C60.1373 194.572 60.704 201.756 61.712 208.891L65.9036 207.736C65.1136 204.424 64.3275 201.112 63.54 197.8C62.8243 194.79 62.3297 191.588 61.1576 188.713C60.0736 186.054 58.275 183.969 55.5432 182.962C53.3767 182.164 50.8578 182.278 48.6734 182.944C46.3529 183.652 44.135 184.98 42.5138 186.797C40.6108 188.93 39.439 191.675 38.8412 194.45C37.6141 200.146 38.347 206.154 38.7138 211.908C39.4649 223.69 40.5149 235.453 42.2814 247.13C44.0261 258.662 46.4635 270.093 50.1133 281.181C53.718 292.132 58.4444 302.754 64.5886 312.524C65.3547 313.741 66.1417 314.944 66.9494 316.134C67.7684 317.342 69.7277 316.23 68.9255 314.979L68.9234 314.976Z" fill="#6D6D6D"/>
<path d="M60.8527 212.825L65.2778 210.973C66.0658 210.64 66.8469 210.292 67.6207 209.927C68.3777 209.573 69.1061 209.247 69.791 208.766C70.3451 208.376 70.617 207.735 70.3423 207.084C70.092 206.49 69.3973 206.099 68.7529 206.303C67.1748 206.805 65.6754 207.694 64.2446 208.522L60.0603 210.945C59.6207 211.199 59.4366 211.768 59.6396 212.229C59.8244 212.649 60.3739 213.025 60.8531 212.824L60.8527 212.825ZM81.788 200.966C82.1404 200.955 82.4785 200.928 82.8191 200.829L83.5275 200.624C84.0357 200.476 84.5372 200.325 85.0349 200.144C85.5326 199.964 86.0293 199.785 86.5256 199.603C86.9407 199.451 87.4597 199.276 87.7821 198.953C88.2105 198.525 88.3813 197.837 88.1443 197.275C87.9091 196.719 87.3082 196.355 86.7055 196.355C86.254 196.355 85.7853 196.585 85.3849 196.762C84.9023 196.976 84.4207 197.193 83.9387 197.408C83.4568 197.624 82.9902 197.86 82.5226 198.106L81.8254 198.474C81.5174 198.636 81.2651 198.853 81.0092 199.086C80.3071 199.726 80.8535 200.993 81.788 200.966ZM102.006 190.267L102.073 190.348L102.206 190.839L102.18 190.994L101.709 191.606C101.803 191.55 102.338 191.264 101.999 191.413C102.056 191.38 102.116 191.352 102.178 191.328C102.014 191.384 102 191.394 102.135 191.357C102.486 191.336 102.849 191.242 103.197 191.19C103.381 191.164 103.4 191.161 103.253 191.181C103.438 191.158 103.622 191.133 103.806 191.108C103.958 191.084 104.108 191.055 104.258 191.026C104.81 190.921 105.363 190.827 105.918 190.746C106.019 190.731 106.121 190.717 106.222 190.703C106.036 190.727 106.04 190.727 106.236 190.701C106.587 190.658 106.939 190.622 107.29 190.582C108.138 190.485 109.036 190.47 109.846 190.203C110.508 189.985 111.081 189.363 111.047 188.625C111.018 187.971 110.567 187.144 109.846 187.046C109.501 186.999 109.151 186.919 108.803 186.948C108.473 186.975 108.142 187.033 107.814 187.078C107.336 187.14 106.861 187.218 106.388 187.311C105.419 187.508 104.458 187.742 103.506 188.012C103.038 188.144 102.59 188.321 102.14 188.505C101.64 188.709 101.041 188.873 100.652 189.27C100.253 189.677 99.9782 190.305 100.135 190.878C100.284 191.422 100.791 191.845 101.361 191.825C102.146 191.798 102.571 190.845 102.006 190.267H102.006ZM125.216 189.731C125.704 189.642 126.193 189.561 126.684 189.49C126.761 189.479 126.839 189.468 126.917 189.457C126.833 189.469 126.839 189.468 126.935 189.455C127.578 189.373 128.222 189.308 128.869 189.261C130.168 189.165 131.462 189.167 132.763 189.175C133.595 189.181 134.392 188.44 134.353 187.585C134.315 186.736 133.654 185.98 132.763 185.995C129.998 186.042 127.191 186.505 124.515 187.189C123.847 187.36 123.378 188.142 123.595 188.81C123.831 189.539 124.488 189.864 125.216 189.731L125.216 189.731ZM84.5824 277.498C91.4287 273.085 98.7161 269.399 106.326 266.497C108.498 265.67 110.674 264.857 112.878 264.121C114.053 263.729 113.571 261.896 112.362 262.249C104.371 264.586 96.7207 267.98 89.5268 272.163C87.5205 273.331 85.5499 274.559 83.6178 275.846C83.1883 276.132 83.0032 276.69 83.2748 277.154C83.5271 277.585 84.147 277.778 84.5827 277.497L84.5824 277.498ZM86.835 294.157C91.6886 290.37 97.0916 287.345 102.858 285.188C104.526 284.564 106.214 283.997 107.92 283.486C109.096 283.134 108.605 281.324 107.411 281.642C101.226 283.292 95.3109 286.085 89.985 289.624C88.4576 290.639 86.9802 291.725 85.5445 292.866C85.1585 293.173 85.2239 293.836 85.5445 294.157C85.9281 294.54 86.4454 294.461 86.835 294.157ZM101.636 303.144L103.39 301.815C103.523 301.743 103.63 301.645 103.711 301.52C103.811 301.41 103.882 301.276 103.915 301.131L103.956 300.827C103.962 300.669 103.929 300.522 103.858 300.386C103.765 300.166 103.606 299.953 103.389 299.839C103.118 299.696 102.809 299.638 102.508 299.723L100.442 300.311C100.044 300.424 99.7353 300.682 99.5151 301.024C99.376 301.261 99.3029 301.531 99.3034 301.806C99.2952 302.019 99.3397 302.218 99.4367 302.403C99.4993 302.595 99.6061 302.761 99.7573 302.902C99.8976 303.053 100.064 303.16 100.256 303.222C100.44 303.319 100.646 303.365 100.853 303.356C101.128 303.356 101.398 303.283 101.635 303.144L101.636 303.144Z" fill="#6D6D6D"/>
<path opacity="0.37" d="M279.778 317.221C288.457 288.697 295.137 259.604 299.771 230.152C301.469 219.357 302.651 207.394 296.535 198.338C295.7 197.102 294.683 195.903 293.302 195.34C289.332 193.719 285.523 197.996 283.723 201.888C282.322 204.919 281.197 208.07 280.361 211.303C281.234 203.698 280.786 195.999 279.035 188.547C277.921 183.813 275.339 178.4 270.5 177.907C266.691 177.519 263.24 180.664 261.961 184.274C260.683 187.882 261.062 191.84 261.457 195.649C261.785 189.399 261.967 182.616 258.354 177.506C254.74 172.396 245.747 170.931 242.623 176.354C241.056 179.076 241.471 182.458 241.934 185.566C241.706 180.682 240.614 175.626 237.511 171.849C234.408 168.071 228.9 165.969 224.428 167.946C218.063 170.76 217.156 179.263 217.189 186.222C214.675 178.984 210.11 170.3 202.467 170.849C198.218 171.154 194.703 174.569 193.011 178.478C191.319 182.387 191.105 186.752 190.914 191.008L188.75 239.316C187.877 258.799 187.061 278.749 192.879 297.363C198.697 315.978 212.579 333.305 231.59 337.653C246.883 341.15 263.936 335.222 273.762 322.993" fill="#999999"/>
<path d="M280.44 316.13C286.928 306.563 291.989 296.103 295.883 285.231C299.813 274.257 302.503 262.908 304.424 251.421C306.372 239.772 307.556 228.017 308.385 216.24C308.59 213.309 308.777 210.376 308.947 207.443C309.112 204.607 309.294 201.761 309.127 198.921C308.798 193.324 307.008 187.542 302.014 184.426C297.971 181.904 292.189 181.431 288.58 184.984C286.397 187.134 285.661 190.18 284.976 193.057L282.649 202.84C282.262 204.471 281.874 206.101 281.485 207.731L285.677 208.887C286.575 202.53 287.128 196.134 287.254 189.713C287.367 183.949 287.589 177.56 284.675 172.367C282.126 167.824 277.024 164.603 271.729 165.922C266.927 167.119 263.694 171.602 262.142 176.051C259.989 182.225 261.36 188.978 259.724 195.253L263.994 195.83C264.495 190.319 264.987 184.775 264.659 179.238C264.358 174.139 263.529 168.615 260.915 164.134C258.555 160.088 254.113 157.069 249.296 158.574C244.903 159.947 241.921 164.219 240.707 168.483C239.056 174.278 240.653 180.482 239.006 186.248L243.234 187.414C244.072 181.353 244.903 175.097 243.404 169.064C242.135 163.956 238.966 159.496 234.157 157.18C229.661 155.014 224.395 154.911 220.413 158.2C216.712 161.257 215.816 166.131 215.582 170.672C215.448 173.262 215.503 175.858 215.326 178.445C215.282 179.087 215.221 179.728 215.145 180.367C215.101 180.728 215.19 180.071 215.136 180.428C215.11 180.603 215.084 180.777 215.054 180.951C215.002 181.261 214.944 181.571 214.878 181.879C214.75 182.489 214.591 183.092 214.402 183.685C214.305 183.979 214.201 184.27 214.091 184.559C214.07 184.617 213.929 184.936 214.072 184.614C213.988 184.802 213.901 184.988 213.81 185.173L217.744 186.831C218.551 180.833 219.354 174.72 218.019 168.732C216.906 163.741 213.994 159.135 209.657 156.345C205.397 153.606 200.009 153.401 195.605 155.925C191.365 158.354 188.564 162.688 186.824 167.141C184.707 172.558 184.231 178.615 184.057 184.377C183.869 190.629 183.961 196.897 183.979 203.151C183.997 209.546 183.942 215.955 184.124 222.348C184.305 228.698 184.573 235.041 184.897 241.384C185.222 247.732 185.696 254.069 185.972 260.417C186.247 266.758 186.471 273.111 186.894 279.445C187 281.028 187.153 282.616 187.218 284.201C187.257 285.167 188.764 285.172 188.724 284.201C188.599 281.142 188.646 278.067 188.575 275.006C188.434 268.927 188.318 262.849 188.228 256.77C188.182 253.706 188.322 250.635 188.34 247.571C188.411 235.405 188.5 223.249 188.4 211.084C188.35 204.949 188.326 198.814 188.327 192.679C188.328 186.939 188.208 181.114 189.138 175.429C189.553 172.888 190.145 170.357 191.122 167.969C191.034 168.185 191.279 167.613 191.316 167.532C191.428 167.286 191.543 167.042 191.663 166.8C191.902 166.317 192.156 165.841 192.426 165.374C192.933 164.501 193.651 163.448 194.101 162.906C195.539 161.173 196.772 160.111 198.754 159.191C198.982 159.085 198.77 159.18 198.726 159.197C198.859 159.143 198.992 159.092 199.127 159.044C199.602 158.874 200.087 158.735 200.58 158.629C200.694 158.605 201.44 158.495 201.086 158.533C201.611 158.476 202.14 158.457 202.668 158.478C202.781 158.482 202.893 158.489 203.006 158.497C203.055 158.501 203.516 158.543 203.273 158.515C203.058 158.491 203.42 158.538 203.426 158.539C203.609 158.572 203.791 158.607 203.973 158.646C204.59 158.783 205.194 158.97 205.78 159.206C205.687 159.168 205.479 159.06 205.873 159.252C206.143 159.383 206.411 159.514 206.674 159.659C207.103 159.896 207.52 160.156 207.922 160.437C208.395 160.767 208.506 160.861 209.001 161.31C210.683 162.837 211.777 164.372 212.755 166.491C212.82 166.631 212.885 166.773 212.945 166.916C212.925 166.867 212.856 166.702 212.945 166.933C213.043 167.185 213.136 167.437 213.222 167.693C213.447 168.367 213.64 169.051 213.799 169.743C214.096 171.027 214.271 172.315 214.353 173.628C214.528 176.423 214.342 179.228 214.042 182.007C213.889 183.427 213.704 184.843 213.517 186.258C213.236 188.379 216.634 189.186 217.528 187.344C219.518 183.245 219.675 178.686 219.772 174.212C219.795 173.137 219.817 172.062 219.868 170.988C219.893 170.463 219.925 169.939 219.968 169.416C219.988 169.175 220.01 168.935 220.035 168.695C220.05 168.552 220.139 167.86 220.082 168.255C220.222 167.281 220.418 166.311 220.714 165.371C220.791 165.128 220.882 164.89 220.964 164.648C221.081 164.299 220.856 164.841 221.076 164.377C221.275 163.95 221.5 163.535 221.751 163.135C221.887 162.923 222.029 162.713 222.182 162.512C221.947 162.821 222.315 162.37 222.394 162.282C222.727 161.914 223.087 161.571 223.472 161.257C223.201 161.479 223.784 161.044 223.861 160.995C224.058 160.869 224.259 160.751 224.465 160.642C224.57 160.586 225.124 160.33 224.751 160.486C224.991 160.386 225.238 160.302 225.486 160.226C225.735 160.151 225.986 160.087 226.239 160.034C226.334 160.014 226.43 160 226.525 159.98C226.859 159.906 226.185 160.011 226.526 159.974C227.012 159.92 227.501 159.901 227.99 159.917C228.254 159.925 228.516 159.949 228.779 159.971C228.808 159.974 229.132 160.021 228.886 159.983C228.615 159.942 229.031 160.012 229.091 160.024C229.588 160.124 230.08 160.239 230.565 160.39C230.826 160.472 231.081 160.57 231.34 160.659C231.353 160.664 231.67 160.788 231.464 160.704C231.236 160.611 231.632 160.778 231.68 160.8C232.155 161.019 232.619 161.262 233.069 161.528C233.522 161.797 233.962 162.089 234.386 162.403C234.585 162.55 234.4 162.412 234.365 162.384C234.475 162.472 234.584 162.561 234.692 162.652C234.908 162.834 235.119 163.022 235.325 163.215C235.709 163.577 236.075 163.959 236.419 164.359C236.482 164.432 236.89 164.941 236.672 164.655C236.84 164.877 237 165.106 237.154 165.339C237.771 166.274 238.246 167.265 238.604 168.278C240.623 173.986 239.819 180.393 239.006 186.247C238.843 187.418 239.291 188.601 240.537 188.944C241.693 189.261 242.907 188.555 243.234 187.413C244.659 182.435 243.946 177.264 244.467 172.183C244.565 171.227 244.753 170.259 245.042 169.323C245.149 168.977 245.373 168.354 245.442 168.19C245.527 167.989 245.837 167.359 246.032 167.006C246.326 166.474 246.654 165.961 247.013 165.471C246.984 165.51 246.857 165.666 247.012 165.47C247.174 165.266 247.344 165.069 247.519 164.877C247.814 164.553 248.127 164.247 248.458 163.96C248.566 163.867 248.676 163.772 248.789 163.685C248.752 163.714 248.566 163.848 248.771 163.71C248.976 163.573 249.178 163.434 249.39 163.309C249.57 163.204 249.757 163.113 249.94 163.013C250.285 162.826 249.801 163.031 250.173 162.913C250.369 162.851 250.562 162.782 250.761 162.73C250.907 162.691 251.59 162.578 251.186 162.622C251.606 162.577 252.024 162.584 252.445 162.61C252.092 162.588 252.608 162.638 252.725 162.664C252.976 162.719 253.223 162.788 253.466 162.871C253.569 162.906 253.672 162.941 253.773 162.982C253.674 162.942 253.471 162.822 253.839 163.023C254.028 163.126 254.219 163.224 254.403 163.337C254.587 163.45 254.767 163.571 254.94 163.699C254.692 163.515 255.174 163.907 255.25 163.977C255.576 164.277 255.881 164.598 256.166 164.937C256.238 165.022 256.311 165.108 256.379 165.196C256.197 164.96 256.422 165.263 256.442 165.293C256.591 165.513 256.742 165.731 256.884 165.957C258.009 167.753 258.524 169.272 259.083 171.409C259.705 173.784 260.074 176.202 260.248 178.648C260.658 184.377 260.156 190.122 259.646 195.828C259.552 196.891 260.546 197.846 261.531 197.963C262.579 198.088 263.64 197.473 263.916 196.406C265.311 191.026 264.65 185.447 265.63 180.022C265.823 178.954 266.1 177.908 266.478 176.892C266.507 176.813 266.765 176.181 266.641 176.466C266.732 176.258 266.828 176.051 266.928 175.846C267.176 175.336 267.45 174.839 267.748 174.356C268.362 173.365 268.649 172.993 269.461 172.188C270.199 171.456 270.494 171.212 271.481 170.688C271.57 170.641 272.105 170.39 271.973 170.444C271.86 170.491 272.356 170.313 272.495 170.271C272.829 170.17 273.17 170.09 273.516 170.033C273.28 170.072 273.395 170.041 273.564 170.033C274.794 169.976 275.157 170.033 276.312 170.388C276.306 170.386 276.657 170.514 276.474 170.441C276.265 170.359 276.694 170.542 276.732 170.561C276.938 170.661 277.141 170.768 277.34 170.882C277.673 171.074 277.995 171.284 278.304 171.513C278.453 171.625 278.26 171.461 278.496 171.674C278.873 172.016 279.243 172.359 279.584 172.737C279.767 172.941 279.95 173.148 280.116 173.366C280.083 173.323 279.984 173.192 280.126 173.393C280.239 173.553 280.351 173.714 280.458 173.878C283.209 178.111 282.951 183.589 282.901 188.456C282.836 194.899 282.379 201.347 281.486 207.729C281.323 208.89 281.769 210.063 283.004 210.403C284.107 210.706 285.405 210.032 285.677 208.885C286.427 205.726 287.18 202.567 287.931 199.407C288.626 196.482 289.142 193.426 290.145 190.587C290.486 189.621 290.999 188.656 291.795 187.92C291.89 187.832 291.987 187.747 292.087 187.665C292.342 187.452 291.825 187.831 292.105 187.66C292.294 187.546 292.474 187.421 292.669 187.316C292.769 187.261 293.431 186.999 293.001 187.147C293.238 187.065 293.474 186.984 293.716 186.921C293.959 186.858 294.207 186.809 294.456 186.769C294.019 186.839 294.581 186.767 294.732 186.759C294.99 186.747 295.247 186.745 295.505 186.754C295.665 186.76 296.437 186.837 296.001 186.776C296.463 186.843 296.919 186.942 297.367 187.072C297.757 187.183 298.141 187.315 298.517 187.467C298.305 187.381 298.42 187.423 298.559 187.493C299.019 187.724 299.472 187.955 299.907 188.232C300.138 188.379 300.363 188.534 300.583 188.697C300.783 188.845 300.581 188.697 300.549 188.67C300.708 188.799 300.863 188.933 301.014 189.07C301.367 189.39 301.685 189.738 302.001 190.093C302.278 190.404 302.094 190.206 302.037 190.129C302.117 190.237 302.195 190.346 302.27 190.458C302.453 190.73 302.626 191.009 302.787 191.295C303.994 193.41 304.57 196.02 304.764 198.391C304.989 201.134 304.863 203.889 304.726 206.632C304.584 209.473 304.429 212.314 304.255 215.154C303.572 226.303 302.618 237.458 301.001 248.514C299.387 259.55 297.12 270.534 293.844 281.201C290.608 291.737 286.302 301.944 280.66 311.423C279.948 312.619 279.215 313.803 278.463 314.974C277.662 316.223 279.62 317.338 280.44 316.129V316.13Z" fill="#6D6D6D"/>
<path d="M287.327 210.944L283.142 208.522C281.711 207.693 280.212 206.805 278.634 206.303C277.993 206.099 277.294 206.491 277.045 207.083C276.771 207.732 277.039 208.375 277.596 208.765C278.258 209.231 278.957 209.548 279.689 209.891C280.488 210.268 281.295 210.629 282.109 210.973L286.534 212.825C287 213.019 287.577 212.652 287.748 212.229C287.936 211.761 287.779 211.207 287.327 210.945L287.327 210.944ZM266.377 199.086C266.121 198.853 265.869 198.636 265.561 198.473L264.91 198.13C264.443 197.884 263.978 197.645 263.496 197.429C263.014 197.213 262.533 196.997 262.05 196.783C261.633 196.598 261.152 196.354 260.681 196.354C260.078 196.354 259.477 196.718 259.242 197.275C259.005 197.836 259.176 198.525 259.604 198.953C259.912 199.261 260.415 199.439 260.811 199.584C261.308 199.766 261.805 199.945 262.302 200.125C262.799 200.303 263.301 200.464 263.809 200.608L264.568 200.829C264.908 200.928 265.246 200.955 265.599 200.965C266.53 200.992 267.081 199.727 266.377 199.086ZM246.027 191.825C246.563 191.844 246.995 191.493 247.195 191.013C247.437 190.431 247.188 189.745 246.772 189.302C246.38 188.884 245.761 188.714 245.247 188.505C244.797 188.321 244.349 188.144 243.881 188.011C242.954 187.748 242.017 187.52 241.073 187.326C240.601 187.231 240.126 187.152 239.648 187.088C239.296 187.039 238.939 186.977 238.584 186.948C238.237 186.919 237.887 186.999 237.541 187.046C236.867 187.138 236.311 187.979 236.34 188.624C236.374 189.372 236.83 189.968 237.541 190.203C238.35 190.47 239.25 190.485 240.097 190.582C240.449 190.622 240.8 190.659 241.151 190.701C241.347 190.727 241.352 190.727 241.165 190.702C241.267 190.716 241.368 190.731 241.469 190.746C242.024 190.827 242.578 190.921 243.129 191.026C243.28 191.055 243.429 191.084 243.581 191.108C243.765 191.133 243.949 191.158 244.134 191.181C243.987 191.162 244.006 191.165 244.19 191.19C244.525 191.24 244.914 191.359 245.252 191.357C245.387 191.394 245.373 191.384 245.21 191.328C245.271 191.351 245.331 191.38 245.388 191.413C245.049 191.264 245.584 191.55 245.678 191.606L245.208 190.994L245.182 190.839L245.314 190.348L245.381 190.267C244.816 190.845 245.241 191.798 246.027 191.825L246.027 191.825ZM222.872 187.189C220.196 186.505 217.389 186.042 214.623 185.995C213.792 185.981 212.995 186.737 213.033 187.585C213.072 188.442 213.732 189.181 214.623 189.175C215.925 189.167 217.219 189.165 218.518 189.261C219.171 189.31 219.822 189.376 220.471 189.457L220.626 189.478C220.781 189.501 220.936 189.524 221.09 189.547C221.451 189.604 221.812 189.665 222.171 189.731C222.847 189.855 223.625 189.546 223.792 188.811C223.949 188.125 223.587 187.372 222.872 187.189L222.872 187.189ZM263.769 275.846C256.833 271.228 249.418 267.397 241.63 264.43C239.462 263.604 237.251 262.9 235.025 262.249C233.817 261.896 233.331 263.728 234.509 264.121C242.226 266.697 249.747 269.914 256.844 273.902C258.867 275.04 260.854 276.239 262.804 277.498C263.238 277.778 263.86 277.586 264.112 277.155C264.386 276.686 264.2 276.133 263.769 275.846ZM261.842 292.866C256.789 288.848 251.152 285.624 245.127 283.307C243.44 282.66 241.721 282.105 239.975 281.642C238.784 281.324 238.289 283.134 239.467 283.486C245.398 285.258 251.066 287.743 256.268 291.112C257.74 292.063 259.169 293.079 260.552 294.157C260.94 294.46 261.464 294.535 261.842 294.157C262.16 293.839 262.23 293.174 261.842 292.866ZM246.945 300.311L244.879 299.723C244.607 299.646 244.238 299.683 243.997 299.838L243.766 300.017C243.656 300.117 243.575 300.244 243.529 300.385C243.433 300.613 243.393 300.889 243.471 301.131L243.587 301.404C243.689 301.576 243.825 301.713 243.997 301.815L245.751 303.144C245.988 303.283 246.258 303.356 246.533 303.356L246.945 303.3C247.208 303.227 247.436 303.094 247.629 302.902C247.78 302.761 247.887 302.595 247.949 302.403C248.046 302.219 248.092 302.013 248.083 301.806C248.092 301.598 248.046 301.392 247.949 301.209C247.888 301.017 247.777 300.845 247.629 300.71C247.439 300.52 247.204 300.383 246.945 300.311V300.311Z" fill="#6D6D6D"/>
<path d="M21.027 306.339C17.1976 281.881 14.5583 257.219 12.8457 232.524C11.1423 207.96 10.3296 183.355 10.6523 158.732C10.7233 153.327 10.6589 147.864 11.2462 142.483C11.7278 138.071 12.8093 133.45 15.547 129.853C20.8236 122.923 30.7241 122.431 38.6722 121.572C53.4755 119.971 68.3281 118.752 83.1845 117.774C90.7904 117.273 98.4039 116.843 106.023 116.609C111.453 116.442 116.943 116.266 122.364 116.716C122.799 116.753 123.232 116.798 123.665 116.846C124.335 116.919 123.295 116.778 123.789 116.861C123.964 116.89 124.14 116.915 124.315 116.945C125.416 117.133 126.546 116.652 126.863 115.498C127.136 114.502 126.525 113.14 125.416 112.95C120.636 112.131 115.652 112.296 110.825 112.384C103.413 112.519 96.0061 112.912 88.6085 113.373C73.116 114.337 57.6457 115.628 42.2079 117.247C39.031 117.581 35.8516 117.916 32.6848 118.336C27.6343 119.005 22.456 119.943 18.017 122.589C8.87706 128.037 7.29681 138.882 7.05391 148.624C6.43511 173.446 7.23941 198.362 8.94811 223.127C10.6775 248.188 13.811 273.105 17.8294 297.897C18.3117 300.87 18.8093 303.841 19.3221 306.809C19.5164 307.933 21.1999 307.448 21.0263 306.339L21.027 306.339ZM228.065 113.174C249.127 112.13 270.195 111.826 291.217 113.769C301.535 114.722 311.877 115.937 322.054 117.921C325.565 118.605 329.497 119.515 332.1 122.15C335.236 125.323 334.819 130.506 335.013 134.614C336.03 156.157 336.847 177.709 337.462 199.266C338.077 220.824 338.513 242.39 338.802 263.954C338.945 274.699 339.039 285.445 339.085 296.192C339.13 306.936 338.97 317.687 339.1 328.43C339.133 331.12 339.18 333.802 339.297 336.49C339.396 338.773 342.686 338.755 342.831 336.49C343.535 325.476 343.348 314.388 343.39 303.356C343.431 292.461 343.42 281.565 343.356 270.67C343.23 248.73 342.857 226.793 342.238 204.861C341.617 182.929 340.788 161.003 339.75 139.087C339.621 136.36 339.499 133.632 339.351 130.906C339.219 128.482 339.034 125.969 338.189 123.673C336.627 119.429 333.206 116.798 329.089 115.223C324.907 113.624 320.306 113.107 315.911 112.423C310.528 111.585 305.127 110.872 299.711 110.282C278.483 107.975 256.715 107.523 235.476 109.933C232.901 110.226 230.333 110.602 227.768 110.983C226.526 111.168 226.82 113.236 228.065 113.174Z" fill="#87D37F"/>
<path d="M226.522 52.775C210.944 29.8216 181.952 16.4506 154.63 23.2658C131.357 29.0709 111.62 42.5816 102.975 65.5451C96.3501 83.1448 97.007 104.261 107.728 120.149C111.945 126.4 117.631 131.566 124.265 135.154C145.378 146.573 171.677 149.903 193.605 140.139C225.554 125.913 248.17 84.674 226.522 52.775ZM207.475 60.8442C201.187 70.7135 192.569 80.5639 183.883 88.4067C178.322 93.4282 171.075 98.2491 163.857 96.2334C162.708 95.9125 161.58 95.4039 160.742 94.5538C158.783 92.5672 158.951 89.1844 160.375 86.7859C161.8 84.3873 164.19 82.749 166.519 81.2135C178.417 73.3695 190.719 66.1552 203.373 59.6003C205.026 58.7449 206.811 57.8759 208.658 58.0995C208.941 59.1373 208.424 60.3364 207.475 60.8442Z" fill="#87D37F"/>
<path d="M228.123 51.8396C224.253 46.1535 219.616 40.999 214.332 36.5936C209.077 32.2126 203.262 28.5145 197.008 25.7313C190.674 22.9131 184.029 21.0119 177.15 20.1376C170.337 19.275 163.428 19.5322 156.697 20.8992C150.197 22.2194 143.816 24.4125 137.778 27.1439C131.9 29.8029 126.37 33.1545 121.336 37.1914C116.335 41.2014 111.952 45.9265 108.329 51.2145C104.485 56.8285 101.586 63.0952 99.6569 69.6154C97.5744 76.6535 96.6 84.0788 96.8796 91.4162C97.1631 98.8544 98.7399 106.188 101.71 113.017C104.681 119.852 109.172 126.055 114.845 130.9C120.701 135.901 127.714 139.307 134.879 142.016C142.091 144.741 149.625 146.523 157.295 147.317C164.877 148.101 172.568 147.809 180.053 146.342C187.05 144.97 193.815 142.471 200.032 138.98C205.494 135.915 210.558 132.102 215.077 127.768C219.611 123.42 223.625 118.493 226.955 113.165C230.229 107.925 232.848 102.231 234.582 96.2959C236.283 90.4768 237.128 84.3518 236.877 78.288C236.616 71.9723 235.171 65.8028 232.645 60.0135C231.396 57.1536 229.871 54.4233 228.123 51.8389C227.563 51.0104 226.491 50.6447 225.586 51.1739C224.764 51.6544 224.358 52.8773 224.921 53.7107C226.705 56.3483 228.225 59.1308 229.511 62.0424C229.652 62.3616 229.458 61.9073 229.591 62.229C229.667 62.4126 229.743 62.5966 229.817 62.7809C229.964 63.1484 230.107 63.5175 230.245 63.8883C231.406 67.0013 232.24 70.2265 232.734 73.5119C232.762 73.7006 232.788 73.8896 232.815 74.0782C232.763 73.7135 232.829 74.1906 232.844 74.3141C233.023 75.768 233.136 77.2296 233.184 78.6937C233.233 80.1532 233.218 81.6144 233.141 83.0725C233.076 84.3151 232.967 85.555 232.813 86.7899C232.798 86.9152 232.734 87.3887 232.785 87.0219C232.38 89.9327 231.754 92.8085 230.914 95.6246C230.49 97.0437 230.016 98.4471 229.492 99.8323C229.229 100.528 228.954 101.219 228.667 101.905C228.585 102.103 228.681 101.871 228.693 101.844C228.585 102.098 228.475 102.351 228.363 102.604C228.207 102.959 228.048 103.312 227.885 103.663C226.633 106.366 225.208 108.986 223.619 111.507C222.408 113.43 221.107 115.295 219.721 117.097C219.904 116.858 219.658 117.178 219.597 117.255C219.476 117.41 219.353 117.565 219.231 117.719C216.155 121.579 212.708 125.127 208.938 128.312C208.208 128.929 207.466 129.531 206.712 130.119C206.441 130.332 206.828 130.033 206.554 130.241C206.241 130.479 205.927 130.717 205.612 130.95C203.187 132.747 200.65 134.387 198.015 135.86C195.231 137.413 192.429 138.728 189.59 139.794C186.141 141.087 182.582 142.081 178.967 142.785C177.257 143.121 175.534 143.387 173.803 143.581C172.004 143.782 170.199 143.914 168.391 143.983C164.689 144.122 160.979 143.989 157.295 143.608C155.416 143.414 153.977 143.213 152.053 142.879C150.215 142.559 148.387 142.18 146.573 141.743C139.311 139.993 132.538 137.429 126.02 133.99C122.818 132.3 119.85 130.339 117.236 128.078C115.855 126.883 114.545 125.609 113.313 124.262C112.056 122.887 111.039 121.637 110.026 120.216C105.862 114.38 103.247 108.095 101.769 101.099C101.476 99.7164 101.234 98.3236 101.044 96.9234C101.05 96.9668 101.073 97.1467 101.045 96.9273C101.012 96.6664 100.98 96.4051 100.949 96.1433C100.746 94.3755 100.619 92.5998 100.569 90.8212C100.519 89.0722 100.541 87.3215 100.633 85.5743C100.715 84.0237 100.851 82.4764 101.042 80.9354L101.079 80.6404C101.089 80.5613 101.118 80.3418 101.091 80.5438C101.573 77.0164 102.336 73.5332 103.374 70.1278C104.025 67.9852 104.784 65.8769 105.648 63.811C105.633 63.847 105.555 64.0297 105.639 63.833C105.735 63.6097 105.832 63.3866 105.93 63.1638C106.246 62.4461 106.576 61.7343 106.918 61.0288C108.308 58.1656 109.916 55.4136 111.729 52.7975C112.174 52.1557 112.631 51.5224 113.1 50.8981C113.204 50.7599 113.308 50.622 113.413 50.4844C113.446 50.4413 113.628 50.2072 113.44 50.449L113.599 50.245C113.847 49.9286 114.099 49.6145 114.353 49.3028C115.331 48.1058 116.352 46.9455 117.416 45.8241C119.654 43.4668 122.065 41.2795 124.629 39.2805L124.831 39.1227C124.804 39.1437 124.627 39.2795 124.795 39.1514C125.726 38.4396 126.675 37.7508 127.64 37.0857C128.917 36.2064 130.222 35.3679 131.552 34.5716C134.217 32.976 136.979 31.5455 139.81 30.2719C140.345 30.0313 140.882 29.7963 141.422 29.567C141.619 29.483 141.418 29.5684 141.385 29.5824L141.71 29.4466C142.445 29.1418 143.184 28.8471 143.927 28.5625C145.424 27.9892 146.935 27.4548 148.459 26.9598C151.574 25.948 154.745 25.0548 157.958 24.4178C158.963 24.2186 159.972 24.0454 160.985 23.8984C161.071 23.8858 161.52 23.8228 161.227 23.8627C163.299 23.5882 165.385 23.4213 167.474 23.3625C170.768 23.2691 174.065 23.4462 177.332 23.8672C177.031 23.8284 177.471 23.8865 177.563 23.8994C179.008 24.1045 180.447 24.3579 181.875 24.6593C183.453 24.9923 185.019 25.3824 186.568 25.8286C188.149 26.2836 189.713 26.796 191.256 27.3634C192.201 27.7105 193.138 28.0781 194.067 28.4659C194.41 28.609 194.204 28.5243 194.13 28.4925L194.382 28.6006C194.774 28.7698 195.165 28.9426 195.555 29.119C198.537 30.4712 201.424 32.0251 204.196 33.7698C206.117 34.9797 207.982 36.2781 209.784 37.6607C209.582 37.5053 209.998 37.828 210.063 37.8795C213.333 40.4461 216.376 43.288 219.16 46.374C220.358 47.702 221.506 49.0741 222.602 50.4875C222.446 50.2856 222.72 50.6436 222.762 50.7C223.005 51.0196 223.244 51.3414 223.481 51.6653C223.973 52.3384 224.454 53.0198 224.923 53.7093C225.485 54.536 226.553 54.9045 227.459 54.3743C228.279 53.8948 228.691 52.6691 228.124 51.8375L228.123 51.8396Z" fill="#87D37F"/>
<path d="M205.874 59.9085C204.755 61.6607 203.589 63.3822 202.376 65.071C201.608 66.1408 200.824 67.1984 200.023 68.2434L199.826 68.5007C199.497 68.928 200.05 68.2144 199.718 68.6393C199.385 69.0671 199.049 69.4936 198.711 69.9185C196.06 73.2416 193.265 76.4469 190.333 79.5253C187.469 82.535 184.498 85.4792 181.339 88.1801C180.802 88.6399 180.255 89.0892 179.699 89.5276C179.62 89.5906 179.539 89.6533 179.459 89.7156C179.799 89.452 179.356 89.7919 179.288 89.843C178.496 90.4407 177.681 91.0075 176.845 91.5422C175.998 92.0844 175.124 92.5827 174.226 93.0353C173.836 93.2303 173.429 93.4613 173.016 93.6006C173.401 93.4707 173.082 93.5729 172.984 93.6128C172.87 93.6588 172.757 93.7038 172.643 93.7479C172.393 93.8443 172.142 93.9355 171.889 94.0216C171.006 94.3261 170.099 94.5578 169.178 94.7146C169.156 94.7181 168.694 94.7972 169.003 94.7454C169.31 94.6936 168.851 94.7629 168.827 94.7654C168.616 94.7885 168.404 94.8068 168.192 94.8203C167.697 94.8523 167.2 94.8572 166.705 94.835C166.491 94.8251 166.278 94.81 166.065 94.7895C165.949 94.7783 165.824 94.7762 165.71 94.7507C165.765 94.7633 166.123 94.8179 165.775 94.7566C165.296 94.6719 164.821 94.5771 164.351 94.4458C164.12 94.3815 163.892 94.3094 163.666 94.2295C163.653 94.225 163.208 94.0657 163.485 94.1672C163.758 94.2673 163.327 94.0944 163.312 94.0867C163.118 93.9944 162.929 93.8928 162.745 93.7822C162.643 93.721 162.545 93.6534 162.444 93.5901C162.057 93.3468 162.708 93.8396 162.367 93.5344C162.198 93.3868 162.037 93.2298 161.886 93.064C161.834 93.0056 161.786 92.9303 161.73 92.8782C162.031 93.1596 161.859 93.0437 161.772 92.9128C161.673 92.763 161.582 92.6084 161.5 92.4491L161.447 92.3423C161.381 92.1972 161.379 92.1985 161.443 92.3462C161.503 92.495 161.505 92.4951 161.446 92.3465C161.425 92.2905 161.405 92.2342 161.386 92.1775C161.329 92.0068 161.279 91.8335 161.239 91.6581C161.211 91.5401 161.191 91.4215 161.167 91.3028C161.137 91.1544 161.198 91.041 161.183 91.4348C161.199 91.0274 161.132 90.6189 161.16 90.207C161.167 90.1037 161.18 90.0008 161.189 89.8976C161.211 89.6221 161.104 90.3739 161.183 89.9581C161.222 89.753 161.261 89.5486 161.312 89.346C161.384 89.0625 161.471 88.7833 161.575 88.5098L161.619 88.3933C161.695 88.2059 161.681 88.2386 161.578 88.4913C161.798 88.2022 161.927 87.7923 162.125 87.4805C162.251 87.2817 162.386 87.0902 162.523 86.8991C162.722 86.6223 162.518 86.8925 162.49 86.9397C162.57 86.8043 162.702 86.6807 162.805 86.5621C163.408 85.8684 164.089 85.2461 164.804 84.6707C164.814 84.663 165.182 84.3739 164.953 84.5513C164.724 84.7288 165.097 84.4442 165.106 84.4369C165.278 84.3088 165.452 84.1824 165.627 84.0578C166.034 83.7678 166.447 83.4843 166.863 83.2073C168.634 82.0243 170.424 80.8697 172.217 79.7227C182.347 73.2457 192.759 67.2199 203.422 61.6631C203.884 61.4223 204.345 61.1801 204.81 60.9452C205.027 60.8355 205.245 60.729 205.464 60.6257C205.586 60.5683 205.71 60.5158 205.832 60.4577C205.954 60.404 205.931 60.4134 205.761 60.486C205.86 60.4452 205.96 60.4059 206.06 60.3681C206.51 60.1983 206.965 60.0762 207.432 59.9659C207.916 59.8518 207.18 59.9715 207.482 59.9498C207.612 59.9407 207.742 59.926 207.873 59.9211C208.136 59.9117 208.398 59.926 208.66 59.9533L206.872 58.5922C206.966 58.9782 206.889 58.1718 206.88 58.5684C206.878 58.6667 206.876 58.7668 206.876 58.8648C206.876 59.0871 206.977 58.4616 206.876 58.7826C206.862 58.8404 206.845 58.8976 206.826 58.9541C206.781 59.0868 206.807 59.0318 206.905 58.7889C206.902 58.7882 206.774 59.036 206.765 59.0517C206.591 59.338 206.7 59.051 206.81 59.0132C206.795 59.0185 206.565 59.2481 206.558 59.2642L206.745 59.1189C206.679 59.164 206.611 59.2054 206.541 59.2428C205.699 59.7244 205.337 60.9435 205.876 61.7796C206.425 62.6305 207.512 62.9598 208.413 62.4446C210.101 61.4797 210.902 59.477 210.448 57.6062C210.241 56.7508 209.464 56.3291 208.66 56.2451C206.216 55.9896 203.942 57.2174 201.847 58.3069C189.747 64.5998 177.97 71.4964 166.562 78.9706C164.796 80.1277 163.002 81.2785 161.424 82.6907C159.874 84.0785 158.588 85.776 157.916 87.7601C157.312 89.5451 157.223 91.67 157.915 93.4438C158.3 94.4297 158.847 95.3467 159.639 96.0625C160.545 96.8804 161.603 97.4299 162.75 97.8286C164.669 98.4957 166.813 98.6938 168.829 98.4736C173.111 98.0057 177.027 96.0387 180.485 93.5435C183.985 91.0176 187.135 88.0212 190.188 84.9804C196.518 78.6748 202.337 71.7963 207.356 64.3987C207.942 63.534 208.516 62.6611 209.078 61.7803C209.601 60.9613 209.275 59.6989 208.413 59.2435C207.496 58.7588 206.434 59.0346 205.877 59.9085H205.874Z" fill="#87D37F"/>
<path d="M84.7329 52.2477C77.3531 45.6666 69.9737 39.0859 62.559 32.5444L59.4181 29.7735C58.8945 29.3118 58.3733 28.847 57.8476 28.3878C57.0258 27.6703 56.2016 26.9413 55.0235 27.3168C54.5464 27.4691 54.0123 27.8737 53.9308 28.4095C53.83 29.0731 53.8107 29.6244 54.2416 30.1819C54.4537 30.4563 54.6889 30.688 54.9486 30.9173C55.4284 31.3415 55.9282 31.745 56.4179 32.1577L59.2924 34.5793L64.9082 39.3099C68.698 42.5023 72.5098 45.668 76.3164 48.8401L82.7662 54.2143C83.3245 54.6795 84.1932 54.802 84.7329 54.2143C85.2183 53.6855 85.3128 52.7646 84.7329 52.2477ZM67.2952 72.8161C62.9891 72.6044 58.6946 72.2358 54.4043 71.819C52.2305 71.6077 50.0603 71.3618 47.8943 71.0815C47.6376 71.0482 47.3811 71.0145 47.1247 70.9804C46.8002 70.9377 47.5181 71.0346 46.9721 70.9597L46.6319 70.9132C45.0158 70.69 43.4024 70.4477 41.7921 70.1862C39.2878 69.7792 36.7916 69.1936 34.272 68.9077C33.3665 68.8048 32.5748 69.6871 32.4653 70.5026C32.3473 71.3801 32.8891 72.2992 33.783 72.5211C34.8411 72.7839 35.9282 72.9162 37.0062 73.0737C38.1878 73.2463 39.3711 73.4083 40.5555 73.563C42.7126 73.8448 44.874 74.0922 47.0389 74.305C51.3145 74.7254 55.6034 75.0316 59.8993 75.1184C62.3644 75.1681 64.8298 75.1723 67.2952 75.1342C67.9213 75.1244 68.454 74.6085 68.454 73.9753C68.454 73.3222 67.9227 72.8469 67.2952 72.8161ZM104.946 34.5867C103.71 31.465 102.517 28.3252 101.267 25.2095C100.646 23.6621 100.02 22.1169 99.401 20.5688C99.0914 19.7949 98.7824 19.0205 98.4742 18.2459C98.3054 17.8142 98.126 17.3867 97.9363 16.9638C97.7252 16.5015 97.4071 16.1357 97.0875 15.7448C96.4946 15.0199 95.0929 15.5974 95.1835 16.5333C95.2329 17.0412 95.2679 17.5319 95.4467 18.0131C95.6081 18.4478 95.7929 18.8727 95.9763 19.2987C96.2943 20.0379 96.613 20.7768 96.9325 21.5156C97.6052 23.072 98.2775 24.6292 98.9593 26.1818C100.309 29.2555 101.74 32.2966 103.146 35.3451C103.608 36.3461 105.359 35.6272 104.947 34.586L104.946 34.5867ZM247.78 86.7696C250.139 82.7636 252.739 78.9051 255.567 75.2154L255.706 75.0341L255.697 75.0463C255.821 74.8863 255.945 74.7265 256.07 74.5672C260.045 69.4959 264.441 64.7694 269.212 60.438C270.253 59.489 271.314 58.562 272.395 57.6576C272.772 57.3431 273.153 57.0333 273.539 56.7284L273.771 56.546C273.992 56.3731 273.497 56.7522 273.722 56.5852C274.274 56.1747 274.826 55.7659 275.397 55.3823C276.548 54.6088 277.752 53.9273 279.021 53.3652C279.087 53.3365 279.153 53.3076 279.218 53.2784C279.432 53.1829 279.053 53.3491 279.051 53.3495C279.202 53.3222 279.372 53.2217 279.518 53.1671C279.853 53.0421 280.192 52.9287 280.535 52.8273C281.182 52.6369 281.835 52.5392 282.492 52.4006C282.494 52.4006 282.049 52.4482 282.29 52.4311C282.386 52.4241 282.482 52.4108 282.578 52.4024C282.739 52.3881 282.901 52.377 283.062 52.3688C283.63 52.3417 284.199 52.3585 284.764 52.4188C284.824 52.4251 284.884 52.4335 284.944 52.4395C285.18 52.464 284.651 52.3978 284.679 52.4041C284.833 52.4409 284.996 52.4552 285.152 52.4853C285.839 52.6182 286.513 52.812 287.165 53.0646C287.24 53.0933 287.314 53.1244 287.388 53.1528C287.605 53.2357 287.133 53.0425 287.155 53.0537C287.422 53.1902 287.701 53.3029 287.968 53.4419C288.594 53.768 289.193 54.1423 289.761 54.5612C289.81 54.5972 289.858 54.6347 289.908 54.6704C290.094 54.8058 289.699 54.5048 289.713 54.5199C289.92 54.7337 290.19 54.9091 290.413 55.1086C290.839 55.4908 291.244 55.8965 291.625 56.3238C291.816 56.5387 291.996 56.7623 292.18 56.9832C292.33 57.1624 292.018 56.769 292.031 56.7872C292.067 56.8372 292.105 56.8855 292.142 56.9349C292.24 57.067 292.337 57.2003 292.431 57.3349C292.765 57.8055 293.072 58.294 293.351 58.7983C293.561 59.1762 293.755 59.5629 293.931 59.9575C293.956 60.0138 293.98 60.0705 294.006 60.1269C294.113 60.3645 293.796 59.5987 293.954 60.0089C294.161 60.5465 294.35 61.088 294.498 61.6448C294.62 62.1003 294.719 62.5614 294.795 63.0266C294.852 63.3819 294.794 63.0326 294.78 62.88C294.833 63.454 294.889 64.0203 294.887 64.5978C294.885 65.1886 294.808 65.7678 294.776 66.3558C294.777 66.3271 294.858 65.8 294.802 66.1588L294.773 66.3443C294.75 66.4882 294.725 66.632 294.699 66.7755C294.509 67.7773 294.224 68.7588 293.849 69.7067C293.819 69.7841 293.786 69.8611 293.756 69.9384C293.671 70.1558 293.859 69.7001 293.849 69.7176C293.711 69.9972 293.594 70.2888 293.454 70.5688C293.193 71.0935 292.907 71.6054 292.597 72.1025C292.285 72.603 291.945 73.0818 291.594 73.5553C291.457 73.7401 291.742 73.366 291.732 73.3775C291.676 73.4398 291.626 73.5105 291.574 73.5756C291.494 73.6743 291.413 73.7722 291.332 73.8693C290.554 74.7948 289.695 75.6495 288.766 76.4232C288.652 76.5184 288.536 76.6115 288.42 76.7053C288.371 76.7452 288.188 76.8842 288.432 76.6987C288.717 76.4813 288.375 76.7414 288.34 76.7669C287.166 77.6457 285.901 78.3955 284.566 79.0034C284.432 79.0647 284.294 79.1203 284.16 79.1826C284.194 79.1669 284.633 78.9901 284.306 79.1182L284.07 79.2117C283.771 79.3279 283.468 79.4402 283.161 79.5351C283.014 79.5802 282.866 79.6222 282.716 79.6572C282.665 79.6691 282.436 79.6957 282.417 79.7181C282.479 79.6453 282.835 79.7031 282.52 79.6936C282.48 79.6926 282.227 79.6873 282.222 79.6926C282.24 79.6709 282.629 79.7909 282.408 79.7181C282.388 79.7118 282.203 79.6544 282.192 79.6628C282.221 79.6411 282.624 79.8991 282.331 79.7216C282.284 79.6929 282.231 79.6551 282.181 79.632C282.006 79.5512 282.361 79.7633 282.367 79.7839C282.354 79.7423 282.092 79.4763 282.044 79.4507C282.089 79.4745 282.32 79.8683 282.161 79.583C282.132 79.5309 282.099 79.4812 282.069 79.429C282.04 79.3769 282.013 79.3226 281.984 79.2698C281.823 78.9775 282.037 79.3846 282.045 79.4276C281.996 79.1511 281.863 78.8799 281.808 78.5995C281.796 78.5365 281.792 78.4224 281.767 78.3587C281.767 78.3608 281.812 78.8368 281.802 78.5883C281.795 78.4172 281.773 78.2464 281.767 78.0749C281.754 77.7124 281.764 77.3494 281.796 76.9881C281.8 76.936 281.833 76.8215 281.817 76.7729C281.818 76.7774 281.752 77.1813 281.792 76.9517C281.82 76.7855 281.846 76.6192 281.879 76.454C281.951 76.0991 282.042 75.7481 282.148 75.4019C282.242 75.0995 282.346 74.801 282.461 74.5063C282.478 74.4643 282.55 74.2406 282.571 74.2336C282.575 74.2322 282.415 74.5791 282.518 74.3673C282.604 74.1888 282.68 74.0065 282.77 73.829C283.086 73.2035 283.433 72.5942 283.81 72.0034C284.566 70.8117 285.416 69.6847 286.276 68.5671C286.313 68.5185 286.516 68.256 286.359 68.459C286.212 68.6487 286.372 68.4418 286.395 68.4124L286.728 67.9847C287.409 67.1101 288.099 66.2417 288.797 65.3797C296.1 56.3536 304.221 48.021 313.056 40.488C315.269 38.6015 317.565 36.806 319.755 34.8943C320.276 34.4398 320.794 33.9825 321.31 33.5223C321.577 33.2841 321.845 33.0467 322.113 32.8101L322.459 32.5063C322.534 32.4398 322.619 32.3754 322.689 32.3043C322.696 32.298 322.888 32.122 322.749 32.2242C323.345 31.7853 323.704 30.9733 323.258 30.282C322.877 29.6916 321.956 29.302 321.316 29.7728C320.705 30.2229 320.003 30.5876 319.359 30.995C318.732 31.3931 318.111 31.8017 317.497 32.2207C316.158 33.1335 314.891 34.1674 313.616 35.1666C311.222 37.043 308.917 39.0401 306.648 41.0648C302.126 45.1001 297.802 49.3509 293.69 53.8024C289.515 58.3212 285.508 63.0347 281.837 67.9735C280.057 70.3672 278.337 73.0947 277.87 76.0935C277.613 77.7448 277.609 79.4336 278.267 80.9953C279.018 82.7729 280.689 83.9748 282.668 83.8397C284.269 83.7305 285.824 83.0316 287.248 82.3396C288.376 81.7908 289.451 81.1394 290.459 80.3936C292.686 78.7472 294.609 76.7844 296.123 74.4566C299.029 69.9885 300.107 64.2257 298.233 59.1479C296.387 54.1471 292.255 49.8547 286.984 48.5433C284.168 47.8426 281.181 48.0858 278.474 49.1096C275.524 50.2254 272.971 52.0506 270.583 54.0827C266.075 57.9187 261.957 62.2808 258.179 66.829C254.316 71.4788 250.797 76.4173 247.695 81.6064C246.94 82.8699 246.21 84.1476 245.504 85.4389C245.162 86.0633 245.35 86.876 245.977 87.2424C246.596 87.6043 247.417 87.3845 247.78 86.7696Z" fill="#6D6D6D"/>
<path d="M320.086 29.639C318.553 29.429 317.023 29.2005 315.496 28.9537C313.866 28.693 312.228 28.5103 310.59 28.3059C309.813 28.209 309.037 28.1094 308.26 28.007L307.657 27.9268C307.946 27.9657 307.531 27.9097 307.441 27.8974C307.041 27.8431 306.641 27.7879 306.241 27.7319C304.697 27.5163 303.157 27.2811 301.614 27.0602C299.841 26.806 298.069 26.5374 296.3 26.2545V29.9866C302.169 27.9321 307.972 25.6987 313.78 23.4797C319.885 21.1477 325.989 18.8132 332.141 16.6064C335.34 15.4588 338.552 14.3458 341.789 13.3077L339.297 10.8157C338.959 12.4258 338.513 14.0112 337.961 15.561C337.699 16.296 337.42 17.0238 337.121 17.7446C337.085 17.8321 337.05 17.9221 337.011 18.0085C337.216 17.5581 337.095 17.8101 337.051 17.9105C336.977 18.0825 336.902 18.2543 336.827 18.4261C336.677 18.763 336.525 19.0986 336.37 19.433C335.282 21.7773 334.021 24.0341 332.898 26.3613C331.358 29.5547 329.945 32.8142 328.498 36.051C326.983 39.4397 325.477 42.8323 323.972 46.2248C322.266 50.0685 320.523 53.8979 318.87 57.7643L322.708 58.8038C323.085 52.2349 323.513 45.669 323.994 39.1069C324.133 37.2274 324.278 35.3486 324.382 33.4666C324.435 32.5041 323.498 31.5843 322.543 31.627C321.468 31.675 320.8 32.4373 320.703 33.4666C320.086 40.0242 319.708 46.6035 319.106 53.1636L318.589 58.8038C318.51 59.6599 319.281 60.6032 320.101 60.7897C320.935 60.9798 322.033 60.684 322.426 59.8433C325.595 53.0712 328.543 46.1909 331.604 39.3694C333.148 35.9303 334.694 32.4919 336.248 29.0577C337.272 26.7956 338.477 24.6193 339.532 22.372C341.11 19.013 342.453 15.5358 343.204 11.8926C343.352 11.1713 343.219 10.458 342.683 9.92177C342.189 9.42792 341.391 9.18152 340.712 9.40097C334.795 11.3116 328.957 13.4585 323.14 15.6509C317.022 17.9564 310.931 20.3297 304.821 22.6541C301.642 23.8633 298.463 25.0771 295.272 26.2549C294.494 26.5419 293.811 27.2265 293.851 28.1207C293.886 28.8967 294.419 29.8651 295.272 29.9866C298.503 30.4472 301.739 30.8682 304.986 31.2028C306.565 31.3657 308.146 31.5171 309.727 31.6571C311.277 31.7943 312.835 31.9669 314.39 32.0064C316.177 32.0519 317.964 32.0799 319.751 32.1139C320.372 32.1258 320.917 31.626 320.989 31.0212C321.054 30.4685 320.714 29.7237 320.086 29.6383L320.086 29.639Z" fill="#6D6D6D"/>
<path d="M303.467 27.7335C303.815 27.7342 304.092 27.9022 304.351 28.1237C304.688 28.4121 305.006 28.7131 305.37 28.9802C306.153 29.5549 307.089 29.7523 308.036 29.5122C310.193 28.9644 310.988 26.8791 311.73 25.0297H309.69C309.849 25.9467 310.046 26.8263 310.645 27.5683C311.232 28.2973 312.203 28.689 313.131 28.5605C314.192 28.4135 314.841 27.5392 315.067 26.5466C315.301 25.5232 315.484 24.4872 315.701 23.4603H313.485C313.872 25.9145 315.01 28.2172 316.705 30.0295C317.35 30.7186 318.382 30.3014 318.668 29.5115C319.195 28.0506 319.687 26.5757 320.228 25.1197C320.769 23.6598 321.343 22.2122 321.868 20.7457L319.464 20.4202C319.516 24.3021 319.559 28.1843 319.637 32.0658C319.649 32.6279 320.039 33.2145 320.612 33.345C321.142 33.4658 321.867 33.2799 322.11 32.7353C323.544 29.5157 324.575 26.1819 325.222 22.7183L322.536 22.3547C322.463 25.4756 322.556 28.5997 322.858 31.707C322.929 32.4438 323.364 33.0493 324.134 33.1529C324.872 33.2519 325.523 32.8032 325.75 32.0983C326.994 28.2277 328.075 24.3101 329.018 20.3555L326.002 19.9474C326.012 21.5021 325.942 23.0571 325.812 24.6059C325.731 25.5634 325.629 26.5189 325.504 27.4717C325.48 27.6607 325.5 27.5046 325.506 27.4675C325.49 27.5795 325.475 27.6914 325.459 27.8031C325.404 28.1948 325.346 28.586 325.284 28.9767C324.801 32.0577 324.135 35.1066 323.406 38.1379C322.994 39.8483 322.579 41.5577 322.159 43.2661C321.957 44.0914 322.356 44.9342 323.141 45.2653C323.936 45.601 324.793 45.2874 325.257 44.572C328.834 39.0591 331.67 33.0584 333.683 26.8032C334.243 25.0617 334.737 23.2999 335.164 21.5213L331.896 20.6201C331.546 22.8316 331.03 25.0135 330.352 27.1472C330.02 28.1882 329.651 29.2167 329.243 30.2304L329.093 30.6007C328.894 31.0882 329.226 30.2986 329.017 30.782C328.911 31.0268 328.804 31.2706 328.695 31.5135C328.453 32.0475 328.202 32.5769 327.94 33.1014L331.07 34.4209C332.583 29.052 334.411 23.7766 336.542 18.6219L336.8 18.0042C336.954 17.6339 336.741 18.1393 336.885 17.8022C337.06 17.392 337.236 16.9823 337.414 16.573C337.764 15.7684 337.706 14.9028 336.966 14.3313C336.271 13.794 335.325 13.8717 334.684 14.4671C332.741 16.2715 331.082 18.3593 329.762 20.6596C329.301 21.4653 329.546 22.6361 330.399 23.0862C331.325 23.5755 332.234 23.2493 332.825 22.4499L335.567 18.7409C335.988 18.1711 335.823 17.258 335.427 16.7452C334.973 16.1579 334.257 15.9434 333.538 16.1012L325.484 17.8705C324.217 18.1487 323.6 20.0814 324.672 20.9435C324.807 21.0513 324.938 21.1615 325.061 21.2826C325.121 21.3428 325.18 21.4048 325.237 21.4685C325.365 21.6211 325.35 21.5967 325.192 21.3953C325.378 21.5311 325.66 22.0617 325.704 22.2861C325.605 22.0483 325.592 22.0236 325.664 22.2119C325.694 22.2938 325.721 22.3764 325.746 22.4597C325.784 22.5852 325.818 22.7117 325.848 22.8391C325.885 22.9955 325.952 23.1936 325.946 23.355C325.965 22.8324 325.937 23.404 325.943 23.5247C325.961 23.9321 325.93 24.3343 325.896 24.7399C325.93 24.3409 325.872 24.8666 325.864 24.9125C325.825 25.1296 325.78 25.3456 325.729 25.5603C325.526 26.4238 325.241 27.2652 324.957 28.1045L328.464 28.5791C328.352 27.7345 328.285 26.8854 328.281 26.0332C328.278 25.389 328.309 24.745 328.373 24.104C328.383 24.0014 328.395 23.8992 328.406 23.797C328.441 23.4621 328.382 23.923 328.415 23.7169C328.554 22.8744 328.718 22.0432 328.955 21.2224C329.07 20.8265 329.198 20.4345 329.339 20.0471C329.418 19.8291 329.505 19.6149 329.589 19.3986C329.684 19.1522 329.495 19.6061 329.604 19.3643C329.657 19.2463 329.707 19.128 329.763 19.0111C330.13 18.2394 330.002 17.2083 329.175 16.7715C328.446 16.3861 327.328 16.5331 326.936 17.3588C325.274 20.8507 324.428 24.7081 324.893 28.5791C325 29.4719 325.491 30.2048 326.441 30.3326C327.354 30.4551 328.101 29.9028 328.4 29.0537C329.048 27.2092 329.705 25.2478 329.56 23.2629C329.427 21.4475 328.758 19.498 327.272 18.3426L326.461 21.4156L334.493 19.5662L332.464 16.9265L329.762 20.6593L332.825 22.4495C333.122 21.9151 333.439 21.3919 333.775 20.8808C334.027 20.4981 334.291 20.1226 334.565 19.7549C334.586 19.7258 334.898 19.3307 334.662 19.6247C335.429 18.6688 336.244 17.7613 337.141 16.9241L334.412 14.8185C331.785 20.8969 329.549 27.1315 327.767 33.5099C327.537 34.3348 327.984 35.2035 328.758 35.5301C329.495 35.8405 330.518 35.5962 330.897 34.8294C332.973 30.6283 334.431 26.1508 335.164 21.521C335.302 20.6488 334.941 19.6551 333.98 19.4364C333.109 19.2379 332.118 19.6982 331.896 20.6201C331.015 24.2799 329.852 27.8663 328.419 31.3472L328.299 31.637C328.18 31.9258 328.332 31.5639 328.257 31.7378C327.935 32.4812 327.609 33.2225 327.267 33.9572C325.833 37.0375 324.183 40.0131 322.33 42.8619L325.428 44.1677C326.954 37.9507 328.398 31.6787 328.906 25.2817C329.047 23.5065 329.101 21.7282 329.073 19.9477C329.069 19.5784 328.932 19.2228 328.688 18.9459C328.443 18.669 328.107 18.4893 327.741 18.4396C327.022 18.343 326.224 18.7903 326.057 19.5393C325.173 23.5058 324.114 27.4342 322.911 31.3157L325.802 31.707C325.468 28.5994 325.277 25.4805 325.27 22.3547C325.269 21.6725 324.751 21.1013 324.085 21.0117C323.474 20.9295 322.693 21.3187 322.585 21.991C322.067 25.2089 321.102 28.4594 319.819 31.3962L322.291 32.0658C322.185 28.1832 322.043 24.3017 321.912 20.4202C321.865 19.0206 319.947 18.7843 319.508 20.0947C319.014 21.5668 318.557 23.0519 318.046 24.518C317.535 25.9842 316.959 27.4353 316.403 28.8871L318.366 28.3691C316.972 26.8203 316.059 24.9279 315.701 22.8496C315.51 21.7404 313.698 21.766 313.485 22.8496C313.341 23.5881 313.19 24.3252 313.04 25.0623C312.968 25.4175 312.915 25.785 312.813 26.1336C312.746 26.3632 312.853 26.1462 312.731 26.3478C312.751 26.3206 312.778 26.3001 312.81 26.2894C312.703 26.3501 312.682 26.3625 312.749 26.3268C312.817 26.2946 312.792 26.2967 312.675 26.3331C312.794 26.3194 312.783 26.3147 312.642 26.3191C312.823 26.3888 312.514 26.2789 312.487 26.268C312.629 26.3237 312.34 26.1718 312.334 26.1672C312.452 26.2502 312.269 26.0853 312.256 26.0696C311.921 25.6338 311.83 25.0133 311.73 24.4676C311.542 23.4383 309.909 23.4799 309.691 24.4676C309.398 25.7966 308.845 27.842 307.203 28.018C306.474 28.0961 305.972 27.5277 305.391 27.2032C304.742 26.8413 304.084 26.5739 303.333 26.7377C302.767 26.8613 302.903 27.7324 303.467 27.7335Z" fill="#6D6D6D"/>
<path d="M12.3585 153.083C12.6766 149.842 15.1406 147.172 17.8864 145.649C21.2768 143.767 25.2514 143.261 29.0223 142.652C37.3931 141.299 45.7919 140.126 54.2129 139.133C62.6293 138.141 71.0615 137.288 79.5109 136.626C96.4127 135.302 113.363 134.694 130.316 134.803C131.356 134.809 132.395 134.801 133.435 134.8C134.685 134.799 134.684 132.886 133.435 132.858C124.765 132.669 116.076 132.848 107.411 133.14C98.7795 133.431 90.1552 133.907 81.5441 134.57C72.8938 135.235 64.2526 136.07 55.6423 137.136C47.074 138.195 38.5294 139.438 30.0142 140.863C23.2554 141.995 14.1305 143.123 11.5808 150.722C11.3246 151.485 11.1881 152.279 11.1422 153.082C11.0971 153.873 12.2836 153.849 12.3588 153.082L12.3585 153.083ZM207.334 131.495C216.334 130.813 225.352 130.36 234.375 130.089C252.386 129.548 270.414 129.908 288.389 131.166C297.147 131.779 305.922 132.664 314.618 133.871C321.481 134.823 328.914 136.219 334.519 140.578C334.834 140.823 335.125 141.107 335.454 141.332C335.831 141.59 336.258 141.787 336.652 142.019C337.551 142.55 338.71 141.47 338.119 140.553C337.878 140.18 337.635 139.806 337.361 139.457C337.042 139.05 336.613 138.747 336.206 138.432C335.503 137.887 334.78 137.373 334.025 136.903C332.454 135.926 330.777 135.136 329.057 134.459C325.687 133.131 322.139 132.38 318.564 131.851C314.495 131.248 310.391 130.881 306.296 130.509C301.783 130.098 297.265 129.745 292.742 129.448C283.645 128.852 274.553 128.325 265.437 128.104C256.324 127.883 247.208 127.892 238.096 128.131C228.98 128.37 219.877 128.871 210.789 129.61C209.636 129.704 208.484 129.801 207.333 129.902C206.322 129.991 206.305 131.573 207.333 131.496L207.334 131.495Z" fill="#87D37F"/>
</svg>
