<svg width="650" height="174" viewBox="0 0 650 174" fill="none" xmlns="http://www.w3.org/2000/svg">
<path d="M103.68 80.7548C103.508 61.6452 119.331 52.3483 120.055 51.9155C111.094 38.8536 97.204 37.0689 92.323 36.9266C80.6573 35.6993 69.3415 43.9052 63.3989 43.9052C57.3378 43.9052 48.1867 37.0452 38.3239 37.2468C25.6322 37.4425 13.7589 44.7887 7.247 56.1963C-6.19198 79.4563 3.83091 113.638 16.7065 132.439C23.1472 141.653 30.6733 151.928 40.5242 151.566C50.1616 151.175 53.7615 145.43 65.3917 145.43C76.915 145.43 80.2955 151.566 90.3421 151.335C100.685 151.175 107.197 142.086 113.413 132.795C120.856 122.247 123.845 111.847 123.963 111.314C123.726 111.231 103.882 103.653 103.68 80.7548ZM84.702 24.5584C89.8855 18.0779 93.432 9.26128 92.4475 0.314209C84.9452 0.646241 75.5628 5.50221 70.1599 11.8405C65.3798 17.4257 61.1097 26.5803 62.2128 35.1894C70.6403 35.8179 79.2932 30.9382 84.702 24.5584Z" fill="white"/>
<path d="M243.271 150.244H229.803L222.425 127.067H196.781L189.753 150.244H176.64L202.053 71.3393H217.746L243.271 150.244ZM220.201 117.343L213.529 96.7397C212.823 94.6349 211.495 89.6781 209.549 81.8754H209.312C208.529 85.2313 207.278 90.188 205.564 96.7397L199.005 117.343H220.201ZM308.497 121.097C308.497 130.773 305.87 138.422 300.609 144.036C295.9 149.035 290.047 151.531 283.066 151.531C275.529 151.531 270.108 148.845 266.816 143.461V173.315H254.172V112.049C254.172 105.971 254.012 99.7399 253.704 93.3483H264.824L265.529 102.366H265.767C269.983 95.5717 276.383 92.1743 284.97 92.1743C291.684 92.1743 297.288 94.8246 301.772 100.131C306.25 105.45 308.497 112.434 308.497 121.097ZM295.616 121.559C295.616 116.021 294.37 111.456 291.868 107.857C289.134 104.116 285.462 102.242 280.86 102.242C277.741 102.242 274.906 103.285 272.373 105.343C269.835 107.418 268.174 110.128 267.398 113.484C267.051 114.739 266.854 116.03 266.81 117.332V126.824C266.81 130.957 268.08 134.449 270.618 137.307C273.156 140.153 276.454 141.582 280.51 141.582C285.273 141.582 288.979 139.738 291.63 136.08C294.287 132.409 295.616 127.571 295.616 121.559ZM373.955 121.097C373.955 130.773 371.327 138.422 366.067 144.036C361.352 149.035 355.504 151.531 348.518 151.531C340.98 151.531 335.559 148.845 332.268 143.461V173.315H319.623V112.049C319.623 105.971 319.463 99.7399 319.155 93.3483H330.275L330.981 102.366H331.218C335.429 95.5717 341.828 92.1743 350.421 92.1743C357.129 92.1743 362.734 94.8246 367.229 100.131C371.701 105.45 373.955 112.434 373.955 121.097ZM361.067 121.559C361.067 116.021 359.816 111.456 357.313 107.857C354.579 104.116 350.92 102.242 346.317 102.242C343.198 102.242 340.363 103.285 337.819 105.343C335.28 107.418 333.626 110.128 332.849 113.484C332.463 115.049 332.256 116.324 332.256 117.332V126.824C332.256 130.957 333.531 134.449 336.057 137.307C338.596 140.147 341.893 141.582 345.962 141.582C350.73 141.582 354.437 139.738 357.082 136.08C359.739 132.409 361.067 127.571 361.067 121.559ZM447.139 128.111C447.139 134.828 444.791 140.289 440.123 144.505C434.987 149.106 427.817 151.412 418.625 151.412C410.132 151.412 403.323 149.776 398.187 146.497L401.111 135.961C406.656 139.246 412.747 140.882 419.378 140.882C424.146 140.882 427.853 139.803 430.498 137.663C433.149 135.516 434.489 132.647 434.489 129.065C434.489 125.858 433.38 123.172 431.204 120.984C429.015 118.802 425.397 116.768 420.315 114.901C406.496 109.748 399.581 102.212 399.581 92.2988C399.581 85.8242 402.025 80.5235 406.9 76.3791C411.775 72.2405 418.239 70.1713 426.281 70.1713C433.463 70.1713 439.447 71.4223 444.198 73.9185L441.025 84.2233C436.553 81.8042 431.506 80.5947 425.86 80.5947C421.4 80.5947 417.901 81.6916 415.398 83.8735C413.293 85.8242 412.225 88.2018 412.225 91.024C412.225 94.1368 413.441 96.7219 415.861 98.7497C417.96 100.617 421.792 102.651 427.331 104.833C434.127 107.572 439.121 110.762 442.318 114.426C445.538 118.091 447.139 122.662 447.139 128.111ZM489.052 102.835H475.115V130.459C475.115 137.485 477.57 140.989 482.492 140.989C484.752 140.989 486.626 140.799 488.109 140.402L488.459 150.001C485.968 150.932 482.688 151.4 478.626 151.4C473.632 151.4 469.73 149.877 466.912 146.829C464.107 143.781 462.696 138.676 462.696 131.49V102.811H454.393V93.3245H462.696V82.907L475.115 79.1598V93.3245H489.052V102.835ZM551.811 121.328C551.811 130.073 549.308 137.254 544.314 142.868C539.089 148.649 532.138 151.531 523.474 151.531C515.111 151.531 508.463 148.762 503.505 143.23C498.547 137.686 496.068 130.702 496.068 122.277C496.068 113.46 498.63 106.238 503.736 100.623C508.854 95.0025 515.746 92.1921 524.411 92.1921C532.761 92.1921 539.469 94.9669 544.545 100.505C549.397 105.877 551.811 112.814 551.811 121.328ZM538.704 121.618C538.704 116.407 537.577 111.936 535.317 108.195C532.666 103.677 528.871 101.418 523.954 101.418C518.889 101.418 515.005 103.677 512.359 108.195C510.094 111.936 508.967 116.484 508.967 121.856C508.967 127.073 510.094 131.556 512.359 135.285C515.094 139.803 518.907 142.062 523.847 142.062C528.681 142.062 532.47 139.756 535.21 135.172C537.535 131.342 538.704 126.842 538.704 121.618ZM592.928 104.465C591.613 104.228 590.279 104.111 588.943 104.116C584.495 104.116 581.055 105.788 578.635 109.155C576.536 112.12 575.48 115.867 575.48 120.391V150.244H562.836V111.266C562.847 105.293 562.724 99.3213 562.468 93.3542H573.481L573.944 104.24H574.294C575.634 100.499 577.734 97.4809 580.616 95.2219C583.254 93.2479 586.46 92.179 589.755 92.1743C590.924 92.1743 591.979 92.2573 592.916 92.4055L592.928 104.465ZM649.477 119.104C649.509 121.026 649.355 122.946 649.015 124.838H611.082C611.224 130.459 613.063 134.763 616.586 137.728C619.782 140.372 623.916 141.7 628.993 141.7C634.609 141.7 639.733 140.811 644.341 139.014L646.322 147.784C640.937 150.132 634.579 151.3 627.243 151.3C618.418 151.3 611.491 148.703 606.45 143.521C601.421 138.333 598.9 131.36 598.9 122.626C598.9 114.053 601.243 106.908 605.934 101.21C610.845 95.127 617.481 92.0853 625.832 92.0853C634.034 92.0853 640.243 95.127 644.46 101.21C647.799 106.031 649.477 112.007 649.477 119.104ZM637.42 115.826C637.509 112.072 636.679 108.841 634.965 106.108C632.777 102.586 629.408 100.831 624.895 100.831C620.761 100.831 617.392 102.544 614.83 105.983C612.725 108.717 611.473 112.001 611.088 115.814L637.42 115.826Z" fill="white"/>
<path d="M193.133 43.4427C189.616 43.4427 186.574 43.2708 184.042 42.9803V4.83221C187.583 4.28522 191.163 4.01561 194.746 4.02585C209.247 4.02585 215.925 11.1586 215.925 22.7856C215.925 36.1973 208.037 43.4427 193.133 43.4427ZM195.256 8.91739C193.299 8.91739 191.633 9.03597 190.251 9.32057V38.32C190.998 38.4386 192.433 38.4919 194.45 38.4919C203.951 38.4919 209.36 33.0845 209.36 22.9576C209.36 13.9275 204.467 8.91739 195.256 8.91739ZM236.736 43.7333C228.563 43.7333 223.267 37.6322 223.267 29.3492C223.267 20.7164 228.676 14.5619 237.198 14.5619C245.252 14.5619 250.667 20.3725 250.667 28.8926C250.667 37.6322 245.086 43.7333 236.736 43.7333ZM236.973 19.1036C232.484 19.1036 229.607 23.3015 229.607 29.1713C229.607 34.9285 232.543 39.1263 236.914 39.1263C241.285 39.1263 244.22 34.638 244.22 29.0527C244.22 23.3608 241.344 19.1036 236.973 19.1036ZM297.271 15.137L288.523 43.0989H282.823L279.2 30.956C278.299 27.9858 277.548 24.9719 276.952 21.9259H276.833C276.377 24.9735 275.511 28.027 274.592 30.956L270.737 43.0989H264.978L256.746 15.137H263.133L266.3 28.4302C267.048 31.5963 267.676 34.5846 268.198 37.4069H268.317C268.774 35.053 269.521 32.1122 270.618 28.4895L274.592 15.143H279.656L283.458 28.2049C284.377 31.371 285.124 34.4779 285.706 37.4128H285.872C286.275 34.5372 286.91 31.4837 287.77 28.2049L291.168 15.143L297.271 15.137ZM329.474 43.0989H323.259V27.0428C323.259 22.0979 321.361 19.6195 317.619 19.6195C313.936 19.6195 311.403 22.7856 311.403 26.4676V43.0989H305.188V23.1295C305.188 20.6571 305.129 18.0067 304.957 15.1311H310.425L310.715 19.4475H310.887C312.56 16.4592 315.952 14.5619 319.754 14.5619C325.625 14.5619 329.48 19.0503 329.48 26.355L329.474 43.0989ZM346.614 43.0989H340.393V2.3064H346.614V43.0989ZM369.275 43.7333C361.109 43.7333 355.807 37.6322 355.807 29.3492C355.807 20.7164 361.215 14.5619 369.732 14.5619C377.792 14.5619 383.201 20.3725 383.201 28.8926C383.207 37.6322 377.62 43.7333 369.275 43.7333ZM369.507 19.1036C365.017 19.1036 362.141 23.3015 362.141 29.1713C362.141 34.9285 365.082 39.1263 369.441 39.1263C373.818 39.1263 376.748 34.638 376.748 29.0527C376.754 23.3608 373.883 19.1036 369.507 19.1036ZM407.706 43.0989L407.256 39.8793H407.089C405.192 42.4704 402.422 43.7333 398.911 43.7333C393.9 43.7333 390.341 40.2232 390.341 35.5036C390.341 28.6021 396.325 25.0328 406.686 25.0328V24.5169C406.686 20.8349 404.735 18.991 400.88 18.991C398.122 18.991 395.703 19.6847 393.573 21.0662L392.31 16.981C394.896 15.3683 398.122 14.5619 401.912 14.5619C409.219 14.5619 412.907 18.4159 412.907 26.1297V36.4286C412.907 39.2508 413.032 41.4387 413.311 43.1048L407.706 43.0989ZM406.852 29.1713C399.949 29.1713 396.485 30.8433 396.485 34.8099C396.485 37.7448 398.271 39.1797 400.75 39.1797C403.911 39.1797 406.852 36.7665 406.852 33.4877V29.1713ZM443.089 43.0989L442.798 38.6105H442.626C440.841 42.002 437.84 43.7333 433.647 43.7333C426.904 43.7333 421.91 37.8041 421.91 29.4618C421.91 20.7164 427.088 14.556 434.157 14.556C437.899 14.556 440.551 15.8189 442.045 18.3566H442.17V2.3064H448.391V35.5629C448.391 38.2666 448.456 40.7984 448.622 43.0989H443.089ZM442.17 26.6455C442.17 22.7323 439.578 19.3942 435.622 19.3942C431.014 19.3942 428.197 23.4793 428.197 29.2306C428.197 34.8692 431.121 38.7291 435.498 38.7291C439.406 38.7291 442.17 35.3317 442.17 31.3058V26.6455ZM487.836 43.7333C479.669 43.7333 474.373 37.6322 474.373 29.3492C474.373 20.7164 479.782 14.5619 488.299 14.5619C496.358 14.5619 501.767 20.3725 501.767 28.8926C501.773 37.6322 496.192 43.7333 487.836 43.7333ZM488.067 19.1036C483.584 19.1036 480.707 23.3015 480.707 29.1713C480.707 34.9285 483.643 39.1263 488.008 39.1263C492.385 39.1263 495.315 34.638 495.315 29.0527C495.327 23.3608 492.45 19.1036 488.067 19.1036ZM535.193 43.0989H528.971V27.0428C528.971 22.0979 527.074 19.6195 523.331 19.6195C519.648 19.6195 517.122 22.7856 517.122 26.4676V43.0989H510.901V23.1295C510.901 20.6571 510.841 18.0067 510.669 15.1311H516.137L516.428 19.4475H516.6C518.266 16.4592 521.665 14.556 525.46 14.556C531.332 14.556 535.193 19.0443 535.193 26.349V43.0989ZM577.01 19.7974H570.172V33.3751C570.172 36.8318 571.37 38.5571 573.79 38.5571C574.887 38.5571 575.806 38.4386 576.548 38.2666L576.72 42.9862C575.516 43.4487 573.902 43.6799 571.898 43.6799C566.999 43.6799 564.069 40.9762 564.069 33.8968V19.7974H559.989V15.137H564.069V10.0143L570.172 8.17031V15.1311H577.01V19.7974ZM609.914 43.0989H603.704V27.1613C603.704 22.1571 601.812 19.6254 598.064 19.6254C594.844 19.6254 591.843 21.8133 591.843 26.2423V43.0989H585.633V2.3064H591.843V19.1036H591.967C593.925 16.0561 596.759 14.556 600.377 14.556C606.296 14.556 609.914 19.157 609.914 26.4676V43.0989ZM643.624 30.6121H624.972C625.09 35.9068 628.595 38.8951 633.785 38.8951C636.543 38.8951 639.081 38.4326 641.323 37.5729L642.289 41.8893C639.644 43.0396 636.531 43.6147 632.907 43.6147C624.159 43.6147 618.982 38.0887 618.982 29.5211C618.982 20.9476 624.284 14.5026 632.207 14.5026C639.354 14.5026 643.837 19.7974 643.837 27.7958C643.878 28.7397 643.806 29.685 643.624 30.6121ZM637.924 26.183C637.924 21.8666 635.748 18.819 631.774 18.819C628.204 18.819 625.381 21.9259 624.978 26.183H637.924Z" fill="white"/>
</svg>
