<svg width="243" height="223" viewBox="0 0 243 223" fill="none" xmlns="http://www.w3.org/2000/svg">
<path d="M10.6959 53.0944C19.7968 74.7631 33.9323 94.1254 51.285 108.685C68.6345 123.246 89.1629 132.973 110.227 136.617C131.29 140.259 152.842 137.81 172.109 129.586C191.377 121.357 208.314 107.372 220.749 89.4291C224.567 83.9187 228.003 77.9517 229.795 71.2061C231.585 64.4633 231.604 56.8297 228.778 50.1895C226.834 45.6243 223.6 41.688 219.73 38.9555C215.857 36.2256 211.368 34.6862 206.9 34.3999C197.965 33.8283 189.396 38.3076 183.561 45.3387C177.727 52.3701 174.47 61.7448 173.277 71.405C172.085 81.0663 172.853 91.0467 174.351 100.851C180.531 141.281 199.49 180.091 227.135 208.893" stroke="#C4C4C4" stroke-width="5"/>
<path fill-rule="evenodd" clip-rule="evenodd" d="M226.051 187.27L243 222.998L213.98 211.202C221.674 208.551 226.7 198.591 226.051 187.27Z" fill="#C4C4C4"/>
</svg>
