<svg width="331" height="216" viewBox="0 0 331 216" fill="none" xmlns="http://www.w3.org/2000/svg">
<g filter="url(#filter0_d_778_2473)">
<path d="M20 40C20 28.9543 28.9543 20 40 20H291C302.046 20 311 28.9543 311 40V176C311 187.046 302.046 196 291 196H40C28.9543 196 20 187.046 20 176V40Z" fill="#0B384D"/>
</g>
<mask id="mask0_778_2473" style="mask-type:alpha" maskUnits="userSpaceOnUse" x="109" y="75" width="114" height="114">
<rect x="109" y="75" width="114" height="114" fill="#D9D9D9"/>
</mask>
<g mask="url(#mask0_778_2473)">
<path d="M163.627 157.266V110.662C160.198 108.213 156.42 106.377 152.291 105.153C148.162 103.929 144.024 103.317 139.877 103.317C137.027 103.317 134.532 103.488 132.391 103.829C130.25 104.17 127.874 104.803 125.261 105.729C124.53 105.973 124.013 106.323 123.709 106.78C123.404 107.236 123.252 107.738 123.252 108.287V151.109C123.252 151.962 123.556 152.586 124.165 152.982C124.774 153.378 125.444 153.424 126.176 153.12C127.911 152.535 129.916 152.066 132.19 151.713C134.465 151.359 137.027 151.183 139.877 151.183C144.024 151.183 148.056 151.659 151.975 152.613C155.894 153.566 159.778 155.117 163.627 157.266ZM166.002 164.154C162.141 161.511 157.994 159.48 153.561 158.061C149.127 156.642 144.566 155.933 139.877 155.933C137.405 155.933 134.976 156.14 132.592 156.554C130.208 156.968 127.886 157.632 125.627 158.545C123.903 159.233 122.285 159.026 120.772 157.924C119.259 156.822 118.502 155.3 118.502 153.357V107.446C118.502 106.27 118.811 105.18 119.429 104.176C120.048 103.171 120.914 102.471 122.028 102.075C124.817 100.845 127.719 99.9525 130.733 99.3984C133.748 98.8442 136.796 98.5671 139.877 98.5671C145.066 98.5671 149.672 99.225 153.697 100.541C157.723 101.856 161.837 103.807 166.039 106.395C166.788 106.81 167.364 107.364 167.769 108.058C168.174 108.752 168.377 109.553 168.377 110.461V157.266C172.226 155.117 176.11 153.566 180.029 152.613C183.947 151.659 187.98 151.183 192.127 151.183C194.977 151.183 197.539 151.359 199.814 151.713C202.088 152.066 204.093 152.535 205.828 153.12C206.56 153.424 207.23 153.378 207.839 152.982C208.448 152.586 208.752 151.962 208.752 151.109V101.573C209.026 101.664 209.295 101.764 209.561 101.874C209.825 101.984 210.085 102.111 210.341 102.258C211.395 102.715 212.185 103.415 212.712 104.359C213.239 105.302 213.502 106.331 213.502 107.446V153.357C213.502 155.3 212.685 156.792 211.05 157.833C209.414 158.874 207.674 159.05 205.828 158.363C203.631 157.51 201.385 156.892 199.092 156.508C196.799 156.124 194.477 155.933 192.127 155.933C187.438 155.933 182.877 156.642 178.443 158.061C174.01 159.48 169.863 161.511 166.002 164.154ZM181.165 141.5V94L195.964 89.25V136.75L181.165 141.5Z" fill="white"/>
</g>
<path d="M121.102 58V44.9091H125.896C126.825 44.9091 127.594 45.0625 128.204 45.3693C128.813 45.6719 129.269 46.0831 129.572 46.603C129.874 47.1186 130.026 47.7003 130.026 48.348C130.026 48.8935 129.925 49.3537 129.725 49.7287C129.525 50.0994 129.256 50.3977 128.92 50.6236C128.587 50.8452 128.221 51.0071 127.82 51.1094V51.2372C128.255 51.2585 128.679 51.3991 129.092 51.6591C129.51 51.9148 129.855 52.2791 130.128 52.7521C130.401 53.2251 130.537 53.8004 130.537 54.478C130.537 55.147 130.379 55.7479 130.064 56.2805C129.753 56.8089 129.271 57.2287 128.619 57.5398C127.967 57.8466 127.134 58 126.12 58H121.102ZM123.077 56.3061H125.928C126.874 56.3061 127.552 56.1229 127.961 55.7564C128.37 55.3899 128.575 54.9318 128.575 54.3821C128.575 53.9687 128.47 53.5895 128.261 53.2443C128.053 52.8991 127.754 52.6243 127.366 52.4197C126.983 52.2152 126.527 52.1129 125.999 52.1129H123.077V56.3061ZM123.077 50.5724H125.724C126.167 50.5724 126.565 50.4872 126.919 50.3168C127.277 50.1463 127.56 49.9077 127.769 49.6009C127.982 49.2898 128.089 48.9233 128.089 48.5014C128.089 47.9602 127.899 47.5064 127.52 47.1399C127.141 46.7734 126.559 46.5902 125.775 46.5902H123.077V50.5724ZM132.726 58V48.1818H134.637V58H132.726ZM133.691 46.6669C133.359 46.6669 133.074 46.5561 132.835 46.3345C132.6 46.1087 132.483 45.8402 132.483 45.5291C132.483 45.2138 132.6 44.9453 132.835 44.7237C133.074 44.4979 133.359 44.3849 133.691 44.3849C134.024 44.3849 134.307 44.4979 134.542 44.7237C134.78 44.9453 134.9 45.2138 134.9 45.5291C134.9 45.8402 134.78 46.1087 134.542 46.3345C134.307 46.5561 134.024 46.6669 133.691 46.6669ZM137.209 58V48.1818H139.056V49.7415H139.158C139.337 49.2131 139.653 48.7976 140.104 48.495C140.56 48.1882 141.076 48.0348 141.651 48.0348C141.77 48.0348 141.911 48.0391 142.073 48.0476C142.239 48.0561 142.369 48.0668 142.463 48.0795V49.9077C142.386 49.8864 142.25 49.8629 142.054 49.8374C141.858 49.8075 141.662 49.7926 141.466 49.7926C141.014 49.7926 140.611 49.8885 140.258 50.0803C139.908 50.2678 139.631 50.5298 139.427 50.8665C139.222 51.1989 139.12 51.5781 139.12 52.0043V58H137.209ZM149.28 48.1818V49.7159H143.917V48.1818H149.28ZM145.355 45.8295H147.267V55.1172C147.267 55.4879 147.322 55.767 147.433 55.9545C147.544 56.1378 147.686 56.2635 147.861 56.3317C148.04 56.3956 148.234 56.4276 148.443 56.4276C148.596 56.4276 148.73 56.4169 148.845 56.3956C148.96 56.3743 149.05 56.3572 149.114 56.3445L149.459 57.9233C149.348 57.9659 149.191 58.0085 148.986 58.0511C148.781 58.098 148.526 58.1236 148.219 58.1278C147.716 58.1364 147.247 58.0469 146.813 57.8594C146.378 57.6719 146.026 57.3821 145.758 56.9901C145.49 56.598 145.355 56.1058 145.355 55.5135V45.8295ZM153.516 52.1705V58H151.605V44.9091H153.491V49.7798H153.612C153.842 49.2514 154.194 48.8317 154.667 48.5206C155.14 48.2095 155.758 48.054 156.521 48.054C157.194 48.054 157.782 48.1925 158.285 48.4695C158.792 48.7464 159.184 49.1598 159.461 49.7095C159.742 50.255 159.883 50.9368 159.883 51.755V58H157.972V51.9851C157.972 51.2649 157.786 50.7067 157.415 50.3104C157.045 49.9098 156.529 49.7095 155.869 49.7095C155.417 49.7095 155.012 49.8054 154.654 49.9972C154.3 50.1889 154.021 50.4702 153.817 50.8409C153.616 51.2074 153.516 51.6506 153.516 52.1705ZM174.49 48.348C174.422 47.7429 174.141 47.2741 173.646 46.9418C173.152 46.6051 172.53 46.4368 171.78 46.4368C171.243 46.4368 170.779 46.522 170.387 46.6925C169.994 46.8587 169.69 47.0888 169.472 47.3828C169.259 47.6726 169.153 48.0028 169.153 48.3736C169.153 48.6847 169.225 48.9531 169.37 49.179C169.519 49.4048 169.713 49.5945 169.952 49.7479C170.195 49.897 170.455 50.0227 170.732 50.125C171.009 50.223 171.275 50.304 171.531 50.3679L172.809 50.7003C173.227 50.8026 173.655 50.9411 174.094 51.1158C174.533 51.2905 174.94 51.5206 175.315 51.8061C175.69 52.0916 175.992 52.4453 176.222 52.8672C176.457 53.2891 176.574 53.794 176.574 54.3821C176.574 55.1236 176.382 55.782 175.999 56.3572C175.619 56.9325 175.068 57.3864 174.343 57.7188C173.623 58.0511 172.752 58.2173 171.729 58.2173C170.749 58.2173 169.901 58.0618 169.185 57.7507C168.469 57.4396 167.909 56.9986 167.504 56.4276C167.099 55.8523 166.875 55.1705 166.833 54.3821H168.814C168.852 54.8551 169.006 55.2493 169.274 55.5646C169.547 55.8757 169.894 56.108 170.316 56.2614C170.742 56.4105 171.209 56.4851 171.716 56.4851C172.274 56.4851 172.771 56.3977 173.205 56.223C173.644 56.044 173.99 55.7969 174.241 55.4815C174.492 55.1619 174.618 54.7891 174.618 54.3629C174.618 53.9751 174.507 53.6577 174.286 53.4105C174.068 53.1634 173.772 52.9588 173.397 52.7969C173.026 52.6349 172.607 52.4922 172.138 52.3686L170.591 51.9467C169.543 51.6612 168.712 51.2415 168.098 50.6875C167.489 50.1335 167.184 49.4006 167.184 48.4886C167.184 47.7344 167.389 47.076 167.798 46.5135C168.207 45.951 168.761 45.5142 169.46 45.2031C170.159 44.8878 170.947 44.7301 171.825 44.7301C172.711 44.7301 173.493 44.8857 174.171 45.1967C174.852 45.5078 175.389 45.9361 175.781 46.4815C176.173 47.0227 176.378 47.6449 176.395 48.348H174.49ZM183.364 48.1818V49.7159H178.001V48.1818H183.364ZM179.439 45.8295H181.35V55.1172C181.35 55.4879 181.406 55.767 181.517 55.9545C181.627 56.1378 181.77 56.2635 181.945 56.3317C182.124 56.3956 182.318 56.4276 182.527 56.4276C182.68 56.4276 182.814 56.4169 182.929 56.3956C183.044 56.3743 183.134 56.3572 183.198 56.3445L183.543 57.9233C183.432 57.9659 183.275 58.0085 183.07 58.0511C182.865 58.098 182.61 58.1236 182.303 58.1278C181.8 58.1364 181.331 58.0469 180.897 57.8594C180.462 57.6719 180.11 57.3821 179.842 56.9901C179.574 56.598 179.439 56.1058 179.439 55.5135V45.8295ZM189.508 58.1982C188.588 58.1982 187.785 57.9872 187.099 57.5653C186.412 57.1435 185.88 56.5533 185.501 55.7947C185.121 55.0362 184.932 54.1499 184.932 53.1357C184.932 52.1172 185.121 51.2266 185.501 50.4638C185.88 49.701 186.412 49.1087 187.099 48.6868C187.785 48.2649 188.588 48.054 189.508 48.054C190.429 48.054 191.232 48.2649 191.918 48.6868C192.604 49.1087 193.137 49.701 193.516 50.4638C193.895 51.2266 194.085 52.1172 194.085 53.1357C194.085 54.1499 193.895 55.0362 193.516 55.7947C193.137 56.5533 192.604 57.1435 191.918 57.5653C191.232 57.9872 190.429 58.1982 189.508 58.1982ZM189.515 56.5938C190.111 56.5938 190.606 56.4361 190.998 56.1207C191.39 55.8054 191.68 55.3857 191.867 54.8615C192.059 54.3374 192.155 53.7599 192.155 53.1293C192.155 52.5028 192.059 51.9276 191.867 51.4034C191.68 50.875 191.39 50.451 190.998 50.1314C190.606 49.8118 190.111 49.652 189.515 49.652C188.914 49.652 188.415 49.8118 188.019 50.1314C187.627 50.451 187.335 50.875 187.143 51.4034C186.956 51.9276 186.862 52.5028 186.862 53.1293C186.862 53.7599 186.956 54.3374 187.143 54.8615C187.335 55.3857 187.627 55.8054 188.019 56.1207C188.415 56.4361 188.914 56.5938 189.515 56.5938ZM196.218 58V48.1818H198.066V49.7415H198.168C198.347 49.2131 198.662 48.7976 199.114 48.495C199.57 48.1882 200.086 48.0348 200.661 48.0348C200.78 48.0348 200.921 48.0391 201.083 48.0476C201.249 48.0561 201.379 48.0668 201.473 48.0795V49.9077C201.396 49.8864 201.26 49.8629 201.064 49.8374C200.868 49.8075 200.672 49.7926 200.475 49.7926C200.024 49.7926 199.621 49.8885 199.267 50.0803C198.918 50.2678 198.641 50.5298 198.436 50.8665C198.232 51.1989 198.13 51.5781 198.13 52.0043V58H196.218ZM204.634 61.6818C204.348 61.6818 204.088 61.6584 203.854 61.6115C203.619 61.5689 203.445 61.522 203.33 61.4709L203.79 59.9048C204.139 59.9986 204.45 60.0391 204.723 60.0263C204.996 60.0135 205.237 59.9112 205.445 59.7195C205.658 59.5277 205.846 59.2145 206.008 58.7798L206.244 58.1278L202.652 48.1818H204.697L207.184 55.8011H207.286L209.773 48.1818H211.825L207.778 59.3104C207.591 59.8217 207.352 60.2543 207.062 60.608C206.773 60.9659 206.428 61.2344 206.027 61.4134C205.626 61.5923 205.162 61.6818 204.634 61.6818Z" fill="white"/>
<defs>
<filter id="filter0_d_778_2473" x="0" y="0" width="331" height="216" filterUnits="userSpaceOnUse" color-interpolation-filters="sRGB">
<feFlood flood-opacity="0" result="BackgroundImageFix"/>
<feColorMatrix in="SourceAlpha" type="matrix" values="0 0 0 0 0 0 0 0 0 0 0 0 0 0 0 0 0 0 127 0" result="hardAlpha"/>
<feOffset/>
<feGaussianBlur stdDeviation="10"/>
<feComposite in2="hardAlpha" operator="out"/>
<feColorMatrix type="matrix" values="0 0 0 0 0 0 0 0 0 0 0 0 0 0 0 0 0 0 0.25 0"/>
<feBlend mode="normal" in2="BackgroundImageFix" result="effect1_dropShadow_778_2473"/>
<feBlend mode="normal" in="SourceGraphic" in2="effect1_dropShadow_778_2473" result="shape"/>
</filter>
</defs>
</svg>
