<svg width="569" height="569" viewBox="0 0 569 569" fill="none" xmlns="http://www.w3.org/2000/svg">
<g clip-path="url(#clip0_1833_1666)">
<path d="M569 0H0V569H569V0Z" fill="#FDFDFD"/>
<path d="M285.975 530.442C375.211 530.442 447.55 523.155 447.55 514.165C447.55 505.176 375.211 497.889 285.975 497.889C196.739 497.889 124.399 505.176 124.399 514.165C124.399 523.155 196.739 530.442 285.975 530.442Z" fill="#DFE1EB"/>
<path d="M87.9785 108.937H235.111C235.111 108.937 228.062 90.8341 219.693 92.1894C211.323 93.5448 208.357 97.5835 208.357 97.5835C208.357 97.5835 209.12 85.1304 202.292 85.1532C195.464 85.1759 193.119 90.9262 193.119 90.9262C193.119 90.9262 186.724 56.9831 170.61 58.7447C154.496 60.5064 161.103 89.7291 161.543 97.5847C161.543 97.5847 151.852 85.5879 143.923 88.2451C135.993 90.9023 137.17 97.5847 137.17 97.5847C137.17 97.5847 129.987 92.0039 125.061 94.7579C120.135 97.5107 119.697 101.826 119.697 101.826C119.697 101.826 95.4677 97.8988 87.9785 108.937Z" fill="#CFF2FE"/>
<path d="M426.882 141.529H516.16C516.16 141.529 501.77 123.059 493.547 133.631C493.547 133.631 487.512 108.081 477.234 109.99C466.955 111.899 464.473 131.869 464.473 131.869C464.473 131.869 456.25 125.998 450.377 128.493C444.504 130.987 444.21 135.947 444.21 135.947C444.21 135.947 432.169 127.4 426.882 141.529Z" fill="#CFF2FE"/>
<path d="M45.6895 247.284H116.77C116.77 247.284 111.421 233.188 105.426 240.235C105.426 240.235 95.4678 215.126 87.9787 216.888C80.4895 218.65 86.3365 235.562 86.3365 235.562C86.3365 235.562 77.03 233.972 74.7961 235.562C72.561 237.151 71.827 241.728 71.827 241.728C71.827 241.728 66.2178 231.769 62.5614 235.562C58.905 239.354 58.9051 244.586 58.9051 244.586C58.9051 244.586 48.3319 240.235 45.6895 247.284Z" fill="#CFF2FE"/>
<path d="M445.188 463.029H518.896C518.896 463.029 520.125 455.014 511.755 452.247C503.385 449.479 499.861 453.442 499.861 453.442C499.861 453.442 505.147 442.872 497.659 441.551C490.17 440.23 487.968 444.214 487.968 444.214C487.968 444.214 491.271 427.014 477.506 430.098C463.74 433.182 468.756 455.495 468.756 455.495C468.756 455.495 461.959 450.169 459.106 452.248C456.252 454.326 455.776 457.639 455.776 457.639C455.776 457.639 446.901 453.232 445.188 463.029Z" fill="#CFF2FE"/>
<path d="M161.541 178.798C161.541 178.798 138.861 127.577 196.125 105.397C196.125 105.397 208.096 159.35 161.541 178.798Z" fill="#F77478"/>
<path d="M161.541 178.798C164.193 151.054 196.125 105.397 196.125 105.397C196.125 105.397 208.097 159.35 161.541 178.798Z" fill="#F5575C"/>
<path d="M192.895 127.928L181.598 129.386C184.997 123.657 187.464 120.211 187.555 120.087C187.74 119.834 187.683 119.477 187.429 119.293C187.175 119.108 186.819 119.165 186.635 119.419C186.546 119.541 184.182 122.841 180.891 128.354L180.09 119.701C180.061 119.388 179.789 119.157 179.471 119.186C179.158 119.215 178.927 119.492 178.957 119.805L179.904 130.03C178.099 133.128 176.078 136.802 174.028 140.922L171.501 128.38C171.439 128.072 171.138 127.871 170.83 127.934C170.522 127.997 170.323 128.296 170.384 128.604L173.126 142.209C173.146 142.311 173.2 142.398 173.266 142.471C171.725 145.642 170.184 149.054 168.722 152.648L164.727 140.645C164.628 140.347 164.305 140.188 164.008 140.285C163.71 140.384 163.548 140.707 163.647 141.004L168.066 154.284C166.707 157.734 165.429 161.337 164.303 165.048L160.804 155.892C160.692 155.599 160.364 155.455 160.069 155.563C159.776 155.676 159.629 156.005 159.74 156.299L163.654 166.542C163.685 166.621 163.746 166.674 163.803 166.73C160.143 179.406 158.32 193.224 160.985 206.301C161.04 206.571 161.277 206.756 161.542 206.756C161.579 206.756 161.618 206.752 161.656 206.745C161.964 206.682 162.162 206.382 162.1 206.075C159.451 193.078 161.306 179.32 164.984 166.709L176.669 163.518C176.972 163.435 177.151 163.122 177.069 162.819C176.987 162.515 176.675 162.341 176.37 162.42L165.367 165.424C166.485 161.734 167.754 158.149 169.106 154.718L182.76 152.987C183.072 152.947 183.293 152.663 183.253 152.351C183.213 152.039 182.933 151.826 182.617 151.858L169.589 153.509C171.144 149.655 172.794 146.005 174.441 142.635L188.877 142.093C189.191 142.082 189.435 141.818 189.424 141.503C189.413 141.189 189.15 140.936 188.835 140.956L175.014 141.474C177.055 137.37 179.068 133.709 180.867 130.623L193.039 129.053C193.351 129.012 193.571 128.727 193.531 128.415C193.492 128.109 193.208 127.891 192.895 127.928Z" fill="#CFF2FE"/>
<path d="M140.135 158.701C103.218 115.958 140.955 89.6699 140.955 89.6699C168.676 123.605 140.135 158.701 140.135 158.701Z" fill="#C0DD12"/>
<path d="M140.135 158.701C132.385 118.37 140.955 89.6699 140.955 89.6699C168.676 123.605 140.135 158.701 140.135 158.701Z" fill="#80A600"/>
<path d="M164.587 208.553C147.502 191.679 140.914 166.026 138.66 144.07L145.197 141.351C145.487 141.23 145.625 140.898 145.504 140.608C145.385 140.318 145.051 140.179 144.761 140.301L138.543 142.886C138.255 139.901 138.045 136.988 137.9 134.182L147.714 128.995C147.992 128.848 148.099 128.504 147.951 128.227C147.805 127.948 147.459 127.841 147.183 127.99L137.841 132.927C137.706 129.953 137.64 127.107 137.625 124.427L148.609 118.269C148.883 118.115 148.981 117.768 148.826 117.494C148.673 117.221 148.328 117.121 148.051 117.277L137.62 123.125C137.621 119.593 137.709 116.374 137.835 113.562L145.996 108.265C146.26 108.094 146.334 107.741 146.163 107.477C145.993 107.215 145.641 107.139 145.376 107.31L137.902 112.161C138.234 105.725 138.742 101.748 138.764 101.58C138.806 101.27 138.588 100.983 138.276 100.941C137.965 100.895 137.678 101.117 137.636 101.429C137.613 101.596 137.106 105.576 136.772 112.019C133.888 109.584 131.029 107.069 130.655 106.561C130.574 106.344 130.366 106.189 130.121 106.189C129.807 106.189 129.552 106.444 129.552 106.758C129.552 107.069 129.564 107.465 136.703 113.447C136.576 116.286 136.487 119.533 136.487 123.103L128.723 116.601C128.483 116.399 128.125 116.432 127.921 116.671C127.72 116.913 127.752 117.271 127.992 117.474L136.491 124.594C136.508 127.229 136.576 130.021 136.709 132.934L128.673 127.578C128.41 127.404 128.058 127.474 127.885 127.736C127.711 127.998 127.781 128.351 128.043 128.525L136.777 134.348C136.92 137.09 137.126 139.934 137.405 142.846L131.214 139.446C130.939 139.296 130.593 139.396 130.442 139.671C130.29 139.947 130.392 140.293 130.667 140.444L137.543 144.22C139.826 166.373 146.493 192.282 163.789 209.364C163.9 209.473 164.045 209.528 164.189 209.528C164.336 209.528 164.483 209.471 164.594 209.359C164.813 209.135 164.811 208.775 164.587 208.553Z" fill="#CFF2FE"/>
<path d="M152.118 202.582L152.084 202.605C150.73 203.39 110.399 226.31 81.2438 185.182C81.2324 185.171 81.2324 185.171 81.2324 185.171C81.2324 185.171 123.077 168.021 152.118 202.582Z" fill="#F77478"/>
<path d="M152.118 202.582L152.084 202.605C150.73 203.39 110.399 226.31 81.2437 185.182C81.9492 185.433 104.686 193.854 152.118 202.582Z" fill="#F5575C"/>
<path d="M159.776 203.461C159.591 203.427 152.86 202.177 143.461 200.309L142.118 195.969C142.026 195.67 141.708 195.502 141.407 195.594C141.106 195.687 140.939 196.005 141.031 196.305L142.191 200.055C140.185 199.654 138.07 199.227 135.883 198.781L134.646 192.121C134.589 191.811 134.291 191.603 133.982 191.665C133.674 191.723 133.469 192.019 133.527 192.329L134.681 198.536C131.373 197.857 127.918 197.136 124.428 196.389L122.604 187.117C122.543 186.808 122.246 186.606 121.936 186.668C121.628 186.729 121.428 187.028 121.488 187.336L123.217 196.129C119.566 195.342 115.894 194.532 112.333 193.716L109.371 184.999C109.271 184.701 108.948 184.544 108.649 184.643C108.351 184.744 108.192 185.067 108.293 185.364L111.03 193.416C107.483 192.595 104.068 191.772 100.914 190.967L98.9466 185.004C98.8476 184.705 98.529 184.54 98.2285 184.642C97.9304 184.74 97.7676 185.062 97.8666 185.36L99.6044 190.63C95.6771 189.609 92.2074 188.624 89.4819 187.715C89.1803 187.614 88.8616 187.778 88.7626 188.075C88.6636 188.373 88.8241 188.695 89.1223 188.794C91.7305 189.664 95.0148 190.604 98.7281 191.577L93.3363 193.899C93.0472 194.023 92.9141 194.358 93.0392 194.647C93.1314 194.862 93.342 194.991 93.5627 194.991C93.6378 194.991 93.7141 194.976 93.7869 194.944L100.526 192.041C103.594 192.825 106.91 193.626 110.354 194.425L102.679 198.772C102.406 198.927 102.309 199.274 102.465 199.548C102.57 199.733 102.762 199.836 102.961 199.836C103.056 199.836 103.153 199.812 103.241 199.762L111.995 194.804C115.42 195.589 118.948 196.371 122.462 197.129L113.518 202.901C113.254 203.07 113.177 203.423 113.348 203.687C113.456 203.856 113.639 203.948 113.826 203.948C113.932 203.948 114.039 203.918 114.134 203.857L124.036 197.467C127.508 198.211 130.947 198.929 134.243 199.605L127.963 205.783C127.739 206.004 127.736 206.364 127.957 206.588C128.068 206.702 128.215 206.759 128.362 206.759C128.506 206.759 128.65 206.704 128.761 206.595L135.586 199.881C137.828 200.339 139.993 200.775 142.045 201.185L139.382 204.333C139.179 204.573 139.209 204.931 139.449 205.135C139.556 205.225 139.687 205.269 139.816 205.269C139.977 205.269 140.138 205.201 140.25 205.068L143.319 201.44C152.689 203.303 159.387 204.546 159.572 204.581C159.608 204.587 159.642 204.59 159.676 204.59C159.945 204.59 160.185 204.397 160.235 204.124C160.289 203.815 160.086 203.519 159.776 203.461Z" fill="#CFF2FE"/>
<path d="M255.286 440.269C255.286 440.269 231.28 495.704 176.621 482.374C176.621 482.374 196.85 420.087 255.286 440.269Z" fill="#C0DD12"/>
<path d="M255.286 440.269L176.621 482.374C176.621 482.374 196.85 420.087 255.286 440.269Z" fill="#80A600"/>
<path d="M185.454 478.294L196.826 472.206L195.522 479.264C195.465 479.573 195.67 479.871 195.978 479.928C196.283 479.985 196.582 479.781 196.642 479.471L198.111 471.519L209.842 465.24L208.55 477.181C208.517 477.492 208.742 477.773 209.054 477.808C209.366 477.842 209.647 477.614 209.682 477.302L211.058 464.589L223.462 457.949L221.533 472.06C221.491 472.37 221.708 472.657 222.02 472.7C222.332 472.745 222.619 472.526 222.661 472.213L224.701 457.286L237.476 450.449L235.427 461.205C235.368 461.514 235.571 461.812 235.88 461.871C236.185 461.93 236.486 461.728 236.545 461.418L238.767 449.759L258.708 439.086C258.986 438.938 259.088 438.593 258.941 438.316C258.804 438.058 258.496 437.95 258.232 438.054C258.212 438.062 258.191 438.071 258.171 438.082L238.226 448.758L224.754 443.352C224.614 443.295 224.464 443.3 224.334 443.351C224.193 443.407 224.074 443.517 224.014 443.669C223.897 443.961 224.038 444.292 224.33 444.408L236.918 449.459L224.161 456.287L208.402 449.015C208.255 448.948 208.094 448.947 207.954 449.003C207.824 449.054 207.71 449.155 207.646 449.294C207.514 449.578 207.639 449.917 207.924 450.048L222.902 456.959L210.491 463.602L197.193 458.29C197.053 458.234 196.904 458.237 196.774 458.289C196.632 458.344 196.514 458.455 196.454 458.607C196.337 458.9 196.479 459.231 196.771 459.347L209.18 464.304L197.568 470.52L189.561 467.289C189.421 467.232 189.271 467.236 189.14 467.288C188.999 467.344 188.882 467.453 188.82 467.604C188.703 467.896 188.844 468.227 189.135 468.344L196.26 471.22L184.918 477.291C184.64 477.439 184.538 477.784 184.685 478.061C184.832 478.337 185.172 478.445 185.454 478.294Z" fill="#CFF2FE"/>
<path d="M227.287 419.104C227.287 419.104 205.111 475.295 253.21 504.48C253.21 504.48 282.902 446.106 227.287 419.104Z" fill="#F77478"/>
<path d="M227.287 419.104L253.21 504.48C253.21 504.48 282.902 446.106 227.287 419.104Z" fill="#F5575C"/>
<path d="M249.843 495.35L246.096 483.008L242.032 488.925C241.853 489.183 241.499 489.249 241.241 489.072C240.985 488.896 240.917 488.541 241.093 488.28L245.672 481.613L241.807 468.88L234.286 478.243C234.089 478.488 233.73 478.527 233.486 478.331C233.241 478.135 233.202 477.776 233.398 477.53L241.406 467.56L237.318 454.099L228.714 465.447C228.524 465.697 228.168 465.746 227.917 465.556C227.666 465.366 227.617 465.01 227.808 464.758L236.911 452.753L232.702 438.889L226.552 447.949C226.375 448.209 226.021 448.277 225.762 448.1C225.505 447.926 225.434 447.571 225.611 447.31L232.276 437.489L225.705 415.848C225.614 415.548 225.784 415.23 226.084 415.138C226.364 415.054 226.658 415.194 226.771 415.454C226.78 415.475 226.788 415.495 226.795 415.518L233.368 437.164L246.723 442.857C246.862 442.917 246.965 443.025 247.021 443.153C247.081 443.292 247.087 443.455 247.023 443.604C246.899 443.893 246.566 444.028 246.277 443.904L233.801 438.585L238.005 452.431L254.294 458.42C254.445 458.475 254.559 458.588 254.619 458.726C254.676 458.855 254.685 459.007 254.632 459.149C254.524 459.444 254.196 459.595 253.902 459.487L238.419 453.796L242.509 467.265L255.672 472.901C255.811 472.96 255.913 473.068 255.97 473.196C256.03 473.335 256.036 473.498 255.972 473.648C255.848 473.937 255.514 474.072 255.225 473.948L242.941 468.689L246.768 481.292L254.717 484.662C254.856 484.721 254.961 484.83 255.017 484.958C255.077 485.097 255.083 485.258 255.019 485.408C254.896 485.697 254.561 485.832 254.273 485.71L247.2 482.711L250.938 495.022C251.029 495.323 250.859 495.64 250.559 495.732C250.252 495.82 249.935 495.656 249.843 495.35Z" fill="#CFF2FE"/>
<path d="M417.341 228.893C417.341 228.893 415.634 173.165 467.265 162.866C467.265 162.866 474.901 222.839 417.341 228.893Z" fill="#C0DD12"/>
<path d="M417.34 228.893L467.264 162.866C467.264 162.866 474.9 222.839 417.34 228.893Z" fill="#80A600"/>
<path d="M461.732 184.334L450.195 186.343L460.391 172.901C460.581 172.651 460.532 172.293 460.281 172.103C460.033 171.915 459.675 171.962 459.484 172.212L449.475 185.406V175.498C449.475 175.184 449.22 174.929 448.906 174.929C448.592 174.929 448.337 175.184 448.337 175.498V186.907L439.118 199.06L437.941 187.473C437.91 187.16 437.628 186.934 437.317 186.964C437.004 186.996 436.776 187.275 436.809 187.588L438.11 200.389L431.092 209.64L430.712 199.243C430.701 198.929 430.496 198.682 430.123 198.695C429.81 198.706 429.564 198.97 429.574 199.284L430.005 211.073L423.105 220.17L422.749 213.768C422.732 213.456 422.468 213.226 422.151 213.232C421.837 213.249 421.597 213.517 421.614 213.831L422.043 221.57L411.35 235.665C411.16 235.915 411.209 236.273 411.461 236.463C411.563 236.54 411.684 236.579 411.804 236.579C411.975 236.579 412.146 236.501 412.257 236.353L422.656 222.644C422.66 222.644 422.664 222.644 422.668 222.644L435.425 222.009C435.739 221.993 435.98 221.726 435.965 221.413C435.949 221.1 435.682 220.853 435.37 220.872L423.555 221.46L430.792 211.921L444.164 210.384C444.476 210.349 444.702 210.067 444.665 209.754C444.63 209.441 444.325 209.213 444.035 209.254L431.743 210.667L439.013 201.083L456.401 198.472C456.712 198.425 456.926 198.135 456.879 197.824C456.833 197.514 456.539 197.305 456.233 197.346L439.998 199.784L449.184 187.673L461.926 185.455C462.235 185.402 462.443 185.107 462.388 184.796C462.337 184.487 462.034 184.282 461.732 184.334Z" fill="#CFF2FE"/>
<path d="M424.495 238.592C424.495 238.592 467.121 195.787 513.111 228.193C513.111 228.193 471.493 278.759 424.495 238.592Z" fill="#F77478"/>
<path d="M424.495 238.592L513.111 228.193C513.111 228.193 471.493 278.759 424.495 238.592Z" fill="#F5575C"/>
<path d="M503.398 228.76L490.588 230.263L494.384 224.171C494.55 223.905 494.468 223.553 494.202 223.387C493.939 223.222 493.586 223.302 493.418 223.569L489.14 230.432L475.925 231.984L481.497 221.344C481.643 221.066 481.535 220.722 481.257 220.576C480.98 220.431 480.635 220.539 480.488 220.816L474.554 232.144L460.581 233.784L467.539 221.358C467.692 221.084 467.594 220.737 467.32 220.584C467.046 220.429 466.699 220.527 466.545 220.803L459.185 233.948L444.793 235.636L450.636 226.377C450.803 226.111 450.724 225.76 450.458 225.592C450.197 225.426 449.842 225.504 449.674 225.77L443.34 235.807L420.877 238.443C420.565 238.479 420.342 238.763 420.378 239.074C420.412 239.365 420.658 239.577 420.942 239.577C420.965 239.577 420.987 239.576 421.01 239.574L443.478 236.937L454.039 246.898C454.149 247.002 454.289 247.053 454.429 247.053C454.58 247.053 454.732 246.993 454.842 246.874C455.057 246.646 455.048 246.285 454.818 246.07L444.952 236.764L459.322 235.078L471.327 247.612C471.44 247.729 471.588 247.787 471.738 247.787C471.879 247.787 472.021 247.735 472.132 247.629C472.358 247.411 472.366 247.052 472.15 246.825L460.739 234.912L474.719 233.271L485.15 243.08C485.261 243.184 485.401 243.235 485.541 243.235C485.692 243.235 485.843 243.175 485.955 243.056C486.17 242.828 486.16 242.467 485.93 242.252L476.195 233.098L489.277 231.562L495.546 237.499C495.656 237.603 495.798 237.655 495.937 237.655C496.089 237.655 496.239 237.596 496.351 237.478C496.567 237.249 496.557 236.889 496.328 236.673L490.749 231.389L503.527 229.89C503.84 229.853 504.062 229.57 504.026 229.258C503.992 228.946 503.716 228.722 503.398 228.76Z" fill="#CFF2FE"/>
<path d="M432.863 257.132C432.863 257.132 483.176 247.091 500.297 291.701C500.297 291.701 447.024 307.693 432.863 257.132Z" fill="#C0DD12"/>
<path d="M432.863 257.132L500.297 291.701C500.297 291.701 447.024 307.693 432.863 257.132Z" fill="#80A600"/>
<path d="M493.176 287.508L483.428 282.511L488.987 280.008C489.23 279.898 489.338 279.612 489.229 279.369C489.121 279.129 488.835 279.017 488.59 279.126L482.326 281.945L472.268 276.79L481.231 271.919C481.466 271.792 481.552 271.498 481.425 271.264C481.297 271.029 481.004 270.943 480.768 271.069L471.226 276.255L460.593 270.804L471.377 265.328C471.615 265.207 471.71 264.916 471.589 264.678C471.468 264.439 471.178 264.344 470.939 264.467L459.53 270.259L448.579 264.645L457.08 260.875C457.323 260.767 457.433 260.481 457.325 260.238C457.218 259.996 456.933 259.884 456.688 259.992L447.474 264.079L430.38 255.316C430.142 255.194 429.852 255.289 429.729 255.525C429.616 255.746 429.689 256.012 429.889 256.147C429.905 256.157 429.921 256.167 429.939 256.176L447.037 264.941L449.777 276.962C449.805 277.087 449.881 277.189 449.978 277.255C450.085 277.327 450.22 277.356 450.354 277.325C450.615 277.266 450.777 277.006 450.718 276.747L448.159 265.516L459.095 271.122L461.637 285.64C461.661 285.776 461.738 285.887 461.844 285.959C461.944 286.026 462.069 286.056 462.197 286.033C462.46 285.986 462.635 285.737 462.59 285.474L460.174 271.674L470.813 277.128L473.533 288.981C473.561 289.107 473.636 289.209 473.735 289.275C473.842 289.347 473.977 289.375 474.112 289.344C474.373 289.285 474.535 289.025 474.475 288.765L471.936 277.704L481.89 282.807L483.505 289.959C483.533 290.084 483.609 290.188 483.708 290.254C483.815 290.325 483.948 290.354 484.083 290.324C484.343 290.265 484.506 290.007 484.447 289.746L483.01 283.38L492.733 288.365C492.971 288.486 493.261 288.392 493.384 288.155C493.507 287.921 493.418 287.631 493.176 287.508Z" fill="#F5575C"/>
<path d="M528.495 497.173C528.495 501.204 498.905 504.471 462.404 504.471C425.902 504.471 396.312 501.204 396.312 497.173C396.312 493.142 425.902 489.875 462.404 489.875C497.104 489.875 528.495 491.34 528.495 497.173Z" fill="#DFE1EB"/>
<path d="M499.982 271.333H497.94V496.619H499.982V271.333Z" fill="#1B3CAE"/>
<path d="M467.03 271.333H464.988V496.619H467.03V271.333Z" fill="#071B69"/>
<path d="M444.103 271.333H442.061V496.619H444.103V271.333Z" fill="#1B3CAE"/>
<path d="M411.15 271.333H409.109V496.619H411.15V271.333Z" fill="#071B69"/>
<path d="M514.435 269.612H397.113V273.059H514.435V269.612Z" fill="#FE9D00"/>
<path d="M514.437 269.609H458.47V273.057H514.437V269.609Z" fill="#FEC42E"/>
<path d="M446.884 302.669C446.884 303.784 446.872 304.9 446.849 306.003C445.723 361.549 416.488 410.187 372.788 438.285C347.684 454.433 317.812 463.799 285.743 463.799C196.751 463.799 124.613 391.661 124.613 302.669C124.613 213.678 196.751 141.528 285.743 141.528C315.023 141.528 342.472 149.335 366.131 162.98C403.355 184.454 431.19 220.358 441.979 263.055C445.177 275.733 446.884 289.002 446.884 302.669Z" fill="#0079D3"/>
<path d="M399.837 275.622C399.837 263.288 398.297 251.312 395.411 239.871C385.674 201.336 360.553 168.933 326.959 149.553C323.977 147.833 320.922 146.227 317.812 144.718C307.449 142.626 296.724 141.527 285.743 141.527C196.751 141.527 124.613 213.677 124.613 302.668C124.613 321.888 127.984 340.318 134.157 357.408C160.331 395.818 204.42 421.041 254.408 421.041C283.35 421.041 310.31 412.588 332.966 398.014C372.405 372.656 398.789 328.761 399.807 278.631C399.827 277.636 399.837 276.628 399.837 275.622Z" fill="#37A7F5"/>
<path d="M439.065 298.094C433.933 293.395 428.061 278.157 428.061 278.157C428.061 278.157 429.154 269.656 435.424 265.787C438.292 264.011 440.34 263.738 441.979 263.055C431.19 220.358 403.355 184.454 366.131 162.98C363.024 162.741 359.963 162.855 357.277 163.583C346.41 166.519 331.877 173.199 331.877 173.199V188.255L351.405 199.123L350.791 218.799C350.791 218.799 356.925 230.884 350.791 232.477C344.657 234.071 331.877 244.051 331.877 244.051C331.877 244.051 318.665 254.771 323.433 260.279C328.202 265.787 340.537 271.34 340.537 271.34C340.537 271.34 342.882 272.25 351.405 265.787C359.929 259.323 367.565 248.17 367.565 248.17L376.805 238.645C376.805 238.645 385.807 237.587 387.844 242.879C389.881 248.17 405.392 242.287 399.11 249.923C392.817 257.559 381.483 265.195 381.483 265.195C381.483 265.195 372.253 266.469 368.737 272C365.209 277.531 362.273 276.598 365.801 280.296C369.317 283.995 376.703 280.296 376.703 280.296L382.461 272L395.161 278.157C395.161 278.157 396.959 293.144 387.844 302.669C378.717 312.183 371.081 314.595 362.865 316.917C354.637 319.238 345.237 321.56 342.301 330.971C339.365 340.383 332.321 349.782 339.957 354.471C347.593 359.171 352.873 360.628 360.509 363.723C368.145 366.807 375.85 355.336 376.703 374.875C377.545 394.415 379.457 385.641 381.141 400.31C382.826 414.978 383.645 410.859 381.483 419.667C379.309 428.487 378.137 426.814 374.017 435.872C373.653 436.669 373.244 437.477 372.788 438.285C416.488 410.187 445.723 361.549 446.849 306.004C444.437 302.999 441.683 300.484 439.065 298.094ZM278.499 351.297C278.499 351.297 270.793 345.959 267.268 340.383C263.744 334.805 256.696 334.169 256.696 334.169L247.005 328.75L232.979 322.833C232.979 322.833 223.218 323.934 218.372 323.745C213.526 323.556 212.586 316.247 212.586 316.247L204.826 304.331C204.826 304.331 208.24 297.062 212.586 293.315C216.932 289.567 212.586 280.294 212.586 280.294L217.491 278.157L230.584 276.358L240.86 280.319L247.446 287.587C247.446 287.587 249.207 292.217 258.018 293.315C266.828 294.413 259.339 291.336 259.339 287.587C259.339 283.839 256.695 279.883 255.814 278.157C254.934 276.431 253.171 271.952 251.409 271.334C249.648 270.716 253.611 264.463 256.255 263.142C258.898 261.821 264.625 260.939 269.47 256.975C274.316 253.01 269.911 253.01 270.351 249.046C270.792 245.081 268.59 245.081 269.911 240.676C271.232 236.27 268.149 230.104 268.149 230.104C268.149 230.104 264.184 227.02 263.596 224.377C263.008 221.734 269.911 216.007 269.911 216.007L278.498 207.197L273.622 199.12C273.622 199.12 273.435 192.66 273.622 189.576C273.809 186.492 264.184 187.373 260.22 188.695C256.255 190.016 247.444 192.954 247.444 192.954L239.129 199.12C239.129 199.12 233.788 201.911 230.583 202.792C227.377 203.672 224.978 202.351 222.036 199.12C219.095 195.89 218.811 196.624 212.584 196.183C206.358 195.743 205.154 194.862 202.291 192.952C199.428 191.044 203.833 185.61 205.221 179.884C206.61 174.157 203.393 172.836 200.735 173.276C199.082 173.551 188.617 177.405 180.943 180.278C157.417 200.443 139.775 227.27 130.939 257.838C132.538 261.002 134.61 264.155 137.175 266.225C144.179 271.876 148.77 272.392 153.175 272.002C157.58 271.612 157.58 278.119 159.342 280.293C161.103 282.466 165.068 290.894 170.61 293.227C176.152 295.56 177.843 295.3 185.848 295.31C193.853 295.321 187.534 301.026 189.148 306.458C190.762 311.889 191.756 310.606 190.098 314.498C188.44 318.39 188.857 320.849 185.848 323.744C182.84 326.639 180.927 327.457 176.962 331.454C172.998 335.45 170.61 339.164 170.61 339.164C170.61 339.164 165.949 345.959 165.949 351.296C165.949 356.634 174.692 369.742 174.692 369.742C174.692 369.742 184.009 375.032 189.147 376.539C194.285 378.046 198.986 380.759 204.839 382.503C210.69 384.248 212.643 391.331 216.607 396.176C220.572 401.022 222.035 410.987 222.035 410.987C222.035 410.987 224.977 419.083 227.621 423.742C230.264 428.401 233.347 434.501 237.312 438.146C241.277 441.791 250.527 452.246 250.527 452.246L255.813 448.8L251.408 442.43C251.408 442.43 250.087 436.704 249.205 433.62C248.324 430.536 247.003 425.25 247.003 418.523C247.003 411.797 247.884 408.512 247.884 408.512C247.884 408.512 247.443 410.273 251.849 400.305C253.705 396.105 254.051 398.378 263.595 396.176C273.138 393.974 269.469 390.89 273.621 387.988C277.772 385.088 280.922 380.317 284.129 374.873C287.336 369.429 284.887 367.103 284.75 363.718C284.616 360.337 278.499 351.297 278.499 351.297Z" fill="#80A600"/>
<path d="M397.814 251.418C391.382 258.524 381.483 265.194 381.483 265.194C381.483 265.194 372.254 266.468 368.737 271.999C365.209 277.53 362.273 276.597 365.801 280.295C369.318 283.994 376.703 280.295 376.703 280.295L382.462 271.999L395.162 278.156C395.162 278.156 396.96 293.143 387.844 302.668C378.718 312.182 371.082 314.594 362.865 316.916C354.637 319.237 345.238 321.559 342.301 330.97C339.365 340.381 332.321 349.781 339.957 354.47C347.593 359.17 352.874 360.627 360.509 363.722C364.067 365.159 367.639 363.437 370.527 363.163C388.359 339.555 399.164 310.344 399.807 278.63C399.827 277.634 399.838 276.627 399.838 275.621C399.838 267.375 399.133 259.293 397.814 251.418ZM351.405 265.787C359.929 259.323 367.565 248.171 367.565 248.171L376.806 238.645C376.806 238.645 385.807 237.587 387.844 242.879C388.874 245.553 393.343 245.373 396.704 245.527C396.304 243.63 395.883 241.741 395.411 239.871C388.043 210.712 371.861 185.068 349.869 165.917C340.786 169.103 331.877 173.199 331.877 173.199V188.255L351.405 199.123L350.791 218.799C350.791 218.799 356.925 230.884 350.791 232.477C344.657 234.071 331.877 244.051 331.877 244.051C331.877 244.051 318.665 254.771 323.433 260.279C328.202 265.787 340.538 271.34 340.538 271.34C340.538 271.34 342.882 272.251 351.405 265.787ZM278.5 351.297C278.5 351.297 270.793 345.959 267.269 340.383C263.744 334.805 256.697 334.169 256.697 334.169L247.005 328.75L232.98 322.834C232.98 322.834 223.218 323.934 218.372 323.745C213.527 323.556 212.587 316.247 212.587 316.247L204.827 304.331C204.827 304.331 208.241 297.062 212.587 293.315C216.933 289.568 212.587 280.294 212.587 280.294L217.491 278.157L230.584 276.358L240.86 280.319L247.446 287.587C247.446 287.587 249.207 292.217 258.018 293.315C266.828 294.413 259.339 291.336 259.339 287.587C259.339 283.839 256.695 279.883 255.815 278.157C254.934 276.432 253.171 271.952 251.409 271.334C249.648 270.717 253.611 264.463 256.255 263.142C258.899 261.821 264.625 260.939 269.471 256.975C274.316 253.01 269.911 253.01 270.351 249.046C270.792 245.081 268.59 245.081 269.911 240.676C271.232 236.27 268.149 230.104 268.149 230.104C268.149 230.104 264.185 227.02 263.596 224.377C263.008 221.734 269.911 216.007 269.911 216.007L278.498 207.197L273.622 199.12C273.622 199.12 273.435 192.66 273.622 189.576C273.809 186.492 264.185 187.373 260.22 188.695C256.255 190.016 247.445 192.954 247.445 192.954L239.129 199.12C239.129 199.12 233.789 201.911 230.583 202.792C227.377 203.672 224.978 202.351 222.037 199.12C219.095 195.89 218.811 196.624 212.584 196.183C206.358 195.743 205.154 194.862 202.291 192.952C199.428 191.044 203.833 185.61 205.221 179.884C206.61 174.157 203.393 172.836 200.735 173.276C199.082 173.551 188.617 177.405 180.943 180.279C167.715 191.616 156.348 205.062 147.359 220.093C147.35 220.109 147.34 220.124 147.33 220.14C145.346 223.462 143.477 226.861 141.73 230.332C141.715 230.362 141.701 230.393 141.686 230.422C139.948 233.881 138.331 237.41 136.841 241.005C136.822 241.051 136.803 241.099 136.783 241.146C135.302 244.729 133.945 248.376 132.721 252.085C132.701 252.143 132.683 252.202 132.664 252.262C132.057 254.106 131.48 255.965 130.938 257.838C132.537 261.003 134.609 264.155 137.174 266.225C144.178 271.876 148.769 272.392 153.174 272.003C157.579 271.612 157.579 278.119 159.341 280.293C161.102 282.466 165.067 290.894 170.609 293.227C176.151 295.56 177.842 295.3 185.847 295.31C193.852 295.321 187.534 301.026 189.147 306.458C190.761 311.889 191.755 310.606 190.097 314.498C188.439 318.39 188.856 320.849 185.847 323.744C182.839 326.639 180.926 327.457 176.961 331.454C172.997 335.451 170.609 339.164 170.609 339.164C170.609 339.164 165.948 345.959 165.948 351.296C165.948 356.634 174.691 369.742 174.691 369.742C174.691 369.742 184.008 375.032 189.146 376.539C194.284 378.046 198.985 380.759 204.838 382.503C210.69 384.248 212.642 391.331 216.606 396.177C220.571 401.022 222.034 410.988 222.034 410.988C222.034 410.988 223.264 414.367 224.846 418.015C232.069 419.507 239.487 420.461 247.058 420.839C247.024 420.087 247.003 419.317 247.003 418.523C247.003 411.797 247.884 408.512 247.884 408.512C247.884 408.512 247.444 410.273 251.849 400.305C253.705 396.105 254.051 398.379 263.595 396.177C273.138 393.974 269.469 390.89 273.621 387.989C277.772 385.088 280.922 380.317 284.129 374.873C287.336 369.429 284.887 367.103 284.751 363.718C284.616 360.337 278.5 351.297 278.5 351.297Z" fill="#C0DD12"/>
<path opacity="0.25" d="M251.057 231.533C273.748 217.943 285.498 195.83 277.3 182.142C269.103 168.454 244.062 168.375 221.37 181.965C198.678 195.555 186.928 217.668 195.126 231.356C203.324 245.044 228.365 245.123 251.057 231.533Z" fill="white"/>
<path opacity="0.25" d="M190.899 286.013C195.626 274.806 193.37 263.153 185.862 259.986C178.353 256.82 168.435 263.338 163.708 274.545C158.981 285.753 161.236 297.405 168.745 300.572C176.254 303.739 186.172 297.22 190.899 286.013Z" fill="white"/>
<path d="M101.06 375.994C101.06 375.994 98.8569 380.453 98.7476 381.709C98.6372 382.966 99.2984 386.167 100.951 386.604C102.603 387.041 105.135 388.142 106.126 385.609C107.118 383.076 108.99 378.341 108.99 378.341C108.99 378.341 104.583 375.299 101.06 375.994Z" fill="#C2414C"/>
<path d="M135.231 359.945C135.231 359.945 153.175 361.23 159.636 363.286C166.097 365.342 168.887 368.867 169.474 371.803C170.062 374.74 168.006 378.263 162.426 379.439C156.846 380.613 113.088 381.347 109.27 380.613C105.452 379.879 90.9092 375.101 99.4282 361.527C99.4282 361.527 126.684 356.896 135.231 359.945Z" fill="#1B3CAE"/>
<path d="M120.061 376.791C120.061 376.791 135.596 374.905 141.863 374.923C148.13 374.942 169.118 374.875 169.118 374.875C169.118 374.875 166.1 384.338 154.498 386.073C142.897 387.809 117.866 386.928 117.866 386.928L120.061 376.791Z" fill="#1B3CAE"/>
<path d="M115.993 375.995C115.993 375.995 121.196 374.895 122.059 377.305C122.923 379.716 119.517 385.91 117.278 386.788C115.038 387.665 106.085 387.539 104.201 386.464C102.316 385.388 108.765 383.825 111.582 381.23C114.398 378.636 114.56 377.033 115.993 375.995Z" fill="#F77478"/>
<path d="M193.748 303.144C193.748 303.144 197.667 299.926 198.696 299.632C199.723 299.338 200.851 299.786 200.727 300.59C200.604 301.394 193.748 303.144 193.748 303.144Z" fill="#C2414C"/>
<path d="M206.321 311.935C205.261 311.936 204.156 311.776 203.081 311.357C200.691 310.424 198.948 308.392 197.899 305.322C196.744 301.942 196.834 299.055 198.165 296.738C200.188 293.218 204.317 292.353 204.491 292.318L204.717 293.435C204.679 293.442 200.908 294.242 199.147 297.314C197.991 299.333 197.933 301.902 198.975 304.953C199.911 307.691 201.429 309.488 203.49 310.294C207.376 311.82 211.996 309.361 212.042 309.336L212.585 310.336C212.429 310.421 209.589 311.935 206.321 311.935Z" fill="#071B69"/>
<path d="M243.921 282.231L240.86 283.392C240.86 283.392 240.245 282.971 239.665 283.392L239.631 283.426C239.562 283.494 239.437 283.642 239.266 283.87L239.13 284.052C236.319 287.807 223.653 306.163 223.653 306.163L222.037 301.338C222.037 301.338 222.64 300.632 223.653 299.472C228.046 294.373 240.006 280.558 240.86 280.319C241.918 280.035 243.921 282.231 243.921 282.231Z" fill="#FEC42E"/>
<path d="M239.13 284.052C236.319 287.807 223.653 306.163 223.653 306.163L222.037 301.338C222.037 301.338 222.64 300.632 223.653 299.472L225.053 301.338L239.13 284.052Z" fill="#FE9D00"/>
<path d="M202.293 290.675L212.939 313.397C212.939 313.397 220.795 312.26 225.053 309.617L219.914 284.947C219.914 284.947 211.691 286.637 202.293 290.675Z" fill="#FEC42E"/>
<path d="M248.657 284.949C248.657 284.949 250.64 286.38 251.741 287.922C252.843 289.464 253.724 288.803 253.394 287.371C253.062 285.94 249.538 284.838 248.657 284.949Z" fill="#E6FFFD"/>
<path d="M255.798 290.394C255.798 290.394 257.781 291.826 258.882 293.368C259.984 294.91 260.865 294.248 260.535 292.817C260.204 291.385 256.68 290.285 255.798 290.394Z" fill="#E6FFFD"/>
<path d="M256.999 296.611C256.999 296.611 258.358 298.642 258.855 300.471C259.351 302.3 260.407 301.987 260.595 300.529C260.784 299.072 257.863 296.815 256.999 296.611Z" fill="#E6FFFD"/>
<path d="M252.399 291.643C252.399 291.643 253.038 294.004 252.925 295.895C252.811 297.786 253.911 297.827 254.555 296.506C255.2 295.186 253.153 292.112 252.399 291.643Z" fill="#E6FFFD"/>
<path d="M246.702 282.707C246.702 282.707 249.131 282.991 250.843 283.801C252.556 284.612 253.003 283.606 252.018 282.515C251.032 281.426 247.418 282.182 246.702 282.707Z" fill="#E6FFFD"/>
<path d="M133.694 339.165C133.933 345.253 134.4 354.38 135.231 359.945C135.231 359.945 105.597 360.207 99.4292 361.527C99.4292 361.527 104.573 328.343 104.573 323.939C104.573 319.523 103.105 308.667 103.105 308.667L121.165 306.163L134.229 317.031C134.229 317.031 137.643 322.072 138.133 323.745C138.178 323.882 138.201 323.996 138.201 324.075C138.201 325.259 133.501 332.895 133.501 332.895C133.501 332.895 133.558 335.478 133.694 339.165Z" fill="#FEC42E"/>
<path d="M133.501 332.895C133.501 332.895 133.558 335.478 133.694 339.165C131.589 333.907 128.494 325.691 128.494 325.691L138.133 323.745C138.178 323.882 138.201 323.995 138.201 324.075C138.201 325.259 133.501 332.895 133.501 332.895Z" fill="#FE9D00"/>
<path d="M189.149 306.459C189.149 306.459 192.491 303.78 195.244 302.238C197.997 300.696 201.962 300.256 202.842 300.696C203.723 301.136 204.604 302.678 204.825 304.331C205.045 305.983 205.595 308.956 204.825 309.947C204.054 310.938 197.934 313.179 193.119 312.774L189.149 306.459Z" fill="#F77478"/>
<path d="M193.121 312.775C193.121 312.775 190.014 314.55 185.849 316.917L185.826 316.94C178.361 321.185 167.538 327.307 165.365 328.343C164.295 328.855 160.335 328.832 155.385 328.559L155.373 328.547C144.699 327.944 129.393 326.101 128.494 325.691C127.185 325.111 114.257 313.799 122.337 304.115C122.337 304.115 125.944 302.794 130.166 305.139C134.377 307.483 155.373 316.007 162.133 317.918C162.133 317.918 175.937 315.267 189.149 306.459L193.121 312.775Z" fill="#FEC42E"/>
<path d="M117.494 360.304C118.573 356.239 118.223 349.803 117.384 344.857C116.392 339.02 117.273 335.717 119.702 330.65C122.13 325.584 124.652 319.638 125.075 314.498C125.494 309.398 124.592 303.836 124.578 303.748C124.575 303.748 124.571 303.748 124.568 303.748L120.578 307.854L116.771 314.498C116.771 314.498 112.648 321.84 111.106 328.118C109.564 334.396 111.547 341.774 112.958 348.052C113.763 351.633 113.155 356.747 112.483 360.486C114.126 360.418 115.812 360.358 117.494 360.304Z" fill="#FE9D00"/>
<path d="M185.849 316.917L185.826 316.94C178.361 321.185 167.538 327.307 165.365 328.343C164.295 328.855 160.335 328.832 155.384 328.559L155.373 328.547L166.685 325.406L185.849 316.917Z" fill="#FE9D00"/>
<path d="M137.165 291.483C137.313 292.507 134.525 296.479 134.525 296.479C133.945 299.711 132.033 300.439 130.269 300.587C128.607 300.723 126.434 299.563 126.183 299.426C126.172 299.426 126.172 299.415 126.161 299.415V304.115L113.085 305.139C113.085 305.139 112.789 287.955 113.085 282.675C113.381 277.383 115.873 275.483 120.721 272.683C125.569 269.895 131.145 271.955 134.377 274.151C137.609 276.359 136.289 279.887 136.289 282.971C136.289 286.055 135.265 287.227 135.413 288.49C135.549 289.753 137.017 290.459 137.165 291.483Z" fill="#F77478"/>
<path d="M126.161 299.415V302.453L125.068 301.338L124.568 303.75L120.061 298.675L121.313 293.315C121.313 293.315 123.657 297.719 126.161 299.415Z" fill="#C2414C"/>
<path d="M136.505 279.867C136.505 279.867 135.113 277.166 133.058 278.157C131.003 279.148 130.159 285.719 130.159 285.719C130.159 285.719 126.473 291.335 125.067 293.391C123.662 295.446 123.83 301.468 125.067 305.873C126.304 310.278 122.486 319.969 119.11 324.815C115.732 329.66 113.53 336.414 115.145 344.491C116.76 352.567 114.998 364.02 107.949 368.719C107.949 368.719 113.823 355.21 106.628 345.959C99.4326 336.708 91.0638 323.933 94.7338 314.389C98.405 304.844 102.223 302.936 102.517 294.566C102.81 286.196 101.342 276.606 106.188 268.92C111.033 261.234 122.758 259.912 128.496 260.353C134.234 260.793 137.328 263.877 137.176 266.226C137.023 268.575 136.505 269.75 136.505 269.75C136.505 269.75 139.372 271.907 139.665 275.087C139.959 278.266 138.344 281.497 136.288 282.965L136.505 279.867Z" fill="#071B69"/>
<path d="M130.158 285.719C130.158 285.719 128.397 282.745 127.515 283.516C126.634 284.286 126.524 290.894 127.625 291.665C128.727 292.436 130.268 289.354 130.158 285.719Z" fill="#F77478"/>
<path d="M498.513 507.793C498.513 511.823 470.514 515.091 435.976 515.091C401.437 515.091 373.438 511.823 373.438 507.793C373.438 503.762 401.437 500.495 435.976 500.495C470.514 500.495 498.513 503.762 498.513 507.793Z" fill="#DFE1EB"/>
<path d="M467.265 496.619C467.265 496.619 468.585 503.077 468.732 504.251C468.879 505.426 468.292 507.482 468.292 507.482C468.292 507.482 439.512 508.069 437.896 507.629C436.281 507.188 439.217 502.343 441.714 501.756C444.209 501.168 453.094 501.023 453.094 501.023V497.529L467.265 496.619Z" fill="#071B69"/>
<path d="M417.674 496.619C417.674 496.619 418.995 503.077 419.141 504.251C419.288 505.426 418.701 507.482 418.701 507.482C418.701 507.482 389.921 508.069 388.305 507.629C386.69 507.188 389.626 502.343 392.123 501.756C394.62 501.168 403.504 501.023 403.504 501.023V497.529L417.674 496.619Z" fill="#071B69"/>
<path d="M467.265 496.619C466.685 496.949 465.979 497.256 465.194 497.529C460.244 499.27 451.993 499.919 451.993 499.919C451.993 499.919 434.002 460.931 433.342 458.075C432.841 455.878 428.858 427.212 427.003 413.806C426.571 410.597 426.252 408.253 426.127 407.365C426.093 407.104 426.07 406.967 426.07 406.967L428.733 407.491L451.993 412.043C451.993 412.043 449.638 447.275 450.309 449.927C450.969 452.567 467.265 496.619 467.265 496.619Z" fill="#1B3CAE"/>
<path d="M467.265 496.619C466.685 496.949 465.979 497.256 465.194 497.529L445.825 449.187L447.737 429.511L427.003 413.806L417.979 406.967L426.127 407.365L428.733 407.491L451.993 412.043C451.993 412.043 449.638 447.275 450.309 449.927C450.969 452.567 467.265 496.619 467.265 496.619Z" fill="#071B69"/>
<path d="M430.235 436.931L417.341 465.335L419.686 501.023C419.686 501.023 418.32 500.841 416.26 500.556C411.424 499.885 402.764 498.587 399.202 497.495C399.202 497.495 398.985 457.415 399.202 455.207C399.429 453.01 418.866 404.111 418.866 404.111L438.633 418.427L430.235 436.931Z" fill="#1B3CAE"/>
<path d="M417.341 465.335L419.686 501.023C419.686 501.023 418.32 500.841 416.26 500.556C415.077 491.52 411.173 462.547 411.173 462.547L427.06 425.983L427.822 419.667L430.235 436.93L417.341 465.335Z" fill="#071B69"/>
<path d="M418.073 366.403C418.073 367.251 418.073 386.042 418.073 386.042C418.073 386.042 412.346 411.743 411.906 412.771C411.466 413.798 412.64 419.673 412.64 419.673C412.64 419.673 421.744 408.219 422.625 403.226C423.506 398.234 424.151 381.788 424.151 381.788C424.151 381.788 423.652 372.381 422.918 369.743C422.183 367.104 418.073 366.403 418.073 366.403Z" fill="#C2414C"/>
<path d="M430.963 334.169C430.963 334.169 420.862 340.369 419.1 349.698C417.339 359.028 417.339 368.425 417.339 368.425H426.296L430.963 334.169Z" fill="#C3C3C3"/>
<path d="M460.654 361.527C460.654 361.527 456.545 377.095 455.521 382.079C455.089 384.173 454.656 389.123 454.304 394.187C453.814 401.243 453.461 408.515 453.461 408.515L414.257 404.987C414.257 404.987 419.981 377.527 419.981 374.739C419.981 371.951 420.129 355.211 422.474 346.699C424.829 338.175 430.963 334.169 430.963 334.169L445.188 330.971L454.053 334.852L458.457 352.65L460.654 361.527Z" fill="#E6E6E6"/>
<path d="M460.653 361.527C460.653 361.527 456.545 377.095 455.521 382.079C455.089 384.173 454.656 389.123 454.303 394.187L453.598 378.563L446.269 376.059L453.598 374.591L443.333 343.763L446.417 338.619L458.457 352.65L460.653 361.527Z" fill="#C3C3C3"/>
<path d="M445.188 330.971C445.188 330.971 443.765 334.363 440.249 337.151C436.721 339.939 428.061 340.383 428.061 340.383C428.061 340.383 430.553 336.126 430.849 334.943C430.86 334.92 430.861 334.886 430.861 334.852C431.168 333.418 431.577 325.839 431.577 325.839C431.577 325.839 436.869 315.859 438.337 319.671C438.701 320.604 439.282 321.742 439.976 322.948C442.104 326.692 445.188 330.971 445.188 330.971Z" fill="#F77478"/>
<path d="M439.976 322.948C438.668 327.022 436.05 332.189 430.861 334.852C431.168 333.418 431.578 325.839 431.578 325.839C431.578 325.839 436.869 315.859 438.338 319.671C438.702 320.604 439.282 321.742 439.976 322.948Z" fill="#C2414C"/>
<path d="M422.33 302.238C422.33 302.238 419.981 303.376 420.128 306.607C420.275 309.838 421.303 314.536 420.862 315.711C420.422 316.885 419.101 320.263 419.101 320.263L421.449 320.41C421.449 320.41 423.358 326.43 424.387 327.899C425.414 329.367 430.26 328.339 433.637 327.018C437.015 325.697 440.098 320.264 440.391 313.362C440.685 306.461 442.741 300 439.07 298.091C435.399 296.183 432.315 293.98 428.645 296.329C424.974 298.677 422.33 302.238 422.33 302.238Z" fill="#F77478"/>
<path d="M452.515 310.642C452.007 309.996 451.361 309.522 450.615 309.303C450.447 308.795 450.188 308.314 449.846 307.926C450.136 307.666 450.355 307.334 450.482 306.953C450.844 305.869 450.464 304.311 449.465 303.674C449.602 303.523 449.731 303.362 449.835 303.189C450.187 302.602 450.239 301.864 450.017 301.221C449.736 300.407 449.137 299.847 448.41 299.509C448.544 299.401 448.678 299.292 448.806 299.181C449.155 298.878 449.459 298.521 449.618 298.081C449.94 297.19 449.505 296.102 449.151 295.281C448.798 294.462 448.262 293.724 447.503 293.236C446.613 292.666 445.516 292.645 444.56 293.056C444.203 293.209 443.907 293.431 443.634 293.678C443.612 293.622 443.59 293.567 443.568 293.516C443.348 293.021 442.97 292.59 442.51 292.302C441.884 291.911 441.205 291.899 440.545 292.067C440.617 291.792 440.651 291.514 440.626 291.219C440.555 290.395 440.336 289.548 439.832 288.878C439.342 288.228 438.666 287.767 437.848 287.673C437.383 287.618 436.905 287.698 436.445 287.842C436.455 287.682 436.444 287.52 436.395 287.378C436.259 286.988 435.958 286.662 435.656 286.389C435.042 285.834 434.301 285.387 433.441 285.464C432.615 285.538 431.885 285.957 431.422 286.643C431.39 286.69 431.369 286.745 431.34 286.794C431.106 286.498 430.87 286.236 430.696 286.041C429.833 285.08 428.656 284.242 427.309 284.274C424.969 284.329 422.691 286.956 422.971 289.276C423.029 289.758 423.197 290.219 423.451 290.619C423.156 290.66 422.867 290.728 422.594 290.847C422.228 291.006 421.866 291.301 421.685 291.675C421.422 291.517 421.147 291.376 420.851 291.295C419.936 291.044 419.066 291.386 418.339 291.938C417.062 292.909 415.54 294.847 416.712 296.425C416.838 296.596 416.993 296.778 417.168 296.95C417.091 296.996 417.015 297.047 416.944 297.101C416.373 297.535 415.82 298.106 415.483 298.744C415.136 299.402 415.036 300.199 415.408 300.871C415.526 301.084 415.709 301.259 415.915 301.403C415.725 301.489 415.541 301.586 415.373 301.71C414.891 302.066 414.543 302.571 414.405 303.158C414.223 303.935 414.481 304.778 415.062 305.282C414.766 305.743 414.78 306.45 414.882 306.945C415.061 307.815 415.734 308.313 416.566 308.505C417.429 308.705 418.355 308.667 419.165 308.297C419.843 307.987 420.439 307.439 420.784 306.776C420.943 306.471 421.026 306.153 421.081 305.83C421.13 305.863 421.177 305.898 421.226 305.924C421.65 306.152 422.13 306.207 422.603 306.179C423.026 306.154 423.46 306.1 423.855 305.942C424.214 305.798 424.502 305.588 424.7 305.286C424.761 305.403 424.826 305.516 424.892 305.622C425.049 305.876 425.234 306.098 425.525 306.199C425.803 306.296 426.094 306.237 426.372 306.177C426.752 306.095 427.121 305.955 427.459 305.76C427.442 305.896 427.434 306.032 427.436 306.168C427.45 306.784 427.739 307.339 428.242 307.696C428.752 308.058 429.442 308.198 430.054 308.236C430.293 308.252 430.53 308.228 430.764 308.19C430.721 308.424 430.721 308.679 430.748 308.907C430.82 309.509 431.047 310.064 431.429 310.536C432.178 311.464 433.468 311.743 434.564 311.315C434.675 311.27 434.78 311.216 434.886 311.162C435.017 311.51 435.198 311.852 435.33 312.166C435.591 312.791 435.854 313.416 436.118 314.04C436.314 314.503 436.497 314.975 436.818 315.368C436.971 315.556 437.149 315.719 437.361 315.838C437.509 315.921 437.693 315.956 437.858 316.011C437.868 316.215 437.824 316.439 437.814 316.627C437.798 316.922 437.781 317.216 437.764 317.51C437.735 318.003 437.703 318.496 437.785 318.986C437.931 319.866 438.521 320.583 439.343 320.921C440.127 321.243 440.979 321.137 441.648 320.616C441.763 320.526 441.85 320.423 441.943 320.323C441.988 320.406 442.026 320.495 442.076 320.575C442.304 320.942 442.573 321.286 442.925 321.543C443.282 321.804 443.72 321.914 444.158 321.925C445.712 321.968 447.322 320.893 447.465 319.272C447.481 319.099 447.465 318.931 447.441 318.765C447.794 318.877 448.167 318.906 448.532 318.845C448.961 318.773 449.401 318.535 449.668 318.188C449.855 317.946 449.949 317.653 449.977 317.352C450.889 317.388 451.786 317.028 452.445 316.392C453.209 315.657 453.594 314.584 453.599 313.535C453.601 312.47 453.162 311.468 452.515 310.642Z" fill="#071B69"/>
<path d="M434.445 311.965C434.445 311.965 436.648 308.296 438.189 310.058C439.731 311.82 438.409 314.464 437.749 315.125C437.088 315.786 435.877 316.337 435.877 316.337L434.445 311.965Z" fill="#F77478"/>
<path d="M425.708 321.326C425.513 321.575 425.294 321.801 425.083 322.037C424.866 322.282 424.635 322.518 424.389 322.735C424.156 322.941 423.906 323.125 423.644 323.291C423.508 323.376 423.369 323.46 423.225 323.528C423.152 323.562 423.078 323.596 423.004 323.627C422.872 323.684 422.809 323.752 422.759 323.886C422.699 324.047 422.828 324.207 422.97 324.258C423.182 324.334 423.388 324.166 423.561 324.062C423.698 323.977 423.836 323.895 423.969 323.806C424.262 323.607 424.54 323.387 424.799 323.144C425.051 322.908 425.277 322.652 425.479 322.371C425.678 322.093 425.815 321.778 425.939 321.46C425.987 321.335 425.792 321.219 425.708 321.326Z" fill="#C2414C"/>
<path d="M423.715 314.602C423.708 314.489 423.69 314.37 423.622 314.275C423.616 314.267 423.61 314.26 423.606 314.252C423.585 314.222 423.565 314.194 423.543 314.164C423.533 314.151 423.524 314.136 423.514 314.122C423.481 314.076 423.451 314.026 423.409 313.987C423.37 313.957 423.331 313.927 423.293 313.897C423.289 313.895 423.285 313.894 423.281 313.891C423.219 313.859 423.155 313.831 423.089 313.809C423.046 313.804 423.003 313.798 422.958 313.792C422.891 313.79 422.827 313.804 422.769 313.834C422.728 313.846 422.692 313.867 422.661 313.898C422.608 313.932 422.566 313.979 422.535 314.036C422.501 314.097 422.476 314.163 422.452 314.229C422.451 314.234 422.448 314.237 422.447 314.242C422.44 314.293 422.434 314.344 422.427 314.394C422.427 314.405 422.428 314.414 422.429 314.424C422.431 314.44 422.434 314.456 422.436 314.472C422.44 314.505 422.445 314.539 422.45 314.572C422.451 314.58 422.452 314.587 422.453 314.595C422.46 314.653 422.468 314.712 422.477 314.77C422.506 314.877 422.561 314.97 422.64 315.049C422.651 315.062 422.661 315.075 422.673 315.088C422.714 315.12 422.756 315.152 422.797 315.184C422.846 315.205 422.894 315.225 422.943 315.245C422.998 315.252 423.052 315.26 423.106 315.267C423.19 315.271 423.269 315.252 423.343 315.215C423.395 315.2 423.44 315.174 423.478 315.136C423.524 315.109 423.561 315.073 423.589 315.026C423.626 314.987 423.654 314.943 423.667 314.89C423.706 314.818 423.723 314.738 423.721 314.654C423.716 314.638 423.716 314.62 423.715 314.602Z" fill="#071B69"/>
<path d="M423.906 311.591C423.721 311.468 423.498 311.449 423.284 311.499C423.226 311.513 423.17 311.523 423.111 311.532C422.995 311.551 422.879 311.573 422.763 311.597C422.536 311.644 422.311 311.694 422.092 311.766C421.979 311.804 421.866 311.843 421.754 311.886C421.603 311.944 421.488 312.021 421.358 312.115C421.223 312.213 421.142 312.345 421.165 312.518C421.185 312.665 421.299 312.824 421.455 312.854C421.636 312.889 421.808 312.924 421.993 312.923C422.152 312.922 422.31 312.928 422.467 312.926C422.785 312.923 423.104 312.928 423.422 312.951C423.357 312.942 423.292 312.934 423.227 312.925C423.422 312.963 423.604 312.978 423.79 312.9C423.947 312.834 424.093 312.713 424.178 312.562C424.378 312.207 424.231 311.806 423.906 311.591Z" fill="#071B69"/>
<path d="M492.95 417.744L492.916 417.755C491.015 418.188 415.714 434.871 403.503 383.24C403.503 383.24 465.786 364.212 492.95 417.744Z" fill="#C0DD12"/>
<path d="M492.95 417.744L492.916 417.755C491.015 418.188 415.714 434.871 403.503 383.24L492.95 417.744Z" fill="#80A600"/>
<path d="M502.384 420.777L481.188 412.599L478.051 401.963C477.961 401.662 477.645 401.492 477.344 401.579C477.043 401.667 476.871 401.984 476.96 402.285L479.85 412.081L464.537 406.173L460.212 390.628C460.127 390.324 459.815 390.144 459.512 390.232C459.208 390.316 459.032 390.63 459.116 390.931L463.215 405.662L445.767 398.93L441.595 385.655C441.502 385.354 441.183 385.183 440.883 385.282C440.582 385.376 440.416 385.696 440.511 385.995L444.412 398.408L430.204 392.926L427.284 382.912C427.195 382.609 426.875 382.442 426.578 382.524C426.275 382.613 426.102 382.928 426.19 383.229L428.868 392.41L416.235 387.536C415.942 387.422 415.612 387.568 415.499 387.862C415.386 388.156 415.532 388.485 415.825 388.599L427.779 393.211L418.02 395.402C417.713 395.471 417.521 395.775 417.589 396.082C417.649 396.346 417.884 396.527 418.144 396.527C418.185 396.527 418.226 396.522 418.268 396.513L429.689 393.949L443.771 399.382L430.153 405.014C429.862 405.134 429.725 405.466 429.844 405.757C429.934 405.976 430.147 406.109 430.37 406.109C430.443 406.109 430.517 406.095 430.587 406.066L445.313 399.979L462.768 406.713C460.059 408.32 453.244 412.368 452.959 412.558C452.7 412.732 452.63 413.084 452.803 413.344C452.914 413.509 453.093 413.597 453.278 413.597C453.386 413.597 453.495 413.567 453.592 413.504C453.864 413.324 459.944 409.71 464.117 407.233L479.522 413.177L474.597 416.637C474.339 416.818 474.277 417.173 474.458 417.429C474.57 417.587 474.745 417.671 474.924 417.671C475.038 417.671 475.151 417.638 475.25 417.567L480.799 413.669L501.973 421.838C502.04 421.865 502.109 421.876 502.178 421.876C502.405 421.876 502.622 421.738 502.709 421.512C502.823 421.219 502.677 420.89 502.384 420.777Z" fill="#CFF2FE"/>
<path d="M458.893 364.755C459.48 365.196 464.326 376.503 464.326 376.503C464.326 376.503 452.873 404.552 451.11 408.516C449.349 412.478 446.019 411.157 445.187 411.598C444.355 412.038 441.229 411.598 441.229 411.598C441.229 411.598 440.88 414.535 445.187 413.8C445.187 413.8 444.197 416.296 442.441 416.884C440.685 417.471 436.624 416.884 436.624 416.884C436.624 416.884 439.372 422.463 443.332 423.491C447.292 424.518 453.165 422.17 454.193 420.994C455.221 419.82 455.955 413.946 456.69 411.743C457.424 409.541 474.457 379.586 474.898 377.236C475.338 374.887 470.052 360.202 470.052 360.202L458.893 364.755Z" fill="#F77478"/>
<path d="M445.188 330.971C445.188 330.971 455.81 331.086 459.482 334.852C463.153 338.618 472.844 361.671 472.844 361.671L457.279 368.426C457.279 368.426 443.867 345.47 443.33 343.758C442.792 342.044 440.881 334.631 445.188 330.971Z" fill="#E6E6E6"/>
<path d="M126.921 516.549C178.955 516.549 221.136 511.553 221.136 505.391C221.136 499.228 178.955 494.232 126.921 494.232C74.8876 494.232 32.7061 499.228 32.7061 505.391C32.7061 511.553 74.8876 516.549 126.921 516.549Z" fill="#DFE1EB"/>
<path d="M174.694 387.994H172.653V500.434H174.694V387.994Z" fill="#071B69"/>
<path d="M141.743 387.994H139.701V500.434H141.743V387.994Z" fill="#1B3CAE"/>
<path d="M118.815 387.994H116.773V500.434H118.815V387.994Z" fill="#071B69"/>
<path d="M85.8633 387.994H83.8218V500.434H85.8633V387.994Z" fill="#1B3CAE"/>
<path d="M189.149 386.27H71.8271V389.717H189.149V386.27Z" fill="#FE9D00"/>
<path d="M189.149 386.267H133.183V389.715H189.149V386.267Z" fill="#FEC42E"/>
<path d="M115.697 387.615L110.914 401.179H80.913L85.4286 388.373L83.2823 387.615L40.3945 509.232L42.5408 509.99L49.5236 490.189H79.5247L72.8093 509.232L74.9556 509.99L117.843 388.373L115.697 387.615ZM110.112 403.454L104.797 418.525H74.7951L80.1096 403.454H110.112ZM62.5605 453.219L67.875 438.148H97.8761L92.5616 453.219H62.5605ZM91.7593 455.495L86.4448 470.565H56.4437L61.7582 455.495H91.7593ZM68.6784 435.872L73.9928 420.802H103.994L98.6795 435.872H68.6784ZM50.327 487.912L55.6415 472.841H85.6426L80.3281 487.912H50.327Z" fill="#83B8E6"/>
<path opacity="0.25" d="M222.552 433.41C216.536 433.263 214.187 438.316 214.187 438.316C214.187 438.316 213.306 432.971 210.076 433.41C206.845 433.851 205.355 436.787 205.355 436.787C205.355 436.787 203.117 414.764 194.262 413.589C186.045 412.497 181.663 422.279 182.247 426.158C189.899 432.577 198.154 438.297 206.919 443.222H227.696C227.696 443.222 228.566 433.558 222.552 433.41Z" fill="black"/>
<path d="M133.347 438.148H227.182C227.182 438.148 228.053 428.484 222.037 428.337C216.022 428.189 213.673 433.243 213.673 433.243C213.673 433.243 212.792 427.898 209.561 428.337C206.331 428.778 204.841 431.714 204.841 431.714C204.841 431.714 202.602 409.691 193.748 408.516C184.892 407.339 180.488 418.796 181.956 421.878C183.424 424.96 185.019 429.659 185.019 429.659C185.019 429.659 181.529 420.169 174.694 420.803C167.859 421.435 165.044 429.659 165.044 429.659C165.044 429.659 160.525 425.253 156.41 424.373C152.295 423.492 149.358 428.484 149.358 429.952C149.357 431.419 138.188 428.724 133.347 438.148Z" fill="#CFF2FE"/>
<path opacity="0.25" d="M298.335 265.53H420.375C420.375 265.53 418.115 251.445 408.996 254.237C399.876 257.029 398.748 258.507 398.748 258.507C398.748 258.507 396.149 253.077 391.684 253.871C387.219 254.664 385.124 259.701 385.124 259.701C385.124 259.701 385.938 234.595 372.275 234.168C358.611 233.742 347.936 240.154 347.936 246.982C347.936 253.81 349.218 259.701 349.218 259.701C349.218 259.701 346.39 253.61 337.842 253.871C329.295 254.131 330.296 259.701 330.296 259.701C330.296 259.701 325.402 251.249 317.455 252.102C309.508 252.956 309.093 261.496 309.093 261.496C309.093 261.496 300.401 258.89 298.335 265.53Z" fill="black"/>
<path d="M295.939 260.278H417.978C417.978 260.278 415.718 246.193 406.598 248.984C397.478 251.776 396.35 253.254 396.35 253.254C396.35 253.254 393.751 247.824 389.287 248.618C384.822 249.411 382.727 254.448 382.727 254.448C382.727 254.448 383.541 229.342 369.878 228.915C356.214 228.489 345.54 234.901 345.54 241.729C345.54 248.557 346.821 254.448 346.821 254.448C346.821 254.448 343.993 248.357 335.447 248.618C326.899 248.878 327.901 254.448 327.901 254.448C327.901 254.448 323.006 245.996 315.06 246.849C307.113 247.703 306.698 256.243 306.698 256.243C306.698 256.243 298.004 253.636 295.939 260.278Z" fill="#CFF2FE"/>
</g>
<defs>
<clipPath id="clip0_1833_1666">
<rect width="569" height="569" fill="white"/>
</clipPath>
</defs>
</svg>
