<svg width="300" height="300" viewBox="0 0 300 300" fill="none" xmlns="http://www.w3.org/2000/svg">
<path d="M99.3725 236.055L101.794 246.235C101.994 247.078 102.001 247.956 101.814 248.803C101.627 249.65 101.251 250.443 100.713 251.123C100.176 251.803 99.4911 252.353 98.7108 252.731C97.9305 253.109 97.0747 253.306 96.2076 253.306H87.7324L82.2661 236.906" fill="black"/>
<path d="M98.7399 236.229L101.074 246.04C101.306 246.87 101.347 247.742 101.194 248.591C101.045 249.287 100.754 249.946 100.339 250.525C99.9236 251.104 99.3929 251.59 98.7802 251.954C97.184 252.892 95.2162 252.649 93.4382 252.649H87.7324L88.3651 253.131L86.518 247.589L83.5741 238.758L82.8987 236.732C82.633 235.935 81.3657 236.276 81.6336 237.08L83.4808 242.622L86.4247 251.453L87.1 253.48C87.141 253.616 87.2242 253.737 87.3379 253.823C87.4516 253.91 87.5898 253.958 87.7326 253.961H95.6736C96.6298 254 97.5847 253.858 98.488 253.541C99.9367 252.97 101.131 251.896 101.853 250.516C102.575 249.136 102.776 247.543 102.418 246.027C102.044 244.412 101.651 242.801 101.268 241.188L100.005 235.88C99.8097 235.059 98.5444 235.407 98.7399 236.229Z" fill="black"/>
<path d="M4.10429 241.745L3.00134 249.164C2.8525 250.165 2.92129 251.187 3.20301 252.159C3.48473 253.131 3.97277 254.031 4.63386 254.798C5.29494 255.565 6.11354 256.18 7.03385 256.601C7.95417 257.023 8.95456 257.241 9.96686 257.241H28.6951L31.5376 230.128" fill="black"/>
<path d="M3.47177 241.57L2.43776 248.525C2.35371 249.011 2.29796 249.501 2.27078 249.994C2.24109 251.109 2.45551 252.218 2.89904 253.242C3.32775 254.229 3.95691 255.116 4.74659 255.847C5.53627 256.578 6.46926 257.137 7.48637 257.489C8.47626 257.796 9.5108 257.934 10.5465 257.897H22.5666C24.5739 257.897 26.5889 257.948 28.5957 257.897C28.6287 257.896 28.662 257.897 28.6951 257.897C28.8677 257.892 29.0319 257.822 29.154 257.7C29.2761 257.578 29.3466 257.414 29.351 257.241L29.6333 254.549L30.3113 248.082L31.1319 240.254L31.842 233.481C31.9564 232.39 32.1529 231.274 32.1884 230.177C32.1889 230.16 32.1918 230.144 32.1936 230.128C32.1924 229.954 32.123 229.788 32.0002 229.665C31.8774 229.542 31.7112 229.473 31.5376 229.472C31.3648 229.475 31.2001 229.546 31.0779 229.668C30.9557 229.79 30.8854 229.955 30.8816 230.128L30.5994 232.82L29.9214 239.287L29.1007 247.114L28.3907 253.888L28.1553 256.132C28.1188 256.48 28.0494 256.842 28.0444 257.192C28.0441 257.208 28.0409 257.225 28.0392 257.241L28.6952 256.585H14.8223C13.1865 256.585 11.5498 256.6 9.91409 256.585C8.92747 256.575 7.95637 256.338 7.0763 255.892C6.19624 255.446 5.43093 254.803 4.83992 254.013C3.83035 252.638 3.40256 250.922 3.64916 249.235C3.9878 246.867 4.35263 244.503 4.70432 242.137L4.73684 241.919C4.77751 241.751 4.75276 241.574 4.66763 241.424C4.5825 241.275 4.4434 241.163 4.27868 241.112C4.11095 241.067 3.93225 241.09 3.78123 241.175C3.63021 241.261 3.5191 241.403 3.47177 241.57Z" fill="black"/>
<path d="M48.332 156.987L116.822 140.046C139.088 134.721 139.512 125.659 143.924 113.079L157.837 54.7697L134.197 46.1807L113.403 106.322L74.0959 117.109C73.0583 117.394 71.9893 117.548 70.9136 117.569L46.8799 118.022" fill="#458DC9"/>
<path d="M48.506 157.619L50.7495 157.064L56.7438 155.581L65.5018 153.415L75.9003 150.843L86.9416 148.112L97.6403 145.466L106.854 143.187L113.628 141.511C114.705 141.245 115.781 140.979 116.858 140.712C121.062 139.678 125.242 138.44 129.117 136.474C132.575 134.72 135.672 132.337 137.956 129.182C139.964 126.408 141.225 123.19 142.321 119.969C142.915 118.221 143.468 116.459 144.056 114.71C144.261 114.101 144.496 113.505 144.645 112.881L145.679 108.547L147.587 100.549L150.043 90.2581L152.679 79.2121L155.175 68.7526L157.163 60.4201L158.317 55.5817L158.469 54.9441C158.511 54.7765 158.486 54.5994 158.401 54.4493C158.316 54.2991 158.176 54.1874 158.011 54.1371L150.028 51.2366L137.298 46.6118L134.371 45.5481C134.203 45.5047 134.025 45.5283 133.874 45.6138C133.724 45.6993 133.612 45.8401 133.564 46.0063L131.498 51.9819L126.535 66.3345L120.53 83.7031L115.336 98.7258L113.622 103.682C113.355 104.454 112.994 105.246 112.806 106.042C112.798 106.077 112.782 106.113 112.77 106.147L113.228 105.689L103.973 108.229L86.0088 113.159L74.2458 116.388C72.7886 116.757 71.2907 116.94 69.7876 116.934L62.4533 117.072L47.1675 117.361L46.8795 117.366C46.0364 117.382 46.0335 118.694 46.8795 118.678L59.949 118.432L68.2702 118.275C70.2919 118.236 72.2967 118.271 74.2715 117.742C77.3451 116.917 80.4097 116.057 83.4785 115.215L101.14 110.368L113.123 107.079C113.519 106.97 113.846 106.929 114.036 106.492C114.108 106.328 114.155 106.148 114.214 105.978L115.361 102.662L119.981 89.298L126.074 71.6761L131.641 55.5759L134.685 46.7704L134.829 46.3551L134.022 46.8132L142.005 49.7138L154.735 54.3385L157.662 55.4023L157.204 54.5953L156.588 57.1779L154.977 63.9295L152.696 73.4883L150.093 84.3969L147.51 95.222L145.298 104.491L143.777 110.867C143.504 112.01 143.222 113.086 142.845 114.201C141.72 117.533 140.767 120.952 139.311 124.162C137.952 127.287 135.889 130.056 133.283 132.254C129.623 135.268 125.052 137.051 120.551 138.377C118.793 138.895 117.012 139.323 115.233 139.763L109.987 141.061L101.781 143.09L91.6675 145.592L80.7339 148.296L69.9039 150.975L60.2638 153.36L52.8482 155.194L48.7018 156.219L48.1571 156.354C47.3379 156.557 47.685 157.822 48.506 157.619Z" fill="black"/>
<path d="M125.735 70.6553L113.403 106.321L74.0959 117.109C73.0583 117.394 71.9893 117.548 70.9136 117.568L46.8799 118.022L51.4782 165.941L122.147 148.032C144.412 142.708 150.649 126.488 155.061 113.908L163.531 76.3954C159.954 75.9881 144.642 76.3729 140.213 75.3018C134.565 73.9357 129.506 72.2799 125.735 70.6553Z" fill="#458DC9"/>
<path d="M125.102 70.4809L120.921 82.5723L114.3 101.722L112.77 106.147L113.228 105.689L103.924 108.242L85.9518 113.175L74.2446 116.388C72.7798 116.758 71.2741 116.941 69.7633 116.934L62.4534 117.072L47.1668 117.361L46.8796 117.366C46.706 117.367 46.5399 117.437 46.4172 117.56C46.2945 117.682 46.2249 117.849 46.2236 118.022L46.6807 122.785L47.7784 134.225L49.1066 148.066L50.2552 160.036C50.4414 161.976 50.6044 163.92 50.814 165.858C50.817 165.886 50.8193 165.914 50.8219 165.941C50.8239 166.041 50.8486 166.14 50.894 166.229C50.9395 166.319 51.0046 166.397 51.0844 166.458C51.1642 166.519 51.2567 166.561 51.3551 166.581C51.4534 166.601 51.555 166.598 51.6523 166.574L58.1138 164.936L73.8269 160.954L93.2849 156.023L110.981 151.538L121.407 148.896C123.157 148.452 124.907 148.012 126.621 147.44C131.13 145.967 135.355 143.735 139.113 140.84C145.327 135.991 149.597 129.291 152.647 122.107C153.338 120.48 153.979 118.834 154.588 117.175C154.973 116.126 155.436 115.062 155.716 113.981C156.066 112.628 156.333 111.248 156.641 109.885L160.707 91.8764L163.987 77.3519L164.163 76.5697C164.188 76.4725 164.19 76.371 164.17 76.2728C164.15 76.1746 164.108 76.0822 164.047 76.0024C163.986 75.9227 163.908 75.8576 163.819 75.8121C163.73 75.7665 163.631 75.7417 163.531 75.7394C161.889 75.5573 160.219 75.5684 158.57 75.5395C156.102 75.4962 153.634 75.4735 151.166 75.4214C148.751 75.3704 146.333 75.3063 143.924 75.1265C143.035 75.0601 142.144 74.9844 141.265 74.8415C139.866 74.5765 138.481 74.2385 137.117 73.8289C133.351 72.8398 129.658 71.5901 126.065 70.0888C125.298 69.7595 124.629 70.8894 125.403 71.2216C128.559 72.5541 131.795 73.6902 135.092 74.6232C137.644 75.3612 140.192 76.0925 142.842 76.3469C147.719 76.8149 152.65 76.7596 157.545 76.8346C159.533 76.865 161.552 76.8316 163.531 77.0512L162.898 76.2209L160.482 86.9195L156.204 105.868L154.76 112.262C154.387 113.794 153.913 115.3 153.343 116.771C150.798 123.715 147.593 130.525 142.488 135.979C139.539 139.118 136.07 141.724 132.234 143.683C128.926 145.38 125.422 146.534 121.824 147.437C119.141 148.11 116.461 148.796 113.779 149.476L97.3352 153.643L77.8493 158.581L60.8197 162.897L51.7159 165.204L51.3035 165.308L52.1338 165.941L51.6768 161.178L50.5791 149.738L49.2509 135.897L48.1024 123.928L47.7236 119.981C47.7101 119.352 47.65 118.725 47.5436 118.105C47.5389 118.077 47.5363 118.05 47.5357 118.022L46.8797 118.678L56.1279 118.503L69.3632 118.254C71.0239 118.222 72.6459 118.177 74.2712 117.741C74.8575 117.584 75.442 117.42 76.0273 117.259L86.8257 114.296L101.18 110.356L111.894 107.416C112.463 107.292 113.025 107.138 113.577 106.954C114.19 106.71 114.387 105.479 114.578 104.927L118.289 94.1943L123.136 80.1743L126.214 71.2731L126.367 70.8296C126.643 70.0301 125.376 69.6865 125.102 70.4809Z" fill="black"/>
<path d="M154.159 70.1831L152.407 77.5277C158.799 78.2554 163.24 77.8964 163.613 76.3554C163.986 74.8125 160.19 72.4598 154.159 70.1831Z" fill="black"/>
<path d="M153.526 70.0084L151.992 76.4399L151.774 77.3531C151.75 77.4504 151.747 77.5519 151.768 77.6501C151.788 77.7483 151.83 77.8408 151.89 77.9205C151.951 78.0003 152.029 78.0653 152.119 78.1109C152.208 78.1564 152.306 78.1812 152.407 78.1834C154.601 78.4615 156.814 78.5767 159.026 78.5282C160.402 78.4789 161.958 78.3955 163.2 77.7316C164.145 77.2261 164.543 76.2655 164.072 75.278C163.519 74.12 162.194 73.3137 161.14 72.6804C158.968 71.4369 156.691 70.3894 154.333 69.5503C154.166 69.5054 153.987 69.5283 153.836 69.6141C153.685 69.6998 153.574 69.8414 153.526 70.0084C153.484 70.1761 153.508 70.3536 153.593 70.504C153.679 70.6544 153.819 70.766 153.985 70.8154C155.941 71.5305 157.846 72.3806 159.685 73.3596C160.371 73.7269 161.032 74.1398 161.663 74.5956C161.857 74.7388 162.043 74.8919 162.221 75.0543C162.316 75.1416 162.41 75.2315 162.499 75.3253C162.54 75.3688 162.581 75.413 162.621 75.4582C162.639 75.4788 162.788 75.6674 162.695 75.5427C162.756 75.6238 162.812 75.7085 162.863 75.7963C162.887 75.8369 162.907 75.8789 162.93 75.9199C163.003 76.0539 162.89 75.7839 162.932 75.9248C162.956 76.002 162.977 76.0803 162.993 76.1596C162.956 75.9667 162.983 76.0846 162.982 76.1365C162.979 76.321 162.996 76.0275 162.988 76.1451C162.983 76.2171 162.888 76.3616 162.986 76.1942C162.955 76.2473 162.815 76.4312 162.948 76.2825C162.893 76.3442 162.835 76.4001 162.775 76.4561C162.665 76.5569 162.897 76.3795 162.766 76.4613C162.712 76.4951 162.659 76.5308 162.604 76.5626C162.513 76.6142 162.419 76.6609 162.323 76.7026C162.464 76.6406 162.287 76.7153 162.268 76.7218C162.211 76.7417 162.154 76.7626 162.097 76.7816C161.838 76.8651 161.574 76.9331 161.306 76.9851C160.62 77.1132 159.925 77.1879 159.227 77.2084C156.948 77.2741 154.668 77.1615 152.406 76.8717L153.039 77.702L154.574 71.2705L154.791 70.3573C154.987 69.5365 153.723 69.1862 153.526 70.0084Z" fill="black"/>
<path d="M57.3394 292.445L50.5732 191.837L85.1488 176.424C85.1488 176.424 89.0385 200.296 90.3523 218.214C90.9906 226.919 89.6251 261.19 87.9512 292.445" fill="#458DC9"/>
<path d="M57.9952 292.445L57.8138 289.747L57.3202 282.407L56.5935 271.602L55.7073 258.425L54.7328 243.935L53.749 229.307L52.8353 215.721L52.06 204.194L51.5046 195.935C51.4178 194.644 51.4422 193.285 51.2403 192.005C51.2317 191.951 51.2328 191.893 51.229 191.837L50.9042 192.404L62.6193 187.181L81.2173 178.891L85.4797 176.991L84.516 176.599C85.2127 180.876 85.839 185.166 86.4415 189.457C87.6445 198.027 88.7255 206.622 89.4603 215.246C89.932 220.782 89.8847 226.31 89.7813 231.861C89.6215 240.45 89.3053 249.035 88.9545 257.618C88.5319 267.958 88.0461 278.296 87.497 288.63C87.4304 289.902 87.3631 291.173 87.295 292.445C87.2499 293.288 88.5619 293.286 88.607 292.445C89.1635 282.047 89.6662 271.646 90.1152 261.243C90.4959 252.293 90.8391 243.339 91.0412 234.382C91.1623 229.014 91.3922 223.577 91.008 218.214C90.3789 209.427 89.2878 200.67 88.0988 191.944C87.3954 186.782 86.6468 181.625 85.8184 176.481C85.806 176.404 85.7936 176.327 85.7811 176.25C85.7061 175.79 85.1607 175.705 84.8175 175.858L73.1023 181.08L54.5043 189.371L50.242 191.271C50.1417 191.327 50.0585 191.41 50.0012 191.509C49.944 191.609 49.9149 191.722 49.9171 191.837L50.0985 194.535L50.5921 201.875L51.3189 212.68L52.2051 225.857L53.1796 240.348L54.1633 254.975L55.0771 268.561L55.8523 280.088L56.4077 288.347C56.4958 289.656 56.5678 290.968 56.672 292.277C56.6765 292.333 56.6795 292.389 56.6833 292.445C56.7396 293.283 58.052 293.289 57.9952 292.445Z" fill="black"/>
<path d="M23.9811 195.611C23.9811 195.611 12.2893 197.86 10.9401 204.605C9.59101 211.35 26.6792 212.924 26.6792 212.924" fill="black"/>
<path d="M23.8067 194.979C21.8981 195.371 20.0359 195.962 18.2507 196.742C15.3308 197.982 12.172 199.867 10.8197 202.882C10.26 204.13 9.97028 205.536 10.4942 206.846C10.9671 208.029 11.8962 208.922 12.9302 209.631C15.2788 211.241 18.1958 212.047 20.9449 212.654C22.1346 212.917 23.3329 213.136 24.5399 213.31C25.2149 213.409 25.9029 213.531 26.5851 213.571C26.6165 213.573 26.6478 213.577 26.6791 213.58C26.8527 213.579 27.0188 213.509 27.1415 213.387C27.2643 213.264 27.3338 213.098 27.3351 212.924C27.3315 212.751 27.2612 212.587 27.139 212.464C27.0167 212.342 26.852 212.272 26.6791 212.268C26.2625 212.23 25.8472 212.176 25.4323 212.122C25.255 212.099 25.5251 212.135 25.4095 212.119C25.3611 212.112 25.3126 212.106 25.2643 212.099C25.1467 212.083 25.0291 212.066 24.9116 212.049C24.6584 212.012 24.4055 211.973 24.1528 211.932C23.5744 211.839 22.9976 211.736 22.4225 211.624C21.081 211.367 19.7534 211.042 18.4445 210.651C17.1335 210.28 15.8643 209.775 14.6573 209.143C14.3809 208.994 14.1094 208.836 13.8454 208.666C13.7181 208.584 13.5928 208.5 13.4692 208.413C13.4128 208.372 13.357 208.332 13.3012 208.291C13.2583 208.263 13.2178 208.231 13.1802 208.197C12.9618 208.021 12.7536 207.832 12.5567 207.632C12.4631 207.535 12.3728 207.436 12.286 207.333C12.2642 207.307 12.1622 207.179 12.2054 207.235C12.2407 207.281 12.1279 207.128 12.1034 207.092C11.9603 206.884 11.836 206.663 11.732 206.432C11.7988 206.58 11.7196 206.4 11.7052 206.359C11.6864 206.304 11.6671 206.25 11.65 206.194C11.6118 206.068 11.58 205.939 11.5547 205.809C11.5415 205.743 11.5293 205.627 11.5441 205.76C11.5366 205.693 11.5301 205.626 11.5261 205.558C11.518 205.42 11.518 205.282 11.5261 205.144C11.5296 205.081 11.5356 205.02 11.5416 204.958C11.551 204.859 11.5239 205.07 11.539 204.97C11.5432 204.943 11.5469 204.916 11.5521 204.889C11.5878 204.703 11.6274 204.519 11.6775 204.336C12.0715 202.902 12.9893 201.714 14.1257 200.715C15.3148 199.716 16.6379 198.888 18.0566 198.256C19.9862 197.402 21.9936 196.735 24.0511 196.265C24.0854 196.256 24.1207 196.25 24.1555 196.244C24.9835 196.084 24.633 194.819 23.8067 194.979Z" fill="black"/>
<path d="M63.977 216.056C63.977 216.056 58.3703 247.498 58.2373 259.203C59.0646 229.478 59.4156 212.924 59.4156 212.924C59.4156 212.924 63.9459 208.215 63.977 216.056Z" fill="black" stroke="black" stroke-width="1.4577" stroke-miterlimit="10"/>
<path d="M57.3898 292.5L59.9632 191.426L21.7089 176.424C21.7089 176.424 17.8191 200.296 16.5054 218.214C15.8671 226.919 17.8381 261.19 19.5119 292.445" fill="#458DC9"/>
<path d="M58.0456 292.5L58.1148 289.782L58.3012 282.459L58.579 271.549L58.9166 258.286L59.2865 243.761L59.6598 229.098L60.0079 215.425L60.3032 203.827L60.5139 195.549C60.5475 194.232 60.6148 192.911 60.6146 191.594C60.6146 191.538 60.6176 191.482 60.6189 191.426C60.6158 191.283 60.5675 191.145 60.481 191.031C60.3944 190.918 60.2741 190.834 60.1373 190.793L56.3438 189.306L47.2296 185.731L36.1416 181.383L26.5992 177.641L23.4393 176.402C22.9491 176.21 22.4554 175.97 21.9507 175.818C21.9277 175.812 21.9054 175.801 21.883 175.792C21.7153 175.746 21.5361 175.768 21.3849 175.854C21.2336 175.94 21.1226 176.082 21.076 176.25C20.3794 180.528 19.753 184.817 19.1506 189.109C17.9396 197.736 16.8455 206.388 16.1002 215.069C15.6234 220.622 15.7186 226.151 15.8866 231.718C16.1472 240.355 16.57 248.988 17.0056 257.618C17.5274 267.957 18.0944 278.294 18.6509 288.631C18.7193 289.902 18.7876 291.173 18.8557 292.445C18.9007 293.285 20.2129 293.29 20.1677 292.445C19.6105 282.044 19.0554 271.644 18.5024 261.243C18.0442 252.344 17.5992 243.442 17.2902 234.535C17.1762 231.25 17.0788 227.963 17.047 224.676C17.0263 222.544 17.009 220.402 17.1568 218.273C17.7601 209.585 18.8479 200.92 20.0235 192.293C20.7269 187.131 21.4755 181.974 22.3038 176.83C22.3162 176.753 22.3287 176.676 22.3412 176.599L21.5342 177.057L25.3277 178.545L34.4419 182.119L45.5299 186.467L55.0722 190.209L58.2321 191.448C58.7146 191.676 59.2119 191.871 59.7207 192.032C59.7438 192.039 59.7664 192.048 59.7884 192.058L59.3068 191.426L59.2376 194.144L59.0511 201.467L58.7734 212.377L58.4357 225.64L58.0659 240.165L57.6929 254.828L57.3449 268.501L57.0496 280.099L56.8389 288.377C56.8054 289.693 56.7346 291.015 56.7382 292.332C56.7383 292.388 56.7352 292.444 56.7339 292.5C56.7124 293.345 58.0243 293.344 58.0458 292.5L58.0456 292.5Z" fill="black"/>
<path d="M68.163 117.608H33.2707C28.7936 117.608 26.4545 119.459 24.5328 126.03C24.5328 126.03 5.13641 227.995 3.11279 249.807C17.3254 246.964 33.4889 238.022 61.9311 212.854C74.1759 233.845 100.415 241.061 100.415 241.061L78.1117 133.919" fill="#458DC9"/>
<path d="M68.1628 116.952H36.1176C34.6289 116.952 33.0865 116.863 31.6069 117.055C29.8773 117.235 28.2701 118.031 27.0777 119.296C25.5258 120.994 24.6878 123.264 24.0273 125.429C23.4701 127.255 23.2599 129.233 22.9069 131.104C22.0205 135.804 21.1392 140.505 20.2631 145.207C19.0168 151.892 17.78 158.579 16.5528 165.268C15.1396 172.974 13.7422 180.683 12.3606 188.394C10.9723 196.155 9.60911 203.92 8.27095 211.69C7.09639 218.539 5.94628 225.394 4.8682 232.259C4.0822 237.266 3.30976 242.28 2.72143 247.315C2.62447 248.144 2.53414 248.975 2.45665 249.807C2.41435 250.261 2.90758 250.516 3.28699 250.439C9.69397 249.152 15.7985 246.714 21.5644 243.669C29.9981 239.216 37.7846 233.588 45.2663 227.704C51.128 223.094 56.8095 218.258 62.3948 213.318L61.3646 213.185C65.8621 220.859 72.4178 227.107 79.7939 231.996C85.1145 235.511 90.8305 238.386 96.8237 240.563C97.9487 240.973 99.0848 241.375 100.24 241.693C100.352 241.722 100.469 241.72 100.58 241.69C100.691 241.66 100.792 241.601 100.873 241.519C100.955 241.438 101.013 241.337 101.044 241.226C101.074 241.115 101.075 240.998 101.047 240.886L100.448 238.011L98.8284 230.228L96.423 218.672L93.5004 204.632L90.2993 189.256L87.0548 173.67L84.0299 159.139L81.4844 146.91L79.6529 138.111C79.3631 136.718 79.1204 135.305 78.7813 133.924C78.7668 133.865 78.7565 133.804 78.7441 133.745C78.5721 132.919 77.3071 133.269 77.479 134.094L78.0776 136.969L79.6976 144.752L82.103 156.308L85.0256 170.348L88.2264 185.724L91.4709 201.31L94.4957 215.842L97.0412 228.07L98.8729 236.869C99.1594 238.245 99.3372 239.71 99.7446 241.057C99.762 241.114 99.7695 241.176 99.7818 241.235L100.589 240.428C97.3529 239.536 94.1971 238.216 91.1571 236.812C84.2381 233.616 77.6751 229.5 72.0747 224.309C68.3223 220.871 65.0954 216.899 62.4973 212.523C62.4454 212.438 62.3751 212.365 62.2914 212.311C62.2078 212.257 62.113 212.222 62.0141 212.209C61.9151 212.196 61.8146 212.206 61.7199 212.237C61.6253 212.269 61.5388 212.321 61.4671 212.39C52.4274 220.385 43.1431 228.185 33.1831 235.02C26.7368 239.444 19.9405 243.524 12.6227 246.339C9.48018 247.555 6.2404 248.504 2.93803 249.174L3.76837 249.807C4.17511 245.441 4.82938 241.143 5.48542 236.805C6.46294 230.343 7.5265 223.894 8.61472 217.45C9.89626 209.861 11.2128 202.277 12.5642 194.7C13.9427 186.929 15.3413 179.162 16.7603 171.399C18.0383 164.393 19.3278 157.389 20.6289 150.387C21.6122 145.093 22.6014 139.8 23.5965 134.508C24.0922 131.873 24.5897 129.238 25.0892 126.603C25.1142 126.471 25.1342 126.337 25.1645 126.206C25.633 124.192 26.5333 121.891 27.9185 120.321C29.5103 118.516 31.6889 118.264 33.957 118.264H68.1628C69.0069 118.264 69.0083 116.952 68.1628 116.952Z" fill="black"/>
<path d="M43.606 111.977C46.2633 112.502 48.999 112.488 51.6506 111.935C52.4741 111.75 52.1256 110.485 51.3018 110.67C49.6504 111.009 47.9593 111.112 46.2788 110.977C45.9555 110.957 45.6326 110.931 45.3101 110.898C45.1726 110.884 45.0351 110.869 44.8977 110.852C44.8489 110.846 44.5598 110.809 44.6512 110.822C44.4185 110.79 44.1856 110.756 43.9548 110.712C43.7872 110.671 43.61 110.695 43.4598 110.78C43.3096 110.865 43.1979 111.005 43.1478 111.17C43.1031 111.338 43.1261 111.517 43.2118 111.668C43.2975 111.819 43.4391 111.93 43.606 111.977Z" fill="black"/>
<path d="M35.5051 134.721L69.3859 168.376L148.329 154.042L152.172 178.899L78.1453 198.384C64.9945 200.568 56.8453 204.556 41.4661 187.598L20.5735 165.291C16.356 160.788 13.6109 155.107 12.7041 149.005C11.7974 142.902 12.7719 136.668 15.4979 131.134L17.5933 126.88C18.9741 124.076 21.1124 121.715 23.7659 120.064C26.4194 118.413 29.4822 117.538 32.6074 117.538H49.207" fill="#458DC9"/>
<path d="M35.0413 135.185L40.8335 140.938L53.2391 153.261L64.9541 164.898L68.2774 168.199C68.7151 168.634 69.0279 169.097 69.7054 168.982C71.9228 168.605 74.133 168.178 76.346 167.776L90.4262 165.22L108.225 161.988L126.181 158.728L140.735 156.085L148.169 154.736L148.503 154.675L147.696 154.217L148.993 162.606L151.062 175.988L151.539 179.074L151.997 178.267L142.554 180.752L120.838 186.468L96.7728 192.802L80.3326 197.129C79.3411 197.39 78.3586 197.683 77.3483 197.856C73.0025 198.604 68.653 199.722 64.2203 199.758C59.4951 199.796 55.1526 198.226 51.2649 195.587C47.4616 193.005 44.3139 189.679 41.1887 186.342L26.3711 170.522C24.6448 168.679 22.9186 166.836 21.1923 164.993C17.4419 161.013 14.8461 156.086 13.6836 150.743C12.3149 144.303 13.1191 137.591 15.9704 131.657C16.6567 130.237 17.3617 128.827 18.0596 127.413C19.2509 124.929 21.0462 122.783 23.2812 121.171C25.8385 119.359 28.8669 118.329 31.9987 118.205C33.0057 118.168 34.0174 118.194 35.0247 118.194H49.2069C50.0511 118.194 50.0525 116.882 49.2069 116.882H34.6399C33.4269 116.882 32.2017 116.843 30.9932 116.96C28.0261 117.254 25.1828 118.299 22.7305 119.995C20.2782 121.691 18.2974 123.983 16.9744 126.655C16.2916 128.034 15.6113 129.416 14.9337 130.798C12.7652 135.186 11.6655 140.025 11.7244 144.92C11.7833 149.814 12.9992 154.625 15.2727 158.96C16.9283 162.121 19.1889 164.772 21.6059 167.353L37.235 184.039C42.9317 190.121 48.5873 196.988 56.6734 199.849C60.8277 201.32 65.1724 201.245 69.4755 200.597C71.7185 200.259 73.9415 199.802 76.1722 199.393C77.0062 199.24 77.8526 199.139 78.673 198.923L91.277 195.606L114.475 189.5L138.13 183.274L151.706 179.7L152.346 179.532C152.511 179.482 152.651 179.37 152.736 179.22C152.821 179.07 152.846 178.893 152.804 178.725L151.507 170.336L149.438 156.953L148.961 153.868C148.904 153.497 148.469 153.353 148.154 153.41L140.302 154.835L121.446 158.259L98.6344 162.401L78.9173 165.981L72.4221 167.16C71.4197 167.342 70.3213 167.425 69.344 167.719C69.3003 167.73 69.2561 167.738 69.2116 167.743L69.8498 167.912L66.4796 164.564L58.3865 156.525L48.5959 146.8L40.1338 138.394C38.7778 137.047 37.4774 135.568 36.0302 134.318C36.0086 134.299 35.9893 134.277 35.969 134.257C35.3693 133.661 34.4412 134.589 35.0413 135.185Z" fill="black"/>
<path d="M41.7043 117.303V109.293C39.5986 108.344 38.0182 107.085 37.3017 105.526C33.7719 97.8464 37.3017 69.8052 37.3017 69.8052H70.3159C70.3159 69.8052 75.2992 97.443 70.3159 105.526C68.6274 108.265 64.6972 110.029 60.1022 110.866V120.684" fill="#FC7272"/>
<path d="M42.3604 117.304V109.293C42.3615 109.179 42.332 109.066 42.2749 108.966C42.2178 108.866 42.1351 108.784 42.0355 108.727C40.953 108.269 39.9543 107.634 39.0802 106.848C38.7195 106.513 38.4047 106.131 38.1442 105.713C38.0318 105.526 37.9303 105.333 37.8403 105.134C37.8133 105.075 37.7744 104.981 37.8244 105.101C37.8004 105.043 37.7768 104.985 37.7537 104.926C37.364 103.87 37.0874 102.775 36.9286 101.66C36.8171 100.974 36.7558 100.476 36.6823 99.7452C36.608 99.0056 36.5524 98.2641 36.51 97.522C36.4174 95.9018 36.3862 94.2783 36.3891 92.6557C36.3953 89.2523 36.55 85.8496 36.7767 82.4543C36.9666 79.6103 37.2073 76.7703 37.499 73.9343C37.5929 73.0123 37.692 72.0908 37.7964 71.1698C37.8455 70.7386 37.9318 70.2973 37.9505 69.8635C37.9513 69.8442 37.9553 69.8245 37.9577 69.8053L37.3018 70.4613H68.9662C69.3899 70.4613 69.8365 70.5018 70.2588 70.4613C70.2775 70.4595 70.2971 70.4613 70.3158 70.4613L69.6833 69.9797C69.9122 71.2502 70.1066 72.5276 70.2942 73.8047C70.5039 75.2327 70.6605 76.3939 70.8352 77.816C71.0422 79.5005 71.2235 81.188 71.3793 82.8783C71.7386 86.5339 71.9006 90.2063 71.8647 93.8793C71.8112 97.0506 71.6457 100.19 70.6493 103.203C70.5481 103.509 70.4374 103.812 70.3124 104.109C70.3618 103.992 70.2955 104.146 70.2784 104.184C70.2481 104.251 70.2178 104.318 70.1864 104.385C70.1213 104.522 70.0529 104.658 69.9812 104.792C69.5748 105.537 69.0376 106.204 68.3953 106.759C66.6013 108.34 64.2226 109.211 61.9393 109.795C61.2742 109.966 60.6029 110.109 59.9278 110.233C59.7898 110.272 59.6681 110.355 59.5813 110.469C59.4944 110.583 59.447 110.723 59.4463 110.866V120.684C59.4463 121.528 60.7582 121.53 60.7582 120.684V110.866L60.2766 111.499C64.4834 110.723 69.5468 109.055 71.4226 104.821C72.6842 101.974 72.981 98.7279 73.122 95.6508C73.2577 91.9199 73.1593 88.1843 72.8272 84.4657C72.5614 81.1395 72.1771 77.8232 71.7122 74.5192C71.5586 73.4278 71.3946 72.3379 71.2202 71.2495C71.1376 70.736 71.0822 70.2033 70.9601 69.6971C70.9549 69.6755 70.9523 69.6529 70.9483 69.6311C70.9095 69.493 70.8268 69.3714 70.7127 69.2845C70.5986 69.1976 70.4593 69.1502 70.3158 69.1495H41.3708C40.037 69.1495 38.692 69.0987 37.3589 69.1495C37.3399 69.1503 37.3208 69.1495 37.3019 69.1495C37.1295 69.1544 36.9655 69.2251 36.8435 69.3471C36.7215 69.469 36.6508 69.6331 36.6459 69.8055C36.5037 70.9363 36.3814 72.0698 36.2627 73.2032C35.9741 75.9582 35.7306 78.7175 35.5321 81.4811C35.2873 84.9183 35.114 88.3628 35.0821 91.809C35.0079 94.9894 35.1681 98.1709 35.5612 101.328C35.706 102.511 35.9604 103.677 36.3211 104.813C36.5251 105.47 36.8218 106.094 37.2023 106.667C37.8791 107.598 38.7349 108.384 39.7195 108.98C40.2503 109.31 40.8029 109.604 41.3734 109.86L41.0485 109.293V117.304C41.0485 118.148 42.3604 118.149 42.3604 117.304Z" fill="black"/>
<path d="M27.585 68.9336C30.4456 69.1936 33.5662 69.1936 33.5662 69.1936C33.5662 69.1936 29.6654 73.0945 28.6252 81.1562C27.8972 86.7986 30.8692 96.2075 33.2109 102.313C33.8944 104.097 35.0293 105.674 36.5047 106.889C37.98 108.103 39.7453 108.914 41.628 109.242L42.6246 97.2795C40.9163 95.9445 38.4636 90.8439 38.4636 87.9176C38.4636 83.4966 40.8368 82.4564 43.9247 82.4564C47.0127 82.4564 50.4261 88.2898 50.4261 92.5986L50.6862 79.3358C50.6862 79.3358 72.4855 82.3178 74.1347 72.8344C74.1347 72.8344 75.9551 58.0114 59.5716 57.2311C43.1882 56.4509 30.9657 63.4724 27.585 68.9336Z" fill="black"/>
<path d="M27.5849 69.5891C29.5711 69.7666 31.5719 69.8483 33.5661 69.8492L33.1023 68.7294C32.1344 69.7731 31.324 70.9525 30.6968 72.2304C29.0847 75.2674 28.1274 78.6087 27.8866 82.0387C27.6744 85.5196 28.4436 89.08 29.3101 92.4301C29.7861 94.2704 30.3358 96.0913 30.9347 97.8952C31.4802 99.5381 32.0365 101.193 32.7008 102.793C33.4523 104.61 34.6471 106.21 36.176 107.447C37.7049 108.684 39.5192 109.519 41.4535 109.874C41.5507 109.898 41.6521 109.901 41.7502 109.88C41.8484 109.86 41.9407 109.818 42.0204 109.757C42.1001 109.697 42.1652 109.619 42.2108 109.529C42.2564 109.44 42.2813 109.342 42.2838 109.242L42.7449 103.707L43.0821 99.6594C43.1455 98.8978 43.246 98.1291 43.2732 97.3652C43.2917 96.8462 42.7422 96.5297 42.4312 96.164C41.9145 95.5251 41.4644 94.8352 41.0878 94.1049C40.1452 92.4539 39.4996 90.6502 39.1804 88.7761C38.9673 87.2738 39.1688 85.3165 40.2381 84.2327C40.6803 83.799 41.232 83.4936 41.8343 83.349C42.5375 83.1603 43.2655 83.0807 43.9929 83.1129C44.2843 83.13 44.5703 83.1986 44.8379 83.3153C45.1484 83.4587 45.4418 83.6364 45.7128 83.8451C46.392 84.3909 46.9813 85.0401 47.4588 85.769C48.5974 87.4264 49.354 89.3158 49.6739 91.301C49.7376 91.7304 49.7697 92.1639 49.7699 92.5981C49.7748 93.443 51.0653 93.4426 51.0819 92.5981L51.1693 88.1368L51.3097 80.9776L51.3419 79.3352L50.5116 79.9678C51.813 80.1454 53.1254 80.2516 54.4362 80.3284C57.2079 80.5116 59.9898 80.472 62.7552 80.2101C65.6142 79.9169 68.6151 79.3696 71.1209 77.8853C72.9866 76.7803 74.5786 74.9661 74.801 72.7319C74.9071 71.4279 74.8522 70.1159 74.6378 68.8253C74.3216 66.5076 73.4519 64.3001 72.1024 62.3894C70.2133 59.8039 67.4494 58.118 64.3787 57.2886C62.1469 56.6858 59.8311 56.5372 57.5286 56.5169C54.8161 56.4944 52.1061 56.6854 49.4236 57.0881C44.8565 57.7456 40.42 59.1118 36.2742 61.1372C33.2961 62.6155 30.3356 64.5155 28.1576 67.065C27.74 67.5482 27.3592 68.062 27.0182 68.602C26.5705 69.3206 27.705 69.98 28.1511 69.2642C28.4474 68.7785 28.7876 68.3211 29.1673 67.8975C29.6191 67.3816 30.1015 66.8933 30.612 66.4354C31.8183 65.3624 33.1265 64.4098 34.518 63.591C38.1316 61.4716 42.0567 59.935 46.1488 59.0379C48.5527 58.4879 50.9956 58.1254 53.4556 57.9536C56.0432 57.738 58.6451 57.76 61.2286 58.0193C64.4399 58.3864 67.6209 59.5343 69.8793 61.7912C70.1139 62.0256 70.3384 62.2697 70.5526 62.5234C70.74 62.7392 70.915 62.9654 71.077 63.2009C71.4257 63.6948 71.7382 64.2133 72.0121 64.7523C72.1458 65.0148 72.2706 65.2816 72.3865 65.5526C72.3315 65.4245 72.415 65.6221 72.4279 65.654C72.4522 65.714 72.476 65.7742 72.4994 65.8344C72.5524 65.9707 72.6032 66.1077 72.6519 66.2454C72.8294 66.7486 72.9801 67.2607 73.1036 67.7798C73.2188 68.2628 73.3098 68.7505 73.3826 69.2415C73.3864 69.2676 73.4104 69.4418 73.3957 69.3326C73.382 69.2306 73.403 69.3901 73.4067 69.4211C73.4205 69.5351 73.4337 69.6493 73.4457 69.7635C73.4674 69.9721 73.4852 70.181 73.4994 70.3902C73.5431 71.0143 73.5504 71.6403 73.5214 72.2652C73.5137 72.421 73.5025 72.5764 73.489 72.7318C73.4862 72.7631 73.483 72.7944 73.4793 72.8256C73.4783 72.8342 73.5208 72.6413 73.4799 72.7782C73.435 72.9289 73.4136 73.0886 73.3716 73.2407C73.3329 73.3805 73.2891 73.5188 73.2402 73.6555C73.2145 73.7275 73.1871 73.7986 73.1588 73.8695C73.1307 73.9397 73.1663 73.8529 73.1701 73.844C73.1515 73.8873 73.1323 73.9305 73.1123 73.9732C72.9898 74.2361 72.8485 74.4898 72.6895 74.7324C72.5622 74.9396 72.4136 75.1329 72.246 75.3092C72.0504 75.5284 71.8411 75.7351 71.6196 75.9281C71.4233 76.1069 71.2128 76.2694 70.9902 76.4141C70.733 76.5903 70.4666 76.7531 70.1938 76.9041C69.6607 77.202 69.1037 77.4548 68.5285 77.6601C67.1974 78.1328 65.8236 78.4752 64.4264 78.6824C61.6729 79.075 58.8891 79.2123 56.1104 79.0925C54.3877 79.0371 52.6629 78.9209 50.9515 78.7129C50.8585 78.7016 50.4925 78.6525 50.86 78.7027C50.7628 78.6784 50.6613 78.6762 50.5631 78.6964C50.465 78.7166 50.3726 78.7586 50.2928 78.8194C50.2131 78.8801 50.148 78.958 50.1025 79.0473C50.0569 79.1366 50.0321 79.235 50.0297 79.3352L49.9422 83.7965L49.8019 90.9557L49.7699 92.5981H51.0819C51.0671 90.0444 50.1202 87.4418 48.7331 85.319C47.5652 83.5317 45.8752 81.7433 43.5842 81.8043C41.6483 81.8558 39.6523 82.4247 38.6263 84.2052C37.4267 86.2872 37.7007 88.9387 38.4002 91.1322C38.8378 92.5005 39.415 93.8202 40.1226 95.0705C40.6618 96.0233 41.2931 97.0511 42.1601 97.7428L41.9681 97.2789L41.0949 107.76L40.9715 109.241L41.8019 108.609C40.2044 108.331 38.6928 107.687 37.3857 106.727C36.0785 105.768 35.0112 104.519 34.2672 103.078C33.5139 101.612 33.0246 99.9712 32.4924 98.4151C31.9077 96.7055 31.366 94.9808 30.8847 93.2391C29.9737 89.9423 29.1729 86.5082 29.1687 83.0695C29.1965 81.3499 29.4408 79.6407 29.8956 77.9821C30.2715 76.4856 30.7938 75.0298 31.4551 73.6357C31.9622 72.5652 32.567 71.5438 33.2619 70.5845C33.3254 70.4979 33.3898 70.412 33.4551 70.3268C33.3365 70.4823 33.4938 70.2784 33.5263 70.2378C33.6148 70.1274 33.7053 70.0187 33.7978 69.9116C33.8731 69.8251 33.949 69.7383 34.03 69.6571C34.1183 69.5641 34.1778 69.4474 34.2012 69.3213C34.2246 69.1952 34.211 69.065 34.1619 68.9465C34.1128 68.828 34.0304 68.7262 33.9246 68.6536C33.8189 68.581 33.6944 68.5406 33.5661 68.5373C31.5718 68.5364 29.5711 68.4547 27.5849 68.2772C27.4113 68.2785 27.2452 68.348 27.1225 68.4708C26.9998 68.5935 26.9302 68.7596 26.9289 68.9332C26.9324 69.106 27.0027 69.2708 27.1249 69.3931C27.2472 69.5154 27.412 69.5856 27.5849 69.5891Z" fill="black"/>
<path d="M60.8732 85.2707C60.2077 84.8573 59.4703 84.573 58.6995 84.433C57.0065 84.0969 55.2491 84.3951 53.7616 85.2707C53.0304 85.6922 53.6903 86.8263 54.4238 86.4035C55.6502 85.6729 57.1074 85.4325 58.5035 85.7305C58.7574 85.7877 59.0077 85.8598 59.2532 85.9462C59.3582 85.9832 59.4622 86.0228 59.5652 86.065C59.4324 86.0107 59.6768 86.116 59.7169 86.1352C59.8877 86.2129 60.0528 86.3026 60.2109 86.4035C60.9171 86.8707 61.575 85.735 60.8732 85.2707Z" fill="black"/>
<path d="M60.0421 88.9923C58.7066 88.6 57.2839 88.619 55.9593 89.0468C55.8762 89.0697 55.7985 89.1087 55.7305 89.1617C55.6625 89.2146 55.6056 89.2804 55.5631 89.3554C55.4772 89.5067 55.4549 89.686 55.5011 89.8537C55.5474 90.0215 55.6584 90.164 55.8097 90.2499C55.961 90.3358 56.1403 90.3581 56.3081 90.3119C56.6414 90.2023 56.9828 90.1194 57.3293 90.0639L57.3515 90.0606C57.3946 90.0555 57.4378 90.0508 57.481 90.0466C57.5658 90.0384 57.6508 90.0319 57.736 90.0273C57.89 90.0189 58.0441 90.0163 58.1982 90.0197C58.3451 90.0228 58.4918 90.0312 58.6382 90.0447C58.7132 90.0516 58.7881 90.0599 58.8628 90.0695C58.7008 90.0485 58.8998 90.0768 58.9323 90.0823C59.1891 90.126 59.4433 90.1844 59.6934 90.2574C59.8612 90.3037 60.0404 90.2814 60.1918 90.1955C60.3431 90.1095 60.4541 89.967 60.5003 89.7993C60.5466 89.6315 60.5243 89.4522 60.4384 89.3009C60.3525 89.1496 60.2099 89.0386 60.0421 88.9923Z" fill="black"/>
<path d="M71.4875 88.6104C70.1314 88.2972 68.7124 88.4007 67.4162 88.9074C67.2508 88.9574 67.111 89.069 67.0257 89.2193C66.9404 89.3695 66.9162 89.5468 66.958 89.7144C67.0058 89.8812 67.117 90.0226 67.2679 90.1082C67.4188 90.1939 67.5973 90.217 67.765 90.1725C68.09 90.0402 68.4255 89.9352 68.7679 89.8586C68.8538 89.8397 68.94 89.8227 69.0266 89.8076C69.0504 89.8035 69.3035 89.7686 69.1694 89.7844C69.3225 89.7664 69.4761 89.7535 69.6302 89.7468C69.9164 89.7344 70.2032 89.7416 70.4884 89.7683C70.5507 89.7741 70.6127 89.7816 70.6748 89.7884C70.4969 89.7689 70.723 89.796 70.7563 89.8015C70.8845 89.8225 71.0119 89.8475 71.1388 89.8754C71.3066 89.9216 71.4858 89.8993 71.6372 89.8134C71.7885 89.7275 71.8995 89.585 71.9457 89.4172C71.992 89.2495 71.9697 89.0702 71.8838 88.9189C71.7979 88.7675 71.6553 88.6566 71.4875 88.6104Z" fill="black"/>
<path d="M54.8661 118.834L65.3412 118.11C65.7869 118.056 66.2391 118.105 66.6628 118.254C67.0864 118.403 67.4702 118.647 67.7844 118.967C68.5893 119.821 68.6833 120.953 68.3212 122.021L66.4199 127.63L65.5675 130.145C65.4995 130.292 65.4529 130.447 65.4289 130.607C65.4516 130.825 65.5005 131.04 65.5746 131.246C66.0078 133.033 66.4527 134.818 66.8744 136.608C67.1811 137.939 67.1022 139.329 66.6468 140.616C66.4992 141.05 66.3512 141.485 66.2028 141.919L64.3025 147.493L60.671 158.144L60.6002 158.351C60.4637 158.752 61.0971 158.924 61.2327 158.526L64.4554 149.073L66.5439 142.947C66.9957 141.622 67.5775 140.256 67.698 138.852C67.7967 137.703 67.5522 136.621 67.2849 135.518L66.4826 132.209L66.1576 130.868C66.1423 130.769 66.1186 130.671 66.0867 130.576C66.0251 130.437 66.0189 130.743 66.0855 130.657C66.1841 130.461 66.255 130.252 66.2962 130.036L66.7268 128.765L68.8015 122.644C69.0713 121.849 69.3011 121.096 69.141 120.235C68.9876 119.464 68.5784 118.767 67.9797 118.258C67.3811 117.749 66.628 117.457 65.8425 117.429C65.3601 117.42 64.8689 117.487 64.3883 117.52L61.1957 117.741L55.2324 118.153L54.8661 118.178C54.4473 118.207 54.4441 118.863 54.8661 118.834Z" fill="black"/>
<path d="M53.4139 118.178L48.1017 117.901L39.6432 117.461C39.0174 117.428 38.3665 117.339 37.7396 117.361C37.052 117.386 36.3078 117.865 35.8439 118.345C35.5197 118.681 35.2658 119.079 35.0972 119.515C34.9285 119.95 34.8485 120.415 34.8618 120.882C34.8993 121.914 35.4665 122.74 35.9635 123.6L38.0925 127.286L39.8027 130.247C39.8364 130.32 39.8768 130.39 39.9235 130.456C39.8675 130.463 39.9177 130.221 39.8796 130.338C39.87 130.397 39.8676 130.458 39.8723 130.518L39.8063 132.135L39.6443 136.1C39.6036 136.826 39.6544 137.555 39.7957 138.269C39.9282 138.885 40.1372 139.482 40.4177 140.046C40.5001 140.24 40.6074 140.423 40.7368 140.59C41.0203 140.911 41.3585 141.198 41.6648 141.497L43.704 143.492L49.6802 149.338L55.9056 155.427L59.5421 158.984L59.7166 159.155C60.0186 159.45 60.4828 158.987 60.1804 158.691L57.6786 156.244L51.9619 150.652L45.7129 144.54L41.6147 140.531C41.4912 140.41 41.3514 140.295 41.2389 140.164C40.8623 139.724 40.6667 139.023 40.5182 138.47C40.1756 137.195 40.309 135.882 40.3622 134.581L40.5242 130.617C40.5556 130.424 40.5281 130.225 40.4452 130.048C40.2704 129.727 40.079 129.414 39.8962 129.097L36.0676 122.469C35.8547 122.136 35.6927 121.773 35.587 121.393C35.4842 120.936 35.4963 120.461 35.622 120.01C35.7478 119.559 35.9834 119.147 36.3077 118.809C36.6931 118.379 37.2188 118.099 37.7912 118.02C38.0338 118.011 38.2865 118.046 38.5288 118.059L46.0865 118.452L53.0264 118.814L53.4139 118.834C53.8358 118.856 53.8346 118.2 53.4139 118.178Z" fill="black"/>
<path d="M72.3415 85.0105C71.6219 84.7011 70.859 84.5045 70.0795 84.4275C68.7625 84.2642 67.3604 84.3251 66.2149 85.0644C65.7124 85.3859 65.2784 85.8036 64.9378 86.2934C64.5972 86.7831 64.3567 87.3354 64.2303 87.9184C64.0512 89.0398 64.1923 90.1889 64.6376 91.2336C65.2383 92.7379 66.1277 94.11 67.2556 95.2727L67.0869 94.9832C67.1268 95.1505 67.1225 95.3253 67.0742 95.4904C67.1267 95.331 66.9584 95.6708 67.0517 95.5308C67.0376 95.552 66.9086 95.6515 67.0151 95.5756C66.9738 95.604 66.9307 95.6296 66.8861 95.6522C66.7907 95.7024 67.0266 95.6084 66.8334 95.6742C66.7771 95.6934 66.7196 95.7089 66.6618 95.7227C66.5452 95.7518 66.4259 95.7682 66.3058 95.7715C65.9092 95.7866 65.512 95.7671 65.1188 95.7132C64.9451 95.7142 64.7788 95.7836 64.656 95.9064C64.5332 96.0292 64.4638 96.1955 64.4628 96.3692C64.4668 96.5419 64.5372 96.7064 64.6594 96.8285C64.7815 96.9507 64.9461 97.0211 65.1188 97.0251C66.2506 97.1598 67.917 97.1786 68.3392 95.8392C68.4098 95.6016 68.4364 95.3531 68.4176 95.1059C68.4124 94.9469 68.3903 94.7888 68.3518 94.6344C68.2301 94.378 68.0551 94.1505 67.8384 93.9671C67.27 93.3276 66.7756 92.626 66.3647 91.8756C65.7847 90.8067 65.233 89.4019 65.5164 88.1692C65.6589 87.5477 65.9828 86.9825 66.447 86.5453C66.9111 86.1082 67.4947 85.8187 68.1236 85.7136C68.9689 85.6024 69.8274 85.6468 70.6568 85.8447C70.9426 85.9059 71.2246 85.9843 71.5011 86.0793C71.5799 86.1067 71.6571 86.142 71.7365 86.1671C71.8402 86.1999 71.5696 86.0928 71.6791 86.1433C71.8305 86.2262 72.0078 86.248 72.1747 86.2042C72.3416 86.1604 72.4854 86.0544 72.5766 85.908C72.663 85.7574 72.6868 85.5789 72.6428 85.411C72.5987 85.2431 72.4907 85.0992 72.3415 85.0105Z" fill="black"/>
<path d="M47.8082 92.814C47.6162 92.0977 47.3782 91.3944 47.0957 90.7087C46.629 89.5576 46.0594 88.2732 45.0802 87.4616C44.8171 87.2195 44.5011 87.0422 44.1574 86.9437C43.8137 86.8453 43.4518 86.8285 43.1004 86.8946C43.0173 86.9175 42.9396 86.9566 42.8716 87.0095C42.8036 87.0625 42.7468 87.1283 42.7042 87.2032C42.6617 87.2781 42.6343 87.3607 42.6237 87.4462C42.613 87.5317 42.6194 87.6185 42.6423 87.7015C42.6651 87.7846 42.7042 87.8624 42.7571 87.9303C42.8101 87.9983 42.8759 88.0552 42.9508 88.0977C43.0257 88.1403 43.1083 88.1677 43.1938 88.1783C43.2793 88.1889 43.3661 88.1826 43.4492 88.1597C43.6227 88.1237 43.3658 88.1488 43.4712 88.1544C43.5214 88.157 43.5753 88.1532 43.6257 88.1526C43.7955 88.1505 43.5449 88.1217 43.6407 88.1521C43.701 88.1713 43.7651 88.1835 43.8261 88.2015C43.9761 88.2458 43.7797 88.1667 43.8507 88.2095C43.8964 88.2371 43.9465 88.2582 43.9927 88.2854C44.0404 88.3135 44.0859 88.3445 44.1319 88.3752C44.2724 88.469 44.0828 88.3233 44.1859 88.4172C44.3765 88.5888 44.5527 88.7756 44.713 88.9758C44.614 88.851 44.735 89.0082 44.7598 89.0429C44.7994 89.0982 44.838 89.1542 44.8757 89.2109C44.963 89.3414 45.046 89.4746 45.1247 89.6106C45.2734 89.8654 45.4094 90.1275 45.5364 90.3936C45.594 90.5141 45.6497 90.6355 45.7036 90.7577C45.7321 90.8219 45.7598 90.8865 45.7876 90.951C45.7252 90.8053 45.8236 91.0393 45.8403 91.0809C46.023 91.5336 46.188 91.9929 46.3351 92.459C46.4092 92.6919 46.4813 92.926 46.5431 93.1625C46.7567 93.9785 48.0224 93.6328 47.8082 92.814Z" fill="black"/>
<path d="M35.6465 67.373C35.6465 67.373 30.7316 68.2667 26.6996 73.781C26.6527 73.8454 26.6288 73.9237 26.6316 74.0033C26.6344 74.0829 26.6638 74.1592 26.7151 74.2201C26.7664 74.2811 26.8366 74.323 26.9146 74.3393C26.9926 74.3556 27.0738 74.3453 27.1452 74.31C28.6686 73.6165 30.3331 73.2892 32.0057 73.3544" fill="black"/>
<path d="M35.6465 67.373C35.6465 67.373 30.7316 68.2667 26.6996 73.781C26.6527 73.8454 26.6288 73.9237 26.6316 74.0033C26.6344 74.0829 26.6638 74.1592 26.7151 74.2201C26.7664 74.2811 26.8366 74.323 26.9146 74.3393C26.9926 74.3556 27.0738 74.3453 27.1452 74.31C28.6686 73.6165 30.3331 73.2892 32.0057 73.3544" stroke="black" stroke-width="1.4577" stroke-miterlimit="10"/>
<path d="M65.0329 96.5068C65.0329 96.5068 59.5717 95.7819 56.9712 101.943C61.3921 103.393 65.0329 98.6814 65.0329 98.6814C65.0329 98.6814 69.9739 103.756 72.8345 101.581C71.1428 98.5245 71.3779 96.6392 65.0329 96.5068Z" fill="black"/>
<path d="M65.0325 95.8504C64.2931 95.7817 63.5474 95.8328 62.8243 96.0017C61.192 96.3414 59.6976 97.1591 58.5313 98.3507C57.6262 99.2964 56.905 100.402 56.4045 101.612C56.3564 101.699 56.3283 101.796 56.3224 101.896C56.3166 101.995 56.333 102.095 56.3706 102.187C56.4082 102.28 56.4659 102.363 56.5396 102.43C56.6133 102.497 56.7011 102.547 56.7965 102.576C59.8482 103.545 62.8878 101.927 64.9673 99.7459C65.1538 99.5547 65.3304 99.3541 65.4965 99.145H64.5688C65.1919 99.7683 65.8631 100.341 66.5763 100.859C67.8036 101.772 69.2245 102.598 70.7726 102.757C71.6182 102.857 72.4707 102.639 73.1654 102.147C73.312 102.056 73.4181 101.912 73.4619 101.745C73.5056 101.578 73.4837 101.401 73.4007 101.25C72.8427 100.236 72.4395 99.1113 71.7477 98.177C70.9517 97.1489 69.8061 96.4487 68.5282 96.2093C67.3778 95.9737 66.2067 95.8535 65.0325 95.8504C64.1879 95.831 64.1883 97.143 65.0325 97.1624C65.9879 97.1656 66.9413 97.2492 67.8827 97.4122C68.2387 97.479 68.5897 97.5701 68.9332 97.6848C69.1856 97.7637 69.4276 97.8724 69.6542 98.0086C69.7656 98.0724 69.8721 98.1425 69.978 98.2149C70.0131 98.2389 70.1135 98.3192 70.026 98.2488C70.0763 98.2893 70.1256 98.3311 70.1738 98.3741C70.2615 98.4525 70.3455 98.5348 70.4258 98.6211C70.4624 98.6605 70.4982 98.7006 70.5331 98.7414C70.5583 98.7707 70.6821 98.9272 70.5988 98.8176C70.8901 99.2201 71.143 99.649 71.3543 100.099C71.6564 100.705 71.9411 101.318 72.2678 101.912L72.5031 101.014C72.2812 101.189 72.0268 101.319 71.7545 101.395C71.4823 101.471 71.1977 101.492 70.9171 101.458C70.2948 101.381 69.6908 101.195 69.1331 100.908C68.0325 100.349 67.0153 99.6381 66.1108 98.7975C65.9012 98.6097 65.6931 98.4187 65.4964 98.2172C65.373 98.0949 65.2063 98.0263 65.0326 98.0263C64.8588 98.0263 64.6921 98.0949 64.5687 98.2172C62.8822 100.391 59.9719 102.209 57.1452 101.311L57.5373 102.274C58.3016 100.487 59.4717 98.8975 61.1984 97.9684C61.7665 97.6616 62.3754 97.4373 63.0068 97.3024C63.1419 97.272 63.2778 97.2451 63.4144 97.2219C63.4828 97.2102 63.5514 97.2 63.62 97.1897C63.6969 97.178 63.5728 97.1959 63.5695 97.1963C63.6173 97.1903 63.6651 97.1843 63.7131 97.1794C63.9272 97.1575 64.1417 97.142 64.3569 97.1376C64.5824 97.129 64.8083 97.1373 65.0325 97.1624C65.2063 97.1616 65.3726 97.0922 65.4954 96.9693C65.6183 96.8465 65.6877 96.6802 65.6885 96.5065C65.6843 96.3338 65.6138 96.1694 65.4917 96.0472C65.3696 95.9251 65.2052 95.8546 65.0325 95.8504Z" fill="black"/>
<path d="M61.2152 109.97C61.0888 109.998 60.9608 110.02 60.8332 110.041C60.6742 110.067 60.5149 110.09 60.3555 110.113C60.2021 110.135 60.4015 110.108 60.3366 110.116C60.275 110.124 60.2134 110.132 60.1517 110.139C60.0344 110.154 59.917 110.167 59.7995 110.18C58.2551 110.339 56.7033 110.415 55.1507 110.406C54.3066 110.407 54.3051 111.719 55.1507 111.718C56.724 111.727 58.2965 111.649 59.8613 111.485C60.4328 111.432 61.0012 111.348 61.564 111.235C62.3883 111.054 62.0395 109.789 61.2152 109.97Z" fill="black"/>
<path d="M57.7704 117.608L57.0444 150.452L40.3452 117.538L57.7704 117.608Z" fill="white"/>
<path d="M57.1143 117.608L57.042 120.876L56.8685 128.725L56.6595 138.182L56.4773 146.421L56.4178 149.113C56.4085 149.534 56.3603 149.974 56.3895 150.395C56.3908 150.413 56.3887 150.433 56.3882 150.452L57.6106 150.121L55.9449 146.838L51.9626 138.989L47.1299 129.463L42.9671 121.258L41.5942 118.552C41.3797 118.13 41.1934 117.666 40.9407 117.264C40.9294 117.246 40.9211 117.226 40.9115 117.207L40.3451 118.194L46.2211 118.217L55.5998 118.255L57.7702 118.263C58.6145 118.267 58.6156 116.955 57.7702 116.951L51.8942 116.928L42.5155 116.891L40.3451 116.882C40.2305 116.884 40.1184 116.916 40.0198 116.974C39.9212 117.033 39.8394 117.116 39.7823 117.215C39.7253 117.314 39.695 117.427 39.6943 117.541C39.6937 117.656 39.7228 117.769 39.7787 117.869L41.4444 121.152L45.4267 129.001L50.2594 138.526L54.4221 146.731C55.0941 148.056 55.7069 149.438 56.4485 150.725C56.4592 150.744 56.468 150.764 56.4777 150.783C56.7835 151.386 57.6864 151.071 57.7001 150.452L57.7724 147.183L57.9459 139.335L58.1549 129.877L58.337 121.638C58.3662 120.318 58.4544 118.985 58.4249 117.665C58.4245 117.646 58.4257 117.627 58.4261 117.608C58.4449 116.763 57.1329 116.763 57.1143 117.608Z" fill="black"/>
<path d="M44.2601 124.892L52.2041 122.854V118.559L44.2601 116.52C43.8565 116.381 43.4255 116.341 43.0031 116.402C42.5806 116.463 42.1789 116.624 41.8313 116.872C41.4838 117.12 41.2005 117.447 41.005 117.827C40.8095 118.206 40.7075 118.627 40.7075 119.054V122.359C40.7075 122.786 40.8095 123.206 41.005 123.586C41.2005 123.965 41.4838 124.293 41.8313 124.54C42.1789 124.788 42.5806 124.949 43.0031 125.011C43.4255 125.072 43.8565 125.031 44.2601 124.892Z" fill="black"/>
<path d="M44.4342 125.525L51.3839 123.742L52.3782 123.486C52.5157 123.447 52.6368 123.364 52.7235 123.25C52.8103 123.136 52.858 122.997 52.8598 122.854V118.559C52.8579 118.416 52.8101 118.277 52.7234 118.163C52.6367 118.049 52.5157 117.966 52.3782 117.926L45.0635 116.05C44.6352 115.919 44.199 115.817 43.7576 115.743C43.163 115.679 42.5622 115.775 42.017 116.02C41.4718 116.266 41.002 116.653 40.6561 117.14C40.1499 117.839 40.0513 118.643 40.0513 119.477V121.772C40.0513 122.699 40.1304 123.576 40.7143 124.349C41.1354 124.907 41.7199 125.32 42.3865 125.531C43.0531 125.741 43.7687 125.739 44.4342 125.525C45.2341 125.266 44.892 123.999 44.0855 124.26C43.6598 124.411 43.196 124.418 42.766 124.28C42.336 124.141 41.9639 123.864 41.7073 123.492C41.3523 122.954 41.3633 122.384 41.3633 121.772V119.641C41.3633 119.029 41.3514 118.459 41.7073 117.921C42.2467 117.106 43.1937 116.905 44.0855 117.153C44.3367 117.223 44.5911 117.283 44.8437 117.348L48.8826 118.384L52.0296 119.192L51.548 118.559V122.854L52.0296 122.221L45.08 124.005L44.0855 124.26C43.2681 124.469 43.6146 125.735 44.4342 125.525Z" fill="black"/>
<path d="M60.7521 124.892L52.8081 122.854V118.559L60.7521 116.52C61.1557 116.381 61.5867 116.341 62.0091 116.402C62.4316 116.463 62.8333 116.624 63.1809 116.872C63.5284 117.12 63.8117 117.447 64.0072 117.827C64.2027 118.206 64.3047 118.627 64.3047 119.054V122.359C64.3047 122.786 64.2027 123.206 64.0072 123.586C63.8117 123.965 63.5284 124.293 63.1809 124.54C62.8333 124.788 62.4316 124.949 62.0091 125.011C61.5866 125.072 61.1557 125.031 60.7521 124.892Z" fill="black"/>
<path d="M60.9267 124.26L53.9771 122.476L52.9827 122.221L53.4643 122.854V118.559L52.9827 119.191L59.7788 117.447C60.8 117.185 61.9128 116.722 62.859 117.445C63.1257 117.661 63.3365 117.938 63.474 118.253C63.6114 118.567 63.6714 118.91 63.6489 119.253V121.252C63.6489 121.876 63.7385 122.602 63.4784 123.187C63.2624 123.651 62.8814 124.018 62.4097 124.216C61.938 124.414 61.4093 124.43 60.9267 124.26C60.1216 123.999 59.7767 125.266 60.578 125.525C61.1549 125.711 61.7714 125.739 62.3626 125.605C62.9539 125.471 63.4981 125.18 63.9382 124.763C64.2776 124.426 64.5437 124.022 64.7197 123.577C64.8957 123.132 64.9778 122.656 64.9609 122.178V119.989C64.9609 119.3 65.0073 118.593 64.767 117.934C64.5613 117.367 64.207 116.867 63.7412 116.484C63.2755 116.101 62.7155 115.851 62.1198 115.759C61.4906 115.702 60.8564 115.774 60.2561 115.971L56.2093 117.009L52.6339 117.926C52.4964 117.966 52.3753 118.049 52.2886 118.163C52.2019 118.277 52.1541 118.416 52.1523 118.559V122.854C52.1542 122.997 52.202 123.136 52.2887 123.25C52.3754 123.363 52.4964 123.446 52.6339 123.486L59.5836 125.27L60.578 125.525C61.3962 125.735 61.7453 124.47 60.9267 124.26Z" fill="black"/>
<path d="M54.8662 118.385C54.8662 117.249 53.9452 116.328 52.8091 116.328C51.673 116.328 50.752 117.249 50.752 118.385V122.984C50.752 124.12 51.673 125.041 52.8091 125.041C53.9452 125.041 54.8662 124.12 54.8662 122.984V118.385Z" fill="black" stroke="black" stroke-width="1.4577" stroke-miterlimit="10"/>
<path d="M52.2975 125.215L52.8045 128.401L54.0156 136.014L55.4863 145.258L56.753 153.22L57.1711 155.848C57.2371 156.263 57.2749 156.697 57.3713 157.107C57.3755 157.124 57.3771 157.143 57.38 157.161C57.4273 157.328 57.5385 157.47 57.6895 157.555C57.8405 157.641 58.0192 157.664 58.187 157.619C58.3524 157.569 58.4924 157.457 58.5777 157.307C58.663 157.157 58.6872 156.979 58.6451 156.812L58.1381 153.626L56.927 146.013L55.4563 136.769L54.1897 128.807L53.7715 126.178C53.7055 125.763 53.6678 125.33 53.5713 124.92C53.5672 124.903 53.5656 124.884 53.5627 124.866C53.5154 124.699 53.4042 124.557 53.2531 124.471C53.1021 124.386 52.9234 124.363 52.7557 124.408C52.5902 124.458 52.4503 124.569 52.365 124.72C52.2796 124.87 52.2555 125.047 52.2975 125.215Z" fill="black"/>
<path d="M277.285 28.1865V125.61H191.758V7.5H277.249L277.285 28.1865Z" fill="white"/>
<path d="M276.629 28.1865V121.641C276.629 122.894 276.526 124.197 276.629 125.447C276.634 125.501 276.629 125.556 276.629 125.61L277.285 124.954H195.235C194.142 124.954 192.992 124.85 191.902 124.954C191.855 124.959 191.805 124.954 191.758 124.954L192.414 125.61V12.2944C192.414 10.7747 192.512 9.2181 192.414 7.70073C192.409 7.6344 192.414 7.56648 192.414 7.49991L191.758 8.15589H273.767C274.861 8.15589 276.014 8.26002 277.105 8.15589C277.152 8.15136 277.202 8.15589 277.249 8.15589L276.593 7.49991L276.605 14.4772L276.625 25.612L276.629 28.1865C276.631 29.0306 277.942 29.0321 277.941 28.1865L277.929 21.2092L277.91 10.0744L277.905 7.49991C277.903 7.32671 277.833 7.1613 277.71 7.03882C277.588 6.91633 277.422 6.84642 277.249 6.84393H195.24C194.129 6.84393 193.013 6.81276 191.903 6.84393C191.855 6.84528 191.806 6.84393 191.758 6.84393C191.585 6.8464 191.419 6.9163 191.297 7.03879C191.174 7.16128 191.104 7.3267 191.102 7.49991V120.816C191.102 122.346 191.073 123.88 191.102 125.41C191.103 125.476 191.102 125.543 191.102 125.611C191.104 125.784 191.174 125.949 191.297 126.072C191.419 126.194 191.585 126.264 191.758 126.266H273.808C274.917 126.266 276.032 126.298 277.141 126.266C277.189 126.265 277.237 126.266 277.285 126.266C277.459 126.264 277.624 126.194 277.746 126.072C277.869 125.949 277.939 125.784 277.941 125.611V32.1558C277.941 30.8885 277.972 29.6168 277.941 28.3499C277.94 28.2955 277.941 28.2409 277.941 28.1865C277.941 27.3423 276.629 27.3409 276.629 28.1865Z" fill="black"/>
<path d="M268.539 36.7138V134.138H183.011V16.0273H268.503L268.539 36.7138Z" fill="white"/>
<path d="M267.883 36.714V130.168C267.883 131.422 267.78 132.724 267.883 133.974C267.888 134.028 267.883 134.084 267.883 134.138L268.539 133.482H186.489C185.396 133.482 184.246 133.378 183.156 133.482C183.109 133.486 183.059 133.482 183.012 133.482L183.668 134.138V20.8218C183.668 19.3022 183.766 17.7456 183.668 16.2282C183.663 16.1619 183.668 16.094 183.668 16.0272L183.012 16.6832H265.021C266.115 16.6832 267.268 16.7874 268.359 16.6832C268.406 16.6787 268.456 16.6832 268.503 16.6832L267.847 16.0272L267.859 23.0045L267.879 34.1393L267.883 36.714C267.885 37.5581 269.196 37.5594 269.195 36.7138L269.183 29.7365L269.164 18.6017L269.159 16.0272C269.157 15.854 269.087 15.6886 268.964 15.5662C268.842 15.4437 268.676 15.3738 268.503 15.3713H186.494C185.383 15.3713 184.267 15.3401 183.156 15.3713C183.108 15.3726 183.06 15.3713 183.012 15.3713C182.839 15.3738 182.673 15.4437 182.551 15.5661C182.428 15.6886 182.358 15.854 182.356 16.0272V129.343C182.356 130.873 182.327 132.407 182.356 133.937C182.357 134.004 182.356 134.071 182.356 134.138C182.358 134.311 182.428 134.476 182.551 134.599C182.673 134.721 182.839 134.791 183.012 134.794H265.062C266.171 134.794 267.286 134.825 268.395 134.794C268.443 134.792 268.491 134.794 268.539 134.794C268.712 134.791 268.878 134.721 269 134.599C269.123 134.476 269.193 134.311 269.195 134.138V40.6833C269.195 39.416 269.226 38.1443 269.195 36.8773C269.194 36.8229 269.195 36.7684 269.195 36.714C269.195 35.8698 267.883 35.8684 267.883 36.714Z" fill="black"/>
<path d="M152.156 179.01L171.311 174.124C174.321 173.356 177.456 173.208 180.525 173.691C188.225 174.901 199.833 174.17 209.272 164.005L212.933 154.653C213.382 154.185 213.68 153.594 213.79 152.955C213.9 152.316 213.815 151.658 213.548 151.068C213.28 150.477 212.842 149.98 212.29 149.641C211.738 149.302 211.096 149.136 210.448 149.164L198.903 149.674C197.021 149.757 195.169 150.18 193.438 150.922L183.456 155.201L181.145 153.718C177.175 151.17 172.404 150.178 167.747 150.932L148.284 154.082L143.686 168.119L152.156 179.01Z" fill="#FC7272"/>
<path d="M152.331 179.642L161.401 177.329C164.736 176.478 168.071 175.627 171.405 174.776C172.945 174.38 174.522 174.148 176.11 174.085C177.252 174.042 178.396 174.085 179.532 174.212C180.274 174.296 181.011 174.427 181.752 174.518C184.508 174.86 187.296 174.872 190.055 174.552C197.126 173.761 203.713 170.573 208.72 165.519C209.143 165.1 209.713 164.658 209.936 164.098C210.025 163.875 210.111 163.651 210.199 163.427L211.236 160.78L213.433 155.166L213.566 154.827L213.397 155.116C213.946 154.548 214.31 153.827 214.44 153.048C214.57 152.269 214.46 151.468 214.126 150.753C213.791 150.037 213.247 149.44 212.566 149.04C211.885 148.641 211.098 148.457 210.31 148.514C208.061 148.61 205.812 148.71 203.563 148.812L199.946 148.972C198.898 148.998 197.852 149.089 196.815 149.244C194.279 149.673 191.922 150.864 189.574 151.87C187.47 152.772 185.328 153.616 183.252 154.58C183.21 154.599 183.167 154.616 183.125 154.634H183.787C183.017 154.14 182.246 153.646 181.476 153.151C179.494 151.884 177.302 150.98 175.003 150.481C172.666 149.982 170.259 149.904 167.894 150.25C167.473 150.311 167.053 150.383 166.633 150.451L160.437 151.454L152.628 152.718L149.663 153.198C149.171 153.278 148.663 153.329 148.177 153.439C148.155 153.444 148.132 153.446 148.11 153.45C148 153.479 147.9 153.537 147.82 153.618C147.739 153.698 147.682 153.798 147.652 153.908L146.164 158.449L143.72 165.909C143.51 166.552 143.279 167.192 143.088 167.84C143.045 167.973 143.038 168.114 143.066 168.25C143.094 168.386 143.157 168.512 143.249 168.617C143.378 168.784 143.508 168.951 143.638 169.118L147.986 174.707L150.335 177.727C150.765 178.28 151.174 178.86 151.63 179.392C151.652 179.418 151.672 179.447 151.693 179.474C151.816 179.596 151.983 179.664 152.157 179.664C152.33 179.664 152.497 179.596 152.62 179.474C152.74 179.348 152.806 179.182 152.806 179.01C152.806 178.837 152.74 178.671 152.62 178.546L149.766 174.876L145.208 169.016L144.15 167.655L144.318 168.293L145.872 163.55L148.349 155.99L148.917 154.256L148.459 154.715L153.428 153.91L162.722 152.406C164.454 152.126 166.184 151.841 167.916 151.565C170.473 151.162 173.086 151.3 175.585 151.97C177.702 152.58 179.711 153.518 181.538 154.749C182.059 155.083 182.571 155.469 183.116 155.762C183.485 155.959 183.85 155.74 184.194 155.593L187.62 154.124L191.862 152.306C192.655 151.966 193.443 151.602 194.251 151.297C195.914 150.693 197.664 150.358 199.433 150.306L203.126 150.143C205.558 150.036 207.989 149.907 210.422 149.821C210.788 149.802 211.154 149.859 211.497 149.989C211.839 150.119 212.151 150.32 212.411 150.578C212.671 150.836 212.875 151.146 213.008 151.487C213.142 151.828 213.202 152.194 213.186 152.56C213.167 152.949 213.055 153.328 212.861 153.666C212.651 153.933 212.461 154.214 212.29 154.507C212.171 154.803 212.057 155.101 211.941 155.398L208.888 163.195L208.639 163.83L208.808 163.541C204.867 167.77 199.919 170.921 194.318 172.416C189.995 173.534 185.492 173.772 181.077 173.115C179.435 172.849 177.773 172.734 176.11 172.773C174.431 172.838 172.764 173.078 171.136 173.491C170.498 173.652 169.861 173.816 169.223 173.979L159.435 176.476C156.993 177.099 154.532 177.672 152.104 178.346C152.063 178.357 152.023 178.367 151.982 178.377C151.165 178.586 151.511 179.851 152.331 179.642Z" fill="black"/>
<path d="M32.6073 117.538C29.4821 117.538 26.4193 118.413 23.7658 120.064C21.1123 121.715 18.9741 124.076 17.5932 126.88L15.4979 131.134C9.91607 142.466 10.2436 158.734 18.8793 167.954L39.772 190.26C55.1512 207.218 66.1591 207.09 79.3098 204.905L144.412 192.805C141.024 188.448 137.784 174.803 137.3 170.427C136.744 165.691 136.541 160.921 136.69 156.156L69.3859 168.376L35.5051 134.721" fill="#458DC9"/>
<path d="M32.6071 116.882C29.9142 116.897 27.2608 117.531 24.8515 118.734C22.4423 119.937 20.3417 121.678 18.7117 123.821C17.6176 125.268 16.8596 126.888 16.063 128.505C15.3203 130.013 14.5545 131.51 13.918 133.067C9.99944 142.653 9.85466 154.663 15.0446 163.816C16.3136 166.054 17.9682 167.94 19.7116 169.802L25.6514 176.143L38.5223 189.885C41.1464 192.687 43.7751 195.466 46.7426 197.914C50.5953 201.093 54.9034 203.775 59.7045 205.246C66.2519 207.253 73.2329 206.7 79.8743 205.466L91.142 203.371L111.592 199.57L132.12 195.755L144.028 193.541L144.586 193.438C144.683 193.41 144.772 193.362 144.847 193.295C144.922 193.228 144.98 193.145 145.018 193.052C145.056 192.959 145.072 192.858 145.065 192.758C145.058 192.658 145.028 192.561 144.978 192.474C143.806 190.947 143.031 189.113 142.343 187.33C141.469 185.025 140.713 182.678 140.076 180.297C138.848 175.967 138.03 171.531 137.63 167.047C137.313 163.426 137.218 159.789 137.345 156.156C137.344 156.056 137.319 155.957 137.274 155.867C137.229 155.778 137.164 155.699 137.084 155.638C137.004 155.578 136.911 155.536 136.813 155.516C136.714 155.496 136.612 155.498 136.515 155.523L129.813 156.74L113.722 159.662L94.3229 163.184L77.4968 166.239L71.9662 167.244C71.1104 167.399 70.1562 167.462 69.3246 167.723C69.2873 167.732 69.2495 167.739 69.2114 167.744L69.8496 167.912L66.4825 164.568L58.3954 156.535L48.6096 146.814L40.1466 138.408C38.7854 137.055 37.4796 135.573 36.0276 134.316C36.0068 134.298 35.9881 134.277 35.9686 134.258C35.3689 133.662 34.4408 134.589 35.0409 135.185L39.8963 140.008L50.7939 150.833L62.1942 162.157L68.6982 168.618C68.9577 168.876 69.1342 169.052 69.5629 169.008C69.6956 168.995 69.8294 168.96 69.9606 168.936L72.5922 168.458L83.5892 166.462L99.2252 163.623L115.747 160.623L129.429 158.139L136.546 156.846L136.864 156.789L136.034 156.156C135.917 159.422 135.983 162.692 136.234 165.951C136.378 168.397 136.662 170.832 137.083 173.246C137.945 177.956 139.206 182.585 140.852 187.082C141.626 189.166 142.48 191.357 143.845 193.136L144.237 192.172L136.051 193.694L117.173 197.203L96.1263 201.115L81.4349 203.846C76.7391 204.719 71.9835 205.476 67.1912 205.226C62.9388 205.002 58.7836 203.871 55.0049 201.907C49.909 199.268 45.5336 195.416 41.6064 191.275C38.0814 187.558 34.6087 183.789 31.1066 180.05L19.5624 167.724C13.1934 160.924 11.4806 150.944 12.847 141.964C13.2343 139.389 13.8856 136.861 14.7905 134.42C15.4281 132.804 16.1468 131.222 16.944 129.678C17.6813 128.181 18.3638 126.632 19.299 125.245C20.7735 123.073 22.7571 121.295 25.0768 120.066C27.3966 118.837 29.9818 118.194 32.607 118.194C33.451 118.189 33.4528 116.878 32.6071 116.882Z" fill="black"/>
<path d="M139.276 182.294C140.784 188.753 142.674 192.964 144.279 192.786C145.976 192.598 146.911 187.555 146.868 180.295L139.276 182.294Z" fill="black"/>
<path d="M138.644 182.468C139.156 184.825 139.859 187.136 140.746 189.379C141.286 190.682 141.929 192.24 143.125 193.085C144.08 193.761 145.113 193.373 145.743 192.483C146.565 191.321 146.827 189.719 147.039 188.347C147.412 185.68 147.574 182.988 147.524 180.296C147.522 180.195 147.498 180.096 147.453 180.006C147.407 179.916 147.342 179.838 147.262 179.777C147.182 179.716 147.09 179.674 146.991 179.655C146.892 179.635 146.791 179.638 146.693 179.663L140.066 181.407L139.102 181.661C138.286 181.876 138.632 183.142 139.451 182.926L146.078 181.182L147.042 180.928L146.212 180.296C146.244 182.567 146.139 184.839 145.895 187.097C145.803 187.914 145.666 188.726 145.484 189.527C145.405 189.869 145.314 190.209 145.207 190.543C145.161 190.685 145.112 190.826 145.058 190.965C145.023 191.069 144.98 191.17 144.929 191.267C144.831 191.474 144.715 191.673 144.582 191.859C144.678 191.726 144.511 191.936 144.468 191.98C144.435 192.014 144.398 192.044 144.363 192.075C144.449 191.999 144.43 192.031 144.356 192.073C144.32 192.094 144.281 192.112 144.245 192.134C144.313 192.093 144.368 192.097 144.272 192.119C144.238 192.125 144.205 192.134 144.172 192.144C144.291 192.104 144.267 192.111 144.172 192.136C144.087 192.158 144.102 192.121 144.202 192.146C144.16 192.136 144.117 192.126 144.074 192.116C144.049 192.11 143.927 192.06 144.024 192.102C144.124 192.145 143.959 192.065 143.936 192.051C143.899 192.027 143.862 192.003 143.824 191.979C143.717 191.91 143.838 191.994 143.808 191.967C143.715 191.889 143.627 191.805 143.544 191.717C143.371 191.541 143.22 191.346 143.094 191.135C142.699 190.517 142.359 189.865 142.078 189.188C141.101 186.929 140.469 184.509 139.909 182.119C139.716 181.298 138.451 181.645 138.644 182.468Z" fill="black"/>
<path d="M148.328 154.042L143.544 154.911L136.689 156.156C136.54 160.921 136.744 165.691 137.299 170.427C137.726 174.417 138.387 178.38 139.276 182.294L146.867 180.296L152.172 178.9L150.173 171.012C149.399 167.961 148.923 164.843 148.75 161.7L148.328 154.042Z" fill="white"/>
<path d="M148.154 153.41L138.65 155.136L136.515 155.523C136.377 155.563 136.256 155.646 136.169 155.76C136.082 155.874 136.035 156.013 136.034 156.156C135.744 163.095 136.397 170.118 137.548 176.957C137.859 178.805 138.219 180.644 138.644 182.468C138.692 182.635 138.803 182.776 138.954 182.861C139.105 182.947 139.283 182.97 139.451 182.926L145.031 181.458L149.405 180.306L152.346 179.532C152.512 179.484 152.653 179.372 152.739 179.222C152.824 179.071 152.848 178.893 152.804 178.725L150.847 171.002C150.115 168.144 149.645 165.224 149.441 162.28C149.355 160.985 149.295 159.688 149.224 158.392L148.985 154.043C148.938 153.203 147.626 153.198 147.673 154.043C147.813 156.589 147.953 159.135 148.093 161.681C148.271 164.893 148.757 168.081 149.544 171.201C149.86 172.45 150.176 173.7 150.494 174.949L151.539 179.074L151.998 178.267L146.739 179.651L141.512 181.027L139.102 181.661L139.909 182.119C138.348 175.292 137.479 168.325 137.316 161.323C137.271 159.601 137.274 157.877 137.346 156.156L136.864 156.788L145.892 155.149L148.503 154.675C148.67 154.628 148.812 154.516 148.897 154.366C148.983 154.215 149.006 154.036 148.961 153.868C148.912 153.703 148.8 153.562 148.65 153.477C148.499 153.392 148.322 153.368 148.154 153.41Z" fill="black"/>
<path d="M213.87 165.941C250.226 165.941 279.698 159.494 279.698 151.541C279.698 143.588 250.226 137.141 213.87 137.141C177.514 137.141 148.042 143.588 148.042 151.541C148.042 159.494 177.514 165.941 213.87 165.941Z" fill="#FFC41F"/>
<path d="M279.042 151.541C279.013 152.288 278.734 153.004 278.25 153.573C277.588 154.358 276.806 155.034 275.934 155.577C273.209 157.346 270.055 158.441 266.963 159.371C257.009 162.365 246.499 163.625 236.169 164.438C222.835 165.475 209.444 165.581 196.095 164.754C185.19 164.087 174.157 162.918 163.562 160.151C160.119 159.252 156.642 158.194 153.476 156.543C152.385 156.005 151.363 155.336 150.434 154.551C149.765 153.96 149.135 153.222 148.887 152.534C148.753 152.21 148.685 151.862 148.689 151.512C148.693 151.161 148.767 150.815 148.908 150.493C149.167 149.817 149.815 149.069 150.493 148.48C152.634 146.617 155.468 145.507 158.11 144.577C162.224 143.185 166.435 142.101 170.71 141.334C176.125 140.297 181.598 139.575 187.085 139.039C200.306 137.785 213.598 137.464 226.864 138.078C238.294 138.578 249.816 139.633 260.994 142.158C264.806 143.02 268.638 144.041 272.239 145.584C274.369 146.496 276.933 147.734 278.29 149.563C278.514 149.869 278.703 150.2 278.852 150.548C278.985 150.862 279.05 151.201 279.042 151.541C279.049 152.385 280.361 152.387 280.354 151.541C280.335 149.402 278.645 147.79 277.01 146.652C274.321 144.779 271.109 143.629 268.005 142.659C263.498 141.299 258.904 140.246 254.254 139.507C248.454 138.527 242.601 137.853 236.738 137.378C223.059 136.284 209.32 136.173 195.625 137.046C184.536 137.744 173.286 138.945 162.532 141.847C159.035 142.791 155.494 143.917 152.312 145.676C150.425 146.718 148.296 148.159 147.584 150.31C146.954 152.214 147.956 154.043 149.333 155.322C151.47 157.308 154.318 158.505 157.017 159.502C161.107 161.013 165.377 162.033 169.649 162.876C175.158 163.962 180.732 164.715 186.317 165.279C199.911 166.612 213.584 166.953 227.227 166.301C238.869 165.776 250.628 164.683 261.999 162.039C265.874 161.138 269.745 160.05 273.384 158.42C275.637 157.411 278.108 156.116 279.537 154.02C280.049 153.293 280.333 152.43 280.354 151.541C280.361 150.697 279.049 150.696 279.042 151.541Z" fill="black"/>
<path d="M213.87 159.588C242.741 159.588 266.145 155.701 266.145 150.906C266.145 146.111 242.741 142.224 213.87 142.224C184.999 142.224 161.595 146.111 161.595 150.906C161.595 155.701 184.999 159.588 213.87 159.588Z" fill="#FFC41F"/>
<path d="M265.49 150.906C265.489 150.963 265.484 151.02 265.48 151.077C265.497 150.848 265.484 151.05 265.465 151.106C265.446 151.162 265.431 151.22 265.412 151.276C265.379 151.375 265.433 151.228 265.437 151.22C265.42 151.26 265.401 151.299 265.38 151.337C265.316 151.446 265.254 151.551 265.18 151.654C265.296 151.493 265.154 151.683 265.12 151.719C265.058 151.786 264.997 151.852 264.932 151.916C264.715 152.139 264.468 152.332 264.199 152.49C263.842 152.72 263.47 152.929 263.087 153.115C260.911 154.188 258.4 154.827 255.998 155.375C248.01 157.199 239.755 157.932 231.592 158.421C221 159.047 210.383 159.112 199.784 158.613C191.158 158.214 182.465 157.53 173.982 155.851C171.243 155.309 168.482 154.676 165.877 153.653C165.043 153.339 164.244 152.938 163.493 152.458C163.229 152.3 162.987 152.107 162.776 151.883C162.722 151.83 162.672 151.774 162.62 151.719C162.591 151.688 162.444 151.492 162.561 151.654C162.482 151.542 162.409 151.425 162.343 151.304C162.253 151.142 162.355 151.357 162.329 151.276C162.31 151.22 162.294 151.162 162.275 151.106C162.255 151.046 162.244 150.853 162.261 151.077C162.256 151.008 162.254 150.941 162.251 150.872C162.25 150.836 162.272 150.662 162.254 150.788C162.236 150.918 162.271 150.721 162.28 150.689C162.294 150.637 162.312 150.587 162.329 150.536C162.371 150.409 162.258 150.68 162.319 150.559C162.335 150.525 162.35 150.49 162.369 150.458C162.402 150.403 162.435 150.347 162.468 150.291C162.494 150.248 162.631 150.073 162.509 150.225C162.602 150.109 162.702 149.999 162.809 149.896C162.927 149.782 163.052 149.673 163.181 149.572C163.061 149.667 163.274 149.505 163.307 149.482C163.384 149.427 163.462 149.374 163.541 149.322C165.355 148.139 167.505 147.526 169.601 146.965C177.084 144.963 184.931 144.196 192.633 143.626C203.141 142.871 213.682 142.678 224.211 143.05C233.228 143.35 242.295 143.968 251.197 145.49C254.252 145.969 257.269 146.667 260.225 147.577C261.227 147.886 262.205 148.271 263.149 148.728C263.536 148.918 263.911 149.133 264.271 149.37C264.341 149.417 264.41 149.465 264.478 149.514C264.523 149.545 264.566 149.577 264.609 149.61C264.591 149.596 264.507 149.528 264.6 149.604C264.739 149.716 264.872 149.835 264.997 149.962C265.045 150.01 265.089 150.06 265.135 150.109C265.213 150.193 265.243 150.248 265.192 150.175C265.263 150.277 265.329 150.383 265.389 150.492C265.481 150.655 265.398 150.492 265.412 150.536C265.43 150.593 265.446 150.65 265.465 150.706C265.483 150.759 265.511 150.97 265.48 150.735C265.486 150.792 265.49 150.849 265.49 150.906C265.499 151.75 266.811 151.752 266.801 150.906C266.784 149.381 265.286 148.372 264.082 147.735C261.853 146.555 259.344 145.881 256.903 145.301C248.786 143.375 240.358 142.619 232.05 142.107C221.18 141.446 210.283 141.378 199.406 141.905C190.587 142.325 181.686 143.039 173.025 144.819C170.312 145.376 167.576 146.029 165.015 147.103C163.619 147.689 161.822 148.491 161.156 149.964C160.513 151.386 161.482 152.625 162.6 153.431C164.358 154.7 166.594 155.369 168.655 155.948C171.971 156.841 175.34 157.525 178.742 157.995C183.174 158.657 187.636 159.118 192.104 159.458C202.884 160.256 213.7 160.458 224.503 160.065C233.717 159.749 242.984 159.096 252.074 157.496C255.146 157.006 258.175 156.276 261.133 155.314C262.823 154.733 264.846 154.02 266.062 152.631C266.509 152.164 266.771 151.551 266.801 150.906C266.811 150.061 265.499 150.061 265.49 150.906Z" fill="black"/>
<path d="M259.853 151.178L270.744 144.16C270.744 144.16 256.768 139.953 244.848 139.803C239.644 142.891 259.853 151.178 259.853 151.178Z" fill="black" stroke="black" stroke-width="1.4577" stroke-miterlimit="10"/>
<path d="M259.853 46.1807V151.214H167.646V23.8784H238.042L259.853 46.1807Z" fill="white"/>
<path d="M259.197 46.1805V146.935C259.197 148.283 259.079 149.693 259.197 151.038C259.202 151.096 259.197 151.156 259.197 151.214L259.853 150.558H171.394C170.218 150.558 168.972 150.439 167.801 150.558C167.75 150.563 167.696 150.558 167.645 150.558L168.301 151.214V29.047C168.301 27.4102 168.412 25.7287 168.301 24.0946C168.296 24.0231 168.301 23.9498 168.301 23.8781L167.645 24.5341H235.168C236.057 24.5341 237.037 24.6511 237.921 24.5341C237.961 24.5315 238.001 24.5315 238.042 24.5341L237.578 24.3419L244.983 31.9141L256.684 43.8784L259.389 46.6444C259.98 47.2491 260.908 46.3211 260.317 45.7168L255.066 40.3474L245.034 30.0899C242.901 27.9082 240.815 25.6624 238.626 23.5369C238.299 23.2197 237.996 23.2219 237.579 23.2219H173.413C171.572 23.2219 169.729 23.1961 167.888 23.2219C167.807 23.2231 167.726 23.2219 167.645 23.2219C167.472 23.2244 167.306 23.2943 167.184 23.4168C167.061 23.5393 166.992 23.7047 166.989 23.8779V146.045C166.989 147.695 166.958 149.348 166.989 150.997C166.99 151.069 166.989 151.142 166.989 151.214C166.992 151.387 167.061 151.553 167.184 151.675C167.306 151.798 167.472 151.867 167.645 151.87H256.104C257.3 151.87 258.501 151.904 259.697 151.87C259.749 151.868 259.801 151.87 259.853 151.87C260.026 151.867 260.191 151.798 260.314 151.675C260.436 151.553 260.506 151.387 260.509 151.214V50.4599C260.509 49.0936 260.542 47.7226 260.509 46.3566C260.507 46.298 260.509 46.2392 260.509 46.1805C260.509 45.3363 259.197 45.3349 259.197 46.1805Z" fill="black"/>
<path d="M160.83 22.4263C160.83 22.4263 169.492 30.8136 156.44 37.3999C149.012 40.3228 148.373 27.9587 155.165 23.8985" fill="#FC7272"/>
<path d="M160.366 22.8901C160.61 23.1373 160.839 23.3986 161.052 23.6726C161.113 23.7478 161.08 23.708 161.034 23.6486C161.06 23.6821 161.086 23.7152 161.111 23.7489C161.168 23.8254 161.224 23.9019 161.28 23.9797C161.393 24.139 161.503 24.3011 161.609 24.4661C161.854 24.8494 162.075 25.2481 162.27 25.6597C162.318 25.7611 162.364 25.8633 162.408 25.9663C162.348 25.8257 162.42 25.9955 162.433 26.0287C162.459 26.095 162.485 26.1613 162.51 26.228C162.603 26.4761 162.684 26.7283 162.753 26.984C162.823 27.2394 162.879 27.4982 162.922 27.7593C162.927 27.7893 162.952 27.9713 162.943 27.9012C162.934 27.8317 162.956 28.0222 162.958 28.0459C162.972 28.1832 162.981 28.3209 162.987 28.4588C163.035 29.6561 162.732 30.8414 162.115 31.8683C161.235 33.3808 159.863 34.5597 158.416 35.5108C157.543 36.084 156.603 36.7097 155.592 36.9969C155.035 37.1802 154.444 37.2352 153.864 37.1579C154.004 37.1759 153.813 37.1476 153.78 37.1403C153.715 37.1262 153.65 37.1131 153.586 37.0966C153.452 37.0619 153.32 37.0193 153.191 36.9688C153.121 36.9414 153.215 36.9793 153.223 36.9826C153.19 36.968 153.156 36.9535 153.124 36.9371C153.077 36.9124 153.028 36.8891 152.981 36.8632C152.864 36.7982 152.751 36.727 152.642 36.6497C152.521 36.5652 152.67 36.6786 152.585 36.6053C152.537 36.5646 152.49 36.524 152.444 36.4815C152.352 36.3957 152.264 36.3052 152.181 36.2103C152.139 36.1623 152.098 36.1135 152.059 36.0635C152.138 36.1635 152.037 36.0318 152.013 35.9968C151.934 35.8805 151.858 35.7622 151.789 35.6395C151.727 35.5306 151.671 35.419 151.617 35.3061C151.602 35.2739 151.532 35.1109 151.577 35.2201C151.546 35.1464 151.518 35.0717 151.491 34.9966C151.393 34.7243 151.314 34.4456 151.254 34.1626C151.222 34.0156 151.196 33.8677 151.173 33.7192C151.172 33.7159 151.157 33.6095 151.166 33.6766C151.176 33.7516 151.159 33.616 151.157 33.6003C151.147 33.512 151.138 33.4236 151.131 33.335C151.105 33.0161 151.096 32.6961 151.104 32.3763C151.137 30.9758 151.469 29.5986 152.077 28.3366C152.685 27.0746 153.556 25.957 154.631 25.0585C154.906 24.8425 155.195 24.6443 155.496 24.4651C156.217 24.0289 155.559 22.894 154.833 23.3323C152.008 25.0398 150.278 28.1156 149.871 31.3475C149.567 33.7629 150.09 37.0145 152.585 38.126C153.944 38.7316 155.581 38.5477 156.896 37.9029C158.882 36.929 160.853 35.6009 162.279 33.8906C163.294 32.7319 163.966 31.3131 164.219 29.7936C164.391 28.5538 164.267 27.291 163.857 26.1083C163.344 24.5724 162.487 23.174 161.351 22.02C161.331 22.0012 161.313 21.9814 161.294 21.9626C160.688 21.3742 159.759 22.3009 160.366 22.8902L160.366 22.8901Z" fill="black"/>
<path d="M154.159 69.117L157.72 54.669L154.95 35.524C154.95 35.524 146.669 24.1025 157.908 20.6112C163.037 19.0182 160.493 16.5522 155.513 15.4883C153.657 15.1026 151.763 14.931 149.868 14.977C142.977 15.1313 135.202 18.1195 134.381 27.3456C133.987 31.765 135.432 36.9911 135.117 39.8403C134.712 43.5025 133.896 47.1075 132.685 50.5874L130.905 55.6995" fill="#FC7272"/>
<path d="M154.791 69.2915L156.902 60.7291L158.114 55.8084C158.192 55.4921 158.286 55.1754 158.349 54.8557C158.372 54.5908 158.352 54.324 158.29 54.0655L156.876 44.292L156.058 38.6386C155.905 37.5851 155.791 36.5176 155.599 35.4702C155.568 35.3111 155.501 35.1611 155.403 35.0314C155.172 34.6912 154.955 34.3403 154.749 33.9844C154.404 33.3908 154.09 32.7797 153.808 32.1535C153.77 32.068 153.732 31.9822 153.695 31.8961C153.619 31.7221 153.745 32.0186 153.672 31.8418C153.657 31.8061 153.642 31.7704 153.628 31.7347C153.546 31.5342 153.468 31.3321 153.395 31.1285C153.249 30.7256 153.119 30.3168 153.01 29.9025C152.897 29.4783 152.808 29.0481 152.744 28.614C152.724 28.482 152.738 28.573 152.742 28.601C152.734 28.5385 152.726 28.4759 152.72 28.4132C152.708 28.3087 152.699 28.2041 152.691 28.0993C152.674 27.8689 152.665 27.6377 152.667 27.4066C152.663 26.6002 152.818 25.8009 153.123 25.0543C154.044 22.9714 156.07 21.8975 158.216 21.2017C159.352 20.8332 160.971 20.2391 161.32 18.9353C161.616 17.829 160.697 16.9324 159.854 16.3921C158.545 15.553 156.956 15.1101 155.446 14.8059C153.582 14.4338 151.682 14.2719 149.782 14.3232C144.95 14.4478 139.684 15.9303 136.56 19.8601C134.746 22.1424 133.859 24.9445 133.689 27.8353C133.49 31.203 134.241 34.5073 134.466 37.8508C134.524 39.4476 134.39 41.0454 134.068 42.6103C133.731 44.5632 133.277 46.494 132.707 48.3919C132.15 50.2475 131.475 52.0702 130.838 53.8995L130.273 55.5253C129.994 56.3242 131.261 56.6677 131.538 55.874C132.548 52.9717 133.651 50.0803 134.432 47.1059C134.84 45.5548 135.171 43.9864 135.426 42.4006C135.681 41.0966 135.81 39.7709 135.809 38.4421C135.715 35.7745 135.163 33.1409 135.013 30.4755C134.873 27.9998 135.053 25.4475 136.076 23.1552C136.879 21.3449 138.147 19.78 139.752 18.6199C143.094 16.2193 147.404 15.4889 151.439 15.6463C152.905 15.6968 154.362 15.89 155.79 16.223C156.988 16.4645 158.138 16.9046 159.192 17.525C159.356 17.6256 159.511 17.7419 159.653 17.8722C159.72 17.9345 159.784 17.9998 159.846 18.0675C159.857 18.0795 159.928 18.1643 159.865 18.0831C159.896 18.1232 159.924 18.1647 159.95 18.2077C159.969 18.2373 160.055 18.4133 160.033 18.3553C160.011 18.2968 160.067 18.4882 160.073 18.5298C160.051 18.3819 160.063 18.5534 160.058 18.6091C160.074 18.4228 160.009 18.7254 160.035 18.6601C159.983 18.7697 159.909 18.8678 159.818 18.9485C159.674 19.0878 159.512 19.2078 159.337 19.3055C158.78 19.6126 158.19 19.8551 157.578 20.0285C155.66 20.6469 153.831 21.6458 152.623 23.2993C151.741 24.5656 151.296 26.0853 151.357 27.6273C151.41 30.2163 152.471 32.7573 153.794 34.9468C153.951 35.2066 154.113 35.4636 154.285 35.7141C154.299 35.7351 154.353 35.8442 154.379 35.8501C154.299 35.8323 154.327 35.6089 154.328 35.7721C154.346 36.0199 154.382 36.2662 154.434 36.5092L154.637 37.9131L155.964 47.0796L157.03 54.4499L157.087 54.8438V54.495L155.888 59.3583L153.967 67.1557L153.526 68.9429C153.324 69.7626 154.589 70.1121 154.791 69.2915Z" fill="black"/>
<path d="M149.964 24.6796C155.906 12.3676 172.706 16.694 172.706 16.694C178.13 16.3635 176.684 23.2375 170.349 23.288C164.013 23.3385 158.286 23.5758 156.046 30.8711C153.806 38.1664 162.911 37.5116 168.755 36.6028C174.868 35.6524 175.596 40.8653 169.017 43.3356C168.23 43.631 167.46 43.9707 166.711 44.353C162.584 46.4907 159.437 50.1335 157.921 54.5273L154.159 69.1169" fill="#FC7272"/>
<path d="M150.53 25.0108C151.514 22.9286 152.998 21.1224 154.85 19.7536C156.509 18.5789 158.379 17.7348 160.358 17.2671C162.185 16.8202 164.06 16.6006 165.94 16.6133C166.767 16.6097 167.594 16.6404 168.419 16.7055C168.781 16.7335 169.143 16.7678 169.504 16.8084C169.654 16.8251 169.803 16.843 169.952 16.8619C169.991 16.8667 170.26 16.903 170.061 16.8756C170.144 16.887 170.227 16.8986 170.309 16.9105C171.039 17.0156 171.755 17.1625 172.476 17.3128C172.691 17.343 172.909 17.3517 173.126 17.3388C173.562 17.327 173.996 17.4054 174.401 17.5689C174.292 17.5256 174.506 17.6215 174.54 17.6398C174.615 17.68 174.686 17.7253 174.757 17.7706C174.908 17.8656 174.753 17.7436 174.879 17.8666C174.954 17.9394 175.026 18.0108 175.094 18.0902C174.998 17.9779 175.127 18.1394 175.154 18.1822C175.194 18.2458 175.228 18.3121 175.263 18.3783C175.34 18.5248 175.221 18.2476 175.275 18.4044C175.286 18.4357 175.298 18.4665 175.307 18.4984C175.333 18.5873 175.353 18.6757 175.375 18.7654C175.41 18.9043 175.382 18.6944 175.388 18.8682C175.392 18.9548 175.396 19.0406 175.394 19.1274C175.392 19.2156 175.385 19.3041 175.374 19.3917C175.395 19.229 175.344 19.5182 175.333 19.566C175.313 19.6479 175.289 19.7289 175.263 19.809C175.25 19.8483 175.153 20.0932 175.205 19.9762C175.123 20.1609 175.027 20.3389 174.918 20.5085C174.861 20.597 174.801 20.6842 174.737 20.7677C174.801 20.6837 174.716 20.7932 174.699 20.8125C174.664 20.8545 174.628 20.8962 174.592 20.9371C174.439 21.1058 174.276 21.2642 174.102 21.4114C173.737 21.7046 173.334 21.9479 172.904 22.1346C171.834 22.6 170.647 22.6256 169.471 22.6412C168.216 22.6577 166.96 22.6922 165.711 22.817C163.439 23.0438 161.103 23.5597 159.231 24.9391C157.125 26.4913 155.732 28.9584 155.204 31.5038C154.955 32.4967 154.991 33.5397 155.307 34.5133C155.628 35.3491 156.208 36.0605 156.961 36.5434C158.625 37.6436 160.841 37.802 162.777 37.8016C163.897 37.7954 165.016 37.7303 166.129 37.6066C167.235 37.4898 168.333 37.2705 169.44 37.1759C169.994 37.1193 170.553 37.1334 171.103 37.2179C171.528 37.2783 171.936 37.4277 172.3 37.6564C172.351 37.6889 172.401 37.7224 172.449 37.7586C172.427 37.7424 172.36 37.6836 172.453 37.7649C172.524 37.8271 172.589 37.8935 172.656 37.9602C172.681 37.9857 172.705 38.0155 172.728 38.0429C172.642 37.9405 172.72 38.0313 172.739 38.0609C172.793 38.1419 172.842 38.2257 172.886 38.3119C172.964 38.4611 172.857 38.2258 172.893 38.3233C172.908 38.3642 172.922 38.4052 172.935 38.447C172.96 38.5309 172.979 38.6163 172.994 38.7027C172.967 38.5481 172.995 38.7687 172.996 38.8211C172.998 38.9222 172.993 39.0234 172.981 39.1239C172.999 38.9732 172.952 39.2464 172.941 39.2893C172.919 39.3773 172.891 39.4635 172.861 39.5492C172.846 39.6073 172.822 39.6629 172.791 39.7142C172.729 39.835 172.665 39.9534 172.593 40.0681C172.32 40.483 171.984 40.8533 171.598 41.1662C170.454 42.1357 169.039 42.5885 167.686 43.1725C164.806 44.3986 162.28 46.3273 160.339 48.782C159.387 49.9883 158.585 51.3055 157.951 52.7048C157.651 53.3267 157.405 53.9729 157.216 54.6364L156.258 58.352L153.698 68.2755L153.526 68.9426C153.316 69.7607 154.581 70.1096 154.792 69.2914L156.868 61.2369L158.167 56.2006L158.509 54.8765C158.746 54.0658 159.072 53.2834 159.479 52.5431C160.845 49.8429 162.888 47.5432 165.409 45.8688C166.068 45.4382 166.755 45.0509 167.465 44.7092C168.302 44.3042 169.175 44.0001 170.024 43.6273C171.247 43.1326 172.343 42.3699 173.231 41.3953C173.844 40.6733 174.339 39.7684 174.307 38.7939C174.288 38.3443 174.16 37.9061 173.935 37.5165C173.709 37.127 173.393 36.7978 173.013 36.5569C171.09 35.262 168.527 36.0246 166.46 36.2585C164.332 36.4993 162.014 36.6557 159.97 36.2708C159.116 36.1499 158.298 35.8449 157.573 35.3767C157.436 35.2881 157.31 35.1843 157.196 35.0674C156.801 34.6996 156.532 34.2162 156.429 33.6864C156.384 33.5152 156.36 33.339 156.36 33.1619C156.347 32.8871 156.356 32.6117 156.388 32.3384C156.473 31.7468 156.618 31.1655 156.821 30.6034C157.213 29.3776 157.834 28.2377 158.653 27.2446C160.154 25.5013 162.245 24.6688 164.468 24.2929C165.647 24.1105 166.838 24.0074 168.031 23.9846C169.349 23.9412 170.696 24.0318 171.996 23.7755C173.968 23.387 175.927 22.0991 176.545 20.1038C176.802 19.318 176.749 18.4637 176.395 17.7163C176.188 17.3338 175.901 16.9996 175.555 16.7358C175.209 16.472 174.811 16.2845 174.387 16.1857C173.868 16.0427 173.329 15.9912 172.792 16.0336C172.912 16.0213 172.873 16.0568 172.767 16.0342C172.485 15.9735 172.203 15.9095 171.919 15.8554C168.884 15.258 165.774 15.1411 162.703 15.5088C158.386 16.0602 154.177 17.8038 151.374 21.2487C150.598 22.2024 149.935 23.2427 149.397 24.3487C149.03 25.1047 150.161 25.7706 150.53 25.0108Z" fill="black"/>
<path d="M130.859 55.582L127.979 64.1632L125.734 70.6552C129.506 72.2798 134.565 73.9356 140.213 75.3017C144.229 76.2898 148.301 77.0331 152.407 77.5275L154.159 70.1828L156.029 61.8744C151.976 61.6919 147.936 61.288 143.928 60.6643C138.119 59.6963 130.859 55.582 130.859 55.582Z" fill="white"/>
<path d="M130.226 55.4077L128.017 61.9911C127.441 63.7072 126.855 65.4199 126.26 67.1291L125.102 70.481C125.063 70.6204 125.072 70.7686 125.127 70.9026C125.181 71.0365 125.278 71.1487 125.403 71.2218C128.547 72.5501 131.77 73.6824 135.053 74.6123C138.805 75.7007 142.611 76.5966 146.454 77.2962C148.428 77.6545 150.413 77.9551 152.406 78.1836C152.55 78.1836 152.69 78.1365 152.804 78.0495C152.918 77.9625 153.001 77.8404 153.039 77.702L154.655 70.9285C155.113 69.0099 155.529 67.0808 155.962 65.1565L156.661 62.049C156.686 61.9517 156.688 61.85 156.668 61.7516C156.648 61.6532 156.606 61.5606 156.546 61.4807C156.485 61.4008 156.407 61.3357 156.317 61.2904C156.228 61.245 156.129 61.2204 156.028 61.2186C152.609 61.0855 149.199 60.7773 145.811 60.2952C143.598 59.9936 141.421 59.4676 139.314 58.7252C137.482 58.0619 135.686 57.2986 133.937 56.4387C133.011 55.9881 132.087 55.5237 131.19 55.0158C130.454 54.5993 129.792 55.7323 130.528 56.1486C132.981 57.5237 135.535 58.7099 138.168 59.6968C140.236 60.4968 142.383 61.0772 144.573 61.4284C147.033 61.8082 149.512 62.0764 151.993 62.2756C153.336 62.3833 154.682 62.4783 156.028 62.5306L155.396 61.7002L153.847 68.5852C153.436 70.4085 152.998 72.2248 152.564 74.0427L151.774 77.3532L152.406 76.8716C148.847 76.446 145.313 75.8235 141.822 75.007C138.159 74.1788 134.542 73.1613 130.984 71.9586C129.324 71.3925 127.677 70.7812 126.065 70.0889L126.367 70.8297L128.555 64.4997C129.231 62.5465 129.872 60.581 130.53 58.6218L131.491 55.7565C131.761 54.9543 130.494 54.6101 130.226 55.4077Z" fill="black"/>
<path d="M259.853 46.3859H238.072V23.8784L259.853 46.3859Z" fill="#FFC41F"/>
<path d="M259.853 45.7298H238.071L238.727 46.3857V23.8783L237.608 24.3421L239.777 26.5839L244.986 31.9661L251.259 38.4486L256.706 44.077C257.585 44.9854 258.434 45.9422 259.352 46.8116C259.365 46.8236 259.377 46.8369 259.389 46.8496C259.977 47.4574 260.904 46.5291 260.317 45.9219L258.147 43.6801L252.939 38.2979L246.665 31.8154L241.218 26.1871C240.339 25.2788 239.49 24.322 238.572 23.4526C238.559 23.4406 238.548 23.4272 238.535 23.4146C238.442 23.3261 238.326 23.2666 238.2 23.2431C238.073 23.2196 237.943 23.2333 237.825 23.2824C237.706 23.3315 237.604 23.414 237.532 23.5198C237.459 23.6255 237.419 23.7501 237.416 23.8784V46.3858C237.418 46.559 237.488 46.7245 237.61 46.8469C237.733 46.9694 237.898 47.0393 238.071 47.0418H259.853C260.697 47.0417 260.698 45.7298 259.853 45.7298Z" fill="black"/>
<path d="M60.9471 204.982L61.6171 211.97L61.7124 212.963C61.7523 213.38 62.4087 213.384 62.3683 212.963L61.6983 205.975L61.6031 204.982C61.5631 204.566 60.9067 204.562 60.9471 204.982Z" fill="black"/>
<path d="M193.343 52.0327H247.888C248.624 52.0327 249.363 52.053 250.099 52.0327C250.13 52.0318 250.162 52.0327 250.193 52.0327C250.278 52.0297 250.359 51.9938 250.418 51.9326C250.477 51.8714 250.51 51.7897 250.51 51.7047C250.51 51.6197 250.477 51.538 250.418 51.4768C250.359 51.4156 250.278 51.3798 250.193 51.3767H195.648C194.912 51.3767 194.173 51.3564 193.437 51.3767C193.406 51.3776 193.374 51.3767 193.343 51.3767C193.258 51.3798 193.177 51.4156 193.118 51.4768C193.059 51.538 193.026 51.6197 193.026 51.7047C193.026 51.7897 193.059 51.8714 193.118 51.9326C193.177 51.9938 193.258 52.0297 193.343 52.0327Z" fill="black"/>
<path d="M174.757 61.2164H247.132C248.109 61.2164 249.088 61.2349 250.066 61.2164C250.108 61.2156 250.151 61.2164 250.194 61.2164C250.279 61.2134 250.359 61.1775 250.418 61.1163C250.477 61.0551 250.51 60.9734 250.51 60.8884C250.51 60.8034 250.477 60.7217 250.418 60.6605C250.359 60.5994 250.279 60.5635 250.194 60.5604H177.82C176.842 60.5604 175.863 60.542 174.886 60.5604C174.843 60.5613 174.8 60.5604 174.757 60.5604C174.672 60.5635 174.592 60.5994 174.533 60.6605C174.474 60.7217 174.441 60.8034 174.441 60.8884C174.441 60.9734 174.474 61.0551 174.533 61.1163C174.592 61.1775 174.673 61.2134 174.757 61.2164Z" fill="black"/>
<path d="M174.757 70.4H247.132C248.109 70.4 249.088 70.4185 250.066 70.4C250.108 70.3992 250.151 70.4 250.194 70.4C250.279 70.397 250.359 70.3611 250.418 70.2999C250.477 70.2387 250.51 70.157 250.51 70.072C250.51 69.987 250.477 69.9053 250.418 69.8441C250.359 69.783 250.279 69.7471 250.194 69.744H177.82C176.842 69.744 175.863 69.7256 174.886 69.744C174.843 69.7448 174.8 69.744 174.757 69.744C174.672 69.7471 174.592 69.783 174.533 69.8441C174.474 69.9053 174.441 69.987 174.441 70.072C174.441 70.157 174.474 70.2387 174.533 70.2999C174.592 70.3611 174.673 70.397 174.757 70.4Z" fill="black"/>
<path d="M174.757 79.5831H247.132C248.109 79.5831 249.088 79.6016 250.066 79.5831C250.108 79.5823 250.151 79.5831 250.194 79.5831C250.279 79.5801 250.359 79.5442 250.418 79.483C250.477 79.4218 250.51 79.3401 250.51 79.2551C250.51 79.1701 250.477 79.0884 250.418 79.0272C250.359 78.9661 250.279 78.9302 250.194 78.9271H177.82C176.842 78.9271 175.863 78.9087 174.886 78.9271C174.843 78.928 174.8 78.9271 174.757 78.9271C174.672 78.9302 174.592 78.9661 174.533 79.0272C174.474 79.0884 174.441 79.1701 174.441 79.2551C174.441 79.3401 174.474 79.4218 174.533 79.483C174.592 79.5442 174.673 79.5801 174.757 79.5831Z" fill="black"/>
<path d="M174.757 88.7672H247.132C248.109 88.7672 249.088 88.7857 250.066 88.7672C250.108 88.7664 250.151 88.7672 250.194 88.7672C250.279 88.7642 250.359 88.7283 250.418 88.6671C250.477 88.6059 250.51 88.5242 250.51 88.4392C250.51 88.3542 250.477 88.2725 250.418 88.2113C250.359 88.1502 250.279 88.1143 250.194 88.1112H177.82C176.842 88.1112 175.863 88.0928 174.886 88.1112C174.843 88.1121 174.8 88.1112 174.757 88.1112C174.672 88.1143 174.592 88.1502 174.533 88.2113C174.474 88.2725 174.441 88.3542 174.441 88.4392C174.441 88.5242 174.474 88.6059 174.533 88.6671C174.592 88.7283 174.673 88.7642 174.757 88.7672Z" fill="black"/>
<path d="M174.757 97.9503H247.132C248.109 97.9503 249.088 97.9688 250.066 97.9503C250.108 97.9495 250.151 97.9503 250.194 97.9503C250.279 97.9473 250.359 97.9114 250.418 97.8502C250.477 97.789 250.51 97.7073 250.51 97.6223C250.51 97.5373 250.477 97.4556 250.418 97.3944C250.359 97.3333 250.279 97.2974 250.194 97.2943H177.82C176.842 97.2943 175.863 97.2759 174.886 97.2943C174.843 97.2952 174.8 97.2943 174.757 97.2943C174.672 97.2974 174.592 97.3333 174.533 97.3944C174.474 97.4556 174.441 97.5373 174.441 97.6223C174.441 97.7073 174.474 97.789 174.533 97.8502C174.592 97.9114 174.673 97.9473 174.757 97.9503Z" fill="black"/>
<path d="M174.757 107.134H247.132C248.109 107.134 249.088 107.152 250.066 107.134C250.108 107.133 250.151 107.134 250.194 107.134C250.279 107.131 250.359 107.095 250.418 107.034C250.477 106.973 250.51 106.891 250.51 106.806C250.51 106.721 250.477 106.639 250.418 106.578C250.359 106.517 250.279 106.481 250.194 106.478H177.82C176.842 106.478 175.863 106.459 174.886 106.478C174.843 106.479 174.8 106.478 174.757 106.478C174.672 106.481 174.592 106.517 174.533 106.578C174.474 106.639 174.441 106.721 174.441 106.806C174.441 106.891 174.474 106.973 174.533 107.034C174.592 107.095 174.673 107.131 174.757 107.134Z" fill="black"/>
<path d="M174.757 116.318H247.132C248.109 116.318 249.088 116.336 250.066 116.318C250.108 116.317 250.151 116.318 250.194 116.318C250.279 116.314 250.359 116.279 250.418 116.217C250.477 116.156 250.51 116.075 250.51 115.99C250.51 115.905 250.477 115.823 250.418 115.762C250.359 115.7 250.279 115.665 250.194 115.662H177.82C176.842 115.662 175.863 115.643 174.886 115.662C174.843 115.662 174.8 115.662 174.757 115.662C174.672 115.665 174.592 115.7 174.533 115.762C174.474 115.823 174.441 115.905 174.441 115.99C174.441 116.075 174.474 116.156 174.533 116.217C174.592 116.279 174.673 116.314 174.757 116.318Z" fill="black"/>
<path d="M174.757 125.501H247.131C248.109 125.501 249.088 125.52 250.065 125.501C250.108 125.5 250.151 125.501 250.194 125.501C250.279 125.498 250.359 125.462 250.418 125.401C250.478 125.34 250.511 125.258 250.511 125.173C250.511 125.088 250.478 125.006 250.418 124.945C250.359 124.884 250.279 124.848 250.194 124.845H177.82C176.842 124.845 175.863 124.827 174.886 124.845C174.843 124.846 174.8 124.845 174.757 124.845C174.672 124.848 174.592 124.884 174.533 124.945C174.473 125.006 174.44 125.088 174.44 125.173C174.44 125.258 174.473 125.34 174.533 125.401C174.592 125.462 174.672 125.498 174.757 125.501Z" fill="black"/>
<path d="M174.757 134.685H228.667C229.396 134.685 230.127 134.704 230.856 134.685C230.888 134.684 230.92 134.685 230.952 134.685C231.037 134.682 231.117 134.646 231.176 134.585C231.236 134.523 231.269 134.442 231.269 134.357C231.269 134.272 231.236 134.19 231.176 134.129C231.117 134.067 231.037 134.032 230.952 134.029H177.042C176.313 134.029 175.582 134.009 174.853 134.029C174.821 134.029 174.789 134.029 174.757 134.029C174.672 134.032 174.592 134.067 174.533 134.129C174.473 134.19 174.44 134.272 174.44 134.357C174.44 134.442 174.473 134.523 174.533 134.585C174.592 134.646 174.672 134.682 174.757 134.685Z" fill="black"/>
<path d="M213.678 122.549C230.705 122.549 244.509 108.746 244.509 91.7186C244.509 74.6914 230.705 60.8882 213.678 60.8882C196.651 60.8882 182.848 74.6914 182.848 91.7186C182.848 108.746 196.651 122.549 213.678 122.549Z" fill="#389B48"/>
<path d="M243.852 91.7187C243.835 99.4762 240.813 106.925 235.421 112.503C230.03 118.08 222.687 121.353 214.935 121.634C207.183 121.915 199.623 119.182 193.842 114.009C188.061 108.836 184.508 101.625 183.929 93.8893C183.35 86.1534 185.79 78.494 190.736 72.5182C195.683 66.5423 202.752 62.7147 210.459 61.8383C218.167 60.962 225.915 63.1051 232.077 67.8179C238.238 72.5307 242.335 79.447 243.508 87.1153C243.739 88.6388 243.854 90.1777 243.852 91.7187C243.854 92.5628 245.166 92.5643 245.164 91.7187C245.164 83.5792 242.012 75.7561 236.368 69.8906C230.725 64.025 223.03 60.5729 214.896 60.2584C206.763 59.9439 198.824 62.7915 192.745 68.2037C186.665 73.616 182.918 81.1723 182.289 89.2874C181.661 97.4026 184.199 105.446 189.372 111.73C194.546 118.014 201.951 122.05 210.036 122.992C218.121 123.934 226.256 121.708 232.736 116.782C239.215 111.856 243.535 104.611 244.788 96.5692C245.034 94.964 245.16 93.3426 245.164 91.7187C245.166 90.8745 243.854 90.8732 243.852 91.7187Z" fill="black"/>
<path d="M242.587 64.5589C241.339 63.3629 239.677 62.6953 237.949 62.6953C236.22 62.6953 234.558 63.3629 233.31 64.5589C226.34 70.9395 220.122 78.2919 214.542 85.8942C213.898 86.7717 213.267 87.658 212.648 88.5532C210.876 86.6241 209.048 84.7484 207.165 82.9259C204.699 80.5349 200.31 80.2879 197.888 82.9259C195.515 85.5114 195.256 89.6506 197.888 92.2027C199.213 93.4874 200.504 94.8085 201.778 96.143C202.933 97.3522 204.067 98.5809 205.181 99.8289C205.794 100.52 206.397 101.219 206.99 101.928C207.261 102.253 207.53 102.58 207.795 102.91C207.924 103.071 208.051 103.234 208.18 103.395C208.294 103.536 208.282 103.517 208.212 103.425C209.566 105.049 211.173 106.15 213.459 106.15C214.604 106.148 215.729 105.848 216.723 105.278C217.716 104.708 218.543 103.889 219.123 102.901C220.923 99.7215 222.894 96.6422 225.029 93.6766C225.514 92.9987 226.006 92.3259 226.505 91.6581C226.752 91.3284 227 90.9999 227.249 90.6727L227.261 90.6565C227.32 90.5809 227.371 90.5155 227.394 90.4859C228.393 89.2125 229.414 87.9564 230.456 86.7175C233.655 82.9095 237.031 79.243 240.579 75.7571C241.24 75.1081 241.904 74.4608 242.587 73.8355C245.125 71.5125 245.119 66.8831 242.587 64.5589Z" fill="white"/>
<path d="M243.051 64.095C242.159 63.2579 241.076 62.6511 239.896 62.3273C238.717 62.0035 237.476 61.9724 236.281 62.2367C235.056 62.5392 233.923 63.1362 232.98 63.976C231.887 64.9311 230.848 65.9579 229.814 66.9764C225.644 71.1172 221.734 75.5126 218.107 80.1371C216.024 82.7736 213.996 85.4591 212.082 88.2221L213.112 88.0894C211.897 86.7682 210.656 85.4715 209.389 84.1993C208.346 83.1514 207.329 81.9815 206.004 81.2831C203.771 80.1063 200.905 80.0328 198.728 81.3882C196.529 82.7579 195.234 85.4688 195.362 88.0338C195.416 89.3555 195.85 90.6337 196.612 91.715C197.079 92.3118 197.594 92.8687 198.153 93.38C198.793 94.0117 199.425 94.6501 200.051 95.2951C201.424 96.7061 202.778 98.1363 204.096 99.5984C204.76 100.335 205.414 101.08 206.057 101.834C206.65 102.532 207.199 103.272 207.801 103.961C208.288 104.519 209.244 103.788 208.832 103.166C208.815 103.141 208.798 103.117 208.779 103.093L207.749 103.888C208.89 105.246 210.361 106.365 212.142 106.684C214.037 107.025 215.989 106.605 217.576 105.516C218.347 104.985 219.006 104.308 219.515 103.522C220.112 102.591 220.624 101.599 221.199 100.652C222.404 98.6649 223.678 96.7209 225.019 94.8205C227.68 91.0758 230.549 87.4831 233.612 84.0595C235.15 82.3202 236.726 80.6154 238.341 78.9453C239.131 78.128 239.931 77.3197 240.74 76.5203C241.568 75.7021 242.448 74.9286 243.261 74.0968C245.854 71.4429 245.763 66.6315 243.051 64.095C242.435 63.5186 241.505 64.4445 242.124 65.0227C244.213 66.9772 244.438 70.6807 242.593 72.8827C241.952 73.6472 241.142 74.2889 240.429 74.9862C239.647 75.7512 238.873 76.524 238.107 77.3047C236.548 78.8954 235.024 80.5194 233.535 82.1767C230.624 85.4159 227.814 88.7587 225.239 92.2732C223.927 94.0643 222.668 95.8926 221.462 97.758C220.858 98.6952 220.271 99.6424 219.699 100.6C219.183 101.466 218.746 102.432 218.126 103.229C217.542 103.963 216.794 104.549 215.942 104.942C215.09 105.334 214.159 105.522 213.221 105.49C211.331 105.423 209.856 104.364 208.676 102.961C208.203 102.397 207.2 103.156 207.646 103.756C207.665 103.779 207.683 103.803 207.699 103.829L208.729 103.034C207.695 101.849 206.738 100.598 205.693 99.4196C204.6 98.1856 203.483 96.9733 202.342 95.7828C201.203 94.5879 200.051 93.4049 198.873 92.2477C198.385 91.8122 197.946 91.3236 197.566 90.7911C197.25 90.3046 197.012 89.7715 196.862 89.2112C196.588 88.1085 196.616 86.9524 196.942 85.8641C197.269 84.7758 197.882 83.7955 198.718 83.0258C200.363 81.5372 202.87 81.3574 204.865 82.1881C206.242 82.7617 207.223 83.8874 208.256 84.9209C209.594 86.2589 210.903 87.6243 212.184 89.017C212.256 89.0864 212.342 89.1388 212.437 89.1702C212.532 89.2017 212.632 89.2114 212.731 89.1986C212.83 89.1859 212.925 89.151 213.009 89.0966C213.093 89.0421 213.163 88.9695 213.215 88.8842C216.447 84.2353 219.928 79.7647 223.643 75.4922C225.492 73.3589 227.405 71.2832 229.382 69.2652C230.361 68.2696 231.357 67.2913 232.37 66.3303C233.296 65.4536 234.189 64.5238 235.345 63.9539C236.452 63.432 237.69 63.2548 238.899 63.4454C240.107 63.6359 241.231 64.1856 242.124 65.0227C242.748 65.5877 243.679 64.6626 243.051 64.095Z" fill="black"/>
<path d="M38.1436 232.061L38.1744 233.585L38.2584 237.733L38.3833 243.901L38.5351 251.395L38.7013 259.601L38.869 267.885L39.0254 275.609L39.1576 282.139L39.2528 286.837C39.2678 287.581 39.2655 288.327 39.298 289.071C39.2994 289.102 39.2993 289.133 39.2999 289.165C39.303 289.25 39.3389 289.33 39.4 289.389C39.4612 289.448 39.5429 289.481 39.6279 289.481C39.7129 289.481 39.7946 289.448 39.8558 289.389C39.917 289.33 39.9529 289.25 39.9559 289.165L39.925 287.641L39.841 283.492L39.7162 277.324L39.5644 269.831L39.3982 261.624L39.2305 253.341L39.0741 245.616L38.9418 239.087L38.8467 234.389C38.8317 233.645 38.834 232.898 38.8015 232.155C38.8001 232.123 38.8002 232.092 38.7996 232.061C38.7965 231.976 38.7606 231.895 38.6995 231.836C38.6383 231.777 38.5566 231.744 38.4716 231.744C38.3866 231.744 38.3049 231.777 38.2437 231.836C38.1825 231.895 38.1466 231.976 38.1436 232.061Z" fill="black"/>
<path d="M75.9339 228.682L75.878 230.248L75.7261 234.511L75.5024 240.784L75.2283 248.47L74.9281 256.891L74.6248 265.392L74.3422 273.318L74.1044 279.99L73.9324 284.812C73.9054 285.572 73.8527 286.337 73.8509 287.098C73.8509 287.131 73.8486 287.164 73.8474 287.197C73.8324 287.619 74.4883 287.618 74.5034 287.197L74.5592 285.63L74.7112 281.368L74.9349 275.095L75.2089 267.409L75.5092 258.988L75.8122 250.486L76.0948 242.56L76.3327 235.889L76.5046 231.066C76.5316 230.306 76.5843 229.541 76.5861 228.78C76.5861 228.747 76.5885 228.714 76.5896 228.682C76.6046 228.259 75.9489 228.26 75.9339 228.682Z" fill="black"/>
</svg>
