<svg width="333" height="247" viewBox="0 0 333 247" fill="none" xmlns="http://www.w3.org/2000/svg">
<path d="M288.279 43.4645C281.39 62.9128 268.13 82.1068 250.203 98.5733C232.281 115.04 209.731 128.743 185.457 137.922C161.186 147.1 135.245 151.731 110.973 151.222C86.7002 150.709 64.1541 145.056 46.2267 134.993C40.7229 131.902 35.5882 128.343 32.2593 123.688C28.9348 119.034 27.5454 113.158 29.6995 107.187C31.183 103.082 34.3047 99.0708 38.3946 95.7948C42.489 92.5201 47.5261 89.976 52.761 88.4042C63.2321 85.2612 74.1743 86.1206 82.3375 89.7733C90.4996 93.4265 96.0329 99.6644 99.1733 106.747C102.314 113.83 103.193 121.752 103.176 129.76C103.102 162.78 87.6156 198.417 60.0607 228.97" stroke="#C4C4C4" stroke-width="5"/>
<path fill-rule="evenodd" clip-rule="evenodd" d="M56.6964 209.233L42.9746 246.559L77.3004 226.952C66.932 226.966 58.3547 219.593 56.6964 209.233Z" fill="#C4C4C4"/>
</svg>
