<svg width="331" height="216" viewBox="0 0 331 216" fill="none" xmlns="http://www.w3.org/2000/svg">
<g filter="url(#filter0_d_778_2474)">
<path d="M20 40C20 28.9543 28.9543 20 40 20H291C302.046 20 311 28.9543 311 40V176C311 187.046 302.046 196 291 196H40C28.9543 196 20 187.046 20 176V40Z" fill="#0B384D"/>
</g>
<mask id="mask0_778_2474" style="mask-type:alpha" maskUnits="userSpaceOnUse" x="109" y="75" width="114" height="114">
<rect x="109" y="75" width="114" height="114" fill="#D9D9D9"/>
</mask>
<g mask="url(#mask0_778_2474)">
<path d="M166 174.75C160.117 174.75 154.575 173.625 149.375 171.375C144.175 169.124 139.645 166.07 135.788 162.212C131.93 158.355 128.876 153.825 126.625 148.625C124.375 143.425 123.25 137.883 123.25 132C123.25 126.099 124.375 120.553 126.625 115.361C128.876 110.17 131.93 105.645 135.788 101.788C139.645 97.9298 144.175 94.8756 149.375 92.6249C154.575 90.375 160.117 89.25 166 89.25C171.901 89.25 177.448 90.375 182.639 92.6249C187.83 94.8756 192.355 97.9298 196.212 101.788C200.07 105.645 203.124 110.17 205.375 115.361C207.625 120.553 208.75 126.099 208.75 132C208.75 137.883 207.625 143.425 205.375 148.625C203.124 153.825 200.07 158.355 196.212 162.212C192.355 166.07 187.83 169.124 182.639 171.375C177.448 173.625 171.901 174.75 166 174.75ZM166 170.037C168.789 166.456 171.088 162.939 172.897 159.486C174.705 156.033 176.176 152.17 177.309 147.895H154.691C155.946 152.413 157.447 156.398 159.194 159.852C160.942 163.304 163.211 166.699 166 170.037ZM159.953 169.324C157.737 166.712 155.713 163.483 153.883 159.637C152.053 155.791 150.691 151.877 149.795 147.895H131.58C134.303 153.801 138.162 158.646 143.158 162.427C148.155 166.209 153.754 168.508 159.953 169.324ZM172.047 169.324C178.246 168.508 183.845 166.209 188.842 162.427C193.838 158.646 197.697 153.801 200.42 147.895H182.205C181.005 151.938 179.49 155.882 177.66 159.728C175.831 163.574 173.959 166.773 172.047 169.324ZM129.645 143.145H148.809C148.449 141.196 148.195 139.297 148.046 137.448C147.897 135.601 147.822 133.784 147.822 132C147.822 130.216 147.897 128.4 148.046 126.552C148.195 124.703 148.449 122.804 148.809 120.855H129.645C129.127 122.5 128.723 124.292 128.433 126.231C128.144 128.171 128 130.094 128 132C128 133.906 128.144 135.829 128.433 137.769C128.723 139.708 129.127 141.5 129.645 143.145ZM153.559 143.145H178.441C178.801 141.196 179.055 139.327 179.204 137.54C179.353 135.753 179.428 133.906 179.428 132C179.428 130.094 179.353 128.247 179.204 126.46C179.055 124.673 178.801 122.804 178.441 120.855H153.559C153.199 122.804 152.945 124.673 152.796 126.46C152.647 128.247 152.572 130.094 152.572 132C152.572 133.906 152.647 135.753 152.796 137.54C152.945 139.327 153.199 141.196 153.559 143.145ZM183.191 143.145H202.355C202.873 141.5 203.277 139.708 203.567 137.769C203.856 135.829 204 133.906 204 132C204 130.094 203.856 128.171 203.567 126.231C203.277 124.292 202.873 122.5 202.355 120.855H183.191C183.551 122.804 183.805 124.703 183.954 126.552C184.103 128.4 184.178 130.216 184.178 132C184.178 133.784 184.103 135.601 183.954 137.448C183.805 139.297 183.551 141.196 183.191 143.145ZM182.205 116.105H200.42C197.636 110.077 193.822 105.233 188.978 101.573C184.134 97.9128 178.49 95.5833 172.047 94.5842C174.263 97.5015 176.256 100.837 178.026 104.591C179.795 108.346 181.188 112.184 182.205 116.105ZM154.691 116.105H177.309C176.054 111.648 174.507 107.617 172.668 104.012C170.829 100.407 168.606 97.057 166 93.9632C163.394 97.057 161.171 100.407 159.332 104.012C157.493 107.617 155.946 111.648 154.691 116.105ZM131.58 116.105H149.795C150.812 112.184 152.205 108.346 153.974 104.591C155.744 100.837 157.737 97.5015 159.953 94.5842C153.449 95.5833 147.79 97.9279 142.977 101.618C138.163 105.309 134.364 110.138 131.58 116.105Z" fill="#53B2FB"/>
</g>
<path d="M113.289 58V44.9091H115.264V56.2997H121.196V58H113.289ZM123.296 58V48.1818H125.207V58H123.296ZM124.261 46.6669C123.928 46.6669 123.643 46.5561 123.404 46.3345C123.17 46.1087 123.053 45.8402 123.053 45.5291C123.053 45.2138 123.17 44.9453 123.404 44.7237C123.643 44.4979 123.928 44.3849 124.261 44.3849C124.593 44.3849 124.877 44.4979 125.111 44.7237C125.35 44.9453 125.469 45.2138 125.469 45.5291C125.469 45.8402 125.35 46.1087 125.111 46.3345C124.877 46.5561 124.593 46.6669 124.261 46.6669ZM132.451 48.1818V49.7159H126.902V48.1818H132.451ZM128.424 58V47.044C128.424 46.4304 128.558 45.9212 128.826 45.5163C129.095 45.1072 129.451 44.8026 129.894 44.6023C130.337 44.3977 130.818 44.2955 131.338 44.2955C131.722 44.2955 132.05 44.3274 132.323 44.3913C132.595 44.451 132.798 44.5064 132.93 44.5575L132.483 46.1044C132.393 46.0788 132.278 46.049 132.137 46.0149C131.997 45.9766 131.826 45.9574 131.626 45.9574C131.161 45.9574 130.829 46.0724 130.629 46.3026C130.433 46.5327 130.335 46.8651 130.335 47.2997V58H128.424ZM138.267 58.1982C137.3 58.1982 136.467 57.9915 135.768 57.5781C135.073 57.1605 134.536 56.5746 134.157 55.8203C133.782 55.0618 133.595 54.1733 133.595 53.1548C133.595 52.1491 133.782 51.2628 134.157 50.4957C134.536 49.7287 135.065 49.13 135.742 48.6996C136.424 48.2692 137.221 48.054 138.133 48.054C138.687 48.054 139.224 48.1456 139.744 48.3288C140.264 48.5121 140.73 48.7997 141.144 49.1918C141.557 49.5838 141.883 50.093 142.122 50.7195C142.36 51.3416 142.48 52.098 142.48 52.9886V53.6662H134.675V52.2344H140.607C140.607 51.7315 140.505 51.2862 140.3 50.8984C140.095 50.5064 139.808 50.1974 139.437 49.9716C139.071 49.7457 138.64 49.6328 138.146 49.6328C137.609 49.6328 137.14 49.7649 136.74 50.0291C136.343 50.2891 136.036 50.63 135.819 51.0518C135.606 51.4695 135.5 51.9233 135.5 52.4134V53.532C135.5 54.1882 135.615 54.7464 135.845 55.2067C136.079 55.6669 136.405 56.0185 136.823 56.2614C137.24 56.5 137.728 56.6193 138.286 56.6193C138.649 56.6193 138.979 56.5682 139.277 56.4659C139.576 56.3594 139.833 56.2017 140.051 55.9929C140.268 55.7841 140.434 55.5263 140.549 55.2195L142.358 55.5455C142.213 56.0781 141.953 56.5447 141.578 56.9453C141.208 57.3416 140.741 57.6506 140.179 57.8722C139.62 58.0895 138.983 58.1982 138.267 58.1982ZM150.623 58H148.527L153.237 44.9091H155.519L160.23 58H158.134L154.433 47.2869H154.331L150.623 58ZM150.975 52.8736H157.776V54.5355H150.975V52.8736ZM163.879 52.1705V58H161.967V48.1818H163.802V49.7798H163.923C164.149 49.2599 164.503 48.8423 164.984 48.527C165.47 48.2116 166.082 48.054 166.819 48.054C167.488 48.054 168.074 48.1946 168.577 48.4759C169.08 48.7528 169.47 49.1662 169.747 49.7159C170.024 50.2656 170.162 50.9453 170.162 51.755V58H168.251V51.9851C168.251 51.2734 168.065 50.7173 167.695 50.3168C167.324 49.9119 166.815 49.7095 166.167 49.7095C165.724 49.7095 165.33 49.8054 164.984 49.9972C164.644 50.1889 164.373 50.4702 164.173 50.8409C163.977 51.2074 163.879 51.6506 163.879 52.1705ZM175.582 58.2173C174.96 58.2173 174.398 58.1023 173.895 57.8722C173.392 57.6378 172.994 57.299 172.7 56.8558C172.41 56.4126 172.265 55.8693 172.265 55.2259C172.265 54.6719 172.372 54.2159 172.585 53.858C172.798 53.5 173.085 53.2166 173.448 53.0078C173.81 52.799 174.215 52.6413 174.662 52.5348C175.109 52.4283 175.565 52.3473 176.03 52.2919C176.618 52.2237 177.095 52.1683 177.462 52.1257C177.828 52.0788 178.095 52.0043 178.261 51.902C178.427 51.7997 178.51 51.6335 178.51 51.4034V51.3587C178.51 50.8004 178.352 50.3679 178.037 50.0611C177.726 49.7543 177.261 49.6009 176.644 49.6009C176 49.6009 175.493 49.7436 175.122 50.0291C174.756 50.3104 174.502 50.6236 174.362 50.9688L172.565 50.5597C172.778 49.9631 173.09 49.4815 173.499 49.1151C173.912 48.7443 174.387 48.4759 174.924 48.3097C175.461 48.1392 176.026 48.054 176.618 48.054C177.01 48.054 177.426 48.1009 177.864 48.1946C178.308 48.2841 178.721 48.4503 179.104 48.6932C179.492 48.9361 179.81 49.2834 180.057 49.7351C180.304 50.1825 180.428 50.7642 180.428 51.4801V58H178.561V56.6577H178.484C178.361 56.9048 178.176 57.1477 177.928 57.3864C177.681 57.625 177.364 57.8232 176.976 57.9808C176.588 58.1385 176.124 58.2173 175.582 58.2173ZM175.998 56.6832C176.526 56.6832 176.978 56.5788 177.353 56.37C177.732 56.1612 178.02 55.8885 178.216 55.5518C178.416 55.2109 178.516 54.8466 178.516 54.4588V53.1932C178.448 53.2614 178.316 53.3253 178.12 53.3849C177.928 53.4403 177.709 53.4893 177.462 53.532C177.215 53.5703 176.974 53.6065 176.739 53.6406C176.505 53.6705 176.309 53.696 176.151 53.7173C175.781 53.7642 175.442 53.843 175.135 53.9538C174.832 54.0646 174.59 54.2244 174.406 54.4332C174.227 54.6378 174.138 54.9105 174.138 55.2514C174.138 55.7244 174.313 56.0824 174.662 56.3253C175.011 56.5639 175.457 56.6832 175.998 56.6832ZM184.884 44.9091V58H182.973V44.9091H184.884ZM188.664 61.6818C188.378 61.6818 188.118 61.6584 187.884 61.6115C187.65 61.5689 187.475 61.522 187.36 61.4709L187.82 59.9048C188.169 59.9986 188.481 60.0391 188.753 60.0263C189.026 60.0135 189.267 59.9112 189.476 59.7195C189.689 59.5277 189.876 59.2145 190.038 58.7798L190.275 58.1278L186.682 48.1818H188.728L191.214 55.8011H191.316L193.803 48.1818H195.855L191.809 59.3104C191.621 59.8217 191.383 60.2543 191.093 60.608C190.803 60.9659 190.458 61.2344 190.057 61.4134C189.657 61.5923 189.192 61.6818 188.664 61.6818ZM205.008 50.5788L203.276 50.8857C203.204 50.6641 203.089 50.4531 202.931 50.2528C202.777 50.0526 202.569 49.8885 202.304 49.7607C202.04 49.6328 201.71 49.5689 201.314 49.5689C200.772 49.5689 200.321 49.6903 199.959 49.9332C199.596 50.1719 199.415 50.4808 199.415 50.8601C199.415 51.1882 199.537 51.4524 199.78 51.6527C200.022 51.853 200.415 52.017 200.956 52.1449L202.515 52.5028C203.419 52.7116 204.092 53.0334 204.535 53.468C204.978 53.9027 205.2 54.4673 205.2 55.1619C205.2 55.75 205.03 56.2741 204.689 56.7344C204.352 57.1903 203.881 57.5483 203.276 57.8082C202.675 58.0682 201.978 58.1982 201.186 58.1982C200.086 58.1982 199.189 57.9638 198.495 57.495C197.8 57.022 197.374 56.3509 197.216 55.4815L199.064 55.2003C199.179 55.6818 199.415 56.0462 199.773 56.2933C200.131 56.5362 200.598 56.6577 201.173 56.6577C201.799 56.6577 202.3 56.5277 202.675 56.2678C203.05 56.0036 203.238 55.6818 203.238 55.3026C203.238 54.9957 203.123 54.7379 202.892 54.5291C202.667 54.3203 202.319 54.1626 201.851 54.0561L200.189 53.6918C199.272 53.483 198.595 53.1506 198.156 52.6946C197.721 52.2386 197.504 51.6612 197.504 50.9624C197.504 50.3828 197.666 49.8757 197.99 49.4411C198.314 49.0064 198.761 48.6676 199.332 48.4247C199.903 48.1776 200.557 48.054 201.294 48.054C202.356 48.054 203.191 48.2841 203.8 48.7443C204.41 49.2003 204.812 49.8118 205.008 50.5788ZM207.301 58V48.1818H209.213V58H207.301ZM208.267 46.6669C207.934 46.6669 207.649 46.5561 207.41 46.3345C207.176 46.1087 207.059 45.8402 207.059 45.5291C207.059 45.2138 207.176 44.9453 207.41 44.7237C207.649 44.4979 207.934 44.3849 208.267 44.3849C208.599 44.3849 208.882 44.4979 209.117 44.7237C209.355 44.9453 209.475 45.2138 209.475 45.5291C209.475 45.8402 209.355 46.1087 209.117 46.3345C208.882 46.5561 208.599 46.6669 208.267 46.6669ZM219.141 50.5788L217.409 50.8857C217.336 50.6641 217.221 50.4531 217.064 50.2528C216.91 50.0526 216.701 49.8885 216.437 49.7607C216.173 49.6328 215.843 49.5689 215.446 49.5689C214.905 49.5689 214.454 49.6903 214.091 49.9332C213.729 50.1719 213.548 50.4808 213.548 50.8601C213.548 51.1882 213.669 51.4524 213.912 51.6527C214.155 51.853 214.547 52.017 215.089 52.1449L216.648 52.5028C217.552 52.7116 218.225 53.0334 218.668 53.468C219.111 53.9027 219.333 54.4673 219.333 55.1619C219.333 55.75 219.162 56.2741 218.821 56.7344C218.485 57.1903 218.014 57.5483 217.409 57.8082C216.808 58.0682 216.111 58.1982 215.319 58.1982C214.219 58.1982 213.322 57.9638 212.628 57.495C211.933 57.022 211.507 56.3509 211.349 55.4815L213.196 55.2003C213.312 55.6818 213.548 56.0462 213.906 56.2933C214.264 56.5362 214.731 56.6577 215.306 56.6577C215.932 56.6577 216.433 56.5277 216.808 56.2678C217.183 56.0036 217.37 55.6818 217.37 55.3026C217.37 54.9957 217.255 54.7379 217.025 54.5291C216.799 54.3203 216.452 54.1626 215.983 54.0561L214.321 53.6918C213.405 53.483 212.728 53.1506 212.289 52.6946C211.854 52.2386 211.637 51.6612 211.637 50.9624C211.637 50.3828 211.799 49.8757 212.123 49.4411C212.446 49.0064 212.894 48.6676 213.465 48.4247C214.036 48.1776 214.69 48.054 215.427 48.054C216.488 48.054 217.324 48.2841 217.933 48.7443C218.542 49.2003 218.945 49.8118 219.141 50.5788Z" fill="white"/>
<defs>
<filter id="filter0_d_778_2474" x="0" y="0" width="331" height="216" filterUnits="userSpaceOnUse" color-interpolation-filters="sRGB">
<feFlood flood-opacity="0" result="BackgroundImageFix"/>
<feColorMatrix in="SourceAlpha" type="matrix" values="0 0 0 0 0 0 0 0 0 0 0 0 0 0 0 0 0 0 127 0" result="hardAlpha"/>
<feOffset/>
<feGaussianBlur stdDeviation="10"/>
<feComposite in2="hardAlpha" operator="out"/>
<feColorMatrix type="matrix" values="0 0 0 0 0 0 0 0 0 0 0 0 0 0 0 0 0 0 0.25 0"/>
<feBlend mode="normal" in2="BackgroundImageFix" result="effect1_dropShadow_778_2474"/>
<feBlend mode="normal" in="SourceGraphic" in2="effect1_dropShadow_778_2474" result="shape"/>
</filter>
</defs>
</svg>
