<svg width="686" height="162" viewBox="0 0 686 162" fill="none" xmlns="http://www.w3.org/2000/svg">
<path d="M221.889 20.9259C221.889 25.6667 220.704 29.8148 217.741 32.7778C214.185 36.3333 210.037 38.1111 204.704 38.1111C199.37 38.1111 195.222 36.3333 191.667 32.7778C188.111 29.2222 186.333 25.0741 186.333 19.7407C186.333 14.4074 188.111 10.2593 191.667 6.7037C195.222 3.14814 199.37 1.37036 204.704 1.37036C207.074 1.37036 209.444 1.96295 211.815 3.14814C214.185 4.33332 215.963 5.51851 217.148 7.29629L214.185 10.2592C211.815 7.29628 208.852 6.1111 204.704 6.1111C201.148 6.1111 197.593 7.29628 195.222 10.2592C192.259 12.6296 191.074 16.1852 191.074 20.3333C191.074 24.4815 192.259 28.037 195.222 30.4074C198.185 32.7778 201.148 34.5555 204.704 34.5555C208.852 34.5555 211.815 33.3704 214.778 30.4074C216.555 28.6296 217.741 26.2593 217.741 23.2963H204.704V18.5555H221.889V20.9259ZM249.148 6.1111H233.148V17.3704H247.963V21.5185H233.148V32.7778H249.148V37.5185H228.407V1.96295H249.148V6.1111ZM268.704 37.5185H263.963V6.1111H253.889V1.96295H278.778V6.1111H268.704V37.5185ZM295.963 37.5185V1.96295H300.704V37.5185H295.963ZM320.852 37.5185H316.111V6.1111H306.037V1.96295H330.333V6.1111H320.259V37.5185H320.852ZM377.148 32.7778C373.592 36.3333 369.444 38.1111 364.111 38.1111C358.778 38.1111 354.63 36.3333 351.074 32.7778C347.518 29.2222 345.741 25.0741 345.741 19.7407C345.741 14.4074 347.518 10.2593 351.074 6.7037C354.63 3.14814 358.778 1.37036 364.111 1.37036C369.444 1.37036 373.592 3.14814 377.148 6.7037C380.704 10.2593 382.481 14.4074 382.481 19.7407C382.481 25.0741 380.704 29.2222 377.148 32.7778ZM354.63 29.8148C357 32.1852 360.555 33.963 364.111 33.963C367.667 33.963 371.222 32.7778 373.592 29.8148C375.963 27.4444 377.741 23.8889 377.741 19.7407C377.741 15.5926 376.555 12.037 373.592 9.66666C371.222 7.29629 367.667 5.51851 364.111 5.51851C360.555 5.51851 357 6.7037 354.63 9.66666C352.259 12.037 350.481 15.5926 350.481 19.7407C350.481 23.8889 351.667 27.4444 354.63 29.8148ZM389 37.5185V1.96295H394.333L411.518 29.8148V1.96295H416.259V37.5185H411.518L393.148 8.48147V37.5185H389Z" fill="white" stroke="white" stroke-width="1.18519" stroke-miterlimit="10"/>
<path d="M344.556 89.6667C330.333 89.6667 319.074 100.333 319.074 115.148C319.074 129.37 330.333 140.63 344.556 140.63C358.778 140.63 370.037 129.963 370.037 115.148C370.037 99.7407 358.778 89.6667 344.556 89.6667ZM344.556 129.963C336.852 129.963 330.333 123.444 330.333 114.556C330.333 105.667 336.852 99.1481 344.556 99.1481C352.259 99.1481 358.778 105.074 358.778 114.556C358.778 123.444 352.259 129.963 344.556 129.963ZM289.445 89.6667C275.222 89.6667 263.963 100.333 263.963 115.148C263.963 129.37 275.222 140.63 289.445 140.63C303.667 140.63 314.926 129.963 314.926 115.148C314.926 99.7407 303.667 89.6667 289.445 89.6667ZM289.445 129.963C281.741 129.963 275.222 123.444 275.222 114.556C275.222 105.667 281.741 99.1481 289.445 99.1481C297.148 99.1481 303.667 105.074 303.667 114.556C303.667 123.444 297.148 129.963 289.445 129.963ZM223.667 97.3704V108.037H249.148C248.556 113.963 246.185 118.704 243.222 121.667C239.667 125.222 233.741 129.37 223.667 129.37C207.667 129.37 195.815 116.926 195.815 100.926C195.815 84.9259 208.259 72.4815 223.667 72.4815C231.963 72.4815 238.482 76.037 243.222 80.1852L250.926 72.4815C244.408 66.5556 236.111 61.8148 224.259 61.8148C202.926 61.8148 184.556 79.5926 184.556 100.926C184.556 122.259 202.926 140.037 224.259 140.037C236.111 140.037 244.408 136.481 251.519 128.778C258.63 121.667 261 111.593 261 103.889C261 101.519 261 99.1482 260.408 97.3704H223.667ZM492.704 105.667C490.333 99.7407 484.408 89.6667 471.37 89.6667C458.333 89.6667 447.667 99.7407 447.667 115.148C447.667 129.37 458.333 140.63 472.556 140.63C483.815 140.63 490.926 133.519 493.296 129.37L485 123.444C482.037 127.593 478.482 130.556 472.556 130.556C466.63 130.556 463.074 128.185 460.111 122.852L493.889 108.63L492.704 105.667ZM458.333 113.963C458.333 104.481 466.037 99.1481 471.37 99.1481C475.519 99.1481 479.667 101.519 480.852 104.481L458.333 113.963ZM430.482 138.259H441.741V64.1852H430.482V138.259ZM412.704 95C409.741 92.037 405 89.0741 399.074 89.0741C386.63 89.0741 374.778 100.333 374.778 114.556C374.778 128.778 386.037 139.444 399.074 139.444C405 139.444 409.741 136.481 412.111 133.519H412.704V137.074C412.704 146.556 407.37 151.889 399.074 151.889C392.556 151.889 387.815 147.148 386.63 143L377.148 147.148C380.111 153.667 387.222 161.963 399.667 161.963C412.704 161.963 423.37 154.259 423.37 135.889V90.8519H412.704V95ZM399.667 129.963C391.963 129.963 385.445 123.444 385.445 114.556C385.445 105.667 391.963 99.1481 399.667 99.1481C407.37 99.1481 413.296 105.667 413.296 114.556C413.296 123.444 407.37 129.963 399.667 129.963ZM544.259 64.1852H517.593V138.259H528.852V110.407H544.259C556.704 110.407 568.556 101.519 568.556 87.2963C568.556 73.0741 556.704 64.1852 544.259 64.1852ZM544.852 99.7407H528.852V74.2593H544.852C553.148 74.2593 557.889 81.3704 557.889 86.7037C557.296 93.2222 552.556 99.7407 544.852 99.7407ZM613 89.0741C604.704 89.0741 596.408 92.6296 593.445 100.333L603.519 104.481C605.889 100.333 609.445 99.1481 613.593 99.1481C619.519 99.1481 624.852 102.704 625.445 108.63V109.222C623.667 108.037 618.926 106.259 614.185 106.259C603.519 106.259 592.852 112.185 592.852 122.852C592.852 132.926 601.741 139.444 611.222 139.444C618.926 139.444 622.482 135.889 625.445 132.333H626.037V138.259H636.704V109.815C635.519 96.7778 625.445 89.0741 613 89.0741ZM611.815 129.963C608.259 129.963 602.926 128.185 602.926 123.444C602.926 117.519 609.445 115.741 614.778 115.741C619.519 115.741 621.889 116.926 624.852 118.111C623.667 125.222 617.741 129.963 611.815 129.963ZM674.037 90.8519L661.593 122.852H661L647.963 90.8519H636.111L655.667 135.889L644.407 160.778H655.667L685.889 90.8519H674.037ZM574.482 138.259H585.741V64.1852H574.482V138.259Z" fill="white"/>
<path d="M2.62965 4.9259C0.851868 6.70368 0.259277 9.66664 0.259277 13.2222V144.185C0.259277 147.741 1.44446 150.704 3.22224 152.481L3.81484 153.074L77.2963 79.5926V78.4074L2.62965 4.9259Z" fill="url(#paint0_linear_2210_249)"/>
<path d="M101 104.481L76.7036 80.1852V78.4074L101 54.1111L101.593 54.7037L130.63 71.2963C138.926 76.037 138.926 83.7407 130.63 88.4815L101 104.481Z" fill="url(#paint1_linear_2210_249)"/>
<path d="M101.593 103.889L76.7037 79L2.62964 153.074C5.5926 156.037 9.74075 156.037 15.0741 153.667L101.593 103.889Z" fill="url(#paint2_linear_2210_249)"/>
<path d="M101.593 54.1111L15.0741 4.92591C9.74075 1.96294 5.5926 2.55554 2.62964 5.5185L76.7037 79L101.593 54.1111Z" fill="url(#paint3_linear_2210_249)"/>
<path opacity="0.2" d="M101 103.296L15.0741 151.889C10.3333 154.852 6.1852 154.259 3.22223 151.889L2.62964 152.481L3.22223 153.074C6.1852 155.444 10.3333 156.037 15.0741 153.074L101 103.296Z" fill="black"/>
<path opacity="0.12" d="M2.62965 151.889C0.851868 150.111 0.259277 147.148 0.259277 143.593V144.185C0.259277 147.741 1.44446 150.704 3.22224 152.481V151.889H2.62965ZM130.63 86.7037L101 103.296L101.593 103.889L130.63 87.2963C134.778 84.9259 136.556 81.963 136.556 79C136.556 81.963 134.185 84.3333 130.63 86.7037Z" fill="black"/>
<path opacity="0.25" d="M15.0741 5.51852L130.63 71.2963C134.185 73.6667 136.556 76.037 136.556 79C136.556 76.037 134.778 73.0741 130.63 70.7037L15.0741 4.92593C6.7778 0.185187 0.259277 3.74074 0.259277 13.2222V13.8148C0.259277 4.92593 6.7778 0.777779 15.0741 5.51852Z" fill="white"/>
<defs>
<linearGradient id="paint0_linear_2210_249" x1="70.1852" y1="12.0963" x2="-29.2696" y2="111.545" gradientUnits="userSpaceOnUse">
<stop stop-color="#00A0FF"/>
<stop offset="0.007" stop-color="#00A1FF"/>
<stop offset="0.26" stop-color="#00BEFF"/>
<stop offset="0.512" stop-color="#00D2FF"/>
<stop offset="0.76" stop-color="#00DFFF"/>
<stop offset="1" stop-color="#00E3FF"/>
</linearGradient>
<linearGradient id="paint1_linear_2210_249" x1="141.498" y1="79.0059" x2="-1.89194" y2="79.0059" gradientUnits="userSpaceOnUse">
<stop stop-color="#FFE000"/>
<stop offset="0.409" stop-color="#FFBD00"/>
<stop offset="0.775" stop-color="#FFA500"/>
<stop offset="1" stop-color="#FF9C00"/>
</linearGradient>
<linearGradient id="paint2_linear_2210_249" x1="88.123" y1="92.6059" x2="-46.7392" y2="227.468" gradientUnits="userSpaceOnUse">
<stop stop-color="#FF3A44"/>
<stop offset="1" stop-color="#C31162"/>
</linearGradient>
<linearGradient id="paint3_linear_2210_249" x1="-15.7585" y1="-38.4756" x2="44.4667" y2="21.7496" gradientUnits="userSpaceOnUse">
<stop stop-color="#32A071"/>
<stop offset="0.069" stop-color="#2DA771"/>
<stop offset="0.476" stop-color="#15CF74"/>
<stop offset="0.801" stop-color="#06E775"/>
<stop offset="1" stop-color="#00F076"/>
</linearGradient>
</defs>
</svg>
