<svg width="193" height="74" viewBox="0 0 193 74" fill="none" xmlns="http://www.w3.org/2000/svg">
<path d="M57.2551 15.1457C58.6851 15.7696 59.8906 16.5951 60.8712 17.6221C59.2089 15.7961 57.0847 14.2359 54.4987 12.9415L37.3346 4.64084C32.5295 2.55415 27.5514 2.75915 22.3999 5.25587C15.1538 9.18695 8.9119 13.982 3.67423 19.6409C0.14673 23.4512 -0.840798 28.4234 0.711647 34.5574L4.60445 52.5048C5.31298 54.8361 5.97505 56.714 6.59066 58.1391C5.39049 54.9429 6.18374 50.5934 8.97035 45.0903C9.61569 44.0127 10.2837 42.9597 10.9743 41.9311C13.6993 37.8656 17.7767 33.3802 23.2066 28.4752C26.0718 25.8858 28.9124 23.6364 31.7282 21.727C34.7737 19.6604 38.0807 17.7888 41.6496 16.1122C42.646 15.6432 43.6533 15.2479 44.6717 14.9265C45.5248 14.6594 46.3855 14.4436 47.2542 14.2792C49.0848 13.9354 50.8625 13.8408 52.5874 13.9954C54.2856 14.1459 55.8415 14.5294 57.2551 15.1457Z" fill="url(#paint0_linear_4_22)"/>
<path d="M59.2635 64.1247C60.0737 63.7535 60.8032 63.3269 61.4524 62.8449C58.2659 64.2883 53.5938 63.3493 47.4363 60.028L10.9744 41.93C10.2837 42.9586 9.61576 44.0117 8.97044 45.0894C6.1838 50.5924 5.39058 54.9421 6.59073 58.1381C6.7788 58.5737 6.98299 58.9951 7.20326 59.4023C7.20746 59.4095 7.21272 59.4187 7.21902 59.4296C8.18363 61.1947 9.52583 62.7793 11.2456 64.1833C13.5174 66.031 16.2909 67.6884 19.5662 69.1553C22.0472 70.2675 25.2822 71.454 29.2711 72.7151C31.5953 73.4586 33.6091 73.8785 35.3126 73.9751C37.2833 74.0847 39.2326 73.8035 41.1601 73.1315L59.2635 64.1247Z" fill="url(#paint1_linear_4_22)"/>
<path d="M60.8714 17.6218C59.8908 16.5948 58.6856 15.7694 57.2555 15.1455C55.8419 14.5291 54.286 14.1456 52.5878 13.9951C50.8629 13.8405 49.085 13.9351 47.2546 14.279C46.3859 14.4434 45.525 14.6591 44.6719 14.9263C49.5813 30.5926 50.503 45.6268 47.4365 60.0286C53.594 63.35 58.2661 64.2889 61.4526 62.8455C63.7298 61.1429 65.1613 58.7605 65.7469 55.6984C66.6376 51.0943 66.9057 45.5735 66.5515 39.1355C66.2403 33.4453 65.55 28.379 64.4803 23.9363C64.2674 23.0535 63.9407 22.1926 63.5005 21.3537C63.157 20.6947 62.6831 19.9469 62.0793 19.1103C61.7095 18.5952 61.3069 18.099 60.8714 17.6218Z" fill="url(#paint2_linear_4_22)"/>
<path d="M40.0144 26.1288C39.2548 26.4104 38.576 26.8049 37.9783 27.3118C37.3592 27.8398 36.8176 28.4808 36.3534 29.2341C35.8894 29.9805 35.4707 30.8395 35.0981 31.8114L34.9398 26.847L34.7287 26.2661L34.1485 26.1076H32.9457V49.7459H35.2141V34.4624L36.3745 31.6317C36.7895 30.8079 37.2749 30.1248 37.8305 29.5827C38.4072 29.0263 39.0437 28.6109 39.7401 28.3362C40.4503 28.0546 41.2593 27.9138 42.1666 27.9138L44.5826 28.2413C44.7934 28.2413 44.9378 28.1179 45.0152 27.8715L45.2049 26.2873L43.9496 25.833L42.5148 25.7169C41.5864 25.7169 40.7528 25.8542 40.0144 26.1288ZM65.5982 28.4314C64.7613 27.5442 63.7731 26.8682 62.6338 26.4034C61.4873 25.9598 60.2495 25.738 58.92 25.738C57.2532 25.738 55.755 26.0303 54.4258 26.6147C53.1105 27.2061 51.9993 28.0195 51.092 29.0545C50.1775 30.0896 49.4813 31.3184 49.0031 32.7407C48.5107 34.1773 48.2646 35.7476 48.2646 37.4516C48.2646 39.4584 48.5247 41.2363 49.0452 42.7854C49.5587 44.3486 50.2866 45.6724 51.2292 46.7569C52.1855 47.8342 53.3286 48.6511 54.6578 49.2073C55.9872 49.7706 57.4536 50.0524 59.0572 50.0524L61.7265 49.7882L64.1846 49.1017L66.2631 48.0244C66.8961 47.6229 67.3989 47.1828 67.7715 46.7041L67.1704 45.9435L66.685 45.7112L64.501 46.9892L62.3277 47.8659C61.4485 48.1123 60.4217 48.2357 59.2471 48.2357C57.9179 48.2357 56.7116 48.0137 55.6285 47.5701C54.5525 47.1053 53.6345 46.4153 52.8748 45.4999C52.1153 44.5846 51.5279 43.4545 51.113 42.1095C50.7122 40.7645 50.5118 39.212 50.5118 37.4516V36.9869H67.6767L68.162 36.7967L68.3097 36.0785C68.3097 34.4238 68.0705 32.9555 67.5923 31.6741C67.093 30.3924 66.4283 29.3116 65.5982 28.4314ZM64.2269 29.5827C64.8739 30.2798 65.3767 31.1318 65.7354 32.1388C66.0871 33.1456 66.2631 34.2828 66.2631 35.5504H50.6278C50.7684 34.3109 51.0532 33.188 51.4823 32.181C51.8973 31.1951 52.4599 30.3466 53.1703 29.6356C53.8807 28.9243 54.7178 28.3751 55.6813 27.9878C56.6377 27.6006 57.7244 27.4069 58.9412 27.4069C60.0244 27.4069 61.0126 27.6006 61.9058 27.9878C62.8061 28.3609 63.5797 28.8927 64.2269 29.5827ZM73.7747 29.4664L74.1966 30.1425L74.4709 30.4699L74.893 30.5861C75.1392 30.5861 75.431 30.4241 75.7685 30.1001L77.14 29.0545L79.1552 28.0088C79.957 27.699 80.9311 27.5442 82.0776 27.5442C83.9133 27.5442 85.3023 28.1321 86.2449 29.3081C87.1873 30.4839 87.6585 32.1633 87.6585 34.3463V36.8284C84.9859 36.8847 82.7001 37.1065 80.8011 37.4937C78.8809 37.867 77.3195 38.3704 76.1167 39.0042C74.9 39.6379 74.0032 40.3808 73.4264 41.2328C72.8567 42.099 72.5719 43.0283 72.5719 44.0212C72.5719 45.0987 72.7513 46.0245 73.11 46.799C73.4615 47.5596 73.9399 48.1863 74.5448 48.6793C75.1285 49.1722 75.8003 49.5348 76.5598 49.7671C77.3125 49.9995 78.0931 50.1157 78.9019 50.1157C79.8726 50.1157 80.7588 50.0242 81.5606 49.8411C82.3623 49.6509 83.1115 49.3798 83.8078 49.0277L85.8228 47.7497L87.7534 46.0387L88.1016 49.07C88.2071 49.5206 88.4991 49.7459 88.9773 49.7459H89.8846V34.3463C89.8846 33.0295 89.7228 31.836 89.3992 30.7657C89.0898 29.7024 88.6186 28.7975 87.9856 28.0511C87.3666 27.2978 86.579 26.7204 85.6224 26.3189C84.68 25.9175 83.5756 25.7169 82.3096 25.7169C80.5793 25.7169 79.0321 26.0338 77.6677 26.6676C76.3101 27.3013 75.0125 28.2343 73.7747 29.4664ZM75.5153 41.6764C76.0219 41.0215 76.8025 40.4548 77.8574 39.9758C78.9056 39.4971 80.2418 39.1203 81.8665 38.8457C83.4842 38.5783 85.4148 38.3986 87.6585 38.3071V44.5071L85.9916 46.0808L84.1348 47.359C83.4877 47.7109 82.7773 47.9892 82.0036 48.1933C81.23 48.3905 80.3896 48.4891 79.4823 48.4891L77.6887 48.2145C77.1191 48.0455 76.6195 47.7744 76.1906 47.4011C75.7545 47.028 75.4063 46.5561 75.1462 45.9859C74.8858 45.4015 74.7559 44.7149 74.7559 43.9262C74.7559 43.0881 75.009 42.3383 75.5153 41.6764ZM99.8861 15.1758H97.6177V49.7459H99.8861V15.1758Z" fill="white"/>
<path d="M120.871 26.1076H118.623V49.7459H120.871V26.1076ZM110.363 15.1758H108.094V49.7459H110.363V15.1758ZM121.683 17.1509L121.219 16.4538L120.543 16.0208L119.741 15.8518L118.95 16.0208L118.275 16.4538L117.811 17.1509L117.653 17.9642L117.811 18.7564L118.275 19.4007L118.95 19.8654L119.741 20.0239L120.543 19.8654L121.219 19.4007L121.683 18.7564L121.841 17.9642L121.683 17.1509ZM145.674 26.2661L145.368 26.6887L137.54 45.3414L136.938 47.4011L136.358 45.3414L128.572 26.6887L128.266 26.2873L127.738 26.1076H125.956L135.915 49.7459H137.909L147.879 26.1076H146.159L145.674 26.2661ZM168.599 28.4314C167.762 27.5442 166.774 26.8682 165.634 26.4034C164.488 25.9598 163.25 25.738 161.921 25.738C160.254 25.738 158.756 26.0303 157.427 26.6147C156.111 27.2061 155 28.0195 154.093 29.0545C153.178 30.0896 152.482 31.3184 152.004 32.7407C151.511 34.1773 151.265 35.7476 151.265 37.4516C151.265 39.4584 151.526 41.2363 152.046 42.7854C152.559 44.3486 153.287 45.6724 154.23 46.7569C155.186 47.8342 156.329 48.6511 157.659 49.2073C158.988 49.7706 160.454 50.0524 162.058 50.0524L164.727 49.7882L167.185 49.1017L169.264 48.0244C169.897 47.6229 170.4 47.1828 170.772 46.7041L170.171 45.9435L169.686 45.7112L167.502 46.9892L165.329 47.8659C164.449 48.1123 163.423 48.2357 162.248 48.2357C160.919 48.2357 159.712 48.0137 158.629 47.5701C157.553 47.1053 156.635 46.4153 155.876 45.4999C155.116 44.5846 154.529 43.4545 154.114 42.1095C153.713 40.7645 153.512 39.212 153.512 37.4516V36.9869H170.677L171.163 36.7967L171.31 36.0785C171.31 34.4238 171.071 32.9555 170.593 31.6741C170.094 30.3924 169.429 29.3116 168.599 28.4314ZM167.228 29.5827C167.875 30.2798 168.378 31.1318 168.736 32.1388C169.088 33.1456 169.264 34.2828 169.264 35.5504H153.628C153.769 34.3109 154.054 33.188 154.483 32.181C154.898 31.1951 155.461 30.3466 156.171 29.6356C156.881 28.9243 157.718 28.3751 158.682 27.9878C159.639 27.6006 160.725 27.4069 161.942 27.4069C163.025 27.4069 164.013 27.6006 164.907 27.9878C165.807 28.3609 166.581 28.8927 167.228 29.5827ZM179.898 28.801C180.391 28.3786 180.992 28.0442 181.702 27.7977C182.399 27.5512 183.179 27.4279 184.044 27.4279C184.987 27.4279 185.789 27.5301 186.45 27.7344L188.127 28.3998L189.214 29.0756L189.879 29.3503C190.111 29.3503 190.29 29.2446 190.417 29.0335L190.902 28.2413C189.974 27.3893 188.954 26.7555 187.842 26.3401C186.731 25.9387 185.458 25.738 184.023 25.738C182.813 25.738 181.723 25.907 180.753 26.2449C179.796 26.604 178.977 27.076 178.295 27.6604C177.633 28.2518 177.116 28.9313 176.744 29.6989C176.392 30.4734 176.216 31.2796 176.216 32.1176C176.216 33.1035 176.399 33.9237 176.765 34.5786C177.152 35.2404 177.655 35.7967 178.273 36.2475C178.893 36.7122 179.589 37.0995 180.362 37.4093L185.184 38.983L187.283 39.9125C187.902 40.2786 188.398 40.7187 188.771 41.2328C189.158 41.7609 189.351 42.4193 189.351 43.208C189.351 43.9192 189.221 44.5986 188.961 45.2465C188.693 45.8802 188.307 46.4364 187.8 46.9154C187.301 47.3941 186.675 47.7744 185.922 48.056C185.149 48.3306 184.266 48.4679 183.274 48.4679C182.212 48.4679 181.326 48.3376 180.616 48.0772L178.78 47.2638L177.63 46.4506C177.335 46.19 177.078 46.0597 176.86 46.0597L176.448 46.1548L176.185 46.4506L175.657 47.2426C176.614 48.1088 177.686 48.8024 178.875 49.3235C180.078 49.8515 181.516 50.1157 183.19 50.1157C184.519 50.1157 185.694 49.929 186.714 49.5557C187.748 49.1757 188.613 48.6581 189.309 48.0032C190.019 47.3555 190.557 46.5914 190.923 45.7112C191.282 44.8311 191.461 43.8699 191.461 42.8277C191.461 41.8912 191.275 41.0885 190.902 40.4194C190.515 39.7575 190.019 39.1943 189.414 38.7295C188.802 38.2648 188.103 37.8775 187.315 37.5677L182.494 35.9624L180.384 35.0645C179.779 34.7194 179.283 34.3004 178.896 33.8075C178.53 33.3146 178.347 32.6951 178.347 31.9487C178.347 31.3501 178.477 30.7797 178.738 30.2374C179.019 29.6812 179.406 29.2025 179.898 28.801Z" fill="#10DCF6"/>
<path d="M87.1064 59.0279C85.946 59.0279 85.0245 59.4187 84.3424 60.2004C83.653 60.975 83.3084 62.0206 83.3084 63.3374C83.3084 64.5625 83.6355 65.5414 84.2897 66.2738C84.9366 66.999 85.8158 67.3616 86.9272 67.3616C88.2564 67.3616 89.2342 66.9497 89.86 66.1258C90.493 65.3019 90.8096 64.2635 90.8096 63.01C90.8096 61.7002 90.4509 60.7073 89.7335 60.0315C89.0161 59.3624 88.1404 59.0279 87.1064 59.0279ZM85.2707 61.0983C85.6435 60.4855 86.2414 60.1793 87.0643 60.1793C87.9926 60.1793 88.6467 60.5384 89.0266 61.2566C89.2658 61.7144 89.3853 62.3094 89.3853 63.0416C89.3853 63.8443 89.22 64.5767 88.8894 65.2386C88.5519 65.9005 87.9398 66.2314 87.0537 66.2314C86.2379 66.2314 85.6435 65.9533 85.2707 65.3971C84.898 64.8409 84.7116 64.1471 84.7116 63.3163C84.7116 62.4502 84.898 61.7109 85.2707 61.0983ZM81.1879 59.2497L79.0039 65.6294L76.8306 59.2497H75.2903L78.2865 67.3194L77.6747 68.7135L77.3688 69.0198C77.2491 69.0973 77.0663 69.1361 76.8202 69.1361L76.5354 69.115L76.0184 68.9988V70.1923L76.3982 70.2768L76.8413 70.2979C77.6289 70.2979 78.1847 70.0796 78.5081 69.6431C78.8317 69.1995 79.3873 67.9778 80.1751 65.978L82.6966 59.2497H81.1879ZM98.8593 59.2497H97.4982V63.1049C97.4982 63.8655 97.4104 64.4676 97.2346 64.9112C96.8969 65.728 96.2674 66.1365 95.3461 66.1365C94.6989 66.1365 94.2593 65.9005 94.0273 65.4287C93.9006 65.1753 93.8374 64.8513 93.8374 64.4571V59.2497H92.4447V64.5732C92.4447 65.2421 92.5538 65.7774 92.7718 66.1786C93.1868 66.925 93.9604 67.2983 95.0929 67.2983C95.8243 67.2983 96.4433 67.094 96.9496 66.6857C97.21 66.4814 97.4245 66.2314 97.5933 65.9356L97.5826 67.087H98.8593V59.2497ZM124.158 59.4715C123.624 59.2111 123.072 59.0808 122.502 59.0808C121.362 59.0808 120.445 59.4715 119.748 60.2533C119.045 61.0418 118.693 62.063 118.693 63.3163C118.693 64.5979 119.042 65.5942 119.738 66.3054C120.434 67.0095 121.282 67.3616 122.28 67.3616C122.695 67.3616 123.065 67.3229 123.388 67.2454C123.993 67.1116 124.5 66.8475 124.907 66.4532C125.154 66.2349 125.379 65.9498 125.583 65.5977C125.78 65.2386 125.896 64.9146 125.931 64.626H124.591C124.5 64.971 124.334 65.281 124.095 65.5554C123.673 66.0062 123.11 66.2314 122.407 66.2314C121.647 66.2314 121.088 65.9885 120.729 65.5027C120.371 65.0238 120.177 64.3866 120.149 63.5909H126.047C126.047 62.8022 126.005 62.2248 125.92 61.8587C125.829 61.3376 125.649 60.88 125.382 60.4855C125.101 60.0701 124.693 59.7322 124.158 59.4715ZM122.418 60.2216C123.276 60.2216 123.891 60.5384 124.264 61.1721C124.461 61.5172 124.587 61.9748 124.644 62.5452H120.181C120.209 61.8693 120.431 61.3164 120.846 60.887C121.268 60.4434 121.792 60.2216 122.418 60.2216ZM110.443 61.4574C110.443 61.6827 110.415 61.8517 110.359 61.9643C110.253 62.1826 110.042 62.3094 109.726 62.3446L107.553 62.6085C106.793 62.7002 106.177 62.9467 105.706 63.3479C105.242 63.7494 105.01 64.3091 105.01 65.0273C105.01 65.6964 105.249 66.2526 105.727 66.6962C106.199 67.1328 106.81 67.3511 107.563 67.3511C108.189 67.3511 108.762 67.2208 109.283 66.9603C109.803 66.7067 110.201 66.4039 110.475 66.052C110.524 66.3618 110.602 66.601 110.707 66.7702C110.925 67.094 111.266 67.2559 111.73 67.2559L112.184 67.235L112.669 67.1186V66.147L112.427 66.1893L112.226 66.1998C112.036 66.1998 111.913 66.1574 111.857 66.073C111.801 65.9885 111.773 65.8793 111.773 65.7455V61.2249C111.773 60.4855 111.477 59.9398 110.886 59.5879C110.289 59.2358 109.515 59.0596 108.565 59.0596C107.749 59.0596 107.029 59.2497 106.403 59.63C105.784 60.0103 105.46 60.6827 105.432 61.6473H106.698C106.754 61.2461 106.863 60.9398 107.025 60.7285C107.327 60.3624 107.834 60.1793 108.544 60.1793C109.149 60.1793 109.62 60.2814 109.958 60.4855C110.281 60.6827 110.443 61.0066 110.443 61.4574ZM109.768 63.3586C110.028 63.2951 110.243 63.2106 110.412 63.1049V64.1613C110.412 64.971 110.032 65.5519 109.272 65.904C108.822 66.1223 108.358 66.2314 107.88 66.2314C107.486 66.2314 107.145 66.1223 106.856 65.904C106.575 65.6857 106.434 65.3864 106.434 65.0063C106.434 64.5062 106.645 64.1401 107.067 63.9078C107.313 63.774 107.683 63.6754 108.175 63.612L109.768 63.3586ZM116.109 59.6512C115.694 60.0243 115.433 60.3412 115.328 60.6017V59.2497H114.03V67.087H115.391V62.5769C115.391 62.0206 115.578 61.5312 115.95 61.1088C116.316 60.6792 116.84 60.4644 117.522 60.4644L117.976 60.5067V59.1124L117.66 59.0808C117.624 59.0808 117.582 59.0808 117.533 59.0808C116.991 59.0808 116.517 59.2709 116.109 59.6512ZM132.324 57.0635V59.2497H131.227V60.3271H132.324V65.5132C132.324 66.0131 132.44 66.4216 132.672 66.7383C132.897 67.0553 133.326 67.2138 133.959 67.2138L134.519 67.1821L135.004 67.087V66.0413L134.519 66.073C134.272 66.073 134.097 66.0448 133.991 65.9885C133.801 65.897 133.706 65.7139 133.706 65.4392V60.3271H135.004V59.2497H133.706V57.0635H132.324ZM137.726 56.3029H136.365V67.087H137.726V62.936C137.726 61.8868 137.954 61.1756 138.412 60.8025C138.869 60.4292 139.379 60.2426 139.941 60.2426C140.623 60.2426 141.088 60.4574 141.334 60.887C141.489 61.1546 141.566 61.577 141.566 62.1545V67.087H142.969V62.0593C142.969 61.2919 142.853 60.6899 142.621 60.2533C142.206 59.4576 141.411 59.0596 140.237 59.0596C139.583 59.0596 139.034 59.2006 138.591 59.4822C138.338 59.6442 138.049 59.9223 137.726 60.3166V56.3029ZM149.974 59.4715C149.44 59.2111 148.888 59.0808 148.318 59.0808C147.179 59.0808 146.261 59.4715 145.564 60.2533C144.861 61.0418 144.51 62.063 144.51 63.3163C144.51 64.5979 144.858 65.5942 145.554 66.3054C146.25 67.0095 147.098 67.3616 148.096 67.3616C148.511 67.3616 148.881 67.3229 149.204 67.2454C149.809 67.1116 150.316 66.8475 150.724 66.4532C150.97 66.2349 151.195 65.9498 151.399 65.5977C151.596 65.2386 151.712 64.9146 151.747 64.626H150.407C150.316 64.971 150.15 65.281 149.911 65.5554C149.489 66.0062 148.926 66.2314 148.223 66.2314C147.463 66.2314 146.904 65.9885 146.546 65.5027C146.187 65.0238 145.994 64.3866 145.965 63.5909H151.863C151.863 62.8022 151.821 62.2248 151.736 61.8587C151.645 61.3376 151.466 60.88 151.198 60.4855C150.917 60.0701 150.509 59.7322 149.974 59.4715ZM148.234 60.2216C149.092 60.2216 149.707 60.5384 150.08 61.1721C150.277 61.5172 150.403 61.9748 150.46 62.5452H145.997C146.025 61.8693 146.247 61.3164 146.662 60.887C147.084 60.4434 147.608 60.2216 148.234 60.2216ZM172.298 59.0279C171.138 59.0279 170.217 59.4187 169.534 60.2004C168.845 60.975 168.5 62.0206 168.5 63.3374C168.5 64.5625 168.827 65.5414 169.482 66.2738C170.129 66.999 171.008 67.3616 172.119 67.3616C173.448 67.3616 174.426 66.9497 175.052 66.1258C175.685 65.3019 176.001 64.2635 176.001 63.01C176.001 61.7002 175.643 60.7073 174.925 60.0315C174.208 59.3624 173.332 59.0279 172.298 59.0279ZM170.463 61.0983C170.835 60.4855 171.433 60.1793 172.256 60.1793C173.185 60.1793 173.839 60.5384 174.218 61.2566C174.458 61.7144 174.577 62.3094 174.577 63.0416C174.577 63.8443 174.412 64.5767 174.081 65.2386C173.744 65.9005 173.132 66.2314 172.246 66.2314C171.43 66.2314 170.835 65.9533 170.463 65.3971C170.09 64.8409 169.903 64.1471 169.903 63.3163C169.903 62.4502 170.09 61.7109 170.463 61.0983ZM163.173 59.2497H161.643L160.071 65.4287L158.509 59.2497H157.022L159.354 67.087H160.767L162.371 61.0243L164.017 67.087H165.43L167.783 59.2497H166.422L164.766 65.3864L163.173 59.2497ZM181.646 60.5067V59.1124L181.329 59.0808C181.294 59.0808 181.252 59.0808 181.203 59.0808C180.661 59.0808 180.186 59.2709 179.778 59.6512C179.364 60.0243 179.103 60.3412 178.998 60.6017V59.2497H177.7V67.087H179.061V62.5769C179.061 62.0206 179.247 61.5312 179.62 61.1088C179.986 60.6792 180.51 60.4644 181.192 60.4644L181.646 60.5067ZM184.22 56.3452H182.859V67.087H184.22V56.3452ZM192.839 56.3029H191.531V60.2638C191.229 59.8977 190.954 59.6407 190.708 59.4927C190.293 59.2393 189.776 59.1124 189.157 59.1124C188.046 59.1124 187.188 59.5316 186.583 60.3694C185.985 61.2073 185.687 62.1966 185.687 63.3374C185.687 64.5555 186.017 65.5309 186.678 66.2631C187.332 66.9955 188.109 67.3616 189.01 67.3616C189.565 67.3616 190.061 67.2559 190.497 67.0448C190.926 66.8265 191.299 66.4779 191.616 65.9992V67.087H192.839V56.3029ZM187.765 61.0243C188.187 60.5172 188.739 60.2638 189.421 60.2638C190.033 60.2638 190.547 60.5032 190.962 60.982C191.377 61.4537 191.584 62.1826 191.584 63.1685C191.584 64.1543 191.384 64.9077 190.983 65.4287C190.582 65.9568 190.065 66.221 189.432 66.221C188.623 66.221 188.039 65.9356 187.68 65.3654C187.308 64.802 187.121 64.1015 187.121 63.2634C187.121 62.2776 187.336 61.5312 187.765 61.0243Z" fill="white"/>
<path d="M34.5349 8.72686C34.5349 8.5649 34.4751 8.42759 34.3556 8.31492C34.2501 8.20228 34.1164 8.14594 33.9547 8.14594C33.7929 8.14594 33.6522 8.20228 33.5327 8.31492C33.4272 8.42759 33.3744 8.5649 33.3744 8.72686C33.3744 8.88881 33.4272 9.02612 33.5327 9.13879C33.6522 9.25145 33.7929 9.30778 33.9547 9.30778C34.1164 9.30778 34.2501 9.25145 34.3556 9.13879C34.4751 9.02612 34.5349 8.88881 34.5349 8.72686Z" fill="white"/>
<path d="M11.8741 53.2586C11.8741 53.0966 11.8143 52.9593 11.6948 52.8467C11.5892 52.734 11.4556 52.6777 11.2938 52.6777C11.1321 52.6777 10.9914 52.734 10.8718 52.8467C10.7663 52.9593 10.7136 53.0966 10.7136 53.2586C10.7136 53.4206 10.7663 53.5579 10.8718 53.6706C10.9914 53.7832 11.1321 53.8395 11.2938 53.8395C11.4556 53.8395 11.5892 53.7832 11.6948 53.6706C11.8143 53.5579 11.8741 53.4206 11.8741 53.2586Z" fill="white"/>
<defs>
<linearGradient id="paint0_linear_4_22" x1="5.91598" y1="50.6744" x2="49.4222" y2="15.0017" gradientUnits="userSpaceOnUse">
<stop stop-color="#0C6D7A"/>
<stop offset="0.00784314" stop-color="#0C6F7C"/>
<stop offset="0.239216" stop-color="#14BCD4"/>
<stop offset="0.482353" stop-color="#06DEFC"/>
<stop offset="0.545098" stop-color="#04E0FF"/>
<stop offset="0.831373" stop-color="#0FBBD4"/>
<stop offset="1" stop-color="#0D7684"/>
</linearGradient>
<linearGradient id="paint1_linear_4_22" x1="1.70385" y1="9.05319" x2="25.6187" y2="84.1494" gradientUnits="userSpaceOnUse">
<stop stop-color="#0C6D7A"/>
<stop offset="0.00784314" stop-color="#0C6F7C"/>
<stop offset="0.239216" stop-color="#14BCD4"/>
<stop offset="0.509804" stop-color="#04E0FF"/>
<stop offset="0.831373" stop-color="#0FBBD4"/>
<stop offset="1" stop-color="#0D7684"/>
</linearGradient>
<linearGradient id="paint2_linear_4_22" x1="47.2257" y1="-11.0353" x2="57.2741" y2="64.5367" gradientUnits="userSpaceOnUse">
<stop stop-color="#0C6D7A"/>
<stop offset="0.00784314" stop-color="#0C6F7C"/>
<stop offset="0.239216" stop-color="#14BCD4"/>
<stop offset="0.509804" stop-color="#04E0FF"/>
<stop offset="0.831373" stop-color="#0FBBD4"/>
<stop offset="1" stop-color="#0D7684"/>
</linearGradient>
</defs>
</svg>
