<svg width="34" height="34" viewBox="0 0 34 34" fill="none" xmlns="http://www.w3.org/2000/svg">
<path d="M29.1846 5.73041C29.9136 6.03008 30.5279 6.42654 31.0278 6.91988C30.1805 6.04279 29.0978 5.29338 27.7796 4.67163L19.0305 0.684494C16.5813 -0.317828 14.0438 -0.219356 11.4179 0.979912C7.72434 2.86816 4.54265 5.17139 1.87286 7.88961C0.0747927 9.71983 -0.428579 12.1081 0.362746 15.0546L2.34702 23.6754C2.70819 24.7951 3.04566 25.6972 3.35945 26.3818C2.7477 24.8465 3.15203 22.7573 4.57245 20.1139C4.90141 19.5963 5.2419 19.0905 5.59393 18.5964C6.98296 16.6436 9.06134 14.4891 11.829 12.133C13.2896 10.8893 14.7375 9.80881 16.1728 8.89164C17.7251 7.89899 19.4109 6.99998 21.23 6.1946C21.7379 5.96932 22.2514 5.7795 22.7705 5.62511C23.2053 5.4968 23.6441 5.39313 24.0869 5.31418C25.02 5.14901 25.9261 5.10356 26.8053 5.17781C27.671 5.25013 28.4641 5.43434 29.1846 5.73041Z" fill="url(#paint0_linear_678_1045)"/>
<path d="M30.213 29.2576C30.626 29.0793 30.9979 28.8744 31.3287 28.6428C29.7045 29.3362 27.323 28.8852 24.1843 27.2898L5.5986 18.5967C5.24657 19.0907 4.90608 19.5965 4.57712 20.1142C3.15671 22.7575 2.75238 24.8468 3.36413 26.382C3.45999 26.5912 3.56408 26.7936 3.67636 26.9892C3.67851 26.9927 3.68116 26.9971 3.68439 27.0024C4.1761 27.8502 4.86025 28.6114 5.73685 29.2857C6.89484 30.1733 8.3086 30.9694 9.97813 31.674C11.2428 32.2082 12.8917 32.7782 14.925 33.3838C16.1097 33.741 17.1362 33.9428 18.0045 33.9891C19.0091 34.0419 20.0026 33.9067 20.9852 33.5839L30.213 29.2576Z" fill="url(#paint1_linear_678_1045)"/>
<path d="M31.0269 6.91916C30.527 6.42586 29.9126 6.02936 29.1837 5.72969C28.4632 5.43362 27.6701 5.24945 26.8044 5.17713C25.9252 5.10288 25.019 5.1483 24.0859 5.31347C23.6432 5.39245 23.2043 5.49608 22.7695 5.62439C25.272 13.1496 25.7417 20.371 24.1787 27.2888C27.3174 28.8842 29.6989 29.3352 31.3231 28.6419C32.4839 27.824 33.2136 26.6796 33.5121 25.2087C33.966 22.9973 34.1028 20.3454 33.9222 17.253C33.7636 14.5198 33.4117 12.0862 32.8664 9.95222C32.7578 9.52821 32.5914 9.11471 32.367 8.71175C32.1918 8.39521 31.9504 8.03601 31.6426 7.63414C31.454 7.38672 31.2488 7.14839 31.0269 6.91916Z" fill="url(#paint2_linear_678_1045)"/>
<defs>
<linearGradient id="paint0_linear_678_1045" x1="3.01555" y1="22.7961" x2="24.1218" y2="4.43128" gradientUnits="userSpaceOnUse">
<stop stop-color="#0C6D7A"/>
<stop offset="0.00784314" stop-color="#0C6F7C"/>
<stop offset="0.239216" stop-color="#14BCD4"/>
<stop offset="0.482353" stop-color="#06DEFC"/>
<stop offset="0.545098" stop-color="#04E0FF"/>
<stop offset="0.831373" stop-color="#0FBBD4"/>
<stop offset="1" stop-color="#0D7684"/>
</linearGradient>
<linearGradient id="paint1_linear_678_1045" x1="0.873146" y1="2.80465" x2="11.8108" y2="39.2521" gradientUnits="userSpaceOnUse">
<stop stop-color="#0C6D7A"/>
<stop offset="0.00784314" stop-color="#0C6F7C"/>
<stop offset="0.239216" stop-color="#14BCD4"/>
<stop offset="0.509804" stop-color="#04E0FF"/>
<stop offset="0.831373" stop-color="#0FBBD4"/>
<stop offset="1" stop-color="#0D7684"/>
</linearGradient>
<linearGradient id="paint2_linear_678_1045" x1="24.0712" y1="-6.84593" x2="28.6284" y2="29.5249" gradientUnits="userSpaceOnUse">
<stop stop-color="#0C6D7A"/>
<stop offset="0.00784314" stop-color="#0C6F7C"/>
<stop offset="0.239216" stop-color="#14BCD4"/>
<stop offset="0.509804" stop-color="#04E0FF"/>
<stop offset="0.831373" stop-color="#0FBBD4"/>
<stop offset="1" stop-color="#0D7684"/>
</linearGradient>
</defs>
</svg>
