<svg width="707" height="271" viewBox="0 0 707 271" fill="none" xmlns="http://www.w3.org/2000/svg">
<path d="M209.738 55.466C214.976 57.7508 219.392 60.7739 222.984 64.535C216.895 57.8479 209.113 52.1342 199.64 47.3939L136.765 16.9955C119.162 9.35371 100.927 10.1044 82.0556 19.2478C55.5116 33.6441 32.6462 51.2043 13.4595 71.9282C0.537504 85.8821 -3.08002 104.091 2.60691 126.555L16.8671 192.281C19.4626 200.819 21.8879 207.696 24.143 212.915C19.7465 201.21 22.6524 185.281 32.8603 165.128C35.2243 161.182 37.6714 157.325 40.2012 153.558C50.1834 138.67 65.1198 122.244 85.0107 104.281C95.5065 94.798 105.912 86.5603 116.227 79.5678C127.383 71.9996 139.498 65.1455 152.571 59.0055C156.221 57.2879 159.911 55.8403 163.642 54.6633C166.767 53.6851 169.92 52.8948 173.102 52.2927C179.808 51.0337 186.32 50.6872 192.639 51.2534C198.86 51.8046 204.559 53.209 209.738 55.466Z" fill="url(#paint0_linear_2200_585)"/>
<path d="M217.095 234.835C220.063 233.476 222.735 231.913 225.113 230.148C213.44 235.434 196.325 231.995 173.769 219.832L40.2016 153.554C37.6714 157.321 35.2246 161.178 32.8606 165.125C22.6526 185.278 19.7468 201.207 24.1432 212.911C24.8322 214.506 25.5802 216.05 26.3871 217.541C26.4025 217.567 26.4217 217.601 26.4448 217.641C29.9784 224.105 34.8951 229.908 41.195 235.05C49.5171 241.816 59.677 247.886 71.6752 253.258C80.7636 257.331 92.6141 261.676 107.226 266.294C115.74 269.017 123.117 270.555 129.358 270.909C136.577 271.31 143.717 270.28 150.778 267.819L217.095 234.835Z" fill="url(#paint1_linear_2200_585)"/>
<path d="M222.985 64.534C219.393 60.773 214.978 57.7502 209.739 55.4654C204.561 53.208 198.861 51.8036 192.64 51.2524C186.322 50.6863 179.809 51.0327 173.104 52.2921C169.921 52.8942 166.768 53.6841 163.643 54.6626C181.627 112.035 185.003 167.093 173.77 219.835C196.326 231.998 213.441 235.436 225.114 230.151C233.456 223.915 238.7 215.191 240.845 203.977C244.108 187.116 245.09 166.898 243.792 143.321C242.652 122.482 240.124 103.929 236.205 87.6587C235.425 84.4258 234.228 81.273 232.616 78.2008C231.358 75.7875 229.622 73.0489 227.41 69.9851C226.055 68.0987 224.58 66.2816 222.985 64.534Z" fill="url(#paint2_linear_2200_585)"/>
<path d="M146.581 95.6878C143.799 96.7191 141.312 98.1638 139.123 100.02C136.855 101.954 134.871 104.301 133.17 107.06C131.471 109.793 129.937 112.939 128.572 116.498L127.992 98.318L127.219 96.1906L125.093 95.6102H120.687V182.177H128.997V126.207L133.248 115.84C134.768 112.823 136.546 110.322 138.581 108.337C140.694 106.299 143.025 104.778 145.576 103.772C148.178 102.74 151.142 102.225 154.465 102.225L163.316 103.424C164.088 103.424 164.617 102.972 164.9 102.07L165.595 96.2683L160.997 94.6046L155.741 94.1794C152.34 94.1794 149.286 94.6822 146.581 95.6878ZM240.3 104.12C237.234 100.871 233.614 98.3956 229.441 96.6935C225.241 95.0689 220.707 94.2567 215.836 94.2567C209.731 94.2567 204.242 95.3271 199.373 97.4673C194.555 99.6331 190.484 102.612 187.161 106.402C183.811 110.193 181.261 114.693 179.509 119.902C177.705 125.163 176.803 130.913 176.803 137.154C176.803 144.503 177.756 151.014 179.663 156.687C181.544 162.412 184.21 167.26 187.663 171.231C191.167 175.177 195.354 178.168 200.223 180.205C205.093 182.268 210.465 183.3 216.339 183.3L226.117 182.332L235.122 179.818L242.736 175.873C245.055 174.403 246.896 172.791 248.261 171.038L246.059 168.252L244.281 167.402L236.281 172.082L228.32 175.293C225.099 176.195 221.338 176.647 217.035 176.647C212.166 176.647 207.747 175.834 203.779 174.209C199.837 172.507 196.475 169.98 193.692 166.628C190.909 163.276 188.758 159.137 187.238 154.212C185.77 149.286 185.035 143.601 185.035 137.154V135.452H247.914L249.692 134.755L250.233 132.125C250.233 126.065 249.357 120.688 247.605 115.996C245.776 111.302 243.341 107.344 240.3 104.12ZM235.277 108.337C237.647 110.889 239.489 114.01 240.803 117.697C242.091 121.384 242.736 125.549 242.736 130.191H185.46C185.975 125.652 187.019 121.54 188.591 117.852C190.111 114.241 192.172 111.134 194.774 108.53C197.376 105.925 200.443 103.914 203.972 102.496C207.476 101.078 211.457 100.368 215.914 100.368C219.882 100.368 223.502 101.078 226.774 102.496C230.072 103.862 232.906 105.81 235.277 108.337ZM270.252 107.911L271.798 110.387L272.803 111.586L274.349 112.011C275.251 112.011 276.32 111.418 277.556 110.231L282.58 106.402L289.962 102.573C292.899 101.438 296.468 100.871 300.668 100.871C307.392 100.871 312.48 103.024 315.933 107.331C319.386 111.637 321.112 117.787 321.112 125.782V134.871C311.321 135.078 302.948 135.89 295.992 137.308C288.958 138.675 283.238 140.519 278.832 142.84C274.375 145.16 271.089 147.881 268.977 151.001C266.89 154.173 265.846 157.577 265.846 161.213C265.846 165.159 266.503 168.549 267.817 171.385C269.105 174.171 270.858 176.466 273.073 178.271C275.212 180.076 277.673 181.404 280.455 182.255C283.212 183.106 286.072 183.532 289.034 183.532C292.59 183.532 295.837 183.197 298.774 182.526C301.711 181.83 304.455 180.837 307.006 179.547L314.387 174.867L321.459 168.601L322.735 179.702C323.121 181.352 324.191 182.177 325.943 182.177H329.266V125.782C329.266 120.959 328.674 116.589 327.488 112.669C326.355 108.775 324.629 105.461 322.31 102.728C320.042 99.9689 317.157 97.8544 313.653 96.384C310.201 94.914 306.155 94.1794 301.518 94.1794C295.179 94.1794 289.511 95.3399 284.513 97.661C279.54 99.9817 274.787 103.399 270.252 107.911ZM276.629 152.626C278.484 150.227 281.344 148.152 285.208 146.398C289.048 144.645 293.943 143.265 299.894 142.259C305.82 141.28 312.893 140.622 321.112 140.287V162.992L315.006 168.755L308.204 173.436C305.833 174.725 303.231 175.744 300.397 176.492C297.563 177.214 294.484 177.575 291.161 177.575L284.59 176.569C282.504 175.95 280.674 174.958 279.102 173.59C277.505 172.224 276.229 170.496 275.277 168.408C274.323 166.268 273.847 163.753 273.847 160.865C273.847 157.796 274.774 155.05 276.629 152.626ZM365.904 55.5762H357.594V182.177H365.904V55.5762Z" fill="white"/>
<path d="M442.776 95.6102H434.541V182.177H442.776V95.6102ZM404.283 55.5762H395.971V182.177H404.283V55.5762ZM445.751 62.8093L444.051 60.2564L441.575 58.6707L438.637 58.0518L435.739 58.6707L433.266 60.2564L431.567 62.8093L430.988 65.7877L431.567 68.6889L433.266 71.0484L435.739 72.7502L438.637 73.3307L441.575 72.7502L444.051 71.0484L445.751 68.6889L446.329 65.7877L445.751 62.8093ZM533.635 96.1906L532.514 97.7383L503.838 166.047L501.633 173.59L499.508 166.047L470.987 97.7383L469.866 96.2683L467.931 95.6102H461.404L497.885 182.177H505.19L541.712 95.6102H535.411L533.635 96.1906ZM617.614 104.12C614.548 100.871 610.929 98.3956 606.753 96.6935C602.554 95.0689 598.019 94.2567 593.151 94.2567C587.044 94.2567 581.557 95.3271 576.689 97.4673C571.868 99.6331 567.798 102.612 564.475 106.402C561.124 110.193 558.574 114.693 556.823 119.902C555.017 125.163 554.116 130.913 554.116 137.154C554.116 144.503 555.072 151.014 556.977 156.687C558.856 162.412 561.523 167.26 564.977 171.231C568.479 175.177 572.666 178.168 577.538 180.205C582.407 182.268 587.777 183.3 593.653 183.3L603.43 182.332L612.434 179.818L620.05 175.873C622.369 174.403 624.211 172.791 625.574 171.038L623.373 168.252L621.596 167.402L613.595 172.082L605.635 175.293C602.412 176.195 598.653 176.647 594.349 176.647C589.48 176.647 585.059 175.834 581.092 174.209C577.15 172.507 573.787 169.98 571.007 166.628C568.223 163.276 566.073 159.137 564.552 154.212C563.083 149.286 562.347 143.601 562.347 137.154V135.452H625.226L627.006 134.755L627.545 132.125C627.545 126.065 626.669 120.688 624.918 115.996C623.09 111.302 620.654 107.344 617.614 104.12ZM612.592 108.337C614.962 110.889 616.804 114.01 618.116 117.697C619.405 121.384 620.05 125.549 620.05 130.191H562.772C563.289 125.652 564.333 121.54 565.904 117.852C567.424 114.241 569.487 111.134 572.088 108.53C574.688 105.925 577.755 103.914 581.286 102.496C584.792 101.078 588.77 100.368 593.228 100.368C597.195 100.368 600.814 101.078 604.089 102.496C607.386 103.862 610.222 105.81 612.592 108.337ZM659.005 105.474C660.811 103.927 663.012 102.702 665.613 101.8C668.166 100.897 671.024 100.445 674.192 100.445C677.647 100.445 680.585 100.82 683.006 101.568L689.149 104.005L693.131 106.479L695.567 107.485C696.417 107.485 697.073 107.098 697.538 106.325L699.315 103.424C695.915 100.304 692.179 97.9829 688.105 96.4616C684.035 94.9917 679.372 94.2567 674.115 94.2567C669.683 94.2567 665.69 94.8756 662.137 96.113C658.631 97.4281 655.631 99.1566 653.132 101.297C650.707 103.463 648.814 105.951 647.451 108.762C646.161 111.598 645.517 114.551 645.517 117.62C645.517 121.23 646.187 124.234 647.528 126.632C648.945 129.056 650.788 131.093 653.052 132.744C655.323 134.446 657.873 135.864 660.704 136.999L678.368 142.762L686.057 146.166C688.325 147.507 690.142 149.118 691.508 151.001C692.926 152.935 693.633 155.346 693.633 158.235C693.633 160.839 693.157 163.327 692.204 165.7C691.223 168.021 689.809 170.058 687.951 171.812C686.123 173.565 683.83 174.958 681.072 175.989C678.24 176.994 675.006 177.497 671.372 177.497C667.481 177.497 664.236 177.02 661.635 176.066L654.909 173.088L650.696 170.11C649.616 169.155 648.674 168.678 647.876 168.678L646.367 169.026L645.403 170.11L643.469 173.01C646.975 176.182 650.902 178.722 655.257 180.631C659.664 182.564 664.932 183.532 671.064 183.532C675.932 183.532 680.237 182.848 683.973 181.481C687.761 180.089 690.93 178.194 693.479 175.795C696.08 173.423 698.051 170.625 699.392 167.402C700.707 164.179 701.362 160.659 701.362 156.842C701.362 153.412 700.681 150.473 699.315 148.022C697.897 145.598 696.08 143.536 693.864 141.834C691.622 140.132 689.061 138.713 686.175 137.579L668.514 131.7L660.785 128.412C658.569 127.148 656.752 125.614 655.334 123.808C653.993 122.003 653.323 119.735 653.323 117.001C653.323 114.809 653.799 112.72 654.755 110.734C655.785 108.697 657.202 106.944 659.005 105.474Z" fill="#10DCF6"/>
<path d="M313.285 216.979C309.034 216.979 305.658 218.411 303.16 221.273C300.634 224.11 299.372 227.939 299.372 232.761C299.372 237.248 300.57 240.833 302.967 243.515C305.336 246.171 308.557 247.499 312.628 247.499C317.498 247.499 321.079 245.99 323.372 242.973C325.691 239.956 326.851 236.153 326.851 231.562C326.851 226.766 325.536 223.13 322.909 220.655C320.281 218.204 317.073 216.979 313.285 216.979ZM306.56 224.562C307.926 222.317 310.116 221.196 313.131 221.196C316.531 221.196 318.927 222.511 320.319 225.141C321.195 226.818 321.633 228.997 321.633 231.678C321.633 234.618 321.027 237.3 319.816 239.724C318.58 242.148 316.338 243.36 313.092 243.36C310.103 243.36 307.926 242.341 306.56 240.304C305.195 238.268 304.512 235.727 304.512 232.684C304.512 229.512 305.195 226.805 306.56 224.562ZM291.604 217.792L283.604 241.155L275.642 217.792H270L280.976 247.344L278.735 252.45L277.614 253.571C277.175 253.855 276.506 253.997 275.604 253.997L274.561 253.92L272.667 253.494V257.865L274.058 258.175L275.682 258.252C278.567 258.252 280.603 257.453 281.787 255.854C282.973 254.229 285.008 249.755 287.894 242.432L297.131 217.792H291.604ZM356.338 217.792H351.352V231.91C351.352 234.695 351.031 236.9 350.387 238.525C349.15 241.516 346.844 243.012 343.469 243.012C341.098 243.012 339.487 242.148 338.638 240.42C338.173 239.492 337.942 238.306 337.942 236.862V217.792H332.84V237.287C332.84 239.737 333.24 241.697 334.038 243.166C335.559 245.9 338.393 247.267 342.541 247.267C345.22 247.267 347.488 246.519 349.343 245.024C350.297 244.275 351.082 243.36 351.701 242.277L351.661 246.493H356.338V217.792ZM449.013 218.604C447.057 217.65 445.035 217.173 442.946 217.173C438.77 217.173 435.411 218.604 432.858 221.467C430.283 224.355 428.993 228.094 428.993 232.684C428.993 237.378 430.272 241.026 432.821 243.631C435.371 246.209 438.477 247.499 442.133 247.499C443.653 247.499 445.009 247.357 446.192 247.073C448.408 246.583 450.266 245.616 451.757 244.172C452.661 243.373 453.486 242.329 454.233 241.039C454.955 239.724 455.379 238.537 455.508 237.481H450.599C450.266 238.744 449.658 239.879 448.782 240.884C447.236 242.535 445.174 243.36 442.598 243.36C439.814 243.36 437.767 242.47 436.452 240.691C435.14 238.937 434.43 236.604 434.327 233.69H455.933C455.933 230.801 455.779 228.687 455.467 227.346C455.134 225.438 454.475 223.762 453.497 222.317C452.467 220.796 450.973 219.559 449.013 218.604ZM442.639 221.351C445.782 221.351 448.035 222.511 449.401 224.832C450.123 226.096 450.584 227.771 450.793 229.86H434.444C434.547 227.385 435.36 225.36 436.88 223.788C438.426 222.163 440.346 221.351 442.639 221.351ZM398.772 225.877C398.772 226.702 398.669 227.321 398.464 227.733C398.076 228.532 397.303 228.997 396.145 229.126L388.185 230.092C385.401 230.428 383.145 231.331 381.419 232.8C379.719 234.27 378.87 236.32 378.87 238.95C378.87 241.401 379.745 243.437 381.496 245.062C383.225 246.661 385.463 247.46 388.222 247.46C390.515 247.46 392.614 246.983 394.522 246.029C396.427 245.1 397.885 243.992 398.889 242.703C399.069 243.837 399.354 244.713 399.739 245.333C400.537 246.519 401.787 247.112 403.486 247.112L405.149 247.035L406.926 246.609V243.051L406.04 243.206L405.303 243.244C404.607 243.244 404.157 243.089 403.952 242.78C403.746 242.47 403.644 242.07 403.644 241.58V225.025C403.644 222.317 402.56 220.319 400.395 219.03C398.208 217.741 395.372 217.095 391.892 217.095C388.903 217.095 386.266 217.792 383.972 219.184C381.705 220.577 380.518 223.04 380.415 226.572H385.053C385.258 225.103 385.658 223.981 386.251 223.207C387.357 221.867 389.214 221.196 391.815 221.196C394.032 221.196 395.757 221.57 396.995 222.317C398.178 223.04 398.772 224.226 398.772 225.877ZM396.299 232.839C397.252 232.607 398.039 232.297 398.658 231.91V235.779C398.658 238.744 397.266 240.871 394.482 242.161C392.834 242.96 391.134 243.36 389.383 243.36C387.94 243.36 386.691 242.96 385.632 242.161C384.603 241.361 384.086 240.265 384.086 238.873C384.086 237.042 384.859 235.701 386.405 234.85C387.306 234.36 388.661 233.999 390.464 233.767L396.299 232.839ZM419.528 219.262C418.007 220.628 417.051 221.789 416.667 222.743V217.792H411.912V246.493H416.897V229.976C416.897 227.939 417.582 226.147 418.945 224.6C420.286 223.027 422.205 222.24 424.704 222.24L426.367 222.395V217.289L425.209 217.173C425.077 217.173 424.923 217.173 424.744 217.173C422.759 217.173 421.022 217.869 419.528 219.262ZM478.927 209.785V217.792H474.908V221.737H478.927V240.73C478.927 242.56 479.351 244.056 480.201 245.216C481.026 246.377 482.597 246.957 484.916 246.957L486.967 246.841L488.744 246.493V242.664L486.967 242.78C486.062 242.78 485.421 242.676 485.033 242.47C484.337 242.135 483.989 241.465 483.989 240.459V221.737H488.744V217.792H483.989V209.785H478.927ZM498.715 207H493.73V246.493H498.715V231.291C498.715 227.449 499.55 224.845 501.228 223.478C502.902 222.111 504.771 221.428 506.829 221.428C509.328 221.428 511.031 222.214 511.932 223.788C512.5 224.768 512.782 226.315 512.782 228.43V246.493H517.921V228.081C517.921 225.271 517.497 223.066 516.647 221.467C515.126 218.553 512.214 217.095 507.914 217.095C505.518 217.095 503.507 217.612 501.884 218.643C500.957 219.236 499.898 220.255 498.715 221.699V207ZM543.582 218.604C541.626 217.65 539.604 217.173 537.516 217.173C533.344 217.173 529.981 218.604 527.427 221.467C524.852 224.355 523.566 228.094 523.566 232.684C523.566 237.378 524.841 241.026 527.391 243.631C529.94 246.209 533.047 247.499 536.703 247.499C538.223 247.499 539.578 247.357 540.762 247.073C542.978 246.583 544.835 245.616 546.33 244.172C547.231 243.373 548.055 242.329 548.802 241.039C549.524 239.724 549.949 238.537 550.077 237.481H545.168C544.835 238.744 544.227 239.879 543.351 240.884C541.806 242.535 539.743 243.36 537.168 243.36C534.384 243.36 532.336 242.47 531.025 240.691C529.71 238.937 529.003 236.604 528.896 233.69H550.502C550.502 230.801 550.348 228.687 550.037 227.346C549.703 225.438 549.048 223.762 548.066 222.317C547.037 220.796 545.542 219.559 543.582 218.604ZM537.208 221.351C540.351 221.351 542.604 222.511 543.971 224.832C544.692 226.096 545.154 227.771 545.363 229.86H529.014C529.116 227.385 529.929 225.36 531.45 223.788C532.996 222.163 534.915 221.351 537.208 221.351ZM625.36 216.979C621.111 216.979 617.737 218.411 615.235 221.273C612.711 224.11 611.447 227.939 611.447 232.761C611.447 237.248 612.645 240.833 615.044 243.515C617.414 246.171 620.634 247.499 624.704 247.499C629.573 247.499 633.155 245.99 635.448 242.973C637.767 239.956 638.925 236.153 638.925 231.562C638.925 226.766 637.613 223.13 634.983 220.655C632.357 218.204 629.148 216.979 625.36 216.979ZM618.638 224.562C620.001 222.317 622.191 221.196 625.206 221.196C628.609 221.196 631.005 222.511 632.393 225.141C633.272 226.818 633.708 228.997 633.708 231.678C633.708 234.618 633.104 237.3 631.891 239.724C630.657 242.148 628.415 243.36 625.169 243.36C622.18 243.36 620.001 242.341 618.638 240.304C617.271 238.268 616.586 235.727 616.586 232.684C616.586 229.512 617.271 226.805 618.638 224.562ZM591.933 217.792H586.328L580.57 240.42L574.848 217.792H569.401L577.943 246.493H583.119L588.995 224.291L595.025 246.493H600.201L608.82 217.792H603.835L597.769 240.265L591.933 217.792ZM659.604 222.395V217.289L658.442 217.173C658.314 217.173 658.16 217.173 657.981 217.173C655.995 217.173 654.255 217.869 652.761 219.262C651.244 220.628 650.288 221.789 649.903 222.743V217.792H645.148V246.493H650.134V229.976C650.134 227.939 650.815 226.147 652.182 224.6C653.523 223.027 655.442 222.24 657.94 222.24L659.604 222.395ZM669.033 207.155H664.047V246.493H669.033V207.155ZM700.606 207H695.814V221.505C694.708 220.165 693.701 219.224 692.8 218.682C691.279 217.754 689.385 217.289 687.118 217.289C683.048 217.289 679.905 218.824 677.689 221.892C675.498 224.961 674.407 228.584 674.407 232.761C674.407 237.222 675.615 240.794 678.037 243.476C680.433 246.158 683.279 247.499 686.579 247.499C688.612 247.499 690.429 247.112 692.027 246.339C693.598 245.539 694.965 244.263 696.126 242.509V246.493H700.606V207ZM682.019 224.291C683.565 222.433 685.587 221.505 688.085 221.505C690.327 221.505 692.21 222.382 693.73 224.136C695.25 225.863 696.009 228.532 696.009 232.143C696.009 235.753 695.276 238.512 693.807 240.42C692.338 242.354 690.444 243.322 688.125 243.322C685.162 243.322 683.022 242.277 681.707 240.188C680.345 238.125 679.66 235.56 679.66 232.49C679.66 228.88 680.447 226.147 682.019 224.291Z" fill="white"/>
<defs>
<linearGradient id="paint0_linear_2200_585" x1="21.6715" y1="185.578" x2="181.007" y2="54.8938" gradientUnits="userSpaceOnUse">
<stop stop-color="#0C6D7A"/>
<stop offset="0.00784314" stop-color="#0C6F7C"/>
<stop offset="0.239216" stop-color="#14BCD4"/>
<stop offset="0.482353" stop-color="#06DEFC"/>
<stop offset="0.545098" stop-color="#04E0FF"/>
<stop offset="0.831373" stop-color="#0FBBD4"/>
<stop offset="1" stop-color="#0D7684"/>
</linearGradient>
<linearGradient id="paint1_linear_2200_585" x1="6.24156" y1="33.1542" x2="93.8011" y2="308.183" gradientUnits="userSpaceOnUse">
<stop stop-color="#0C6D7A"/>
<stop offset="0.00784314" stop-color="#0C6F7C"/>
<stop offset="0.239216" stop-color="#14BCD4"/>
<stop offset="0.509804" stop-color="#04E0FF"/>
<stop offset="0.831373" stop-color="#0FBBD4"/>
<stop offset="1" stop-color="#0D7684"/>
</linearGradient>
<linearGradient id="paint2_linear_2200_585" x1="172.998" y1="-40.4129" x2="209.786" y2="236.347" gradientUnits="userSpaceOnUse">
<stop stop-color="#0C6D7A"/>
<stop offset="0.00784314" stop-color="#0C6F7C"/>
<stop offset="0.239216" stop-color="#14BCD4"/>
<stop offset="0.509804" stop-color="#04E0FF"/>
<stop offset="0.831373" stop-color="#0FBBD4"/>
<stop offset="1" stop-color="#0D7684"/>
</linearGradient>
</defs>
</svg>
