<svg width="707" height="392" viewBox="0 0 707 392" fill="none" xmlns="http://www.w3.org/2000/svg">
<path d="M209.738 55.466C214.976 57.7508 219.392 60.7739 222.984 64.535C216.895 57.8479 209.113 52.1342 199.64 47.3939L136.765 16.9955C119.162 9.35371 100.927 10.1044 82.0556 19.2478C55.5116 33.6441 32.6462 51.2043 13.4595 71.9282C0.537504 85.8821 -3.08002 104.091 2.60691 126.555L16.8671 192.281C19.4626 200.819 21.8879 207.696 24.143 212.915C19.7465 201.21 22.6524 185.281 32.8603 165.128C35.2243 161.182 37.6714 157.325 40.2012 153.558C50.1834 138.67 65.1198 122.244 85.0107 104.281C95.5065 94.798 105.912 86.5603 116.227 79.5678C127.383 71.9996 139.498 65.1455 152.571 59.0055C156.221 57.2879 159.911 55.8403 163.642 54.6633C166.767 53.6851 169.92 52.8948 173.102 52.2927C179.808 51.0337 186.32 50.6872 192.639 51.2534C198.86 51.8046 204.559 53.209 209.738 55.466Z" fill="url(#paint0_linear_2200_586)"/>
<path d="M217.095 234.835C220.063 233.476 222.735 231.913 225.113 230.148C213.44 235.434 196.325 231.995 173.769 219.832L40.2016 153.554C37.6714 157.321 35.2246 161.178 32.8606 165.125C22.6526 185.278 19.7468 201.207 24.1432 212.911C24.8322 214.506 25.5802 216.05 26.3871 217.541C26.4025 217.567 26.4217 217.601 26.4448 217.641C29.9784 224.105 34.8951 229.908 41.195 235.05C49.5171 241.816 59.677 247.886 71.6752 253.258C80.7636 257.331 92.6141 261.676 107.226 266.294C115.74 269.017 123.117 270.555 129.358 270.909C136.577 271.31 143.717 270.28 150.778 267.819L217.095 234.835Z" fill="url(#paint1_linear_2200_586)"/>
<path d="M222.985 64.534C219.393 60.773 214.978 57.7502 209.739 55.4654C204.561 53.208 198.861 51.8036 192.64 51.2524C186.322 50.6863 179.809 51.0327 173.104 52.2921C169.921 52.8942 166.768 53.6841 163.643 54.6626C181.627 112.035 185.003 167.093 173.77 219.835C196.326 231.998 213.441 235.436 225.114 230.151C233.456 223.915 238.7 215.191 240.845 203.977C244.108 187.116 245.09 166.898 243.792 143.321C242.652 122.482 240.124 103.929 236.205 87.6587C235.425 84.4258 234.228 81.273 232.616 78.2008C231.358 75.7875 229.622 73.0489 227.41 69.9851C226.055 68.0987 224.58 66.2816 222.985 64.534Z" fill="url(#paint2_linear_2200_586)"/>
<path d="M146.581 95.6878C143.799 96.7191 141.312 98.1638 139.123 100.02C136.855 101.954 134.871 104.301 133.17 107.06C131.471 109.793 129.937 112.939 128.572 116.498L127.992 98.318L127.219 96.1906L125.093 95.6102H120.687V182.177H128.997V126.207L133.248 115.84C134.768 112.823 136.546 110.322 138.581 108.337C140.694 106.299 143.025 104.778 145.576 103.772C148.178 102.74 151.142 102.225 154.465 102.225L163.316 103.424C164.088 103.424 164.617 102.972 164.9 102.07L165.595 96.2683L160.997 94.6046L155.741 94.1794C152.34 94.1794 149.286 94.6822 146.581 95.6878ZM240.3 104.12C237.234 100.871 233.614 98.3956 229.441 96.6935C225.241 95.0689 220.707 94.2567 215.836 94.2567C209.731 94.2567 204.242 95.3271 199.373 97.4673C194.555 99.6331 190.484 102.612 187.161 106.402C183.811 110.193 181.261 114.693 179.509 119.902C177.705 125.163 176.803 130.913 176.803 137.154C176.803 144.503 177.756 151.014 179.663 156.687C181.544 162.412 184.21 167.26 187.663 171.231C191.167 175.177 195.354 178.168 200.223 180.205C205.093 182.268 210.465 183.3 216.339 183.3L226.117 182.332L235.122 179.818L242.736 175.873C245.055 174.403 246.896 172.791 248.261 171.038L246.059 168.252L244.281 167.402L236.281 172.082L228.32 175.293C225.099 176.195 221.338 176.647 217.035 176.647C212.166 176.647 207.747 175.834 203.779 174.209C199.837 172.507 196.475 169.98 193.692 166.628C190.909 163.276 188.758 159.137 187.238 154.212C185.77 149.286 185.035 143.601 185.035 137.154V135.452H247.914L249.692 134.755L250.233 132.125C250.233 126.065 249.357 120.688 247.605 115.996C245.776 111.302 243.341 107.344 240.3 104.12ZM235.277 108.337C237.647 110.889 239.489 114.01 240.803 117.697C242.091 121.384 242.736 125.549 242.736 130.191H185.46C185.975 125.652 187.019 121.54 188.591 117.852C190.111 114.241 192.172 111.134 194.774 108.53C197.376 105.925 200.443 103.914 203.972 102.496C207.476 101.078 211.457 100.368 215.914 100.368C219.882 100.368 223.502 101.078 226.774 102.496C230.072 103.862 232.906 105.81 235.277 108.337ZM270.252 107.911L271.798 110.387L272.803 111.586L274.349 112.011C275.251 112.011 276.32 111.418 277.556 110.231L282.58 106.402L289.962 102.573C292.899 101.438 296.468 100.871 300.668 100.871C307.392 100.871 312.48 103.024 315.933 107.331C319.386 111.637 321.112 117.787 321.112 125.782V134.871C311.321 135.078 302.948 135.89 295.992 137.308C288.958 138.675 283.238 140.519 278.832 142.84C274.375 145.16 271.089 147.881 268.977 151.001C266.89 154.173 265.846 157.577 265.846 161.213C265.846 165.159 266.503 168.549 267.817 171.385C269.105 174.171 270.858 176.466 273.073 178.271C275.212 180.076 277.673 181.404 280.455 182.255C283.212 183.106 286.072 183.532 289.034 183.532C292.59 183.532 295.837 183.197 298.774 182.526C301.711 181.83 304.455 180.837 307.006 179.547L314.387 174.867L321.459 168.601L322.735 179.702C323.121 181.352 324.191 182.177 325.943 182.177H329.266V125.782C329.266 120.959 328.674 116.589 327.488 112.669C326.355 108.775 324.629 105.461 322.31 102.728C320.042 99.9689 317.157 97.8544 313.653 96.384C310.201 94.914 306.155 94.1794 301.518 94.1794C295.179 94.1794 289.511 95.3399 284.513 97.661C279.54 99.9817 274.787 103.399 270.252 107.911ZM276.629 152.626C278.484 150.227 281.344 148.152 285.208 146.398C289.048 144.645 293.943 143.265 299.894 142.259C305.82 141.28 312.893 140.622 321.112 140.287V162.992L315.006 168.755L308.204 173.436C305.833 174.725 303.231 175.744 300.397 176.492C297.563 177.214 294.484 177.575 291.161 177.575L284.59 176.569C282.504 175.95 280.674 174.958 279.102 173.59C277.505 172.224 276.229 170.496 275.277 168.408C274.323 166.268 273.847 163.753 273.847 160.865C273.847 157.796 274.774 155.05 276.629 152.626ZM365.904 55.5762H357.594V182.177H365.904V55.5762Z" fill="white"/>
<path d="M442.776 95.6102H434.541V182.177H442.776V95.6102ZM404.283 55.5762H395.971V182.177H404.283V55.5762ZM445.751 62.8093L444.051 60.2564L441.575 58.6707L438.637 58.0518L435.739 58.6707L433.266 60.2564L431.567 62.8093L430.988 65.7877L431.567 68.6889L433.266 71.0484L435.739 72.7502L438.637 73.3307L441.575 72.7502L444.051 71.0484L445.751 68.6889L446.329 65.7877L445.751 62.8093ZM533.635 96.1906L532.514 97.7383L503.838 166.047L501.633 173.59L499.508 166.047L470.987 97.7383L469.866 96.2683L467.931 95.6102H461.404L497.885 182.177H505.19L541.712 95.6102H535.411L533.635 96.1906ZM617.614 104.12C614.548 100.871 610.929 98.3956 606.753 96.6935C602.554 95.0689 598.019 94.2567 593.151 94.2567C587.044 94.2567 581.557 95.3271 576.689 97.4673C571.868 99.6331 567.798 102.612 564.475 106.402C561.124 110.193 558.574 114.693 556.823 119.902C555.017 125.163 554.116 130.913 554.116 137.154C554.116 144.503 555.072 151.014 556.977 156.687C558.856 162.412 561.523 167.26 564.977 171.231C568.479 175.177 572.666 178.168 577.538 180.205C582.407 182.268 587.777 183.3 593.653 183.3L603.43 182.332L612.434 179.818L620.05 175.873C622.369 174.403 624.211 172.791 625.574 171.038L623.373 168.252L621.596 167.402L613.595 172.082L605.635 175.293C602.412 176.195 598.653 176.647 594.349 176.647C589.48 176.647 585.059 175.834 581.092 174.209C577.15 172.507 573.787 169.98 571.007 166.628C568.223 163.276 566.073 159.137 564.552 154.212C563.083 149.286 562.347 143.601 562.347 137.154V135.452H625.226L627.006 134.755L627.545 132.125C627.545 126.065 626.669 120.688 624.918 115.996C623.09 111.302 620.654 107.344 617.614 104.12ZM612.592 108.337C614.962 110.889 616.804 114.01 618.116 117.697C619.405 121.384 620.05 125.549 620.05 130.191H562.772C563.289 125.652 564.333 121.54 565.904 117.852C567.424 114.241 569.487 111.134 572.088 108.53C574.688 105.925 577.755 103.914 581.286 102.496C584.792 101.078 588.77 100.368 593.228 100.368C597.195 100.368 600.814 101.078 604.089 102.496C607.386 103.862 610.222 105.81 612.592 108.337ZM659.005 105.474C660.811 103.927 663.012 102.702 665.613 101.8C668.166 100.897 671.024 100.445 674.192 100.445C677.647 100.445 680.585 100.82 683.006 101.568L689.149 104.005L693.131 106.479L695.567 107.485C696.417 107.485 697.073 107.098 697.538 106.325L699.315 103.424C695.915 100.304 692.179 97.9829 688.105 96.4616C684.035 94.9917 679.372 94.2567 674.115 94.2567C669.683 94.2567 665.69 94.8756 662.137 96.113C658.631 97.4281 655.631 99.1566 653.132 101.297C650.707 103.463 648.814 105.951 647.451 108.762C646.161 111.598 645.517 114.551 645.517 117.62C645.517 121.23 646.187 124.234 647.528 126.632C648.945 129.056 650.788 131.093 653.052 132.744C655.323 134.446 657.873 135.864 660.704 136.999L678.368 142.762L686.057 146.166C688.325 147.507 690.142 149.118 691.508 151.001C692.926 152.935 693.633 155.346 693.633 158.235C693.633 160.839 693.157 163.327 692.204 165.7C691.223 168.021 689.809 170.058 687.951 171.812C686.123 173.565 683.83 174.958 681.072 175.989C678.24 176.994 675.006 177.497 671.372 177.497C667.481 177.497 664.236 177.02 661.635 176.066L654.909 173.088L650.696 170.11C649.616 169.155 648.674 168.678 647.876 168.678L646.367 169.026L645.403 170.11L643.469 173.01C646.975 176.182 650.902 178.722 655.257 180.631C659.664 182.564 664.932 183.532 671.064 183.532C675.932 183.532 680.237 182.848 683.973 181.481C687.761 180.089 690.93 178.194 693.479 175.795C696.08 173.423 698.051 170.625 699.392 167.402C700.707 164.179 701.362 160.659 701.362 156.842C701.362 153.412 700.681 150.473 699.315 148.022C697.897 145.598 696.08 143.536 693.864 141.834C691.622 140.132 689.061 138.713 686.175 137.579L668.514 131.7L660.785 128.412C658.569 127.148 656.752 125.614 655.334 123.808C653.993 122.003 653.323 119.735 653.323 117.001C653.323 114.809 653.799 112.72 654.755 110.734C655.785 108.697 657.202 106.944 659.005 105.474Z" fill="#10DCF6"/>
<path d="M319.089 216.17C314.838 216.17 311.463 217.601 308.964 220.464C306.439 223.3 305.176 227.129 305.176 231.952C305.176 236.438 306.375 240.023 308.771 242.705C311.141 245.361 314.362 246.689 318.433 246.689C323.302 246.689 326.884 245.181 329.176 242.163C331.495 239.146 332.655 235.343 332.655 230.753C332.655 225.956 331.341 222.32 328.713 219.845C326.085 217.395 322.877 216.17 319.089 216.17ZM312.365 223.752C313.73 221.508 315.921 220.386 318.935 220.386C322.336 220.386 324.732 221.701 326.123 224.332C327 226.008 327.437 228.187 327.437 230.869C327.437 233.808 326.832 236.49 325.621 238.914C324.384 241.338 322.142 242.55 318.896 242.55C315.908 242.55 313.73 241.532 312.365 239.495C310.999 237.458 310.317 234.917 310.317 231.875C310.317 228.703 310.999 225.995 312.365 223.752ZM297.409 216.982L289.408 240.345L281.447 216.982H275.804L286.78 246.535L284.539 251.64L283.418 252.762C282.98 253.045 282.31 253.188 281.409 253.188L280.365 253.11L278.472 252.685V257.056L279.863 257.365L281.486 257.442C284.371 257.442 286.407 256.643 287.592 255.044C288.777 253.42 290.813 248.946 293.698 241.622L302.935 216.982H297.409ZM362.143 216.982H357.157V231.1C357.157 233.886 356.835 236.091 356.191 237.715C354.954 240.707 352.648 242.203 349.273 242.203C346.902 242.203 345.292 241.338 344.442 239.61C343.978 238.682 343.746 237.496 343.746 236.052V216.982H338.645V236.477C338.645 238.927 339.044 240.887 339.843 242.357C341.363 245.09 344.197 246.457 348.346 246.457C351.025 246.457 353.292 245.709 355.147 244.214C356.101 243.466 356.887 242.55 357.505 241.467L357.466 245.683H362.143V216.982ZM454.817 217.794C452.861 216.841 450.839 216.363 448.751 216.363C444.575 216.363 441.216 217.794 438.662 220.657C436.087 223.545 434.798 227.285 434.798 231.875C434.798 236.568 436.076 240.217 438.626 242.821C441.175 245.4 444.282 246.689 447.938 246.689C449.458 246.689 450.813 246.547 451.996 246.264C454.213 245.774 456.07 244.806 457.561 243.362C458.466 242.563 459.29 241.519 460.037 240.229C460.759 238.914 461.184 237.728 461.312 236.671H456.403C456.07 237.934 455.462 239.07 454.586 240.074C453.04 241.725 450.978 242.55 448.403 242.55C445.619 242.55 443.571 241.661 442.256 239.881C440.945 238.128 440.234 235.794 440.131 232.88H461.737C461.737 229.992 461.583 227.877 461.272 226.537C460.938 224.628 460.279 222.952 459.301 221.508C458.272 219.986 456.777 218.749 454.817 217.794ZM448.443 220.541C451.586 220.541 453.839 221.701 455.205 224.022C455.927 225.286 456.389 226.962 456.597 229.051H440.249C440.351 226.575 441.164 224.551 442.685 222.978C444.23 221.354 446.15 220.541 448.443 220.541ZM404.576 225.067C404.576 225.892 404.474 226.511 404.268 226.923C403.88 227.723 403.107 228.187 401.95 228.316L393.989 229.282C391.205 229.618 388.949 230.521 387.224 231.99C385.524 233.461 384.674 235.51 384.674 238.14C384.674 240.591 385.549 242.628 387.3 244.252C389.029 245.851 391.268 246.651 394.026 246.651C396.319 246.651 398.418 246.173 400.327 245.219C402.232 244.291 403.69 243.182 404.693 241.893C404.873 243.028 405.159 243.904 405.543 244.523C406.342 245.709 407.591 246.302 409.291 246.302L410.954 246.225L412.73 245.799V242.241L411.844 242.396L411.108 242.434C410.412 242.434 409.961 242.279 409.756 241.97C409.551 241.661 409.448 241.261 409.448 240.771V224.215C409.448 221.508 408.364 219.509 406.199 218.221C404.012 216.931 401.177 216.286 397.697 216.286C394.707 216.286 392.07 216.982 389.777 218.375C387.509 219.767 386.322 222.23 386.22 225.762H390.857C391.063 224.293 391.462 223.171 392.055 222.398C393.162 221.057 395.019 220.386 397.62 220.386C399.836 220.386 401.561 220.76 402.8 221.508C403.983 222.23 404.576 223.416 404.576 225.067ZM402.103 232.029C403.056 231.797 403.844 231.487 404.463 231.1V234.969C404.463 237.934 403.071 240.062 400.287 241.351C398.638 242.151 396.938 242.55 395.187 242.55C393.744 242.55 392.495 242.151 391.436 241.351C390.407 240.552 389.89 239.456 389.89 238.064C389.89 236.232 390.663 234.891 392.209 234.041C393.11 233.551 394.466 233.19 396.268 232.957L402.103 232.029ZM425.332 218.452C423.812 219.819 422.856 220.979 422.471 221.933V216.982H417.716V245.683H422.702V229.167C422.702 227.129 423.387 225.337 424.749 223.79C426.09 222.217 428.01 221.43 430.508 221.43L432.171 221.585V216.479L431.014 216.363C430.882 216.363 430.728 216.363 430.548 216.363C428.563 216.363 426.827 217.06 425.332 218.452ZM484.731 208.976V216.982H480.712V220.928H484.731V239.92C484.731 241.751 485.156 243.247 486.006 244.406C486.83 245.567 488.401 246.148 490.72 246.148L492.772 246.032L494.548 245.683V241.854L492.772 241.97C491.867 241.97 491.226 241.867 490.837 241.661C490.141 241.325 489.793 240.655 489.793 239.649V220.928H494.548V216.982H489.793V208.976H484.731ZM504.52 206.19H499.534V245.683H504.52V230.482C504.52 226.639 505.355 224.035 507.033 222.669C508.707 221.302 510.575 220.618 512.634 220.618C515.132 220.618 516.835 221.405 517.736 222.978C518.304 223.958 518.586 225.505 518.586 227.62V245.683H523.726V227.271C523.726 224.461 523.301 222.256 522.451 220.657C520.931 217.743 518.019 216.286 513.718 216.286C511.322 216.286 509.311 216.802 507.688 217.833C506.761 218.427 505.703 219.445 504.52 220.889V206.19ZM549.387 217.794C547.43 216.841 545.408 216.363 543.32 216.363C539.148 216.363 535.785 217.794 533.232 220.657C530.657 223.545 529.371 227.285 529.371 231.875C529.371 236.568 530.646 240.217 533.195 242.821C535.745 245.4 538.851 246.689 542.507 246.689C544.027 246.689 545.383 246.547 546.566 246.264C548.782 245.774 550.639 244.806 552.134 243.362C553.035 242.563 553.859 241.519 554.607 240.229C555.328 238.914 555.753 237.728 555.881 236.671H550.973C550.639 237.934 550.031 239.07 549.156 240.074C547.61 241.725 545.548 242.55 542.972 242.55C540.188 242.55 538.141 241.661 536.829 239.881C535.514 238.128 534.807 235.794 534.701 232.88H556.306C556.306 229.992 556.153 227.877 555.841 226.537C555.508 224.628 554.852 222.952 553.87 221.508C552.841 219.986 551.346 218.749 549.387 217.794ZM543.013 220.541C546.156 220.541 548.409 221.701 549.775 224.022C550.497 225.286 550.958 226.962 551.167 229.051H534.818C534.921 226.575 535.734 224.551 537.254 222.978C538.8 221.354 540.719 220.541 543.013 220.541ZM631.164 216.17C626.915 216.17 623.541 217.601 621.039 220.464C618.515 223.3 617.251 227.129 617.251 231.952C617.251 236.438 618.449 240.023 620.849 242.705C623.219 245.361 626.439 246.689 630.508 246.689C635.377 246.689 638.96 245.181 641.253 242.163C643.572 239.146 644.729 235.343 644.729 230.753C644.729 225.956 643.418 222.32 640.787 219.845C638.161 217.395 634.952 216.17 631.164 216.17ZM624.442 223.752C625.805 221.508 627.995 220.386 631.01 220.386C634.413 220.386 636.809 221.701 638.198 224.332C639.077 226.008 639.513 228.187 639.513 230.869C639.513 233.808 638.908 236.49 637.696 238.914C636.461 241.338 634.219 242.55 630.974 242.55C627.985 242.55 625.805 241.532 624.442 239.495C623.076 237.458 622.391 234.917 622.391 231.875C622.391 228.703 623.076 225.995 624.442 223.752ZM597.737 216.982H592.133L586.374 239.61L580.652 216.982H575.205L583.748 245.683H588.924L594.799 223.481L600.829 245.683H606.005L614.625 216.982H609.639L603.573 239.456L597.737 216.982ZM665.408 221.585V216.479L664.247 216.363C664.118 216.363 663.965 216.363 663.785 216.363C661.8 216.363 660.06 217.06 658.565 218.452C657.048 219.819 656.092 220.979 655.708 221.933V216.982H650.953V245.683H655.939V229.167C655.939 227.129 656.62 225.337 657.986 223.79C659.327 222.217 661.246 221.43 663.745 221.43L665.408 221.585ZM674.837 206.345H669.851V245.683H674.837V206.345ZM706.41 206.19H701.619V220.696C700.512 219.355 699.505 218.414 698.604 217.872C697.084 216.944 695.19 216.479 692.922 216.479C688.852 216.479 685.709 218.014 683.493 221.082C681.303 224.151 680.211 227.774 680.211 231.952C680.211 236.413 681.42 239.985 683.841 242.666C686.237 245.348 689.083 246.689 692.384 246.689C694.417 246.689 696.234 246.302 697.831 245.529C699.402 244.729 700.769 243.453 701.93 241.7V245.683H706.41V206.19ZM687.823 223.481C689.369 221.624 691.391 220.696 693.889 220.696C696.131 220.696 698.014 221.572 699.534 223.326C701.055 225.053 701.813 227.723 701.813 231.333C701.813 234.943 701.08 237.702 699.611 239.61C698.142 241.544 696.249 242.512 693.93 242.512C690.966 242.512 688.827 241.467 687.512 239.379C686.149 237.315 685.464 234.75 685.464 231.681C685.464 228.071 686.252 225.337 687.823 223.481Z" fill="white"/>
<path d="M124.078 321.6H146.953C152.053 321.6 156.178 322.95 159.178 325.5C162.178 328.05 163.753 331.8 163.753 336.6C163.753 341.7 162.178 345.6 159.178 348.225C156.103 350.925 151.978 352.2 146.803 352.2H129.178V375H124.078V321.6ZM129.178 325.95V347.925H145.378C149.278 347.925 152.503 347.1 154.978 345.3C157.378 343.5 158.653 340.725 158.653 336.975C158.653 333.3 157.528 330.525 155.278 328.725C153.028 326.925 149.878 325.95 145.903 325.95H129.178ZM186.619 335.325C192.169 335.325 196.519 337.2 199.819 340.875C203.119 344.625 204.769 349.575 204.769 355.875C204.769 362.175 203.119 367.125 199.894 370.725C196.594 374.325 192.169 376.125 186.619 376.125C180.994 376.125 176.494 374.325 173.194 370.65C169.894 366.975 168.244 362.025 168.244 355.725C168.244 349.575 169.894 344.625 173.194 340.875C176.494 337.2 180.994 335.325 186.619 335.325ZM186.544 339.3C182.419 339.3 179.119 340.8 176.719 343.8C174.244 346.8 173.044 350.775 173.044 355.725C173.044 360.825 174.244 364.875 176.644 367.8C179.044 370.8 182.419 372.225 186.694 372.225C190.744 372.225 194.044 370.8 196.444 367.8C198.844 364.875 200.044 360.9 200.044 355.8C200.044 350.775 198.769 346.8 196.369 343.8C193.894 340.8 190.594 339.3 186.544 339.3ZM262.344 336.45L249.819 375H244.719L237.069 349.65C236.394 347.475 235.719 344.925 235.119 342.075C234.369 345 233.769 347.55 233.169 349.65L225.669 375H220.419L207.894 336.45H212.994L220.344 359.925C220.794 361.275 221.694 364.65 223.044 369.9C224.544 363.9 225.369 360.525 225.594 359.775L232.494 336.45H237.894L245.244 360.9C245.694 362.4 246.369 365.4 247.419 369.9C248.169 366.525 248.994 363.6 249.744 361.05L257.469 336.45H262.344ZM299.56 362.325C298.66 366.675 296.86 370.125 294.01 372.6C291.16 375.075 287.485 376.275 283.06 376.275C277.66 376.275 273.385 374.475 270.16 370.8C266.935 367.2 265.36 362.325 265.36 356.175C265.36 350.1 266.935 345.15 270.235 341.25C273.535 337.35 277.735 335.4 282.985 335.4C288.385 335.4 292.585 337.35 295.51 341.175C298.435 345.075 299.935 349.8 299.935 355.5V356.85H270.16C270.16 361.35 271.21 365.025 273.385 368.025C275.56 371.025 278.86 372.45 283.21 372.45C289.51 372.45 293.485 369.075 294.985 362.325H299.56ZM295.21 353.025C294.91 348.75 293.71 345.375 291.535 342.975C289.285 340.575 286.435 339.3 282.835 339.3C278.935 339.3 275.935 340.575 273.91 343.125C271.885 345.675 270.61 348.975 270.16 353.025H295.21ZM326.077 335.85V340.65C325.852 340.65 325.627 340.65 325.327 340.65C325.027 340.65 324.877 340.575 324.802 340.575C321.877 340.575 319.252 341.475 317.002 343.125C314.752 344.775 313.252 347.025 312.502 349.725C311.902 352.125 311.602 355.275 311.602 359.25V375H306.952V336.45H311.377V345.675C313.027 342.15 314.902 339.675 317.077 338.175C319.177 336.675 322.177 335.925 326.077 335.85ZM360.79 362.325C359.89 366.675 358.09 370.125 355.24 372.6C352.39 375.075 348.715 376.275 344.29 376.275C338.89 376.275 334.615 374.475 331.39 370.8C328.165 367.2 326.59 362.325 326.59 356.175C326.59 350.1 328.165 345.15 331.465 341.25C334.765 337.35 338.965 335.4 344.215 335.4C349.615 335.4 353.815 337.35 356.74 341.175C359.665 345.075 361.165 349.8 361.165 355.5V356.85H331.39C331.39 361.35 332.44 365.025 334.615 368.025C336.79 371.025 340.09 372.45 344.44 372.45C350.74 372.45 354.715 369.075 356.215 362.325H360.79ZM356.44 353.025C356.14 348.75 354.94 345.375 352.765 342.975C350.515 340.575 347.665 339.3 344.065 339.3C340.165 339.3 337.165 340.575 335.14 343.125C333.115 345.675 331.84 348.975 331.39 353.025H356.44ZM401.482 321.6V375H397.207V367.425C396.007 370.275 394.207 372.45 391.807 373.95C389.407 375.45 386.557 376.125 383.332 376.125C377.932 376.125 373.732 374.325 370.582 370.65C367.432 366.975 365.932 362.025 365.932 355.725C365.932 349.575 367.432 344.625 370.582 340.875C373.732 337.2 377.932 335.325 383.182 335.325C389.857 335.325 394.432 338.1 396.907 343.65V321.6H401.482ZM383.707 339.225C379.732 339.225 376.582 340.725 374.182 343.725C371.782 346.725 370.657 350.7 370.657 355.65C370.657 360.75 371.782 364.8 374.182 367.8C376.582 370.8 379.732 372.3 383.782 372.3C387.832 372.3 391.057 370.875 393.457 367.875C395.857 364.95 397.057 360.9 397.057 355.725C397.057 351.15 395.932 347.25 393.682 344.025C391.432 340.875 388.057 339.225 383.707 339.225ZM436.172 321.6V343.725C437.297 341.025 439.097 339 441.497 337.5C443.897 336 446.747 335.25 449.897 335.25C455.147 335.25 459.272 337.125 462.422 340.8C465.572 344.55 467.147 349.5 467.147 355.65C467.147 361.95 465.572 366.975 462.422 370.65C459.272 374.325 454.997 376.125 449.672 376.125C446.372 376.125 443.522 375.45 441.122 373.95C438.722 372.45 436.922 370.35 435.872 367.5V375H431.597V321.6H436.172ZM449.222 339.225C445.172 339.225 441.947 340.725 439.547 343.725C437.147 346.725 436.022 350.7 436.022 355.725C436.022 360.825 437.222 364.8 439.622 367.8C442.022 370.8 445.247 372.3 449.297 372.3C453.197 372.3 456.347 370.8 458.747 367.8C461.147 364.8 462.347 360.825 462.347 355.725C462.347 350.7 461.147 346.725 458.747 343.725C456.347 340.725 453.197 339.225 449.222 339.225ZM504.589 336.45L489.439 376.425C487.489 381.525 485.839 385.05 484.489 386.85C483.064 388.725 480.889 389.625 478.039 389.625C476.764 389.625 475.414 389.55 473.914 389.25V385.125C475.264 385.5 476.389 385.65 477.289 385.65C479.164 385.65 480.589 384.975 481.564 383.55C482.539 382.2 483.664 379.725 484.939 376.275C484.939 376.125 485.014 375.975 485.089 375.9C485.089 375.825 485.164 375.675 485.239 375.525C485.239 375.375 485.314 375.3 485.389 375.15C485.389 375 485.464 374.85 485.539 374.7L470.014 336.45H475.189L485.614 363C485.989 364.05 486.739 366.375 487.939 369.825C489.214 365.625 489.964 363.15 490.264 362.475L499.789 336.45H504.589ZM552.23 321.45L573.53 375H567.905L561.455 358.2H537.005L530.48 375H525.005L546.605 321.45H552.23ZM559.88 354.075L549.38 326.25L538.58 354.075H559.88ZM583.796 321.6V375H578.696V321.6H583.796Z" fill="white"/>
<defs>
<linearGradient id="paint0_linear_2200_586" x1="21.6715" y1="185.578" x2="181.007" y2="54.8938" gradientUnits="userSpaceOnUse">
<stop stop-color="#0C6D7A"/>
<stop offset="0.00784314" stop-color="#0C6F7C"/>
<stop offset="0.239216" stop-color="#14BCD4"/>
<stop offset="0.482353" stop-color="#06DEFC"/>
<stop offset="0.545098" stop-color="#04E0FF"/>
<stop offset="0.831373" stop-color="#0FBBD4"/>
<stop offset="1" stop-color="#0D7684"/>
</linearGradient>
<linearGradient id="paint1_linear_2200_586" x1="6.24156" y1="33.1542" x2="93.8011" y2="308.183" gradientUnits="userSpaceOnUse">
<stop stop-color="#0C6D7A"/>
<stop offset="0.00784314" stop-color="#0C6F7C"/>
<stop offset="0.239216" stop-color="#14BCD4"/>
<stop offset="0.509804" stop-color="#04E0FF"/>
<stop offset="0.831373" stop-color="#0FBBD4"/>
<stop offset="1" stop-color="#0D7684"/>
</linearGradient>
<linearGradient id="paint2_linear_2200_586" x1="172.998" y1="-40.4129" x2="209.786" y2="236.347" gradientUnits="userSpaceOnUse">
<stop stop-color="#0C6D7A"/>
<stop offset="0.00784314" stop-color="#0C6F7C"/>
<stop offset="0.239216" stop-color="#14BCD4"/>
<stop offset="0.509804" stop-color="#04E0FF"/>
<stop offset="0.831373" stop-color="#0FBBD4"/>
<stop offset="1" stop-color="#0D7684"/>
</linearGradient>
</defs>
</svg>
