<svg width="52" height="52" viewBox="0 0 52 52" fill="none" xmlns="http://www.w3.org/2000/svg">
<path d="M23.9993 35.8454H28.0247V23.6967L32.958 28.63L35.7427 25.8454L26.0247 16.1273L16.2814 25.8454L19.066 28.63L23.9993 23.6967V35.8454ZM26.004 51.3327C22.5 51.3327 19.2065 50.6678 16.1233 49.338C13.0402 48.0082 10.3585 46.2036 8.07802 43.924C5.79757 41.6445 3.99202 38.9638 2.66135 35.882C1.33113 32.8002 0.666016 29.5076 0.666016 26.004C0.666016 22.5 1.3309 19.2065 2.66068 16.1233C3.99046 13.0402 5.79513 10.3585 8.07468 8.07802C10.3542 5.79757 13.0349 3.99202 16.1167 2.66135C19.1985 1.33113 22.4911 0.666016 25.9947 0.666016C29.4987 0.666016 32.7922 1.3309 35.8754 2.66068C38.9585 3.99046 41.6402 5.79513 43.9207 8.07468C46.2011 10.3542 48.0067 13.0349 49.3374 16.1167C50.6676 19.1985 51.3327 22.4911 51.3327 25.9947C51.3327 29.4987 50.6678 32.7922 49.338 35.8754C48.0082 38.9585 46.2036 41.6402 43.924 43.9207C41.6445 46.2011 38.9638 48.0067 35.882 49.3374C32.8002 50.6676 29.5076 51.3327 26.004 51.3327ZM25.9993 47.3327C31.9549 47.3327 36.9994 45.266 41.1327 41.1327C45.266 36.9994 47.3327 31.9549 47.3327 25.9993C47.3327 20.0438 45.266 14.9993 41.1327 10.866C36.9994 6.73268 31.9549 4.66602 25.9993 4.66602C20.0438 4.66602 14.9993 6.73268 10.866 10.866C6.73268 14.9993 4.66602 20.0438 4.66602 25.9993C4.66602 31.9549 6.73268 36.9994 10.866 41.1327C14.9993 45.266 20.0438 47.3327 25.9993 47.3327Z" fill="#F4F4F4"/>
</svg>
