<svg width="118" height="82" viewBox="0 0 118 82" fill="none" xmlns="http://www.w3.org/2000/svg">
<path fill-rule="evenodd" clip-rule="evenodd" d="M0 81.9438H118V-36.2276H0V81.9438Z" fill="#E30F18"/>
<path fill-rule="evenodd" clip-rule="evenodd" d="M11.9531 33.0866V19.6899H18.4577V32.8033C18.4577 35.9872 19.251 37.5314 22.0121 37.5314C24.7098 37.5314 25.5653 36.0809 25.5653 32.7085V19.6899H32.1337V32.9924C32.1337 39.5491 28.2626 42.6067 22.0121 42.6067C15.6023 42.6067 11.9531 39.3915 11.9531 33.0866Z" fill="#FEFEFE"/>
<path fill-rule="evenodd" clip-rule="evenodd" d="M33.1172 19.6895H39.6856L42.6047 33.7486L45.6504 19.6895H51.4255L54.7257 33.8743L57.8036 19.6895H63.8322L58.5336 42.2282H51.7433L48.2522 27.9166L44.7301 42.2282H38.3846L33.1172 19.6895Z" fill="#FEFEFE"/>
<path fill-rule="evenodd" clip-rule="evenodd" d="M21.469 64.3719C23.5316 64.3719 24.483 63.4262 24.483 61.7557V61.629C24.483 59.9276 23.5637 59.0448 21.2787 59.0448H18.7722V64.3719H21.469ZM21.247 55.1042C23.278 55.1042 24.0392 54.4109 24.0392 52.8033V52.6771C24.0392 51.1328 23.2142 50.439 21.247 50.439H18.7722V55.1042H21.247ZM12.4258 46.1518H22.548C27.9103 46.1518 30.1948 48.548 30.1948 52.0466V52.1728C30.1948 54.6947 28.8944 56.3652 26.3558 57.0271C29.148 57.5 30.8932 59.171 30.8932 62.2914V62.4176C30.8932 66.4524 28.2598 68.6911 22.6434 68.6911H12.4258V46.1518Z" fill="#FEFEFE"/>
<path fill-rule="evenodd" clip-rule="evenodd" d="M32.6328 52.2042H38.3125V55.4828C39.3598 53.0237 41.1051 51.9518 43.6753 51.9837V57.2475C40.2164 57.1533 38.3125 58.2252 38.3125 60.8728V68.6905H32.6328V52.2042Z" fill="#FEFEFE"/>
<mask id="mask0_4628_849" style="mask-type:luminance" maskUnits="userSpaceOnUse" x="0" y="-37" width="119" height="118">
<path d="M0 80.9884H118.767V-37.0001H0V80.9884Z" fill="white"/>
</mask>
<g mask="url(#mask0_4628_849)">
<path fill-rule="evenodd" clip-rule="evenodd" d="M45.4185 68.6904H51.0982V52.204H45.4185V68.6904ZM45.1328 47.7278C45.1328 46.0579 46.4659 44.7964 48.2428 44.7964C50.0192 44.7964 51.3839 46.0579 51.3839 47.7278C51.3839 49.3983 50.0192 50.6283 48.2428 50.6283C46.4659 50.6283 45.1328 49.3983 45.1328 47.7278Z" fill="#FEFEFE"/>
</g>
<mask id="mask1_4628_849" style="mask-type:luminance" maskUnits="userSpaceOnUse" x="0" y="-37" width="119" height="118">
<path d="M0 80.9884H118.767V-37.0001H0V80.9884Z" fill="white"/>
</mask>
<g mask="url(#mask1_4628_849)">
<path fill-rule="evenodd" clip-rule="evenodd" d="M52.8672 63.4577H58.1035C58.2928 64.6558 58.8325 65.3177 60.4508 65.3177C61.8471 65.3177 62.4818 64.7815 62.4818 63.9625C62.4818 63.1744 61.689 62.7963 59.4034 62.4805C54.9614 61.9134 53.0896 60.621 53.0896 57.1853C53.0896 53.5281 56.3577 51.7628 60.1967 51.7628C64.2903 51.7628 67.1457 53.15 67.5268 57.09H62.3864C62.1644 55.9866 61.5619 55.4509 60.2605 55.4509C59.0228 55.4509 58.3887 55.9866 58.3887 56.7438C58.3887 57.5319 59.1499 57.8472 61.1808 58.0991C65.7815 58.6662 68.0028 59.8648 68.0028 63.3948C68.0028 67.3034 65.0841 69.0687 60.4829 69.0687C55.7547 69.0687 52.9942 67.1144 52.8672 63.4577Z" fill="#FEFEFE"/>
</g>
<mask id="mask2_4628_849" style="mask-type:luminance" maskUnits="userSpaceOnUse" x="0" y="-37" width="119" height="118">
<path d="M0 80.9884H118.767V-37.0001H0V80.9884Z" fill="white"/>
</mask>
<g mask="url(#mask2_4628_849)">
<path fill-rule="evenodd" clip-rule="evenodd" d="M70.6897 63.3945V56.0497H68.6914V52.204H70.6897V48.7682H76.3699V52.204H79.638V56.0497H76.3699V62.8593C76.3699 64.0564 76.9724 64.5927 78.0514 64.5927C78.6855 64.5927 79.1625 64.4979 79.6696 64.3088V68.5965C78.9401 68.7851 77.8606 69.0694 76.5291 69.0694C72.7839 69.0694 70.6897 67.2722 70.6897 63.3945Z" fill="#FEFEFE"/>
</g>
<mask id="mask3_4628_849" style="mask-type:luminance" maskUnits="userSpaceOnUse" x="0" y="-37" width="119" height="118">
<path d="M0 80.9884H118.767V-37.0001H0V80.9884Z" fill="white"/>
</mask>
<g mask="url(#mask3_4628_849)">
<path fill-rule="evenodd" clip-rule="evenodd" d="M92.9884 60.5575V60.3056C92.9884 57.5312 91.8772 55.987 89.7197 55.987C87.5939 55.987 86.42 57.4679 86.42 60.2427V60.4946C86.42 63.3313 87.5301 64.8761 89.7197 64.8761C91.8456 64.8761 92.9884 63.3004 92.9884 60.5575ZM80.6133 60.6522V60.3998C80.6133 55.1041 84.5798 51.7626 89.7197 51.7626C94.8285 51.7626 98.7629 55.0098 98.7629 60.2427V60.4946C98.7629 65.8537 94.7969 69.0685 89.6881 69.0685C84.5798 69.0685 80.6133 65.9799 80.6133 60.6522Z" fill="#FEFEFE"/>
</g>
<mask id="mask4_4628_849" style="mask-type:luminance" maskUnits="userSpaceOnUse" x="0" y="-37" width="119" height="118">
<path d="M0 80.9884H118.767V-37.0001H0V80.9884Z" fill="white"/>
</mask>
<g mask="url(#mask4_4628_849)">
<path fill-rule="evenodd" clip-rule="evenodd" d="M100.691 68.6908H106.339V46.1475H100.691V68.6908Z" fill="#FEFEFE"/>
</g>
<path fill-rule="evenodd" clip-rule="evenodd" d="M71.2771 37.2479V33.1493H77.1227H78.6072V28.5474H77.1227H71.2771V24.6702H80.479V19.6897H64.8047V42.2279H80.9871V37.2479H71.2771Z" fill="#FEFEFE"/>
</svg>
