<svg width="33" height="28" viewBox="0 0 33 28" fill="none" xmlns="http://www.w3.org/2000/svg">
<path d="M31.97 8.11752L16.97 0.117517C16.8253 0.0404766 16.6639 0.000183105 16.5 0.000183105C16.3361 0.000183105 16.1747 0.0404766 16.03 0.117517L1.02999 8.11752C0.869998 8.20278 0.736194 8.32994 0.642893 8.48539C0.549592 8.64083 0.500305 8.81872 0.500305 9.00002C0.500305 9.18131 0.549592 9.3592 0.642893 9.51465C0.736194 9.67009 0.869998 9.79725 1.02999 9.88252L4.49999 11.7338V17.7863C4.49895 18.2775 4.67973 18.7517 5.00749 19.1175C6.64499 20.9413 10.3137 24 16.5 24C18.5512 24.017 20.587 23.6454 22.5 22.905V27C22.5 27.2652 22.6053 27.5196 22.7929 27.7071C22.9804 27.8947 23.2348 28 23.5 28C23.7652 28 24.0196 27.8947 24.2071 27.7071C24.3946 27.5196 24.5 27.2652 24.5 27V21.9388C25.804 21.186 26.9824 20.2341 27.9925 19.1175C28.3203 18.7517 28.501 18.2775 28.5 17.7863V11.7338L31.97 9.88252C32.13 9.79725 32.2638 9.67009 32.3571 9.51465C32.4504 9.3592 32.4997 9.18131 32.4997 9.00002C32.4997 8.81872 32.4504 8.64083 32.3571 8.48539C32.2638 8.32994 32.13 8.20278 31.97 8.11752ZM16.5 22C11.0912 22 7.90999 19.3575 6.49999 17.7863V12.8L16.03 17.8825C16.1747 17.9596 16.3361 17.9999 16.5 17.9999C16.6639 17.9999 16.8253 17.9596 16.97 17.8825L22.5 14.9338V20.7263C20.925 21.4613 18.94 22 16.5 22ZM26.5 17.7813C25.9006 18.4464 25.2299 19.0438 24.5 19.5625V13.8663L26.5 12.8V17.7813ZM24 11.8675L23.9725 11.8513L16.9725 8.11752C16.7389 7.99823 16.4679 7.97545 16.2177 8.05411C15.9675 8.13276 15.7583 8.30654 15.635 8.538C15.5117 8.76947 15.4843 9.0401 15.5587 9.29159C15.633 9.54308 15.8032 9.75529 16.0325 9.88252L21.875 13L16.5 15.8663L3.62499 9.00002L16.5 2.13377L29.375 9.00002L24 11.8675Z" fill="#005461"/>
</svg>
