<svg width="30" height="22" viewBox="0 0 30 22" fill="none" xmlns="http://www.w3.org/2000/svg">
<path d="M21 9H18C17.7348 9 17.4804 8.89464 17.2929 8.70711C17.1053 8.51957 17 8.26522 17 8C17 7.73478 17.1053 7.48043 17.2929 7.29289C17.4804 7.10536 17.7348 7 18 7H21C21.2652 7 21.5196 7.10536 21.7071 7.29289C21.8946 7.48043 22 7.73478 22 8C22 8.26522 21.8946 8.51957 21.7071 8.70711C21.5196 8.89464 21.2652 9 21 9ZM12 7H11V6C11 5.73478 10.8946 5.48043 10.7071 5.29289C10.5196 5.10536 10.2652 5 9.99998 5C9.73477 5 9.48041 5.10536 9.29288 5.29289C9.10534 5.48043 8.99998 5.73478 8.99998 6V7H7.99998C7.73477 7 7.48041 7.10536 7.29288 7.29289C7.10534 7.48043 6.99998 7.73478 6.99998 8C6.99998 8.26522 7.10534 8.51957 7.29288 8.70711C7.48041 8.89464 7.73477 9 7.99998 9H8.99998V10C8.99998 10.2652 9.10534 10.5196 9.29288 10.7071C9.48041 10.8946 9.73477 11 9.99998 11C10.2652 11 10.5196 10.8946 10.7071 10.7071C10.8946 10.5196 11 10.2652 11 10V9H12C12.2652 9 12.5196 8.89464 12.7071 8.70711C12.8946 8.51957 13 8.26522 13 8C13 7.73478 12.8946 7.48043 12.7071 7.29289C12.5196 7.10536 12.2652 7 12 7ZM29.185 20.0812C28.8081 20.6194 28.3179 21.0686 27.7489 21.3971C27.18 21.7256 26.5459 21.9255 25.8914 21.9828C25.2369 22.0401 24.5777 21.9534 23.9603 21.7288C23.3429 21.5041 22.7821 21.147 22.3175 20.6825C22.3025 20.6675 22.2875 20.6525 22.2737 20.6362L17.31 15H12.685L7.72623 20.6362L7.68248 20.6825C6.83774 21.5254 5.69335 21.9992 4.49998 22C3.84303 21.9998 3.1941 21.8557 2.59877 21.5779C2.00345 21.3001 1.47616 20.8953 1.05397 20.392C0.63177 19.8886 0.324898 19.299 0.154907 18.6644C-0.015084 18.0298 -0.0440704 17.3657 0.0699839 16.7188C0.0693818 16.7129 0.0693818 16.7071 0.0699839 16.7013L2.11623 6.19C2.42077 4.45634 3.32656 2.88546 4.67443 1.75339C6.0223 0.621326 7.72603 0.000499307 9.48623 0H20.5C22.2549 0.00279963 23.9534 0.620076 25.3006 1.74466C26.6478 2.86924 27.5587 4.4301 27.875 6.15625C27.875 6.16375 27.875 6.17125 27.875 6.17875L29.9212 16.7C29.9218 16.7058 29.9218 16.7117 29.9212 16.7175C30.0271 17.299 30.0166 17.8958 29.8902 18.4732C29.7638 19.0506 29.5241 19.5971 29.185 20.0812ZM20.5 13C21.9587 13 23.3576 12.4205 24.3891 11.3891C25.4205 10.3576 26 8.95869 26 7.5C26 6.04131 25.4205 4.64236 24.3891 3.61091C23.3576 2.57946 21.9587 2 20.5 2H9.48623C8.19492 2.00116 6.94538 2.45767 5.95745 3.28922C4.96951 4.12076 4.30648 5.27408 4.08498 6.54625V6.5625L2.03748 17.0737C1.94698 17.5949 2.02409 18.1313 2.25771 18.6058C2.49133 19.0803 2.86943 19.4685 3.33763 19.7145C3.80583 19.9606 4.34 20.0518 4.86332 19.9751C5.38664 19.8983 5.87213 19.6576 6.24998 19.2875L11.49 13.3388C11.5838 13.2323 11.6992 13.1471 11.8285 13.0886C11.9578 13.0302 12.0981 13 12.24 13H20.5ZM27.9625 17.0737L26.87 11.4487C26.1981 12.5337 25.2604 13.4293 24.1457 14.0508C23.031 14.6722 21.7762 14.9989 20.5 15H19.975L23.75 19.2887C24.0346 19.5656 24.3808 19.771 24.7602 19.8881C25.1396 20.0052 25.5413 20.0307 25.9325 19.9625C26.5841 19.8475 27.1635 19.4788 27.5438 18.9374C27.9241 18.3959 28.0742 17.7257 27.9612 17.0737H27.9625Z" fill="white"/>
</svg>
