<svg width="32" height="21" viewBox="0 0 32 21" fill="none" xmlns="http://www.w3.org/2000/svg">
<path d="M14.6563 13.74C15.9965 12.8477 17.014 11.5478 17.5584 10.0326C18.1027 8.51727 18.145 6.86703 17.6789 5.32587C17.2128 3.78471 16.2631 2.43445 14.9703 1.47478C13.6775 0.515099 12.1101 -0.00305176 10.5 -0.00305176C8.88991 -0.00305176 7.32255 0.515099 6.02972 1.47478C4.73688 2.43445 3.7872 3.78471 3.32111 5.32587C2.85503 6.86703 2.89728 8.51727 3.44162 10.0326C3.98597 11.5478 5.0035 12.8477 6.34375 13.74C3.91937 14.6335 1.84888 16.287 0.441251 18.4537C0.367271 18.5637 0.315884 18.6873 0.290078 18.8172C0.264271 18.9472 0.26456 19.0811 0.290928 19.2109C0.317295 19.3408 0.369215 19.4641 0.443669 19.5738C0.518124 19.6834 0.613627 19.7772 0.724629 19.8496C0.835631 19.922 0.959916 19.9716 1.09026 19.9955C1.22061 20.0195 1.35441 20.0173 1.4839 19.989C1.61338 19.9608 1.73597 19.9071 1.84452 19.8311C1.95308 19.7551 2.04545 19.6583 2.11625 19.5462C3.02424 18.1497 4.2667 17.0021 5.7308 16.2077C7.1949 15.4133 8.83426 14.9972 10.5 14.9972C12.1657 14.9972 13.8051 15.4133 15.2692 16.2077C16.7333 17.0021 17.9758 18.1497 18.8838 19.5462C19.0304 19.7642 19.257 19.9157 19.5145 19.968C19.772 20.0203 20.0397 19.9691 20.2597 19.8256C20.4798 19.6821 20.6345 19.4577 20.6905 19.201C20.7464 18.9443 20.6991 18.6758 20.5588 18.4537C19.1511 16.287 17.0806 14.6335 14.6563 13.74ZM5 7.49999C5 6.41219 5.32257 5.34883 5.92692 4.44436C6.53127 3.53988 7.39025 2.83494 8.39524 2.41865C9.40024 2.00237 10.5061 1.89345 11.573 2.10567C12.6399 2.31789 13.6199 2.84171 14.3891 3.6109C15.1583 4.38009 15.6821 5.3601 15.8943 6.42699C16.1065 7.49389 15.9976 8.59976 15.5813 9.60475C15.1651 10.6097 14.4601 11.4687 13.5556 12.0731C12.6512 12.6774 11.5878 13 10.5 13C9.04182 12.9983 7.64383 12.4183 6.61274 11.3873C5.58165 10.3562 5.00166 8.95817 5 7.49999ZM31.2675 19.8375C31.0454 19.9823 30.7748 20.033 30.5153 19.9784C30.2558 19.9238 30.0286 19.7683 29.8838 19.5462C28.9769 18.1489 27.7346 17.0008 26.2702 16.2067C24.8058 15.4126 23.1659 14.9978 21.5 15C21.2348 15 20.9804 14.8946 20.7929 14.7071C20.6054 14.5196 20.5 14.2652 20.5 14C20.5 13.7348 20.6054 13.4804 20.7929 13.2929C20.9804 13.1053 21.2348 13 21.5 13C22.31 12.9992 23.1098 12.8196 23.8422 12.4739C24.5747 12.1282 25.2218 11.625 25.7373 11.0002C26.2527 10.3754 26.6239 9.64453 26.8241 8.85971C27.0243 8.07489 27.0488 7.25553 26.8956 6.46018C26.7425 5.66482 26.4156 4.91311 25.9383 4.25874C25.4609 3.60437 24.845 3.0635 24.1344 2.67478C23.4238 2.28606 22.6361 2.05909 21.8276 2.01007C21.0192 1.96106 20.2098 2.09121 19.4575 2.39124C19.3348 2.44427 19.2028 2.47217 19.0691 2.4733C18.9355 2.47443 18.803 2.44876 18.6795 2.39782C18.5559 2.34687 18.4438 2.27168 18.3498 2.17668C18.2559 2.08168 18.1819 1.96881 18.1322 1.84473C18.0826 1.72065 18.0583 1.58788 18.0609 1.45426C18.0634 1.32065 18.0927 1.1889 18.1471 1.06681C18.2014 0.944709 18.2796 0.83474 18.3772 0.743397C18.4747 0.652054 18.5896 0.58119 18.715 0.534991C20.4368 -0.151695 22.352 -0.176406 24.0909 0.465625C25.8299 1.10766 27.2695 2.37094 28.132 4.01176C28.9945 5.65259 29.2188 7.55469 28.7616 9.35114C28.3044 11.1476 27.1982 12.7111 25.6563 13.74C28.0806 14.6335 30.1511 16.287 31.5588 18.4537C31.7036 18.6759 31.7543 18.9464 31.6997 19.2059C31.6451 19.4654 31.4896 19.6926 31.2675 19.8375Z" fill="#005461"/>
</svg>
