<svg width="990" height="491" viewBox="0 0 990 491" fill="none" xmlns="http://www.w3.org/2000/svg">
<mask id="mask0_2600_273" style="mask-type:luminance" maskUnits="userSpaceOnUse" x="0" y="0" width="990" height="491">
<path d="M989.366 0.323456H0.542969V490.536H989.366V0.323456Z" fill="white"/>
</mask>
<g mask="url(#mask0_2600_273)">
<path d="M836.98 207.218C840.14 208.078 841.097 194.982 835.16 196.799C829.223 198.616 833.244 206.166 836.98 207.218Z" fill="#37C9EF"/>
<path d="M564.839 12.4098C564.839 12.4098 562.828 15.1812 567.615 15.1812C572.501 15.1812 582.554 11.931 590.597 11.931C598.643 11.931 596.248 9.15964 594.622 9.15964C592.992 9.15964 588.587 4.76462 582.173 5.14529C575.756 5.52885 576.138 8.39542 572.116 8.39542C568.095 8.39542 568.86 7.15247 560.436 7.63119C552.009 8.01186 560.436 11.6455 564.839 12.4098Z" fill="#0AAEC5" fill-opacity="0.2"/>
<path d="M845.119 245.643C847.8 247.46 848.28 250.615 847.8 255.587C847.324 260.556 842.822 260.077 850.484 263.232C858.143 266.387 867.24 271.834 864.944 261.894C862.644 251.953 864.464 250.615 856.323 242.872C848.184 235.227 847.705 240.195 846.844 233.79C845.983 227.483 843.683 215.726 840.523 220.219C837.747 224.233 835.545 225.666 838.706 232.452C841.962 239.336 842.343 243.829 845.119 245.643Z" fill="#0AAEC5" fill-opacity="0.2"/>
<path d="M923.451 303.476C917.514 297.166 907.556 292.578 903.534 293.057C899.417 293.533 895.876 299.843 893.576 297.547C891.279 295.254 884.478 284.454 880.937 287.606C877.296 290.761 881.416 294.395 876.82 294.395C872.319 294.395 870.978 299.843 870.019 292.578C869.158 285.314 865.518 281.68 864.562 287.13C863.701 292.578 863.221 296.209 860.922 292.099C858.625 287.99 857.284 290.761 857.284 286.652C857.284 282.542 848.187 278.049 844.645 282.542C842.345 285.409 841.484 285.694 840.525 292.004C839.664 298.314 837.368 308.255 842.345 305.579C847.326 302.902 848.282 305.1 850.486 301.945C852.783 298.79 855.464 296.976 859.581 298.79C863.701 300.607 861.881 300.607 869.063 299.652C876.34 298.79 879.882 298.79 884.958 301.945C889.939 305.1 899.897 303.283 899.897 306.438C899.897 309.593 889.459 311.886 899.897 315.041C910.335 318.196 912.536 325.46 915.792 321.826C918.953 318.196 923.451 313.224 926.707 316.857C929.867 320.488 942.125 330.432 939.826 324.981C937.529 319.534 938.009 314.562 945.286 308.734C952.563 302.902 950.743 300.128 947.583 300.128C944.422 300.128 944.422 304.241 937.145 305.1C929.772 306.248 929.391 309.783 923.454 303.476H923.451Z" fill="#0AAEC5" fill-opacity="0.2"/>
<path d="M499.532 21.0124C500.011 21.1075 500.393 21.2056 500.777 21.3008C504.799 22.9244 507.67 20.5365 508.054 17.2864C512.46 10.8813 510.831 22.5437 515.716 20.5365C520.503 18.5265 527.396 13.6527 533.047 10.8813C538.695 8.10991 526.151 9.25481 516.097 7.63119C506.044 6.00468 491.87 8.87414 487.849 11.6455C484.113 14.2266 493.69 19.2936 499.532 21.0124Z" fill="#0AAEC5" fill-opacity="0.2"/>
<path d="M827.885 261.415C825.108 264.953 819.746 272.697 816.106 275.468C812.469 278.144 806.148 274.609 806.627 280.916C807.107 287.226 807.488 289.997 807.968 294.49C808.447 298.983 809.308 301.755 816.106 301.755C822.907 301.755 826.065 304.047 828.364 303.093C830.661 302.233 830.184 298.121 832.865 292.673C835.546 287.226 840.143 288.564 838.323 284.549C836.502 280.437 836.502 281.394 836.502 277.285C836.502 273.173 838.802 275.947 837.462 269.158C836.026 262.372 831.045 257.401 827.885 261.415Z" fill="#0AAEC5" fill-opacity="0.2"/>
<path d="M843.399 324.217C849.816 324.981 854.698 324.217 859.104 321.826C863.507 319.438 861.496 316.569 861.114 315.424C860.73 314.181 857.474 316.667 853.069 317.431C848.666 318.196 847.421 318.196 841.77 318.674C836.122 319.055 839.759 316.667 833.727 316.284C827.695 315.9 821.662 314.66 814.766 312.269C807.873 309.878 804.328 307.871 799.446 306.248C794.564 304.621 799.062 301.85 798.68 294.969C798.296 288.085 793.795 290.952 790.253 288.564C786.613 286.173 787.858 280.916 789.488 282.542C791.114 284.166 791.498 286.173 791.498 277.666C791.498 269.253 783.837 263.615 779.05 256.351C774.167 249.086 775.028 245.072 775.409 241.438C775.794 237.805 784.316 244.688 788.722 249.851C793.125 255.108 793.125 255.108 795.615 253.865C798.01 252.622 805.287 248.608 806.914 242.203C808.543 235.797 793.989 222.895 791.978 216.874C789.967 210.849 794.754 214.483 797.245 210.468C799.637 206.454 802.511 212.092 800.882 214.866C799.255 217.638 801.266 219.261 802.892 222.131C804.522 224.902 804.522 222.131 806.148 218.497C807.778 214.866 806.533 213.623 809.404 211.233C812.276 208.842 823.098 205.592 825.97 202.82C828.844 200.049 830.855 196.799 834.397 186.763C838.037 176.724 834.016 177.108 832.386 173.474C830.76 169.843 825.97 163.822 823.098 160.188C820.322 156.557 822.714 157.417 824.725 156.174C826.735 154.931 825.109 152.159 820.322 150.536C815.437 148.909 816.3 152.159 811.895 151.3C807.489 150.536 809.884 147.286 814.671 141.645C819.556 136.004 817.066 142.888 820.322 145.278C823.578 147.666 824.343 143.268 826.738 144.511C829.13 145.754 834.016 148.145 837.653 152.924C841.293 157.702 841.293 163.343 844.93 162.96C848.57 162.579 848.57 160.952 850.197 157.322C851.826 153.688 845.791 150.438 842.92 147.666C840.048 144.895 837.272 144.895 839.664 142.409C842.059 140.021 840.048 136.387 841.293 133.521C842.538 130.747 846.941 132.278 851.347 130.271C855.752 128.264 856.134 121.38 856.134 114.211C856.134 106.946 852.497 103.791 850.486 101.308C848.475 98.9173 852.878 100.065 856.518 102.932C860.155 105.703 865.806 120.999 866.956 127.116C868.201 133.137 867.337 133.137 872.223 138.395C877.105 143.652 875.479 142.793 873.849 148.814C872.223 154.836 868.201 156.462 862.166 158.086C856.134 159.712 858.145 160.857 854.507 166.977C850.867 172.998 856.518 173.379 859.774 175.005C863.03 176.629 864.561 170.608 868.678 167.741C872.699 164.97 877.105 162.864 884.001 162.864C890.894 162.864 881.99 153.593 881.606 148.814C881.222 144.036 880.841 140.785 879.211 137.152C877.585 133.521 880.841 133.521 885.628 131.13C890.415 128.739 890.033 123.866 887.257 123.866C884.478 123.866 881.99 125.873 875.574 125.489C869.157 125.109 870.784 119.851 869.157 117.844C867.531 115.837 865.517 111.439 865.136 107.805C864.752 104.175 859.104 99.396 855.082 95.7624C851.058 92.1316 848.666 89.7408 848.666 91.3645C848.666 92.991 846.271 90.9838 840.623 90.6002C834.972 90.2196 833.727 91.3645 828.94 90.9838C824.054 90.6002 829.321 82.5715 831.332 76.9307C833.345 71.2927 838.993 74.5428 843.399 74.5428C847.802 74.5428 849.816 74.9235 856.324 76.55C862.741 78.1736 859.965 72.5356 861.21 68.1377C862.455 63.7398 865.231 66.1306 868.871 67.7542C872.509 69.3807 873.658 69.7642 873.658 66.1306C873.658 62.4969 876.914 61.7327 879.691 64.8876C882.467 68.1377 874.808 74.9235 874.808 74.9235C874.808 74.9235 872.413 82.188 876.819 84.5787C881.222 86.9694 890.129 97.484 895.395 101.115C900.662 104.749 897.022 95.0933 897.022 88.2124C897.022 81.3286 892.235 82.188 888.598 75.7858C884.957 69.3807 887.352 72.1521 894.245 72.1521C901.142 72.1521 901.523 69.7642 903.152 67.7542C904.779 65.747 905.929 65.3663 912.056 65.3663C918.088 65.3663 914.451 62.9756 911.675 59.7255C908.896 56.4753 903.248 57.3376 905.258 55.3305C907.269 53.3204 918.187 56.5705 923.355 58.5777C928.622 60.5878 927.379 58.9612 926.611 54.1827C925.845 49.4041 921.344 52.9397 908.514 48.1611C895.586 43.3797 881.511 40.5131 877.105 40.5131C872.699 40.5131 875.86 37.7417 879.116 37.7417C882.372 37.7417 881.511 34.9703 878.35 33.3438C875.094 31.7202 872.318 32.9602 871.073 36.5939C869.828 40.2276 874.71 40.6083 865.422 40.6083C856.134 40.6083 849.336 40.6083 838.418 38.6011C827.504 36.5939 823.482 36.5939 814.191 36.2104C804.903 35.8297 805.767 31.8153 796.095 31.8153C786.422 31.8153 789.678 28.1817 785.657 23.7838C781.635 19.3887 779.625 20.5365 767.557 20.5365C755.493 20.5365 761.909 25.3151 764.304 26.1745C766.696 26.9387 773.208 28.9459 777.614 33.0583C782.017 37.0726 769.571 35.4461 764.304 35.8297C759.038 36.2104 759.514 33.0583 753.387 29.4246C747.354 25.7938 732.415 27.801 723.988 27.4174C715.561 27.0339 715.084 27.4174 711.924 21.3959C708.668 15.3744 701.87 18.6245 692.963 18.6245C684.059 18.6245 679.269 14.2266 674.867 11.36C670.461 8.58574 663.565 8.1099 653.895 6.57857C644.223 4.95495 649.49 12.6001 653.127 12.9836C653.127 12.9836 657.151 14.6102 661.173 14.9908C665.194 15.3744 673.717 15.7551 678.12 21.0124C682.525 26.2697 664.429 24.2625 656.383 28.6604C648.34 33.0583 641.828 31.0511 636.275 33.439C630.624 35.8297 639.052 39.8441 641.158 45.1014C643.169 50.3587 641.158 50.3587 637.521 51.5064C633.88 52.7494 638.766 45.8656 637.136 43.8584C635.51 41.8512 629.478 31.4318 624.688 28.1817C619.805 24.9315 620.666 30.9531 621.432 35.4461C622.197 39.8441 623.442 39.8441 624.688 43.0942C625.933 46.3443 619.421 43.0942 616.26 40.7034C613.004 38.3156 602.569 43.9536 597.684 41.4677C592.897 39.0798 599.314 39.8441 599.314 37.4533C599.314 35.0655 593.663 37.0726 592.036 33.439C590.407 29.8082 602.09 25.4103 609.367 24.1673C616.645 22.9244 615.784 22.9244 615.784 19.3887C615.784 15.7551 602.855 16.998 592.036 22.1601C581.119 27.4174 583.99 31.0511 582.364 34.5867C580.734 38.2175 586.001 38.6011 588.396 40.6083C590.791 42.6155 585.62 43.3797 580.734 45.0062C575.947 46.6298 574.702 45.0062 569.054 47.0134C563.403 49.0205 566.659 51.4113 561.777 53.4184C556.987 55.4256 557.371 55.4256 553.35 57.0492C549.328 58.6757 554.115 51.0277 559.766 50.1683C565.414 49.4041 563.788 46.154 562.158 44.911C560.532 43.6681 550.094 40.5131 538.795 37.263C527.493 34.0129 509.396 38.5059 503.364 41.2773C497.332 44.0487 497.713 46.154 496.948 50.1683C496.182 54.1827 482.393 60.2042 475.595 63.835C468.699 67.4687 474.827 72.2473 476.837 75.4974C478.848 78.7475 483.254 77.1239 488.905 75.4974C494.553 73.8738 493.692 80.7547 494.553 83.1454C495.321 85.5361 498.574 85.9168 503.841 83.5261C509.11 81.1382 507.865 75.4974 507.865 72.2473C507.865 68.9971 506.62 67.3735 510.257 62.9756C513.897 58.5777 517.153 55.7111 520.314 53.7039C523.57 51.6968 523.09 55.3305 518.3 59.3448C513.513 63.3592 516.674 64.6021 519.069 69.3807C521.461 74.2544 526.346 69.3807 532.378 68.6165C538.411 67.8522 527.112 73.8738 522.706 73.8738C518.303 73.8738 522.706 78.6523 519.93 78.6523C517.153 78.6523 516.674 80.6595 516.29 85.5361C515.908 90.4099 514.279 89.1669 511.023 90.4099C507.767 91.6528 502.98 92.0335 497.713 90.7934C492.447 89.5505 492.926 84.769 489.286 81.5189C485.649 78.2688 484.883 83.1454 484.883 85.1526C484.883 87.1598 481.243 91.5577 479.617 91.5577C477.987 91.5577 473.2 96.4314 470.328 100.446C467.549 104.46 465.538 102.072 464.678 100.446C463.912 98.8222 466.688 96.4314 465.062 92.4171C463.432 88.4027 457.016 85.1526 459.027 75.8809C461.037 66.6093 456.635 71.483 450.123 72.2473C443.706 73.0115 441.696 75.8809 441.216 78.2688C440.835 80.6595 437.195 85.5361 433.173 89.9312C429.152 94.3291 431.928 97.9599 433.939 102.837C435.949 107.71 441.216 101.21 442.845 97.1956C444.472 93.1813 446.483 91.1741 448.878 93.1813C451.273 95.1885 445.238 98.8222 444.472 103.601C443.706 108.474 446.101 107.999 451.749 106.372C457.4 104.749 454.529 103.601 459.027 105.608C463.432 107.615 455.005 109.242 449.739 109.622C444.472 110.006 446.483 113.637 450.984 116.887C455.389 120.137 453.379 124.918 450.602 125.299C447.823 125.683 442.557 126.542 434.514 128.07C426.471 129.697 433.748 136.102 432.119 139.733C430.492 143.366 430.108 151.395 433.748 151.776C437.385 152.159 437.385 158.181 435.374 160.188C433.364 162.195 432.982 164.202 428.097 167.836C423.215 171.467 426.852 174.717 425.321 179.499C423.694 184.277 419.673 181.506 414.883 186.763C410.096 192.02 407.99 196.035 404.445 202.056C400.808 208.078 400.423 208.461 404.829 215.726C409.235 222.99 404.829 224.997 401.189 231.402C397.552 237.805 402.434 238.283 403.968 243.829C405.595 249.467 408.851 248.224 410 253.865C411.246 259.506 412.777 261.129 418.428 265.144C424.076 269.158 429.726 274.799 432.503 273.556C435.279 272.313 439.78 269.158 449.068 269.542C458.356 269.922 455.101 265.527 464.773 263.901C474.445 262.277 469.179 265.144 470.424 267.915C471.669 270.785 476.837 273.556 484.118 273.937C491.395 274.32 485.36 283.211 484.883 288.849C484.499 294.49 484.883 294.49 488.52 299.269C492.161 304.047 496.948 314.945 498.193 320.586C499.438 326.224 496.948 332.629 493.787 337.887C490.531 343.144 491.776 355.187 498.574 364.078C505.47 372.966 501.353 372.49 501.353 381.762C501.353 391.034 506.236 389.407 509.781 394.664C513.418 399.922 511.791 409.577 515.047 414.739C518.3 419.996 523.951 415.123 530.368 412.732C536.784 410.341 539.656 411.105 547.317 405.467C554.976 399.826 561.008 388.548 561.008 385.393C561.008 382.143 563.403 380.998 567.425 379.371C571.446 377.748 570.681 367.328 570.201 364.459C569.82 361.687 570.97 359.201 572.596 357.578C574.225 355.951 584.279 346.299 587.916 342.285C591.557 338.267 588.301 332.629 587.535 326.224C586.769 319.819 584.279 317.336 584.279 309.688C584.279 302.04 581.884 302.804 595.194 290.381C608.506 277.954 620.955 258.165 622.197 253.77C623.442 249.372 622.966 245.741 622.197 242.491C621.432 239.241 604.101 245.741 600.079 245.741C596.058 245.741 588.78 236.85 588.015 233.695C587.246 230.445 581.119 227.29 575.947 222.416C570.681 217.638 574.702 210.754 570.681 205.497C566.659 200.239 564.648 192.594 563.788 188.196C563.022 183.798 569.82 191.446 575.086 197.468C580.353 203.489 587.151 214.768 589.162 218.783C591.172 222.8 592.802 228.821 593.183 233.695C593.567 238.474 596.823 239.336 601.61 238.952C606.397 238.572 623.347 229.681 629.379 226.909C635.414 224.138 642.692 215.631 645.468 207.599C648.244 199.57 639.436 200.718 635.414 196.704C631.39 192.689 631.39 196.704 626.508 197.947C621.721 199.19 617.604 192.689 609.942 185.52C602.281 178.256 607.166 180.741 608.697 179.115C610.228 177.491 617.985 182.749 622.391 188.006C626.794 193.263 627.657 191.256 632.829 191.256C638.095 191.256 639.242 193.644 646.138 195.651C653.032 197.658 656.576 194.887 662.513 195.461C668.355 196.035 667.491 198.901 671.611 205.306C675.632 211.711 674.003 209.704 682.91 210.564C691.813 211.328 685.302 210.564 685.302 216.204C685.302 221.842 686.07 223.85 691.337 230.733C696.603 237.614 698.614 250.424 700.241 256.925C701.87 263.327 705.126 256.925 710.294 256.925C715.561 256.925 710.679 261.32 714.7 267.82C718.722 274.225 721.596 265.813 721.596 263.422C721.596 261.034 719.201 255.013 716.806 253.006C714.414 250.998 711.158 251.379 713.934 248.224C716.806 244.974 714.319 241.822 714.319 237.329C714.319 232.931 714.7 229.681 716.711 227.674C718.722 225.666 725.999 218.402 730.405 213.145C734.81 207.887 738.448 207.123 744.48 207.504C750.515 207.887 745.725 208.747 749.365 213.525C753.002 218.402 753.771 225.188 757.792 230.064C761.814 234.938 762.195 229.297 765.451 227.674C768.707 226.05 766.696 232.452 769.091 237.329C771.483 242.203 769.857 248.608 769.857 253.006C769.857 257.401 775.123 261.894 778.284 265.908C781.54 269.922 780.295 271.93 778.284 273.556C776.273 275.18 772.252 269.542 768.996 266.292C765.74 263.041 760.95 265.049 764.206 268.679C767.462 272.313 769.473 278.718 773.113 285.599C776.75 292.483 784.412 300.512 789.678 307.681C794.945 314.945 811.799 318.1 818.311 318.1C824.054 317.812 836.983 323.453 843.399 324.217ZM563.689 168.122C561.297 172.903 560.052 176.153 556.412 175.005C552.775 173.762 540.71 174.241 534.675 172.234C528.643 170.227 519.739 166.593 518.11 170.991C516.483 175.386 522.131 179.02 512.077 175.386C502.024 171.755 491.106 167.357 489.956 164.107C488.714 160.857 493.981 152.064 486.7 152.064C479.423 152.064 469.369 151.681 466.113 154.071C462.858 156.462 450.409 160.952 446.387 159.712C442.75 158.66 437.099 157.322 443.611 154.455C450.027 151.681 457.686 153.212 458.55 149.198C459.316 145.18 452.899 144.416 459.316 140.785C465.732 137.152 463.337 133.902 467.743 131.894C472.146 129.887 478.178 130.271 481.434 129.123C484.69 127.88 480.191 126.732 486.7 130.366C493.117 133.997 497.138 140.785 500.394 141.261C503.65 141.645 505.661 144.036 503.65 145.659C501.639 147.286 498.383 148.431 497.234 148.431C495.991 148.431 495.223 151.681 496.468 152.064C497.713 152.445 500.49 157.702 502.5 156.079C504.514 154.455 502.5 152.064 506.14 150.821C509.781 149.578 513.418 148.05 511.791 145.564C510.162 143.173 508.535 140.307 511.791 141.93C515.047 143.557 517.824 142.697 514.183 139.159C510.546 135.528 509.301 135.528 504.895 132.278C500.49 129.028 495.607 127.401 495.607 125.013C495.607 122.623 492.831 118.13 497.234 119.756C501.639 121.38 516.96 129.792 516.96 133.042C516.96 136.292 520.984 141.93 517.344 144.705C513.707 147.476 520.984 148.335 522.611 149.962C524.24 151.585 523.376 155.983 527.877 155.219C532.283 154.455 535.539 154.836 533.144 150.343C530.749 145.948 526.727 143.937 530.749 142.314C534.773 140.69 535.634 138.68 536.784 145.564C538.026 152.445 536.4 154.836 546.072 155.219C555.742 155.6 562.158 152.828 563.403 155.6C564.458 158.469 566.084 163.343 563.689 168.122ZM579.394 138.011C572.98 137.63 562.063 135.623 556.796 135.623C551.529 135.623 549.519 136.387 549.519 136.387C545.113 135.623 534.58 138.395 539.846 131.514C545.113 124.63 541.857 115.837 548.274 118.225C554.69 120.616 555.17 129.887 559.191 124.249C563.213 118.608 567.615 112.203 568.861 116.601C570.106 120.999 563.213 124.63 571.64 128.264C580.162 131.99 585.81 138.395 579.394 138.011ZM618.08 152.828C612.048 152.828 604.771 151.585 604.771 148.431V140.785C601.515 133.137 597.493 131.514 597.493 126.256C597.493 120.999 600.749 116.601 607.166 116.601C613.579 116.601 616.835 115.837 611.953 121.38C607.166 127.021 602.665 127.401 609.177 136.292C615.688 145.18 624.113 152.828 618.08 152.828Z" fill="#0AAEC5" fill-opacity="0.2"/>
<path d="M926.609 361.782C922.492 351.363 922.492 343.239 920.29 338.746C917.991 334.253 919.811 328.805 913.013 328.805C910.234 328.805 910.332 330.622 908.032 336.453C905.736 342.285 908.512 353.18 902.575 351.842C896.733 350.504 893.957 347.732 892.617 341.901C891.276 336.07 894.434 330.622 889.936 330.622C885.435 330.622 872.697 327.467 869.539 332.439C866.379 337.408 870.4 339.225 863.698 339.225C856.897 339.225 854.216 339.225 850.579 343.718C846.939 348.211 841.961 360.923 822.521 361.782C803.084 362.645 813.042 373.064 813.042 384.343C813.042 395.622 802.604 402.408 807.201 406.517C811.702 410.629 805.86 415.982 815.339 412.827C824.821 409.672 833.438 408.717 848.375 406.517C863.314 404.224 870.111 403.365 870.591 410.629C871.07 417.894 868.771 412.922 874.708 414.26C880.645 415.598 874.231 425.158 881.029 426.018C887.827 426.877 883.71 431.849 889.647 431.849C895.488 431.849 897.785 438.159 892.807 438.159C887.827 438.159 880.549 448.578 887.827 444.945C895.104 441.311 902.286 440.452 902.286 435.004C902.286 429.556 901.425 429.173 909.948 422.387C918.566 415.598 938.482 399.351 937.142 386.255C935.706 373.159 930.728 372.202 926.609 361.782Z" fill="#0AAEC5" fill-opacity="0.2"/>
<mask id="mask1_2600_273" style="mask-type:luminance" maskUnits="userSpaceOnUse" x="936" y="415" width="54" height="44">
<path d="M936.855 415.232H989.028V458.79H936.855V415.232Z" fill="white"/>
</mask>
<g mask="url(#mask1_2600_273)">
<path d="M985.983 416.077C982.343 414.26 982.343 417.415 980.141 424.201C977.842 430.99 966.543 433.666 964.723 435.099C962.903 436.437 959.265 440.547 959.265 440.547C950.647 445.997 933.888 451.445 938.008 455.938C942.125 460.431 944.806 457.752 954.764 452.783C964.723 447.811 967.404 441.504 972.864 437.87C978.321 434.24 981.482 434.716 985.503 430.225C989.62 425.539 989.62 417.894 985.983 416.077Z" fill="#0AAEC5" fill-opacity="0.2"/>
</g>
<mask id="mask2_2600_273" style="mask-type:luminance" maskUnits="userSpaceOnUse" x="1" y="18" width="345" height="473">
<path d="M1.01562 18.7802H345.927V490.167H1.01562V18.7802Z" fill="white"/>
</mask>
<g mask="url(#mask2_2600_273)">
<path d="M339.998 303.378C332.721 301.371 332.339 303.762 331.574 299.747C330.805 295.733 325.923 295.733 321.517 295.733C317.114 295.733 315.485 295.349 311.848 292.099C308.207 288.849 300.546 288.469 298.154 287.701C295.759 286.937 296.909 280.056 292.122 273.651C287.236 267.246 277.183 266.003 270.766 262.372C264.35 258.739 266.36 244.688 257.072 245.836C247.784 247.079 247.019 250.71 238.496 246.217C230.069 241.822 224.421 238.952 219.92 242.203C215.514 245.453 209.866 251.474 206.991 253.101C204.215 254.724 199.333 251.858 196.554 252.336C193.777 252.717 190.521 249.467 188.511 246.696C186.5 243.924 192.151 229.776 186.884 229.776C181.617 229.776 174.817 227.388 174.817 225.381C174.817 223.371 185.734 211.328 182.478 209.321C179.222 207.313 172.806 208.556 167.158 216.204C161.507 223.85 156.24 223.469 153.464 220.599C150.688 217.828 144.176 201.292 149.443 192.02C154.709 182.749 163.136 178.351 169.55 178.734C175.967 179.115 175.201 177.108 181.617 176.724C188.031 176.344 196.172 178.351 197.703 180.741C199.333 183.129 196.077 187.144 200.098 192.02C204.12 196.799 206.512 194.792 206.991 196.799C207.376 198.806 203.736 200.813 202.204 200.813C200.575 200.813 187.265 204.447 192.532 206.835C197.799 209.225 207.087 207.218 209.098 210.468C211.108 213.719 202.684 220.504 214.748 220.888C226.813 221.269 234.859 222.895 241.752 223.276C248.648 223.659 253.435 224.043 254.201 225.666C254.966 227.29 259.851 219.645 248.55 219.645C237.251 219.645 228.442 213.24 222.312 211.997C216.28 210.754 212.258 206.74 211.877 201.961C211.493 197.084 212.258 193.549 209.866 189.534C207.471 185.52 201.439 175.865 207.087 171.85C212.738 167.836 224.037 160.188 226.813 154.931C229.592 149.673 229.592 148.526 236.101 144.511C242.517 140.497 250.179 135.24 253.816 131.609C257.456 127.975 263.489 122.337 264.734 125.204C265.979 127.975 271.627 128.837 278.428 126.447C285.321 124.056 293.748 118.034 286.471 118.034C279.193 118.034 274.788 116.027 276.798 113.256C278.809 110.485 272.011 109.242 269.905 109.622C267.894 110.006 267.894 105.608 274.788 104.365C281.684 103.122 276.033 109.242 281.684 108.763C287.332 108.379 290.972 103.984 294.993 103.122C299.015 102.358 300.644 105.896 295.377 109.527C290.111 113.161 288.481 111.918 295.377 113.541C302.271 115.168 304.281 118.799 308.303 115.168C312.324 111.534 307.537 110.291 307.058 105.513C306.676 100.734 307.826 91.8431 303.42 88.593C299.015 85.3429 299.015 81.3285 299.015 78.1736C299.015 74.9235 299.78 68.1377 295.377 71.2927C290.972 74.5428 287.332 76.55 285.705 74.9235C284.076 73.2998 286.471 70.0497 282.929 67.659C279.289 65.2711 278.907 61.6375 274.502 62.021C270.096 62.4017 265.595 58.7709 263.203 64.0282C260.808 69.2855 258.317 73.6805 257.552 75.307C256.786 76.9306 260.328 82.5715 257.17 85.3429C253.915 88.1143 245.103 92.2267 243.858 94.9981C242.613 97.7695 237.826 105.034 236.581 100.255C235.335 95.4768 240.602 88.2123 233.325 86.2052C226.047 84.198 220.399 85.8216 219.249 81.4237C218.004 77.0287 214.844 73.0115 222.026 69.3807C229.303 65.747 236.581 59.3448 243.381 58.4825C250.274 57.7183 245.392 63.3591 251.04 62.8804C256.691 62.4968 250.274 59.6303 257.072 58.4825C263.968 57.2395 262.723 57.2395 260.712 54.8517C258.702 52.461 259.947 52.0803 265.118 49.5944C270.385 47.2037 266.36 45.58 271.532 43.5729C276.798 41.5657 277.948 39.5585 280.82 39.5585C283.599 39.5585 283.215 40.7986 281.588 44.4323C279.959 48.0631 278.809 50.4538 283.599 48.0631C288.481 45.6752 290.876 44.0487 287.236 47.6824C283.599 51.3132 281.204 51.3132 275.937 52.0803C270.671 52.8445 272.3 53.7039 274.692 56.4753C277.087 59.2496 283.119 59.7254 285.13 61.2568C287.141 62.8804 289.536 68.5213 294.418 65.6518C299.205 62.8804 295.663 62.4017 302.08 59.6303C308.496 56.8589 317.785 55.2324 317.019 51.6016C316.25 47.9679 309.739 45.9607 308.973 41.5657C308.207 37.1678 317.88 34.6819 305.336 32.6747C292.887 30.6675 300.069 29.0439 294.037 29.0439C288.002 29.0439 276.703 29.0439 272.681 31.0511C268.66 33.0583 266.265 29.8081 264.254 33.0583C262.244 36.3084 264.639 40.7034 262.628 40.7034C260.617 40.7034 256.977 43.9535 255.35 40.7034C253.721 37.4533 250.084 34.3012 254.966 33.0583C259.753 31.8153 260.617 32.6747 261.383 29.0439C262.148 25.4102 254.487 25.7938 258.988 25.0267C263.393 24.2624 265.404 25.4102 271.436 25.4102C277.469 25.4102 291.162 27.801 293.173 24.1673C295.184 20.5365 289.917 20.5365 283.885 20.1529C277.853 19.7694 267.32 17.7622 262.914 19.7694C258.511 21.7766 252.86 25.0267 250.849 28.1816C248.839 31.4318 248.839 27.4174 244.817 28.1816C240.796 28.9459 233.9 33.4389 237.54 35.8297C241.177 38.2175 241.177 41.087 237.156 41.087C233.134 41.087 231.889 45.1013 229.113 45.1013C226.336 45.1013 218.675 44.7178 222.216 42.7106C225.857 40.7034 229.878 40.7034 229.494 35.8297C229.113 30.953 233.518 29.4246 233.518 27.801C233.518 26.1745 223.846 31.4318 216.184 29.0439C208.526 26.6532 205.27 23.0195 197.608 23.4031C189.946 23.7837 179.893 33.8225 184.68 34.6819C189.565 35.4461 193.107 33.9177 193.968 36.3084C194.736 38.6962 193.202 40.7034 195.982 41.9464C198.758 43.1893 204.024 46.3443 197.224 44.7178C190.426 43.0941 193.587 40.3227 183.149 39.844C172.711 39.4605 166.199 36.2103 155.38 39.0798C144.462 41.8512 146.091 44.3371 138.814 41.8512C131.537 39.4605 116.213 33.8225 104.149 36.2103C92.0845 38.6011 77.1455 42.6154 73.5053 45.1013C69.8681 47.4921 77.1455 49.8799 70.729 50.3586C64.3126 50.7422 48.9922 50.3586 52.1528 54.373C55.4087 58.3873 59.4302 58.7709 54.5449 59.6303C49.7578 60.3945 43.246 60.8732 40.8539 64.4089C38.4589 68.0425 29.5521 70.0497 35.203 71.6733C40.8539 73.2998 50.142 76.9306 46.1205 77.3142C42.0991 77.6977 21.5092 85.7264 12.7006 87.7336C3.79384 89.7408 -3.38821 99.396 4.27341 96.5266C14.0411 92.9909 40.1837 84.8671 44.9707 82.857C49.7578 80.8498 51.8639 82.4763 51.3872 85.2477C51.0029 88.0191 57.0352 84.0048 61.8251 80.374C66.6122 76.7403 66.6122 69.4758 70.729 71.9617C74.7505 74.3525 77.1455 71.9617 80.4014 71.1975C83.6573 70.4333 86.8178 68.4232 89.6895 69.9545C92.4658 71.5782 99.7432 73.2047 101.754 74.8283C103.765 76.4548 104.53 80.0856 102.52 80.4691C100.509 80.8498 100.127 82.857 100.509 86.1071C100.893 89.3572 102.52 92.1315 98.4981 92.9909C94.4766 93.7552 95.2422 98.6289 97.7325 98.2482C100.127 97.8647 101.754 96.6217 102.138 94.2339C102.52 91.8431 107.786 87.3501 107.021 90.6002C106.255 93.8503 104.244 97.0053 104.244 99.4912C104.244 101.879 101.468 101.498 100.988 103.889C100.604 106.277 101.373 106.277 103.383 108.284C105.394 110.291 104.149 111.534 103.765 115.932C103.383 120.33 91.316 132.468 89.6895 136.483C88.0601 140.497 88.9239 146.138 88.9239 150.536C88.9239 154.931 87.2945 160.572 91.7003 162.195C96.106 163.822 96.4873 164.586 96.4873 168.6C96.4873 172.615 96.4873 177.491 98.8823 180.263C101.277 183.034 100.127 182.651 100.127 187.144C100.127 191.637 102.904 189.151 103.383 192.784C103.765 196.415 101.373 198.042 105.394 200.813C109.416 203.585 113.821 205.592 111.811 201.197C109.797 196.799 108.555 193.165 106.544 186.668C104.53 180.263 103.288 168.6 105.775 172.136C108.17 175.77 111.426 186.668 115.064 194.218C118.704 201.866 123.109 201.102 123.109 206.644C123.109 212.285 118.704 217.543 127.512 221.173C136.419 224.807 142.836 232.452 148.102 231.593C153.369 230.829 156.529 227.578 158.54 231.209C160.551 234.843 164.954 239.621 169.839 239.621C174.626 239.621 176.255 242.872 177.116 247.65C177.882 252.432 181.138 253.291 186.02 254.918C190.81 256.541 192.055 261.798 195.693 261.32C199.333 260.939 204.12 259.313 204.12 262.946C204.12 266.577 205.746 275.373 199.714 281.011C193.682 286.652 190.81 290.666 194.066 294.3C197.322 297.931 194.447 301.564 192.821 304.336C191.192 307.107 194.066 309.593 197.224 313.991C200.48 318.386 204.885 323.643 207.662 332.534C210.438 341.422 214.558 344.577 221.356 347.444C228.252 350.218 233.42 355.092 233.42 361.976C233.42 368.857 233.039 392.181 233.039 398.967C233.039 405.848 236.676 412.637 235.431 417.894C234.188 423.151 235.431 427.546 237.06 429.556C238.687 431.563 238.305 435.958 238.687 440.452C239.071 444.849 243.953 441.694 243.953 445.709C243.953 449.723 241.943 455.745 244.338 457.755C246.733 459.762 241.561 467.026 252.381 473.812C263.298 480.693 264.064 481.077 264.829 482.224C265.595 483.467 269.235 479.834 269.235 481.841C269.235 483.848 263.203 489.87 274.502 489.87C285.8 489.87 292.598 491.496 285.8 486.239C278.907 480.982 274.883 483.467 273.736 478.21C272.491 472.953 270.96 473.812 270.096 470.179C269.33 466.548 272.97 464.921 271.725 461.29C270.48 457.657 265.693 457.657 266.074 454.026C266.459 450.392 269.33 446.761 270.096 445.135C270.861 443.511 270.861 441.885 268.851 440.356C266.84 438.733 267.224 438.349 270.096 437.49C272.97 436.723 273.352 437.87 274.502 433.856C275.747 429.842 279.289 430.225 280.918 429.078C282.545 427.835 288.195 426.306 286.185 421.049C284.174 415.792 280.152 413.401 284.555 413.401C288.961 413.401 293.462 413.017 296.238 407.379C299.015 401.738 297.865 400.495 301.121 396.1C304.377 391.703 304.761 388.069 304.761 384.819C304.761 381.569 303.132 378.417 307.537 376.409C311.943 374.402 326.498 372.011 328.508 365.99C330.519 359.968 332.53 353.563 331.764 347.063C330.999 340.658 330.519 336.644 335.02 331.386C339.426 326.129 345.074 321.731 345.074 316.953C345.169 312.174 347.278 305.385 339.998 303.378Z" fill="#0AAEC5" fill-opacity="0.2"/>
</g>
<mask id="mask3_2600_273" style="mask-type:luminance" maskUnits="userSpaceOnUse" x="206" y="1" width="239" height="71">
<path d="M206.887 1.79999H444.293V71.9358H206.887V1.79999Z" fill="white"/>
</mask>
<g mask="url(#mask3_2600_273)">
<path d="M414.596 38.9845C419.002 34.203 417.852 31.72 423.884 29.3292C429.916 26.9385 428.29 23.6884 427.521 18.9098C426.756 14.0361 427.521 16.1384 429.916 14.5119C432.311 12.8883 435.948 11.7405 441.599 11.2618C447.247 10.8811 441.981 8.87393 441.981 6.4832C441.981 4.09247 437.959 4.47602 432.311 5.24025C426.66 6.00447 427.521 5.24025 423.404 3.61663C419.383 1.99012 395.635 1.99012 389.508 1.99012C383.476 1.99012 372.558 3.23307 366.907 3.61663C361.259 3.9973 361.641 3.61663 350.821 2.37368C339.904 1.13073 311.369 1.99012 300.836 3.1379C290.398 4.38085 282.736 5.52864 275.843 10.0217C268.947 14.4167 264.544 12.7931 256.883 13.6525C249.221 14.4167 248.455 14.4167 244.818 14.4167C241.178 14.4167 241.562 12.4096 235.146 14.8003C228.729 17.1881 230.74 18.8146 228.25 15.5645C225.858 12.3144 222.602 15.5645 211.303 18.3359C200.004 21.1073 215.324 24.3574 218.962 25.6004C218.962 25.6004 226.623 25.2197 231.029 23.9768C235.432 22.7338 237.443 25.6004 240.317 24.741C243.093 23.9768 243.954 21.1073 260.043 17.4765C276.129 13.8428 287.428 16.7123 293.94 19.4837C300.356 22.2551 300.356 20.7266 306.007 17.093C311.655 13.4622 321.327 10.6908 331.381 9.06426C341.438 7.44064 335.021 11.0714 328.605 13.4622C322.188 15.85 316.54 15.0858 317.687 19.1001C318.932 23.1145 331.381 21.8744 335.021 21.8744C338.659 21.8744 339.043 27.5124 339.427 30.7625C339.808 34.0127 339.043 35.6392 339.808 38.7912C340.574 42.0414 342.585 41.5655 339.043 44.8156C335.403 48.0629 333.392 47.587 333.392 53.225C333.392 58.8659 335.787 64.8874 341.438 68.9018C347.086 72.9161 350.342 73.2997 353.502 66.8946C356.758 60.4895 364.42 56.4751 368.441 54.468C372.463 52.4608 378.111 54.468 383.377 49.6894C388.644 44.9108 395.445 46.918 403.103 44.4321C410.956 42.2346 410.095 43.8582 414.596 38.9845Z" fill="#0AAEC5" fill-opacity="0.2"/>
</g>
<path d="M422.637 48.2563C410.572 49.8799 399.274 45.8656 401.284 52.2707C403.295 58.6758 403.676 68.3281 410.188 66.3209C421.296 62.8804 433.554 61.0636 430.775 55.9015C427.808 50.6442 434.701 46.6298 422.637 48.2563Z" fill="#0AAEC5" fill-opacity="0.2"/>
</g>
<path d="M842.489 193.901H842.442C837.384 193.906 833.284 198.004 833.293 203.054C833.293 204.153 834.217 206.564 835.087 208.923C836.3 212.216 841.743 224.911 842.468 225.767C842.468 225.767 842.483 225.808 842.494 225.796C842.503 225.808 842.518 225.767 842.518 225.767C843.243 224.908 848.218 212.735 849.879 208.905C850.881 206.601 851.664 204.13 851.661 203.034C851.655 197.984 847.55 193.895 842.489 193.901Z" fill="#004AAD"/>
<path d="M842.481 209.843C838.82 209.848 835.851 206.89 835.848 203.236C835.845 199.582 838.809 196.617 842.466 196.614C846.127 196.611 849.097 199.567 849.102 203.221C849.105 206.875 846.141 209.84 842.481 209.843Z" fill="white"/>
<path d="M706.617 184.193H706.567C701.509 184.199 697.412 188.297 697.418 193.347C697.421 194.446 698.345 196.857 699.212 199.213C700.425 202.509 705.868 215.204 706.596 216.06C706.596 216.06 706.611 216.098 706.622 216.089C706.628 216.098 706.645 216.06 706.645 216.06C707.371 215.201 712.343 203.025 714.007 199.198C715.006 196.894 715.789 194.423 715.786 193.324C715.78 188.277 711.678 184.185 706.617 184.193Z" fill="#004AAD"/>
<path d="M706.613 200.136C702.952 200.138 699.982 197.18 699.977 193.529C699.974 189.875 702.938 186.91 706.598 186.904C710.259 186.901 713.228 189.86 713.234 193.514C713.237 197.165 710.273 200.133 706.613 200.136Z" fill="white"/>
<path d="M873.206 98.9721H873.157C868.099 98.975 864.002 103.076 864.008 108.126C864.008 109.224 864.932 111.635 865.802 113.991C867.015 117.288 872.458 129.982 873.183 130.839C873.183 130.839 873.198 130.876 873.209 130.868C873.218 130.876 873.232 130.839 873.232 130.839C873.958 129.98 878.932 117.804 880.594 113.977C881.596 111.673 882.379 109.201 882.376 108.102C882.37 103.056 878.265 98.9635 873.206 98.9721Z" fill="#004AAD"/>
<path d="M873.2 114.914C869.539 114.917 866.569 111.958 866.566 108.307C866.564 104.653 869.528 101.689 873.185 101.683C876.845 101.68 879.815 104.639 879.821 108.293C879.824 111.944 876.86 114.911 873.2 114.914Z" fill="white"/>
<path d="M534.367 55.7659H534.317C529.259 55.7688 525.162 59.8697 525.168 64.9194C525.171 66.0181 526.095 68.429 526.962 70.7852C528.175 74.0814 533.618 86.7762 534.346 87.6327C534.346 87.6327 534.361 87.6702 534.369 87.6616C534.378 87.6702 534.395 87.6327 534.395 87.6327C535.121 86.7734 540.093 74.5976 541.757 70.7707C542.756 68.4665 543.539 65.995 543.536 64.8963C543.53 59.8466 539.428 55.7573 534.367 55.7659Z" fill="#004AAD"/>
<path d="M534.363 71.708C530.702 71.7108 527.732 68.752 527.727 65.101C527.724 61.4471 530.688 58.4825 534.348 58.4767C538.009 58.4739 540.978 61.4327 540.981 65.0837C540.987 68.7376 538.023 71.7022 534.363 71.708Z" fill="white"/>
<path d="M451.766 55.7659H451.72C446.658 55.7688 442.562 59.8697 442.57 64.9194C442.57 66.0181 443.495 68.429 444.364 70.7852C445.578 74.0814 451.018 86.7762 451.746 87.6327C451.746 87.6327 451.76 87.6702 451.772 87.6616C451.78 87.6702 451.795 87.6327 451.795 87.6327C452.52 86.7734 457.495 74.5976 459.156 70.7707C460.159 68.4665 460.941 65.995 460.939 64.8963C460.933 59.8466 456.828 55.7573 451.766 55.7659Z" fill="#004AAD"/>
<path d="M451.758 71.708C448.098 71.7108 445.128 68.752 445.125 65.101C445.119 61.4471 448.086 58.4825 451.744 58.4767C455.404 58.4739 458.374 61.4327 458.38 65.0837C458.383 68.7376 455.419 71.7022 451.758 71.708Z" fill="white"/>
<path d="M180.191 21.4853H180.142C175.083 21.4911 170.986 25.5891 170.992 30.6387C170.992 31.7375 171.92 34.1484 172.786 36.5045C174 39.8008 179.443 52.4956 180.168 53.3521C180.168 53.3521 180.185 53.3896 180.194 53.3809C180.202 53.3896 180.217 53.3521 180.217 53.3521C180.942 52.4927 185.917 40.317 187.581 36.4901C188.58 34.1859 189.363 31.7144 189.36 30.6156C189.355 25.5689 185.249 21.4767 180.191 21.4853Z" fill="#004AAD"/>
<path d="M180.187 37.4274C176.524 37.4303 173.557 34.4714 173.551 30.8204C173.548 27.1666 176.512 24.2019 180.169 24.1962C183.83 24.1933 186.8 27.1521 186.806 30.806C186.808 34.457 183.844 37.4245 180.187 37.4274Z" fill="white"/>
<path d="M868.856 204.244C869.757 204.353 870.465 204.682 870.982 205.236C871.505 205.79 871.768 206.545 871.768 207.497C871.768 208.12 871.635 208.662 871.375 209.123C871.112 209.585 870.763 209.951 870.324 210.219C869.885 210.49 869.393 210.663 868.856 210.738C868.602 210.779 868.362 210.802 868.14 210.808C867.923 210.808 867.672 210.808 867.389 210.808H865.308V215.387H863.91V204.175H867.389C867.672 204.175 867.923 204.18 868.14 204.186C868.362 204.195 868.602 204.215 868.856 204.244ZM868.775 209.562C869.174 209.469 869.521 209.268 869.815 208.95C870.116 208.627 870.266 208.143 870.266 207.497C870.266 206.845 870.116 206.361 869.815 206.043C869.521 205.72 869.174 205.519 868.775 205.432C868.619 205.403 868.434 205.383 868.221 205.374C868.004 205.36 867.77 205.351 867.516 205.351H865.308V209.643H867.516C867.77 209.643 868.004 209.64 868.221 209.631C868.434 209.617 868.619 209.593 868.775 209.562Z" fill="#191919"/>
<path d="M881.281 209.066C881.304 209.282 881.315 209.498 881.315 209.712C881.315 209.919 881.315 210.196 881.315 210.542V215.387H879.917V210.646C879.917 210.433 879.917 210.228 879.917 210.035C879.917 209.836 879.905 209.628 879.882 209.412C879.836 208.904 879.663 208.483 879.362 208.143C879.068 207.797 878.588 207.635 877.918 207.658C877.47 207.667 877.054 207.797 876.67 208.051C876.291 208.299 875.988 208.705 875.757 209.273C875.531 209.844 875.422 210.62 875.422 211.604V215.387H874.023V203.367H875.422V208.258L875.965 207.266C876.335 206.984 876.693 206.793 877.04 206.701C877.386 206.603 877.773 206.551 878.207 206.551C879.154 206.551 879.885 206.782 880.402 207.243C880.925 207.705 881.217 208.313 881.281 209.066Z" fill="#191919"/>
<path d="M885.19 203.956C885.436 203.956 885.644 204.045 885.814 204.221C885.991 204.391 886.08 204.599 886.08 204.844C886.08 205.098 885.991 205.314 885.814 205.49C885.644 205.66 885.436 205.744 885.19 205.744C884.936 205.744 884.72 205.66 884.543 205.49C884.373 205.314 884.289 205.098 884.289 204.844C884.289 204.599 884.373 204.391 884.543 204.221C884.72 204.045 884.936 203.956 885.19 203.956ZM885.884 215.387H884.486V206.782H885.884V215.387Z" fill="#191919"/>
<path d="M890.508 203.448V212.919C890.508 213.051 890.508 213.184 890.508 213.322C890.508 213.455 890.511 213.588 890.519 213.726C890.542 214.003 890.626 214.193 890.773 214.291C890.927 214.392 891.195 214.424 891.582 214.384V215.387C891.426 215.41 891.262 215.425 891.085 215.433C890.915 215.448 890.75 215.456 890.589 215.456C890.187 215.456 889.849 215.37 889.572 215.191C889.294 215.007 889.144 214.646 889.121 214.107C889.112 213.954 889.109 213.784 889.109 213.599C889.109 213.415 889.109 213.204 889.109 212.965V203.448H890.508Z" fill="#191919"/>
<path d="M894.706 203.956C894.952 203.956 895.16 204.045 895.33 204.221C895.506 204.391 895.596 204.599 895.596 204.844C895.596 205.098 895.506 205.314 895.33 205.49C895.16 205.66 894.952 205.744 894.706 205.744C894.452 205.744 894.235 205.66 894.059 205.49C893.888 205.314 893.805 205.098 893.805 204.844C893.805 204.599 893.888 204.391 894.059 204.221C894.235 204.045 894.452 203.956 894.706 203.956ZM895.399 215.387H894.001V206.782H895.399V215.387Z" fill="#191919"/>
<path d="M903.021 206.551C903.867 206.551 904.581 206.744 905.159 207.128C905.737 207.514 906.176 208.036 906.476 208.697C906.782 209.36 906.938 210.113 906.938 210.958C906.938 212.019 906.742 212.893 906.349 213.576C905.962 214.262 905.451 214.773 904.812 215.11C904.171 215.448 903.475 215.618 902.721 215.618C902.365 215.618 901.987 215.563 901.588 215.456C901.186 215.358 900.877 215.22 900.664 215.041L900.086 214.199V218.571H898.688V206.782H900.086V208.154L900.744 207.232C900.99 207.024 901.322 206.86 901.738 206.736C902.154 206.614 902.582 206.551 903.021 206.551ZM902.721 214.545C903.483 214.545 904.122 214.257 904.639 213.68C905.153 213.097 905.413 212.244 905.413 211.119C905.413 210.467 905.312 209.873 905.113 209.343C904.919 208.812 904.63 208.394 904.246 208.085C903.859 207.779 903.379 207.624 902.801 207.624C902.322 207.624 901.877 207.736 901.461 207.958C901.051 208.183 900.721 208.541 900.467 209.031C900.213 209.524 900.086 210.182 900.086 211.004V211.477C900.086 212.209 900.216 212.803 900.479 213.265C900.747 213.72 901.085 214.046 901.496 214.245C901.903 214.447 902.31 214.545 902.721 214.545Z" fill="#191919"/>
<path d="M913.771 206.551C914.617 206.551 915.331 206.744 915.909 207.128C916.487 207.514 916.926 208.036 917.226 208.697C917.532 209.36 917.688 210.113 917.688 210.958C917.688 212.019 917.492 212.893 917.099 213.576C916.712 214.262 916.201 214.773 915.562 215.11C914.921 215.448 914.225 215.618 913.471 215.618C913.115 215.618 912.737 215.563 912.338 215.456C911.936 215.358 911.627 215.22 911.414 215.041L910.836 214.199V218.571H909.438V206.782H910.836V208.154L911.494 207.232C911.74 207.024 912.072 206.86 912.488 206.736C912.904 206.614 913.332 206.551 913.771 206.551ZM913.471 214.545C914.233 214.545 914.872 214.257 915.389 213.68C915.903 213.097 916.163 212.244 916.163 211.119C916.163 210.467 916.062 209.873 915.863 209.343C915.669 208.812 915.38 208.394 914.996 208.085C914.609 207.779 914.129 207.624 913.551 207.624C913.072 207.624 912.627 207.736 912.211 207.958C911.801 208.183 911.471 208.541 911.217 209.031C910.963 209.524 910.836 210.182 910.836 211.004V211.477C910.836 212.209 910.966 212.803 911.229 213.265C911.497 213.72 911.835 214.046 912.246 214.245C912.653 214.447 913.06 214.545 913.471 214.545Z" fill="#191919"/>
<path d="M920.897 203.956C921.143 203.956 921.351 204.045 921.521 204.221C921.698 204.391 921.787 204.599 921.787 204.844C921.787 205.098 921.698 205.314 921.521 205.49C921.351 205.66 921.143 205.744 920.897 205.744C920.643 205.744 920.427 205.66 920.25 205.49C920.08 205.314 919.996 205.098 919.996 204.844C919.996 204.599 920.08 204.391 920.25 204.221C920.427 204.045 920.643 203.956 920.897 203.956ZM921.591 215.387H920.193V206.782H921.591V215.387Z" fill="#191919"/>
<path d="M932.136 209.066C932.159 209.282 932.171 209.498 932.171 209.712C932.171 209.919 932.171 210.196 932.171 210.542V215.387H930.772V210.646C930.772 210.433 930.772 210.228 930.772 210.035C930.772 209.836 930.761 209.628 930.738 209.412C930.692 208.904 930.518 208.486 930.218 208.154C929.923 207.826 929.444 207.658 928.773 207.658C928.325 207.658 927.909 207.785 927.525 208.039C927.147 208.287 926.843 208.697 926.612 209.273C926.387 209.844 926.277 210.62 926.277 211.604V215.387H924.879V206.782H926.277V208.258L926.82 207.266C927.19 206.984 927.548 206.793 927.895 206.701C928.242 206.603 928.629 206.551 929.062 206.551C930.01 206.551 930.741 206.782 931.258 207.243C931.781 207.705 932.073 208.313 932.136 209.066Z" fill="#191919"/>
<path d="M942.421 210.842C942.421 210.906 942.421 210.992 942.421 211.107C942.421 211.223 942.41 211.355 942.387 211.5H936.135C936.181 212.261 936.32 212.867 936.551 213.311C936.782 213.758 937.074 214.078 937.429 214.268C937.79 214.453 938.183 214.545 938.608 214.545C939.168 214.545 939.654 214.378 940.064 214.037C940.48 213.7 940.737 213.224 940.838 212.607H942.306C942.196 213.299 941.953 213.87 941.578 214.314C941.208 214.761 940.757 215.093 940.226 215.306C939.7 215.514 939.142 215.618 938.55 215.618C937.793 215.618 937.12 215.451 936.528 215.122C935.941 214.793 935.476 214.297 935.13 213.634C934.789 212.965 934.621 212.128 934.621 211.119C934.621 210.19 934.797 209.383 935.153 208.697C935.514 208.013 936.002 207.485 936.62 207.116C937.244 206.741 937.943 206.551 938.723 206.551C939.515 206.551 940.185 206.733 940.734 207.093C941.28 207.457 941.696 207.958 941.982 208.604C942.274 209.25 942.421 209.997 942.421 210.842ZM938.689 207.624C938.01 207.624 937.441 207.863 936.979 208.339C936.516 208.818 936.242 209.516 936.158 210.438H941C940.936 209.539 940.714 208.847 940.33 208.362C939.943 207.872 939.397 207.624 938.689 207.624Z" fill="#191919"/>
<path d="M947.59 206.551C948.552 206.551 949.3 206.802 949.832 207.301C950.363 207.803 950.675 208.443 950.768 209.227H949.3C949.199 208.72 948.994 208.327 948.688 208.051C948.387 207.768 947.983 207.624 947.474 207.624C946.989 207.624 946.625 207.745 946.388 207.981C946.157 208.221 946.042 208.529 946.042 208.904C946.042 209.343 946.209 209.666 946.55 209.873C946.888 210.081 947.35 210.263 947.937 210.415C948.931 210.678 949.664 211.021 950.144 211.442C950.621 211.866 950.86 212.446 950.86 213.184C950.86 213.723 950.716 214.173 950.433 214.534C950.155 214.897 949.774 215.168 949.289 215.353C948.809 215.528 948.266 215.618 947.659 215.618C946.764 215.618 946.01 215.402 945.394 214.972C944.776 214.534 944.403 213.827 944.273 212.849H945.741C945.857 213.481 946.094 213.922 946.458 214.176C946.819 214.424 947.249 214.545 947.752 214.545C948.22 214.545 948.618 214.441 948.942 214.234C949.266 214.02 949.427 213.703 949.427 213.288C949.427 212.881 949.269 212.555 948.954 212.307C948.636 212.053 948.116 211.831 947.394 211.638C946.885 211.494 946.417 211.321 945.995 211.119C945.571 210.911 945.233 210.643 944.978 210.312C944.73 209.983 944.609 209.567 944.609 209.066C944.609 208.281 944.88 207.667 945.429 207.22C945.984 206.776 946.703 206.551 947.59 206.551Z" fill="#191919"/>
<path d="M312.291 66.0384V73.1096C312.291 73.2798 312.291 73.4499 312.291 73.6172C312.291 73.7874 312.28 73.9517 312.257 74.1132C312.202 74.7362 312.02 75.3014 311.714 75.809C311.404 76.3165 310.951 76.726 310.35 77.0317C309.755 77.3316 308.998 77.4816 308.073 77.4816C307.163 77.4816 306.404 77.3316 305.797 77.0317C305.196 76.726 304.74 76.3165 304.433 75.809C304.124 75.3014 303.942 74.7362 303.89 74.1132C303.881 73.9517 303.873 73.7874 303.867 73.6172C303.858 73.4499 303.855 73.2798 303.855 73.1096V66.0384H305.254V72.9828C305.254 73.1529 305.257 73.3231 305.265 73.4903C305.271 73.6605 305.28 73.822 305.288 73.9748C305.358 74.6756 305.624 75.2524 306.086 75.7051C306.554 76.1521 307.218 76.3742 308.073 76.3742C308.943 76.3742 309.605 76.1521 310.061 75.7051C310.523 75.2524 310.789 74.6756 310.858 73.9748C310.882 73.822 310.893 73.6605 310.893 73.4903C310.893 73.3231 310.893 73.1529 310.893 72.9828V66.0384H312.291Z" fill="#191919"/>
<path d="M322.695 70.9294C322.718 71.1457 322.729 71.362 322.729 71.5754C322.729 71.783 322.729 72.0599 322.729 72.406V77.2509H321.331V72.5098C321.331 72.2964 321.331 72.0916 321.331 71.8984C321.331 71.6994 321.319 71.4918 321.296 71.2755C321.25 70.7679 321.077 70.3498 320.776 70.0181C320.482 69.6893 320.002 69.5221 319.332 69.5221C318.884 69.5221 318.468 69.649 318.084 69.9028C317.705 70.1508 317.402 70.5603 317.171 71.137C316.946 71.7081 316.836 72.4838 316.836 73.4672V77.2509H315.438V68.6454H316.836V70.1219L317.379 69.1299C317.749 68.8473 318.107 68.6569 318.454 68.5646C318.8 68.4666 319.187 68.4147 319.621 68.4147C320.568 68.4147 321.299 68.6454 321.816 69.1068C322.339 69.5682 322.631 70.1767 322.695 70.9294Z" fill="#191919"/>
<path d="M326.604 65.8192C326.85 65.8192 327.058 65.9086 327.229 66.0845C327.405 66.2547 327.494 66.4623 327.494 66.7074C327.494 66.9612 327.405 67.1775 327.229 67.3534C327.058 67.5236 326.85 67.6072 326.604 67.6072C326.35 67.6072 326.134 67.5236 325.957 67.3534C325.787 67.1775 325.703 66.9612 325.703 66.7074C325.703 66.4623 325.787 66.2547 325.957 66.0845C326.134 65.9086 326.35 65.8192 326.604 65.8192ZM327.298 77.2509H325.9V68.6454H327.298V77.2509Z" fill="#191919"/>
<path d="M332.261 69.7758V74.7361C332.261 74.8745 332.261 74.9899 332.261 75.0822C332.261 75.1744 332.267 75.2783 332.284 75.3936C332.313 75.8089 332.434 76.08 332.642 76.2011C332.856 76.3165 333.234 76.3453 333.775 76.2819V77.297C333.567 77.3258 333.365 77.346 333.174 77.3547C332.98 77.3691 332.784 77.3777 332.584 77.3777C332.053 77.3777 331.643 77.2566 331.36 77.0201C331.082 76.7837 330.923 76.3972 330.886 75.8666C330.868 75.7512 330.863 75.607 330.863 75.4282C330.863 75.2437 330.863 75.0331 330.863 74.7938V69.7758H329.707V68.703H330.863V66.7074H332.261V68.703H333.879V69.7758H332.261Z" fill="#191919"/>
<path d="M343.574 72.7059C343.574 72.7693 343.574 72.8558 343.574 72.9712C343.574 73.0865 343.562 73.2192 343.539 73.3634H337.287C337.333 74.1247 337.472 74.7304 337.703 75.1745C337.934 75.6215 338.226 75.9416 338.582 76.1319C338.943 76.3165 339.336 76.4088 339.76 76.4088C340.321 76.4088 340.806 76.2415 341.216 75.9012C341.632 75.5638 341.889 75.088 341.991 74.4708H343.458C343.348 75.1629 343.106 75.7339 342.73 76.1781C342.36 76.6251 341.91 76.9567 341.378 77.1701C340.852 77.3778 340.295 77.4816 339.702 77.4816C338.946 77.4816 338.272 77.3143 337.68 76.9855C337.094 76.6568 336.629 76.1608 336.282 75.4975C335.941 74.8284 335.773 73.9921 335.773 72.9827C335.773 72.0541 335.95 71.2466 336.305 70.5603C336.666 69.8768 337.154 69.349 337.773 68.9799C338.397 68.605 339.096 68.4147 339.876 68.4147C340.667 68.4147 341.338 68.5964 341.887 68.9568C342.433 69.3202 342.849 69.822 343.135 70.468C343.426 71.114 343.574 71.8609 343.574 72.7059ZM339.841 69.4875C339.162 69.4875 338.593 69.7268 338.131 70.2027C337.669 70.6814 337.394 71.3793 337.31 72.3021H342.152C342.089 71.4024 341.866 70.7102 341.482 70.2257C341.095 69.7355 340.549 69.4875 339.841 69.4875Z" fill="#191919"/>
<path d="M353.771 65.3116V77.2509H352.372V75.8666L351.725 76.801C351.485 77.0029 351.153 77.1644 350.731 77.2855C350.315 77.4153 349.888 77.4816 349.449 77.4816C348.608 77.4816 347.894 77.2884 347.311 76.9048C346.724 76.5213 346.276 75.9993 345.97 75.336C345.67 74.6669 345.52 73.9142 345.52 73.075C345.52 72.0138 345.716 71.1428 346.109 70.4565C346.502 69.7643 347.016 69.2539 347.657 68.9223C348.305 68.5848 348.998 68.4147 349.737 68.4147C350.09 68.4147 350.468 68.4666 350.87 68.5647C351.277 68.6569 351.589 68.7954 351.806 68.9799L352.372 69.8336V65.3116H353.771ZM349.657 76.4088C350.133 76.4088 350.575 76.2992 350.986 76.0743C351.402 75.8522 351.737 75.4946 351.991 75.0015C352.245 74.5112 352.372 73.8537 352.372 73.0289V72.5559C352.372 71.8119 352.236 71.2149 351.968 70.7679C351.705 70.3152 351.37 69.9893 350.962 69.7874C350.552 69.5884 350.145 69.4875 349.737 69.4875C348.975 69.4875 348.333 69.7816 347.819 70.3642C347.311 70.941 347.056 71.7917 347.056 72.9135C347.056 73.5682 347.152 74.1565 347.345 74.6785C347.536 75.2033 347.825 75.6215 348.212 75.9358C348.596 76.2531 349.079 76.4088 349.657 76.4088Z" fill="#191919"/>
<path d="M365.31 71.5178L370.106 77.2509H368.141L364.282 72.4637L363.207 73.6172V77.2509H361.809V66.0384H363.207V72.0022L368.754 66.0384H370.395L365.31 71.5178Z" fill="#191919"/>
<path d="M372.808 65.8192C373.053 65.8192 373.261 65.9086 373.432 66.0845C373.608 66.2547 373.697 66.4623 373.697 66.7074C373.697 66.9612 373.608 67.1775 373.432 67.3534C373.261 67.5236 373.053 67.6072 372.808 67.6072C372.553 67.6072 372.337 67.5236 372.16 67.3534C371.99 67.1775 371.906 66.9612 371.906 66.7074C371.906 66.4623 371.99 66.2547 372.16 66.0845C372.337 65.9086 372.553 65.8192 372.808 65.8192ZM373.501 77.2509H372.103V68.6454H373.501V77.2509Z" fill="#191919"/>
<path d="M384.042 70.9294C384.065 71.1457 384.077 71.362 384.077 71.5754C384.077 71.783 384.077 72.0599 384.077 72.406V77.2509H382.679V72.5098C382.679 72.2964 382.679 72.0916 382.679 71.8984C382.679 71.6994 382.667 71.4918 382.644 71.2755C382.598 70.7679 382.424 70.3498 382.124 70.0181C381.829 69.6893 381.35 69.5221 380.68 69.5221C380.232 69.5221 379.816 69.649 379.431 69.9028C379.053 70.1508 378.75 70.5603 378.519 71.137C378.293 71.7081 378.183 72.4838 378.183 73.4672V77.2509H376.785V68.6454H378.183V70.1219L378.727 69.1299C379.096 68.8473 379.455 68.6569 379.801 68.5646C380.148 68.4666 380.535 68.4147 380.968 68.4147C381.916 68.4147 382.647 68.6454 383.164 69.1068C383.687 69.5682 383.979 70.1767 384.042 70.9294Z" fill="#191919"/>
<path d="M394.782 68.6454V75.1399C394.782 75.4109 394.782 75.6993 394.782 76.005C394.782 76.305 394.776 76.576 394.771 76.8125C394.724 78.0641 394.337 79.0187 393.615 79.6733C392.899 80.3337 391.916 80.6654 390.668 80.6654C389.443 80.6654 388.513 80.4174 387.883 79.9271C387.251 79.434 386.892 78.7303 386.809 77.8161L386.797 77.6546H388.207L388.23 77.8046C388.282 78.3352 388.519 78.7649 388.935 79.0965C389.351 79.4253 389.929 79.5926 390.668 79.5926C391.523 79.5926 392.176 79.3561 392.633 78.8889C393.086 78.4275 393.332 77.7844 393.372 76.9625C393.378 76.7548 393.384 76.5789 393.384 76.4318C393.384 76.2876 393.384 76.1492 393.384 76.0166V75.8666L392.737 76.801C392.497 77.0028 392.165 77.1643 391.743 77.2855C391.327 77.4152 390.899 77.4816 390.46 77.4816C389.62 77.4816 388.906 77.2884 388.322 76.9048C387.736 76.5212 387.288 75.9993 386.982 75.336C386.681 74.6669 386.531 73.9142 386.531 73.075C386.531 72.0137 386.728 71.1428 387.121 70.4565C387.514 69.7643 388.028 69.2539 388.669 68.9222C389.316 68.5848 390.01 68.4147 390.749 68.4147C391.102 68.4147 391.48 68.4666 391.882 68.5646C392.289 68.6569 392.601 68.7953 392.818 68.9799L393.384 69.8335V68.6454H394.782ZM390.668 76.4088C391.145 76.4088 391.587 76.2992 391.997 76.0742C392.413 75.8522 392.748 75.4946 393.003 75.0014C393.257 74.5112 393.384 73.8537 393.384 73.0289V72.5559C393.384 71.8119 393.248 71.2149 392.979 70.7679C392.717 70.3151 392.381 69.9893 391.974 69.7874C391.564 69.5884 391.157 69.4875 390.749 69.4875C389.986 69.4875 389.345 69.7816 388.831 70.3642C388.322 70.9409 388.068 71.7917 388.068 72.9135C388.068 73.5682 388.164 74.1565 388.357 74.6784C388.548 75.2033 388.837 75.6215 389.224 75.9358C389.608 76.253 390.09 76.4088 390.668 76.4088Z" fill="#191919"/>
<path d="M405.599 65.3116V77.2509H404.2V75.8666L403.553 76.801C403.313 77.0029 402.981 77.1644 402.559 77.2855C402.143 77.4153 401.716 77.4816 401.277 77.4816C400.436 77.4816 399.722 77.2884 399.139 76.9048C398.552 76.5213 398.105 75.9993 397.798 75.336C397.498 74.6669 397.348 73.9142 397.348 73.075C397.348 72.0138 397.544 71.1428 397.937 70.4565C398.33 69.7643 398.844 69.2539 399.486 68.9223C400.133 68.5848 400.826 68.4147 401.566 68.4147C401.918 68.4147 402.297 68.4666 402.698 68.5647C403.105 68.6569 403.417 68.7954 403.634 68.9799L404.2 69.8336V65.3116H405.599ZM401.485 76.4088C401.961 76.4088 402.403 76.2992 402.814 76.0743C403.23 75.8522 403.565 75.4946 403.819 75.0015C404.073 74.5112 404.2 73.8537 404.2 73.0289V72.5559C404.2 71.8119 404.065 71.2149 403.796 70.7679C403.533 70.3152 403.198 69.9893 402.791 69.7874C402.38 69.5884 401.973 69.4875 401.566 69.4875C400.803 69.4875 400.162 69.7816 399.647 70.3642C399.139 70.941 398.885 71.7917 398.885 72.9135C398.885 73.5682 398.98 74.1565 399.174 74.6785C399.364 75.2033 399.653 75.6215 400.04 75.9358C400.424 76.2531 400.907 76.4088 401.485 76.4088Z" fill="#191919"/>
<path d="M412.455 68.4147C413.426 68.4147 414.226 68.6223 414.859 69.0376C415.497 69.4529 415.968 70.0066 416.269 70.6987C416.575 71.3851 416.731 72.1349 416.731 72.9481C416.731 73.7498 416.575 74.4939 416.269 75.186C415.968 75.8781 415.497 76.4376 414.859 76.8587C414.226 77.2739 413.426 77.4816 412.455 77.4816C411.476 77.4816 410.67 77.2739 410.04 76.8587C409.407 76.4376 408.936 75.8781 408.63 75.186C408.321 74.4939 408.168 73.7498 408.168 72.9481C408.168 72.1349 408.321 71.3851 408.63 70.6987C408.936 70.0066 409.407 69.4529 410.04 69.0376C410.67 68.6223 411.476 68.4147 412.455 68.4147ZM412.455 76.4088C413.039 76.4088 413.533 76.2588 413.934 75.9589C414.342 75.659 414.654 75.2523 414.87 74.7361C415.084 74.2141 415.194 73.6172 415.194 72.9481C415.194 71.933 414.951 71.1024 414.466 70.4565C413.986 69.8105 413.316 69.4875 412.455 69.4875C411.583 69.4875 410.907 69.8105 410.421 70.4565C409.942 71.1024 409.705 71.933 409.705 72.9481C409.705 73.6172 409.812 74.2141 410.028 74.7361C410.242 75.2523 410.554 75.659 410.965 75.9589C411.372 76.2588 411.869 76.4088 412.455 76.4088Z" fill="#191919"/>
<path d="M430.706 70.5141C430.734 70.7304 430.755 70.9467 430.763 71.1601C430.778 71.3678 430.786 71.6446 430.786 71.9907V77.2509H429.388V72.6367C429.388 71.9157 429.365 71.3562 429.319 70.964C429.255 70.4795 429.076 70.119 428.776 69.8797C428.475 69.6432 428.082 69.5221 427.597 69.5221C427.233 69.5221 426.909 69.6317 426.626 69.8451C426.34 70.0614 426.118 70.4218 425.956 70.9294C425.794 71.4312 425.713 72.1176 425.713 72.9943V77.2509H424.304V72.6367C424.304 71.9157 424.283 71.3562 424.246 70.964C424.176 70.4795 423.992 70.119 423.691 69.8797C423.396 69.6432 423.009 69.5221 422.524 69.5221C422.16 69.5221 421.836 69.6317 421.553 69.8451C421.267 70.0614 421.039 70.4218 420.871 70.9294C420.71 71.4312 420.629 72.1176 420.629 72.9943V77.2509H419.23V68.6454H420.629V69.8912L421.183 68.9222C421.397 68.7377 421.66 68.6079 421.969 68.53C422.284 68.455 422.631 68.4147 423.009 68.4147C423.671 68.4147 424.211 68.5646 424.627 68.8646C425.043 69.1587 425.332 69.5423 425.494 70.0181L426.257 68.9222C426.479 68.7377 426.745 68.6079 427.054 68.53C427.36 68.455 427.704 68.4147 428.082 68.4147C428.851 68.4147 429.458 68.6165 429.897 69.0145C430.336 69.4154 430.604 69.9143 430.706 70.5141Z" fill="#191919"/>
<path d="M650.113 203.191H648.715V191.978H650.113V203.191Z" fill="#191919"/>
<path d="M660.652 196.869C660.675 197.086 660.686 197.302 660.686 197.515C660.686 197.723 660.686 198 660.686 198.346V203.191H659.288V198.45C659.288 198.236 659.288 198.031 659.288 197.838C659.288 197.639 659.277 197.432 659.253 197.215C659.207 196.708 659.034 196.29 658.733 195.958C658.439 195.629 657.959 195.462 657.289 195.462C656.841 195.462 656.425 195.589 656.041 195.843C655.662 196.091 655.359 196.5 655.128 197.077C654.903 197.648 654.793 198.424 654.793 199.407V203.191H653.395V194.585H654.793V196.062L655.336 195.07C655.706 194.787 656.064 194.597 656.411 194.505C656.757 194.406 657.144 194.355 657.578 194.355C658.525 194.355 659.256 194.585 659.773 195.047C660.296 195.508 660.588 196.117 660.652 196.869Z" fill="#191919"/>
<path d="M671.388 191.252V203.191H669.989V201.807L669.342 202.741C669.102 202.943 668.77 203.104 668.348 203.225C667.932 203.355 667.505 203.421 667.066 203.421C666.225 203.421 665.511 203.228 664.928 202.845C664.341 202.461 663.894 201.939 663.587 201.276C663.287 200.607 663.137 199.854 663.137 199.015C663.137 197.954 663.333 197.083 663.726 196.396C664.119 195.704 664.633 195.194 665.275 194.862C665.922 194.525 666.615 194.355 667.355 194.355C667.707 194.355 668.086 194.406 668.487 194.505C668.894 194.597 669.207 194.735 669.423 194.92L669.989 195.773V191.252H671.388ZM667.274 202.349C667.75 202.349 668.192 202.239 668.603 202.014C669.019 201.792 669.354 201.434 669.608 200.941C669.862 200.451 669.989 199.794 669.989 198.969V198.496C669.989 197.752 669.854 197.155 669.585 196.708C669.322 196.255 668.987 195.929 668.58 195.727C668.169 195.528 667.762 195.427 667.355 195.427C666.592 195.427 665.951 195.722 665.436 196.304C664.928 196.881 664.674 197.732 664.674 198.853C664.674 199.508 664.769 200.096 664.963 200.618C665.153 201.143 665.442 201.561 665.829 201.876C666.214 202.193 666.696 202.349 667.274 202.349Z" fill="#191919"/>
<path d="M675.378 191.759C675.623 191.759 675.832 191.848 676.002 192.024C676.178 192.195 676.268 192.402 676.268 192.647C676.268 192.901 676.178 193.117 676.002 193.293C675.832 193.463 675.623 193.547 675.378 193.547C675.124 193.547 674.907 193.463 674.731 193.293C674.56 193.117 674.477 192.901 674.477 192.647C674.477 192.402 674.56 192.195 674.731 192.024C674.907 191.848 675.124 191.759 675.378 191.759ZM676.071 203.191H674.673V194.585H676.071V203.191Z" fill="#191919"/>
<path d="M684.305 203.191L684.166 201.956L683.692 202.879C683.397 203.087 683.068 203.228 682.698 203.306C682.328 203.381 681.936 203.421 681.52 203.421C681.002 203.421 680.531 203.323 680.11 203.133C679.694 202.943 679.361 202.666 679.116 202.303C678.867 201.942 678.746 201.495 678.746 200.964C678.746 199.99 679.13 199.254 679.902 198.761C680.67 198.262 681.901 198.011 683.588 198.011H684.143V197.781C684.143 197.596 684.143 197.42 684.143 197.25C684.143 197.074 684.131 196.904 684.108 196.742C684.076 196.344 683.935 196.024 683.681 195.785C683.426 195.548 683.01 195.427 682.432 195.427C681.846 195.427 681.404 195.583 681.104 195.889C680.809 196.197 680.635 196.65 680.583 197.25H679.116C679.185 196.327 679.515 195.618 680.11 195.116C680.702 194.608 681.476 194.355 682.432 194.355C683.464 194.355 684.212 194.559 684.674 194.966C685.142 195.375 685.417 195.929 685.495 196.627C685.518 196.806 685.529 196.993 685.529 197.192C685.535 197.394 685.541 197.584 685.541 197.769V200.999C685.541 201.322 685.553 201.651 685.576 201.98C685.599 202.311 685.639 202.715 685.703 203.191H684.305ZM681.993 202.349C682.646 202.349 683.166 202.141 683.553 201.726C683.946 201.305 684.143 200.705 684.143 199.926V199.049C682.964 198.966 682.022 199.061 681.323 199.338C680.621 199.615 680.271 200.119 680.271 200.849C680.271 201.374 680.425 201.755 680.734 201.991C681.04 202.23 681.462 202.349 681.993 202.349Z" fill="#191919"/>
<path d="M105.429 31.5391C106.383 31.5391 107.186 31.7063 107.833 32.0351C108.486 32.3667 108.991 32.8166 109.347 33.3847C109.708 33.9471 109.927 34.596 110.005 35.3342L110.017 35.4957H108.619L108.584 35.3342C108.422 34.5354 108.081 33.8894 107.567 33.3963C107.05 32.8974 106.325 32.6465 105.395 32.6465C104.638 32.6465 103.979 32.8512 103.418 33.2579C102.864 33.6587 102.436 34.2153 102.136 34.9305C101.835 35.6399 101.685 36.4474 101.685 37.353C101.685 38.2758 101.83 39.0948 102.124 39.81C102.416 40.5194 102.832 41.076 103.372 41.4827C103.918 41.8922 104.562 42.094 105.302 42.094C106.232 42.094 106.957 41.846 107.475 41.3442C107.989 40.8453 108.33 40.1965 108.492 39.3947L108.526 39.2332H109.924L109.901 39.3947C109.838 40.0724 109.624 40.6982 109.254 41.275C108.884 41.8518 108.364 42.319 107.694 42.6708C107.03 43.0226 106.206 43.2014 105.221 43.2014C104.135 43.2014 103.21 42.9477 102.448 42.4401C101.691 41.9268 101.113 41.2346 100.714 40.3637C100.321 39.4957 100.125 38.5123 100.125 37.4106C100.125 36.2802 100.345 35.2737 100.784 34.3883C101.223 33.4972 101.838 32.8022 102.633 32.3004C103.433 31.7928 104.366 31.5391 105.429 31.5391Z" fill="#191919"/>
<path d="M117.695 42.9707L117.556 41.7364L117.083 42.6593C116.788 42.8669 116.459 43.0082 116.089 43.0861C115.719 43.161 115.326 43.2014 114.91 43.2014C114.393 43.2014 113.922 43.1034 113.5 42.913C113.084 42.7227 112.752 42.4458 112.507 42.0825C112.258 41.722 112.137 41.275 112.137 40.7444C112.137 39.7696 112.521 39.0342 113.292 38.5411C114.061 38.0422 115.292 37.7913 116.979 37.7913H117.533V37.5606C117.533 37.376 117.533 37.2001 117.533 37.0299C117.533 36.854 117.522 36.6839 117.499 36.5224C117.467 36.1244 117.325 35.8043 117.071 35.5649C116.817 35.3284 116.401 35.2073 115.823 35.2073C115.237 35.2073 114.795 35.3631 114.494 35.6687C114.199 35.9773 114.026 36.4301 113.974 37.0299H112.507C112.576 36.1071 112.905 35.3977 113.5 34.8959C114.093 34.3883 114.867 34.1345 115.823 34.1345C116.854 34.1345 117.603 34.3393 118.065 34.7459C118.533 35.1554 118.807 35.7091 118.885 36.407C118.909 36.5858 118.92 36.7733 118.92 36.9723C118.926 37.1741 118.932 37.3645 118.932 37.549V40.779C118.932 41.102 118.943 41.4307 118.966 41.7595C118.989 42.0911 119.03 42.4949 119.093 42.9707H117.695ZM115.384 42.1286C116.037 42.1286 116.557 41.921 116.944 41.5057C117.337 41.0847 117.533 40.4848 117.533 39.7062V38.8295C116.355 38.7458 115.413 38.841 114.714 39.1179C114.012 39.3947 113.662 39.8994 113.662 40.629C113.662 41.1539 113.815 41.5345 114.124 41.771C114.431 42.0104 114.852 42.1286 115.384 42.1286Z" fill="#191919"/>
<path d="M129.456 36.6493C129.479 36.8655 129.491 37.0818 129.491 37.2952C129.491 37.5029 129.491 37.7797 129.491 38.1258V42.9707H128.093V38.2296C128.093 38.0162 128.093 37.8115 128.093 37.6182C128.093 37.4193 128.081 37.2116 128.058 36.9953C128.012 36.4878 127.839 36.0696 127.538 35.738C127.243 35.4092 126.764 35.2419 126.094 35.2419C125.646 35.2419 125.23 35.3688 124.846 35.6226C124.467 35.8706 124.164 36.2801 123.933 36.8569C123.707 37.4279 123.597 38.2037 123.597 39.1871V42.9707H122.199V34.3652H123.597V35.8418L124.141 34.8497C124.51 34.5671 124.869 34.3768 125.215 34.2845C125.562 34.1864 125.949 34.1345 126.382 34.1345C127.33 34.1345 128.061 34.3652 128.578 34.8267C129.101 35.2881 129.393 35.8966 129.456 36.6493Z" fill="#191919"/>
<path d="M137.605 42.9707L137.467 41.7364L136.993 42.6593C136.698 42.8669 136.369 43.0082 135.999 43.0861C135.629 43.161 135.236 43.2014 134.82 43.2014C134.303 43.2014 133.832 43.1034 133.41 42.913C132.994 42.7227 132.662 42.4458 132.417 42.0825C132.168 41.722 132.047 41.275 132.047 40.7444C132.047 39.7696 132.431 39.0342 133.202 38.5411C133.971 38.0422 135.202 37.7913 136.889 37.7913H137.444V37.5606C137.444 37.376 137.444 37.2001 137.444 37.0299C137.444 36.854 137.432 36.6839 137.409 36.5224C137.377 36.1244 137.236 35.8043 136.981 35.5649C136.727 35.3284 136.311 35.2073 135.733 35.2073C135.147 35.2073 134.705 35.3631 134.404 35.6687C134.11 35.9773 133.936 36.4301 133.884 37.0299H132.417C132.486 36.1071 132.815 35.3977 133.41 34.8959C134.003 34.3883 134.777 34.1345 135.733 34.1345C136.765 34.1345 137.513 34.3393 137.975 34.7459C138.443 35.1554 138.718 35.7091 138.796 36.407C138.819 36.5858 138.83 36.7733 138.83 36.9723C138.836 37.1741 138.842 37.3645 138.842 37.549V40.779C138.842 41.102 138.853 41.4307 138.876 41.7595C138.9 42.0911 138.94 42.4949 139.004 42.9707H137.605ZM135.294 42.1286C135.947 42.1286 136.467 41.921 136.854 41.5057C137.247 41.0847 137.444 40.4848 137.444 39.7062V38.8295C136.265 38.7458 135.323 38.841 134.624 39.1179C133.922 39.3947 133.572 39.8994 133.572 40.629C133.572 41.1539 133.725 41.5345 134.035 41.771C134.341 42.0104 134.763 42.1286 135.294 42.1286Z" fill="#191919"/>
<path d="M149.646 31.0315V42.9707H148.247V41.5865L147.6 42.5208C147.36 42.7227 147.028 42.8842 146.606 43.0053C146.19 43.1351 145.763 43.2014 145.324 43.2014C144.483 43.2014 143.769 43.0082 143.186 42.6247C142.599 42.2411 142.151 41.7191 141.845 41.0558C141.545 40.3868 141.395 39.6341 141.395 38.7949C141.395 37.7336 141.591 36.8627 141.984 36.1763C142.377 35.4842 142.891 34.9737 143.532 34.6421C144.18 34.3047 144.873 34.1345 145.612 34.1345C145.965 34.1345 146.343 34.1865 146.745 34.2845C147.152 34.3768 147.464 34.5152 147.681 34.6998L148.247 35.5534V31.0315H149.646ZM145.532 42.1286C146.008 42.1286 146.45 42.0191 146.861 41.7941C147.277 41.5721 147.612 41.2145 147.866 40.7213C148.12 40.2311 148.247 39.5735 148.247 38.7487V38.2758C148.247 37.5317 148.111 36.9348 147.843 36.4878C147.58 36.035 147.245 35.7091 146.837 35.5073C146.427 35.3083 146.02 35.2073 145.612 35.2073C144.85 35.2073 144.208 35.5015 143.694 36.084C143.186 36.6608 142.931 37.5116 142.931 38.6334C142.931 39.288 143.027 39.8763 143.22 40.3983C143.411 40.9232 143.7 41.3413 144.087 41.6557C144.471 41.9729 144.954 42.1286 145.532 42.1286Z" fill="#191919"/>
<path d="M157.875 42.9707L157.736 41.7364L157.262 42.6593C156.968 42.8669 156.638 43.0082 156.269 43.0861C155.899 43.161 155.506 43.2014 155.09 43.2014C154.573 43.2014 154.102 43.1034 153.68 42.913C153.264 42.7227 152.932 42.4458 152.686 42.0825C152.438 41.722 152.316 41.275 152.316 40.7444C152.316 39.7696 152.701 39.0342 153.472 38.5411C154.24 38.0422 155.471 37.7913 157.158 37.7913H157.713V37.5606C157.713 37.376 157.713 37.2001 157.713 37.0299C157.713 36.854 157.701 36.6839 157.678 36.5224C157.647 36.1244 157.505 35.8043 157.251 35.5649C156.997 35.3284 156.581 35.2073 156.003 35.2073C155.416 35.2073 154.974 35.3631 154.674 35.6687C154.379 35.9773 154.206 36.4301 154.154 37.0299H152.686C152.756 36.1071 153.085 35.3977 153.68 34.8959C154.272 34.3883 155.047 34.1345 156.003 34.1345C157.034 34.1345 157.782 34.3393 158.245 34.7459C158.713 35.1554 158.987 35.7091 159.065 36.407C159.088 36.5858 159.1 36.7733 159.1 36.9723C159.106 37.1741 159.111 37.3645 159.111 37.549V40.779C159.111 41.102 159.123 41.4307 159.146 41.7595C159.169 42.0911 159.21 42.4949 159.273 42.9707H157.875ZM155.564 42.1286C156.217 42.1286 156.737 41.921 157.124 41.5057C157.517 41.0847 157.713 40.4848 157.713 39.7062V38.8295C156.534 38.7458 155.593 38.841 154.893 39.1179C154.191 39.3947 153.842 39.8994 153.842 40.629C153.842 41.1539 153.995 41.5345 154.304 41.771C154.61 42.0104 155.032 42.1286 155.564 42.1286Z" fill="#191919"/>
<path d="M900.936 109.245V116.166C900.936 116.374 900.936 116.581 900.936 116.789C900.936 116.997 900.924 117.239 900.901 117.516C900.846 118.462 900.526 119.229 899.942 119.811C899.356 120.397 898.466 120.688 897.273 120.688C896.233 120.688 895.415 120.388 894.823 119.788C894.236 119.183 893.933 118.355 893.91 117.308L893.887 116.639H895.297L895.32 117.308C895.395 118.825 896.111 119.581 897.469 119.581C898.122 119.581 898.616 119.39 898.948 119.004C899.286 118.62 899.48 118.098 899.526 117.435C899.532 117.274 899.538 117.089 899.538 116.881C899.538 116.668 899.538 116.414 899.538 116.12V109.245H900.936Z" fill="#191919"/>
<path d="M908.808 120.457L908.67 119.223L908.196 120.146C907.901 120.353 907.572 120.495 907.202 120.573C906.832 120.648 906.439 120.688 906.023 120.688C905.506 120.688 905.035 120.59 904.614 120.4C904.198 120.209 903.865 119.932 903.62 119.569C903.371 119.209 903.25 118.762 903.25 118.231C903.25 117.256 903.634 116.521 904.406 116.028C905.174 115.529 906.405 115.278 908.092 115.278H908.647V115.047C908.647 114.863 908.647 114.687 908.647 114.517C908.647 114.341 908.635 114.17 908.612 114.009C908.58 113.611 908.439 113.291 908.184 113.051C907.93 112.815 907.514 112.694 906.936 112.694C906.35 112.694 905.908 112.85 905.607 113.155C905.313 113.464 905.139 113.917 905.087 114.517H903.62C903.689 113.594 904.018 112.884 904.614 112.382C905.206 111.875 905.98 111.621 906.936 111.621C907.968 111.621 908.716 111.826 909.178 112.232C909.646 112.642 909.921 113.196 909.999 113.894C910.022 114.072 910.033 114.26 910.033 114.459C910.039 114.661 910.045 114.851 910.045 115.036V118.266C910.045 118.589 910.056 118.917 910.08 119.246C910.103 119.578 910.143 119.981 910.207 120.457H908.808ZM906.497 119.615C907.15 119.615 907.67 119.408 908.057 118.992C908.45 118.571 908.647 117.971 908.647 117.193V116.316C907.468 116.232 906.526 116.328 905.827 116.604C905.125 116.881 904.775 117.386 904.775 118.116C904.775 118.64 904.929 119.021 905.238 119.258C905.544 119.497 905.966 119.615 906.497 119.615Z" fill="#191919"/>
<path d="M917.646 111.621C918.492 111.621 919.206 111.814 919.784 112.198C920.362 112.584 920.801 113.106 921.101 113.767C921.407 114.43 921.563 115.183 921.563 116.028C921.563 117.089 921.367 117.963 920.974 118.646C920.587 119.333 920.076 119.843 919.437 120.18C918.796 120.518 918.1 120.688 917.346 120.688C916.99 120.688 916.612 120.633 916.213 120.526C915.811 120.428 915.502 120.29 915.289 120.111L914.711 119.269V123.641H913.312V111.852H914.711V113.225L915.369 112.302C915.615 112.094 915.947 111.93 916.363 111.806C916.779 111.685 917.207 111.621 917.646 111.621ZM917.346 119.615C918.108 119.615 918.747 119.327 919.264 118.75C919.778 118.167 920.038 117.314 920.038 116.189C920.038 115.537 919.937 114.943 919.738 114.413C919.544 113.882 919.255 113.464 918.871 113.155C918.484 112.85 918.004 112.694 917.426 112.694C916.947 112.694 916.502 112.806 916.086 113.028C915.676 113.253 915.346 113.611 915.092 114.101C914.838 114.594 914.711 115.252 914.711 116.074V116.547C914.711 117.279 914.841 117.873 915.104 118.335C915.372 118.79 915.71 119.116 916.121 119.315C916.528 119.517 916.935 119.615 917.346 119.615Z" fill="#191919"/>
<path d="M929.012 120.457L928.873 119.223L928.399 120.146C928.104 120.353 927.775 120.495 927.405 120.573C927.035 120.648 926.643 120.688 926.227 120.688C925.709 120.688 925.239 120.59 924.817 120.4C924.401 120.209 924.068 119.932 923.823 119.569C923.574 119.209 923.453 118.762 923.453 118.231C923.453 117.256 923.837 116.521 924.609 116.028C925.377 115.529 926.608 115.278 928.295 115.278H928.85V115.047C928.85 114.863 928.85 114.687 928.85 114.517C928.85 114.341 928.838 114.17 928.815 114.009C928.783 113.611 928.642 113.291 928.388 113.051C928.133 112.815 927.717 112.694 927.139 112.694C926.553 112.694 926.111 112.85 925.811 113.155C925.516 113.464 925.343 113.917 925.291 114.517H923.823C923.892 113.594 924.222 112.884 924.817 112.382C925.409 111.875 926.183 111.621 927.139 111.621C928.171 111.621 928.919 111.826 929.381 112.232C929.849 112.642 930.124 113.196 930.202 113.894C930.225 114.072 930.236 114.26 930.236 114.459C930.242 114.661 930.248 114.851 930.248 115.036V118.266C930.248 118.589 930.26 118.917 930.283 119.246C930.306 119.578 930.346 119.981 930.41 120.457H929.012ZM926.7 119.615C927.353 119.615 927.873 119.408 928.26 118.992C928.653 118.571 928.85 117.971 928.85 117.193V116.316C927.671 116.232 926.729 116.328 926.03 116.604C925.328 116.881 924.979 117.386 924.979 118.116C924.979 118.64 925.132 119.021 925.441 119.258C925.747 119.497 926.169 119.615 926.7 119.615Z" fill="#191919"/>
<path d="M940.777 114.136C940.8 114.352 940.811 114.568 940.811 114.782C940.811 114.989 940.811 115.266 940.811 115.612V120.457H939.413V115.716C939.413 115.503 939.413 115.298 939.413 115.105C939.413 114.906 939.402 114.698 939.378 114.482C939.332 113.974 939.159 113.556 938.858 113.225C938.564 112.896 938.084 112.729 937.414 112.729C936.966 112.729 936.55 112.855 936.166 113.109C935.787 113.357 935.484 113.767 935.253 114.343C935.028 114.914 934.918 115.69 934.918 116.674V120.457H933.52V111.852H934.918V113.328L935.461 112.336C935.831 112.054 936.189 111.863 936.536 111.771C936.882 111.673 937.269 111.621 937.703 111.621C938.65 111.621 939.381 111.852 939.898 112.313C940.421 112.775 940.713 113.383 940.777 114.136Z" fill="#191919"/>
<path d="M559.264 65.8192C560.041 65.8192 560.697 65.9634 561.229 66.246C561.76 66.5315 562.176 66.9266 562.477 67.4342C562.777 67.936 562.956 68.5041 563.02 69.1414H561.529C561.46 68.4435 561.22 67.9014 560.813 67.5149C560.411 67.1227 559.856 66.9266 559.149 66.9266C558.553 66.9266 558.051 67.0708 557.635 67.3534C557.225 67.6303 557.022 68.0629 557.022 68.6454C557.022 69.2539 557.207 69.7124 557.577 70.0181C557.953 70.3267 558.571 70.5776 559.426 70.7679C560.665 71.0534 561.593 71.4687 562.211 72.0138C562.826 72.5531 563.135 73.3 563.135 74.2517C563.135 74.9063 562.965 75.4744 562.627 75.9589C562.286 76.4434 561.824 76.8212 561.24 77.0894C560.662 77.3489 560.01 77.4816 559.287 77.4816C558.045 77.4816 557.051 77.1874 556.306 76.5934C555.558 75.9935 555.121 75.1514 555 74.0671H556.502C556.664 74.8054 556.991 75.3764 557.485 75.7743C557.976 76.1752 558.585 76.3742 559.31 76.3742C559.949 76.3742 560.495 76.2098 560.951 75.8782C561.414 75.5494 561.645 75.0909 561.645 74.5054C561.645 73.822 561.431 73.3029 561.009 72.9481C560.584 72.5877 559.88 72.2964 558.894 72.0715C558.23 71.9186 557.646 71.7196 557.138 71.4716C556.635 71.2178 556.239 70.8919 555.948 70.4911C555.662 70.0931 555.52 69.5856 555.52 68.9684C555.52 68.3166 555.688 67.7543 556.028 67.2842C556.366 66.817 556.817 66.4537 557.381 66.1999C557.95 65.9461 558.577 65.8192 559.264 65.8192Z" fill="#191919"/>
<path d="M577.165 68.6454L574.415 77.2509H572.751L570.833 70.0066L568.914 77.2509H567.25L564.5 68.6454H566.118L568.117 75.9243L570.001 68.6454H571.746L573.664 75.8666L575.663 68.6454H577.165Z" fill="#191919"/>
<path d="M579.979 65.8192C580.225 65.8192 580.433 65.9086 580.604 66.0845C580.78 66.2547 580.869 66.4623 580.869 66.7074C580.869 66.9612 580.78 67.1775 580.604 67.3534C580.433 67.5236 580.225 67.6072 579.979 67.6072C579.725 67.6072 579.509 67.5236 579.332 67.3534C579.162 67.1775 579.078 66.9612 579.078 66.7074C579.078 66.4623 579.162 66.2547 579.332 66.0845C579.509 65.9086 579.725 65.8192 579.979 65.8192ZM580.673 77.2509H579.275V68.6454H580.673V77.2509Z" fill="#191919"/>
<path d="M585.636 69.7758V74.7361C585.636 74.8745 585.636 74.9899 585.636 75.0822C585.636 75.1744 585.642 75.2783 585.659 75.3936C585.688 75.8089 585.809 76.08 586.017 76.2011C586.231 76.3165 586.609 76.3453 587.15 76.2819V77.297C586.942 77.3258 586.74 77.346 586.549 77.3547C586.355 77.3691 586.159 77.3777 585.959 77.3777C585.428 77.3777 585.018 77.2566 584.735 77.0201C584.457 76.7837 584.298 76.3972 584.261 75.8666C584.243 75.7512 584.238 75.607 584.238 75.4282C584.238 75.2437 584.238 75.0331 584.238 74.7938V69.7758H583.082V68.703H584.238V66.7074H585.636V68.703H587.254V69.7758H585.636Z" fill="#191919"/>
<path d="M595.714 76.1435V77.2509H588.988V76.1781L594.004 69.8105H589.347V68.7031H595.633V69.8335L590.652 76.1435H595.714Z" fill="#191919"/>
<path d="M605.277 72.7059C605.277 72.7693 605.277 72.8558 605.277 72.9712C605.277 73.0865 605.265 73.2192 605.242 73.3634H598.99C599.037 74.1247 599.175 74.7304 599.406 75.1745C599.638 75.6215 599.929 75.9416 600.285 76.1319C600.646 76.3165 601.039 76.4088 601.463 76.4088C602.024 76.4088 602.509 76.2415 602.919 75.9012C603.335 75.5638 603.593 75.088 603.694 74.4708H605.161C605.052 75.1629 604.809 75.7339 604.433 76.1781C604.063 76.6251 603.613 76.9567 603.081 77.1701C602.555 77.3778 601.998 77.4816 601.406 77.4816C600.649 77.4816 599.976 77.3143 599.383 76.9855C598.797 76.6568 598.332 76.1608 597.985 75.4975C597.644 74.8284 597.477 73.9921 597.477 72.9827C597.477 72.0541 597.653 71.2466 598.008 70.5603C598.369 69.8768 598.858 69.349 599.476 68.9799C600.1 68.605 600.799 68.4147 601.579 68.4147C602.371 68.4147 603.041 68.5964 603.59 68.9568C604.136 69.3202 604.552 69.822 604.838 70.468C605.13 71.114 605.277 71.8609 605.277 72.7059ZM601.544 69.4875C600.865 69.4875 600.296 69.7268 599.834 70.2027C599.372 70.6814 599.097 71.3793 599.014 72.3021H603.855C603.792 71.4024 603.569 70.7102 603.185 70.2257C602.798 69.7355 602.252 69.4875 601.544 69.4875Z" fill="#191919"/>
<path d="M611.323 68.4493C611.56 68.4493 611.757 68.4897 611.913 68.5646V69.6144C611.179 69.5625 610.566 69.7586 610.075 70.2027C609.581 70.6497 609.336 71.3649 609.336 72.3483V77.2509H607.938V68.6454H609.336V69.995L610.122 68.8415C610.497 68.5819 610.899 68.4493 611.323 68.4493Z" fill="#191919"/>
<path d="M615.461 65.3116V74.7823C615.461 74.9149 615.461 75.0476 615.461 75.186C615.461 75.3187 615.464 75.4513 615.472 75.5898C615.495 75.8666 615.579 76.057 615.727 76.155C615.88 76.2559 616.148 76.2877 616.535 76.2473V77.2509C616.379 77.274 616.215 77.2884 616.039 77.297C615.868 77.3114 615.703 77.3201 615.542 77.3201C615.14 77.3201 614.802 77.2336 614.525 77.0548C614.247 76.8702 614.097 76.5097 614.074 75.9704C614.065 75.8176 614.062 75.6474 614.062 75.4629C614.062 75.2783 614.062 75.0678 614.062 74.8284V65.3116H615.461Z" fill="#191919"/>
<path d="M623.898 77.2509L623.76 76.0166L623.286 76.9394C622.991 77.147 622.662 77.2884 622.292 77.3662C621.922 77.4412 621.529 77.4816 621.113 77.4816C620.596 77.4816 620.125 77.3835 619.703 77.1932C619.287 77.0028 618.955 76.726 618.71 76.3626C618.461 76.0021 618.34 75.5551 618.34 75.0245C618.34 74.0498 618.724 73.3144 619.495 72.8212C620.264 72.3223 621.495 72.0714 623.182 72.0714H623.736V71.8407C623.736 71.6561 623.736 71.4802 623.736 71.3101C623.736 71.1342 623.725 70.964 623.702 70.8025C623.67 70.4045 623.528 70.0844 623.274 69.8451C623.02 69.6086 622.604 69.4875 622.026 69.4875C621.44 69.4875 620.998 69.6432 620.697 69.9489C620.403 70.2575 620.229 70.7102 620.177 71.3101H618.71C618.779 70.3872 619.108 69.6778 619.703 69.176C620.296 68.6685 621.07 68.4147 622.026 68.4147C623.058 68.4147 623.806 68.6194 624.268 69.0261C624.736 69.4356 625.011 69.9893 625.089 70.6872C625.112 70.866 625.123 71.0534 625.123 71.2524C625.129 71.4543 625.135 71.6446 625.135 71.8292V75.0591C625.135 75.3821 625.146 75.7109 625.169 76.0396C625.193 76.3713 625.233 76.775 625.297 77.2509H623.898ZM621.587 76.4088C622.24 76.4088 622.76 76.2011 623.147 75.7859C623.54 75.3648 623.736 74.765 623.736 73.9863V73.1096C622.558 73.026 621.616 73.1212 620.917 73.398C620.215 73.6749 619.865 74.1795 619.865 74.9092C619.865 75.434 620.018 75.8147 620.327 76.0512C620.634 76.2905 621.056 76.4088 621.587 76.4088Z" fill="#191919"/>
<path d="M635.663 70.9294C635.687 71.1457 635.698 71.362 635.698 71.5754C635.698 71.783 635.698 72.0599 635.698 72.406V77.2509H634.3V72.5098C634.3 72.2964 634.3 72.0916 634.3 71.8984C634.3 71.6994 634.288 71.4918 634.265 71.2755C634.219 70.7679 634.046 70.3498 633.745 70.0181C633.45 69.6893 632.971 69.5221 632.301 69.5221C631.853 69.5221 631.437 69.649 631.053 69.9028C630.674 70.1508 630.371 70.5603 630.14 71.137C629.914 71.7081 629.805 72.4838 629.805 73.4672V77.2509H628.406V68.6454H629.805V70.1219L630.348 69.1299C630.717 68.8473 631.076 68.6569 631.422 68.5646C631.769 68.4666 632.156 68.4147 632.59 68.4147C633.537 68.4147 634.268 68.6454 634.785 69.1068C635.308 69.5682 635.6 70.1767 635.663 70.9294Z" fill="#191919"/>
<path d="M646.399 65.3116V77.2509H645.001V75.8666L644.354 76.801C644.114 77.0029 643.782 77.1644 643.36 77.2855C642.944 77.4153 642.517 77.4816 642.077 77.4816C641.237 77.4816 640.523 77.2884 639.94 76.9048C639.353 76.5213 638.905 75.9993 638.599 75.336C638.299 74.6669 638.148 73.9142 638.148 73.075C638.148 72.0138 638.345 71.1428 638.738 70.4565C639.131 69.7643 639.645 69.2539 640.286 68.9223C640.933 68.5848 641.627 68.4147 642.366 68.4147C642.719 68.4147 643.097 68.4666 643.499 68.5647C643.906 68.6569 644.218 68.7954 644.435 68.9799L645.001 69.8336V65.3116H646.399ZM642.285 76.4088C642.762 76.4088 643.204 76.2992 643.614 76.0743C644.03 75.8522 644.366 75.4946 644.62 75.0015C644.874 74.5112 645.001 73.8537 645.001 73.0289V72.5559C645.001 71.8119 644.865 71.2149 644.597 70.7679C644.334 70.3152 643.999 69.9893 643.591 69.7874C643.181 69.5884 642.774 69.4875 642.366 69.4875C641.604 69.4875 640.962 69.7816 640.448 70.3642C639.94 70.941 639.685 71.7917 639.685 72.9135C639.685 73.5682 639.781 74.1565 639.974 74.6785C640.165 75.2033 640.454 75.6215 640.841 75.9358C641.225 76.2531 641.708 76.4088 642.285 76.4088Z" fill="#191919"/>
<path d="M842.489 358.731H842.442C837.384 358.734 833.284 362.835 833.293 367.885C833.293 368.981 834.217 371.394 835.087 373.75C836.3 377.047 841.743 389.742 842.468 390.595C842.468 390.595 842.483 390.636 842.494 390.627C842.503 390.636 842.518 390.595 842.518 390.595C843.243 389.739 848.218 377.563 849.879 373.733C850.881 371.432 851.664 368.957 851.661 367.862C851.655 362.812 847.55 358.723 842.489 358.731Z" fill="#004AAD"/>
<path d="M842.481 374.673C838.82 374.676 835.851 371.717 835.848 368.066C835.845 364.41 838.809 361.445 842.466 361.442C846.127 361.439 849.097 364.395 849.102 368.049C849.105 371.703 846.141 374.668 842.481 374.673Z" fill="white"/>
<path d="M869.699 376.247H865.562L864.245 380.216H862.754L866.787 369.003H868.671L872.542 380.216H871.04L869.699 376.247ZM865.955 375.117H869.329L867.7 370.111L865.955 375.117Z" fill="#191919"/>
<path d="M881.854 371.61V380.216H880.456V378.751L879.913 379.766C879.543 380.037 879.188 380.216 878.85 380.308C878.509 380.4 878.116 380.446 877.671 380.446C876.775 380.446 876.071 380.23 875.556 379.8C875.048 379.362 874.742 378.849 874.643 378.255C874.612 378.033 874.589 377.816 874.574 377.609C874.565 377.401 874.562 377.124 874.562 376.778V371.61H875.961V376.513C875.961 376.651 875.964 376.833 875.972 377.055C875.987 377.271 876.007 377.488 876.03 377.701C876.091 378.185 876.29 378.583 876.631 378.889C876.978 379.189 877.443 379.339 878.029 379.339C878.483 379.339 878.89 379.218 879.254 378.97C879.615 378.716 879.904 378.301 880.121 377.724C880.343 377.147 880.456 376.372 880.456 375.394V371.61H881.854Z" fill="#191919"/>
<path d="M887.641 371.38C888.603 371.38 889.351 371.63 889.883 372.129C890.414 372.631 890.726 373.271 890.819 374.056H889.351C889.25 373.548 889.045 373.156 888.739 372.879C888.438 372.597 888.034 372.452 887.525 372.452C887.04 372.452 886.676 372.573 886.439 372.81C886.208 373.049 886.092 373.358 886.092 373.733C886.092 374.171 886.26 374.494 886.601 374.702C886.939 374.909 887.401 375.091 887.987 375.244C888.981 375.506 889.715 375.85 890.195 376.271C890.671 376.694 890.911 377.274 890.911 378.012C890.911 378.552 890.767 379.002 890.484 379.362C890.206 379.725 889.825 379.997 889.34 380.181C888.86 380.357 888.317 380.446 887.71 380.446C886.815 380.446 886.061 380.23 885.445 379.8C884.827 379.362 884.454 378.656 884.324 377.678H885.792C885.907 378.309 886.144 378.751 886.508 379.004C886.869 379.252 887.3 379.374 887.803 379.374C888.271 379.374 888.669 379.27 888.993 379.062C889.316 378.849 889.478 378.532 889.478 378.116C889.478 377.71 889.319 377.384 889.004 377.136C888.687 376.882 888.167 376.66 887.444 376.467C886.936 376.322 886.468 376.149 886.046 375.948C885.621 375.74 885.283 375.472 885.029 375.14C884.781 374.811 884.659 374.396 884.659 373.894C884.659 373.11 884.931 372.496 885.48 372.049C886.035 371.604 886.754 371.38 887.641 371.38Z" fill="#191919"/>
<path d="M895.089 372.741V377.701C895.089 377.839 895.089 377.955 895.089 378.047C895.089 378.139 895.095 378.243 895.112 378.358C895.141 378.774 895.262 379.045 895.47 379.166C895.684 379.281 896.063 379.31 896.603 379.247V380.262C896.395 380.291 896.193 380.311 896.002 380.32C895.808 380.334 895.612 380.343 895.413 380.343C894.881 380.343 894.471 380.221 894.188 379.985C893.91 379.748 893.751 379.362 893.714 378.831C893.697 378.716 893.691 378.572 893.691 378.393C893.691 378.209 893.691 377.998 893.691 377.759V372.741H892.535V371.668H893.691V369.672H895.089V371.668H896.707V372.741H895.089Z" fill="#191919"/>
<path d="M902.706 371.414C902.943 371.414 903.14 371.454 903.296 371.529V372.579C902.562 372.527 901.949 372.723 901.458 373.168C900.964 373.615 900.719 374.33 900.719 375.313V380.216H899.32V371.61H900.719V372.96L901.504 371.806C901.88 371.547 902.282 371.414 902.706 371.414Z" fill="#191919"/>
<path d="M910.449 380.216L910.31 378.981L909.837 379.904C909.542 380.112 909.213 380.253 908.843 380.331C908.473 380.406 908.08 380.446 907.664 380.446C907.147 380.446 906.676 380.348 906.254 380.158C905.838 379.968 905.506 379.691 905.26 379.327C905.012 378.967 904.891 378.52 904.891 377.989C904.891 377.015 905.275 376.279 906.046 375.786C906.815 375.287 908.045 375.036 909.733 375.036H910.287V374.806C910.287 374.621 910.287 374.445 910.287 374.275C910.287 374.099 910.276 373.929 910.253 373.767C910.221 373.369 910.079 373.049 909.825 372.81C909.571 372.573 909.155 372.452 908.577 372.452C907.991 372.452 907.549 372.608 907.248 372.914C906.953 373.222 906.78 373.675 906.728 374.275H905.26C905.33 373.352 905.659 372.643 906.254 372.141C906.846 371.633 907.621 371.38 908.577 371.38C909.608 371.38 910.357 371.584 910.819 371.991C911.287 372.4 911.561 372.954 911.639 373.652C911.662 373.831 911.674 374.018 911.674 374.217C911.68 374.419 911.686 374.609 911.686 374.794V378.024C911.686 378.347 911.697 378.676 911.72 379.004C911.743 379.336 911.784 379.74 911.847 380.216H910.449ZM908.138 379.374C908.791 379.374 909.311 379.166 909.698 378.751C910.091 378.33 910.287 377.73 910.287 376.951V376.074C909.109 375.991 908.167 376.086 907.468 376.363C906.766 376.64 906.416 377.144 906.416 377.874C906.416 378.399 906.569 378.78 906.878 379.016C907.184 379.255 907.606 379.374 908.138 379.374Z" fill="#191919"/>
<path d="M916.293 368.276V377.747C916.293 377.88 916.293 378.012 916.293 378.151C916.293 378.284 916.296 378.416 916.304 378.555C916.327 378.831 916.411 379.022 916.559 379.12C916.712 379.221 916.98 379.253 917.368 379.212V380.216C917.212 380.239 917.047 380.253 916.871 380.262C916.7 380.276 916.535 380.285 916.374 380.285C915.972 380.285 915.634 380.198 915.357 380.02C915.079 379.835 914.929 379.475 914.906 378.935C914.897 378.782 914.895 378.612 914.895 378.428C914.895 378.243 914.895 378.033 914.895 377.793V368.276H916.293Z" fill="#191919"/>
<path d="M920.491 368.784C920.737 368.784 920.945 368.873 921.115 369.049C921.291 369.22 921.381 369.427 921.381 369.672C921.381 369.926 921.291 370.142 921.115 370.318C920.945 370.488 920.737 370.572 920.491 370.572C920.237 370.572 920.02 370.488 919.844 370.318C919.674 370.142 919.59 369.926 919.59 369.672C919.59 369.427 919.674 369.22 919.844 369.049C920.02 368.873 920.237 368.784 920.491 368.784ZM921.185 380.216H919.786V371.61H921.185V380.216Z" fill="#191919"/>
<path d="M929.418 380.216L929.279 378.981L928.805 379.904C928.511 380.112 928.181 380.253 927.812 380.331C927.442 380.406 927.049 380.446 926.633 380.446C926.116 380.446 925.645 380.348 925.223 380.158C924.807 379.968 924.475 379.691 924.229 379.327C923.981 378.967 923.859 378.52 923.859 377.989C923.859 377.015 924.244 376.279 925.015 375.786C925.783 375.287 927.014 375.036 928.701 375.036H929.256V374.806C929.256 374.621 929.256 374.445 929.256 374.275C929.256 374.099 929.244 373.929 929.221 373.767C929.19 373.369 929.048 373.049 928.794 372.81C928.54 372.573 928.124 372.452 927.546 372.452C926.959 372.452 926.517 372.608 926.217 372.914C925.922 373.222 925.749 373.675 925.697 374.275H924.229C924.299 373.352 924.628 372.643 925.223 372.141C925.815 371.633 926.589 371.38 927.546 371.38C928.577 371.38 929.325 371.584 929.788 371.991C930.256 372.4 930.53 372.954 930.608 373.652C930.631 373.831 930.643 374.018 930.643 374.217C930.649 374.419 930.654 374.609 930.654 374.794V378.024C930.654 378.347 930.666 378.676 930.689 379.004C930.712 379.336 930.753 379.74 930.816 380.216H929.418ZM927.107 379.374C927.76 379.374 928.28 379.166 928.667 378.751C929.06 378.33 929.256 377.73 929.256 376.951V376.074C928.077 375.991 927.135 376.086 926.436 376.363C925.734 376.64 925.385 377.144 925.385 377.874C925.385 378.399 925.538 378.78 925.847 379.016C926.153 379.255 926.575 379.374 927.107 379.374Z" fill="#191919"/>
<path d="M130.23 122.346H130.181C125.122 122.352 121.025 126.45 121.031 131.499C121.034 132.598 121.959 135.009 122.825 137.365C124.042 140.661 129.482 153.356 130.21 154.213C130.21 154.213 130.224 154.25 130.236 154.242C130.241 154.25 130.259 154.213 130.259 154.213C130.984 153.353 135.959 141.178 137.62 137.351C138.619 135.046 139.402 132.575 139.399 131.476C139.397 126.429 135.291 122.337 130.23 122.346Z" fill="#004AAD"/>
<path d="M130.226 138.288C126.566 138.291 123.596 135.332 123.59 131.681C123.587 128.027 126.551 125.063 130.211 125.057C133.872 125.054 136.842 128.013 136.847 131.667C136.85 135.318 133.886 138.285 130.226 138.288Z" fill="white"/>
<path d="M159.983 132.619V139.69C159.983 139.86 159.983 140.03 159.983 140.198C159.983 140.368 159.971 140.532 159.948 140.694C159.893 141.317 159.711 141.882 159.405 142.389C159.096 142.897 158.642 143.306 158.041 143.612C157.446 143.912 156.689 144.062 155.765 144.062C154.855 144.062 154.095 143.912 153.488 143.612C152.887 143.306 152.431 142.897 152.125 142.389C151.816 141.882 151.634 141.317 151.582 140.694C151.573 140.532 151.564 140.368 151.558 140.198C151.55 140.03 151.547 139.86 151.547 139.69V132.619H152.945V139.563C152.945 139.733 152.948 139.904 152.957 140.071C152.962 140.241 152.971 140.402 152.98 140.555C153.049 141.256 153.315 141.833 153.777 142.286C154.245 142.733 154.91 142.955 155.765 142.955C156.634 142.955 157.296 142.733 157.752 142.286C158.215 141.833 158.48 141.256 158.55 140.555C158.573 140.402 158.584 140.241 158.584 140.071C158.584 139.904 158.584 139.733 158.584 139.563V132.619H159.983Z" fill="#191919"/>
<path d="M167.038 132.4C167.815 132.4 168.471 132.544 169.002 132.826C169.534 133.112 169.95 133.507 170.25 134.015C170.551 134.516 170.73 135.085 170.793 135.722H169.303C169.233 135.024 168.993 134.482 168.586 134.095C168.185 133.703 167.63 133.507 166.922 133.507C166.327 133.507 165.824 133.651 165.408 133.934C164.998 134.211 164.796 134.643 164.796 135.226C164.796 135.834 164.981 136.293 165.35 136.599C165.726 136.907 166.344 137.158 167.199 137.348C168.439 137.634 169.366 138.049 169.984 138.594C170.6 139.134 170.909 139.88 170.909 140.832C170.909 141.487 170.738 142.055 170.4 142.539C170.059 143.024 169.597 143.402 169.014 143.67C168.436 143.929 167.783 144.062 167.061 144.062C165.818 144.062 164.825 143.768 164.079 143.174C163.331 142.574 162.895 141.732 162.773 140.648H164.276C164.438 141.386 164.764 141.957 165.258 142.355C165.749 142.756 166.359 142.955 167.084 142.955C167.722 142.955 168.268 142.79 168.725 142.459C169.187 142.13 169.418 141.671 169.418 141.086C169.418 140.402 169.204 139.883 168.783 139.529C168.358 139.168 167.653 138.877 166.668 138.652C166.003 138.499 165.42 138.3 164.911 138.052C164.409 137.798 164.013 137.472 163.721 137.072C163.435 136.674 163.293 136.166 163.293 135.549C163.293 134.897 163.461 134.335 163.802 133.865C164.14 133.397 164.591 133.034 165.154 132.78C165.723 132.527 166.35 132.4 167.038 132.4Z" fill="#191919"/>
<path d="M179.68 139.863H175.542L174.225 143.831H172.734L176.767 132.619H178.651L182.522 143.831H181.02L179.68 139.863ZM175.935 138.733H179.31L177.68 133.726L175.935 138.733Z" fill="#191919"/>
</svg>
